<svg xmlns="http://www.w3.org/2000/svg" xmlns:xlink="http://www.w3.org/1999/xlink" width="201" height="55" viewBox="0 0 201 55"><defs><clipPath id="a"><rect width="35.603" height="35.601" fill="none"/></clipPath></defs><g transform="translate(-136 -5351)"><path d="M0,0H162.5A18.5,18.5,0,0,1,181,18.5v0A18.5,18.5,0,0,1,162.5,37H0a0,0,0,0,1,0,0V0A0,0,0,0,1,0,0Z" transform="translate(136 5360)" fill="#0043ff"/><path d="M7.567,15.6a1.268,1.268,0,0,0-.479-1.055,5.954,5.954,0,0,0-1.683-.782,16.147,16.147,0,0,1-1.969-.782Q.949,11.758.949,9.622a3.011,3.011,0,0,1,.62-1.876A4.008,4.008,0,0,1,3.322,6.48a6.823,6.823,0,0,1,2.549-.453,5.969,5.969,0,0,1,2.474.492,3.917,3.917,0,0,1,1.7,1.4A3.661,3.661,0,0,1,10.652,10H7.576A1.547,1.547,0,0,0,7.1,8.787a1.867,1.867,0,0,0-1.3-.431A2.106,2.106,0,0,0,4.5,8.721a1.074,1.074,0,0,0,.048,1.819,6.65,6.65,0,0,0,1.854.826,11.36,11.36,0,0,1,2.18.918,3.663,3.663,0,0,1,2.074,3.3,3.125,3.125,0,0,1-1.266,2.637,5.629,5.629,0,0,1-3.472.958A6.888,6.888,0,0,1,3.1,18.618a4.247,4.247,0,0,1-1.9-1.529,3.985,3.985,0,0,1-.637-2.237H3.656a1.963,1.963,0,0,0,.532,1.516,2.513,2.513,0,0,0,1.727.488,1.985,1.985,0,0,0,1.208-.33A1.088,1.088,0,0,0,7.567,15.6ZM15.521,19H12.445V6.2h3.076ZM14.353,2.775h3.129l-2.443,2.76-2.417,0ZM28.354,19H25.286l-4.535-7.963V19H17.666V6.2h3.085l4.526,7.963V6.2h3.076Zm12-10.415H36.51V19H33.425V8.585H29.654V6.2h10.7Zm9.237,4.983H44.736v3.059h5.73V19H41.651V6.2h8.833V8.585H44.736v2.7h4.852Zm8.736,2.03a1.268,1.268,0,0,0-.479-1.055,5.954,5.954,0,0,0-1.683-.782,16.147,16.147,0,0,1-1.969-.782q-2.487-1.222-2.487-3.357a3.011,3.011,0,0,1,.62-1.876A4.008,4.008,0,0,1,54.079,6.48a6.823,6.823,0,0,1,2.549-.453A5.969,5.969,0,0,1,59.1,6.52a3.917,3.917,0,0,1,1.7,1.4A3.661,3.661,0,0,1,61.409,10H58.333a1.547,1.547,0,0,0-.479-1.213,1.867,1.867,0,0,0-1.3-.431,2.106,2.106,0,0,0-1.305.365,1.074,1.074,0,0,0,.048,1.819,6.65,6.65,0,0,0,1.854.826,11.36,11.36,0,0,1,2.18.918,3.663,3.663,0,0,1,2.074,3.3,3.125,3.125,0,0,1-1.266,2.637,5.629,5.629,0,0,1-3.472.958,6.888,6.888,0,0,1-2.817-.558,4.247,4.247,0,0,1-1.9-1.529,3.985,3.985,0,0,1-.637-2.237h3.094a1.963,1.963,0,0,0,.532,1.516,2.513,2.513,0,0,0,1.727.488,1.985,1.985,0,0,0,1.208-.33A1.088,1.088,0,0,0,58.324,15.6ZM66.278,19H63.2V6.2h3.076Zm8.745-3.4a1.268,1.268,0,0,0-.479-1.055,5.954,5.954,0,0,0-1.683-.782,16.147,16.147,0,0,1-1.969-.782q-2.487-1.222-2.487-3.357a3.011,3.011,0,0,1,.62-1.876A4.008,4.008,0,0,1,70.778,6.48a6.823,6.823,0,0,1,2.549-.453A5.969,5.969,0,0,1,75.8,6.52a3.917,3.917,0,0,1,1.7,1.4A3.661,3.661,0,0,1,78.108,10H75.032a1.547,1.547,0,0,0-.479-1.213,1.867,1.867,0,0,0-1.3-.431,2.106,2.106,0,0,0-1.305.365A1.074,1.074,0,0,0,72,10.541a6.65,6.65,0,0,0,1.854.826,11.36,11.36,0,0,1,2.18.918,3.663,3.663,0,0,1,2.074,3.3,3.125,3.125,0,0,1-1.266,2.637,5.629,5.629,0,0,1-3.472.958,6.888,6.888,0,0,1-2.817-.558,4.247,4.247,0,0,1-1.9-1.529,3.985,3.985,0,0,1-.637-2.237h3.094a1.963,1.963,0,0,0,.532,1.516,2.513,2.513,0,0,0,1.727.488,1.985,1.985,0,0,0,1.208-.33A1.088,1.088,0,0,0,75.023,15.6Z" transform="translate(181 5368)" fill="#fff"/><g transform="translate(4.763 -340.236)"><circle cx="27.5" cy="27.5" r="27.5" transform="translate(277.237 5691.236)" fill="#0ccbc3"/><g transform="translate(286.935 5700.936)"><g transform="translate(0 0)" clip-path="url(#a)"><path d="M25.607,2.375V0A17.742,17.742,0,0,0,14.059,4.771L15.738,6.45a15.375,15.375,0,0,1,9.869-4.075" transform="translate(-8.407 0)" fill="#01074e"/><path d="M6.492,15.627,4.813,13.948A17.737,17.737,0,0,0,0,25.5H2.376a15.378,15.378,0,0,1,4.116-9.87" transform="translate(-0.001 -8.341)" fill="#01074e"/><path d="M7.806,56.848a15.4,15.4,0,0,1-5.432-11.22H0a17.763,17.763,0,0,0,6.123,12.9L4.14,60.512l8.9,2.374L9.483,55.169Z" transform="translate(0 -27.285)" fill="#01074e"/><path d="M72.465,55.536l1.682,1.682a17.736,17.736,0,0,0,4.769-11.59H76.541a15.367,15.367,0,0,1-4.076,9.908" transform="translate(-43.333 -27.285)" fill="#01074e"/><path d="M61.537,74.857l1.18,2.064a17.84,17.84,0,0,0,4.06-2.87L65.1,72.37a15.456,15.456,0,0,1-3.562,2.487" transform="translate(-36.798 -43.276)" fill="#01074e"/><path d="M45.964,9.636l1.978-1.978L44.38,4.1,43,5.479l.021.021,0,0L43,5.479A17.751,17.751,0,0,0,30.727,0V2.375A15.388,15.388,0,0,1,41.318,7.159L30.133,18.343,24.2,12.407l-3.562,3.562,9.5,9.5L44.186,11.414l.017.025a15.355,15.355,0,0,1,1.347,5.717h2.374a17.718,17.718,0,0,0-1.942-7.5Z" transform="translate(-12.339 0)" fill="#01074e"/></g></g></g></g></svg>