<svg xmlns="http://www.w3.org/2000/svg" xmlns:xlink="http://www.w3.org/1999/xlink" width="263.922" height="79.214" viewBox="0 0 263.922 79.214"><defs><clipPath id="a"><rect width="263.922" height="79.215" fill="none"/></clipPath></defs><g transform="translate(0 0)"><g clip-path="url(#a)"><path d="M280.331,75.425H94.406c-7.47,0-13.526-6.4-13.526-14.286V27.126c0-7.89,6.056-14.286,13.526-14.286H280.331c7.47,0,13.526,6.4,13.526,14.286V61.14c0,7.89-6.056,14.286-13.526,14.286" transform="translate(-29.935 -4.752)" fill="#3740a5"/><path d="M39.607,0A39.607,39.607,0,1,0,79.215,39.607,39.608,39.608,0,0,0,39.607,0m0,64.812a3.6,3.6,0,1,1,3.6-3.6,3.6,3.6,0,0,1-3.6,3.6m6.784-42.848-3.2,28.827a3.6,3.6,0,0,1-7.158,0l-3.2-28.827a6.841,6.841,0,0,1,1.7-5.3,7.035,7.035,0,0,1,9.947-.214c.073.07.144.14.214.214A6.841,6.841,0,0,1,46.391,21.964Z" transform="translate(0 0)" fill="#0043ff"/></g></g><text transform="translate(101.191 47.445)" fill="#fff" font-size="25" font-family="Roboto-Bold, Roboto" font-weight="700"><tspan x="0" y="0" letter-spacing="0.049em">¡</tspan><tspan y="0" letter-spacing="0.041em">A</tspan><tspan y="0" letter-spacing="0.049em">t</tspan><tspan y="0" letter-spacing="0.05em">e</tspan><tspan y="0" letter-spacing="0.049em">n</tspan><tspan y="0" letter-spacing="0.05em">c</tspan><tspan y="0" letter-spacing="0.049em">ión</tspan><tspan y="0">!</tspan></text></svg>