<svg xmlns="http://www.w3.org/2000/svg" xmlns:xlink="http://www.w3.org/1999/xlink" width="248.005" height="158.119" viewBox="0 0 248.005 158.119"><defs><clipPath id="a"><rect width="248.005" height="158.12" fill="none"/></clipPath><clipPath id="c"><rect width="17.867" height="55.77" fill="none"/></clipPath><clipPath id="d"><rect width="6.288" height="29.478" fill="none"/></clipPath><clipPath id="e"><rect width="5.961" height="33.139" fill="none"/></clipPath><clipPath id="f"><rect width="14.612" height="15.344" fill="none"/></clipPath></defs><g clip-path="url(#a)"><g clip-path="url(#a)"><path d="M196.468,9.487A1.9,1.9,0,0,0,197.6,7.73a1.785,1.785,0,1,0-3.562-.017,1.9,1.9,0,0,0,1.135,1.774c-2.741.413-2.617,3.393-2.617,3.393l6.483.03s.148-3.012-2.57-3.423" transform="translate(-72.972 -2.206)" fill="#ebebeb"/><path d="M357,66.319a4.2,4.2,0,0,0,2.5-3.881,3.942,3.942,0,1,0-7.868-.037,4.189,4.189,0,0,0,2.506,3.917c-6.054.912-5.78,7.493-5.78,7.493l14.318.066S363,67.226,357,66.319" transform="translate(-132.015 -22.065)" fill="#b5e5eb"/><path d="M350.267,77.774a15.759,15.759,0,1,1,15.759-15.759,15.776,15.776,0,0,1-15.759,15.759m0-31.068a15.31,15.31,0,1,0,15.31,15.31,15.327,15.327,0,0,0-15.31-15.31" transform="translate(-126.768 -17.53)" fill="#b5e5eb"/><path d="M80.914,34.165A3.828,3.828,0,0,0,83.2,30.623a3.6,3.6,0,1,0-7.18-.034A3.821,3.821,0,0,0,78.3,34.165C72.778,35,73.029,41,73.029,41l13.063.06s.3-6.069-5.178-6.9" transform="translate(-27.675 -10.148)" fill="#b5e5eb"/><path d="M74.763,44.625a14.4,14.4,0,1,1,14.4-14.4,14.414,14.414,0,0,1-14.4,14.4m0-28.348a13.949,13.949,0,1,0,13.95,13.95,13.965,13.965,0,0,0-13.95-13.95" transform="translate(-22.876 -5.998)" fill="#b5e5eb"/><path d="M286.105,29.567A3,3,0,0,0,287.89,26.8a2.815,2.815,0,1,0-5.619-.026,2.993,2.993,0,0,0,1.79,2.8c-4.324.651-4.127,5.35-4.127,5.35l10.224.047s.233-4.75-4.053-5.4" transform="translate(-106.086 -9.014)" fill="#b5e5eb"/><path d="M281.261,37.74a11.318,11.318,0,1,1,11.318-11.318A11.33,11.33,0,0,1,281.261,37.74m0-22.186a10.869,10.869,0,1,0,10.869,10.869,10.881,10.881,0,0,0-10.869-10.869" transform="translate(-102.3 -5.724)" fill="#b5e5eb"/><path d="M221.1,69.431a2.114,2.114,0,0,0,1.26-1.956,1.987,1.987,0,1,0-3.967-.019,2.111,2.111,0,0,0,1.264,1.975c-3.052.46-2.914,3.777-2.914,3.777l7.218.034s.165-3.354-2.861-3.811" transform="translate(-82.139 -24.766)" fill="#b5e5eb"/><path d="M217.667,75.231a8.01,8.01,0,1,1,8.011-8.01,8.019,8.019,0,0,1-8.011,8.01m0-15.662a7.651,7.651,0,1,0,7.652,7.652,7.66,7.66,0,0,0-7.652-7.652" transform="translate(-79.453 -22.439)" fill="#b5e5eb"/><path d="M23.2,125.751a1.925,1.925,0,0,0,1.147-1.781,1.809,1.809,0,1,0-3.611-.017,1.922,1.922,0,0,0,1.15,1.8c-2.778.419-2.652,3.438-2.652,3.438l6.571.03s.15-3.052-2.6-3.468" transform="translate(-7.289 -46.248)" fill="#b5e5eb"/><path d="M20.039,131.055a7.353,7.353,0,1,1,7.353-7.353,7.362,7.362,0,0,1-7.353,7.353m0-14.257a6.9,6.9,0,1,0,6.9,6.9,6.912,6.912,0,0,0-6.9-6.9" transform="translate(-4.808 -44.093)" fill="#b5e5eb"/><path d="M32.464,95.742c-.054-.036,5.609-8.668,12.645-19.279S57.9,57.277,57.95,57.312,52.343,65.978,45.3,76.592,32.518,95.777,32.464,95.742" transform="translate(-12.303 -21.719)" fill="#b5e5eb"/><path d="M234.518,59.679c-.027-.043,5.469-3.558,12.275-7.849s12.348-7.736,12.375-7.693-5.468,3.557-12.277,7.85-12.347,7.736-12.374,7.692" transform="translate(-88.875 -16.726)" fill="#b5e5eb"/><path d="M169.623,65.081c-.009.05-14.915-2.487-33.291-5.667s-33.271-5.8-33.262-5.85,14.912,2.487,33.293,5.668,33.268,5.8,33.259,5.85" transform="translate(-39.06 -20.299)" fill="#b5e5eb"/><path d="M325.211,53c-.027.044-4.629-2.7-10.279-6.125s-10.21-6.241-10.184-6.285,4.628,2.7,10.28,6.126S325.238,52.961,325.211,53" transform="translate(-115.49 -15.384)" fill="#b5e5eb"/><path d="M48.62,42.68c0,.051-4.284.144-9.57.208s-9.573.073-9.573.022,4.284-.144,9.571-.207,9.572-.074,9.573-.023" transform="translate(-11.171 -16.162)" fill="#b5e5eb"/><path d="M20.149,41.226a1.208,1.208,0,0,0,.72-1.118A1.136,1.136,0,1,0,18.6,40.1a1.206,1.206,0,0,0,.723,1.129,2.066,2.066,0,0,0-1.666,2.16l4.127.019s.094-1.918-1.636-2.179" transform="translate(-6.691 -14.739)" fill="#b5e5eb"/><path d="M18.111,44.591a4.7,4.7,0,1,1,4.7-4.7,4.708,4.708,0,0,1-4.7,4.7m0-8.956a4.253,4.253,0,1,0,4.253,4.253,4.258,4.258,0,0,0-4.253-4.253" transform="translate(-5.082 -13.334)" fill="#b5e5eb"/><path d="M193.268,14.772a7.386,7.386,0,1,1,7.386-7.386,7.395,7.395,0,0,1-7.386,7.386m0-14.066a6.681,6.681,0,1,0,6.68,6.68,6.688,6.688,0,0,0-6.68-6.68" transform="translate(-70.443)" fill="#b5e5eb"/><path d="M210.262,47.311a1.321,1.321,0,0,1-.1-.239l-.24-.7c-.212-.625-.509-1.5-.873-2.562-.743-2.162-1.809-5.134-3.087-8.378s-2.528-6.146-3.459-8.234L201.4,24.733c-.124-.279-.223-.5-.3-.673a1.288,1.288,0,0,1-.093-.24,1.325,1.325,0,0,1,.127.224l.33.658c.286.572.684,1.407,1.165,2.445.962,2.075,2.231,4.971,3.513,8.219s2.326,6.231,3.039,8.4c.356,1.087.635,1.97.817,2.583l.207.707a1.331,1.331,0,0,1,.06.25" transform="translate(-76.174 -9.027)" fill="#b5e5eb"/><path d="M2.168,210.195v12.459H.088v1.352h2.08v8.339H41.052v-7.587h-2.88V223.1h2.88v-2.479h1.28V219.5h-1.52v-9.3Z" transform="translate(-0.033 -79.657)" fill="#baeff5"/><path d="M49.423,210.231v21.975H59.749v-7.587h-2.88V223.1l2.88.052v-2.479l1.3,0-.025-1.281-1.52-.038V210.2Z" transform="translate(-18.73 -79.657)" fill="#acdae0"/><path d="M31.429,232.062c0,.076-7.036.138-15.713.138S0,232.138,0,232.062s7.034-.138,15.715-.138,15.713.061,15.713.138" transform="translate(0 -87.892)" fill="#acdae0"/><path d="M31.429,230.024c0,.076-7.036.138-15.713.138S0,230.1,0,230.024s7.034-.138,15.715-.138,15.713.061,15.713.138" transform="translate(0 -87.12)" fill="#acdae0"/><path d="M34.679,224.539c0,.076-7.036.138-15.713.138s-15.715-.061-15.715-.138,7.034-.138,15.715-.138,15.713.061,15.713.138" transform="translate(-1.232 -85.041)" fill="#acdae0"/><path d="M34.992,239.485c0,.076-7.036.138-15.713.138s-15.715-.061-15.715-.138,7.034-.138,15.715-.138,15.713.061,15.713.138" transform="translate(-1.35 -90.705)" fill="#acdae0"/><path d="M9.142,174.879v12.459H7.061v1.352h2.08v8.339H48.026v-7.587h-2.88v-1.653h2.88V185.31h1.28v-1.127h-1.52v-9.3Z" transform="translate(-2.676 -66.274)" fill="#baeff5"/><path d="M56.4,174.915V196.89H66.722V189.3h-2.88v-1.514l2.88.052v-2.479l1.3,0L68,184.082l-1.52-.038v-9.165Z" transform="translate(-21.372 -66.274)" fill="#acdae0"/><path d="M38.4,196.746c0,.076-7.036.138-15.713.138s-15.715-.061-15.715-.138,7.034-.138,15.715-.138,15.713.061,15.713.138" transform="translate(-2.643 -74.508)" fill="#acdae0"/><path d="M38.4,194.708c0,.076-7.036.138-15.713.138s-15.715-.061-15.715-.138,7.034-.138,15.715-.138,15.713.061,15.713.138" transform="translate(-2.643 -73.736)" fill="#acdae0"/><path d="M41.653,189.223c0,.076-7.036.138-15.713.138s-15.715-.061-15.715-.138,7.034-.138,15.715-.138,15.713.061,15.713.138" transform="translate(-3.875 -71.657)" fill="#acdae0"/><path d="M41.966,204.169c0,.076-7.036.138-15.713.138s-15.715-.061-15.715-.138,7.034-.138,15.715-.138,15.713.061,15.713.138" transform="translate(-3.993 -77.321)" fill="#acdae0"/><path d="M378.388,174.568a12.091,12.091,0,0,1,7.5-.912,6.236,6.236,0,0,1,3.707,1.654,2.668,2.668,0,0,1,.039,3.7,3.554,3.554,0,0,1-2.338.593c-1.984-.024-4.184-.373-5.769.821-.9.681-1.506,1.813-2.587,2.148a2.555,2.555,0,0,1-2.811-1.251,4.367,4.367,0,0,1-.318-3.223,4.921,4.921,0,0,1,2.574-3.531" transform="translate(-142.36 -65.73)" fill="#b5e5eb"/><path d="M370.834,146.369c1.4,1.993,4.108,1.333,5.366.117a10.139,10.139,0,0,0,2.273-4.661c1.105-3.842,2.22-7.873,1.4-11.785a6.548,6.548,0,0,0-1.505-3.2,3.421,3.421,0,0,0-3.242-1.079c-1.367.361-2.217,1.7-2.832,2.975a28.1,28.1,0,0,0-2.776,12.055,9.744,9.744,0,0,0,1.318,5.582" transform="translate(-140.035 -47.624)" fill="#b5e5eb"/><path d="M355.659,153.142a7.252,7.252,0,0,0,1.128-6.674,12.86,12.86,0,0,0-3.953-5.734,21.274,21.274,0,0,0-7.078-4.177,7.555,7.555,0,0,0-3.184-.541,3.343,3.343,0,0,0-2.672,1.617c-.745,1.421-.03,3.144.742,4.55a53.929,53.929,0,0,0,4.649,7.08,12.586,12.586,0,0,0,5.114,4.381c2.124.812,4.33.717,5.456-.756" transform="translate(-128.693 -51.538)" fill="#b5e5eb"/><path d="M371.47,196.231a4.354,4.354,0,0,0,.126-.905c.065-.66.145-1.487.241-2.472a35.712,35.712,0,0,1,.556-3.626,28.028,28.028,0,0,1,1.318-4.279,15.8,15.8,0,0,1,2.185-3.872,8.165,8.165,0,0,1,2.763-2.3,7.732,7.732,0,0,1,2.326-.724,4.4,4.4,0,0,0,.9-.13,4.192,4.192,0,0,0-.918-.014,7.049,7.049,0,0,0-2.426.631,8.143,8.143,0,0,0-2.914,2.317,15.383,15.383,0,0,0-2.265,3.95,26.11,26.11,0,0,0-1.309,4.349,30.566,30.566,0,0,0-.482,3.672c-.079,1.05-.109,1.9-.123,2.487a4.246,4.246,0,0,0,.019.915" transform="translate(-140.766 -67.419)" fill="#acdae0"/><path d="M371.641,179.422a1.761,1.761,0,0,0,.024-.42c0-.315,0-.714,0-1.2,0-1.043,0-2.552.053-4.416.093-3.727.413-7.739,1.033-13.4.587-5.318,1.375-11.508,2.206-15.531.178-.915.358-1.739.527-2.46s.3-1.346.432-1.851c.114-.474.207-.861.281-1.168a1.806,1.806,0,0,0,.074-.414,1.745,1.745,0,0,0-.146.394l-.349,1.152c-.155.5-.314,1.118-.494,1.838s-.387,1.54-.583,2.454a136.537,136.537,0,0,0-2.32,14.412c-.621,5.668-.9,10.828-.925,14.565-.022,1.869.017,3.381.065,4.425l.073,1.2a1.781,1.781,0,0,0,.051.417" transform="translate(-140.766 -52.511)" fill="#acdae0"/><path d="M363.675,171.325a7.931,7.931,0,0,0-.009-1.256c-.047-.807-.157-1.972-.384-3.4a44.928,44.928,0,0,0-1.106-4.956,40.686,40.686,0,0,0-2.072-5.864,31.23,31.23,0,0,0-6.086-9.476,15.436,15.436,0,0,0-1.432-1.331c-.219-.186-.414-.371-.611-.518l-.556-.383a7.977,7.977,0,0,0-1.057-.677,37.271,37.271,0,0,1,3.465,3.091A32.914,32.914,0,0,1,359.76,156a46.3,46.3,0,0,1,2.084,5.81,50.405,50.405,0,0,1,1.177,4.907c.26,1.413.41,2.568.5,3.368a8.108,8.108,0,0,0,.154,1.243" transform="translate(-132.776 -54.368)" fill="#acdae0"/><path d="M356.309,216.6l1,13.664H374.86l1-13.664Z" transform="translate(-135.03 -82.084)" fill="#acdae0"/><rect width="23.338" height="5.386" transform="translate(219.584 129.129)" fill="#acdae0"/><path d="M353.579,237.758v1.493h22.952v-1.493Z" transform="translate(-133.996 -90.103)" fill="#b5e5eb"/><path d="M356.42,242.789l-1.075-2.628h21.02l-1.254,2.628Z" transform="translate(-134.665 -91.014)" fill="#acdae0"/><path d="M375.712,222.618a.561.561,0,0,1-.082.125l-.262.348-1.023,1.309-.045.058-.044-.061-2.512-3.475h.145l-2.474,3.5-.078.109-.086-.1-2.934-3.49.17,0-.161.2L363.7,224.43l-.088.11-.08-.114-2.475-3.5.144.007-3.048,3.472-.054.062-.041-.07-.955-1.6-.245-.427a.715.715,0,0,1-.075-.152.626.626,0,0,1,.1.135l.271.411,1,1.574-.1-.008,3-3.514.076-.089.068.1,2.5,3.485-.168,0,2.616-3.293.161-.2.084-.1.086.1,2.925,3.5-.164.007,2.5-3.485.073-.1.071.1,2.459,3.512-.089,0,1.064-1.276c.116-.134.209-.242.284-.33a.582.582,0,0,1,.106-.106" transform="translate(-135.21 -83.638)" fill="#baeff5"/><path d="M376.191,216.386c0,.06-4.4.109-9.823.109s-9.824-.049-9.824-.109,4.4-.109,9.824-.109,9.823.049,9.823.109" transform="translate(-135.119 -81.962)" fill="#baeff5"/><path d="M376.578,240.332c0,.06-4.78.109-10.676.109s-10.676-.049-10.676-.109,4.779-.109,10.676-.109,10.676.049,10.676.109" transform="translate(-134.62 -91.037)" fill="#baeff5"/><path d="M231.133,187.99s3.755-2.339,5.171-2.183l8.131,1.894s.7.76-.715,1.461c-1.389.691-3.2-.306-3.2-.306l-1.978.279,1.365,1.141,5.393,1.658s3.907,1.1,3.433,1.681-1.648.645-3.334.168l-3.824-1.081s-.669-.145.407.6,5.81,1.909,6.434,2.218,2.326.568,2.141,1.538-2.318.189-2.318.189l-7-1.624s2.764,1.193,3.234,1.415,2,.643,2.819,1.051,1.21.95,1.116,1.381a.817.817,0,0,1-.885.688l-5.925-2.035s-2.688-1.071-2.869-1.033,1.05,1.185,1.05,1.185l1.891.968s2.728.914,2.736,1.672-.561.729-.561.729l-4.977-1.717-5.555-2.814-4.163-2.553a19.931,19.931,0,0,0,.608-3.064,26.478,26.478,0,0,1,1.376-3.508" transform="translate(-86.84 -70.412)" fill="#ffc09d"/><path d="M235.482,195.354a8.842,8.842,0,0,1,1.34-.491,4.487,4.487,0,0,0,2.565-1.982,2.406,2.406,0,0,0,.27-1.552l-.035-.178.2-.025c.862-.111,1.666-.3,2.211-.373.551-.089.892-.095.892-.05a4.6,4.6,0,0,1-.85.253,22.578,22.578,0,0,1-2.243.507l.161-.2a2.656,2.656,0,0,1-.281,1.786,3.679,3.679,0,0,1-1.351,1.429,5.851,5.851,0,0,1-1.455.629,4.186,4.186,0,0,1-1.42.248" transform="translate(-89.24 -72.26)" fill="#ff9b6c"/><path d="M112.066,232.064l-.66-24.534,43.024.832,5.857,22.779Z" transform="translate(-42.22 -78.647)" fill="#263238"/><path d="M134.225,97.139l-3.234,3.063s-12.1,3.006-14.209,5.12-3.217,34.7-3.076,36.956-.007,21.839-.007,21.839-.711,7.468,0,7.89,14.276.6,21.039.745,21.106.538,21.952-.166-2.1-15.311-2.1-15.311l-1.171-6.737.363-11.781,2.474-16.2,1.832-16.767s-4.932-2.959-7.327-3.522-16.536-5.124-16.536-5.124" transform="translate(-42.969 -36.813)" fill="#455a64"/><path d="M193.395,149.457l-6.573-27.6a30.84,30.84,0,0,0-2.261-6.345c-1.019-2.1-2.282-4.378-2.976-4.458-4.076-.47-6.2,11.976-6.2,11.976v15.78l3.848,17.09a7.568,7.568,0,0,0,5.089,5.55l26.088,8.3,3.023-12.95Z" transform="translate(-66.466 -42.081)" fill="#455a64"/><path d="M116.193,106.342s-9.912,1.4-13.114,8.964c0,0-9.907,38.561-8.251,43.64s14.463,24.679,14.463,24.679l11.228-5.928s-10.971-22.775-10.971-25.285,6.646-46.071,6.646-46.071" transform="translate(-35.866 -40.3)" fill="#455a64"/><path d="M129.638,190.48a.735.735,0,0,1-.063-.123l-.167-.368c-.147-.335-.356-.813-.625-1.424l-2.267-5.249L119.1,165.97l-.388-.911-.008-.019v-.015a9.529,9.529,0,0,1,.208-1.335c.094-.432.187-.86.292-1.282.2-.846.412-1.675.62-2.488l1.225-4.679c.787-2.976,1.487-5.65,2.057-7.9s1-4.067,1.3-5.323c.145-.621.257-1.107.337-1.448.038-.158.068-.283.091-.376a.655.655,0,0,1,.037-.127.8.8,0,0,1-.019.13c-.019.094-.043.22-.074.379-.071.343-.173.831-.3,1.456-.279,1.262-.691,3.088-1.249,5.339s-1.241,4.93-2.018,7.908c-.386,1.49-.792,3.056-1.214,4.681-.206.814-.419,1.642-.617,2.487a18.841,18.841,0,0,0-.493,2.57l-.007-.034.388.91,7.365,17.367,2.213,5.272c.254.617.453,1.1.593,1.437l.15.376a.744.744,0,0,1,.045.13" transform="translate(-44.986 -53.083)" fill="#263238"/><path d="M180.792,133.385a1.018,1.018,0,0,1,0,.224c-.009.166-.019.378-.033.641-.038.579-.089,1.377-.153,2.353-.142,1.986-.313,4.732-.628,7.757s-.765,5.744-1.1,7.706c-.171.981-.317,1.773-.424,2.32-.052.258-.094.466-.127.629a1.022,1.022,0,0,1-.057.217,1.022,1.022,0,0,1,.02-.224c.024-.165.055-.374.093-.634.09-.574.214-1.363.366-2.329.307-1.967.732-4.684,1.05-7.7s.507-5.764.681-7.747c.088-.974.16-1.771.212-2.349.028-.261.05-.473.068-.638a1.027,1.027,0,0,1,.036-.221" transform="translate(-67.557 -50.549)" fill="#263238"/><path d="M120.614,226.91l1.112,2.05s5.514-2.1,8.136-5.641l-.724-.7Z" transform="translate(-45.709 -84.367)" fill="#ffc09d"/><path d="M130.486,220.518a3.911,3.911,0,0,1-.316.523c-.106.166-.237.368-.409.589s-.349.486-.582.751-.471.568-.761.864-.6.612-.938.932a20.233,20.233,0,0,1-2.384,1.87,21.256,21.256,0,0,1-4.932,2.413c-.33.121-.638.206-.9.286s-.5.143-.692.188a3.874,3.874,0,0,1-.6.127,3.784,3.784,0,0,1,.578-.2c.188-.055.417-.125.68-.217s.566-.183.892-.311c.659-.236,1.428-.56,2.262-.956a24,24,0,0,0,2.61-1.487,21.574,21.574,0,0,0,2.371-1.842c.339-.314.661-.611.942-.912s.541-.58.772-.843.422-.515.6-.729.317-.409.432-.568a3.888,3.888,0,0,1,.375-.481" transform="translate(-44.707 -83.569)" fill="#455a64"/><path d="M126.011,122.647c-.042-.006.107-.651.075-1.7a6.693,6.693,0,0,0-.073-.854,8.866,8.866,0,0,0-.18-.966,9.273,9.273,0,0,0-2.082-3.947,8.823,8.823,0,0,0-.7-.694,6.717,6.717,0,0,0-.663-.543c-.85-.619-1.466-.861-1.447-.9a2.186,2.186,0,0,1,.43.168,3.339,3.339,0,0,1,.483.245,5.561,5.561,0,0,1,.61.379,6.407,6.407,0,0,1,.689.534,8.41,8.41,0,0,1,.721.7A8.982,8.982,0,0,1,126,119.085a8.517,8.517,0,0,1,.166.987,6.308,6.308,0,0,1,.052.87,5.671,5.671,0,0,1-.031.718,3.433,3.433,0,0,1-.071.537,2.173,2.173,0,0,1-.1.45" transform="translate(-45.835 -42.839)" fill="#263238"/><path d="M117.81,143.469c-.012.05-3.283-.7-7.306-1.664s-7.275-1.794-7.263-1.844,3.283.7,7.306,1.664,7.274,1.794,7.262,1.844" transform="translate(-39.125 -53.04)" fill="#fff"/><path d="M161.126,142.322c0,.051-7.364.218-16.448.373s-16.452.24-16.453.188,7.363-.218,16.45-.373,16.45-.239,16.451-.188" transform="translate(-48.593 -53.93)" fill="#fff"/><path d="M191.872,145.3a1.751,1.751,0,0,1-.4.086c-.258.043-.634.1-1.1.163-.929.127-2.216.282-3.641.422s-2.718.239-3.654.3c-.469.028-.848.047-1.11.054a1.69,1.69,0,0,1-.409-.007,1.76,1.76,0,0,1,.4-.065l1.1-.112,3.647-.35,3.644-.368,1.105-.1a1.749,1.749,0,0,1,.409-.015" transform="translate(-68.805 -55.062)" fill="#fff"/><path d="M110.548,176.674c-.007.051-3.165-.361-7.052-.92s-7.034-1.052-7.028-1.1,3.165.361,7.054.92,7.034,1.053,7.026,1.1" transform="translate(-36.558 -66.186)" fill="#fff"/><path d="M156.111,182.541c0,.051-7.631.619-17.05,1.268S122,184.944,122,184.892s7.63-.619,17.052-1.268,17.06-1.134,17.063-1.083" transform="translate(-46.232 -69.176)" fill="#fff"/><path d="M196.412,173.612a3.477,3.477,0,0,1-.434.388l-1.221,1.009c-1.032.85-2.453,2.03-4,3.357s-2.93,2.555-3.927,3.446l-1.182,1.053a3.5,3.5,0,0,1-.448.371,3.408,3.408,0,0,1,.4-.424c.265-.264.656-.639,1.143-1.1.975-.916,2.345-2.159,3.9-3.49s2.986-2.495,4.04-3.319c.527-.412.957-.742,1.258-.963a3.445,3.445,0,0,1,.479-.331" transform="translate(-70.184 -65.793)" fill="#fff"/><path d="M124.324,213.876a2.583,2.583,0,0,1-.451.212l-1.253.518-4.139,1.7-4.126,1.73-1.253.52a2.626,2.626,0,0,1-.469.17,2.584,2.584,0,0,1,.44-.236c.288-.14.708-.337,1.229-.574,1.043-.476,2.492-1.111,4.108-1.781s3.089-1.246,4.162-1.648c.537-.2.972-.359,1.276-.463a2.6,2.6,0,0,1,.477-.145" transform="translate(-42.684 -81.052)" fill="#fff"/><path d="M224.835,182.229a2.749,2.749,0,0,1-.07.51c-.057.327-.15.8-.278,1.376-.255,1.158-.662,2.746-1.213,4.47s-1.145,3.253-1.61,4.343c-.232.545-.429.982-.573,1.281a2.774,2.774,0,0,1-.24.456,2.787,2.787,0,0,1,.174-.486c.135-.34.309-.777.518-1.3.433-1.1,1-2.632,1.555-4.35s.976-3.3,1.263-4.443l.335-1.361a2.777,2.777,0,0,1,.141-.5" transform="translate(-83.695 -69.059)" fill="#fff"/><path d="M137.953,107.932a3.485,3.485,0,0,1-.57.116l-1.559.266c-1.315.23-3.126.582-5.106,1.06s-3.752.994-5.027,1.39l-1.508.475a3.528,3.528,0,0,1-.56.158,3.42,3.42,0,0,1,.535-.226c.349-.135.859-.317,1.492-.532,1.268-.429,3.038-.964,5.024-1.445s3.805-.812,5.128-1.009c.661-.1,1.2-.17,1.57-.209a3.535,3.535,0,0,1,.58-.044" transform="translate(-46.849 -40.901)" fill="#fff"/><path d="M168.612,49.2c2.635,2.271,1.159,5.832.63,9.271s.087,7.21.226,10.686c.075,1.838.526,3.737-.071,5.477-.625,1.82-2.257,3.064-3.524,4.512s-2.216,3.6-1.218,5.245A1.745,1.745,0,0,1,163,84.163a2.019,2.019,0,0,1-2.321.745A5.908,5.908,0,0,1,158.5,83.47a1.231,1.231,0,0,1-1.487.842,3.3,3.3,0,0,1-1.574-1.037,4.27,4.27,0,0,0-1.507-1.148c-1.332-.472-2.891.539-4.183-.035-1.775-.788-1.606-3.857-3.442-4.488-.864-.3-1.794.111-2.7.211a1.585,1.585,0,0,1-1.758-1.608,7.454,7.454,0,0,1-5.156.379,1.826,1.826,0,0,0,.646-1.757,5.96,5.96,0,0,1-3.429-.42,3.509,3.509,0,0,0,2.272-1.8,3,3,0,0,1-2.68-.955c1.978.019,3.359-2.027,3.773-3.96s.271-4,1.059-5.815c.856-1.974,2.691-3.349,3.805-5.19,1.553-2.566,1.6-5.841,3.2-8.375a14.209,14.209,0,0,1,3.647-4.226c2.013-1.456,3.165-2.212,5.65-2.179,2.081.027,5.645.608,7.42,1.7,3.159,1.935,6.51,4.091,7.911,7.519" transform="translate(-50.593 -15.881)" fill="#263238"/><path d="M152.322,66.973a47.726,47.726,0,0,1,.043-8.24,16.684,16.684,0,0,1,2.725-7.7c.241-.34,2.112-2.556,2.5-2.41.279.1-1.087,2.272-1.009,2.56a14.145,14.145,0,0,1-.583,8.38,37.247,37.247,0,0,1-3.679,7.408" transform="translate(-57.665 -18.425)" fill="#263238"/><path d="M156.392,93.741c-4.1-1.183-11.81-9.207-10.716-13.329l6.585-24.8c1.557-6.72,6.765-11.416,13.44-9.673l.607.2A12.332,12.332,0,0,1,174.5,60.714c-1.381,5.816-2.982,12.223-4.006,15.251-2.12,6.271-8.735,5.207-8.735,5.207s-.43,1.472-.95,3.344a30.363,30.363,0,0,1-4.42,9.225" transform="translate(-55.167 -17.269)" fill="#ffc09d"/><path d="M167.118,99.8a15.989,15.989,0,0,1-7.411-5.083s.437,5.373,6.9,6.844Z" transform="translate(-60.524 -35.894)" fill="#ff9b6c"/><path d="M184.759,77.548a.946.946,0,0,1-1.161.626.9.9,0,0,1-.664-1.112.946.946,0,0,1,1.161-.627.9.9,0,0,1,.665,1.112" transform="translate(-69.313 -28.954)" fill="#263238"/><path d="M186.39,72.722c-.15.081-.667-.644-1.636-.955s-1.834-.058-1.9-.21c-.035-.07.148-.244.53-.369a2.593,2.593,0,0,1,1.569.023,2.491,2.491,0,0,1,1.254.907c.223.325.255.569.183.6" transform="translate(-69.294 -26.936)" fill="#263238"/><path d="M170.532,73.428a.946.946,0,0,1-1.161.626.9.9,0,0,1-.664-1.112.946.946,0,0,1,1.161-.627.9.9,0,0,1,.665,1.112" transform="translate(-63.922 -27.393)" fill="#263238"/><path d="M171,68.13c-.15.081-.668-.644-1.636-.955s-1.835-.058-1.9-.21c-.034-.07.147-.244.53-.369a2.593,2.593,0,0,1,1.569.023,2.491,2.491,0,0,1,1.254.907c.223.325.255.569.184.6" transform="translate(-63.462 -25.196)" fill="#263238"/><path d="M174.867,77.91a6.733,6.733,0,0,1,1.663.226c.256.055.506.081.6-.074a1.324,1.324,0,0,0,.073-.786q-.058-1.01-.12-2.118a33.973,33.973,0,0,1-.045-5.453,34.051,34.051,0,0,1,.483,5.437q.046,1.109.086,2.12a1.5,1.5,0,0,1-.186,1.011.652.652,0,0,1-.524.23,1.762,1.762,0,0,1-.438-.078,6.626,6.626,0,0,1-1.594-.514" transform="translate(-66.269 -26.416)" fill="#263238"/><path d="M172.238,62.061c-.212.2-1.066-.36-2.2-.755-1.128-.418-2.146-.527-2.179-.82-.011-.138.254-.3.721-.367a4.044,4.044,0,0,1,3.336,1.2c.316.351.419.643.322.742" transform="translate(-63.613 -22.772)" fill="#263238"/><path d="M187.006,68.876c-.27.158-.991-.314-1.939-.619-.939-.332-1.8-.392-1.918-.681-.047-.137.148-.319.565-.42a3.2,3.2,0,0,1,1.693.125,3.147,3.147,0,0,1,1.415.922c.266.33.307.592.184.672" transform="translate(-69.405 -25.427)" fill="#263238"/><path d="M151.448,68.991c-.093-.081-3.911-2.683-5.169,1.666s3.367,4.715,3.411,4.593,1.759-6.259,1.759-6.259" transform="translate(-55.353 -25.825)" fill="#ffc09d"/><path d="M149.567,74.052c-.015-.019-.091.031-.236.053a.79.79,0,0,1-.57-.152,1.952,1.952,0,0,1-.38-1.933A2.6,2.6,0,0,1,148.907,71a.91.91,0,0,1,.738-.417.4.4,0,0,1,.387.337c.024.138-.029.217-.009.231s.115-.046.132-.235a.5.5,0,0,0-.093-.322.594.594,0,0,0-.386-.232,1.109,1.109,0,0,0-.987.445,2.68,2.68,0,0,0-.614,1.136,2.046,2.046,0,0,0,.561,2.2.846.846,0,0,0,.727.086c.165-.069.217-.159.2-.171" transform="translate(-56.082 -26.658)" fill="#ff9b6c"/><path d="M176.42,52.1c.815-.192-.663-3.07-2.177-4.342-2.288-1.923-6.084-3.775-8.693-3.766-3.14.011-5.963.781-8.164,3.021a17.808,17.808,0,0,0-4.376,8.217,5.4,5.4,0,0,0-.131,2.835c.339,1.135,1.338,2.069.914,3.384a1.9,1.9,0,0,0,.08,1.458c.56,1.073,1.759.548,2.432-.126a13.1,13.1,0,0,0,2.746-5.381,13.247,13.247,0,0,0,.885-4.224c-.01-.786-.16-1.569-.127-2.355a2.718,2.718,0,0,1,.918-2.09,2.854,2.854,0,0,1,.455-.26,4.721,4.721,0,0,1,4.751.4c2.212,1.556,6.042,4.027,7.37,3.5a6.974,6.974,0,0,0,2.506-1.434Z" transform="translate(-57.883 -16.672)" fill="#263238"/><path d="M170.181,82.553c-.061-.008-.163.22-.184.62a2.524,2.524,0,0,0,.429,1.5,4.173,4.173,0,0,0,1.066,1.092c.313.224.531.325.573.276s-.1-.245-.347-.526a9.35,9.35,0,0,1-.892-1.1c-.607-.892-.5-1.853-.645-1.862" transform="translate(-64.422 -31.285)" fill="#263238"/><path d="M154.59,70.469c0,.087.006.178,0,.276,0,0,0-.1,0-.276" transform="translate(-58.585 -26.706)" fill="#ff725e"/><path d="M152.71,58.728s1.079-.628,1.159,1.229c-.019-2.4.411-19.695,17-15.081,0,0-5.352-3.194-9.969-1.787,0,0-8.722,1.277-8.19,15.639" transform="translate(-57.863 -16.194)" fill="#455a64"/><path d="M170.2,96.908c.036.066.5-.132.932-.568s.628-.9.562-.936-.358.333-.762.737-.773.7-.732.767" transform="translate(-64.499 -36.154)" fill="#263238"/><path d="M168.746,96.1c.058.052.439-.283.851-.748s.7-.883.639-.935-.439.283-.851.748-.7.883-.639.935" transform="translate(-63.947 -35.779)" fill="#263238"/><path d="M167.855,95.043c.074.025.282-.382.465-.91s.271-.978.2-1-.281.382-.465.91-.271.978-.2,1" transform="translate(-63.602 -35.293)" fill="#263238"/><path d="M166.414,94.546c.08-.019,0-.54.111-1.163s.338-1.094.268-1.137-.435.4-.547,1.091a1.522,1.522,0,0,0,.168,1.209" transform="translate(-62.989 -34.957)" fill="#263238"/><path d="M164.554,93.449a5.347,5.347,0,0,0,.124-1.133,5.289,5.289,0,0,0,.148-1.13c-.066-.034-.351.436-.428,1.1a1.639,1.639,0,0,0,.156,1.166" transform="translate(-62.293 -34.556)" fill="#263238"/><path d="M164.591,185.8c0,.006-.043.043-.135.111l-.406.289c-.355.248-.874.6-1.52,1.022-1.294.85-3.1,1.985-5.145,3.172s-3.927,2.2-5.3,2.9c-.689.352-1.25.629-1.641.814l-.452.209a.615.615,0,0,1-.163.062.6.6,0,0,1,.146-.1l.437-.241,1.613-.866c1.361-.732,3.233-1.758,5.273-2.942s3.858-2.3,5.168-3.122l1.551-.973.425-.26a.6.6,0,0,1,.155-.08" transform="translate(-56.779 -70.412)" fill="#263238"/><path d="M201.658,172.827a13.182,13.182,0,0,0-4.427,4.168,3.262,3.262,0,0,1,.431-.8,9.48,9.48,0,0,1,3.172-2.987,3.224,3.224,0,0,1,.824-.382" transform="translate(-74.744 -65.495)" fill="#263238"/><path d="M187.835,165.395s-12.629,1.5-17.3,5.229a16.023,16.023,0,0,0-2.051,2,21.427,21.427,0,0,0-5.082,12.14l-1.692,18.574.136,3.067a8.981,8.981,0,0,0,8.944,8.583l52.186.365a25.115,25.115,0,0,0,5.06-19.515c-.422-2.793-1.1-12.362-3.742-18.25-1.4-3.114-3.537-6.96-9.187-8.462l-13.182-3.727Z" transform="translate(-61.283 -62.68)" fill="#263238"/><path d="M182.115,183.693a1.942,1.942,0,0,1-.108-.415c-.056-.269-.144-.656-.263-1.132a23.325,23.325,0,0,0-3.023-7c-.265-.413-.486-.743-.644-.968a1.893,1.893,0,0,1-.227-.363,1.913,1.913,0,0,1,.285.32c.176.212.415.532.7.938a20.064,20.064,0,0,1,3.041,7.043c.1.483.173.876.206,1.15a1.92,1.92,0,0,1,.037.427" transform="translate(-67.399 -65.871)" fill="#455a64"/><path d="M186.834,212.754c-.051.006-.609-4.053-1.246-9.068s-1.114-9.085-1.063-9.091.609,4.053,1.246,9.068,1.114,9.084,1.063,9.091" transform="translate(-69.928 -73.745)" fill="#455a64"/><path d="M181.265,189.993a4.048,4.048,0,0,1-.889-.376,16.11,16.11,0,0,1-3.8-2.675,4.11,4.11,0,0,1-.655-.71,6.347,6.347,0,0,1,.742.612c.45.386,1.084.9,1.822,1.422s1.438.942,1.953,1.236a6.381,6.381,0,0,1,.827.492" transform="translate(-66.668 -70.575)" fill="#455a64"/><path d="M238.974,189.586a4.052,4.052,0,0,1,0-.634,6.7,6.7,0,0,1,.048-.743c.032-.289.053-.62.125-.979s.127-.756.237-1.173c.089-.422.234-.859.376-1.322a16.525,16.525,0,0,1,3.073-5.459c.322-.362.621-.712.935-1.007.3-.31.6-.574.879-.812s.542-.437.772-.614a6.623,6.623,0,0,1,.61-.427,4.161,4.161,0,0,1,.543-.327,4.139,4.139,0,0,1-.5.386c-.166.117-.367.263-.588.45s-.486.379-.749.631-.565.509-.856.821-.6.648-.914,1.009a17.171,17.171,0,0,0-3.042,5.4c-.145.457-.294.888-.389,1.3-.116.411-.191.8-.257,1.158s-.109.682-.151.968-.066.533-.079.736a4.1,4.1,0,0,1-.07.63" transform="translate(-90.56 -66.732)" fill="#455a64"/><path d="M230.581,220.6a1.917,1.917,0,0,1-.04-.655,1.976,1.976,0,0,1,.937-1.528l-.016.012a16.079,16.079,0,0,1,5.35-3.724l-.055.073c.073-.668.147-1.363.2-2.075a61.339,61.339,0,0,0,.107-7.823c-.047-1-.117-1.81-.158-2.369-.021-.264-.039-.477-.052-.644a1.078,1.078,0,0,1-.006-.226,1,1,0,0,1,.043.222c.022.166.051.378.087.64.063.558.153,1.366.216,2.369a54.717,54.717,0,0,1-.053,7.845c-.053.714-.127,1.411-.2,2.082l-.006.053-.049.02a16.588,16.588,0,0,0-5.337,3.636l-.006.006-.009.006a1.878,1.878,0,0,0-.692.713,1.961,1.961,0,0,0-.235.719c-.05.415,0,.646-.022.648" transform="translate(-87.365 -76.416)" fill="#455a64"/><path d="M249.322,227c-.029.017-.3-.494-.894-1.2a9.184,9.184,0,0,0-2.787-2.246,8.73,8.73,0,0,0-1.843-.717,6.767,6.767,0,0,0-1.6-.211c-.924-.006-1.494.107-1.5.071a1.592,1.592,0,0,1,.4-.1,7.373,7.373,0,0,1,1.1-.107,6.431,6.431,0,0,1,1.64.176,8.393,8.393,0,0,1,1.887.719,8.6,8.6,0,0,1,2.8,2.327,7.5,7.5,0,0,1,.619.92,1.586,1.586,0,0,1,.175.367" transform="translate(-91.218 -84.315)" fill="#455a64"/><path d="M249.253,221.439c-.014.032-.435-.166-1.155-.345a9.434,9.434,0,0,0-1.282-.221,12.611,12.611,0,0,0-1.594-.04,14.17,14.17,0,0,0-2.865.438c-.721.186-1.156.345-1.167.317a1.093,1.093,0,0,1,.293-.145,8.278,8.278,0,0,1,.838-.3,11.871,11.871,0,0,1,2.893-.5,11,11,0,0,1,1.62.055,8.049,8.049,0,0,1,1.3.265,4.536,4.536,0,0,1,.482.162,2.7,2.7,0,0,1,.353.15,1.1,1.1,0,0,1,.286.16" transform="translate(-91.403 -83.615)" fill="#455a64"/><path d="M219.768,122.528c-1.04-4.423-2.9-8.942-6.567-11.628-3.265-2.393-8.028-3.3-12.065-3a14.315,14.315,0,0,0-5.908,2.178c-2.334,1.423-3.252,4.185-4.318,6.7-2.137,5.042-1.626,11.759-.009,13.578l21.113,10.286c3.612-2.031,7.527-4.768,8.368-8.825.573-2.764.033-6.539-.614-9.286" transform="translate(-71.811 -40.868)" fill="#0043ff"/><path d="M212.619,116.746l-13.189-3.429c-4.228-.476-7.077,4.714-7.373,8.958-.33,4.715-.546,10.486-.011,14.009,1.076,7.086,6.5,8.768,6.5,8.768,0-.024.012,6.153.039,8.256l6.151,18.74,8.75-18.74,1.346-34.022a2.49,2.49,0,0,0-2.21-2.54" transform="translate(-72.657 -42.932)" fill="#ffc09d"/><path d="M196.056,136.461a.907.907,0,0,0,.869.922.868.868,0,0,0,.941-.812.908.908,0,0,0-.868-.922.869.869,0,0,0-.942.812" transform="translate(-74.299 -51.406)" fill="#263238"/><path d="M194.236,132.033c.112.119.8-.385,1.78-.376s1.689.5,1.8.384c.052-.053-.061-.267-.371-.5a2.492,2.492,0,0,0-1.437-.453,2.393,2.393,0,0,0-1.417.447c-.3.228-.406.442-.35.495" transform="translate(-73.604 -49.679)" fill="#263238"/><path d="M210.328,136.461a.907.907,0,0,0,.869.922.868.868,0,0,0,.941-.812.908.908,0,0,0-.868-.922.868.868,0,0,0-.942.812" transform="translate(-79.707 -51.406)" fill="#263238"/><path d="M209.694,132.432c.112.119.8-.385,1.78-.376s1.689.5,1.8.384c.052-.053-.06-.267-.371-.5a2.485,2.485,0,0,0-1.436-.454,2.4,2.4,0,0,0-1.418.447c-.3.228-.4.442-.35.495" transform="translate(-79.462 -49.831)" fill="#263238"/><path d="M202.4,139.667a6.475,6.475,0,0,0-1.584-.3c-.25-.028-.486-.079-.526-.249a1.267,1.267,0,0,1,.171-.738q.358-.9.751-1.894a32.633,32.633,0,0,0,1.69-4.957,32.764,32.764,0,0,0-2.085,4.809q-.376,1-.719,1.906a1.44,1.44,0,0,0-.136.978.626.626,0,0,0,.407.367,1.669,1.669,0,0,0,.424.062,6.353,6.353,0,0,0,1.608.013" transform="translate(-75.762 -49.846)" fill="#263238"/><path d="M202.681,163.018l.04,1.763c7.079.71,9.456-4.226,9.456-4.226a18,18,0,0,1-9.5,2.463" transform="translate(-76.81 -60.845)" fill="#ff9b6c"/><path d="M207.078,147.163a1.568,1.568,0,0,0-1.3-.72,2.04,2.04,0,0,0-1.866.909,1.272,1.272,0,0,0-.089.915c.068.156.015.079.135.187a3.568,3.568,0,0,0,1.453.915,1.531,1.531,0,0,0,1.622-.584,1.562,1.562,0,0,0,.045-1.622" transform="translate(-77.225 -55.497)" fill="#ff9b6c"/><path d="M206.626,145.752c-.159-.011-.168,1.05-1.081,1.8s-2.041.622-2.05.771c-.015.066.25.207.727.224a2.638,2.638,0,0,0,1.711-.583,2.3,2.3,0,0,0,.838-1.507c.043-.443-.073-.706-.145-.7" transform="translate(-77.118 -55.235)" fill="#263238"/><path d="M209,127.528c.094.266,1.071.147,2.215.293,1.148.123,2.07.465,2.224.227.069-.114-.091-.365-.463-.624a3.885,3.885,0,0,0-3.382-.4c-.422.167-.635.374-.594.5" transform="translate(-79.201 -48.056)" fill="#0043ff"/><path d="M194.839,126.565c.17.223.845,0,1.654-.008.809-.034,1.494.159,1.653-.071.07-.112-.037-.335-.334-.548a2.394,2.394,0,0,0-2.664.065c-.288.226-.383.454-.308.563" transform="translate(-73.829 -47.585)" fill="#0043ff"/><path d="M225.805,136.688c.1-.045,3.94-1.265,3.906,2.685s-3.994,3.1-4,2.988.094-5.673.094-5.673" transform="translate(-85.537 -51.72)" fill="#ffc09d"/><path d="M227.674,141.657c.017-.012.068.049.184.1a.686.686,0,0,0,.514.015,1.7,1.7,0,0,0,.8-1.521,2.266,2.266,0,0,0-.184-.987.794.794,0,0,0-.512-.533.348.348,0,0,0-.407.185c-.055.11-.03.189-.052.2s-.083-.067-.051-.23a.441.441,0,0,1,.158-.247.521.521,0,0,1,.381-.1.965.965,0,0,1,.714.619,2.338,2.338,0,0,1,.23,1.1,1.787,1.787,0,0,1-1.02,1.7.734.734,0,0,1-.628-.11c-.122-.1-.142-.188-.128-.194" transform="translate(-86.28 -52.501)" fill="#ff9b6c"/><path d="M228.9,145.469c.018-.019.171.167.148.52a.737.737,0,0,1-.279.554.818.818,0,0,1-.758.055.8.8,0,0,1-.525-.548.826.826,0,0,1,.109-.607c.2-.306.445-.335.442-.313.017.03-.186.107-.319.381a.726.726,0,0,0-.053.494.642.642,0,0,0,.417.4.664.664,0,0,0,.583-.019.626.626,0,0,0,.244-.419,2.183,2.183,0,0,0-.008-.5" transform="translate(-86.204 -54.997)" fill="#263238"/><path d="M191.415,122.449a6.172,6.172,0,0,1,2.666-2.606c1.1-.625,2.286-1.079,3.378-1.713a11.869,11.869,0,0,0,5.308-6.641,7.125,7.125,0,0,0-6.325.082,9.658,9.658,0,0,0-4.371,4.723,15.139,15.139,0,0,0-1.206,6.4" transform="translate(-72.331 -41.985)" fill="#0043ff"/><path d="M219.849,115.035c-2.921-2.776-8.441-4.307-12.25-3.008.566,3.326,3.075,7.061,5.283,9.611,2.223,2.567,3.563,7.064,8.4,5.536.333-.106.714.2,1.014.021a1.237,1.237,0,0,0,.467-.732,11.331,11.331,0,0,0-2.912-11.429" transform="translate(-78.674 -42.277)" fill="#0043ff"/><path d="M190.377,128.468a1.457,1.457,0,0,1-.694-.04,2.715,2.715,0,0,1-1.518-1.117,4.147,4.147,0,0,1-.6-2.73,10.173,10.173,0,0,1,.278-1.641,17.22,17.22,0,0,1,.5-1.711,17.443,17.443,0,0,1,3.077-5.406,16.1,16.1,0,0,1,1.3-1.374l.387-.338a.615.615,0,0,1,.144-.108,4.728,4.728,0,0,1-.476.5c-.3.325-.752.786-1.245,1.408a18.364,18.364,0,0,0-3,5.382c-.193.572-.37,1.135-.5,1.69a10.259,10.259,0,0,0-.285,1.61,4.061,4.061,0,0,0,.533,2.636,2.709,2.709,0,0,0,1.422,1.121,3.637,3.637,0,0,0,.673.115" transform="translate(-71.073 -43.203)" fill="#0043ff"/><path d="M238.472,113.65a7.586,7.586,0,0,0-1.785-5.132,6.085,6.085,0,0,0-7.1-1.111,6.891,6.891,0,0,0-3.5,6.41,7.958,7.958,0,0,0,3.981,6.248l1.629-.185a4.375,4.375,0,0,0,5.04-1.1,7.41,7.41,0,0,0,1.73-5.128" transform="translate(-85.678 -40.449)" fill="#0043ff"/><path d="M222.085,115.683a.508.508,0,0,1-.083.133c-.062.081-.143.211-.273.356a7.187,7.187,0,0,1-1.2,1.132,7.777,7.777,0,0,1-10.046-.552,7.134,7.134,0,0,1-1.068-1.256,4.405,4.405,0,0,1-.232-.383.5.5,0,0,1-.068-.141,10.8,10.8,0,0,0,1.457,1.684,8.088,8.088,0,0,0,2,1.325,7.547,7.547,0,0,0,5.738.315,8.1,8.1,0,0,0,2.137-1.1,10.8,10.8,0,0,0,1.633-1.515" transform="translate(-79.248 -43.57)" fill="#fff"/><path d="M223.972,121.208s-.041.051-.132.135a4.009,4.009,0,0,1-.413.349,6.2,6.2,0,0,1-1.762.924,7.868,7.868,0,0,1-2.924.395,9.053,9.053,0,0,1-3.5-.9,11.44,11.44,0,0,1-2.928-2.12,15.026,15.026,0,0,1-1.88-2.274,17.739,17.739,0,0,1-1.027-1.7c-.112-.206-.189-.371-.243-.482a.753.753,0,0,1-.073-.174.7.7,0,0,1,.106.157l.273.465c.236.4.589.98,1.071,1.661a15.793,15.793,0,0,0,1.892,2.227,11.6,11.6,0,0,0,2.89,2.075,9.062,9.062,0,0,0,3.424.9,7.95,7.95,0,0,0,2.874-.348,6.617,6.617,0,0,0,1.761-.858c.381-.266.575-.44.587-.425" transform="translate(-79.24 -43.718)" fill="#fff"/><path d="M239.4,115.066c.01.008-.05.094-.169.242a4.765,4.765,0,0,1-.556.579,6.5,6.5,0,0,1-.958.714,6.9,6.9,0,0,1-2.751.956,6.539,6.539,0,0,1-1.194.035,4.818,4.818,0,0,1-.8-.109.917.917,0,0,1-.283-.084c.007-.034.417.05,1.084.063a7.412,7.412,0,0,0,4.812-1.674c.516-.424.786-.744.811-.722" transform="translate(-88.182 -43.606)" fill="#fff"/><path d="M241.689,119.057a.566.566,0,0,1,.05.32,1.514,1.514,0,0,1-.3.829,2.611,2.611,0,0,1-1.041.791,7.842,7.842,0,0,1-1.508.5,8.081,8.081,0,0,1-2.87.122,6.569,6.569,0,0,1-.854-.175,1.054,1.054,0,0,1-.3-.111c.007-.032.446.088,1.17.155a9.011,9.011,0,0,0,2.814-.173,4.587,4.587,0,0,0,2.487-1.192,1.574,1.574,0,0,0,.337-.756c.028-.2.006-.311.022-.314" transform="translate(-89.005 -45.119)" fill="#fff"/><path d="M222.922,228.655a.794.794,0,0,1-.2.018c-.129,0-.319.018-.563.009a12.766,12.766,0,0,1-2.061-.2,13.874,13.874,0,0,1-10.353-8.123,12.816,12.816,0,0,1-.683-1.954c-.067-.235-.1-.424-.125-.548a.81.81,0,0,1-.029-.194c.016,0,.083.258.224.723a15.051,15.051,0,0,0,.733,1.92,14.159,14.159,0,0,0,10.258,8.049,14.842,14.842,0,0,0,2.039.255c.486.026.756.03.756.045" transform="translate(-79.17 -82.487)" fill="#455a64"/><path d="M195,229.467a.682.682,0,0,1-.156-.086l-.429-.276-1.561-1.036a45.7,45.7,0,0,0-5.321-3.116,20.674,20.674,0,0,0-5.845-1.867,16.071,16.071,0,0,0-1.859-.171,6.254,6.254,0,0,1-.686-.029.658.658,0,0,1,.177-.022c.117-.006.289-.023.51-.021a13.2,13.2,0,0,1,1.876.114,19.544,19.544,0,0,1,5.907,1.83,39.907,39.907,0,0,1,5.315,3.174c.651.451,1.171.824,1.528,1.086l.409.306a.65.65,0,0,1,.135.117" transform="translate(-67.888 -84.449)" fill="#455a64"/><path d="M218.646,232.027l-24.266,1.23,1.879,7.145,32.341.151Z" transform="translate(-73.664 -87.931)" fill="#ffc09d"/><path d="M185.771,231.5s-7.841-3.917-8.812-3.95c-.743-.025-5.053.7-7.033,1.048a1.438,1.438,0,0,0-1.215,1.6.78.78,0,0,0,.035.138,1.311,1.311,0,0,0,1.094.838,1.524,1.524,0,0,0-.83,1.576c.155,1.124,1.548,1.153,1.548,1.153a2,2,0,0,0-.168.2,1.354,1.354,0,0,0,1,2.146l.633.046a1.341,1.341,0,0,0-.647,1.239c.247,1.473,3.611,1.25,3.611,1.25l11.539-.081Z" transform="translate(-63.929 -86.235)" fill="#ffc09d"/><path d="M171.469,225.751a2.42,2.42,0,0,0,1.282,1.843l4.545-.876s-3.584-.656-4.157-1.164a3.964,3.964,0,0,0-.75-.538.654.654,0,0,0-.92.735" transform="translate(-64.975 -85.247)" fill="#ffc09d"/><path d="M174.841,228.237a6.778,6.778,0,0,1-2.066.466,8.575,8.575,0,0,1-2.107.17,6.811,6.811,0,0,1,2.066-.466,8.568,8.568,0,0,1,2.106-.17" transform="translate(-64.678 -86.483)" fill="#ff9b6c"/><path d="M174.158,232.6a6.7,6.7,0,0,1-3.608.419,34.288,34.288,0,0,1,3.608-.419" transform="translate(-64.633 -88.139)" fill="#ff9b6c"/><path d="M179.579,231.52c.075.032.024.294-.209.5s-.5.225-.521.148.142-.208.323-.371.331-.312.407-.276" transform="translate(-67.777 -87.737)" fill="#ff9b6c"/><path d="M175.469,237.134a13.316,13.316,0,0,1-3.951.469,13.316,13.316,0,0,1,3.951-.469" transform="translate(-65 -89.85)" fill="#ff9b6c"/><path d="M181.318,234.55c.035-.016.12.065.17.242a.952.952,0,0,1-.645,1.139c-.177.048-.29.017-.294-.021-.014-.08.374-.192.584-.568s.111-.764.186-.792" transform="translate(-68.422 -88.886)" fill="#ff9b6c"/><path d="M177.5,241.493a10.839,10.839,0,0,1-3.586.1,10.841,10.841,0,0,1,3.586-.1" transform="translate(-65.908 -91.478)" fill="#ff9b6c"/><path d="M183.011,238.61c.037-.011.109.081.13.259a1.119,1.119,0,0,1-.15.658c-.273.456-.626.66-.676.611-.07-.061.191-.375.415-.756s.207-.747.281-.772" transform="translate(-69.087 -90.426)" fill="#ff9b6c"/><path d="M134.063,226.682c-1.592-.757-6.907-2.828-6.907-2.828l-2.6-17.775-10.584,1.589s6.16,22.654,7.8,22.809,11.1.013,11.1.013l3.08-.048s-.781-3.229-1.9-3.76" transform="translate(-43.193 -78.098)" fill="#ab6e65"/><path d="M132.35,243.894a1.161,1.161,0,0,1-.53.2,3.088,3.088,0,0,1-2.575-.687c-.264-.234-.379-.421-.363-.434s.171.134.444.332a3.567,3.567,0,0,0,2.474.66,3.343,3.343,0,0,1,.55-.066" transform="translate(-48.842 -92.077)" fill="#7c4b43"/><path d="M140.575,242.747c-.027.017-.247-.348-.65-.894a4.367,4.367,0,0,0-.816-.845,4.585,4.585,0,0,0-1.292-.63,12.575,12.575,0,0,1-2.425-1.146,5.9,5.9,0,0,1-.925-.612,7.457,7.457,0,0,1,.99.5,15.807,15.807,0,0,0,2.423,1.087,4.454,4.454,0,0,1,1.333.669,4.091,4.091,0,0,1,.818.9,7.641,7.641,0,0,1,.421.7.922.922,0,0,1,.123.273" transform="translate(-50.959 -90.429)" fill="#7c4b43"/><path d="M72.461,111.567l-3.919,2.7a26.332,26.332,0,0,0-8.4.91,15.764,15.764,0,0,0-6.9,4.078,19.348,19.348,0,0,0-4.918,8.555L43.6,167.214l-7.183,27.808h47.8V159.837l4.575-16.143a7.875,7.875,0,0,1-1.151-2.6c.037-.743,2.7-17.944,2.7-17.944l-5.448-6.518Z" transform="translate(-13.8 -42.28)" fill="#0043ff"/><path d="M117.62,128.891s2.7,1.261,3.365,5.986,5.453,41.184,5.453,41.184-5.292,1.221-10.123,1.782l-6.081,1.035-.153-24.376Z" transform="translate(-41.717 -48.846)" fill="#0043ff"/><g transform="translate(39.311 95.865)" opacity="0.2"><g clip-path="url(#c)"><path d="M63.538,210.134c8.124-9.74,9.4-23.866,17.629-33.519l-5.034,2.828c.892-8.394,1.749-17.119-1.06-25.079A220.161,220.161,0,0,1,63.3,210.1" transform="translate(-63.3 -154.364)"/></g></g><path d="M73.073,130.116q-.275,22.546-2.067,45.04a18.913,18.913,0,0,1-.769,3.436,2.494,2.494,0,0,1-2.752,1.717l-9.806-1.479c-1.706-.288-2.351-.514-2.864-1.615a5.4,5.4,0,0,1-.471-2.43c.379-13.42-.794-20.529.015-33.214" transform="translate(-20.49 -49.31)" fill="#0043ff"/><path d="M54.327,141.571s0,.089,0,.261-.019.434-.034.767c-.036.673-.081,1.667-.121,2.947s-.07,2.847-.079,4.666.031,3.891.1,6.18c.125,4.578.366,10.032.265,16.093q-.024,1.136-.049,2.3a5.394,5.394,0,0,0,.406,2.261,2.588,2.588,0,0,0,.637.952,2.541,2.541,0,0,0,1.041.5,23.317,23.317,0,0,0,2.4.427l4.97.748,2.542.383c.424.06.861.14,1.277.183a2.406,2.406,0,0,0,2.154-1.066A4.022,4.022,0,0,0,70.288,178a20.143,20.143,0,0,0,.555-2.5c.157-1.684.271-3.365.394-5.006.24-3.287.448-6.46.628-9.483.356-6.046.6-11.5.764-16.074s.257-8.283.314-10.844l.065-2.949q.013-.5.02-.767c.006-.173.013-.261.013-.261s0,.089.006.261,0,.434,0,.767c-.007.681-.017,1.673-.03,2.95-.034,2.562-.1,6.269-.255,10.848s-.378,10.03-.725,16.079c-.176,3.024-.38,6.2-.617,9.486-.124,1.646-.235,3.313-.394,5.018a20.087,20.087,0,0,1-.56,2.521,4.184,4.184,0,0,1-.486,1.228,2.59,2.59,0,0,1-2.32,1.149c-.448-.047-.863-.125-1.293-.185l-2.542-.384-4.971-.751a23.451,23.451,0,0,1-2.419-.432,2.722,2.722,0,0,1-1.112-.542,2.766,2.766,0,0,1-.682-1.017,5.565,5.565,0,0,1-.417-2.335q.027-1.162.052-2.3c.111-6.054-.116-11.506-.225-16.086-.055-2.29-.075-4.363-.067-6.184s.056-3.388.11-4.668.108-2.274.156-2.947q.034-.5.052-.766c.013-.172.024-.26.024-.26" transform="translate(-20.458 -49.31)" fill="#263238"/><path d="M113.381,184.329a.527.527,0,0,1,0-.114c0-.084,0-.194.006-.332.011-.3.025-.733.044-1.279.021-1.112.159-2.716.391-4.69.145-.983.267-2.066.5-3.213.109-.574.2-1.171.334-1.78s.265-1.235.4-1.877c.576-2.564,1.312-5.357,2-8.306a60.812,60.812,0,0,0,1.82-15.351c-.036-.989-.069-1.886-.1-2.675s-.121-1.462-.162-2.015-.079-.971-.1-1.274c-.009-.138-.017-.247-.022-.332a.057.057,0,1,1,.019,0c.011.084.024.193.04.33l.138,1.272c.052.553.142,1.228.194,2.015s.079,1.689.125,2.68a59.159,59.159,0,0,1-1.771,15.4c-.687,2.954-1.428,5.744-2.013,8.3l-.41,1.872c-.132.607-.231,1.2-.342,1.775-.235,1.143-.365,2.223-.517,3.2-.248,1.967-.4,3.567-.448,4.676-.034.545-.06.972-.079,1.276-.01.137-.019.247-.025.332a.546.546,0,0,1-.015.113" transform="translate(-42.966 -53.426)" fill="#263238"/><path d="M102.817,172.236a.935.935,0,0,1-.138.163l-.422.441c-.368.382-.913.922-1.6,1.575-1.371,1.309-3.327,3.054-5.6,4.842s-4.435,3.275-6.031,4.3c-.8.512-1.451.914-1.908,1.181l-.528.306a.986.986,0,0,1-.191.1.919.919,0,0,1,.171-.128l.51-.334c.446-.286,1.087-.7,1.874-1.229,1.576-1.049,3.717-2.551,5.989-4.334s4.235-3.509,5.627-4.792c.7-.64,1.255-1.164,1.638-1.53l.446-.417a.981.981,0,0,1,.165-.136" transform="translate(-32.742 -65.272)" fill="#263238"/><g transform="translate(70.414 99.338)" opacity="0.2"><g clip-path="url(#d)"><path d="M118.744,159.956c-1.166,10.823-5.021,22.65-5.361,29.478,1.529-4.866,3.463-9.517,4.884-14.415s2.061-10.215.477-15.064" transform="translate(-113.383 -159.956)"/></g></g><path d="M120.073,51.969a2.78,2.78,0,0,0,1.382-4.181c-.37-.548-.928-.954-1.262-1.525a8.969,8.969,0,0,1-.563-1.543,5.617,5.617,0,0,0-3.786-3.388,7.246,7.246,0,0,0-5.127.6,5.547,5.547,0,0,1-1.934.775,7.6,7.6,0,0,1-1.995-.337,4.6,4.6,0,0,0-5.18,6.064,3.963,3.963,0,0,0-.046,7.809,8.523,8.523,0,0,0,3.384-.345,60.285,60.285,0,0,1,13.761-1.538" transform="translate(-37.252 -15.577)" fill="#263238"/><path d="M94.546,81.026a14.171,14.171,0,0,1-1.839-9.5c.527-3.252,1.849-7.177,4.355-9.314-1.09-1.789-.177-3.351,1.181-4.946a10.486,10.486,0,0,1,5.4-3.014,22.531,22.531,0,0,1,9.276-.489c2.513.394,5.75,1.481,5.729,3.343a2.7,2.7,0,0,1-1.407,2.537,12.593,12.593,0,0,1,4.081,3.7c2.517,3.608,3.128,6.866,2.041,10.145s-2.334,5.754-4.776,7.483" transform="translate(-35.066 -20.271)" fill="#0043ff"/><path d="M129.359,103.134a3.164,3.164,0,0,1,1.412-.515l-.092-.028a1.9,1.9,0,0,1,.273.017,1.25,1.25,0,0,1,.927.344l-.009,0a2.32,2.32,0,0,1,.982,1.368,2.749,2.749,0,0,1-.967,2.682,2.1,2.1,0,0,1-3.585-1.59,2.606,2.606,0,0,1,1.061-2.276" transform="translate(-48.62 -38.879)" fill="#455a64"/><path d="M94.166,98.22,98.12,72.144a2.561,2.561,0,0,1,2.77-2.08l14.008-.613c4.356.43,6.106,6.266,5.491,10.6-.683,4.815-1.707,10.668-3,14.1-2.607,6.9-8.261,6.675-8.261,6.675,0-.024-1.058,4.94-1.624,7.526l-2.888,10.231Z" transform="translate(-35.686 -26.32)" fill="#ab6e65"/><path d="M130.823,94.967a.934.934,0,0,1-1.073.74.893.893,0,0,1-.773-1.019.934.934,0,0,1,1.072-.742.894.894,0,0,1,.773,1.02" transform="translate(-48.874 -35.598)" fill="#263238"/><path d="M131.153,90.126c-.138.1-.725-.56-1.71-.761s-1.808.142-1.89,0c-.042-.064.119-.255.481-.42a2.564,2.564,0,0,1,1.543-.147,2.463,2.463,0,0,1,1.33.755c.255.295.313.532.246.574" transform="translate(-48.336 -33.63)" fill="#263238"/><path d="M115.912,92.241a.933.933,0,0,1-1.073.74.893.893,0,0,1-.773-1.019.934.934,0,0,1,1.072-.742.894.894,0,0,1,.773,1.02" transform="translate(-43.223 -34.565)" fill="#263238"/><path d="M115.513,87.2c-.138.1-.726-.56-1.71-.761s-1.808.142-1.89,0c-.041-.064.118-.256.481-.42a2.565,2.565,0,0,1,1.543-.147,2.468,2.468,0,0,1,1.33.755c.254.295.312.532.246.574" transform="translate(-42.409 -32.522)" fill="#263238"/><path d="M121.036,95.928a6.641,6.641,0,0,1,1.658.042c.257.026.5.025.583-.138a1.31,1.31,0,0,0-.014-.779q-.166-.986-.347-2.067a33.584,33.584,0,0,1-.635-5.351,33.612,33.612,0,0,1,1.064,5.287q.164,1.084.314,2.072a1.481,1.481,0,0,1-.073,1.013.644.644,0,0,1-.489.282,1.74,1.74,0,0,1-.439-.029,6.56,6.56,0,0,1-1.621-.333" transform="translate(-45.869 -33.211)" fill="#263238"/><path d="M112.747,117.209a18.527,18.527,0,0,1-9.025-4.522s1.3,5.378,8.581,6.187Z" transform="translate(-39.307 -42.705)" fill="#7c4b43"/><path d="M117.811,103.8a2.473,2.473,0,0,0-1.776-1.469,1.608,1.608,0,0,0-1.44.437,1.475,1.475,0,0,0,1.173,2.5,3.677,3.677,0,0,0,1.635-.6,1.153,1.153,0,0,0,.388-.3.512.512,0,0,0,.065-.506" transform="translate(-43.274 -38.769)" fill="#7c4b43"/><path d="M115.956,101.12c.162.024-.057,1.092.7,2.04s1.919,1.064,1.9,1.216c0,.07-.3.155-.78.069a2.716,2.716,0,0,1-1.6-.955,2.367,2.367,0,0,1-.519-1.7c.052-.455.225-.695.3-.674" transform="translate(-43.826 -38.321)" fill="#263238"/><path d="M116.441,83.138c-.152.248-1.109-.083-2.292-.182-1.182-.123-2.183.022-2.287-.25-.044-.129.17-.347.6-.528a4,4,0,0,1,3.488.329c.389.258.558.512.491.631" transform="translate(-42.39 -31.046)" fill="#263238"/><path d="M131.694,85.393c-.219.188-.85-.184-1.663-.364-.807-.208-1.537-.161-1.648-.428-.046-.128.109-.329.455-.478a2.463,2.463,0,0,1,2.667.638c.241.289.288.539.189.632" transform="translate(-48.651 -31.821)" fill="#263238"/><path d="M116.321,70.746s-6.662-1.528-13.335,4.935a29.259,29.259,0,0,0-6.435,10.353L96.511,73.6l3.095-5,5.176-1.625,8.868,1.381,2.956,2.344" transform="translate(-36.575 -25.381)" fill="#0043ff"/><path d="M106.882,67.844c11.193-.287,18.948,5.058,18.725,13.738l3.339-5.029L124.834,68.7l-5.721-2.873-12.6-.755Z" transform="translate(-40.364 -24.66)" fill="#0043ff"/><path d="M93.524,95.5a3.4,3.4,0,0,1,1.52-.554l-.1-.03a2.008,2.008,0,0,1,.293.019,1.343,1.343,0,0,1,1,.37l-.01,0a2.5,2.5,0,0,1,1.056,1.472,2.958,2.958,0,0,1-1.04,2.886,2.261,2.261,0,0,1-3.858-1.71,2.805,2.805,0,0,1,1.141-2.45" transform="translate(-35.009 -35.971)" fill="#455a64"/><path d="M97.933,83.684a1.1,1.1,0,0,1-.437-.275,2.751,2.751,0,0,1-.769-1.185,2.782,2.782,0,0,1,.12-2.09c.168-.361.391-.7.534-1.076a1.189,1.189,0,0,0-.057-1.118,4.169,4.169,0,0,0-.9-.869,3.117,3.117,0,0,1-.811-.963,3.441,3.441,0,0,1-.361-2.066,3.017,3.017,0,0,1,.5-1.319,1.143,1.143,0,0,1,.351-.378,4,4,0,0,0-.64,1.72,3.342,3.342,0,0,0,.393,1.91,2.894,2.894,0,0,0,.757.871,4.238,4.238,0,0,1,.964.937,1.476,1.476,0,0,1,.076,1.38c-.166.412-.395.752-.559,1.089a2.624,2.624,0,0,0-.166,1.91,2.915,2.915,0,0,0,.648,1.164c.219.234.371.337.356.358" transform="translate(-36.087 -27.416)" fill="#fff"/><path d="M101,66.632a4.6,4.6,0,0,0-.674,1.6,3.422,3.422,0,0,0,.175,1.83,6.5,6.5,0,0,0,1.377,1.843,3.063,3.063,0,0,1,.646,1.1,2.112,2.112,0,0,1-.023,1.2,16.19,16.19,0,0,0-.637,1.805,1.687,1.687,0,0,0,.19,1.2c.163.245.338.3.321.332,0,.009-.045,0-.124-.034a.863.863,0,0,1-.289-.229,1.715,1.715,0,0,1-.307-1.294,12.675,12.675,0,0,1,.581-1.85,1.859,1.859,0,0,0,.008-1.047,2.854,2.854,0,0,0-.594-.991,6.369,6.369,0,0,1-1.407-1.938,3.493,3.493,0,0,1-.125-1.968,3.135,3.135,0,0,1,.54-1.21c.186-.253.331-.355.34-.346" transform="translate(-37.908 -25.251)" fill="#fff"/><path d="M110.714,73.6c.011.011-.1.093-.3.006a.6.6,0,0,1-.266-.261.744.744,0,0,1-.062-.492c.057-.365.338-.7.434-1.066a1.1,1.1,0,0,0-.525-1.064,3.1,3.1,0,0,1-.973-1.087,2.548,2.548,0,0,1-.249-1.176,1.514,1.514,0,0,1,.332-1.032,5.961,5.961,0,0,0-.122,1.03,2.552,2.552,0,0,0,.283,1.053,3.04,3.04,0,0,0,.921.984,1.987,1.987,0,0,1,.509.6,1.02,1.02,0,0,1,.089.763c-.151.468-.431.747-.494,1.043a.545.545,0,0,0,.181.609c.134.1.242.07.246.094" transform="translate(-41.219 -25.552)" fill="#fff"/><path d="M116.833,68.731c.009-.015.075,0,.139.087a.524.524,0,0,1,.04.442,2.894,2.894,0,0,1-.291.515,1.175,1.175,0,0,0-.134.6,2.531,2.531,0,0,0,.378,1.132c.158.282.255.465.22.49s-.186-.112-.4-.374a2.14,2.14,0,0,1-.5-1.24,1.314,1.314,0,0,1,.2-.751c.136-.2.27-.326.33-.451a.588.588,0,0,0,.017-.451" transform="translate(-44.07 -26.045)" fill="#fff"/><path d="M133.146,66.137c.015.013-.043.111-.177.263s-.35.35-.563.616a1.506,1.506,0,0,0-.324,1.09,5.929,5.929,0,0,1,.022,1.561,2.729,2.729,0,0,1-.758,1.4,2.59,2.59,0,0,1-1.127.648,1.7,1.7,0,0,1-1.173,0,6.051,6.051,0,0,0,1.109-.2,2.549,2.549,0,0,0,1.656-1.91,6.6,6.6,0,0,0,0-1.5,1.675,1.675,0,0,1,.437-1.231,5.751,5.751,0,0,1,.644-.565c.155-.123.241-.193.257-.179" transform="translate(-48.904 -25.063)" fill="#fff"/><path d="M139.2,75.9c.033.056-.362.145-.605.642-.121.258-.325.556-.495.877a6.511,6.511,0,0,1-.641,1.087,2.353,2.353,0,0,1-2.133.813,1.306,1.306,0,0,1-.87-.386,8.346,8.346,0,0,0,.891.177,2.29,2.29,0,0,0,1.881-.791,8.008,8.008,0,0,0,.632-1.033c.2-.344.4-.6.554-.853a1.167,1.167,0,0,1,.532-.478c.156-.064.248-.073.255-.056" transform="translate(-50.954 -28.76)" fill="#fff"/><path d="M139.675,87.709c.03.021-.029.184-.229.374a1.558,1.558,0,0,1-1.992.1c-.217-.17-.292-.327-.263-.351a2.025,2.025,0,0,0,2.484-.119" transform="translate(-51.989 -33.237)" fill="#fff"/><path d="M124.191,62.246a6.748,6.748,0,0,0-.739.556,2.232,2.232,0,0,0-.614,1.977,2.742,2.742,0,0,1,.144,1.3,1.745,1.745,0,0,1-.6.905,1.721,1.721,0,0,1-.856.452c-.025-.044.307-.213.714-.607a1.647,1.647,0,0,0,.479-.81,2.78,2.78,0,0,0-.168-1.179,2.216,2.216,0,0,1,.13-1.32,2.369,2.369,0,0,1,.63-.871,1.306,1.306,0,0,1,.883-.4" transform="translate(-46.052 -23.586)" fill="#fff"/><path d="M113.252,66.413c-.073-.049.281-.637.457-1.442s.118-1.486.2-1.5a2.873,2.873,0,0,1-.662,2.941" transform="translate(-42.915 -24.054)" fill="#fff"/><path d="M105.2,61.829c-.009-.022.078-.062.17-.191a1.088,1.088,0,0,0,.19-.626,8.729,8.729,0,0,0-.705-2.211,3.405,3.405,0,0,1-.172-1.342,1.941,1.941,0,0,1,.4-1.046,1.171,1.171,0,0,1,.622-.432c.181-.037.281,0,.278.017s-.1.029-.242.093a1.228,1.228,0,0,0-.489.447,2.517,2.517,0,0,0-.112,2.174,6.656,6.656,0,0,1,.632,2.313,1.074,1.074,0,0,1-.314.692c-.14.125-.253.129-.256.112" transform="translate(-39.669 -21.209)" fill="#fff"/><path d="M116.953,59.146c-.011-.017.061-.083.2-.186s.364-.245.429-.486a1.511,1.511,0,0,0-.3-.915c-.2-.334-.5-.663-.78-1.05a2.112,2.112,0,0,1-.515-1.292,1.9,1.9,0,0,1,.495-1.023,2.392,2.392,0,0,1,.759-.663,5.7,5.7,0,0,1-.593.792,1.831,1.831,0,0,0-.387.912,1.987,1.987,0,0,0,.483,1.1c.538.719,1.183,1.444,1.041,2.2a1.035,1.035,0,0,1-.571.524c-.157.074-.248.1-.259.088" transform="translate(-43.954 -20.287)" fill="#fff"/><path d="M128.571,60.035c-.018-.042.329-.112.522-.559a1.364,1.364,0,0,0,.071-.809,5.99,5.99,0,0,0-.329-1.019,2.809,2.809,0,0,1-.222-1.127,1.44,1.44,0,0,1,.4-.875c.362-.424.769-.429.756-.379a1.779,1.779,0,0,0-.593.511,1.324,1.324,0,0,0-.286.753,2.87,2.87,0,0,0,.227,1.014,5.019,5.019,0,0,1,.322,1.08,1.479,1.479,0,0,1-.155.945.97.97,0,0,1-.474.44c-.146.055-.233.042-.235.025" transform="translate(-48.724 -20.937)" fill="#fff"/><path d="M119.834,62.765a4.454,4.454,0,0,1-.821-.138c-.52-.119-1.282-.248-2.225-.388a24.729,24.729,0,0,0-7.4.11,37.251,37.251,0,0,0-7.138,2.075l-2.1.839a4.47,4.47,0,0,1-.783.284,4.468,4.468,0,0,1,.736-.39c.481-.235,1.187-.556,2.07-.928a33.126,33.126,0,0,1,7.167-2.174,22.972,22.972,0,0,1,7.483-.025,21.332,21.332,0,0,1,2.22.484,4.445,4.445,0,0,1,.794.251" transform="translate(-37.656 -23.396)" fill="#263238"/><path d="M103.01,67.924a.269.269,0,0,0,.076-.009l.217-.042.351-.072.483-.076a13.4,13.4,0,0,1,3.1-.079,18.672,18.672,0,0,1,4.5.983c.822.279,1.667.627,2.534,1.007s1.75.8,2.624,1.295a14.409,14.409,0,0,1,6.792,7.381,10.518,10.518,0,0,1,.574,3.042c.02.368.017.653.014.847,0,.088,0,.161,0,.22a.246.246,0,0,0,.006.076.231.231,0,0,0,.011-.075c0-.06.009-.132.016-.22a8.427,8.427,0,0,0,.018-.85,10.12,10.12,0,0,0-.527-3.079,14.343,14.343,0,0,0-6.823-7.49c-.881-.494-1.771-.916-2.641-1.3s-1.721-.725-2.55-1a18.3,18.3,0,0,0-4.537-.955,12.694,12.694,0,0,0-3.123.134l-.483.091-.349.089-.213.058a.256.256,0,0,0-.071.025" transform="translate(-39.038 -25.576)" fill="#263238"/><path d="M114.883,72.951a1.261,1.261,0,0,0-.234-.041,6.481,6.481,0,0,0-.678-.055,9.633,9.633,0,0,0-2.482.279,17.214,17.214,0,0,0-7.172,3.937,26.375,26.375,0,0,0-3.07,3.34,32.068,32.068,0,0,0-2.153,3.013,17.045,17.045,0,0,0-1.182,2.2c-.116.271-.2.484-.25.632a1.219,1.219,0,0,0-.07.226,1.122,1.122,0,0,0,.1-.214c.059-.143.153-.351.278-.617A19.583,19.583,0,0,1,99.2,83.488a34.63,34.63,0,0,1,2.173-2.98A27.288,27.288,0,0,1,104.43,77.2a17.574,17.574,0,0,1,7.087-3.947,10.236,10.236,0,0,1,2.453-.329c.293,0,.521.009.675.022a1.3,1.3,0,0,0,.237.007" transform="translate(-36.984 -27.609)" fill="#263238"/><path d="M28.109,230.54s2.175-.715,3.573-1.116a53.028,53.028,0,0,1,5.905-2,35.054,35.054,0,0,0,6.807-3.068c.7-.468,3.448-15.8,3.448-15.8l10.379,1.566s-5.535,14.784-5.882,16.2-1.662,5.061-1.662,5.061H28.109Z" transform="translate(-10.652 -79.037)" fill="#ab6e65"/><path d="M57.379,242.016c0-.033.341-.061.842-.273A3.369,3.369,0,0,0,60.31,238.4c-.03-.543-.158-.866-.125-.876.011,0,.053.071.108.218a2.81,2.81,0,0,1,.148.648,3.288,3.288,0,0,1-2.172,3.48,2.787,2.787,0,0,1-.646.152.564.564,0,0,1-.243,0" transform="translate(-21.745 -90.013)" fill="#7c4b43"/><path d="M48.289,241.015a1.109,1.109,0,0,1-.211.094,3.754,3.754,0,0,1-.642.166,14.508,14.508,0,0,1-2.428.052,5.674,5.674,0,0,0-1.638.2c-.57.168-1.137.483-1.792.7a5.884,5.884,0,0,1-4.372-.332l-.219-.107.237-.065.21-.058a8.024,8.024,0,0,0,2.09-.951,13.675,13.675,0,0,0,1.679-1.35,8.6,8.6,0,0,1,3.224-1.771,19.3,19.3,0,0,1,2.416-.575l.665-.111a.118.118,0,1,1,.007.037l-.658.145a22.7,22.7,0,0,0-2.389.628,8.622,8.622,0,0,0-3.152,1.775,13.576,13.576,0,0,1-1.694,1.374,8.111,8.111,0,0,1-2.137.976l-.215.06.017-.173a5.757,5.757,0,0,0,4.238.337c.636-.206,1.21-.518,1.8-.686a5.7,5.7,0,0,1,1.682-.182,16.535,16.535,0,0,0,2.416.007,7.95,7.95,0,0,0,.863-.19" transform="translate(-14.017 -89.77)" fill="#7c4b43"/><path d="M294.846,198.833l-6.03,13.96-5.6,17.979,54.211.255-.923-34.052-26.645-2.716Z" transform="translate(-107.332 -73.618)" fill="#263238"/><path d="M241.072,205.078s-4.367,1.659-7.781,2.666-9.515,4.768-9.515,4.768-6.2,5.592-5.981,6.324.96,1.1,1.9.34,5.593-3.505,5.593-3.505.3,1.555,1.307,1.735a2.71,2.71,0,0,0,1.534-.073,3.012,3.012,0,0,0,2.531,2.531,1.176,1.176,0,0,0,.96,1.1,6.13,6.13,0,0,0,1.923.228s3.238-1.962,3.754-2.91,1.145-2.221,1.145-2.221l1.335-.669,4.105-.7Z" transform="translate(-82.536 -77.718)" fill="#db8a76"/><path d="M241.219,216.164a2.606,2.606,0,0,1-.4.493,5.205,5.205,0,0,1-1.444,1.015,7.282,7.282,0,0,1-2.582.728,5.66,5.66,0,0,1-1.629-.069,4.249,4.249,0,0,1-1.653-.679l.1-.145a10.8,10.8,0,0,1,1.146.971,4.264,4.264,0,0,1,.517.6,2.052,2.052,0,0,1,.311.763,2.344,2.344,0,0,1-.445,1.859l-.042.054-.062-.025a8.8,8.8,0,0,1-1.744-.974c-.526-.365-1.008-.741-1.461-1.1s-.878-.694-1.279-1.03a1.6,1.6,0,0,1-.476-1.34,2.313,2.313,0,0,1,.184-.6c.075-.18.152-.346.229-.5a8.139,8.139,0,0,1,.432-.758c.129-.2.238-.349.315-.447a.728.728,0,0,1,.125-.143.92.92,0,0,1-.1.163c-.068.1-.167.258-.287.461s-.26.459-.4.764q-.109.229-.214.5a2.2,2.2,0,0,0-.164.573,1.471,1.471,0,0,0,.454,1.222c.384.312.83.65,1.28,1.007s.938.727,1.461,1.084a8.738,8.738,0,0,0,1.711.947l-.1.029a2.167,2.167,0,0,0,.407-1.712,1.864,1.864,0,0,0-.283-.695,4.132,4.132,0,0,0-.492-.575,10.8,10.8,0,0,0-1.122-.956l.1-.144a4.091,4.091,0,0,0,1.58.658,5.553,5.553,0,0,0,1.584.081,7.346,7.346,0,0,0,2.546-.678,5.486,5.486,0,0,0,1.451-.957c.3-.276.428-.462.443-.45" transform="translate(-87.188 -81.419)" fill="#a35b4a"/><path d="M238.622,222.869a3.221,3.221,0,0,1,.533-.212,3.91,3.91,0,0,0,1.158-.684,1.192,1.192,0,0,0,.365-.6.831.831,0,0,0-.082-.551c-.158-.3-.41-.322-.4-.351,0-.009.06-.022.163.006a.658.658,0,0,1,.348.278.918.918,0,0,1,.137.65,1.3,1.3,0,0,1-.4.7,3.251,3.251,0,0,1-1.243.674,1.278,1.278,0,0,1-.576.089" transform="translate(-90.43 -83.549)" fill="#a35b4a"/><path d="M240.087,226.059a7.64,7.64,0,0,1,.787-.512c.243-.157.527-.35.832-.578a6.193,6.193,0,0,0,.925-.8,1.242,1.242,0,0,0,.279-.525.823.823,0,0,0-.064-.531,1.158,1.158,0,0,0-.712-.595,2,2,0,0,0-.66-.08.936.936,0,0,1-.253,0c0-.011.083-.045.246-.073a1.726,1.726,0,0,1,.7.026,1.262,1.262,0,0,1,.83.646.992.992,0,0,1,.089.642,1.4,1.4,0,0,1-.316.607,5.636,5.636,0,0,1-.966.82c-.315.224-.611.408-.864.552a3.45,3.45,0,0,1-.855.4" transform="translate(-90.985 -84.26)" fill="#a35b4a"/><path d="M245.949,226.713a3.555,3.555,0,0,0,.153-.48,1.044,1.044,0,0,0-1.492-1.146c-.282.121-.4.292-.424.272-.017,0,.065-.219.366-.389a1.138,1.138,0,0,1,1.679,1.289c-.087.336-.273.47-.282.455" transform="translate(-92.538 -85.2)" fill="#a35b4a"/><path d="M277.831,235.411l-1.138,1.685-8.509-.017-10.832,4.365h27.981c.237-.3.965-1.412.965-1.412l-8.467-4.62" transform="translate(-97.528 -89.213)" fill="#db8a76"/><path d="M316.339,137.272c-6.108-9.886-19.238-21.966-20.354-22.524s-19.062-1.683-19.062-1.683l-14.176,10.057-4.707,7.034c-.643,2-1.774,5.085-1.258,7.124l.438,3.468,14.786,9.546,7.354,4.291,4.1,5.809-.328,9.7,5.794-1.1s8.924.881,17.475,1.09,20.315-2.5,20.315-2.5-3.56-19.279-10.374-30.307" transform="translate(-97.263 -42.848)" fill="#455a64"/><path d="M294.551,132.754,299.57,160.6l-10.41,30.717L299.57,197s7.436-13.086,10.782-21a112.946,112.946,0,0,0,4.569-12.339s-.016-30.1-1.084-33.564-4.6-10.348-8.318-9.976-12.491,4.19-10.968,12.638" transform="translate(-109.583 -45.515)" fill="#455a64"/><path d="M255.563,157.643l8.97,21.962a9.11,9.11,0,0,0-1.08,2.584l-11.174,5.535,3.284,10.574s13.955-4.635,15.931-5.7,7.678-5.128,8.666-8.421-4.489-14.969-4.489-14.969Z" transform="translate(-95.606 -59.742)" fill="#455a64"/><path d="M283.08,172.25a.929.929,0,0,1-.192-.093l-.53-.3c-.459-.263-1.12-.647-1.928-1.136s-1.764-1.086-2.8-1.793c-.515-.356-1.048-.74-1.581-1.168l-1.619-1.343-5.659-4.74-1.7-1.453-.456-.4a.953.953,0,0,1-.152-.15.919.919,0,0,1,.175.121l.479.376,1.738,1.407,5.693,4.7,1.617,1.345c.525.425,1.055.81,1.564,1.168,1.022.712,1.97,1.317,2.767,1.822l1.9,1.186.513.327a.926.926,0,0,1,.173.125" transform="translate(-100.982 -60.512)" fill="#263238"/><path d="M284.4,115.136a4.982,4.982,0,0,1,.684,1.033,7.415,7.415,0,0,1,.8,3.272,8.844,8.844,0,0,1-.28,2.326,9.813,9.813,0,0,1-1.057,2.471,13.479,13.479,0,0,1-4.321,4.326,11.458,11.458,0,0,1-5.79,1.924,7.609,7.609,0,0,1-4.749-1.433,6.345,6.345,0,0,1-2.132-2.6,4.036,4.036,0,0,1-.186-.5,2.469,2.469,0,0,1-.1-.376l-.048-.234a.28.28,0,0,1-.011-.081,9.986,9.986,0,0,0,.412,1.16,6.421,6.421,0,0,0,2.143,2.52,7.532,7.532,0,0,0,4.668,1.369,11.383,11.383,0,0,0,5.7-1.909,13.45,13.45,0,0,0,4.274-4.258,9.7,9.7,0,0,0,1.055-2.423,8.809,8.809,0,0,0,.3-2.284,7.552,7.552,0,0,0-.732-3.241,5.076,5.076,0,0,0-.247-.465,3.863,3.863,0,0,0-.2-.33l-.13-.2a.3.3,0,0,1-.04-.072" transform="translate(-101.262 -43.633)" fill="#263238"/><path d="M287.7,134.388c-.051.02-.308-.556-.746-1.189s-.881-1.083-.844-1.123a4.164,4.164,0,0,1,1.59,2.313" transform="translate(-108.427 -50.052)" fill="#263238"/><path d="M292.546,129.866a4.994,4.994,0,0,0-2.585-1.353,2.843,2.843,0,0,1,2.585,1.353" transform="translate(-109.886 -48.692)" fill="#263238"/><path d="M295.638,124.371a23.829,23.829,0,0,0-2.406-.338,3.525,3.525,0,0,1,2.406.338" transform="translate(-111.126 -46.971)" fill="#263238"/><path d="M295.283,117.541a74.331,74.331,0,0,0-2.144.609,3.306,3.306,0,0,1,2.144-.609" transform="translate(-111.09 -44.533)" fill="#263238"/><path d="M279.278,137.844a2.448,2.448,0,0,1,.013-2.278c.051.019-.1.513-.1,1.138s.142,1.122.089,1.14" transform="translate(-105.734 -51.375)" fill="#263238"/><path d="M270.215,136.592c-.039-.034.19-.365.511-.74s.613-.653.651-.619-.189.364-.511.74-.613.653-.651.619" transform="translate(-102.402 -51.248)" fill="#263238"/><path d="M313.769,136.189s.016.05.042.149a4.017,4.017,0,0,1,.1.448c.08.4.149,1,.229,1.777.148,1.563.283,3.864.394,6.8.22,5.869.366,14.271.4,24.392v.011l0,.009c-.749,2.548-1.7,5.16-2.74,7.853s-2.182,5.469-3.524,8.254c-2.666,5.577-5.764,11.349-9.083,17.258l-.044.08-.081-.044-.961-.525-9.448-5.157-.068-.037.025-.073,10.428-30.712,0,.037c-1.518-8.5-2.762-15.46-3.627-20.3-.427-2.417-.761-4.3-.988-5.592l-.253-1.463c-.056-.331-.079-.5-.079-.5s.038.168.1.5.155.822.274,1.459l1.027,5.585,3.69,20.29,0,.019-.006.018-10.394,30.723-.043-.109,9.45,5.155.961.525-.125.036c3.316-5.905,6.417-11.675,9.083-17.243,1.341-2.78,2.471-5.554,3.527-8.239s2-5.3,2.746-7.834l0,.021c-.016-10.12-.139-18.521-.332-24.389-.1-2.934-.218-5.234-.35-6.8-.072-.781-.134-1.379-.206-1.777-.026-.2-.066-.349-.088-.45s-.03-.152-.03-.152" transform="translate(-109.514 -51.611)" fill="#263238"/><path d="M311.163,123.194a15.647,15.647,0,0,0-1.686-.716,8.415,8.415,0,0,0-8.238,1.687,15.37,15.37,0,0,0-1.268,1.32,2.146,2.146,0,0,1,.271-.415,7.434,7.434,0,0,1,.91-1,8.2,8.2,0,0,1,8.367-1.712,7.348,7.348,0,0,1,1.231.564,2.212,2.212,0,0,1,.412.275" transform="translate(-113.68 -46.187)" fill="#263238"/><g transform="translate(201.71 95.144)" opacity="0.3"><g clip-path="url(#e)"><path d="M324.8,206.293l.167-.445c-.031.02-.06.043-.092.063Z" transform="translate(-324.798 -173.154)"/><path d="M330.515,166.76A83.627,83.627,0,0,0,328.29,153.2c-1,7.691.969,15.577-.349,23.22a52.316,52.316,0,0,1-2.873,9.474,13.357,13.357,0,0,0,5.352-8.635,35.448,35.448,0,0,0,.1-10.5" transform="translate(-324.9 -153.203)"/></g></g><g transform="translate(168.552 101.702)" opacity="0.3"><g clip-path="url(#f)"><path d="M283.751,173.079l-12.344-9.316c.138,3.473,2.78,6.324,5.527,8.455s6.48,4.585,9.084,6.888c-.859-1.92-1.408-4.109-2.267-6.028" transform="translate(-271.406 -163.763)"/></g></g><path d="M284.021,151.329a1.956,1.956,0,0,1-.2.235c-.135.15-.338.369-.607.643a14.806,14.806,0,0,1-2.485,2.1,7.163,7.163,0,0,1-2.056.931,5.2,5.2,0,0,1-2.587-.007,9.619,9.619,0,0,1-2.6-1.2c-.846-.517-1.675-1.117-2.6-1.6a6.689,6.689,0,0,0-2.862-.858,4.2,4.2,0,0,0-2.6.85,20.6,20.6,0,0,0-1.943,1.671,8.11,8.11,0,0,1-1.83,1.318,3.39,3.39,0,0,1-1.819.38,2.789,2.789,0,0,1-1.332-.444,1.885,1.885,0,0,1-.613-.642,1.246,1.246,0,0,1-.126-.283c.01,0,.049.1.158.263a1.934,1.934,0,0,0,.62.6,2.758,2.758,0,0,0,1.3.4,3.306,3.306,0,0,0,1.753-.394,8.092,8.092,0,0,0,1.785-1.315,20.12,20.12,0,0,1,1.949-1.7,5.139,5.139,0,0,1,1.246-.664,4.017,4.017,0,0,1,1.459-.227,6.835,6.835,0,0,1,2.943.876c.936.489,1.768,1.092,2.605,1.606a9.543,9.543,0,0,0,2.544,1.19,4.637,4.637,0,0,0,1.289.168,5.115,5.115,0,0,0,1.219-.145,7.093,7.093,0,0,0,2.022-.892,15.845,15.845,0,0,0,2.505-2.041l.63-.618a1.927,1.927,0,0,1,.227-.21" transform="translate(-97.685 -57.349)" fill="#fff"/><path d="M317.949,145.945a.832.832,0,0,1-.148.142,2.11,2.11,0,0,1-.51.3,3.342,3.342,0,0,1-2.144.065c-1.849-.428-3.493-2.689-6.261-3.2a9.9,9.9,0,0,0-1.984-.252,10.547,10.547,0,0,0-1.858.143,9.95,9.95,0,0,0-2.986,1,10.652,10.652,0,0,0-2.348,1.728.894.894,0,0,1,.132-.156l.4-.426c.194-.165.425-.376.714-.6l.476-.333c.168-.12.365-.215.561-.332a9.786,9.786,0,0,1,3.019-1.056,10.469,10.469,0,0,1,1.891-.157,9.886,9.886,0,0,1,2.021.253,9.279,9.279,0,0,1,1.924.673c.287.163.578.307.846.478s.519.349.763.524a9.308,9.308,0,0,0,2.722,1.581,3.352,3.352,0,0,0,2.082-.006,3.3,3.3,0,0,0,.685-.371" transform="translate(-113.58 -54.122)" fill="#fff"/><path d="M338.874,139.825c.008.016-.164.092-.427.3a3.415,3.415,0,0,0-.883,1.076,7.2,7.2,0,0,0-.673,1.971,13.479,13.479,0,0,1-.679,2.508,4.279,4.279,0,0,1-1.712,1.954,4.764,4.764,0,0,1-2.016.68,4.038,4.038,0,0,1-1.43-.112,2.472,2.472,0,0,1-.37-.122.414.414,0,0,1-.123-.058c.006-.017.183.045.509.111a4.368,4.368,0,0,0,1.4.052,4.78,4.78,0,0,0,1.94-.694,4.179,4.179,0,0,0,1.633-1.883,14.233,14.233,0,0,0,.683-2.471,6.954,6.954,0,0,1,.726-2,3.251,3.251,0,0,1,.954-1.071,1.956,1.956,0,0,1,.34-.192.4.4,0,0,1,.129-.045" transform="translate(-125.272 -52.989)" fill="#fff"/><path d="M272.675,168.17a1.507,1.507,0,0,1-.071.378,2.946,2.946,0,0,1-.127.433,5.018,5.018,0,0,1-.216.558,5.778,5.778,0,0,1-.328.648,6.8,6.8,0,0,1-.451.7,8.157,8.157,0,0,1-1.305,1.394,8.267,8.267,0,0,1-1.608,1.032,7.069,7.069,0,0,1-1.474.507,4.668,4.668,0,0,1-.589.1,2.774,2.774,0,0,1-.45.037,1.555,1.555,0,0,1-.384-.008c0-.04.547-.041,1.393-.259a7.65,7.65,0,0,0,1.431-.533,8.7,8.7,0,0,0,1.564-1.02,8.579,8.579,0,0,0,1.287-1.353,7.441,7.441,0,0,0,.455-.678,6.325,6.325,0,0,0,.342-.625c.378-.787.5-1.324.533-1.313" transform="translate(-100.681 -63.731)" fill="#fff"/><path d="M358.781,212.18a3.655,3.655,0,0,1-.583.1,5.592,5.592,0,0,1-.691.07,9.159,9.159,0,0,1-.92.029,10.087,10.087,0,0,1-1.115-.055c-.4-.024-.825-.1-1.271-.172a14.057,14.057,0,0,1-5.4-2.24c-.366-.266-.719-.51-1.02-.779a10.105,10.105,0,0,1-.826-.751,9.015,9.015,0,0,1-.629-.672,5.618,5.618,0,0,1-.438-.539,3.587,3.587,0,0,1-.338-.485,3.627,3.627,0,0,1,.394.44,6.6,6.6,0,0,0,.46.515c.188.193.388.425.643.648a10.87,10.87,0,0,0,.833.727c.3.26.654.5,1.018.756a14.561,14.561,0,0,0,5.332,2.213c.44.075.857.157,1.254.187a10.832,10.832,0,0,0,1.1.077c.338.024.644,0,.913,0a6.646,6.646,0,0,0,.689-.039,3.7,3.7,0,0,1,.59-.031" transform="translate(-130.953 -78.329)" fill="#455a64"/><path d="M320.967,234.854c-.05-.011.712-3.536,1.7-7.871s1.832-7.841,1.882-7.83-.712,3.535-1.7,7.872-1.832,7.841-1.882,7.829" transform="translate(-121.635 -83.052)" fill="#455a64"/><path d="M272.634,100.6h0a4.1,4.1,0,0,0-.36-2L261.488,74.992c-2.515-6.781-8.557-10.969-15.266-8.268l-.6.286a12.93,12.93,0,0,0-6.579,16.255c2.212,5.864,4.73,12.314,6.2,15.327,3.041,6.238,9.777,4.251,9.777,4.251l1.256,2.4s1.315,4.527,6.94,3.892c4.323-.488,7.525-4.686,8.775-6.6a4.069,4.069,0,0,0,.647-1.931" transform="translate(-90.272 -24.972)" fill="#db8a76"/><path d="M265.183,121.579a16.835,16.835,0,0,0,7.086-6.289s.2,5.429-6.33,7.82Z" transform="translate(-100.496 -43.691)" fill="#a35b4a"/><path d="M245.984,100.674a.991.991,0,0,0,1.291.5.948.948,0,0,0,.542-1.244.992.992,0,0,0-1.29-.5.949.949,0,0,0-.543,1.245" transform="translate(-93.192 -37.651)" fill="#263238"/><path d="M244.024,96.542c.166.065.607-.758,1.574-1.212s1.9-.3,1.948-.471c.027-.076-.186-.234-.6-.313a2.72,2.72,0,0,0-1.628.233,2.617,2.617,0,0,0-1.184,1.11c-.189.368-.189.626-.109.653" transform="translate(-92.458 -35.815)" fill="#263238"/><path d="M260.249,94.062a.991.991,0,0,0,1.291.5.948.948,0,0,0,.542-1.245.992.992,0,0,0-1.29-.5.948.948,0,0,0-.543,1.245" transform="translate(-98.598 -35.146)" fill="#263238"/><path d="M259.424,89.624c.166.065.609-.759,1.574-1.212s1.9-.3,1.949-.471c.027-.076-.185-.235-.6-.313a2.723,2.723,0,0,0-1.628.233,2.613,2.613,0,0,0-1.184,1.11c-.188.367-.189.626-.111.653" transform="translate(-98.295 -33.194)" fill="#263238"/><path d="M257.176,100.013a7.043,7.043,0,0,0-1.7.457c-.258.091-.514.152-.635,0a1.391,1.391,0,0,1-.18-.807q-.075-1.057-.157-2.219a35.706,35.706,0,0,0-.68-5.677,35.565,35.565,0,0,0,.222,5.718q.1,1.16.193,2.216a1.577,1.577,0,0,0,.329,1.027.681.681,0,0,0,.574.169,1.861,1.861,0,0,0,.446-.14,6.944,6.944,0,0,0,1.589-.747" transform="translate(-96.17 -34.778)" fill="#263238"/><path d="M263.192,103.956c-.161.065.331,1.112-.214,2.279s-1.713,1.577-1.653,1.727c.017.073.345.086.822-.124a2.886,2.886,0,0,0,1.408-1.382,2.511,2.511,0,0,0,.112-1.879c-.166-.457-.406-.661-.474-.621" transform="translate(-99.033 -39.394)" fill="#263238"/><path d="M256.159,83.738c.219.217,1.123-.361,2.319-.76,1.187-.422,2.256-.521,2.3-.827.014-.144-.261-.315-.75-.4a4.246,4.246,0,0,0-3.516,1.209c-.337.363-.448.668-.348.773" transform="translate(-97.063 -30.968)" fill="#263238"/><path d="M242.445,91.77c.273.139.83-.4,1.624-.79.78-.415,1.544-.55,1.592-.852.016-.143-.194-.312-.587-.38a2.615,2.615,0,0,0-2.592,1.323c-.176.358-.162.628-.037.7" transform="translate(-91.843 -34.002)" fill="#263238"/><path d="M237.821,79.422s-.2-4.711,1.261-6.523c1.77-2.193,3.947-.142,5.844-1.785s3.585-3.742,6.616-3.108c3.319.7,2.786,2.534,4.252,5.247,5.943,11,9.512,13.218,7.587,7.624-.211-.613,1.187-1.839.265-4.414-1.2-3.338-2.9-7.271-4.684-9.2A9.878,9.878,0,0,0,253.11,64.3c-4.165-.841-8.42,1.108-11.157,2.754s-6.717,7.57-4.132,12.367" transform="translate(-89.81 -24.292)" fill="#263238"/><path d="M278.623,89.483a1.883,1.883,0,0,1,1.064-2.51c1.223-.442,2.839-.392,3.9,2.063,1.889,4.355-2.873,5.353-2.934,5.231-.042-.083-1.259-2.955-2.033-4.784" transform="translate(-105.532 -32.879)" fill="#db8a76"/><path d="M281.737,93.19c.013-.022.1.02.253.024a.828.828,0,0,0,.572-.235,2.044,2.044,0,0,0,.138-2.061,2.732,2.732,0,0,0-.683-.994.956.956,0,0,0-.823-.335.421.421,0,0,0-.358.4c-.006.147.06.222.04.24s-.125-.033-.168-.228a.526.526,0,0,1,.053-.347.622.622,0,0,1,.371-.293,1.163,1.163,0,0,1,1.086.331,2.809,2.809,0,0,1,.789,1.1,2.146,2.146,0,0,1-.291,2.361.885.885,0,0,1-.744.186c-.181-.049-.247-.137-.235-.151" transform="translate(-106.376 -33.851)" fill="#a35b4a"/><path d="M259.463,71.586a4.512,4.512,0,0,1-1.421,1.7,1.548,1.548,0,0,1-2.017-.252c-.192-.274-.283-.656-.588-.794-.365-.165-.756.125-1.1.334a3.03,3.03,0,0,1-3.77-.621,1.271,1.271,0,0,1-1.473.873,6.826,6.826,0,0,1-1.758-.7,1.952,1.952,0,0,0-1.82-.042c-.3.195-.5.524-.837.646-.587.215-1.173-.314-1.523-.833s-.723-1.14-1.344-1.219c-.575-.073-1.071.361-1.554.682s-1.21.516-1.582.071a1.125,1.125,0,0,1-.176-.869,3.072,3.072,0,0,1,2.783-2.6,4.164,4.164,0,0,1,6.574-4,4.227,4.227,0,0,1,6.767-1.492,3.064,3.064,0,0,1,5.026,2.555,2.909,2.909,0,0,1,2.436,1.412,1.665,1.665,0,0,1-.979,2.344,1.7,1.7,0,0,1-1.931,2.783" transform="translate(-90.38 -23.254)" fill="#263238"/><path d="M243.441,73.035a.251.251,0,0,0,.038.078c.03.048.07.125.136.216a2.971,2.971,0,0,0,.7.679,3.389,3.389,0,0,0,1.43.565,3.158,3.158,0,0,0,1.993-.329l-.117-.061a1.719,1.719,0,0,0,.645,1.144,4.934,4.934,0,0,0,1.233.709,3.558,3.558,0,0,0,.712.265,1.653,1.653,0,0,0,.8-.068,1.732,1.732,0,0,0,1.147-1.147l-.182.03a3.558,3.558,0,0,0,2.416,1.582,2.6,2.6,0,0,0,1.627-.2,4.7,4.7,0,0,0,1.244-.96l-.139,0a3.739,3.739,0,0,0,1.641.845,1.993,1.993,0,0,0,1.687-.3,2.613,2.613,0,0,0,.946-2.709l-.076.091a2.447,2.447,0,0,0,1.576-.479,2.652,2.652,0,0,0,.812-.944,2.3,2.3,0,0,0,.232-.751,1.17,1.17,0,0,0,0-.273,2.849,2.849,0,0,1-.307.987,2.628,2.628,0,0,1-.807.887,2.342,2.342,0,0,1-1.5.429l-.1-.007.026.1a2.465,2.465,0,0,1-.913,2.526,1.806,1.806,0,0,1-1.538.255,3.566,3.566,0,0,1-1.548-.805l-.071-.063-.067.066a4.52,4.52,0,0,1-1.191.917,2.394,2.394,0,0,1-1.5.184,3.363,3.363,0,0,1-2.281-1.489l-.123-.19-.06.22a1.539,1.539,0,0,1-1.013,1.012,1.472,1.472,0,0,1-.706.066,3.41,3.41,0,0,1-.67-.248,4.762,4.762,0,0,1-1.195-.671,1.555,1.555,0,0,1-.6-1.028l-.014-.119-.1.058a3.051,3.051,0,0,1-1.9.341,3.373,3.373,0,0,1-1.4-.513,3.675,3.675,0,0,1-.925-.9" transform="translate(-92.256 -26.914)" fill="#455a64"/><path d="M247.414,97.17a8.59,8.59,0,0,0-.262-1.12,4.672,4.672,0,0,0-1.886-2.409,4.6,4.6,0,0,0-4.4-.335,4.612,4.612,0,0,0-2.014,1.753,4.578,4.578,0,0,0,.388,5.419,4.612,4.612,0,0,0,2.243,1.449,4.645,4.645,0,0,0,5.83-3.612,8.513,8.513,0,0,0,.1-1.145,1.794,1.794,0,0,1,.025.3,2.164,2.164,0,0,1,0,.364,3.327,3.327,0,0,1-.052.5,4.718,4.718,0,0,1-3.434,3.78,4.762,4.762,0,0,1-2.513-.017,4.774,4.774,0,0,1-2.334-1.5,4.745,4.745,0,0,1-.4-5.633,4.773,4.773,0,0,1,2.1-1.812,4.769,4.769,0,0,1,2.484-.375,4.72,4.72,0,0,1,3.938,3.253,3.316,3.316,0,0,1,.122.483,2.1,2.1,0,0,1,.053.36,1.831,1.831,0,0,1,.018.3" transform="translate(-90.18 -35.148)" fill="#263238"/><path d="M265.2,88.709a8.814,8.814,0,0,0-.263-1.12,4.669,4.669,0,0,0-1.886-2.409,4.6,4.6,0,0,0-4.4-.335,4.308,4.308,0,0,0-1.115.709,4.357,4.357,0,0,0-.9,1.044,4.579,4.579,0,0,0,.388,5.419,4.6,4.6,0,0,0,2.243,1.449,4.645,4.645,0,0,0,5.829-3.612,8.728,8.728,0,0,0,.1-1.145,1.946,1.946,0,0,1,.024.3,2.165,2.165,0,0,1,0,.364,3.235,3.235,0,0,1-.052.495,4.718,4.718,0,0,1-3.434,3.781,4.762,4.762,0,0,1-2.513-.017,4.775,4.775,0,0,1-2.334-1.5,4.746,4.746,0,0,1-.4-5.633,4.776,4.776,0,0,1,2.1-1.812,4.769,4.769,0,0,1,2.484-.375,4.717,4.717,0,0,1,3.938,3.253,3.3,3.3,0,0,1,.122.483,1.983,1.983,0,0,1,.053.36,1.9,1.9,0,0,1,.019.3" transform="translate(-96.921 -31.941)" fill="#263238"/><path d="M254.476,94.07a3.214,3.214,0,0,0-2.61,1.266c-.019-.01.038-.179.209-.41a2.442,2.442,0,0,1,1.949-.945c.287.008.456.068.452.089" transform="translate(-95.448 -35.615)" fill="#263238"/><path d="M275.389,89.017a31.873,31.873,0,0,1-4.861.122,32.091,32.091,0,0,1,4.861-.122" transform="translate(-102.522 -33.716)" fill="#263238"/><path d="M217.633,241.677h21.483a1.071,1.071,0,0,1,0,2.143H217.633a1.071,1.071,0,1,1,0-2.143" transform="translate(-82.07 -91.588)" fill="#e0e0e0"/><path d="M196.543,226.737H155.9l-4.011-27.445a2.341,2.341,0,0,1,2.315-2.692l35.678.29a2.239,2.239,0,0,1,2.436,1.7Z" transform="translate(-57.553 -74.505)" fill="#e0e0e0"/><path d="M187.669,218.968a2.234,2.234,0,1,1-2.234-2.234,2.234,2.234,0,0,1,2.234,2.234" transform="translate(-69.427 -82.135)" fill="#fff"/><path d="M217.975,226.673c-.05.008-1.186-6.613-2.536-14.787s-2.4-14.811-2.354-14.82,1.186,6.612,2.536,14.789,2.4,14.81,2.354,14.818" transform="translate(-80.752 -74.682)" fill="#263238"/><rect width="239.404" height="5.886" transform="translate(2.893 152.231)" fill="#455a64"/><path d="M55.6,245.266s-.022.023-.076.064-.135.1-.25.176a5.525,5.525,0,0,1-1.2.542,10.681,10.681,0,0,1-2.313.437,29.05,29.05,0,0,1-3.226.08c-1.2-.022-2.5-.125-3.883-.251s-2.859-.271-4.423-.3a46.8,46.8,0,0,0-9.953,1.085c-3.416.686-6.608,1.468-9.661,1.943-1.523.24-3,.41-4.406.491a32.965,32.965,0,0,1-3.915,0,21.145,21.145,0,0,1-5.368-.966,9.579,9.579,0,0,1-1.659-.7.725.725,0,0,1,.116.042l.319.134c.279.118.7.285,1.282.466a21.837,21.837,0,0,0,5.333.9,33.194,33.194,0,0,0,3.867-.016c1.385-.086,2.847-.26,4.357-.5,3.026-.479,6.2-1.262,9.637-1.951a46.646,46.646,0,0,1,10.06-1.081c1.59.03,3.072.186,4.453.313s2.668.24,3.853.27a29.481,29.481,0,0,0,3.191-.054,10.889,10.889,0,0,0,2.282-.4,6.392,6.392,0,0,0,1.585-.725" transform="translate(-1.997 -92.948)" fill="#263238"/><path d="M30.788,245.4a6.178,6.178,0,0,1-.725.347,20.927,20.927,0,0,1-2.184.791,29.1,29.1,0,0,1-3.572.817,33.6,33.6,0,0,1-4.666.41A30.037,30.037,0,0,1,11.3,246.8a5.655,5.655,0,0,1-2.013-.925,1.571,1.571,0,0,1-.329-.355c-.05-.088-.071-.134-.061-.135a3.94,3.94,0,0,0,.484.453,6.173,6.173,0,0,0,2.013.858,31.237,31.237,0,0,0,8.242.907,34.485,34.485,0,0,0,4.6-.391,31.191,31.191,0,0,0,3.55-.774c.966-.279,1.712-.545,2.213-.739a7.493,7.493,0,0,1,.792-.295" transform="translate(-3.369 -92.992)" fill="#263238"/><path d="M122.941,249.86s.129.023.371.075.612.116,1.105.165a11.156,11.156,0,0,0,4.189-.368l-.012.075a15.116,15.116,0,0,0-5.195-1.138,16.527,16.527,0,0,0-6.757.987c-.253.1-.5.229-.523.383s.173.292.448.379a4.851,4.851,0,0,0,.928.183l1.02.13c1.37.171,2.785.342,4.25.462a44.535,44.535,0,0,0,4.52.173c.771-.01,1.546-.053,2.32-.125.386-.037.773-.079,1.154-.136a9.367,9.367,0,0,0,1.118-.2,4.342,4.342,0,0,0,1.449-.589c.366-.256.483-.6.279-.9a2.356,2.356,0,0,0-1.138-.715,12.965,12.965,0,0,0-1.589-.437,36.926,36.926,0,0,0-6.649-.776,47.4,47.4,0,0,0-11.35.989,38.209,38.209,0,0,0-6.833,2.1c-.73.317-1.292.568-1.651.753l-.422.2a1.128,1.128,0,0,1-.151.065.7.7,0,0,1,.13-.077l.4-.215c.347-.193.9-.453,1.622-.779a36.613,36.613,0,0,1,6.828-2.156,47.186,47.186,0,0,1,11.44-1.032,37.143,37.143,0,0,1,6.74.777,13.4,13.4,0,0,1,1.643.45,2.589,2.589,0,0,1,1.254.795c.244.351.1.773-.32,1.062a4.651,4.651,0,0,1-1.565.64,9.772,9.772,0,0,1-1.165.212c-.39.058-.784.1-1.178.138-.788.073-1.577.117-2.36.126a44.845,44.845,0,0,1-4.571-.178c-1.476-.124-2.9-.3-4.268-.471l-1.02-.132a5.258,5.258,0,0,1-1-.2,1.4,1.4,0,0,1-.42-.207.331.331,0,0,1-.153-.317c.052-.234.372-.376.633-.484a16.882,16.882,0,0,1,6.929-.99,15.165,15.165,0,0,1,5.275,1.188l.1.043-.109.031a11.186,11.186,0,0,1-4.281.337,7.468,7.468,0,0,1-1.461-.288" transform="translate(-39.346 -93.721)" fill="#263238"/><path d="M179.14,245.513a.827.827,0,0,1,.236.3,1.335,1.335,0,0,1,.158.884c-.079.758-.905,1.754-2.331,2.569a12.6,12.6,0,0,1-2.178,1.041,14.021,14.021,0,0,1-2.1.573c-.63.12-1.159.179-1.523.214a3.6,3.6,0,0,1-.574.027c-.011-.03.8-.094,2.025-.352a14.719,14.719,0,0,0,2.023-.59,13.11,13.11,0,0,0,2.113-1.027,4.434,4.434,0,0,0,2.339-2.467,1.914,1.914,0,0,0-.186-1.168" transform="translate(-64.738 -93.042)" fill="#263238"/><path d="M232.135,251.737c-.028.014-.337-.248-1.1-.6a11.29,11.29,0,0,0-3.744-.95,14.756,14.756,0,0,0-2.851.047,21.517,21.517,0,0,1-3.341.173,9.5,9.5,0,0,1-3.326-.917,14.9,14.9,0,0,0-3.342-1.115,21.44,21.44,0,0,0-7.423-.065,24.754,24.754,0,0,0-5.492,1.564,31.789,31.789,0,0,0-3.185,1.528l-.812.451a2.113,2.113,0,0,1-.294.152,1.59,1.59,0,0,1,.25-.175c.171-.112.431-.271.775-.473a27.282,27.282,0,0,1,3.141-1.577,24.311,24.311,0,0,1,5.541-1.617,21.7,21.7,0,0,1,7.6.056,15.169,15.169,0,0,1,3.418,1.141,9.117,9.117,0,0,0,3.182.894,21.474,21.474,0,0,0,3.27-.157,14.961,14.961,0,0,1,2.923-.026,10.887,10.887,0,0,1,3.785,1.016,4.19,4.19,0,0,1,1.025.65" transform="translate(-74.742 -93.929)" fill="#263238"/><path d="M292.174,245.217a1.738,1.738,0,0,1-.261.2c-.187.125-.432.325-.819.547a23,23,0,0,1-3.495,1.746,38.176,38.176,0,0,1-6.064,1.89c-1.212.277-2.518.525-3.91.7a35.211,35.211,0,0,1-4.375.317,36.563,36.563,0,0,1-8.3-.971,37.216,37.216,0,0,1-6.031-1.923,23.915,23.915,0,0,1-3.47-1.761c-.385-.223-.633-.421-.82-.546a1.736,1.736,0,0,1-.263-.2,2.356,2.356,0,0,1,.309.179c.2.118.463.309.858.524a26.776,26.776,0,0,0,3.51,1.711,38.356,38.356,0,0,0,6.01,1.876,36.64,36.64,0,0,0,8.194.946,35.217,35.217,0,0,0,4.313-.309c1.376-.172,2.671-.415,3.874-.685a39.456,39.456,0,0,0,6.043-1.843,25.612,25.612,0,0,0,3.532-1.695c.4-.214.655-.407.856-.524a2.3,2.3,0,0,1,.307-.18" transform="translate(-96.397 -92.93)" fill="#263238"/><path d="M291.825,245.127a.917.917,0,0,1-.2.093c-.14.055-.344.14-.62.237-.544.2-1.357.469-2.4.763a38.685,38.685,0,0,1-3.789.868,28.734,28.734,0,0,1-4.943.475,33.5,33.5,0,0,1-8.777-1.247c-1.041-.295-1.845-.574-2.377-.785-.271-.1-.468-.191-.6-.249a.842.842,0,0,1-.2-.1c.014-.011.313.1.864.293s1.363.455,2.406.733a34.925,34.925,0,0,0,8.685,1.187,29.186,29.186,0,0,0,4.863-.455c1.461-.248,2.733-.55,3.778-.827s1.869-.53,2.43-.713.87-.285.883-.274" transform="translate(-101.532 -92.895)" fill="#263238"/><path d="M348.34,246c0,.006-.166.006-.476,0l-1.351-.028-.973-.024-1.162,0c-.833,0-1.78-.012-2.826.016l-1.641.029-1.771.067c-1.228.035-2.515.129-3.88.2-2.705.192-5.64.463-8.622.839s-5.687.84-8.076,1.3c-1.162.245-2.3.461-3.284.705l-1.448.339-1.278.338c-.832.209-1.519.422-2.135.606l-.86.255-.681.229-.954.313a2.691,2.691,0,0,1-.36.1,1.281,1.281,0,0,1,.283-.124l.888-.335.652-.24.837-.266c.6-.191,1.276-.412,2.1-.628l1.268-.349,1.442-.35c.979-.25,2.121-.473,3.287-.724,2.4-.469,5.134-.93,8.134-1.32s5.979-.649,8.715-.835c1.38-.071,2.682-.161,3.924-.191l1.789-.058,1.658-.018c1.056-.02,2.011,0,2.849.009l1.167.017.976.039,1.346.06a4.585,4.585,0,0,1,.464.032" transform="translate(-116.177 -93.163)" fill="#263238"/><path d="M230.975,250.963a8.906,8.906,0,0,0-1.317-.881,16.273,16.273,0,0,0-4.824-1.516c-1.123-.2-2.392-.346-3.765-.467s-2.852-.219-4.4-.369-3.153-.393-4.781-.674-3.319-.567-5.1-.692a36.66,36.66,0,0,0-9.935.771c-1.465.3-2.8.664-4.041,1.02s-2.373.709-3.4,1.036c-2.061.656-3.7,1.214-4.832,1.6l-1.3.448-.341.115a.7.7,0,0,1-.121.034.49.49,0,0,1,.1-.048l.325-.129c.288-.111.715-.273,1.272-.474,1.113-.4,2.738-.979,4.789-1.649,1.026-.334,2.158-.693,3.4-1.056s2.582-.733,4.058-1.041a36.788,36.788,0,0,1,10.066-.792c1.814.127,3.517.425,5.146.7s3.2.533,4.744.679,3.016.255,4.393.384,2.656.283,3.79.492a15.7,15.7,0,0,1,4.841,1.581,4.4,4.4,0,0,1,1.237.927" transform="translate(-69.281 -93.273)" fill="#263238"/><path d="M166.193,245.267c.016,0,.022.135-.035.376a3,3,0,0,1-.468.994,7.677,7.677,0,0,1-3.68,2.647,36.162,36.162,0,0,1-5.454,1.412c-.729.136-1.325.234-1.741.294a4.809,4.809,0,0,1-.655.076,4.638,4.638,0,0,1,.62-.138l1.705-.343a40.891,40.891,0,0,0,5.362-1.44,8.122,8.122,0,0,0,3.647-2.552,5.56,5.56,0,0,0,.7-1.325" transform="translate(-58.422 -92.949)" fill="#263238"/><path d="M84.045,251.065a3.965,3.965,0,0,1,.583-.315c.385-.2.968-.465,1.7-.784a62.36,62.36,0,0,1,6.105-2.211c2.488-.769,4.812-1.384,6.5-1.82.844-.217,1.53-.389,2.007-.5a6.532,6.532,0,0,1,.754-.164,5.671,5.671,0,0,1-.7.222l-1.967.551c-1.663.463-3.968,1.093-6.446,1.859s-4.625,1.549-6.123,2.161c-.75.3-1.35.559-1.756.74a5.169,5.169,0,0,1-.656.265" transform="translate(-31.85 -92.948)" fill="#263238"/><path d="M79.488,245.615c0,.019-.553-.04-1.544,0a17.717,17.717,0,0,0-3.994.682,45.544,45.544,0,0,0-5.188,1.958c-.956.392-1.98.795-3.124,1.138a26.928,26.928,0,0,1-3.737.809,60.8,60.8,0,0,1-7.647.517c-2.367.039-4.494.012-6.276.053s-3.215.133-4.2.231c-.49.051-.87.092-1.125.127a3.576,3.576,0,0,1-.4.04,3.21,3.21,0,0,1,.381-.073c.252-.045.629-.1,1.118-.158.98-.118,2.421-.234,4.209-.284s3.919-.042,6.276-.089a62.1,62.1,0,0,0,7.582-.524,26.956,26.956,0,0,0,3.676-.792c1.127-.335,2.144-.732,3.1-1.118a44.07,44.07,0,0,1,5.256-1.939,17.36,17.36,0,0,1,4.078-.642c.5-.011.894,0,1.156.022a3.567,3.567,0,0,1,.4.04" transform="translate(-16.015 -93.055)" fill="#263238"/></g></g></svg>