<svg xmlns="http://www.w3.org/2000/svg" xmlns:xlink="http://www.w3.org/1999/xlink" width="94.2" height="94.2" viewBox="0 0 94.2 94.2"><defs><clipPath id="a"><rect width="94.2" height="94.2" fill="none"/></clipPath></defs><g clip-path="url(#a)"><path d="M91.98,47.1A44.88,44.88,0,1,1,47.1,2.22,44.879,44.879,0,0,1,91.98,47.1" fill="#4b6bb2"/><path d="M69.792,64.683a4.447,4.447,0,0,0,1.452-3.276V59.619a4.471,4.471,0,0,0-8.852-.894H59.454a2.667,2.667,0,0,0-5.036,0H51.481a4.487,4.487,0,0,0-3.486-3.487v-2a3.573,3.573,0,0,0,2.682-3.45h.894a.894.894,0,0,0,.9-.894V46.206h1.788V44.418H52.466v-.01A6.147,6.147,0,0,1,54.69,39.8,11.619,11.619,0,0,0,46.621,19.39a11.771,11.771,0,0,0-11.143,11.4,11.591,11.591,0,0,0,3.957,8.94,6.522,6.522,0,0,1,2.291,4.685H39.947v1.788h1.788v2.683a.894.894,0,0,0,.894.894h.895a3.572,3.572,0,0,0,2.682,3.45v2a4.488,4.488,0,0,0-3.487,3.487H39.782a2.667,2.667,0,0,0-5.036,0H31.809a4.471,4.471,0,0,0-8.852.894v1.788a4.446,4.446,0,0,0,1.451,3.276,8.055,8.055,0,0,0-5.028,7.455v1.788a.893.893,0,0,0,.9.894H34.582a.893.893,0,0,0,.894-.894V72.138a8.057,8.057,0,0,0-5.028-7.455A4.446,4.446,0,0,0,31.9,61.407v-.894h2.847a2.667,2.667,0,0,0,5.036,0h2.847v.894a4.446,4.446,0,0,0,1.451,3.276,8.056,8.056,0,0,0-5.027,7.455v1.788a.892.892,0,0,0,.894.894H54.254a.893.893,0,0,0,.894-.894V72.138a8.055,8.055,0,0,0-5.028-7.455,4.446,4.446,0,0,0,1.451-3.276v-.894h2.847a2.667,2.667,0,0,0,5.036,0H62.3v.894a4.446,4.446,0,0,0,1.451,3.276,8.055,8.055,0,0,0-5.028,7.455v1.788a.892.892,0,0,0,.894.894H73.926a.893.893,0,0,0,.894-.894V72.138a8.055,8.055,0,0,0-5.028-7.455m-36.1,7.455v.894H31.9V71.244H30.111v1.788H24.746V71.244H22.957v1.788H21.169v-.894a6.259,6.259,0,1,1,12.518,0M24.746,61.407V59.619a2.682,2.682,0,0,1,5.365,0v1.788a2.682,2.682,0,1,1-5.365,0m12.518-.894a.894.894,0,1,1,.894-.894.894.894,0,0,1-.894.894m3.35-22.125a9.806,9.806,0,0,1-3.348-7.564,9.959,9.959,0,0,1,9.427-9.647,9.828,9.828,0,0,1,6.829,17.266,7.934,7.934,0,0,0-2.845,5.965v.01H43.514a8.3,8.3,0,0,0-2.9-6.03m10.063,9.607H43.523V46.207h7.154Zm-5.365,1.788h3.577a1.788,1.788,0,0,1-3.577,0M53.36,72.138v.894H51.571V71.244H49.783v1.788H44.418V71.244H42.629v1.788H40.841v-.894a6.26,6.26,0,1,1,12.519,0M44.418,61.407V59.619a2.683,2.683,0,0,1,5.365,0v1.788a2.683,2.683,0,1,1-5.365,0m12.519-.894a.894.894,0,1,1,.894-.894.895.895,0,0,1-.894.894m7.153.894V59.619a2.683,2.683,0,0,1,5.365,0v1.788a2.683,2.683,0,1,1-5.365,0m8.942,11.625H71.244V71.244H69.455v1.788H64.09V71.244H62.3v1.788H60.513v-.894a6.259,6.259,0,1,1,12.519,0Z" fill="#fff"/><rect width="3.577" height="1.788" transform="translate(45.312 40.841)" fill="#fff"/><path d="M46.206,35.385v1.879h1.788V35.385a4.437,4.437,0,0,0,1.568-.654l1.377,1.377L52.2,34.843l-1.377-1.377a4.445,4.445,0,0,0,.655-1.567h1.878V30.11H51.481a4.452,4.452,0,0,0-.655-1.567L52.2,27.166,50.939,25.9l-1.377,1.377a4.455,4.455,0,0,0-1.568-.654V24.745H46.206v1.879a4.455,4.455,0,0,0-1.568.654L43.261,25.9,42,27.166l1.377,1.377a4.452,4.452,0,0,0-.655,1.567H40.841V31.9h1.878a4.444,4.444,0,0,0,.655,1.567L42,34.843l1.264,1.265,1.377-1.377a4.437,4.437,0,0,0,1.568.654m.894-7.063A2.682,2.682,0,1,1,44.417,31,2.687,2.687,0,0,1,47.1,28.322" fill="#fff"/></g></svg>