<svg xmlns="http://www.w3.org/2000/svg" xmlns:xlink="http://www.w3.org/1999/xlink" width="94.2" height="94.2" viewBox="0 0 94.2 94.2"><defs><clipPath id="a"><rect width="94.2" height="94.2" fill="none"/></clipPath></defs><g clip-path="url(#a)"><path d="M91.98,47.1A44.88,44.88,0,1,1,47.1,2.22,44.879,44.879,0,0,1,91.98,47.1" fill="#33aea8"/><path d="M31.418,36.5a.944.944,0,0,1,0-1.888,84.229,84.229,0,0,0,12.754-1.1,1.013,1.013,0,0,1,.246,0,6.285,6.285,0,0,1,3.04.944A.942.942,0,1,1,46.3,35.943a4.274,4.274,0,0,0-1.889-.557,88.078,88.078,0,0,1-12.952,1.1Z" fill="#fff"/><path d="M63.5,57.421a3.681,3.681,0,0,1-2.134-.689l-.179-.132-.113-.048L50.687,49.094a.943.943,0,0,1-.221-1.316l0-.005a.943.943,0,0,1,1.3-.3.645.645,0,0,1,.069.047l.708.5L62.224,55l.113.095.132.085a1.746,1.746,0,0,0,2.407-.331,1.716,1.716,0,0,0,.312-1.567,1.677,1.677,0,0,0-.567-.859L50.8,41.173c-5.315,2.833-9.072,1.351-10.876.2a2.053,2.053,0,0,1-.944-1.888,2.081,2.081,0,0,1,1.114-1.766l7.968-4.154a4.393,4.393,0,0,1,3.361-.3l4.721,1.53a6.1,6.1,0,0,0,4.172-.152l2.266-.877a.944.944,0,0,1,.586,1.755l-2.247.869a7.862,7.862,0,0,1-5.457.2l-4.72-1.52a2.486,2.486,0,0,0-1.889.161l-7.873,4.21a.219.219,0,0,0-.123.18.19.19,0,0,0,.085.17c1.832,1.17,4.975,2.02,9.441-.567a.946.946,0,0,1,1.067.085L65.8,50.954a3.635,3.635,0,0,1,.557,5.06A3.589,3.589,0,0,1,63.5,57.421Z" fill="#fff"/><path d="M59.854,61.49a3.674,3.674,0,0,1-2.116-.67l-9.507-6.741A.945.945,0,0,1,48,52.764l.006-.007a.943.943,0,0,1,1.316-.22l.005,0,9.506,6.741a1.784,1.784,0,0,0,2.068-2.9L51.46,49.557a.945.945,0,0,1-.21-1.319l0,0a.946.946,0,0,1,1.276-.179l9.44,6.835A3.663,3.663,0,0,1,59.815,61.5Z" fill="#fff"/><path d="M55.756,65.049a3.556,3.556,0,0,1-2.03-.661l-8.5-5.948A.943.943,0,1,1,46.3,56.886l.009.006,8.5,5.9a1.672,1.672,0,0,0,1.889-2.729l-8.5-6.013a.944.944,0,0,1,1.086-1.539l8.5,6.013a3.569,3.569,0,0,1,.869,4.919,3.513,3.513,0,0,1-2.285,1.473,3.043,3.043,0,0,1-.6.132" fill="#fff"/><path d="M50.724,67.881A3.662,3.662,0,0,1,48.94,67.4l-4.721-2.729a.947.947,0,0,1,.944-1.643l4.721,2.729a1.676,1.676,0,0,0,1.794-2.832l-6.043-4.183a.947.947,0,0,1,1.077-1.557l6.07,4.229a3.569,3.569,0,0,1-2.058,6.467Z" fill="#fff"/><path d="M40.774,67.38h-.265a3.607,3.607,0,0,1-2.143-6.306l2.351-2.058a3.6,3.6,0,0,1,5.076.327l0,0a3.564,3.564,0,0,1,.888,2.606,3.61,3.61,0,0,1-1.218,2.473l-2.351,2.068A3.591,3.591,0,0,1,40.774,67.38Zm2.341-7.373a1.747,1.747,0,0,0-1.133.425L39.641,62.5a1.709,1.709,0,0,0,1.019,2.993,1.639,1.639,0,0,0,1.237-.444l2.389-2.039a1.715,1.715,0,0,0,.576-1.18,1.654,1.654,0,0,0-.416-1.237,1.709,1.709,0,0,0-1.331-.585" fill="#fff"/><path d="M35.44,64.983a3.561,3.561,0,0,1-2.7-1.218,3.607,3.607,0,0,1,.275-5.093l.027-.024,3.927-3.436a3.587,3.587,0,0,1,5.064.313l.015.017a3.587,3.587,0,0,1-.321,5.063l-.018.016-3.89,3.484a3.6,3.6,0,0,1-2.379.878m3.9-8.78a1.683,1.683,0,0,0-1.123.425l-3.928,3.446a1.729,1.729,0,1,0,2.285,2.6l3.937-3.437a1.734,1.734,0,0,0,.576-1.18,1.7,1.7,0,0,0-.425-1.236,1.728,1.728,0,0,0-1.322-.614" fill="#fff"/><path d="M31.012,61.764h-.245A3.608,3.608,0,0,1,28.3,60.546l-.066-.123a3.6,3.6,0,0,1,.327-5.076l0,0,4.551-3.993a3.6,3.6,0,0,1,5.076.327l0,0,.1.113a3.6,3.6,0,0,1-.328,5.077l0,0-4.55,3.994A3.612,3.612,0,0,1,31.012,61.764Zm4.447-9.441a1.71,1.71,0,0,0-1.133.425l-4.55,3.993a1.718,1.718,0,0,0-.161,2.417l.1.113a1.7,1.7,0,0,0,1.171.576,1.728,1.728,0,0,0,1.246-.415l4.6-3.975a1.727,1.727,0,0,0,.152-2.426l-.095-.113a1.726,1.726,0,0,0-1.331-.576Z" fill="#fff"/><path d="M27.189,57.845h-.236a3.533,3.533,0,0,1-2.493-1.227,3.616,3.616,0,0,1,.281-5.106l.012-.011L27.585,49a3.6,3.6,0,0,1,4.762,5.407l0,0-2.832,2.5A3.559,3.559,0,0,1,27.189,57.845ZM30.021,50a1.66,1.66,0,0,0-1.133.425l-2.832,2.492a1.727,1.727,0,0,0-.151,2.426,1.754,1.754,0,0,0,1.208.614,1.709,1.709,0,0,0,1.237-.425l2.832-2.5a1.708,1.708,0,0,0,.156-2.411l0-.005A1.7,1.7,0,0,0,30,50Z" fill="#fff"/><path d="M25.593,52.984a.94.94,0,0,1-.566-.189l-2.833-2.181a.944.944,0,0,1,1.143-1.5l2.879,2.181a.944.944,0,0,1-.576,1.69Z" fill="#fff"/><path d="M66.084,53.965a.949.949,0,0,1-.67-1.614l4.9-4.9a.948.948,0,1,1,1.35,1.331L66.745,53.72a.941.941,0,0,1-.661.245" fill="#fff"/><path d="M74.185,50.765a4.927,4.927,0,0,1-4.248-2.436L62.224,35.244a4.912,4.912,0,0,1-.53-3.776A4.861,4.861,0,0,1,64,28.437l3.437-1.992a.946.946,0,0,1,1.293.35L80.037,47.111A.946.946,0,0,1,79.67,48.4l-3.079,1.7A5.054,5.054,0,0,1,74.185,50.765ZM67.5,28.56l-2.606,1.558a3.03,3.03,0,0,0-1.425,1.888,3.079,3.079,0,0,0,.33,2.341l7.761,13.085a3.047,3.047,0,0,0,4.115,1.123l2.257-1.246Z" fill="#fff"/><path d="M20.051,51.831a4.934,4.934,0,0,1-2.407-.623l-3.078-1.7a.835.835,0,0,1-.406-1.227L25.489,27.927a.938.938,0,0,1,1.294-.358l3.436,1.992a4.957,4.957,0,0,1,1.793,6.776l-.018.03L24.3,49.415A4.93,4.93,0,0,1,20.051,51.831ZM16.275,48.31l2.256,1.246a3.048,3.048,0,0,0,4.116-1.123l7.761-13.085a3.059,3.059,0,0,0-1.065-4.193l-.03-.018-2.606-1.51Z" fill="#fff"/></g></svg>