<svg xmlns="http://www.w3.org/2000/svg" xmlns:xlink="http://www.w3.org/1999/xlink" width="94.2" height="94.2" viewBox="0 0 94.2 94.2"><defs><clipPath id="a"><rect width="94.2" height="94.2" fill="none"/></clipPath></defs><g clip-path="url(#a)"><path d="M91.98,47.1A44.88,44.88,0,1,1,47.1,2.22,44.879,44.879,0,0,1,91.98,47.1" fill="#4b6bb2"/><path d="M67.239,46.111a20.244,20.244,0,0,0-.349-3.741.849.849,0,1,0-1.668.313,18.69,18.69,0,0,1,.319,3.428c0,.229-.006.457-.014.685a3.927,3.927,0,0,1-3.033-3.153,1.145,1.145,0,0,0-2.178,0A3.992,3.992,0,0,1,57.1,46.854a1.145,1.145,0,0,0,0,2.178,4,4,0,0,1,3.212,3.212,1.144,1.144,0,0,0,2.177,0c.59-1.826,1.149-2.477,2.792-3.068a18.465,18.465,0,0,1-7.568,12V52.732a.849.849,0,1,0-1.7,0v9.514a18.306,18.306,0,0,1-5.1,1.908v-4.6h2.294a1.416,1.416,0,0,0,1.415-1.415V53.3a1.417,1.417,0,0,0-1.415-1.415h-.159V49.521a3.123,3.123,0,0,1,.912-2.2l2.5-2.488a4.832,4.832,0,0,0,1.412-3.4V35.1a.85.85,0,0,0-1.7,0v.614a.731.731,0,0,1-.73.731h-1.58a.732.732,0,0,1-.732-.731V27.12a.732.732,0,0,1,.732-.731h1.58a.731.731,0,0,1,.73.731v4.019a.85.85,0,0,0,1.7,0v0a18.426,18.426,0,0,1,6.267,7.914.849.849,0,1,0,1.568-.651,20.132,20.132,0,0,0-7.292-8.947c-.179-.122-.361-.24-.543-.356V27.12a2.432,2.432,0,0,0-2.429-2.429h-1.58a2.423,2.423,0,0,0-.846.154A2.432,2.432,0,0,0,50.7,23.151h-1.58a2.4,2.4,0,0,0-.89.172,2.431,2.431,0,0,0-2.27-1.571h-1.58a2.432,2.432,0,0,0-2.429,2.429V24.8a2.414,2.414,0,0,0-.731-.112h-1.58a2.432,2.432,0,0,0-2.429,2.429v1.452a20.127,20.127,0,0,0-.73,34.644v6.442a.849.849,0,1,0,1.7,0V64.163a20,20,0,0,0,5.1,1.723v9.345a.849.849,0,0,0,1.7,0V66.139a20.281,20.281,0,0,0,4.238,0v9.092a.849.849,0,0,0,1.7,0V65.886a19.964,19.964,0,0,0,5.1-1.723v5.495a.849.849,0,1,0,1.7,0V63.216A20.143,20.143,0,0,0,67.239,46.111ZM61.4,50.374a4.848,4.848,0,0,0-2.431-2.431A4.844,4.844,0,0,0,61.4,45.512a4.84,4.84,0,0,0,2.431,2.431A4.844,4.844,0,0,0,61.4,50.374M48.391,25.58a.732.732,0,0,1,.731-.731H50.7a.732.732,0,0,1,.731.731V35.715a.732.732,0,0,1-.731.731l-1.63,0a3.1,3.1,0,0,0,.267-1.261V33.5a1.639,1.639,0,0,0-.948-1.484Zm-4.74-1.4a.732.732,0,0,1,.731-.731h1.58a.731.731,0,0,1,.731.731v7.683H43.651Zm-4.74,2.939a.732.732,0,0,1,.731-.731h1.58a.732.732,0,0,1,.731.731v4.744h-2.4c-.054,0-.108,0-.161,0a3.242,3.242,0,0,0-.476.059Zm.637,6.442h8.093v1.621a1.422,1.422,0,0,1-1.42,1.421H41.7a.849.849,0,0,0-.414,1.59l2.5,1.4A3.1,3.1,0,0,1,45.372,42.3v.842a.849.849,0,1,0,1.7,0V42.3a4.805,4.805,0,0,0-2.143-4h1.294a3.1,3.1,0,0,0,1.675-.491,2.415,2.415,0,0,0,1.226.333H50.7a2.412,2.412,0,0,0,1.58-.588,2.421,2.421,0,0,0,1.58.588h1.58a2.415,2.415,0,0,0,.731-.113v3.407a3.119,3.119,0,0,1-.912,2.2l-2.5,2.488a4.832,4.832,0,0,0-1.412,3.4v2.362H50.27a.849.849,0,0,0,0,1.7h2.658v4.277H50.917v-1.5a.849.849,0,1,0-1.7,0v1.5H44.981v-1.5a.849.849,0,1,0-1.7,0v1.5h-2.09V53.581h5.115a.849.849,0,1,0,0-1.7H42.767V49.5a4.768,4.768,0,0,0-1.3-3.278L38.92,43.635a3.084,3.084,0,0,1-.893-2.178V35.083A1.522,1.522,0,0,1,39.548,33.562ZM38.181,62.247V52.732a.849.849,0,0,0-1.7,0V61.18a18.424,18.424,0,0,1,.73-30.626V32.87a3.208,3.208,0,0,0-.884,2.213v6.374a4.771,4.771,0,0,0,1.383,3.371l2.464,2.5a3.084,3.084,0,0,1,.893,2.178v2.381H40.91A1.417,1.417,0,0,0,39.495,53.3v4.843a1.416,1.416,0,0,0,1.415,1.415h2.373v4.6A18.316,18.316,0,0,1,38.181,62.247ZM47.1,64.552a18.55,18.55,0,0,1-2.119-.122V59.557h4.238V64.43a18.767,18.767,0,0,1-2.119.122" fill="#fff"/><path d="M57.215,23.3a2.921,2.921,0,0,1,2.375,2.375,1.079,1.079,0,0,0,2.053,0A2.925,2.925,0,0,1,64.019,23.3a1.079,1.079,0,0,0,0-2.053,2.925,2.925,0,0,1-2.376-2.375,1.078,1.078,0,0,0-2.052,0,2.928,2.928,0,0,1-2.376,2.376,1.079,1.079,0,0,0,0,2.053Zm3.991-3.907h0m-.589,1.4a3.771,3.771,0,0,0,1.48,1.481,3.775,3.775,0,0,0-1.48,1.48,3.768,3.768,0,0,0-1.48-1.48,3.764,3.764,0,0,0,1.48-1.481" fill="#fff"/><path d="M37.356,46.962a2.924,2.924,0,0,1-2.375-2.376,1.079,1.079,0,0,0-2.053,0,2.926,2.926,0,0,1-2.376,2.376,1.079,1.079,0,0,0,0,2.052,2.926,2.926,0,0,1,2.376,2.376,1.079,1.079,0,0,0,2.053,0,2.924,2.924,0,0,1,2.375-2.376,1.078,1.078,0,0,0,0-2.052m-2.813-1.854h0m-.589,4.36a3.762,3.762,0,0,0-1.48-1.48,3.768,3.768,0,0,0,1.48-1.48,3.775,3.775,0,0,0,1.48,1.48,3.775,3.775,0,0,0-1.48,1.48" fill="#fff"/></g></svg>