<svg xmlns="http://www.w3.org/2000/svg" xmlns:xlink="http://www.w3.org/1999/xlink" width="94.2" height="94.2" viewBox="0 0 94.2 94.2"><defs><clipPath id="a"><rect width="94.2" height="94.2" fill="none"/></clipPath></defs><g clip-path="url(#a)"><path d="M91.98,47.1A44.88,44.88,0,1,1,47.1,2.22,44.879,44.879,0,0,1,91.98,47.1" fill="#33aea8"/><path d="M73.852,50.2H72.7A5.4,5.4,0,0,0,71.172,47.2l-1.8-1.8a3.235,3.235,0,0,1-.931-1.916,3.246,3.246,0,0,0,2.151-3.052,3.3,3.3,0,0,0-.827-2.189,3.232,3.232,0,0,0,.827-2.16,3.3,3.3,0,0,0-.827-2.191,3.224,3.224,0,0,0,.827-2.16,3.291,3.291,0,0,0-.828-2.189,3.227,3.227,0,0,0,.828-2.161,3.288,3.288,0,0,0-2.175-3.1V18.007a1.087,1.087,0,0,0-1.088-1.086h-13.7a1.086,1.086,0,0,0-1.087,1.086v1.141a5.537,5.537,0,0,0-3.109,1.562l-1.8,1.8a3.226,3.226,0,0,1-1.833.923A3.294,3.294,0,0,0,42.75,21.27a3.192,3.192,0,0,0-2.175.878,3.133,3.133,0,0,0-4.35,0,3.133,3.133,0,0,0-4.35,0A3.192,3.192,0,0,0,29.7,21.27a3.306,3.306,0,0,0-3.048,2.175h-6.3a1.088,1.088,0,0,0-1.088,1.088v13.7a1.087,1.087,0,0,0,1.088,1.086h1.124a5.38,5.38,0,0,0,1.556,3.221l1.8,1.8a3.226,3.226,0,0,1,.9,1.7A3.341,3.341,0,0,0,23.5,49.132a3.173,3.173,0,0,0,.866,2.173,3.232,3.232,0,0,0-.866,2.178,3.166,3.166,0,0,0,.866,2.171,3.236,3.236,0,0,0-.866,2.179,3.171,3.171,0,0,0,.866,2.172,3.194,3.194,0,0,0,1.418,5.249v6.258A1.088,1.088,0,0,0,26.872,72.6h13.7a1.088,1.088,0,0,0,1.088-1.088V70.395a5.48,5.48,0,0,0,3.108-1.541l1.8-1.8a3.234,3.234,0,0,1,1.639-.886,3.26,3.26,0,0,0,5.413,2.039,3.256,3.256,0,0,0,4.35,0,3.256,3.256,0,0,0,4.35,0,3.258,3.258,0,0,0,5.293-1.478h6.235A1.087,1.087,0,0,0,74.94,65.64V63.356a1.088,1.088,0,1,0-2.175,0v1.2h-5V52.363c1.127.005,4.147.018,5,0v1.206a1.088,1.088,0,1,0,2.175,0V51.285A1.088,1.088,0,0,0,73.853,50.2Zm-19.14-31.1H66.239v5H54.712Zm-5.547,4.955,1.8-1.8a3.363,3.363,0,0,1,1.57-.886v3.824a1.088,1.088,0,0,0,1.088,1.087H67.35a1.09,1.09,0,0,1,1.065,1.11,1.055,1.055,0,0,1-1.065,1.066H63a1.087,1.087,0,1,0,0,2.174h4.35a1.09,1.09,0,0,1,1.065,1.11A1.055,1.055,0,0,1,67.35,32.8H63a1.087,1.087,0,1,0,0,2.174h4.35a1.091,1.091,0,0,1,1.065,1.111,1.053,1.053,0,0,1-1.065,1.064H63a1.087,1.087,0,0,0,0,2.175h4.35a1.09,1.09,0,0,1,1.065,1.11A1.055,1.055,0,0,1,67.35,41.5H54.175a5.43,5.43,0,0,1-3.845-1.571,8.126,8.126,0,0,0-4.317-2.586V25.6a5.39,5.39,0,0,0,3.152-1.549m-.734,26a6.173,6.173,0,0,1-3.023-1.95,7.7,7.7,0,0,0-3.541-2.018,6.244,6.244,0,0,1,1.917-2.9,7.612,7.612,0,0,0,2.027-3.652,6.185,6.185,0,0,1,2.981,1.936,7.535,7.535,0,0,0,3.594,2,6.148,6.148,0,0,1-1.97,3.1A7.643,7.643,0,0,0,48.431,50.049Zm-27-24.429h5V37.147h-5Zm3.13,15.386a3.236,3.236,0,0,1-.9-1.684h3.855a1.087,1.087,0,0,0,1.087-1.087s0-13.646,0-13.659a1.089,1.089,0,1,1,2.173.046v4.351a1.088,1.088,0,1,0,2.175,0V24.622a1.091,1.091,0,1,1,2.175,0v4.351a1.087,1.087,0,1,0,2.175,0V24.622a1.091,1.091,0,1,1,2.176,0v4.351a1.087,1.087,0,1,0,2.174,0V24.622a1.089,1.089,0,1,1,2.174-.034V37.8a5.441,5.441,0,0,1-1.591,3.844,8.16,8.16,0,0,0-2.564,4.205H27.9a5.389,5.389,0,0,0-1.534-3.039ZM39.488,70.424H27.961v-5H39.488Zm5.547-4.91-1.8,1.8a3.285,3.285,0,0,1-1.57.87V64.334a1.088,1.088,0,0,0-1.088-1.087H26.85a1.154,1.154,0,0,1-1.174-1.065,1.19,1.19,0,0,1,1.174-1.11h4.373a1.087,1.087,0,0,0,0-2.175H26.85a1.153,1.153,0,0,1-1.174-1.064,1.189,1.189,0,0,1,1.174-1.111h4.373a1.087,1.087,0,1,0,0-2.174H26.85a1.154,1.154,0,0,1-1.174-1.065,1.189,1.189,0,0,1,1.174-1.11h4.373a1.088,1.088,0,0,0,0-2.176H26.85a1.153,1.153,0,0,1-1.174-1.065,1.189,1.189,0,0,1,1.174-1.11H40.025a5.469,5.469,0,0,1,3.845,1.616,8.092,8.092,0,0,0,4.317,2.589v11.74a5.394,5.394,0,0,0-3.152,1.547M66.675,50.2a1.088,1.088,0,0,0-1.088,1.088v14.48a1.088,1.088,0,1,1-2.175.01v-5a1.087,1.087,0,0,0-2.174,0v5a1.088,1.088,0,0,1-2.176,0v-5a1.087,1.087,0,0,0-2.175,0v5a1.087,1.087,0,1,1-2.175,0v-5a1.088,1.088,0,0,0-2.175,0v5a1.087,1.087,0,1,1-2.174,0V51.949A5.455,5.455,0,0,1,51.954,48.1a8.062,8.062,0,0,0,2.612-4.431H66.271a5.389,5.389,0,0,0,1.562,3.265l1.8,1.8a3.244,3.244,0,0,1,.844,1.456Z" fill="#fff"/><path d="M73.853,57.375a1.087,1.087,0,1,1-1.088,1.088,1.088,1.088,0,0,1,1.088-1.088" fill="#fff"/></g></svg>