<svg xmlns="http://www.w3.org/2000/svg" xmlns:xlink="http://www.w3.org/1999/xlink" width="94.2" height="94.2" viewBox="0 0 94.2 94.2"><defs><clipPath id="a"><rect width="94.2" height="94.2" fill="none"/></clipPath></defs><g clip-path="url(#a)"><path d="M91.98,47.1A44.88,44.88,0,1,1,47.1,2.22,44.879,44.879,0,0,1,91.98,47.1" fill="#4b6bb2"/><path d="M60.91,25.066H58.664V22.821a.879.879,0,0,0-1.758,0v2.245H54.661a.88.88,0,0,0,0,1.759h2.245V29.07a.879.879,0,0,0,1.758,0V26.824H60.91a.879.879,0,0,0,0-1.758" fill="#fff"/><path d="M66.48,25.8a8.712,8.712,0,0,0-16.852-3.1A17.63,17.63,0,0,0,27.817,37.505a.879.879,0,1,0,1.744.225A15.868,15.868,0,0,1,49.169,24.4a8.817,8.817,0,0,0-.115,1.407,8.709,8.709,0,0,0,.056.974,13.547,13.547,0,1,0,8.661,7.738,8.687,8.687,0,0,0,2.362-.328,15.86,15.86,0,1,1-30.657,6.8.879.879,0,0,0-1.753.133A17.624,17.624,0,0,0,41.4,56.958v5.536a.879.879,0,1,0,1.758,0V57.263a17.664,17.664,0,0,0,4.27,0V73.217a2.135,2.135,0,0,1-4.27,0V66.268a.879.879,0,0,0-1.758,0v6.949a3.893,3.893,0,0,0,7.787,0V56.957A17.627,17.627,0,0,0,61.768,33.54,8.721,8.721,0,0,0,66.48,25.8M45.288,51.561a11.786,11.786,0,1,1,4.3-22.764,8.75,8.75,0,0,0,6.127,5.472A11.789,11.789,0,0,1,45.288,51.561m12.479-18.8A6.954,6.954,0,1,1,64.722,25.8a6.962,6.962,0,0,1-6.955,6.955" fill="#fff"/><path d="M45.288,36.6a3.5,3.5,0,1,0,3.5,3.5,3.5,3.5,0,0,0-3.5-3.5m0,5.237A1.739,1.739,0,1,1,47.027,40.1a1.741,1.741,0,0,1-1.739,1.739" fill="#fff"/><path d="M45.288,33.741c-6.065,0-10.84,5.556-11.04,5.792a.879.879,0,0,0,0,1.137c.2.236,4.975,5.792,11.04,5.792s10.84-5.556,11.04-5.792a.879.879,0,0,0,0-1.137c-.2-.236-4.975-5.792-11.04-5.792m0,10.963c-4.182,0-7.837-3.259-9.166-4.6,1.33-1.344,4.984-4.6,9.166-4.6s7.836,3.259,9.166,4.6c-1.33,1.344-4.984,4.6-9.166,4.6" fill="#fff"/></g></svg>