<svg xmlns="http://www.w3.org/2000/svg" xmlns:xlink="http://www.w3.org/1999/xlink" width="278.539" height="142.95" viewBox="0 0 278.539 142.95"><defs><clipPath id="a"><rect width="278.539" height="142.95" fill="none"/></clipPath></defs><g clip-path="url(#a)"><path d="M40.407,142.139S-13.4,88.285,20.014,56.085s59.825,9.6,78.09,6.522C121.223,58.709,131.222.055,165.782,0c39.324-.064,68.187,23.183,52.813,78.545-11.34,40.833,66.6,7.395,55.157,64.388Z" transform="translate(-3.422 0)" fill="#d4e2f9"/><path d="M197.1,198.843c-7.315-1.177-12.837,1.385-18.147.648-4.234-.587-6.441-4.872-12.132-6.085a23.692,23.692,0,0,0,3.684-2.523c1.465-1.411,3.568-4.232,0-4.342-2.567-.08-4.567,4.2-5.486,6.6a17.473,17.473,0,0,0-2.748,0c1.175-3.786,3.465-11.113,4.025-12.521.762-1.916-2.44-8.3-6.214-1.134-2.647,5.027-.85,10.837.46,13.858a21.07,21.07,0,0,0-2.942.7c-3.119-7.116-13.041-27.4-23.8-24.883-11.726,2.748,13.4,16.388,19.732,26.5-5.176,2.4-9.724,5.314-17.586,3.185-20.892-5.656-22.549,7.07-22.549,7.07l93.363.032a12.64,12.64,0,0,0-9.663-7.1" transform="translate(-42.76 -63.702)" fill="#00ece1"/><path d="M206.269,139.354c.1.9,1.367.866,2.8.651s1.065.162,3.085.123,2.695-.73,2.783-1.022c.078-.259-.9-.442-1.95-.661-.131-.027-.264-.056-.4-.085a8.69,8.69,0,0,1-3.018-1.845c-.976-.7-1.632-3.878-1.632-3.878l-2.872-.017s.9,2.879,1.372,3.881a3.373,3.373,0,0,1-.11,1.912,3.525,3.525,0,0,0-.065.941" transform="translate(-77.325 -50.007)" fill="#ffb07b"/><path d="M209.792,143.512c1.436-.216,1.065.163,3.086.123s2.694-.729,2.782-1.022c.079-.259-.9-.442-1.95-.66l-.012.019a5.66,5.66,0,0,1-2.946.629c-1.36-.091-2.761-.61-3.7-.681a3.519,3.519,0,0,0-.065.94c.1.9,1.368.866,2.8.651" transform="translate(-78.043 -53.513)" fill="#365da4"/><path d="M170.945,138.659c.062.9,1.334.917,2.778.756s1.058.2,3.079.239,2.72-.627,2.819-.916c.088-.256-.884-.476-1.924-.734l-.394-.1a8.68,8.68,0,0,1-2.946-1.957c-.949-.731-.168-3.763-.168-3.763l-2.18-1.029s-.3,3.125-.462,4.706a17.972,17.972,0,0,1-.5,1.86,3.535,3.535,0,0,0-.1.938" transform="translate(-64.455 -49.454)" fill="#ffb07b"/><path d="M173.723,143.39c1.444-.161,1.058.2,3.079.24s2.72-.628,2.819-.916c.088-.255-.884-.476-1.924-.734l-.012.019a5.668,5.668,0,0,1-2.968.518c-1.356-.142-2.737-.715-3.672-.82a3.53,3.53,0,0,0-.1.937c.062.9,1.334.917,2.778.756" transform="translate(-64.455 -53.429)" fill="#365da4"/><path d="M176.065,70.165s-.6,2.923-1.209,17.746a47.864,47.864,0,0,0-1.935,6.1c-.813,3.356-1.387,17.359-1.387,17.359a1.692,1.692,0,0,0,1.309.526,2.847,2.847,0,0,0,1.43-.3s5.654-18.341,8.407-25.462,4.365-17.288,4.365-17.288Z" transform="translate(-64.679 -25.959)" fill="#2b478b"/><path d="M189.724,69.923s.446,2.951,5.011,17.067a47.823,47.823,0,0,0,.3,6.393c.4,3.43,5.02,16.935,5.02,16.935a2.834,2.834,0,0,0,1.534-.029,4.862,4.862,0,0,0,1.527-.741s-1.772-19.3-1.655-26.936-1.891-17.73-1.891-17.73Z" transform="translate(-71.538 -24.465)" fill="#2b478b"/><path d="M193.624,6.8a4.139,4.139,0,0,0-2.215-.539,1.048,1.048,0,0,1,.483-.2,3.467,3.467,0,0,0-1.253.261c-5.222-2.318-6.451,5.48-6.43,7.307s-.072,3.924-2.811,5.425c-5.39,2.952-1.258,8.784-1.258,8.784-.971,2.785,2.622,6.2,2.622,6.2-.061-1.478,6.726-10.9,10.386-13.047a10.252,10.252,0,0,0,1.377-3.63,9.709,9.709,0,0,1-.892,3.3C196.769,18.042,195.52,8,193.624,6.8" transform="translate(-67.353 -2.221)" fill="#c65447"/><path d="M197.836,25.317a4.905,4.905,0,0,1-3.014.551,3.913,3.913,0,0,1-2.008-1.925c.519-.1.668-.815.657-3.877l.235.046,3.8.753.141.027s-.09,1.24-.093,2.409c0,.247,0,.491.012.719.026.679.1,1.218.269,1.3" transform="translate(-72.703 -7.566)" fill="#ffb07b"/><path d="M198.031,23.439c0,.247,0,.491.012.719-2.21-.089-3.485-2.617-3.966-3.726l3.905.571.141.028s-.09,1.24-.093,2.408" transform="translate(-73.179 -7.704)" fill="#ea8e50"/><path d="M192.7,14.549a11.6,11.6,0,0,1-1.433-3.388c-.2-1.115.37-5.248,4.523-4.653a5.644,5.644,0,0,1,2.34.885c.9.609,2.2,1.924.748,5.53l-.378,1.218Z" transform="translate(-72.108 -2.432)" fill="#c65447"/><path d="M198.084,18.834s-5.174-.684-4.7-3.9.128-5.47,3.452-5.169,3.783,1.622,3.885,2.734-1.28,6.43-2.638,6.335" transform="translate(-72.907 -3.672)" fill="#ffb07b"/><path d="M198.3,9.689s-1.975,3.561-4.227,3.8S190.965,13,190.965,13a6.211,6.211,0,0,0,2.55-3.329s3.985-1.934,4.784.02" transform="translate(-72.006 -3.324)" fill="#c65447"/><path d="M202.1,10.331a4.605,4.605,0,0,1,1.065,1.856c.135.857,0,2.56.5,2.576,0,0,1.447-2.405.467-4.034-1.04-1.727-2.031-.4-2.031-.4" transform="translate(-76.205 -3.711)" fill="#c65447"/><path d="M222.635,71.207a8.085,8.085,0,0,0-6.646-4.2,7.548,7.548,0,0,0-4.815,1.684,1.268,1.268,0,0,1-2.037-.721l-2.225-10.34a2.793,2.793,0,0,0-3.318-2.142l-36.011,7.751a2.728,2.728,0,0,0-2.094,3.241l7.742,35.972a2.828,2.828,0,0,0,1.911,2.1l-.473.135h1.4l.012,0a2.841,2.841,0,0,0,.517-.062l.784-.169,9.242-1.989a1.744,1.744,0,0,0,.952-2.849,7.489,7.489,0,1,1,12.545-1.985,1.192,1.192,0,0,0,.351,1.4l-.539.263h1.249a1.213,1.213,0,0,0,.288-.027L212.5,96.895a2.794,2.794,0,0,0,2.143-3.319L212.436,83.3a1.308,1.308,0,0,1,1.6-1.542,7.5,7.5,0,0,0,8.594-10.55" transform="translate(-62.377 -20.898)" fill="#3740a5"/><path d="M213.948,67.005a7.548,7.548,0,0,0-4.815,1.684,1.268,1.268,0,0,1-2.037-.721l-2.225-10.34a2.794,2.794,0,0,0-3.318-2.143l-36.011,7.751a2.729,2.729,0,0,0-2.094,3.242l7.742,35.972a2.834,2.834,0,0,0,3.366,2.173l10.026-2.158a1.744,1.744,0,0,0,.952-2.849,7.489,7.489,0,1,1,12.545-1.985,1.194,1.194,0,0,0,1.349,1.638L210.464,96.9a2.794,2.794,0,0,0,2.143-3.319L210.4,83.3a1.308,1.308,0,0,1,1.6-1.542,7.5,7.5,0,0,0,8.594-10.549,8.084,8.084,0,0,0-6.646-4.2" transform="translate(-61.607 -20.898)" fill="#0043ff"/><path d="M223.4,52.062s2.246.368,2.835,1.829-.234,2.45-.55,2.446a1.411,1.411,0,0,1-1.206-.995c-.284-.757-1.079-3.28-1.079-3.28" transform="translate(-84.237 -19.631)" fill="#ffb07b"/><path d="M173.762,62.526s2.521,0,3.429,1.487.186,2.72-.16,2.773a1.563,1.563,0,0,1-1.5-.87c-.447-.776-1.771-3.391-1.771-3.391" transform="translate(-65.519 -23.576)" fill="#ffb07b"/><path d="M202.887,44.034c-.224-.048-1.2-.163-2.444-.358-2.289-.359-5.481-.992-6.551-1.98a17.838,17.838,0,0,1-1.668-3.435,32.086,32.086,0,0,0-.561,8.8L176.189,50.4c1.327-2.682,3.38-6.008,3-8.7-.143-1-.69-2.367-.894-3.9-.017-.133-.032-.265-.044-.4-2.17,1.787-4.677,3.758-4.737,4.152-.1.66,1.59,7.975,1.59,7.975-.42.966-2.242.762-2.242.762-1.707-1.219-4.219-8.129-4.017-9.66s6.427-10.254,7.934-12.339c1.489-2.06,6.923-2.009,7.054-2.008h0c4.322,2.595,4.711.438,4.711.438s3.9.742,4.57,1.893,3.609,9.887,3.817,10.195c.435.643,7.539,3.217,7.666,3.962s-1.071,1.406-1.707,1.271" transform="translate(-63.659 -9.908)" fill="#80bdcc"/><path d="M186.039,55.97l-5.4,1.156c1.343-2.675,3.109-6.006,2.723-8.681-.144-1-.468-2.18-.624-3.726-.015-.149-.041-.6-.041-.6s3.821,3.006,3.888,6.261a32.475,32.475,0,0,1-.551,5.586" transform="translate(-68.114 -16.637)" fill="#5f9aa8"/><path d="M214.747,49.372c-2.317-.36-5.549-.992-6.632-1.98a17.746,17.746,0,0,1-1.689-3.44s-.249-2.723.462-2.621,1.759,4.931,2.507,5.236c.668.273,4.367,1.693,5.352,2.805" transform="translate(-77.82 -15.583)" fill="#5f9aa8"/><path d="M398.579,218.708c-.326,1.1-1.835,1.835-2.038,3.179a2.922,2.922,0,0,1-.655,1.517h-4.7c.047-.259.253-.537.863-.67,1.3-.285,1.8-1.865,1.715-3.333-.034-.615-.018-1.317.012-1.924.042-.84.11-1.5.11-1.5l2.771-.652.292.374.28.359s1.671,1.548,1.345,2.649" transform="translate(-147.504 -81.191)" fill="#2c3a64"/><path d="M362.208,225.578h-9.5a1.905,1.905,0,0,1,1.2-.6c1.461-.237,3.993-1.086,4.557-2.954.019-.06.035-.121.049-.184.448-2,3.709.611,3.709.611s.011.08.025.216a10.16,10.16,0,0,1-.039,2.907" transform="translate(-132.994 -83.366)" fill="#2c3a64"/><path d="M355.254,142.832s.5,6.179,1.078,13.606c.79,10.09,1.742,22.482,1.836,24.83.163,4.076.815,10.6.815,10.6s1.548,1.549,4.647.9a106.723,106.723,0,0,0,3.55-19.158c.012-.161.024-.324.037-.487.733-10.027,1.874-31.141,1.874-31.141Z" transform="translate(-133.953 -53.534)" fill="#35488b"/><path d="M355.254,142.832s.5,6.179,1.078,13.606L367.18,173.6c.012-.161.024-.324.037-.487.733-10.027,1.874-31.141,1.874-31.141Z" transform="translate(-133.953 -53.534)" fill="#2c3a64"/><path d="M358.885,142.085s8.926,22.377,14.8,32.893,7.7,13.45,7.7,13.45,3.363-1.345,3.668-2.262c0,0-2.245-20.3-6.175-25.251-2.221-2.8-4.83-11.189-4.952-14.123s-.795-8.743-.795-8.743Z" transform="translate(-135.322 -52.054)" fill="#35488b"/><path d="M364.808,84.611a26.254,26.254,0,0,1-.409-3.733l4.529-3.65a9.083,9.083,0,0,0,3.047,7.432s-6.035,2.971-9.523,1.871a8.339,8.339,0,0,1,2.356-1.921" transform="translate(-136.667 -29.12)" fill="#935c2f"/><path d="M363.184,77.185s5.762.957,6.3-2.64,1.649-5.9-2.007-6.659-4.578.5-5.051,1.658-.729,7.3.756,7.641" transform="translate(-136.52 -25.51)" fill="#a16d3c"/><path d="M327.779,93.6l-1.226-.759a3.1,3.1,0,0,0-4.142-.855s-1.035.66-.341,1.212.508.24,1.47,1.041a2.875,2.875,0,0,0,3.01.645l1.03-.1Z" transform="translate(-121.351 -34.513)" fill="#a16d3c"/><path d="M328.963,93.761c.315-.989.465-1.076.465-1.076s9.92,1.172,10.855,1.242,13.923-2.607,13.923-2.607l6.132,7.447s-18.081.681-20.447.46c-3.91-.366-11-4.007-11-4.007a2.9,2.9,0,0,1,.072-1.459" transform="translate(-123.99 -34.433)" fill="#319991"/><path d="M372.138,119.919c.017.384-.774.806-1.118.961a24.086,24.086,0,0,1-7.726,2.229c-3.232.332-7.052-.395-8.361-.378a.563.563,0,0,1-.367-.139c-.087-.07-.158-4.018-.087-9,0-.192,0-.4.017-.595v-.069c.006-.518.014-1.045.025-1.577.032-1.455.087-2.948.15-4.433.095-2.188.225-4.338.4-6.244a36.128,36.128,0,0,1,.731-4.935,12.041,12.041,0,0,1,3.773-6.027l1.2-1.065a5.719,5.719,0,0,0,3.756-.454c1.38-.681,2.882-1.415,3.127-1.241,1.862,1.392,3.116,4.552,3.758,8.568a44.424,44.424,0,0,1,.506,7.085c0,.965-.034,1.944-.09,2.932a96.425,96.425,0,0,0,.191,12.575c.053.769.095,1.38.106,1.8" transform="translate(-133.65 -32.779)" fill="#33aea8"/><path d="M306.136,57.649,269.7,51.863a2.838,2.838,0,0,0-3.25,2.36l-1.613,10.155a11.948,11.948,0,0,0,.044,1.792l1.314.2a1.818,1.818,0,0,0,.227.034,1.749,1.749,0,0,0,.733-.1,7.509,7.509,0,1,1-2.686,12.448,1.179,1.179,0,0,0-.711-.336l-1.374-.207-1.711,12.388A2.8,2.8,0,0,0,263,93.8l10.409,1.653a1.312,1.312,0,0,1,.861,2.059,7.518,7.518,0,0,0,6.753,11.856,8.1,8.1,0,0,0,6.336-4.692,7.57,7.57,0,0,0,.169-5.112,1.272,1.272,0,0,1,1.412-1.644l10.473,1.664a2.8,2.8,0,0,0,3.2-2.327l5.793-36.477a2.737,2.737,0,0,0-2.273-3.131" transform="translate(-98.277 -19.542)" fill="#4a75cb"/><path d="M367.842,100.554s-2.793,13.034-13.279,15.938c.032-1.455.088-2.948.151-4.433.095-2.188.224-4.338.4-6.244a3.634,3.634,0,0,1,.524-.225c3.558-1.173,12.2-5.036,12.2-5.036" transform="translate(-133.693 -37.915)" fill="#319991"/><path d="M285.194,104.35a7.575,7.575,0,0,0,.169-5.112,1.271,1.271,0,0,1,1.411-1.643l10.474,1.663a2.8,2.8,0,0,0,3.2-2.326l5.793-36.477a2.735,2.735,0,0,0-2.272-3.13l-36.437-5.787a2.841,2.841,0,0,0-3.251,2.36l-1.613,10.156a1.749,1.749,0,0,0,2.319,1.922,7.509,7.509,0,1,1-2.685,12.448,1.2,1.2,0,0,0-2.021.668l-1.775,11.179a2.8,2.8,0,0,0,2.327,3.206l10.409,1.653a1.311,1.311,0,0,1,.861,2.059,7.517,7.517,0,0,0,6.752,11.855,8.1,8.1,0,0,0,6.336-4.692" transform="translate(-97.461 -19.419)" fill="#699dee"/><path d="M327.3,107.287l-1.5-.248a3.7,3.7,0,0,0-4.685-1.085s-1.181.661-.4,1.279.572.277,1.654,1.171a3.462,3.462,0,0,0,3.4.814l1.169-.061Z" transform="translate(-120.831 -39.792)" fill="#a16d3c"/><path d="M329.608,102.224c.049-1.1.635-1.22.635-1.22s11.349-.751,12.327-.941,10.018-7.679,10.018-7.679,3.5-3.141,5.944-2.081a4.8,4.8,0,0,1,2.9,4.41,4.856,4.856,0,0,1-2.8,4.7c-4.06,1.9-12.178,5.618-14.027,5.939-4.115.715-14.691-1.576-14.691-1.576a3.472,3.472,0,0,1-.305-1.55" transform="translate(-124.282 -33.968)" fill="#33aea8"/><path d="M361.847,67.885a3.362,3.362,0,0,1-.814-4.428,8.906,8.906,0,0,0,4.453,0c2.613-.61,4.952.254,5.257,1.169a2.125,2.125,0,0,1,1.118,1.932c.1,1.525-2.956,6.328-2.956,6.328s-.653-.813-.475-1.372.737-1.8.05-1.8-.914,1.017-1.194.61.229-2.11-.585-2.39-3.939.47-4.855-.045" transform="translate(-135.938 -23.85)" fill="#2c3a64"/><path d="M204.73,195.468,194.43,148.7h2.836a1.226,1.226,0,0,0,1.222-1.222V145.9a1.225,1.225,0,0,0-1.222-1.222H161.3a1.225,1.225,0,0,0-1.222,1.222v1.58A1.226,1.226,0,0,0,161.3,148.7h3.65l-10.3,46.766a1.167,1.167,0,1,0,2.279.505L167.341,148.7h24.7l10.412,47.271a1.167,1.167,0,1,0,2.279-.505" transform="translate(-58.302 -54.553)" fill="#3740a5"/><path d="M334.092,180c-3.812-3.66-17.537,19.433-17.537,19.433S337.9,183.658,334.092,180" transform="translate(-119.361 -67.722)" fill="#00ece1"/><path d="M315.192,197.3c-3.375-1.35-14.161,10.021-16.59,12.647a53.736,53.736,0,0,0-6.132-.447c-17.079-.3-24.827,7.431-24.827,7.431l47.645.162s-4.22-5.359-16.194-7.078c2.925-1.381,11.578-5.405,14.726-6.179,3.812-.938,5.185-5.01,1.372-6.535" transform="translate(-100.918 -74.355)" fill="#00ece1"/><path d="M293.858,160.166H283.575a1.749,1.749,0,0,0-1.534,2.591c.621,1.124-1.565,10.87-6.171,11.124a7.509,7.509,0,0,1-6.544-11.824,1.2,1.2,0,0,0-.977-1.891H257.03a2.8,2.8,0,0,0-2.8,2.8s-1.026,12.148-1.9,11.712a7.468,7.468,0,0,0-2.96-.777h-.01q-.19-.01-.382-.011c-.128,0-1.992-.032-1.992-.032l-.282,15.013,1.618.017a9.36,9.36,0,0,0,4.062-.8,1.271,1.271,0,0,1,1.845,1.136v10.6a2.8,2.8,0,0,0,2.8,2.8h36.934A2.736,2.736,0,0,0,296.7,199.9V163.006a2.84,2.84,0,0,0-2.841-2.84" transform="translate(-93.023 -60.393)" fill="#3740a5"/><path d="M240.943,188.679a7.571,7.571,0,0,0,5.076-.635,1.271,1.271,0,0,1,1.845,1.136v10.6a2.8,2.8,0,0,0,2.8,2.8H287.6a2.736,2.736,0,0,0,2.736-2.736V162.955a2.84,2.84,0,0,0-2.841-2.839H277.21a1.748,1.748,0,0,0-1.534,2.591,7.51,7.51,0,1,1-12.715-.7,1.2,1.2,0,0,0-.977-1.891H250.665a2.8,2.8,0,0,0-2.8,2.8v10.538a1.312,1.312,0,0,1-1.9,1.174,7.517,7.517,0,0,0-10.649,8.528,8.1,8.1,0,0,0,5.628,5.522" transform="translate(-88.649 -60.374)" fill="#0043ff"/><path d="M66.54,217.04l6.638.049s-.231-1.606-4.7-2.02c-1.732-4.812-6.822-17.757-11.241-17.145-4.364.6,5.971,12.48,10.175,17.1a10.542,10.542,0,0,0-1.661.131c-1.013-2.016-3.021-4.866-6.244-4.737-3.43.138,1.243,3.27,4.46,5.194A7.936,7.936,0,0,0,61.458,217l5.007.037.091.049-.016-.049" transform="translate(-21.185 -74.622)" fill="#00ece1"/><path d="M110.187,142.515l.982.8s2.687-.963,3.293,2.23c0,0,.161,1.36-.7,1.363s-.506-.148-1.727-.113a2.208,2.208,0,0,1-2.411-1.6l-.584-.839Z" transform="translate(-41.115 -53.737)" fill="#ea8e50"/><path d="M93.025,132.825a2.009,2.009,0,0,0,.721-1.423s-9.074-7.429-9.994-8.034a111.939,111.939,0,0,1-10.433-9.948c-1.549-1.792-3.469-1.1-5.664-.467l-1.808.519a3.025,3.025,0,0,0-.96,5.165c5.046,4.179,13.44,8.88,15.01,9.868,3.9,2.452,11.53,5.367,11.53,5.367a4.833,4.833,0,0,0,1.6-1.047" transform="translate(-24.064 -42.335)" fill="#1e3d70"/><path d="M125.995,218.408a6.841,6.841,0,0,0,5.576.778s2.721-.62,3.317.737c0,0-4.172,2.119-5.228,2.7a12.6,12.6,0,0,0-2.213,1.66,1.094,1.094,0,0,1-1.584-.122c-.184-.226-.394-.495-.624-.807-.643-.871-2.142-3.688-2.142-3.688Z" transform="translate(-46.415 -82.354)" fill="#233862"/><path d="M108.85,193.37s-1.341,3.092-4.436,2.523a86.379,86.379,0,0,1-10.648-10.634,24.089,24.089,0,0,1-3.308-5.171c-2.873-6.652-10.627-16.572-15.557-21.6l12.335-4.462s3.951,7.947,9.207,17.71c3.789,7.034,8.254,15.01,12.408,21.634" transform="translate(-28.242 -58.078)" fill="#2b478b"/><path d="M96.443,171.736,93.767,185.26a24.055,24.055,0,0,1-3.309-5.171c-2.873-6.651-10.627-16.572-15.557-21.6l12.334-4.462s3.951,7.947,9.208,17.709" transform="translate(-28.242 -58.078)" fill="#233862"/><path d="M90.559,220.405s-.135,2.467,2.856,2.8c0,0,1.709.009,1.714,1.579l-8.692.027a6.769,6.769,0,0,1-.314-1.99,15.558,15.558,0,0,1,1.01-3.765Z" transform="translate(-32.473 -82.597)" fill="#233862"/><path d="M80.953,153.7s5.495,6.038,8.983,16.916c1.9,5.919-3.478,20.8-4.526,25.968a16.472,16.472,0,0,1-6.072-.647,119.622,119.622,0,0,1,1.255-18.909c.807-4.606-7.235-9.851-10.749-18.174-2.391-5.663.518-5.566,4.091-5.7Z" transform="translate(-26.006 -57.747)" fill="#2b478b"/><path d="M72.384,106.274c-3.057,1.726-9.316.135-9.316.135a8.72,8.72,0,0,0,1.387-7.586l2.4,1.219,2.578,1.309a21.466,21.466,0,0,1,.282,2.311c.03.382.056.809.075,1.276a8.023,8.023,0,0,1,2.593,1.336" transform="translate(-23.781 -37.262)" fill="#ffb07b"/><path d="M82.2,136.523c0,.538-.619.795-.751.82-1.233.225-4.676,1.565-7.777,1.872a24.886,24.886,0,0,1-7.7-.521c-.353-.071-1.181-.294-1.24-.632-.074-.369-10.275-20.8-2.345-29.571.186-.206,1.752.164,3.183.5a5.877,5.877,0,0,0,3.618-.3l1.342.706c1.649.919,4.769,4.183,5.134,6.744.185,1.3.93,2.267,1.146,3.412q.12.636.245,1.242.244,1.187.5,2.261c.467,1.937.959,3.6,1.443,5.045.514,1.529,1.019,2.8,1.47,3.866.585,1.38,1.079,2.411,1.388,3.2a3.938,3.938,0,0,1,.343,1.346" transform="translate(-22.387 -40.886)" fill="#2a4e96"/><path d="M83.734,139.374a40.081,40.081,0,0,1-19.388-19.813s11.7,4.316,14.586,5.439q.244,1.187.5,2.261c.467,1.937.959,3.6,1.442,5.045.515,1.529,1.019,2.8,1.47,3.866.584,1.38,1.079,2.411,1.387,3.2" transform="translate(-24.263 -45.082)" fill="#1e3d70"/><path d="M129.549,101.685,126.464,91.9a1.749,1.749,0,0,0-2.141-1.158h0c-.045.012-.091.028-.136.045l-1.081.361a9.531,9.531,0,0,1-2.909,2.1,7.012,7.012,0,0,1-8.645-4.552c-1.516-4.052.243-8.5,4.316-9.784,1.394-.44,4.136.379,4.136.379l1.1-.366a1.193,1.193,0,0,0,.795-1.5l-3.4-10.766A2.794,2.794,0,0,0,115,64.83l-10.025,3.161a1.308,1.308,0,0,1-1.685-1.453,7.5,7.5,0,0,0-11.306-7.571,8.082,8.082,0,0,0-3.564,7.009,7.553,7.553,0,0,0,2.126,4.638,1.267,1.267,0,0,1-.527,2.095L79.929,75.89a2.792,2.792,0,0,0-1.823,3.5l11.079,35.131a2.728,2.728,0,0,0,3.422,1.781L127.7,105.238a2.833,2.833,0,0,0,1.85-3.554" transform="translate(-29.402 -21.823)" fill="#4a75cb"/><path d="M86.7,66.548a7.55,7.55,0,0,0,2.127,4.637,1.268,1.268,0,0,1-.528,2.1L78.216,76.461a2.793,2.793,0,0,0-1.823,3.5l11.079,35.131a2.729,2.729,0,0,0,3.423,1.782l35.092-11.067a2.832,2.832,0,0,0,1.849-3.554l-3.085-9.781a1.744,1.744,0,0,0-2.925-.682,7.49,7.49,0,1,1-3.148-12.3,1.2,1.2,0,0,0,1.506-1.5l-3.4-10.766a2.794,2.794,0,0,0-3.5-1.824l-10.025,3.161a1.308,1.308,0,0,1-1.685-1.454,7.5,7.5,0,0,0-11.306-7.571A8.084,8.084,0,0,0,86.7,66.548" transform="translate(-28.756 -22.038)" fill="#699dee"/><path d="M108.6,145.006l1.245.456a2.662,2.662,0,0,1,4.043,1.1s.561,1.252-.327,1.524-.566.016-1.814.432a2.379,2.379,0,0,1-2.951-.776l-.845-.62Z" transform="translate(-40.705 -54.646)" fill="#ffb07b"/><path d="M92.013,134.845c.46-1.2.67-1.744.67-1.744s-9.4-7.664-10.361-8.322c-.653-.448-7.152-5.306-10.321-9.092a6.632,6.632,0,0,0-6.447-2.234l-1.974.414a2.936,2.936,0,0,0-1.309,5.1c5.207,4.464,13.99,9.642,15.627,10.718,4.065,2.674,13.057,6.42,13.057,6.42a2.314,2.314,0,0,0,1.058-1.261" transform="translate(-23.093 -42.725)" fill="#2a4e96"/><path d="M70.738,104.4a6.435,6.435,0,0,1-4.962-2.314,23.947,23.947,0,0,0,2.1-1.307l2.578,1.309a21.337,21.337,0,0,1,.283,2.311" transform="translate(-24.802 -38)" fill="#ea8e50"/><path d="M70.31,96.994s-4.556,3.269-6.547.4-3.922-4.378-1.1-6.586,4.156-1.511,5.053-.715,3.725,5.976,2.591,6.9" transform="translate(-23.093 -33.681)" fill="#ffb07b"/><path d="M65.712,85.263a7.341,7.341,0,0,0-.531-1.878s-.286,1.184-2.45,1.02-5.594.213-6.737,2.679c-.073.157-.138.318-.2.483a5.7,5.7,0,0,1-.257-1.365,4.218,4.218,0,0,0,0,2.39c-.006.038-.011.077-.017.116a4.834,4.834,0,0,0-.878,1.659,1.5,1.5,0,0,1,.809-.719c-.009,1.919.769,3.795,2.135,4.353,2,.817,1.981.194,3.99,1.526,0,0,.539-.668.171-1.118s-1.755-1.1-.98-1.756,1.061.082,1.347-.368-1.143-1.756.694-2.981,3.062-2.94,2.9-4.042" transform="translate(-20.605 -31.441)" fill="#233862"/><path d="M240.618,215.225s-2.3-3.4-5.909-3.13c-1.1.083-2.876.35-4.944.635-1.56-5.443-5.859-18.38-11.657-19.109-5.922-.744,5.667,13.644,10.406,19.277-.864.114-1.762.225-2.668.323-2.509-2.679-6.881-6.647-10.532-6.343s3.193,4.09,8.138,6.565c-3.034.227-5.912.2-7.67-.478-4.306-1.664-8.264,2.259-8.264,2.259Z" transform="translate(-78.247 -72.997)" fill="#33aea8"/><path d="M278.17,229.031H.369a.369.369,0,1,1,0-.739h277.8a.369.369,0,0,1,0,.739" transform="translate(0 -86.081)" fill="#2e3552"/></g></svg>