<svg xmlns="http://www.w3.org/2000/svg" xmlns:xlink="http://www.w3.org/1999/xlink" width="316.119" height="90.765" viewBox="0 0 316.119 90.765"><defs><clipPath id="a"><rect width="316.119" height="90.765" fill="none"/></clipPath></defs><g transform="translate(0)"><g transform="translate(0)" clip-path="url(#a)"><path d="M307.157,82.615H87.962A19.275,19.275,0,0,1,68.687,63.34V30.179A19.275,19.275,0,0,1,87.962,10.9H307.157a19.275,19.275,0,0,1,19.275,19.275V63.34a19.275,19.275,0,0,1-19.275,19.275" transform="translate(-10.313 -1.637)" fill="#3740a5"/><path d="M45.382,0A45.382,45.382,0,1,0,90.765,45.382,45.382,45.382,0,0,0,45.382,0" fill="#0043ff"/><path d="M143.545,58.739h8.117v2.788H139.91V43.4h3.635Z" transform="translate(-21.006 -6.516)" fill="#fff"/><path d="M155.6,55.446a7.223,7.223,0,0,1,1.681-4.935,5.854,5.854,0,0,1,4.656-1.924,5.92,5.92,0,0,1,4.681,1.917,7.19,7.19,0,0,1,1.693,4.942v.262a7.2,7.2,0,0,1-1.687,4.948,6.657,6.657,0,0,1-9.337,0,7.2,7.2,0,0,1-1.687-4.948Zm3.623.262a5.859,5.859,0,0,0,.648,2.957,2.487,2.487,0,0,0,4.152-.006,5.819,5.819,0,0,0,.654-2.951v-.262a5.767,5.767,0,0,0-.659-2.925,2.232,2.232,0,0,0-2.08-1.133,2.2,2.2,0,0,0-2.06,1.14,5.805,5.805,0,0,0-.654,2.918Z" transform="translate(-23.362 -7.295)" fill="#fff"/><path d="M180.367,58.571a1.256,1.256,0,0,0-.579-1.027,5.9,5.9,0,0,0-2.148-.753,8.566,8.566,0,0,1-3.591-1.431,3.128,3.128,0,0,1-1.226-2.6,3.712,3.712,0,0,1,1.469-2.951,5.921,5.921,0,0,1,3.909-1.22,6.392,6.392,0,0,1,4.09,1.22,3.566,3.566,0,0,1,1.475,3.038l-.025.075H180.23a1.763,1.763,0,0,0-.523-1.32,2.444,2.444,0,0,0-2.889-.075,1.356,1.356,0,0,0-.51,1.071,1.207,1.207,0,0,0,.529,1.014,5.86,5.86,0,0,0,2.148.7,8.752,8.752,0,0,1,3.691,1.463,3.212,3.212,0,0,1,1.214,2.658,3.555,3.555,0,0,1-1.557,2.975,6.717,6.717,0,0,1-4.108,1.158,6.241,6.241,0,0,1-4.251-1.363,3.808,3.808,0,0,1-1.487-3.106l.025-.075h3.324a1.89,1.89,0,0,0,.71,1.569,2.928,2.928,0,0,0,1.755.485,2.5,2.5,0,0,0,1.537-.4,1.314,1.314,0,0,0,.529-1.1" transform="translate(-25.897 -7.295)" fill="#fff"/><path d="M203.952,62.305a7.769,7.769,0,0,1-.342-.971,6.717,6.717,0,0,1-.2-1.046,4.976,4.976,0,0,1-1.482,1.631,3.711,3.711,0,0,1-2.191.648,4.548,4.548,0,0,1-3.262-1.09,3.9,3.9,0,0,1-1.145-2.969,3.553,3.553,0,0,1,1.525-3.069,7.619,7.619,0,0,1,4.451-1.09h2.041V53.28a2.1,2.1,0,0,0-.51-1.506,2,2,0,0,0-1.519-.535,1.977,1.977,0,0,0-1.363.429,1.5,1.5,0,0,0-.479,1.177h-3.5l-.025-.075a3.418,3.418,0,0,1,1.488-2.945,6.464,6.464,0,0,1,4.114-1.238,6.032,6.032,0,0,1,3.928,1.22,4.253,4.253,0,0,1,1.5,3.5v5.564a10.547,10.547,0,0,0,.143,1.78,8.918,8.918,0,0,0,.455,1.656Zm-3.324-2.427a3.1,3.1,0,0,0,1.693-.473,2.538,2.538,0,0,0,1.021-1.1V56.4H201.3a2.421,2.421,0,0,0-1.749.573,1.881,1.881,0,0,0-.592,1.407,1.4,1.4,0,0,0,.442,1.09,1.747,1.747,0,0,0,1.226.4" transform="translate(-29.326 -7.295)" fill="#fff"/><path d="M219.327,51.961,218,51.924a2.423,2.423,0,0,0-1.333.337,2.118,2.118,0,0,0-.8.946v9.1h-3.624V48.836h3.375l.161,1.992A4.247,4.247,0,0,1,217,49.179a2.741,2.741,0,0,1,1.738-.591,2.819,2.819,0,0,1,.5.043c.152.03.309.065.467.106Z" transform="translate(-31.866 -7.295)" fill="#fff"/><path d="M227.194,45v3.3h2.278v2.552h-2.278v6.859a1.563,1.563,0,0,0,.33,1.12,1.157,1.157,0,0,0,.865.337,3.527,3.527,0,0,0,.5-.031,4.387,4.387,0,0,0,.485-.106l.3,2.627a7.393,7.393,0,0,1-1.064.28,6.3,6.3,0,0,1-1.127.093,3.873,3.873,0,0,1-2.895-1.033,4.528,4.528,0,0,1-1.015-3.274V50.849H221.6V48.3h1.967V45Z" transform="translate(-33.272 -6.756)" fill="#fff"/><path d="M239.238,62.567a6.061,6.061,0,0,1-4.706-1.848,6.777,6.777,0,0,1-1.693-4.762v-.5a7.376,7.376,0,0,1,1.644-4.955A5.584,5.584,0,0,1,239,48.587a5.232,5.232,0,0,1,4.164,1.661,6.571,6.571,0,0,1,1.45,4.476V56.6h-8.029l-.037.075a3.64,3.64,0,0,0,.84,2.24,2.813,2.813,0,0,0,2.234.859,7.488,7.488,0,0,0,2.073-.249,8.461,8.461,0,0,0,1.762-.759l.983,2.24a6.741,6.741,0,0,1-2.191,1.108,9.7,9.7,0,0,1-3.013.448M239,51.388a2.022,2.022,0,0,0-1.687.753,3.784,3.784,0,0,0-.716,2l.025.063h4.432v-.275a3.148,3.148,0,0,0-.485-1.861A1.8,1.8,0,0,0,239,51.388" transform="translate(-34.959 -7.295)" fill="#fff"/><path d="M249.946,61.253V50.335h-2V47.783h2V46.289a4.559,4.559,0,0,1,1.307-3.493,5.164,5.164,0,0,1,3.672-1.225,6.6,6.6,0,0,1,.94.069q.479.069,1.052.192l-.311,2.7c-.2-.033-.393-.062-.579-.087a4.907,4.907,0,0,0-.654-.037,1.744,1.744,0,0,0-1.339.485,1.968,1.968,0,0,0-.455,1.395v1.493h2.59v2.552h-2.59V61.253Z" transform="translate(-37.226 -6.242)" fill="#fff"/><path d="M267.467,62.305a7.761,7.761,0,0,1-.342-.971,6.719,6.719,0,0,1-.2-1.046,4.975,4.975,0,0,1-1.482,1.631,3.711,3.711,0,0,1-2.191.648,4.548,4.548,0,0,1-3.262-1.09,3.9,3.9,0,0,1-1.145-2.969,3.553,3.553,0,0,1,1.525-3.069,7.619,7.619,0,0,1,4.451-1.09h2.041V53.28a2.1,2.1,0,0,0-.51-1.506,2,2,0,0,0-1.519-.535,1.977,1.977,0,0,0-1.363.429,1.5,1.5,0,0,0-.479,1.177h-3.5l-.025-.075a3.419,3.419,0,0,1,1.488-2.945,6.464,6.464,0,0,1,4.114-1.238,6.032,6.032,0,0,1,3.928,1.22,4.253,4.253,0,0,1,1.5,3.5v5.564a10.547,10.547,0,0,0,.143,1.78,8.919,8.919,0,0,0,.455,1.656Zm-3.324-2.427a3.1,3.1,0,0,0,1.693-.473,2.538,2.538,0,0,0,1.021-1.1V56.4h-2.041a2.421,2.421,0,0,0-1.749.573,1.881,1.881,0,0,0-.591,1.407,1.4,1.4,0,0,0,.442,1.09,1.747,1.747,0,0,0,1.226.4" transform="translate(-38.863 -7.295)" fill="#fff"/><path d="M281.276,59.779a2.02,2.02,0,0,0,1.506-.567,2.052,2.052,0,0,0,.561-1.512h3.311l.025.075a4.215,4.215,0,0,1-1.519,3.417,5.679,5.679,0,0,1-3.884,1.375,5.739,5.739,0,0,1-4.619-1.911,7.261,7.261,0,0,1-1.631-4.886V55.4a7.311,7.311,0,0,1,1.625-4.886,5.688,5.688,0,0,1,4.6-1.924,5.558,5.558,0,0,1,3.971,1.419,4.744,4.744,0,0,1,1.456,3.735l-.025.074h-3.311a2.689,2.689,0,0,0-.554-1.736,1.86,1.86,0,0,0-1.537-.691,2.074,2.074,0,0,0-2,1.126,6.184,6.184,0,0,0-.592,2.883v.373a6.154,6.154,0,0,0,.592,2.9,2.1,2.1,0,0,0,2.023,1.108" transform="translate(-41.293 -7.295)" fill="#fff"/><path d="M295.368,45v3.3h2.278v2.552h-2.278v6.859a1.563,1.563,0,0,0,.33,1.12,1.157,1.157,0,0,0,.865.337,3.526,3.526,0,0,0,.5-.031,4.386,4.386,0,0,0,.485-.106l.3,2.627a7.4,7.4,0,0,1-1.064.28,6.3,6.3,0,0,1-1.127.093,3.873,3.873,0,0,1-2.895-1.033,4.528,4.528,0,0,1-1.015-3.274V50.849h-1.967V48.3h1.967V45Z" transform="translate(-43.508 -6.756)" fill="#fff"/><path d="M301.013,55.446a7.223,7.223,0,0,1,1.681-4.935,5.854,5.854,0,0,1,4.656-1.924,5.92,5.92,0,0,1,4.681,1.917,7.19,7.19,0,0,1,1.693,4.942v.262a7.2,7.2,0,0,1-1.687,4.948,6.657,6.657,0,0,1-9.337,0,7.2,7.2,0,0,1-1.687-4.948Zm3.623.262a5.859,5.859,0,0,0,.648,2.957,2.487,2.487,0,0,0,4.152-.006,5.818,5.818,0,0,0,.654-2.951v-.262a5.767,5.767,0,0,0-.659-2.925,2.232,2.232,0,0,0-2.08-1.133,2.2,2.2,0,0,0-2.06,1.14,5.805,5.805,0,0,0-.654,2.918Z" transform="translate(-45.194 -7.295)" fill="#fff"/><path d="M325.782,58.571a1.256,1.256,0,0,0-.579-1.027,5.9,5.9,0,0,0-2.148-.753,8.566,8.566,0,0,1-3.592-1.431,3.127,3.127,0,0,1-1.226-2.6,3.712,3.712,0,0,1,1.469-2.951,5.921,5.921,0,0,1,3.909-1.22,6.392,6.392,0,0,1,4.09,1.22,3.566,3.566,0,0,1,1.475,3.038l-.025.075h-3.511a1.763,1.763,0,0,0-.523-1.32,2.444,2.444,0,0,0-2.889-.075,1.356,1.356,0,0,0-.51,1.071,1.207,1.207,0,0,0,.529,1.014,5.86,5.86,0,0,0,2.148.7,8.752,8.752,0,0,1,3.691,1.463,3.212,3.212,0,0,1,1.214,2.658,3.555,3.555,0,0,1-1.557,2.975,6.717,6.717,0,0,1-4.108,1.158A6.241,6.241,0,0,1,319.39,61.2,3.808,3.808,0,0,1,317.9,58.1l.025-.075h3.324a1.89,1.89,0,0,0,.71,1.569,2.928,2.928,0,0,0,1.755.485,2.5,2.5,0,0,0,1.537-.4,1.314,1.314,0,0,0,.529-1.1" transform="translate(-47.73 -7.295)" fill="#fff"/><path d="M22.775,39.669a15.046,15.046,0,0,0,1.346,3.2L22.5,44.913a1.683,1.683,0,0,0,.126,2.228l2.8,2.8a1.674,1.674,0,0,0,2.227.126l2.035-1.611A14.793,14.793,0,0,0,33,49.859l.305,2.618a1.677,1.677,0,0,0,1.664,1.486h3.958A1.678,1.678,0,0,0,40.6,52.477l.291-2.526a14.955,14.955,0,0,0,3.56-1.439l1.969,1.559a1.681,1.681,0,0,0,2.227-.127l2.8-2.8a1.674,1.674,0,0,0,.126-2.227l-1.531-1.943a14.593,14.593,0,0,0,1.465-3.5l2.361-.271a1.677,1.677,0,0,0,1.485-1.664V33.582a1.677,1.677,0,0,0-1.485-1.664l-2.328-.272a14.724,14.724,0,0,0-1.4-3.461l1.432-1.809a1.682,1.682,0,0,0-.127-2.228l-2.791-2.791a1.674,1.674,0,0,0-2.227-.126l-1.757,1.392a14.741,14.741,0,0,0-3.64-1.525l-.265-2.274a1.677,1.677,0,0,0-1.664-1.485H35.134a1.678,1.678,0,0,0-1.665,1.485L33.2,21.1a14.689,14.689,0,0,0-3.733,1.577l-1.823-1.445a1.681,1.681,0,0,0-2.227.126l-2.8,2.8a1.674,1.674,0,0,0-.126,2.227l1.525,1.929a14.415,14.415,0,0,0-1.379,3.495l-2.439.278a1.677,1.677,0,0,0-1.486,1.664v3.959A1.677,1.677,0,0,0,20.2,39.371ZM37.116,28.962a6.543,6.543,0,1,1-6.544,6.544,6.553,6.553,0,0,1,6.544-6.544" transform="translate(-2.81 -2.603)" fill="#fff"/><path d="M81.844,43.959,79.755,42.2a1.651,1.651,0,0,0-2.2.059L76.4,43.335a11.95,11.95,0,0,0-3.076-.994L73,40.75a1.667,1.667,0,0,0-1.763-1.326l-2.725.232a1.661,1.661,0,0,0-1.519,1.6l-.053,1.617A11.949,11.949,0,0,0,64,44.416L62.624,43.5a1.657,1.657,0,0,0-2.182.312l-1.763,2.1a1.651,1.651,0,0,0,.059,2.2L59.945,49.4a12.35,12.35,0,0,0-.889,2.944l-1.724.351a1.668,1.668,0,0,0-1.326,1.764l.232,2.725a1.66,1.66,0,0,0,1.6,1.518l1.863.059a12.153,12.153,0,0,0,1.32,2.52l-1.041,1.571a1.656,1.656,0,0,0,.311,2.181L62.378,66.8a1.651,1.651,0,0,0,2.2-.059l1.366-1.279a11.97,11.97,0,0,0,2.8.914l.377,1.87a1.668,1.668,0,0,0,1.763,1.326l2.725-.232a1.66,1.66,0,0,0,1.518-1.6l.059-1.83A12.267,12.267,0,0,0,78,64.491l1.505.994a1.657,1.657,0,0,0,2.182-.312l1.763-2.088a1.653,1.653,0,0,0-.059-2.2L82.175,59.6a11.9,11.9,0,0,0,.954-2.957l1.657-.338a1.667,1.667,0,0,0,1.327-1.763l-.232-2.725a1.662,1.662,0,0,0-1.6-1.519l-1.664-.053a12.042,12.042,0,0,0-1.386-2.731l.909-1.366a1.647,1.647,0,0,0-.3-2.188M71.574,59.711a5.356,5.356,0,1,1,4.886-5.788,5.356,5.356,0,0,1-4.886,5.788" transform="translate(-8.408 -5.918)" fill="#fff"/><path d="M34.445,70.217a1.657,1.657,0,0,0-1.486,1.631l-.02,1.678a1.652,1.652,0,0,0,1.446,1.664l1.233.159a9.557,9.557,0,0,0,.875,2.142l-.8.982a1.653,1.653,0,0,0,.1,2.2l1.174,1.2a1.657,1.657,0,0,0,2.2.152l.988-.762a9.661,9.661,0,0,0,2.2.961l.133,1.273a1.657,1.657,0,0,0,1.631,1.485L45.8,85a1.653,1.653,0,0,0,1.664-1.446l.153-1.207a9.946,9.946,0,0,0,2.386-.928l.928.75a1.653,1.653,0,0,0,2.2-.1l1.2-1.174a1.656,1.656,0,0,0,.153-2.2l-.71-.922a9.6,9.6,0,0,0,1.008-2.32l1.1-.113a1.656,1.656,0,0,0,1.485-1.631l.02-1.677a1.651,1.651,0,0,0-1.445-1.664l-1.074-.139a10,10,0,0,0-.909-2.321l.67-.822a1.653,1.653,0,0,0-.1-2.2l-1.174-1.2a1.655,1.655,0,0,0-2.2-.152l-.8.616A9.732,9.732,0,0,0,47.943,63.1l-.106-1.041a1.656,1.656,0,0,0-1.631-1.486l-1.678-.02A1.653,1.653,0,0,0,42.865,62l-.133,1.034a10.023,10.023,0,0,0-2.5,1.021l-.829-.676a1.653,1.653,0,0,0-2.2.1L36,64.662a1.655,1.655,0,0,0-.152,2.2l.71.914a9.717,9.717,0,0,0-.948,2.321Zm10.826-1.9a4.363,4.363,0,1,1-4.416,4.31,4.367,4.367,0,0,1,4.416-4.31" transform="translate(-4.946 -9.092)" fill="#fff"/></g></g></svg>