<svg xmlns="http://www.w3.org/2000/svg" width="90.765" height="90.765" viewBox="0 0 90.765 90.765"><g transform="translate(-285 -1153)"><path d="M45.382,0A45.382,45.382,0,1,0,90.765,45.382,45.382,45.382,0,0,0,45.382,0" transform="translate(285 1153)" fill="#0043ff"/><path d="M87.729,51.754a33.163,33.163,0,0,0-1.187-8.81l-2.055.566A31.074,31.074,0,0,1,85.6,51.754,30.719,30.719,0,0,1,68.176,79.575L64.008,81.6H77.07V79.468H72.7A32.793,32.793,0,0,0,87.729,51.754Z" transform="translate(275.39 1146.553)" fill="#fff"/><path d="M33.714,20.218l4.169-2.024H24.819v2.132h4.369A32.79,32.79,0,0,0,14.16,48.039a33.162,33.162,0,0,0,1.187,8.81l2.055-.566a31.039,31.039,0,0,1-1.111-8.244A30.715,30.715,0,0,1,33.714,20.218Z" transform="translate(282.874 1150.269)" fill="#fff"/><path d="M44.361,25.482a7.466,7.466,0,0,0,6.309,6.31V29.745H52.8v2.046a7.467,7.467,0,0,0,6.31-6.31H57.066V23.35h2.046a7.467,7.467,0,0,0-6.31-6.31v2.046H50.67V17.04a7.466,7.466,0,0,0-6.309,6.31h2.046v2.131Zm6-3.951,1.378,1.378,3.51-3.51,1.507,1.507-5.017,5.018-2.885-2.886Z" transform="translate(278.34 1150.441)" fill="#fff"/><path d="M45.372,57.053a3.125,3.125,0,0,1-.811-.117,7.409,7.409,0,0,0,.533,1.441l.958,1.916a3.7,3.7,0,0,1,.221.612,8.647,8.647,0,0,1,1.575-.532l.263-.527a3.187,3.187,0,0,1-1.673-2.793Z" transform="translate(278.31 1144.451)" fill="#fff"/><path d="M45.327,54.189h1.066V52.058H45.327a1.066,1.066,0,0,0,0,2.131" transform="translate(278.354 1145.184)" fill="#fff"/><path d="M50.746,61.79l1.95,2.6,1.95-2.6-.477-.954H51.223Z" transform="translate(277.381 1143.866)" fill="#fff"/><path d="M45.327,48.419h1.066v-.625a2.573,2.573,0,0,1,4.394-1.819l.495.495a6.611,6.611,0,0,0,4.7,1.949h2.131a3.17,3.17,0,0,1,.942.158,6.336,6.336,0,0,0,.124-1.252,5.308,5.308,0,0,0-5.3-5.3h-4.32a5.307,5.307,0,0,0-5.3,5.3,6.4,6.4,0,0,0,.123,1.252A3.175,3.175,0,0,1,45.327,48.419Z" transform="translate(278.354 1146.69)" fill="#fff"/><path d="M60.377,52.057H59.311v2.131h1.066a1.066,1.066,0,1,0,0-2.131" transform="translate(276.095 1145.184)" fill="#fff"/><path d="M55.673,55.756V51.428a8.725,8.725,0,0,1-5.146-2.509l-.5-.5a.448.448,0,0,0-.313-.128.442.442,0,0,0-.441.441v7.02a1.066,1.066,0,0,0,1.066,1.066h4.264a1.066,1.066,0,0,0,1.066-1.066" transform="translate(277.601 1145.749)" fill="#fff"/><path d="M36.975,64.632a6.37,6.37,0,0,1-11,.025,6.567,6.567,0,0,0-3.034,5.494v1.915H37.862V70.022a8.715,8.715,0,0,1,.85-3.757A6.523,6.523,0,0,0,36.975,64.632Z" transform="translate(281.556 1143.296)" fill="#fff"/><path d="M59.015,57.039a3.186,3.186,0,0,1-1.674,2.793l.263.527A8.682,8.682,0,0,1,61.147,62.1V56.843a3.145,3.145,0,0,1-1.066.2Z" transform="translate(276.391 1144.466)" fill="#fff"/><path d="M40.872,59.688a1.55,1.55,0,0,0-.16-.682l-.959-1.915A9.624,9.624,0,0,1,38.74,52.8V49.485a7.461,7.461,0,1,0-14.923,0V52.8A9.627,9.627,0,0,1,22.8,57.091l-.959,1.917a1.513,1.513,0,0,0,.87,2.111,8.673,8.673,0,0,1,5.365-2.966v-.338a3.193,3.193,0,0,1-2.132-3v-6.4h1.066A4.113,4.113,0,0,0,29.9,47.223l1.378-1.378,1.378,1.378a4.111,4.111,0,0,0,2.885,1.195h1.066v6.4a3.192,3.192,0,0,1-2.131,3v.338a8.645,8.645,0,0,1,5.26,2.839,8.624,8.624,0,0,1,1.1-1.085,1.571,1.571,0,0,0,.035-.219" transform="translate(281.744 1146.69)" fill="#fff"/><path d="M71.523,60.836v.142a2.141,2.141,0,0,1-1.83,2.11l-.037.008a3.148,3.148,0,0,0,5.865,0c-.013,0-.024-.007-.037-.008a2.143,2.143,0,0,1-1.83-2.111v-.142Z" transform="translate(274.542 1143.866)" fill="#fff"/><path d="M75.74,51.664a6.272,6.272,0,0,1-3.2-1.6,6.263,6.263,0,0,1-3.2,1.6v4.357a1.066,1.066,0,0,0,1.066,1.066h4.264a1.066,1.066,0,0,0,1.066-1.066Z" transform="translate(274.588 1145.483)" fill="#fff"/><path d="M80.355,72.008V70.094a6.582,6.582,0,0,0-3.574-5.818,5.271,5.271,0,0,1-9.914-.02,6.541,6.541,0,0,0-2.284,1.95,8.74,8.74,0,0,1,.849,3.76v2.043Z" transform="translate(275.303 1143.353)" fill="#fff"/><path d="M68.591,57.816a3.193,3.193,0,0,1-2.131-3v-6.4h1.066a4.111,4.111,0,0,0,2.885-1.195l1.378-1.378,1.378,1.378a4.113,4.113,0,0,0,2.885,1.195h1.067v6.4a3.194,3.194,0,0,1-2.132,3v.338a8.619,8.619,0,0,1,4.264,1.885V49.485a7.461,7.461,0,0,0-14.923,0V60.026a8.66,8.66,0,0,1,4.264-1.871Z" transform="translate(275.342 1146.69)" fill="#fff"/><path d="M30.277,57.087h4.263a1.067,1.067,0,0,0,1.067-1.066V51.664a6.275,6.275,0,0,1-3.2-1.6,6.263,6.263,0,0,1-3.2,1.6v4.357a1.067,1.067,0,0,0,1.067,1.066" transform="translate(280.614 1145.483)" fill="#fff"/><path d="M55.157,63.512l-3.624,4.833-3.625-4.833a6.546,6.546,0,0,0-4.9,6.342V71.9h1.355l2.424-2.424,1.357.635.512-1.409h5.758l.511,1.408,1.357-.636L58.705,71.9H60.06V69.854A6.546,6.546,0,0,0,55.157,63.512Z" transform="translate(278.543 1143.464)" fill="#fff"/><path d="M32.352,65.1a4.26,4.26,0,0,0,3.526-1.886c-.207-.05-.416-.094-.63-.126a2.141,2.141,0,0,1-1.831-2.11v-.142H31.287v.142a2.141,2.141,0,0,1-1.831,2.11c-.212.031-.411.1-.617.147A4.265,4.265,0,0,0,32.352,65.1" transform="translate(280.67 1143.866)" fill="#fff"/><path d="M57.379,76.566l.6-1.276-1.959-1.959-1.277.6-1.1-.455L53.428,73l-.321-.878H50.337l-.483,1.328-1.152.475-1.276-.6-1.96,1.96.6,1.276-.456,1.1-.471.216-.878.32v2.769l1.327.484.476,1.151-.6,1.277,1.959,1.959,1.277-.6,1.1.456.215.471.32.877h2.769l.483-1.327,1.152-.476,1.276.6,1.959-1.959-.6-1.277.455-1.1.472-.215.877-.32V78.2l-1.328-.483Zm-5.658,7.282a4.264,4.264,0,1,1,4.264-4.264A4.264,4.264,0,0,1,51.722,83.849Z" transform="translate(278.354 1142.171)" fill="#fff"/></g></svg>