<svg xmlns="http://www.w3.org/2000/svg" width="90.765" height="90.765" viewBox="0 0 90.765 90.765"><g transform="translate(-641.941 -1153)"><path d="M45.382,0A45.382,45.382,0,1,0,90.765,45.382,45.382,45.382,0,0,0,45.382,0" transform="translate(641.941 1153)" fill="#0ccbc3"/><path d="M61.433,22.157H56.956a1.258,1.258,0,0,1-1.179-.942,4.555,4.555,0,0,0-4.633-3.692,4.634,4.634,0,0,0-4.634,3.771,1.179,1.179,0,0,1-1.179.863h-4.32v7.854H61.433Z" transform="translate(635.783 1150.369)" fill="#01074e"/><path d="M71.781,76.746V31.74a3.222,3.222,0,0,0-3.212-3.229c-.082,0-.163,0-.245.008H61.569v4.006c0,.628-.393,1.492-1.022,1.492H37.377c-.629,0-.942-.864-.942-1.492V28.519H29.68A3.221,3.221,0,0,0,26.232,31.5c-.006.082-.008.163-.008.245V76.746a3.535,3.535,0,0,0,3.455,3.614H68.324a3.535,3.535,0,0,0,3.456-3.612v0M42.64,66.379l-6.127,5.733a1.1,1.1,0,0,1-.785.393,1.262,1.262,0,0,1-.864-.393l-3.22-3.3a1.2,1.2,0,0,1,1.728-1.65l2.357,2.513,5.341-5.027a1.178,1.178,0,0,1,1.571,1.729m0-12.568h0l-6.127,5.734a1.1,1.1,0,0,1-.785.393,1.258,1.258,0,0,1-.864-.393l-3.22-3.3a1.2,1.2,0,0,1,1.728-1.65l2.357,2.514,5.341-5.027a1.178,1.178,0,0,1,1.571,1.728m0-12.567-6.127,5.733a1.094,1.094,0,0,1-.785.393,1.258,1.258,0,0,1-.864-.393l-3.22-3.3a1.2,1.2,0,0,1,1.728-1.65l2.357,2.513,5.341-5.027a1.178,1.178,0,0,1,1.571,1.729M65.5,70.934H47.431a1.178,1.178,0,1,1,0-2.357H65.5a1.178,1.178,0,0,1,0,2.357m0-12.567H47.431a1.178,1.178,0,1,1,0-2.357H65.5a1.178,1.178,0,0,1,0,2.357m0-12.568H47.431a1.178,1.178,0,1,1,0-2.357H65.5a1.178,1.178,0,0,1,0,2.357" transform="translate(638.003 1148.72)" fill="#01074e"/></g></svg>