<svg xmlns="http://www.w3.org/2000/svg" width="90.765" height="90.765" viewBox="0 0 90.765 90.765"><g transform="translate(-998.881 -1153)"><path d="M45.382,0A45.382,45.382,0,1,0,90.765,45.382,45.382,45.382,0,0,0,45.382,0" transform="translate(998.881 1153)" fill="#0043ff"/><path d="M22.775,39.669a15.046,15.046,0,0,0,1.346,3.2L22.5,44.913a1.683,1.683,0,0,0,.126,2.228l2.8,2.8a1.674,1.674,0,0,0,2.227.126l2.035-1.611A14.793,14.793,0,0,0,33,49.859l.305,2.618a1.677,1.677,0,0,0,1.664,1.486h3.958A1.678,1.678,0,0,0,40.6,52.477l.291-2.526a14.955,14.955,0,0,0,3.56-1.439l1.969,1.559a1.681,1.681,0,0,0,2.227-.127l2.8-2.8a1.674,1.674,0,0,0,.126-2.227l-1.531-1.943a14.593,14.593,0,0,0,1.465-3.5l2.361-.271a1.677,1.677,0,0,0,1.485-1.664V33.582a1.677,1.677,0,0,0-1.485-1.664l-2.328-.272a14.724,14.724,0,0,0-1.4-3.461l1.432-1.809a1.682,1.682,0,0,0-.127-2.228l-2.791-2.791a1.674,1.674,0,0,0-2.227-.126l-1.757,1.392a14.741,14.741,0,0,0-3.64-1.525l-.265-2.274a1.677,1.677,0,0,0-1.664-1.485H35.134a1.678,1.678,0,0,0-1.665,1.485L33.2,21.1a14.689,14.689,0,0,0-3.733,1.577l-1.823-1.445a1.681,1.681,0,0,0-2.227.126l-2.8,2.8a1.674,1.674,0,0,0-.126,2.227l1.525,1.929a14.415,14.415,0,0,0-1.379,3.495l-2.439.278a1.677,1.677,0,0,0-1.486,1.664v3.959A1.677,1.677,0,0,0,20.2,39.371ZM37.116,28.962a6.543,6.543,0,1,1-6.544,6.544,6.553,6.553,0,0,1,6.544-6.544" transform="translate(996.071 1150.396)" fill="#fff"/><path d="M81.844,43.959,79.755,42.2a1.651,1.651,0,0,0-2.2.059L76.4,43.335a11.95,11.95,0,0,0-3.076-.994L73,40.75a1.667,1.667,0,0,0-1.763-1.326l-2.725.232a1.661,1.661,0,0,0-1.519,1.6l-.053,1.617A11.949,11.949,0,0,0,64,44.416L62.624,43.5a1.657,1.657,0,0,0-2.182.312l-1.763,2.1a1.651,1.651,0,0,0,.059,2.2L59.945,49.4a12.35,12.35,0,0,0-.889,2.944l-1.724.351a1.668,1.668,0,0,0-1.326,1.764l.232,2.725a1.66,1.66,0,0,0,1.6,1.518l1.863.059a12.153,12.153,0,0,0,1.32,2.52l-1.041,1.571a1.656,1.656,0,0,0,.311,2.181L62.378,66.8a1.651,1.651,0,0,0,2.2-.059l1.366-1.279a11.97,11.97,0,0,0,2.8.914l.377,1.87a1.668,1.668,0,0,0,1.763,1.326l2.725-.232a1.66,1.66,0,0,0,1.518-1.6l.059-1.83A12.267,12.267,0,0,0,78,64.491l1.505.994a1.657,1.657,0,0,0,2.182-.312l1.763-2.088a1.653,1.653,0,0,0-.059-2.2L82.175,59.6a11.9,11.9,0,0,0,.954-2.957l1.657-.338a1.667,1.667,0,0,0,1.327-1.763l-.232-2.725a1.662,1.662,0,0,0-1.6-1.519l-1.664-.053a12.042,12.042,0,0,0-1.386-2.731l.909-1.366a1.647,1.647,0,0,0-.3-2.188M71.574,59.711a5.356,5.356,0,1,1,4.886-5.788,5.356,5.356,0,0,1-4.886,5.788" transform="translate(990.473 1147.082)" fill="#fff"/><path d="M34.445,70.217a1.657,1.657,0,0,0-1.486,1.631l-.02,1.678a1.652,1.652,0,0,0,1.446,1.664l1.233.159a9.557,9.557,0,0,0,.875,2.142l-.8.982a1.653,1.653,0,0,0,.1,2.2l1.174,1.2a1.657,1.657,0,0,0,2.2.152l.988-.762a9.661,9.661,0,0,0,2.2.961l.133,1.273a1.657,1.657,0,0,0,1.631,1.485L45.8,85a1.653,1.653,0,0,0,1.664-1.446l.153-1.207a9.946,9.946,0,0,0,2.386-.928l.928.75a1.653,1.653,0,0,0,2.2-.1l1.2-1.174a1.656,1.656,0,0,0,.153-2.2l-.71-.922a9.6,9.6,0,0,0,1.008-2.32l1.1-.113a1.656,1.656,0,0,0,1.485-1.631l.02-1.677a1.651,1.651,0,0,0-1.445-1.664l-1.074-.139a10,10,0,0,0-.909-2.321l.67-.822a1.653,1.653,0,0,0-.1-2.2l-1.174-1.2a1.655,1.655,0,0,0-2.2-.152l-.8.616A9.732,9.732,0,0,0,47.943,63.1l-.106-1.041a1.656,1.656,0,0,0-1.631-1.486l-1.678-.02A1.653,1.653,0,0,0,42.865,62l-.133,1.034a10.023,10.023,0,0,0-2.5,1.021l-.829-.676a1.653,1.653,0,0,0-2.2.1L36,64.662a1.655,1.655,0,0,0-.152,2.2l.71.914a9.717,9.717,0,0,0-.948,2.321Zm10.826-1.9a4.363,4.363,0,1,1-4.416,4.31,4.367,4.367,0,0,1,4.416-4.31" transform="translate(993.936 1143.908)" fill="#fff"/></g></svg>