<svg xmlns="http://www.w3.org/2000/svg" xmlns:xlink="http://www.w3.org/1999/xlink" width="261.094" height="263.556" viewBox="0 0 261.094 263.556"><defs><clipPath id="a"><rect width="261.094" height="263.556" fill="none"/></clipPath><clipPath id="b"><path d="M21.969,62.041C7.078,85.014,0,111.979,0,138.505v.046c.008,37.389,14.065,73.9,40.085,97.1C63.2,256.264,89.3,260.633,98.824,262.1c58.517,9.013,125.994-24.4,151.326-84.047,16.508-38.872,14.607-87.087-7.524-121.695A121.032,121.032,0,0,0,218,28.421C185.725,1.8,148.995.287,139.411.041Q137.813,0,136.217,0C92.691,0,47.466,22.706,21.969,62.041" fill="#baeae8"/></clipPath><clipPath id="d"><path d="M56.312,36.649,55.074,42.5a24.2,24.2,0,0,0-5.922,2.55l-5.1-3.117-6.894,7.092,3.259,5.009a24.246,24.246,0,0,0-2.381,5.991l-5.811,1.4.139,9.888,5.848,1.239a24.234,24.234,0,0,0,2.55,5.923l-3.116,5.1,7.091,6.894,5.01-3.258a24.23,24.23,0,0,0,5.991,2.381l1.4,5.811,9.889-.139,1.238-5.849a24.176,24.176,0,0,0,5.923-2.549l5.1,3.116,6.894-7.091L82.924,77.88a24.256,24.256,0,0,0,2.382-5.992l5.811-1.4-.14-9.889-5.848-1.238a24.231,24.231,0,0,0-2.549-5.923l3.115-5.1-7.091-6.9L73.6,44.7A24.229,24.229,0,0,0,67.6,42.32l-1.4-5.811Z" fill="none"/></clipPath><linearGradient id="e" x1="-0.547" y1="3.855" x2="-0.53" y2="3.855" gradientUnits="objectBoundingBox"><stop offset="0" stop-color="#4f52ff"/><stop offset="1" stop-color="#4042e2"/></linearGradient><clipPath id="g"><path d="M125.947,71.688l-1.59,7.507a31.1,31.1,0,0,0-7.6,3.272l-6.546-4-8.848,9.1L105.545,94a31.139,31.139,0,0,0-3.056,7.69l-7.459,1.8.179,12.693,7.506,1.589a31.085,31.085,0,0,0,3.273,7.6l-4,6.544,9.1,8.849,6.429-4.182a31.13,31.13,0,0,0,7.691,3.056l1.8,7.459,12.693-.179,1.59-7.507a31.088,31.088,0,0,0,7.6-3.271l6.545,4,8.849-9.1-4.183-6.43a31.081,31.081,0,0,0,3.057-7.689l7.458-1.8-.179-12.693-7.506-1.589a31.03,31.03,0,0,0-3.273-7.6l4-6.544-9.1-8.85-6.429,4.182a31.131,31.131,0,0,0-7.691-3.056l-1.8-7.458Z" fill="none"/></clipPath><linearGradient id="h" x1="-1.257" y1="2.541" x2="-1.244" y2="2.541" xlink:href="#e"/><clipPath id="j"><path d="M205.962,95.646l-.955,4.886a20.185,20.185,0,0,0-4.9,2.2l-4.287-2.528-5.648,5.995,2.779,4.129a20.184,20.184,0,0,0-1.9,5.019l-4.821,1.245.245,8.232,4.886.955a20.136,20.136,0,0,0,2.2,4.9l-2.529,4.286,5.995,5.649,4.129-2.779a20.176,20.176,0,0,0,5.02,1.9l1.244,4.82,8.232-.245.955-4.886a20.137,20.137,0,0,0,4.9-2.2l4.286,2.528,5.649-5.994-2.779-4.129a20.175,20.175,0,0,0,1.9-5.02l4.82-1.244-.245-8.233-4.885-.955a20.247,20.247,0,0,0-2.2-4.9L230.582,105l-5.994-5.649-4.128,2.779a20.2,20.2,0,0,0-5.021-1.9L214.2,95.4Z" fill="none"/></clipPath><linearGradient id="k" x1="-3.789" y1="3.421" x2="-3.768" y2="3.421" xlink:href="#e"/><clipPath id="m"><path d="M144.691,243.955l7.557,2.65-.081,7.268c-3.618,1.02-4.124,2.85-4.124,2.85l7.562-.173,6.58-13.38-5.206-3.406-9.73-4.257Z" fill="none"/></clipPath><linearGradient id="n" x1="-8.271" y1="1.322" x2="-8.214" y2="1.322" xlink:href="#e"/><clipPath id="p"><rect width="14.142" height="14.278" transform="translate(148.043 242.445)" fill="none"/></clipPath><clipPath id="q"><rect width="1.795" height="1.795" transform="translate(156.147 242.159)" fill="none"/></clipPath><clipPath id="r"><path d="M106.015,250.816s-10.031,3.43-10.19,5.262l19.206.49.473-15.435-9.592-.218Z" fill="none"/></clipPath><linearGradient id="s" x1="-4.869" y1="1.446" x2="-4.819" y2="1.446" xlink:href="#e"/><clipPath id="u"><rect width="1.496" height="1.492" transform="translate(111.019 250.099)" fill="none"/></clipPath><clipPath id="v"><rect width="19.211" height="1.558" transform="translate(95.82 255.011)" fill="none"/></clipPath><clipPath id="w"><rect width="9.51" height="1.92" transform="translate(105.934 242.876)" fill="none"/></clipPath><clipPath id="x"><path d="M93.766,141.007l9.292,22.016a8.556,8.556,0,0,0,4.63,4.585l20.047,8.232,4.668-12.914-19.523-6.913L100.2,137.931Z" fill="none"/></clipPath><linearGradient id="y" x1="-2.427" y1="3.314" x2="-2.401" y2="3.314" xlink:href="#e"/><clipPath id="z"><path d="M123.953,163.144c.02.516-2.166,16.536-2.166,19.809s6.267,6.825,6.267,6.825l6.862,14.571h24.442L151,188.659l-3.777-12.568a29.6,29.6,0,0,0-7.587-12.578l-4.08-2.731Z" fill="none"/></clipPath><linearGradient id="aa" x1="-3.242" y1="2.359" x2="-3.215" y2="2.359" xlink:href="#e"/><clipPath id="ab"><path d="M134.889,169.322a5.761,5.761,0,0,0-3.837,6.472l4.106,17.225-20.705-5.833-3.53,6.235,26.941,12.27a7.573,7.573,0,0,0,10.475-8.769l-6.033-23.568a5.752,5.752,0,0,0-7.417-4.032" fill="none"/></clipPath><linearGradient id="ac" x1="-2.922" y1="2.476" x2="-2.895" y2="2.476" xlink:href="#e"/><clipPath id="ae"><rect width="7.404" height="23.582" transform="translate(143.907 180.797)" fill="none"/></clipPath><clipPath id="af"><path d="M223.963,206.429A23.628,23.628,0,0,0,212.3,225.075c3.474,1.213,8.007.128,10.979-2.042s5.111-5.28,7.006-8.434a12.534,12.534,0,0,0,1.855-4.3,4.643,4.643,0,0,0-1.323-4.3,3.9,3.9,0,0,0-2.584-.875,9.077,9.077,0,0,0-4.266,1.307" fill="none"/></clipPath><linearGradient id="ag" x1="-10.564" y1="2.76" x2="-10.514" y2="2.76" xlink:href="#e"/><clipPath id="ah"><path d="M224.995,228.452a24.946,24.946,0,0,0-8.968,4.938c2.086,2.753,5.671,3.979,9.121,4.138a25.219,25.219,0,0,0,10.086-2.031c1.17-.449,2.45-1.065,2.851-2.252a2.863,2.863,0,0,0-.611-2.656A5.944,5.944,0,0,0,235.146,229a14.631,14.631,0,0,0-5.736-1.122,17.673,17.673,0,0,0-4.415.573" fill="none"/></clipPath><linearGradient id="ai" x1="-9.66" y1="3.637" x2="-9.616" y2="3.637" xlink:href="#e"/><clipPath id="aj"><path d="M213.983,190.562a8.644,8.644,0,0,0-2.182,3.932,26.3,26.3,0,0,0,.445,15.7c2.876.056,5.053-2.463,6.355-5.028a18.633,18.633,0,0,0,1.713-11.617c-.263-1.471-.819-3.055-2.134-3.762a2.979,2.979,0,0,0-1.422-.345,4.247,4.247,0,0,0-2.775,1.123" fill="none"/></clipPath><linearGradient id="ak" x1="-19.546" y1="3.562" x2="-19.453" y2="3.562" xlink:href="#e"/><clipPath id="al"><path d="M199.4,198.489c-1.681,5.865-1.323,12.1-.952,18.185A12.908,12.908,0,0,0,202.8,226.1a34.615,34.615,0,0,0,2.824-27.793c-.47-1.5-1.356-3.213-2.923-3.313-.047,0-.094,0-.141,0-1.653,0-2.7,1.875-3.162,3.5" fill="none"/></clipPath><linearGradient id="am" x1="-18.302" y1="2.204" x2="-18.209" y2="2.204" xlink:href="#e"/><clipPath id="an"><path d="M181.871,217.139c-.953.977-.66,2.61-.048,3.831a19.2,19.2,0,0,0,4.187,5.074,17.3,17.3,0,0,0,4.8,3.573c1.837.8,5.21,1.008,6.89-.087a20.055,20.055,0,0,0-11.9-12.618,6.236,6.236,0,0,0-2.125-.445,2.423,2.423,0,0,0-1.8.672" fill="none"/></clipPath><linearGradient id="ao" x1="-10.781" y1="3.325" x2="-10.722" y2="3.325" xlink:href="#e"/></defs><g clip-path="url(#a)"><g clip-path="url(#b)" style="isolation:isolate"><rect width="379.629" height="379.21" transform="matrix(0.659, -0.753, 0.753, 0.659, -134.357, 153.551)" fill="#baeae8"/></g><g clip-path="url(#a)"><path d="M64.549,103.082a9.581,9.581,0,0,1,2.348-1.02l.483-2.325,3.927-.068.565,2.305a9.645,9.645,0,0,1,2.383.937l1.984-1.3,2.826,2.729-1.23,2.028a9.587,9.587,0,0,1,1.02,2.349l2.324.483.069,3.927-2.306.565A9.606,9.606,0,0,1,78,116.074l1.3,1.984-2.728,2.826-2.029-1.23a9.657,9.657,0,0,1-2.348,1.02L71.717,123l-3.926.069-.566-2.306a9.653,9.653,0,0,1-2.382-.937l-1.985,1.3L60.033,118.4l1.23-2.029a9.6,9.6,0,0,1-1.02-2.348l-2.324-.484-.069-3.927,2.305-.565a9.641,9.641,0,0,1,.938-2.382l-1.3-1.985,2.728-2.825Zm2.093,5.231a4.213,4.213,0,1,0,5.957-.105,4.213,4.213,0,0,0-5.957.105" fill="#e0e0e0"/><path d="M66.642,108.313a3.161,3.161,0,0,1,.784-.688,4.193,4.193,0,0,1,2.749-.65,4.258,4.258,0,0,1,1.868.663,4.323,4.323,0,0,1,1.511,1.7,4.328,4.328,0,0,1,.407,2.48A4.3,4.3,0,0,1,70.4,115.5a4.311,4.311,0,0,1-2.492-.32,4.31,4.31,0,0,1-1.755-1.45,4.251,4.251,0,0,1-.728-1.843,4.193,4.193,0,0,1,.553-2.77,3.166,3.166,0,0,1,.66-.808c.023.019-.254.276-.579.855a4.2,4.2,0,0,0-.466,2.7,4.122,4.122,0,0,0,2.4,3.116,4.126,4.126,0,0,0,2.363.29,4.084,4.084,0,0,0,3.361-3.483,4.128,4.128,0,0,0-.372-2.35,4.121,4.121,0,0,0-3.2-2.294,4.2,4.2,0,0,0-2.679.56c-.567.345-.814.631-.834.609" fill="#e0e0e0"/><path d="M64.549,103.082a.988.988,0,0,1-.131-.069l-.389-.225-1.529-.9.048-.006c-.695.727-1.608,1.684-2.712,2.841l.007-.076c.4.6.838,1.266,1.309,1.979l.024.036-.021.037a9.582,9.582,0,0,0-.922,2.367l-.012.047-.046.011-2.3.572.065-.085c.025,1.236.051,2.549.078,3.926l-.076-.091,2.325.479.059.012.017.059a9.576,9.576,0,0,0,1.013,2.321l.033.054-.032.054-1.228,2.031-.017-.134,2.829,2.725-.14-.013,1.983-1.3.059-.038.06.034a9.593,9.593,0,0,0,2.355.924l.068.017.017.068c.178.723.371,1.51.567,2.306l-.117-.09,3.926-.071-.115.1c.153-.735.317-1.527.483-2.325l.015-.071.07-.02a9.511,9.511,0,0,0,2.317-1.007h0l.063-.037.062.037,2.029,1.231-.149.019q1.383-1.433,2.728-2.825l-.014.149-1.3-1.985-.039-.06.035-.063a9.5,9.5,0,0,0,.927-2.353l.017-.069.069-.016,2.306-.564-.088.114q-.033-2.01-.065-3.927l.089.107-2.324-.486-.064-.014-.018-.063a9.554,9.554,0,0,0-1-2.324l-.033-.054.033-.054,1.233-2.027.016.125-2.819-2.734.115.011-1.988,1.3-.044.029-.046-.026a9.591,9.591,0,0,0-2.359-.936l-.047-.012-.011-.046c-.2-.839-.385-1.594-.558-2.307l.071.054-3.927.052.052-.044c-.2.928-.363,1.688-.5,2.321l0,.024-.022.006a9.94,9.94,0,0,0-1.8.691l-.422.22a.975.975,0,0,1-.141.072,1.219,1.219,0,0,1,.131-.089c.09-.055.226-.138.414-.239a9.332,9.332,0,0,1,1.792-.73l-.027.03c.128-.635.282-1.4.469-2.328l.008-.042h.044l3.926-.086h.057l.014.056c.177.712.364,1.466.573,2.3l-.058-.058a9.691,9.691,0,0,1,2.4.939l-.089,0,1.981-1.306.062-.04.053.051,2.831,2.722.058.056-.042.069-1.227,2.03v-.108a9.776,9.776,0,0,1,1.035,2.373l-.082-.076,2.324.481.087.018,0,.089q.035,1.914.073,3.926v.092l-.089.022-2.305.567.085-.086a9.718,9.718,0,0,1-.947,2.412l0-.122,1.3,1.984.053.08-.067.068-2.727,2.827-.067.069-.082-.05-2.029-1.23h.123a9.776,9.776,0,0,1-2.376,1.032l.085-.091-.484,2.323-.019.094-.1,0-3.927.067-.1,0-.022-.092c-.195-.8-.387-1.584-.564-2.306l.086.086a9.771,9.771,0,0,1-2.41-.951l.118,0-1.986,1.3-.075.049-.064-.062-2.822-2.732-.062-.059.044-.074,1.233-2.027v.108a9.739,9.739,0,0,1-1.027-2.375l.076.07-2.323-.488-.075-.016v-.075c-.021-1.378-.041-2.69-.06-3.927v-.069l.067-.016,2.307-.559-.058.058a9.721,9.721,0,0,1,.952-2.4l0,.074-1.293-1.99-.027-.042.034-.034,2.744-2.81.022-.022.026.016,1.494.93.385.244a1.316,1.316,0,0,1,.13.089" fill="#e0e0e0"/><path d="M179.831,130.957a5.725,5.725,0,0,1,1.4-.611l.29-1.391,2.351-.042.338,1.38a5.776,5.776,0,0,1,1.426.562l1.188-.779,1.691,1.633-.736,1.214a5.77,5.77,0,0,1,.611,1.406l1.391.29.041,2.35-1.38.338a5.719,5.719,0,0,1-.561,1.426l.779,1.189-1.633,1.691-1.215-.737a5.709,5.709,0,0,1-1.4.611l-.29,1.391-2.35.042-.339-1.38a5.791,5.791,0,0,1-1.426-.562l-1.188.779-1.691-1.633.736-1.214a5.808,5.808,0,0,1-.611-1.406l-1.391-.289-.041-2.351,1.38-.338a5.719,5.719,0,0,1,.561-1.426l-.779-1.188,1.633-1.692Zm1.253,3.131a2.522,2.522,0,1,0,3.566-.063,2.522,2.522,0,0,0-3.566.063" fill="#f5f5f5"/><path d="M181.084,134.088a1.9,1.9,0,0,1,.47-.412,2.5,2.5,0,0,1,1.645-.389,2.541,2.541,0,0,1,1.118.4,2.578,2.578,0,0,1,.9,1.019,2.577,2.577,0,0,1,.244,1.484,2.572,2.572,0,0,1-2.129,2.205,2.571,2.571,0,0,1-1.492-.191,2.585,2.585,0,0,1-1.05-.868,2.537,2.537,0,0,1-.436-1.1,2.506,2.506,0,0,1,.331-1.658,1.9,1.9,0,0,1,.4-.484c.014.012-.152.165-.347.512a2.521,2.521,0,0,0-.278,1.614,2.466,2.466,0,0,0,1.439,1.866,2.467,2.467,0,0,0,1.414.173,2.444,2.444,0,0,0,2.013-2.085,2.343,2.343,0,0,0-.01-.734,2.316,2.316,0,0,0-.213-.672,2.465,2.465,0,0,0-1.915-1.374,2.518,2.518,0,0,0-1.6.336c-.339.206-.487.377-.5.364" fill="#f5f5f5"/><path d="M179.831,130.957a.586.586,0,0,1-.078-.041l-.233-.135-.916-.541.029,0-1.623,1.7,0-.045.784,1.185.014.021-.013.023a5.737,5.737,0,0,0-.552,1.416l-.007.028-.028.007-1.379.342.039-.051c.015.741.031,1.526.047,2.351l-.045-.055,1.391.287.036.007.01.035a5.713,5.713,0,0,0,.607,1.39l.019.032-.019.033-.735,1.215-.01-.08c.531.513,1.1,1.065,1.693,1.631l-.084-.008,1.187-.78L180,140.9l.037.02a5.732,5.732,0,0,0,1.409.553l.041.01.01.041.339,1.38-.07-.054,2.351-.042-.069.057c.091-.439.19-.913.289-1.391l.009-.043.042-.012a5.72,5.72,0,0,0,1.387-.6h0l.038-.022.037.022,1.214.736-.089.012,1.633-1.691-.008.089-.778-1.188-.024-.036.021-.038a5.686,5.686,0,0,0,.555-1.408l.01-.041.042-.01,1.38-.338-.053.069q-.02-1.2-.038-2.351l.052.064-1.39-.291-.039-.008-.01-.038a5.756,5.756,0,0,0-.6-1.391l-.02-.033.02-.032.738-1.213.01.074-1.688-1.636.069.007-1.19.775-.027.017-.027-.015a5.709,5.709,0,0,0-1.412-.56l-.028-.007-.007-.028c-.121-.5-.231-.954-.334-1.381l.042.032-2.35.031.031-.025c-.119.554-.217,1.01-.3,1.389l0,.014-.013,0a5.961,5.961,0,0,0-1.075.413l-.253.132a.5.5,0,0,1-.084.043.761.761,0,0,1,.078-.053c.054-.033.136-.083.248-.143a5.56,5.56,0,0,1,1.073-.437l-.016.017c.076-.38.168-.836.28-1.393l0-.025h.027l2.35-.052h.034l.008.034c.106.426.218.877.343,1.378l-.035-.034a5.755,5.755,0,0,1,1.44.562h-.053l1.186-.781.037-.024.032.03c.535.516,1.1,1.057,1.694,1.63l.035.033-.025.041c-.239.395-.483.8-.734,1.216v-.065a5.827,5.827,0,0,1,.619,1.421l-.049-.046,1.392.288.052.01v.054q.021,1.146.043,2.35v.055l-.053.013-1.38.34.051-.052a5.821,5.821,0,0,1-.567,1.444l0-.073.78,1.188.031.047-.04.042-1.632,1.691-.04.042-.05-.03-1.214-.736h.073a5.784,5.784,0,0,1-1.422.618l.051-.055c-.1.478-.2.952-.29,1.391l-.011.057h-.058l-2.35.04h-.057l-.013-.055c-.117-.476-.232-.948-.338-1.38l.052.051a5.885,5.885,0,0,1-1.443-.569l.071,0-1.189.778-.045.029-.039-.037c-.586-.568-1.158-1.122-1.689-1.635l-.037-.036.027-.044.738-1.213v.064a5.843,5.843,0,0,1-.615-1.421l.045.042-1.39-.292-.045-.01v-.045c-.012-.825-.024-1.611-.036-2.351v-.041l.04-.01,1.381-.334-.035.035a5.849,5.849,0,0,1,.57-1.436l0,.044-.774-1.191-.016-.025.02-.021,1.643-1.681.013-.014.015.01.895.557.23.146a.637.637,0,0,1,.078.053" fill="#f5f5f5"/><path d="M198.287,44.657a7.426,7.426,0,0,1,1.809-.787l.373-1.791,3.026-.053.436,1.777a7.422,7.422,0,0,1,1.836.722l1.529-1,2.178,2.1-.948,1.563a7.407,7.407,0,0,1,.786,1.81l1.791.373.053,3.026-1.776.436a7.425,7.425,0,0,1-.723,1.836l1,1.529-2.1,2.178-1.564-.948a7.391,7.391,0,0,1-1.81.786l-.373,1.791-3.026.053-.435-1.777a7.368,7.368,0,0,1-1.836-.722l-1.53,1-2.177-2.1.948-1.563a7.432,7.432,0,0,1-.787-1.81l-1.791-.373-.053-3.026,1.777-.436a7.422,7.422,0,0,1,.722-1.836l-1-1.529,2.1-2.177Zm1.613,4.031a3.247,3.247,0,1,0,4.591-.081,3.246,3.246,0,0,0-4.591.081" fill="#f5f5f5"/><path d="M199.9,48.688a2.471,2.471,0,0,1,.605-.531,3.231,3.231,0,0,1,2.118-.5,3.27,3.27,0,0,1,1.439.511,3.318,3.318,0,0,1,1.165,1.312,3.16,3.16,0,0,1,.295.911,3.128,3.128,0,0,1,.018,1,3.312,3.312,0,0,1-2.74,2.839,3.142,3.142,0,0,1-1,.017,3.182,3.182,0,0,1-.922-.263,3.34,3.34,0,0,1-1.352-1.118,3.265,3.265,0,0,1-.561-1.421,3.231,3.231,0,0,1,.426-2.134,2.456,2.456,0,0,1,.509-.623c.018.015-.2.213-.446.659a3.236,3.236,0,0,0-.359,2.078,3.169,3.169,0,0,0,1.853,2.4,3.164,3.164,0,0,0,1.821.223,3.148,3.148,0,0,0,2.591-2.684,3.174,3.174,0,0,0-.287-1.811,3.178,3.178,0,0,0-2.466-1.768,3.237,3.237,0,0,0-2.064.432c-.437.266-.628.486-.643.469" fill="#f5f5f5"/><path d="M198.286,44.656a.617.617,0,0,1-.1-.053l-.3-.174-1.178-.7.036,0-2.089,2.189.006-.058,1.008,1.525.018.027-.016.03a7.38,7.38,0,0,0-.71,1.823l-.009.036-.036.009-1.776.441.051-.066c.019.953.039,1.964.06,3.026l-.059-.07,1.792.369.046.01.012.044a7.392,7.392,0,0,0,.782,1.79l.025.041-.025.042c-.294.485-.617,1.02-.946,1.565l-.013-.1,2.179,2.1-.107-.01,1.528-1,.045-.03.047.026a7.328,7.328,0,0,0,1.814.712l.053.013.013.053c.137.557.286,1.164.437,1.777l-.09-.069,3.026-.055-.089.074c.118-.566.245-1.176.372-1.791l.012-.055.054-.016a7.333,7.333,0,0,0,1.785-.775h0l.049-.029.047.029,1.564.948-.115.015q1.065-1.1,2.1-2.177l-.011.114-1-1.53-.03-.046.027-.048a7.334,7.334,0,0,0,.714-1.813l.014-.053.052-.013,1.778-.435-.068.088q-.025-1.549-.05-3.026l.068.082-1.79-.375-.05-.01-.014-.049a7.338,7.338,0,0,0-.775-1.79l-.025-.042.025-.042.951-1.562.012.1-2.173-2.107.089.009-1.532,1-.034.022-.035-.019a7.41,7.41,0,0,0-1.818-.722l-.037-.009-.008-.035c-.156-.647-.3-1.229-.43-1.778l.055.041-3.027.04.04-.033c-.153.714-.279,1.3-.384,1.789l0,.018-.017,0a7.645,7.645,0,0,0-1.384.533l-.325.17a.714.714,0,0,1-.109.055,1.145,1.145,0,0,1,.1-.069c.069-.042.174-.106.319-.184a7.14,7.14,0,0,1,1.381-.562l-.021.022c.1-.489.217-1.077.361-1.793l.007-.033h.034l3.026-.067h.043l.011.043c.137.549.281,1.13.442,1.776l-.045-.045a7.477,7.477,0,0,1,1.854.723l-.069,0,1.527-1.007.047-.031.041.04,2.182,2.1.044.042-.032.054-.945,1.565v-.084a7.506,7.506,0,0,1,.8,1.829l-.063-.059,1.791.371.067.013v.069q.027,1.476.056,3.026l0,.071-.069.017-1.777.437.066-.066a7.5,7.5,0,0,1-.73,1.859l0-.1q.5.758,1,1.529l.04.062-.051.053-2.1,2.178-.052.053-.063-.038-1.564-.948h.095a7.555,7.555,0,0,1-1.831.8l.065-.07c-.128.614-.255,1.225-.373,1.79l-.015.073h-.074l-3.026.052h-.073l-.017-.071c-.15-.613-.3-1.22-.435-1.777l.066.066a7.5,7.5,0,0,1-1.857-.732l.091,0-1.53,1-.058.038-.05-.048-2.175-2.1-.047-.046.034-.056.95-1.562v.083a7.533,7.533,0,0,1-.792-1.831l.059.055-1.791-.377-.057-.012v-.058c-.016-1.062-.032-2.073-.046-3.026v-.053l.052-.013,1.778-.431-.045.045a7.443,7.443,0,0,1,.734-1.848l0,.057-1-1.534-.02-.032.026-.026,2.115-2.166.017-.017.02.013,1.151.716.3.188a.837.837,0,0,1,.1.069" fill="#f5f5f5"/><path d="M148.885,58.07a5.763,5.763,0,0,1,1.4-.611l.29-1.391,2.351-.042.338,1.38a5.776,5.776,0,0,1,1.426.562l1.188-.779,1.691,1.633-.736,1.214a5.77,5.77,0,0,1,.611,1.406l1.391.29.041,2.35-1.38.338a5.741,5.741,0,0,1-.561,1.427l.779,1.188-1.633,1.691-1.215-.737a5.709,5.709,0,0,1-1.4.611l-.29,1.391-2.35.042-.339-1.38a5.791,5.791,0,0,1-1.426-.562l-1.188.779-1.691-1.633.736-1.214a5.808,5.808,0,0,1-.611-1.406l-1.391-.289-.041-2.351,1.38-.338a5.719,5.719,0,0,1,.561-1.426l-.779-1.188,1.633-1.692Zm1.253,3.131a2.522,2.522,0,1,0,3.566-.063,2.522,2.522,0,0,0-3.566.063" fill="#f5f5f5"/><path d="M150.138,61.2a1.9,1.9,0,0,1,.47-.412,2.5,2.5,0,0,1,1.645-.389,2.541,2.541,0,0,1,1.118.4,2.578,2.578,0,0,1,.9,1.019,2.577,2.577,0,0,1,.244,1.484,2.575,2.575,0,0,1-2.129,2.206,2.468,2.468,0,0,1-.776.013,2.435,2.435,0,0,1-.716-.2,2.585,2.585,0,0,1-1.05-.868,2.537,2.537,0,0,1-.436-1.1,2.506,2.506,0,0,1,.331-1.658,1.9,1.9,0,0,1,.4-.484c.014.012-.152.166-.347.512a2.521,2.521,0,0,0-.278,1.614,2.466,2.466,0,0,0,1.439,1.866,2.467,2.467,0,0,0,1.414.173,2.444,2.444,0,0,0,2.013-2.085,2.343,2.343,0,0,0-.01-.734,2.316,2.316,0,0,0-.213-.672,2.465,2.465,0,0,0-1.915-1.374,2.518,2.518,0,0,0-1.6.336c-.339.206-.487.377-.5.364" fill="#f5f5f5"/><path d="M148.885,58.07a.587.587,0,0,1-.078-.041l-.233-.135-.916-.541.029,0-1.623,1.7,0-.045.784,1.185.014.021-.013.023a5.737,5.737,0,0,0-.552,1.416l-.007.028-.028.007-1.379.342.039-.05c.015.74.031,1.525.047,2.35l-.045-.055,1.391.287.036.007.01.035a5.713,5.713,0,0,0,.607,1.39l.019.032-.019.033-.735,1.215-.01-.08c.531.513,1.1,1.065,1.693,1.631l-.084-.008,1.187-.78.035-.022.037.02a5.732,5.732,0,0,0,1.409.553l.041.01.01.041c.106.433.222.9.339,1.38l-.07-.054,2.351-.042-.069.057c.091-.439.19-.913.289-1.391l.009-.043.042-.012a5.72,5.72,0,0,0,1.387-.6h0l.038-.022.037.022,1.214.737-.089.011,1.633-1.691-.008.089-.778-1.188-.024-.036.021-.038a5.685,5.685,0,0,0,.555-1.408l.01-.041.042-.01,1.38-.338-.053.069q-.02-1.2-.038-2.351l.052.064-1.39-.291L157.4,61.5l-.01-.038a5.755,5.755,0,0,0-.6-1.391l-.02-.033.02-.032.738-1.213.01.074-1.688-1.636.069.007-1.19.775-.027.017-.027-.015a5.709,5.709,0,0,0-1.412-.56l-.028-.007-.007-.028c-.121-.5-.231-.954-.334-1.381l.042.033-2.35.03.031-.025c-.119.554-.217,1.01-.3,1.389l0,.014-.013,0a5.93,5.93,0,0,0-1.075.413l-.253.132a.5.5,0,0,1-.084.043.763.763,0,0,1,.078-.053c.054-.033.136-.083.248-.143a5.56,5.56,0,0,1,1.073-.437l-.016.017c.076-.38.168-.836.28-1.393l0-.025h.027l2.35-.052h.034l.008.034c.106.426.218.877.343,1.378l-.035-.034a5.755,5.755,0,0,1,1.44.562l-.053,0,1.186-.782.037-.024.032.03c.535.516,1.1,1.057,1.694,1.63l.035.033-.025.041c-.239.4-.483.8-.734,1.216V60a5.827,5.827,0,0,1,.619,1.421l-.049-.046,1.392.288.052.011v.053q.021,1.146.043,2.35v.055l-.053.013-1.38.34.051-.051A5.829,5.829,0,0,1,157,65.881l0-.073.78,1.188.031.047-.04.042-1.632,1.691-.04.042-.049-.03-1.215-.736h.073a5.784,5.784,0,0,1-1.422.618l.051-.055c-.1.478-.2.952-.29,1.391l-.011.057h-.058l-2.35.04h-.057l-.013-.055c-.117-.476-.232-.948-.338-1.38l.052.051a5.885,5.885,0,0,1-1.443-.569l.071,0-1.189.778-.045.029-.039-.037-1.689-1.635-.037-.036.027-.044.738-1.213v.064a5.843,5.843,0,0,1-.615-1.421l.045.042-1.39-.292-.045-.01v-.045c-.012-.825-.024-1.61-.036-2.351v-.041l.04-.01,1.381-.334-.035.035a5.849,5.849,0,0,1,.57-1.436l0,.044-.774-1.191-.016-.025.02-.021,1.643-1.681.013-.014.015.01.895.557.23.146a.638.638,0,0,1,.078.053" fill="#f5f5f5"/><path d="M41.169,99.527a5.722,5.722,0,0,1,1.405-.61l.29-1.392,2.351-.041.338,1.379a5.818,5.818,0,0,1,1.426.563l1.188-.78,1.691,1.633-.736,1.214a5.777,5.777,0,0,1,.611,1.407l1.391.289.041,2.351-1.38.338a5.771,5.771,0,0,1-.561,1.427L50,108.493l-1.633,1.691-1.215-.737a5.744,5.744,0,0,1-1.4.61l-.29,1.392-2.35.041-.339-1.379a5.871,5.871,0,0,1-1.426-.562l-1.188.778-1.691-1.632.736-1.215a5.775,5.775,0,0,1-.611-1.406l-1.391-.288-.041-2.352,1.38-.338a5.727,5.727,0,0,1,.561-1.425l-.779-1.189,1.633-1.692Zm1.253,3.131a2.522,2.522,0,1,0,3.566-.062,2.524,2.524,0,0,0-3.566.062" fill="#f5f5f5"/><path d="M42.422,102.658a1.915,1.915,0,0,1,.47-.411,2.5,2.5,0,0,1,1.645-.39,2.543,2.543,0,0,1,1.118.4,2.575,2.575,0,0,1,.9,1.018,2.583,2.583,0,0,1,.244,1.485,2.57,2.57,0,0,1-2.129,2.2,2.44,2.44,0,0,1-.776.015,2.467,2.467,0,0,1-.716-.206,2.583,2.583,0,0,1-1.05-.867,2.542,2.542,0,0,1-.436-1.1,2.5,2.5,0,0,1,.331-1.658,1.892,1.892,0,0,1,.4-.485c.014.013-.152.166-.347.513a2.519,2.519,0,0,0-.278,1.614,2.462,2.462,0,0,0,1.439,1.865,2.333,2.333,0,0,0,.68.19,2.384,2.384,0,0,0,.734-.016,2.446,2.446,0,0,0,2.013-2.086,2.337,2.337,0,0,0-.01-.733,2.306,2.306,0,0,0-.213-.672,2.47,2.47,0,0,0-1.915-1.375,2.524,2.524,0,0,0-1.6.336c-.339.207-.487.377-.5.364" fill="#f5f5f5"/><path d="M41.169,99.527a.588.588,0,0,1-.078-.041l-.233-.135-.916-.541.029,0-1.623,1.7,0-.045.784,1.185.014.021-.013.023a5.737,5.737,0,0,0-.552,1.416l-.006.028-.029.007-1.379.342.039-.05c.015.74.031,1.525.047,2.35l-.045-.055,1.391.287.036.007.01.035a5.713,5.713,0,0,0,.607,1.39l.019.032-.019.033-.735,1.215-.01-.08c.531.513,1.1,1.065,1.693,1.631l-.084-.008,1.188-.78.034-.022.037.02a5.731,5.731,0,0,0,1.409.553l.041.01.01.041c.106.433.222.9.339,1.38l-.07-.054,2.351-.042-.069.057c.091-.439.19-.913.289-1.391l.009-.043.042-.012a5.72,5.72,0,0,0,1.387-.6h0l.038-.022.037.022,1.214.737-.089.011,1.633-1.691-.008.089-.778-1.188-.024-.036.021-.038a5.686,5.686,0,0,0,.555-1.408l.01-.041.042-.01,1.38-.337-.053.068q-.02-1.2-.038-2.351l.052.064-1.39-.291-.039-.008-.01-.038a5.755,5.755,0,0,0-.6-1.391l-.02-.033.02-.032.738-1.213.01.074-1.688-1.636.069.007-1.19.775-.027.017-.027-.015a5.709,5.709,0,0,0-1.412-.56l-.028-.007-.007-.028c-.121-.5-.231-.954-.334-1.381l.042.033-2.35.03.031-.025c-.119.554-.217,1.01-.3,1.389l0,.014-.013,0a5.961,5.961,0,0,0-1.075.413l-.253.132a.5.5,0,0,1-.084.043.762.762,0,0,1,.078-.053c.054-.033.136-.083.248-.143a5.56,5.56,0,0,1,1.073-.437l-.016.017c.076-.38.168-.836.28-1.393l.005-.025h.027l2.35-.052h.034l.008.034c.106.426.218.877.343,1.378l-.035-.034A5.755,5.755,0,0,1,47,99.38l-.053,0,1.186-.782.037-.024.032.03c.535.516,1.1,1.057,1.694,1.63l.035.033-.025.041c-.239.4-.483.8-.734,1.216v-.065a5.827,5.827,0,0,1,.619,1.421l-.049-.046,1.392.288.052.011v.053q.021,1.146.043,2.35v.055l-.053.013-1.38.34.051-.051a5.83,5.83,0,0,1-.567,1.443l0-.073.78,1.188.031.047-.04.042-1.632,1.691-.04.042-.049-.03-1.215-.736h.073a5.784,5.784,0,0,1-1.422.618l.051-.055c-.1.478-.2.952-.289,1.391l-.012.057h-.058l-2.35.04h-.057l-.013-.055c-.117-.476-.232-.948-.338-1.38l.052.051a5.885,5.885,0,0,1-1.443-.569l.071,0-1.189.778-.045.029-.039-.037c-.586-.568-1.158-1.122-1.689-1.635l-.037-.036.027-.044.738-1.213v.064a5.843,5.843,0,0,1-.615-1.421l.045.042-1.39-.292-.045-.01v-.045c-.012-.825-.024-1.611-.036-2.351v-.041l.04-.01,1.381-.334-.035.035a5.849,5.849,0,0,1,.57-1.436l0,.044-.774-1.191-.016-.025.02-.021,1.643-1.681.013-.014.015.01.9.557.23.146a.638.638,0,0,1,.078.053" fill="#f5f5f5"/><path d="M65,129.6l1.073,4.378a18.26,18.26,0,0,1,4.5,1.768l3.768-2.47,5.388,5.2-2.336,3.852a18.3,18.3,0,0,1,1.926,4.434l4.413.918v.02l.131,7.468-4.378,1.073a18.292,18.292,0,0,1-1.769,4.5l2.47,3.768-5.2,5.389-3.853-2.337a18.316,18.316,0,0,1-4.433,1.927l-.919,4.413-7.487.132-1.073-4.379a18.25,18.25,0,0,1-4.5-1.769l-3.769,2.471-5.388-5.2L45.9,161.3a18.253,18.253,0,0,1-1.927-4.434l-4.413-.918v-.02l-.131-7.468L43.8,147.39a18.292,18.292,0,0,1,1.769-4.5l-2.47-3.768.014-.014,5.188-5.374,3.853,2.337a18.312,18.312,0,0,1,4.432-1.927l.919-4.413Zm5.573,6.2-.013-.007a18.208,18.208,0,0,0-4.513-1.775l-.015,0-1.071-4.368-7.408.129-.917,4.4-.015,0a18.261,18.261,0,0,0-4.447,1.933l-.013.008L48.314,133.8l-5.146,5.331,2.464,3.76-.007.013a18.241,18.241,0,0,0-1.776,4.513l0,.015L39.477,148.5l.13,7.408,4.4.916,0,.015a18.2,18.2,0,0,0,1.933,4.449l.008.013-2.331,3.844,5.33,5.146,3.761-2.465.013.007a18.2,18.2,0,0,0,4.513,1.776l.015,0,1.071,4.369,7.407-.13.917-4.4.015,0a18.265,18.265,0,0,0,4.448-1.933l.013-.008,3.845,2.331,5.145-5.331-2.464-3.76.007-.013a18.241,18.241,0,0,0,1.776-4.513l0-.015.015,0,4.354-1.067-.13-7.408-4.4-.916,0-.015a18.248,18.248,0,0,0-1.932-4.449l-.008-.013,2.33-3.844-5.33-5.146Zm-8.692,7.751h0a8.017,8.017,0,1,1-5.768,2.448A7.977,7.977,0,0,1,61.879,143.558Zm0,15.982a7.966,7.966,0,0,0,0-15.932h0a7.966,7.966,0,0,0,0,15.932Z" fill="#e0e0e0"/><path d="M56.129,146.024a6.045,6.045,0,0,1,1.488-1.306,7.957,7.957,0,0,1,5.213-1.232,8.046,8.046,0,0,1,3.543,1.258,8.181,8.181,0,0,1,2.866,3.229,8.192,8.192,0,0,1,.772,4.7,8.154,8.154,0,0,1-6.746,6.987,8.187,8.187,0,0,1-4.728-.606,8.181,8.181,0,0,1-3.327-2.75,8.062,8.062,0,0,1-1.383-3.5,7.956,7.956,0,0,1,1.049-5.253,6.034,6.034,0,0,1,1.253-1.533c.043.037-.482.524-1.1,1.621a7.963,7.963,0,0,0-.883,5.116,7.8,7.8,0,0,0,4.561,5.911,7.82,7.82,0,0,0,4.481.549,7.742,7.742,0,0,0,6.376-6.6,7.821,7.821,0,0,0-.706-4.458,7.81,7.81,0,0,0-6.067-4.351,7.966,7.966,0,0,0-5.082,1.063c-1.075.654-1.544,1.2-1.582,1.154" fill="#ebebeb"/><path d="M52.159,136.1a1.884,1.884,0,0,1-.249-.131l-.737-.427-2.9-1.713.091-.012-5.143,5.389.014-.144,2.482,3.754.045.068-.04.072a18.218,18.218,0,0,0-1.748,4.489l-.021.088-.09.022-4.369,1.085.123-.162c.047,2.345.1,4.834.149,7.447l-.145-.173,4.41.909.112.023.033.111a18.152,18.152,0,0,0,1.921,4.4l.062.1-.062.1c-.72,1.194-1.517,2.511-2.328,3.852L43.736,165l5.364,5.167-.265-.024,3.762-2.471.111-.073.114.064a18.109,18.109,0,0,0,4.466,1.753l.13.032.033.131c.336,1.369.7,2.863,1.074,4.372l-.222-.171,7.448-.134-.219.182c.29-1.393.6-2.9.918-4.409l.028-.136.132-.037A18.088,18.088,0,0,0,71,167.341l0,0,.12-.071.117.072,3.849,2.333-.282.037,5.174-5.358-.027.282q-1.244-1.9-2.465-3.766l-.075-.114.066-.118a18.016,18.016,0,0,0,1.759-4.463l.033-.13.131-.032,4.373-1.069-.165.216q-.066-3.814-.124-7.448l.168.2-4.408-.923-.121-.026-.034-.119a18.127,18.127,0,0,0-1.908-4.408l-.062-.1.062-.1c.8-1.319,1.581-2.6,2.34-3.844l.03.235-5.348-5.185.218.021-3.769,2.458-.084.054-.088-.048a18.149,18.149,0,0,0-4.475-1.775l-.089-.023-.021-.088c-.383-1.59-.729-3.023-1.057-4.376l.134.1-7.449.1.1-.082c-.379,1.759-.689,3.2-.947,4.4l-.009.045-.043.011a18.893,18.893,0,0,0-3.406,1.311l-.8.418a1.8,1.8,0,0,1-.266.136,2.23,2.23,0,0,1,.247-.169c.171-.1.429-.262.785-.452a17.609,17.609,0,0,1,3.4-1.385l-.051.055c.241-1.2.533-2.651.889-4.414l.015-.08.083,0,7.447-.163.108,0,.026.1c.336,1.351.691,2.782,1.086,4.37l-.11-.111a18.389,18.389,0,0,1,4.563,1.781l-.169.006,3.758-2.477.117-.076.1.1,5.37,5.163.108.106-.079.13-2.326,3.852v-.205a18.482,18.482,0,0,1,1.964,4.5l-.156-.145,4.409.912.165.034,0,.169q.067,3.632.138,7.447l0,.174-.169.042-4.372,1.076.162-.163a18.424,18.424,0,0,1-1.8,4.575l-.008-.232q1.224,1.863,2.47,3.763l.1.152-.125.13-5.173,5.361-.127.131-.156-.1-3.849-2.333h.237l0,0a18.505,18.505,0,0,1-4.507,1.957l.161-.174c-.315,1.514-.628,3.016-.917,4.408l-.038.178-.182,0-7.447.127-.18,0-.042-.174c-.37-1.509-.735-3-1.069-4.374l.161.162a18.553,18.553,0,0,1-4.571-1.8l.225-.008L49.069,170.5l-.143.094-.121-.119c-1.86-1.8-3.673-3.553-5.354-5.18l-.117-.114.084-.139,2.339-3.844v.2a18.577,18.577,0,0,1-1.949-4.505l.144.133-4.406-.926-.142-.029v-.144c-.041-2.613-.078-5.1-.115-7.448l0-.131.127-.031,4.376-1.059-.109.11a18.346,18.346,0,0,1,1.806-4.548l0,.139-2.452-3.774-.051-.079.065-.066,5.205-5.329.042-.042.048.03,2.835,1.764.729.463a2.244,2.244,0,0,1,.248.169" fill="#ebebeb"/><path d="M180.58,60.949a12.272,12.272,0,0,1,3.229.5l2.1-2.179,4.285,2.6-.959,2.873a12.277,12.277,0,0,1,1.933,2.633l3.027-.053,1.192,4.867-2.708,1.352a12.266,12.266,0,0,1-.5,3.229l2.179,2.1-2.6,4.285-2.873-.959a12.311,12.311,0,0,1-2.633,1.933l.053,3.027-4.867,1.192-1.352-2.708a12.272,12.272,0,0,1-3.229-.5l-2.1,2.179-4.284-2.6.959-2.873a12.31,12.31,0,0,1-1.933-2.633l-3.027.053L165.284,74.4l2.708-1.352a12.273,12.273,0,0,1,.5-3.229l-2.179-2.1,2.6-4.284,2.873.959a12.311,12.311,0,0,1,2.633-1.933l-.053-3.027,4.867-1.193Zm-1.3,7.07a5.375,5.375,0,1,0,6.5,3.941,5.375,5.375,0,0,0-6.5-3.941" fill="#e0e0e0"/><path d="M179.279,68.019a4.067,4.067,0,0,1,1.315-.209A5.349,5.349,0,0,1,184,68.979a5.419,5.419,0,0,1,1.565,1.988,5.511,5.511,0,0,1,.472,2.865,5.522,5.522,0,0,1-1.249,2.953,5.485,5.485,0,0,1-6.345,1.555,5.506,5.506,0,0,1-2.473-2.042,5.514,5.514,0,0,1-.906-2.758,5.416,5.416,0,0,1,.469-2.486,5.346,5.346,0,0,1,2.481-2.612,4.044,4.044,0,0,1,1.263-.423c.011.036-.463.125-1.207.528a5.364,5.364,0,0,0-2.338,2.594,5.25,5.25,0,0,0,.475,5,5.251,5.251,0,0,0,2.352,1.92,5.207,5.207,0,0,0,6-1.47,5.252,5.252,0,0,0,1.2-2.79,5.25,5.25,0,0,0-1.89-4.652,5.359,5.359,0,0,0-3.273-1.219c-.846-.014-1.308.127-1.314.089" fill="#e0e0e0"/><path d="M180.58,60.949a1.114,1.114,0,0,1-.094-.164c-.066-.124-.153-.291-.267-.507l-1.036-2.016.056.026-4.86,1.221.06-.077c.02.917.042,1.936.065,3.026v.055l-.048.026a12.291,12.291,0,0,0-2.606,1.927l-.044.042-.058-.019-2.876-.951.129-.047-2.588,4.29-.02-.15,2.183,2.1.056.054-.022.074a12.177,12.177,0,0,0-.486,3.195l0,.08-.072.037-2.706,1.356.072-.156,1.2,4.866-.142-.11,3.027-.056h.089l.043.077a12.154,12.154,0,0,0,1.911,2.6l.063.065-.029.086-.957,2.873-.065-.177,4.286,2.6-.19.024,2.1-2.179.065-.067.089.026a12.171,12.171,0,0,0,3.185.491h0l.094,0,.041.083q.681,1.363,1.352,2.709l-.174-.081,4.867-1.192-.116.151q-.025-1.528-.052-3.027v-.091l.08-.044a12.14,12.14,0,0,0,2.6-1.908l.065-.063.086.029,2.872.961-.172.064,2.6-4.282.023.175q-1.108-1.071-2.176-2.106l-.06-.058.023-.08a12.171,12.171,0,0,0,.5-3.193v-.081l.072-.035,2.711-1.348-.067.145-1.183-4.869.117.09-3.027.045h-.067l-.032-.058a12.271,12.271,0,0,0-1.909-2.616l-.043-.045.019-.057c.353-1.043.67-1.982.969-2.87l.039.107-4.273-2.617.086-.011-2.118,2.165-.021.022-.029-.008a12.641,12.641,0,0,0-2.407-.477l-.606-.049a1.193,1.193,0,0,1-.2-.019,1.626,1.626,0,0,1,.2-.007c.134,0,.338,0,.609.024a11.921,11.921,0,0,1,2.431.432l-.049.014,2.09-2.193.037-.04.048.029,4.3,2.579.062.038-.023.069c-.294.889-.605,1.831-.949,2.876l-.024-.1a12.393,12.393,0,0,1,1.958,2.65l-.1-.058,3.027-.06.094,0,.022.092c.38,1.538.78,3.153,1.2,4.864l.024.1-.092.046-2.706,1.357.074-.117a12.429,12.429,0,0,1-.5,3.266l-.036-.139,2.181,2.1.081.079-.058.1q-1.266,2.091-2.594,4.287l-.061.1-.111-.037-2.873-.957L189,82.3a12.408,12.408,0,0,1-2.664,1.958l.079-.135q.027,1.5.054,3.027l0,.122-.118.029L181.483,88.5l-.12.029-.055-.11-1.352-2.708.135.085h0a12.455,12.455,0,0,1-3.265-.5l.153-.041-2.1,2.179-.085.088-.1-.064-4.284-2.6-.1-.062.039-.115c.331-.991.66-1.972.961-2.872l.034.151a12.467,12.467,0,0,1-1.954-2.666l.131.076-3.028.05-.114,0-.027-.111-1.187-4.868-.026-.107.1-.049,2.71-1.348-.073.116a12.392,12.392,0,0,1,.508-3.262l.034.127c-.761-.736-1.5-1.455-2.175-2.108l-.07-.067.05-.083,2.608-4.278.046-.075.083.028,2.87.967-.1.023a12.416,12.416,0,0,1,2.659-1.939l-.047.08c-.014-1.09-.028-2.109-.04-3.027v-.062l.06-.015,4.874-1.164.039-.01.016.035c.426.877.753,1.553.98,2.021l.249.525a1.572,1.572,0,0,1,.08.185" fill="#e0e0e0"/><path d="M194.634,156.393a4.093,4.093,0,0,1,1.327-.211,5.4,5.4,0,0,1,3.44,1.18,5.46,5.46,0,0,1,1.579,2.006,5.549,5.549,0,0,1,.476,2.892,5.565,5.565,0,0,1-1.26,2.98,5.535,5.535,0,0,1-6.4,1.569,5.556,5.556,0,0,1-2.5-2.06,5.548,5.548,0,0,1-.915-2.784,5.471,5.471,0,0,1,.473-2.509,5.4,5.4,0,0,1,2.505-2.637,4.11,4.11,0,0,1,1.274-.426c.012.037-.467.126-1.218.533a5.411,5.411,0,0,0-2.36,2.618,5.3,5.3,0,0,0,.479,5.046,5.3,5.3,0,0,0,2.374,1.938,5.257,5.257,0,0,0,6.054-1.484,5.309,5.309,0,0,0,1.208-2.815,5.3,5.3,0,0,0-1.908-4.7,5.4,5.4,0,0,0-3.3-1.23c-.855-.014-1.32.128-1.327.09" fill="#ebebeb"/><path d="M195.947,149.257a1.081,1.081,0,0,1-.1-.164c-.066-.126-.155-.294-.269-.512l-1.046-2.035.057.026-4.9,1.232.06-.077c.02.925.042,1.954.066,3.054v.055l-.049.027a12.39,12.39,0,0,0-2.63,1.945l-.044.042-.059-.019-2.9-.96.13-.048-2.613,4.33L181.63,156l2.2,2.119.056.053-.022.076a12.3,12.3,0,0,0-.491,3.224v.081l-.073.036-2.731,1.37.072-.157c.38,1.542.79,3.2,1.21,4.91l-.144-.11,3.056-.057h.089l.043.078a12.284,12.284,0,0,0,1.93,2.624l.063.065-.029.087c-.3.908-.633,1.9-.966,2.9l-.066-.177,4.325,2.62-.191.025,2.123-2.2.065-.067.09.026a12.26,12.26,0,0,0,3.215.495h0l.1,0,.041.083q.687,1.377,1.365,2.733l-.176-.08q2.49-.61,4.912-1.2l-.117.152q-.027-1.542-.052-3.055l0-.092.081-.044a12.217,12.217,0,0,0,2.626-1.927l.066-.062.087.029,2.9.97-.174.063q1.346-2.211,2.627-4.321l.023.177-2.2-2.125-.061-.059.024-.081a12.307,12.307,0,0,0,.5-3.222v-.082l.073-.037,2.736-1.359-.068.147c-.42-1.729-.816-3.361-1.194-4.915l.118.091-3.055.046h-.068l-.032-.059a12.26,12.26,0,0,0-1.927-2.64l-.043-.045.02-.058c.355-1.053.675-2,.978-2.9l.039.107-4.312-2.641.086-.011-2.137,2.185-.022.022-.029-.008a12.715,12.715,0,0,0-2.43-.482l-.611-.049a1,1,0,0,1-.2-.02s.072-.005.2-.006.341,0,.614.024a12.021,12.021,0,0,1,2.455.437l-.05.013,2.109-2.213.038-.04.048.029,4.336,2.6.062.038-.023.07-.958,2.9-.024-.1a12.482,12.482,0,0,1,1.976,2.675l-.1-.058,3.055-.061.1,0,.023.093c.383,1.552.786,3.182,1.213,4.909l.025.1-.093.047-2.731,1.369.075-.118a12.574,12.574,0,0,1-.5,3.3l-.037-.14q1.082,1.039,2.2,2.121l.082.079-.059.1q-1.278,2.11-2.618,4.327l-.061.1-.113-.038-2.9-.967.152-.033a12.549,12.549,0,0,1-2.688,1.976l.079-.136q.027,1.512.055,3.054l0,.123-.12.029-4.911,1.206-.121.029-.055-.111-1.365-2.732.136.085h0a12.518,12.518,0,0,1-3.3-.508l.155-.041c-.729.755-1.453,1.5-2.124,2.2l-.085.088-.106-.064-4.323-2.624-.1-.063.039-.116c.334-1,.666-1.99.97-2.9l.034.152a12.571,12.571,0,0,1-1.972-2.691l.132.076-3.055.051-.116,0-.028-.112c-.415-1.707-.821-3.37-1.2-4.913l-.026-.108.1-.049,2.735-1.361-.074.117a12.571,12.571,0,0,1,.512-3.292l.035.129-2.195-2.128-.071-.068.051-.084,2.632-4.318.046-.076.084.029,2.9.976-.1.023a12.5,12.5,0,0,1,2.684-1.957l-.048.082c-.014-1.1-.028-2.13-.041-3.056v-.063l.061-.015,4.919-1.175.039-.009.017.035.989,2.04c.107.225.19.4.251.53a1.68,1.68,0,0,1,.081.185" fill="#ebebeb"/><path d="M34.064,240.963V256.5H81.832V240.963Z" fill="#f5f5f5"/><path d="M32.06,236.621v4.343H83.5v-4.343H32.06Z" fill="#e0e0e0"/><path d="M57.781,256.5H81.832V240.963H83.5v-4.342H56.779v3.94Z" fill="#e0e0e0"/><rect width="9.687" height="2.338" transform="translate(40.745 243.468)" fill="#e0e0e0"/><rect width="12.439" height="4.937" transform="translate(39.498 248.73)" fill="#fff"/><path d="M41.414,221.108v15.533H89.182V221.108Z" fill="#f5f5f5"/><path d="M39.409,216.766v4.343H90.851v-4.343H39.409Z" fill="#e0e0e0"/><path d="M65.131,236.641H89.181V221.108h1.67v-4.342H64.128v3.94Z" fill="#e0e0e0"/><rect width="9.687" height="2.338" transform="translate(48.094 223.613)" fill="#e0e0e0"/><rect width="12.439" height="4.937" transform="translate(46.848 228.875)" fill="#fff"/><path d="M247.809,256.5c0,.072-52.011.131-116.154.131-64.166,0-116.166-.059-116.166-.131s52-.131,116.166-.131c64.143,0,116.154.059,116.154.131" fill="#263238"/></g><g clip-path="url(#d)"><rect width="58.892" height="58.892" transform="translate(32.225 36.509)" fill="url(#e)"/></g><g clip-path="url(#a)"><path d="M67.507,63.044a13.684,13.684,0,0,0-.317-2.078,8.2,8.2,0,0,0-.956-2.256,8.465,8.465,0,0,0-10.163-3.593,7.96,7.96,0,0,0-2.134,1.151,9.485,9.485,0,0,0-.956.814,9.632,9.632,0,0,0-.826.978,8.4,8.4,0,0,0,0,9.967,9.391,9.391,0,0,0,.826.979,9.5,9.5,0,0,0,.956.814,7.93,7.93,0,0,0,2.134,1.151,8.488,8.488,0,0,0,10.163-3.593,8.215,8.215,0,0,0,.956-2.256,13.7,13.7,0,0,0,.317-2.078.493.493,0,0,1,.006.139c0,.107,0,.241-.007.408a4.03,4.03,0,0,1-.055.662,5.963,5.963,0,0,1-.162.893,8.071,8.071,0,0,1-.929,2.307,8.638,8.638,0,0,1-5.814,4.107,8.679,8.679,0,0,1-4.557-.362,8.125,8.125,0,0,1-2.2-1.177,7.958,7.958,0,0,1-1.84-1.841,8.631,8.631,0,0,1,0-10.272,7.959,7.959,0,0,1,1.839-1.842,8.149,8.149,0,0,1,2.2-1.176,8.679,8.679,0,0,1,4.557-.362,8.63,8.63,0,0,1,5.814,4.107,8.125,8.125,0,0,1,.929,2.306,6,6,0,0,1,.162.894,4.022,4.022,0,0,1,.055.662c0,.167.005.3.007.408a.493.493,0,0,1-.006.139" fill="#fff"/><path d="M64.809,69.281c.051-.051,1.917,1.731,4.166,3.981s4.033,4.115,3.981,4.166S71.04,75.7,68.79,73.447s-4.032-4.115-3.981-4.166" fill="#fff"/></g><g clip-path="url(#g)"><rect width="75.592" height="75.592" transform="translate(95.03 71.509)" fill="url(#h)"/></g><g clip-path="url(#a)"><path d="M128.532,122.531a1.513,1.513,0,0,1,.152-.008l.434-.007,1.667-.019,6.227-.043-.077.079c-.026-1.073-.054-2.275-.084-3.563l0-.059.057-.026a19.237,19.237,0,0,0,5.329-3.645,13.479,13.479,0,0,0,2.234-2.863,9.824,9.824,0,0,0,1.23-3.641,12.111,12.111,0,0,0-1.906-7.976,14.488,14.488,0,0,0-6.947-5.54,11.956,11.956,0,0,0-6.669-.463,13.094,13.094,0,0,0-5.793,2.677,11.829,11.829,0,0,0-3.5,4.831c-.154.457-.353.9-.467,1.356s-.222.915-.331,1.365a14.463,14.463,0,0,0-.238,2.69,12.406,12.406,0,0,0,.319,2.533,11.655,11.655,0,0,0,.817,2.255,12.969,12.969,0,0,0,2.511,3.48,17.217,17.217,0,0,0,5.195,3.55l.031.014,0,.032q-.087,1.455-.132,2.221c-.017.244-.029.433-.039.572a1.877,1.877,0,0,1-.018.2,1.342,1.342,0,0,1,0-.182c0-.137.009-.322.016-.562q.027-.777.08-2.251l.029.046a17,17,0,0,1-5.274-3.524,13.027,13.027,0,0,1-2.568-3.51,11.733,11.733,0,0,1-.843-2.291,12.53,12.53,0,0,1-.337-2.577,14.667,14.667,0,0,1,.231-2.736c.109-.456.22-.919.331-1.386s.315-.915.471-1.381a12.051,12.051,0,0,1,3.557-4.936,13.319,13.319,0,0,1,5.9-2.738,12.2,12.2,0,0,1,6.81.471,14.721,14.721,0,0,1,7.071,5.647,11.952,11.952,0,0,1,1.7,4,7.329,7.329,0,0,1,.189,1.044,6.825,6.825,0,0,1,.1,1.043c.01.348.029.693.031,1.037q-.048.514-.093,1.022a10.023,10.023,0,0,1-1.27,3.724,13.687,13.687,0,0,1-2.282,2.9,19.341,19.341,0,0,1-5.409,3.657l.055-.085c.021,1.289.041,2.491.058,3.563l0,.08h-.079l-6.274-.043-1.649-.019-.42-.007a.816.816,0,0,1-.137-.008" fill="#fff"/><path d="M137.135,124.888a36.412,36.412,0,0,1-4.357.133,36.208,36.208,0,0,1-4.357-.129,36.411,36.411,0,0,1,4.357-.133,36.459,36.459,0,0,1,4.357.129" fill="#fff"/><path d="M134.314,128.183a5.269,5.269,0,0,1-3.072-.1,7.268,7.268,0,0,1,1.537.015,7.355,7.355,0,0,1,1.535.081" fill="#fff"/><path d="M130.309,122.531a.533.533,0,0,1-.009-.144v-.422c.006-.389.014-.932.025-1.62.033-1.427.081-3.457.139-5.958.034-1.259.07-2.636.109-4.113a2.777,2.777,0,0,0-.145-1.066.7.7,0,0,0-.767-.51,1.019,1.019,0,0,0-.676.763,1.564,1.564,0,0,0,.141,1.108,2.529,2.529,0,0,0,1.946,1.295,2.579,2.579,0,0,0,2.265-.908,3.865,3.865,0,0,0,.953-2.435,2.3,2.3,0,0,0-.266-1.289.948.948,0,0,0-1.067-.456.962.962,0,0,0-.51,1.046,2.615,2.615,0,0,0,.6,1.183,4.831,4.831,0,0,0,2.1,1.622,2.727,2.727,0,0,0,1.262.15,2.557,2.557,0,0,0,1.148-.479,2,2,0,0,0,.72-.956,1.449,1.449,0,0,0-.066-1.133.977.977,0,0,0-.86-.585,1.193,1.193,0,0,0-.9.539,5.139,5.139,0,0,0-.529,2.15c-.16,1.467-.265,2.841-.36,4.095-.169,2.5-.3,4.52-.4,5.944-.046.687-.082,1.227-.108,1.616-.014.172-.025.311-.034.42a.644.644,0,0,1-.02.143.549.549,0,0,1-.007-.144c0-.11.005-.249.008-.421.014-.39.034-.932.059-1.62.062-1.406.157-3.44.319-5.951.083-1.256.177-2.631.329-4.106.045-.37.081-.742.146-1.126a2.786,2.786,0,0,1,.41-1.133,1.422,1.422,0,0,1,1.086-.642,1.212,1.212,0,0,1,1.08.711,1.691,1.691,0,0,1,.085,1.32,2.242,2.242,0,0,1-.8,1.079,2.8,2.8,0,0,1-1.261.53,2.969,2.969,0,0,1-1.385-.159,5.074,5.074,0,0,1-2.218-1.7,2.847,2.847,0,0,1-.659-1.307,1.217,1.217,0,0,1,.678-1.329,1.2,1.2,0,0,1,1.38.563,2.55,2.55,0,0,1,.3,1.436,4.111,4.111,0,0,1-1.024,2.6,2.834,2.834,0,0,1-2.486.985,2.771,2.771,0,0,1-2.132-1.437,1.8,1.8,0,0,1-.151-1.28,1.238,1.238,0,0,1,.86-.925.842.842,0,0,1,.644.144,1.083,1.083,0,0,1,.375.511,2.991,2.991,0,0,1,.154,1.155c-.051,1.477-.1,2.854-.141,4.113-.094,2.5-.17,4.529-.223,5.955-.032.688-.057,1.229-.074,1.618-.011.173-.02.311-.026.421a.594.594,0,0,1-.018.143" fill="#fff"/><path d="M136.368,126.537a24.024,24.024,0,0,1-3.535.131,24.024,24.024,0,0,1-3.535-.131,24.022,24.022,0,0,1,3.535-.131,24.022,24.022,0,0,1,3.535.131" fill="#fff"/></g><g clip-path="url(#j)"><rect width="49.156" height="49.156" transform="translate(186.228 95.401)" fill="url(#k)"/></g><g clip-path="url(#a)"><path d="M221.843,128.84a2.249,2.249,0,0,1-.4.026l-1.146.025-4.212.042-13.9.038h-1.122v-.131c.016-5.191.031-9.845.041-13.235.017-1.662.031-3.012.041-3.976l.024-1.078a2.191,2.191,0,0,1,.025-.375,2,2,0,0,1,.026.375l.024,1.078c.01.964.024,2.314.041,3.976.01,3.39.025,8.044.04,13.235l-.13-.131h.99l13.9.038,4.212.042,1.146.025a2.251,2.251,0,0,1,.4.026" fill="#fff"/><path d="M219.549,114.7a5.156,5.156,0,0,1-.616.588c-.445.391-1.032.907-1.743,1.53-1.479,1.284-3.534,3.042-5.814,4.973l-.345.292-.089.075-.085-.079-2.585-2.4.161,0-3.8,3.132-1.1.882a2.47,2.47,0,0,1-.411.294,2.33,2.33,0,0,1,.36-.355l1.057-.935,3.737-3.205.081-.069.08.073,2.6,2.39-.173,0,.345-.293c2.28-1.93,4.354-3.666,5.863-4.913l1.8-1.467a5.3,5.3,0,0,1,.682-.51" fill="#fff"/><path d="M219.549,119.029a6.525,6.525,0,0,1-.091-1.288c-.023-.8-.038-1.9-.04-3.138l.131.131h-.223c-1.284,0-2.447-.015-3.288-.039a7.036,7.036,0,0,1-1.362-.092,6.976,6.976,0,0,1,1.362-.093c.841-.024,2-.038,3.288-.038h.354v.131c0,1.233-.017,2.34-.04,3.138a6.523,6.523,0,0,1-.091,1.288" fill="#fff"/><path d="M86.336,129.559a8.775,8.775,0,0,1-.919-2.877,8.795,8.795,0,0,1,.919,2.877" fill="#263238"/><path d="M91.68,140.336a20.3,20.3,0,0,1-3-5.224,26.946,26.946,0,0,1,1.534,2.594,27.033,27.033,0,0,1,1.47,2.63" fill="#263238"/><path d="M99.54,149.439a12.731,12.731,0,0,1-2.275-1.989,12.871,12.871,0,0,1-1.948-2.309,27.159,27.159,0,0,1,2.135,2.126,27.546,27.546,0,0,1,2.088,2.172" fill="#263238"/><path d="M109.5,156.18a19.45,19.45,0,0,1-5.208-3.032,28.2,28.2,0,0,1,2.618,1.492,28.79,28.79,0,0,1,2.59,1.54" fill="#263238"/><path d="M120.935,159.866a16.528,16.528,0,0,1-2.985-.471,17.386,17.386,0,0,1-2.871-.946,17.552,17.552,0,0,1,2.932.691,18.4,18.4,0,0,1,2.924.726" fill="#263238"/><path d="M132.954,160.133a13.074,13.074,0,0,1-3,.356,12.823,12.823,0,0,1-3.02-.093,27.35,27.35,0,0,1,3.008-.169,26.646,26.646,0,0,1,3.012-.094" fill="#263238"/><path d="M144.7,157.535a21.38,21.38,0,0,1-5.8,1.625,25.5,25.5,0,0,1,2.888-.86,25.4,25.4,0,0,1,2.915-.765" fill="#263238"/><path d="M155.6,152.431a20.969,20.969,0,0,1-5.307,2.857,25.435,25.435,0,0,1,2.632-1.468,26.122,26.122,0,0,1,2.675-1.389" fill="#263238"/><path d="M164.95,144.863a12.384,12.384,0,0,1-2.047,2.223,12.643,12.643,0,0,1-2.372,1.874,28.372,28.372,0,0,1,2.193-2.066,29.858,29.858,0,0,1,2.226-2.031" fill="#263238"/><path d="M171.6,134.866a12.594,12.594,0,0,1-1.239,2.756,11.792,11.792,0,0,1-1.67,2.518c-.062-.041.646-1.187,1.44-2.644a28.515,28.515,0,0,1,1.469-2.63" fill="#263238"/><path d="M175.729,123.546a17.386,17.386,0,0,1-.817,2.9,17.388,17.388,0,0,1-1.065,2.822,17.382,17.382,0,0,1,.816-2.9,17.546,17.546,0,0,1,1.066-2.822" fill="#263238"/><path d="M179.584,112.124a21.631,21.631,0,0,1-.927,2.869,17.4,17.4,0,0,1-1.113,2.8,17.484,17.484,0,0,1,.866-2.892c.264-.79.555-1.487.772-1.989a3,3,0,0,1,.4-.791" fill="#263238"/><path d="M184.928,101.334a26.929,26.929,0,0,1-1.426,2.655A24.415,24.415,0,0,1,182,106.6a13.54,13.54,0,0,1,1.276-2.739,12.877,12.877,0,0,1,1.655-2.527" fill="#263238"/><path d="M192.969,92.435c.045.061-1.013.9-2.227,2.024s-2.139,2.109-2.2,2.058a11.316,11.316,0,0,1,2.019-2.25,10.886,10.886,0,0,1,2.4-1.832" fill="#263238"/><path d="M203.828,87.35c.019.073-1.27.466-2.831,1.028s-2.8,1.08-2.836,1.012a11.684,11.684,0,0,1,2.748-1.259,12.107,12.107,0,0,1,2.919-.781" fill="#263238"/><path d="M215.765,86.018c-.005.075-1.352.042-3.01.1s-3,.167-3.01.092a11.984,11.984,0,0,1,3-.355,11.671,11.671,0,0,1,3.018.161" fill="#263238"/><path d="M227.384,88.988a28.277,28.277,0,0,1-2.848-.982,29.322,29.322,0,0,1-2.83-1.032,12.463,12.463,0,0,1,2.918.784,12.617,12.617,0,0,1,2.76,1.23" fill="#263238"/><path d="M237.639,95.258c-.049.057-1.109-.775-2.462-1.736a29.384,29.384,0,0,1-2.442-1.765,12.462,12.462,0,0,1,2.594,1.552,12.119,12.119,0,0,1,2.31,1.949" fill="#263238"/><path d="M243.688,101.942a12.839,12.839,0,0,1-1.793-2.428,6.654,6.654,0,0,1,1.793,2.428" fill="#263238"/><path d="M22.117,58.765s.027-.155.094-.456.17-.752.3-1.333A34.16,34.16,0,0,1,24.188,52a37.627,37.627,0,0,1,4.167-7.187,41.249,41.249,0,0,1,7.686-7.866,40.738,40.738,0,0,1,11.711-6.336,43.235,43.235,0,0,1,7.235-1.748,46.519,46.519,0,0,1,7.878-.457,40.789,40.789,0,0,1,8.227,1.043,37.336,37.336,0,0,1,8.154,2.879A36.787,36.787,0,0,1,86.7,37.289a35.267,35.267,0,0,1,6.191,6.835,34.076,34.076,0,0,1,4.149,8.238,38.793,38.793,0,0,1,1.889,8.76c.055.733.133,1.463.168,2.191q.025,1.094.05,2.176c.009.723-.038,1.442-.055,2.157-.065.713-.113,1.425-.205,2.127a31.8,31.8,0,0,1-2.163,8,62.084,62.084,0,0,1-3.578,7.034l-3.759,6.414A37.73,37.73,0,0,0,85,103.714a54.578,54.578,0,0,0-.713,5.764c-.139,1.829-.2,3.56-.206,5.179a57.275,57.275,0,0,0,.39,8.286,32.851,32.851,0,0,0,1.151,5.113c.184.571.342,1,.457,1.286.055.143.106.248.134.321s.042.109.042.109a11.778,11.778,0,0,1-.683-1.7,31.581,31.581,0,0,1-1.2-5.115,56.4,56.4,0,0,1-.436-8.3c0-1.621.053-3.356.187-5.191a54.332,54.332,0,0,1,.7-5.783A37.819,37.819,0,0,1,89.2,91.118l3.747-6.42A61.91,61.91,0,0,0,96.5,77.686a31.579,31.579,0,0,0,2.139-7.945c.09-.7.137-1.4.2-2.11.016-.71.063-1.423.053-2.141s-.034-1.44-.051-2.165c-.035-.724-.114-1.449-.169-2.178a38.629,38.629,0,0,0-1.879-8.7,33.864,33.864,0,0,0-4.119-8.174,35.112,35.112,0,0,0-6.144-6.786,36.63,36.63,0,0,0-7.4-4.933,37.088,37.088,0,0,0-8.1-2.865,40.664,40.664,0,0,0-8.179-1.045,46.366,46.366,0,0,0-7.836.443,43.091,43.091,0,0,0-7.2,1.726A40.624,40.624,0,0,0,36.155,37.09,41.245,41.245,0,0,0,28.473,44.9a37.825,37.825,0,0,0-4.191,7.141,35.722,35.722,0,0,0-1.718,4.952q-.214.867-.327,1.326c-.075.3-.12.45-.12.45" fill="#263238"/></g><g clip-path="url(#m)"><rect width="17.494" height="21.216" transform="translate(144.691 235.507)" fill="url(#n)"/></g><g clip-path="url(#a)"><g opacity="0.6"><g clip-path="url(#p)"><path d="M162.185,243.17l-6.58,13.38-7.562.173.826-1.156,6.142-.478,6.067-12.643Z" fill="#fff"/></g></g><path d="M152.141,250.545c.058.076.488-.182,1.073-.178.586-.013,1.02.237,1.077.16.07-.059-.367-.5-1.079-.493s-1.142.453-1.071.511" fill="#263238"/><path d="M152.223,248.741c.077.052.4-.4,1-.533s1.088.134,1.136.054c.025-.034-.065-.159-.28-.27a1.414,1.414,0,0,0-1.722.385c-.147.192-.175.343-.138.364" fill="#263238"/><path d="M152.122,246.428c.084.04.332-.4.855-.6s1-.033,1.035-.118c.02-.039-.078-.142-.29-.216a1.311,1.311,0,0,0-1.525.578c-.11.2-.115.337-.075.353" fill="#263238"/><path d="M151.566,246.424c.093-.023.035-.5.262-1.01s.6-.807.548-.889c-.026-.087-.587.125-.853.758s-.038,1.182.043,1.141" fill="#263238"/><path d="M150.671,245.572a3.278,3.278,0,0,0,.177-1.015c.034-.364.067-.732.1-1.108a2.391,2.391,0,0,0,0-.7.613.613,0,0,0-.269-.376.473.473,0,0,0-.515.021,1.4,1.4,0,0,0-.429.67,2.524,2.524,0,0,0,.063,1.828c.269.617.65.838.663.81a8.2,8.2,0,0,1-.442-.893,2.581,2.581,0,0,1-.115-1.038,2.4,2.4,0,0,1,.137-.6,1.2,1.2,0,0,1,.31-.507.137.137,0,0,1,.159-.012.29.29,0,0,1,.123.176,2.58,2.58,0,0,1,.011.6c-.012.378-.022.746-.032,1.112a3.165,3.165,0,0,0,.058,1.029" fill="#263238"/><path d="M150.548,245.9c.03-.02-.193-.35-.775-.54a1.89,1.89,0,0,0-2.146.766.348.348,0,0,0,.033.293.425.425,0,0,0,.2.162,1.153,1.153,0,0,0,.354.071,3.33,3.33,0,0,0,.616,0,3.25,3.25,0,0,0,1-.255c.541-.238.792-.513.767-.541-.03-.044-.324.155-.849.321a3.718,3.718,0,0,1-.941.169,3.44,3.44,0,0,1-.561-.017,1,1,0,0,1-.255-.05c-.065-.039-.047-.028-.046-.051a.58.58,0,0,1,.15-.18,1.68,1.68,0,0,1,.221-.177,1.875,1.875,0,0,1,.486-.235,1.856,1.856,0,0,1,.914-.048,7.146,7.146,0,0,1,.833.313" fill="#263238"/><g opacity="0.6"><g clip-path="url(#q)"><path d="M156.148,243.075a.9.9,0,1,0,.877-.917.9.9,0,0,0-.877.917" fill="#fff"/></g></g></g><g clip-path="url(#r)"><rect width="19.679" height="15.653" transform="translate(95.825 240.915)" fill="url(#s)"/></g><g clip-path="url(#a)"><g opacity="0.6"><g clip-path="url(#u)"><path d="M111.974,250.136a.784.784,0,0,1,.519.909.754.754,0,0,1-.9.523.828.828,0,0,1-.545-.966.782.782,0,0,1,.993-.44" fill="#fff"/></g></g><g opacity="0.6"><g clip-path="url(#v)"><path d="M115.031,256.568l-.013-1.558-18.41.113s-.864.351-.783.954Z" fill="#fff"/></g></g><path d="M105.705,250.711c0,.094.469.148.922.462s.69.713.777.679c.087-.016-.039-.581-.6-.95s-1.122-.278-1.1-.191" fill="#263238"/><path d="M103.67,251.492c-.024.09.378.26.687.666s.389.826.483.825c.088.016.167-.532-.226-1.028s-.94-.552-.944-.463" fill="#263238"/><path d="M102.464,253.874c.085.022.227-.443,0-.963s-.661-.735-.7-.658.222.359.4.788.207.821.3.833" fill="#263238"/><path d="M105.933,248.452c.036.086.47-.032,1,.018s.937.227.989.148-.339-.424-.963-.474-1.071.233-1.026.308" fill="#263238"/><g opacity="0.3"><g clip-path="url(#w)"><path d="M105.934,242.876l.016,1.765,9.441.155.053-1.589Z"/></g></g><path d="M105.949,246.454a1.8,1.8,0,0,0,.962.02,4.316,4.316,0,0,0,1.014-.284,4.489,4.489,0,0,0,.56-.279,1.156,1.156,0,0,0,.3-.219.407.407,0,0,0,.056-.5.511.511,0,0,0-.4-.225,1.234,1.234,0,0,0-.362.04,3.559,3.559,0,0,0-.6.19,3.389,3.389,0,0,0-.9.56c-.457.4-.618.747-.586.766s.266-.256.728-.585a3.892,3.892,0,0,1,.87-.461,3.574,3.574,0,0,1,.557-.156c.2-.049.378-.046.428.046.018.035.02.049-.024.107a.954.954,0,0,1-.218.16,4.929,4.929,0,0,1-.516.278,5.315,5.315,0,0,1-.938.332,6.714,6.714,0,0,0-.917.207" fill="#263238"/><path d="M106.067,246.591a1.536,1.536,0,0,0,.277-.923,3.109,3.109,0,0,0-.334-1.646.8.8,0,0,0-.6-.5.451.451,0,0,0-.409.258,1.287,1.287,0,0,0-.107.351,2.113,2.113,0,0,0-.018.647,2.2,2.2,0,0,0,.386,1c.362.508.751.63.76.6.032-.046-.29-.235-.565-.721a2.2,2.2,0,0,1-.281-.912,1.976,1.976,0,0,1,.031-.555c.036-.2.117-.366.192-.343.1,0,.254.159.329.323a3.232,3.232,0,0,1,.225.528,3.5,3.5,0,0,1,.162.964c.012.565-.1.913-.047.929" fill="#263238"/><path d="M150.558,235.869l-22.116-8.224,23.25-3.264,1.17-11.326-43.476,3.794-6.14,8.839,1.617,11.091,42.358,10.769Z" fill="#263238"/><path d="M103.666,243.795l-2.117-40.477a11.384,11.384,0,0,1,14.98-10.468l28.208,9.4,15.482,3.98s2.637,6.506,1.087,11.56c-1.518,4.948-6.94,8.238-11.711,6.824-5.925-1.756-33.129-13.455-33.129-13.455v32.96Z" fill="#263238"/><path d="M149.186,224.728a.932.932,0,0,1-.168-.055l-.484-.187-1.85-.74-6.784-2.767-22.346-9.222-1.137-.471.181-.121c-.016,9.158-.03,17.391-.04,23.354-.017,2.962-.031,5.359-.041,7.033-.011.817-.019,1.456-.024,1.908-.006.207-.01.371-.013.5a.858.858,0,0,1-.013.169.768.768,0,0,1-.013-.169c0-.125-.008-.289-.013-.5-.006-.452-.014-1.091-.024-1.908-.01-1.674-.024-4.071-.041-7.033-.011-5.963-.025-14.2-.04-23.354v-.2l.182.076,1.137.471,22.317,9.293,6.752,2.844,1.831.786.474.21a.919.919,0,0,1,.158.08" fill="#455a64"/><path d="M123.134,224.774a9.261,9.261,0,0,1,5.3,2.936c-.055.061-1.06-.878-2.531-1.684s-2.793-1.174-2.771-1.252" fill="#455a64"/><path d="M114.013,205.689a20.213,20.213,0,0,1,2.543,5.672c-.07.026-.589-1.265-1.291-2.827s-1.318-2.809-1.252-2.845" fill="#455a64"/><path d="M114.075,187.853l-4.988-.933-5.242,5.346.968,3.406,6.11-2.251Z" fill="#ffc09d"/><path d="M95.632,128.512l-1.35.115s-2.431.4-2.431.452-1.068,1.546-1.071,1.551l-.978,1.513a1.406,1.406,0,0,0,1.367-.252l-.342.761a1.518,1.518,0,0,0,1.879-.73,17.442,17.442,0,0,1,1.059-1.506l.442-.04c.037.091,1.744,2.5,1.78,2.443S97.44,131.4,97.44,131.4Z" fill="#ff9b6c"/><path d="M99.252,139l.4-7.472-3.786-4.291-4.165.252L90,128.677c.088.412,1.269.695,2.543.326a6.439,6.439,0,0,1,2.622-.089l1.6,2.795-1.06,1.169,1.359,7.167Z" fill="#ffc09d"/><path d="M88.2,129.154h13.536a.618.618,0,1,1,0,1.237H88.2l-1.328-.618Z" fill="#263238"/><path d="M95.052,141.008l-1.379-3.391a3.187,3.187,0,0,1-.232-1.358,23.393,23.393,0,0,0-.037-4.227c-.253-.757-1.262-3.345-.694-3.723s1.354-.505,1.907,1.009,2.257,4.8,2.257,4.8l1.29,5.406Z" fill="#ffc09d"/><path d="M96.7,133.78a10.344,10.344,0,0,1-.784-1.447c-.453-.9-1.068-2.2-1.724-3.552a1,1,0,0,0-.8-.522.73.73,0,0,0-.674.5,1.941,1.941,0,0,0,.027.886c.054.29.117.558.181.8.264.972.542,1.539.5,1.557a1.3,1.3,0,0,1-.23-.38,8.06,8.06,0,0,1-.45-1.125c-.077-.244-.152-.515-.216-.81a2.074,2.074,0,0,1-.045-1,.973.973,0,0,1,.9-.69,1.239,1.239,0,0,1,1.027.637c.7,1.432,1.253,2.68,1.672,3.615a10.351,10.351,0,0,1,.616,1.526" fill="#ff9b6c"/><path d="M159.788,206.143l-1.38-2.422-14.762-3.7,1.739,3Z" fill="#ffc09d"/></g><g clip-path="url(#x)"><rect width="38.637" height="37.909" transform="translate(93.766 137.931)" fill="url(#y)"/></g><g clip-path="url(#z)"><rect width="37.571" height="43.567" transform="translate(121.787 160.782)" fill="url(#aa)"/></g><g clip-path="url(#ab)"><rect width="37.964" height="38.183" transform="translate(110.923 169.019)" fill="url(#ac)"/></g><g clip-path="url(#a)"><path d="M128.054,189.778a.951.951,0,0,1-.238-.1c-.152-.074-.373-.19-.653-.348a19.029,19.029,0,0,1-2.27-1.506,9.252,9.252,0,0,1-2.673-3.037,8.951,8.951,0,0,1-.374-4.923c.25-1.743.608-3.366.819-4.867.23-1.5.388-2.85.472-3.991s.1-2.067.1-2.707a9.677,9.677,0,0,1,0-1,.968.968,0,0,1,.042.255c.021.168.041.417.058.738a24.977,24.977,0,0,1-.016,2.722c-.06,1.148-.2,2.511-.418,4.015-.2,1.506-.551,3.144-.8,4.867a8.851,8.851,0,0,0,.333,4.785,9.313,9.313,0,0,0,2.569,2.994,22.994,22.994,0,0,0,2.207,1.563,9.77,9.77,0,0,1,.839.538" fill="#263238"/><path d="M139.469,171.222a8.557,8.557,0,0,0-5.642-.381,5.75,5.75,0,0,1,5.642.381" fill="#263238"/><path d="M136.671,161.933a2.332,2.332,0,0,1-.374.418c-.251.257-.626.619-1.1,1.058-.94.878-2.276,2.053-3.808,3.282s-2.971,2.275-4.033,3c-.531.363-.966.65-1.272.839a2.283,2.283,0,0,1-.489.274,2.3,2.3,0,0,1,.432-.358l1.221-.906c1.032-.764,2.449-1.831,3.977-3.056s2.878-2.374,3.848-3.215l1.151-.995a2.335,2.335,0,0,1,.443-.343" fill="#263238"/><path d="M112.873,156.062c.027.072-.724.391-1.556.939s-1.429,1.1-1.485,1.049a5.2,5.2,0,0,1,3.041-1.988" fill="#263238"/><path d="M133.033,183.6a1.64,1.64,0,0,1-.451.145,8.837,8.837,0,0,1-1.269.222,11.632,11.632,0,0,1-1.915.052,12.324,12.324,0,0,1-4.534-1.136,11.707,11.707,0,0,1-1.664-.949,8.657,8.657,0,0,1-1.014-.795c-.224-.206-.341-.326-.329-.34.031-.036.535.408,1.445.98a13.33,13.33,0,0,0,7.995,2c1.072-.075,1.726-.229,1.736-.182" fill="#fafafa"/><path d="M134.436,191.172a2.581,2.581,0,0,1-.928.169,8.5,8.5,0,0,1-4.426-.9,2.6,2.6,0,0,1-.788-.519,19.158,19.158,0,0,0,2.993,1.012,19.105,19.105,0,0,0,3.149.239" fill="#fafafa"/><path d="M145.141,186.466a1.424,1.424,0,0,1-.384.232,11.7,11.7,0,0,1-1.112.5,17.013,17.013,0,0,1-7.909,1.1,11.863,11.863,0,0,1-1.206-.179,1.46,1.46,0,0,1-.432-.118c.007-.043.634.052,1.652.112a20.036,20.036,0,0,0,7.831-1.084c.963-.335,1.541-.6,1.56-.557" fill="#fafafa"/><path d="M143.235,178.031c-.009.041-.641-.077-1.669-.2a25.759,25.759,0,0,0-8.042.29c-1.017.2-1.639.36-1.65.319a1.541,1.541,0,0,1,.421-.169c.276-.1.683-.209,1.19-.331a20.957,20.957,0,0,1,8.107-.292c.514.085.928.17,1.21.245a1.5,1.5,0,0,1,.433.138" fill="#fafafa"/><path d="M147.5,201.6a2.616,2.616,0,0,1-.588-.116,15.1,15.1,0,0,1-1.561-.483,20.57,20.57,0,0,1-8.743-6.139,15.179,15.179,0,0,1-.984-1.3,2.669,2.669,0,0,1-.309-.514c.039-.027.526.672,1.434,1.7a22.831,22.831,0,0,0,8.668,6.087c1.272.505,2.1.726,2.083.772" fill="#fafafa"/><path d="M128.932,201.338a5.543,5.543,0,0,1-.061-1.433,15.939,15.939,0,0,1,1.746-6.661,5.639,5.639,0,0,1,.756-1.219,12.663,12.663,0,0,1-.589,1.3,19.718,19.718,0,0,0-1.728,6.592,12.462,12.462,0,0,1-.124,1.421" fill="#fafafa"/><path d="M116.466,195.671a4.072,4.072,0,0,1,.011-1.206,6.842,6.842,0,0,1,.894-2.777,8.946,8.946,0,0,1,1.945-2.172,4.642,4.642,0,0,1,.979-.7,6.692,6.692,0,0,1-.856.84,10.687,10.687,0,0,0-1.843,2.168,7.671,7.671,0,0,0-.935,2.668,8.517,8.517,0,0,1-.195,1.18" fill="#fafafa"/><path d="M157.734,201.211a7.792,7.792,0,0,1-1.455.642,27.053,27.053,0,0,1-3.678,1.1,15.689,15.689,0,0,1-3.822.416,6.053,6.053,0,0,1-.665-.044,3.77,3.77,0,0,1-.5-.07,1.354,1.354,0,0,1-.415-.108c.008-.046.607.053,1.579.037a19,19,0,0,0,3.765-.487c1.452-.323,2.743-.72,3.673-1.022a12.12,12.12,0,0,1,1.516-.467" fill="#fafafa"/><path d="M152.2,191.255c.028.012-.13.318-.553.628a7.5,7.5,0,0,1-1.778.934,11.084,11.084,0,0,1-1.921.566,3.1,3.1,0,0,1-.611.063c-.146,0-.235-.05-.222-.06s.3-.037.791-.184,1.15-.352,1.868-.629a10.942,10.942,0,0,0,1.767-.843c.43-.257.623-.5.659-.475" fill="#fafafa"/><path d="M148.744,181.143c.013,0,.008.086-.077.181a1.685,1.685,0,0,1-.405.328,8,8,0,0,1-1.521.709,8.751,8.751,0,0,1-1.619.438c-.428.073-.709.016-.7-.019a6.2,6.2,0,0,1,.664-.163c.406-.105.961-.284,1.567-.5a15.519,15.519,0,0,0,1.519-.625,2.864,2.864,0,0,0,.425-.239c.094-.061.124-.115.148-.108" fill="#fafafa"/><path d="M130.787,175.8a4.193,4.193,0,0,1-1.184.046,15.168,15.168,0,0,1-5.542-1.313,4.233,4.233,0,0,1-1.037-.573c.035-.076,1.652.734,3.806,1.237s3.96.52,3.957.6" fill="#fafafa"/><path d="M145.288,171.246a7.131,7.131,0,0,1-3.5,1.427c-.009-.058.785-.318,1.748-.72.97-.385,1.72-.754,1.754-.707" fill="#fafafa"/><path d="M134,164.7a2.179,2.179,0,0,1,.7.556,6.387,6.387,0,0,1,1.767,3.876,2.177,2.177,0,0,1-.04.894A8.656,8.656,0,0,0,134,164.7" fill="#fafafa"/><path d="M118.129,171.86a1.8,1.8,0,0,1-.231-.475,8.13,8.13,0,0,1-.4-1.382,12.5,12.5,0,0,1,.035-4.731,24.915,24.915,0,0,1,1.371-4.529c.223-.563.413-1.013.551-1.321a2.009,2.009,0,0,1,.238-.47,2.057,2.057,0,0,1-.143.507q-.2.56-.472,1.348a30.817,30.817,0,0,0-1.287,4.512,13.616,13.616,0,0,0-.111,4.65c.194,1.183.5,1.874.45,1.891" fill="#fafafa"/><path d="M106.285,167.017a1.947,1.947,0,0,1,.088-.508,12.461,12.461,0,0,1,.4-1.346,17.237,17.237,0,0,1,5.244-7.526,12.317,12.317,0,0,1,1.125-.839,1.907,1.907,0,0,1,.446-.258c.026.037-.573.457-1.45,1.238a19.4,19.4,0,0,0-5.192,7.45c-.428,1.094-.615,1.8-.659,1.789" fill="#fafafa"/><path d="M108.19,149.327c0,.047-.574.074-1.459.326a13.654,13.654,0,0,0-3.272,1.46,15.45,15.45,0,0,0-2.842,2.194c-.656.648-.986,1.119-1.023,1.093-.016-.01.055-.135.2-.355a4.066,4.066,0,0,1,.281-.385,5.611,5.611,0,0,1,.41-.481,13.015,13.015,0,0,1,2.84-2.29,11.74,11.74,0,0,1,3.362-1.416,4.807,4.807,0,0,1,.623-.115,3.3,3.3,0,0,1,.475-.046,1.209,1.209,0,0,1,.407.015" fill="#fafafa"/><path d="M103.492,142.461a12.747,12.747,0,0,0-8.3,2.1,4.132,4.132,0,0,1,1.022-.8,10.192,10.192,0,0,1,6-1.516,4.19,4.19,0,0,1,1.278.214" fill="#fafafa"/><path d="M131.052,175.795a2.07,2.07,0,0,1,.1.329c.062.239.145.558.251.96.214.863.517,2.079.9,3.593.747,3.088,1.787,7.382,2.981,12.313l.052.211-.21-.059-5.279-1.483-15.416-4.382.108-.045-2.62,4.542c-.306.518-.547.929-.724,1.228l-.194.316a.445.445,0,0,1-.075.1.475.475,0,0,1,.051-.117l.171-.329.68-1.253c.613-1.1,1.479-2.664,2.546-4.584l.036-.065.072.021,15.436,4.311,5.277,1.491-.158.152c-1.159-4.939-2.168-9.241-2.893-12.334-.346-1.521-.625-2.744-.822-3.61-.088-.407-.157-.729-.209-.971a1.842,1.842,0,0,1-.058-.339" fill="#263238"/><path d="M142.4,174.722a1.421,1.421,0,0,1,.1.3c.062.223.142.508.239.859.206.783.489,1.859.834,3.175l2.655,10.5c.507,2.054,1,4,1.422,5.792a13.631,13.631,0,0,1,.4,4.862,6.844,6.844,0,0,1-1.156,3.074,3.618,3.618,0,0,1-.827.88,9.855,9.855,0,0,0,.743-.938,7.007,7.007,0,0,0,1.056-3.04,13.815,13.815,0,0,0-.446-4.784l-1.441-5.782c-1-4.092-1.913-7.795-2.581-10.515-.312-1.324-.567-2.408-.753-3.2-.078-.356-.142-.645-.191-.872a1.407,1.407,0,0,1-.05-.308" fill="#263238"/><g opacity="0.3"><g clip-path="url(#ae)"><path d="M146.154,204.349c3.032.279,4.791-1.45,5.115-3.815a8.542,8.542,0,0,0-.676-3.849c-1.859-5.449-3.738-10.944-6.687-15.888,1.114,4.948,2.535,9.7,3.649,14.646a15.348,15.348,0,0,1,.47,4.213,7.583,7.583,0,0,1-1.871,4.693"/></g></g><path d="M135,159.733a6.166,6.166,0,0,0,7.834-4.684,3.625,3.625,0,0,0,3.126.831,5.974,5.974,0,0,0,2.915-1.573,7.279,7.279,0,0,0,2.447-5.469,5.332,5.332,0,0,0-3.309-4.793,4.229,4.229,0,0,0-5.194,2.11c-.361-1.079.565-2.537.344-3.652-.444-2.239-1.783-3.55-2.919-3.6" fill="#263238"/><path d="M137.437,159.154c2.218-3.867,2.854-9.018,3.414-13.474.264-2.1.728-5.083-.7-6.395-1.531-1.4-1.678-3.572-3.438-4.656a5.264,5.264,0,0,0-5.8.067" fill="#263238"/><path d="M125.908,166.849v-6.067s-6.32-1.117-6.694-6.181-.243-16.759-.243-16.759a16.659,16.659,0,0,1,17.292,1.1l-.255,17.828.012,5.808-5.174,4.2-4.938,3.888Z" fill="#ffc09d"/><path d="M124.09,148.4a2.468,2.468,0,0,1,3.353-.766,3,3,0,0,1,.961,3.679A3.779,3.779,0,0,1,126,153.2s2.275,4.15,3.723,5.251c1.724,1.31,2.534,1.955,4.662,2.208,2.092.249,1.839.271,3.051-1.506a6.961,6.961,0,0,0,1.183-4.116q.1-5.6.193-11.205a16.568,16.568,0,0,0-.259-4.02,5.419,5.419,0,0,0-2.065-3.318c-1.2-.807-2.709-.872-4.071-1.322a33.233,33.233,0,0,1-4.742-2.556c-1.593-.835-3.545-1.331-5.14-.5-1.145.6-1.91,1.78-3.023,2.437-1.584.937-3.746.732-4.51,3.142a4.205,4.205,0,0,0,.034,2.576,5.7,5.7,0,0,0,7.852,3.158,8.275,8.275,0,0,0,.1,3.544c.182.559.249,1.414,1.1,1.427" fill="#263238"/><path d="M124.977,151.562c-.02.008-.019.1.068.219a.731.731,0,0,0,.548.28,1.375,1.375,0,0,0,1.269-1.4,1.49,1.49,0,0,0-.364-1.07,1.458,1.458,0,0,0-.769-.455c-.507-.107-.8.086-.776.119.012.057.3-.025.708.128a1.267,1.267,0,0,1,.85,1.262,1.168,1.168,0,0,1-.92,1.162c-.411.027-.578-.275-.614-.243" fill="#ff9b6c"/><path d="M150.658,148.9a1.54,1.54,0,0,1-.144.476,5.333,5.333,0,0,1-.672,1.179,5.9,5.9,0,0,1-3.761,2.306,5.782,5.782,0,0,1-4.269-1.1,5.241,5.241,0,0,1-.978-.941,1.524,1.524,0,0,1-.27-.417,10.63,10.63,0,0,0,1.356,1.208,5.85,5.85,0,0,0,4.122,1,5.972,5.972,0,0,0,3.654-2.161,11,11,0,0,0,.962-1.541" fill="#455a64"/><path d="M149.958,148.082a1.206,1.206,0,0,1-.176.389,5.549,5.549,0,0,1-.683.942,6.325,6.325,0,0,1-3.273,1.953,6.186,6.186,0,0,1-3.795-.358,5.376,5.376,0,0,1-1.015-.57c-.221-.163-.331-.268-.321-.281.027-.041.507.336,1.406.679a6.423,6.423,0,0,0,3.666.274,6.582,6.582,0,0,0,3.2-1.823c.671-.69.953-1.231.995-1.205" fill="#455a64"/><path d="M141.484,154.592a.811.811,0,0,1-.21.116,2.352,2.352,0,0,1-.666.176,3.618,3.618,0,0,1-2.413-.665,7.019,7.019,0,0,1-2.27-2.952,22.877,22.877,0,0,0-2.059-4.014,4.813,4.813,0,0,0-1.728-1.476,6.126,6.126,0,0,0-2.068-.545c-1.375-.14-2.647-.049-3.707-.195a5.952,5.952,0,0,1-2.4-.748,3.76,3.76,0,0,1-.548-.414c-.112-.11-.168-.17-.162-.177s.251.217.761.5a6.224,6.224,0,0,0,2.371.651c1.043.122,2.3.011,3.712.139a6.3,6.3,0,0,1,2.156.555,5.019,5.019,0,0,1,1.824,1.549,21.876,21.876,0,0,1,2.068,4.068,6.981,6.981,0,0,0,2.157,2.9,3.616,3.616,0,0,0,2.3.716,4.375,4.375,0,0,0,.886-.19" fill="#455a64"/><path d="M140.99,152.765a.756.756,0,0,1-.226.022,2.515,2.515,0,0,1-.647-.082,4.085,4.085,0,0,1-1.968-1.332,7.684,7.684,0,0,1-.946-1.357c-.29-.519-.553-1.092-.846-1.683a11.662,11.662,0,0,0-1.031-1.772,5.31,5.31,0,0,0-.718-.792,3.807,3.807,0,0,0-.436-.326,2.538,2.538,0,0,0-.471-.288,5.928,5.928,0,0,0-2.081-.612,15.943,15.943,0,0,0-2.055-.1,28.4,28.4,0,0,1-3.523-.093,6.31,6.31,0,0,1-2.281-.683,4.316,4.316,0,0,1-.538-.363c-.118-.089-.177-.139-.172-.146s.27.16.757.418a6.652,6.652,0,0,0,2.255.589,31.177,31.177,0,0,0,3.5.036,15.49,15.49,0,0,1,2.089.093,6.084,6.084,0,0,1,2.17.634,2.669,2.669,0,0,1,.5.3,3.647,3.647,0,0,1,.46.347,5.4,5.4,0,0,1,.752.833,11.515,11.515,0,0,1,1.041,1.819c.288.6.544,1.171.82,1.684a7.684,7.684,0,0,0,.9,1.341,4.146,4.146,0,0,0,1.856,1.355,6.26,6.26,0,0,0,.844.158" fill="#455a64"/><path d="M142.214,155.351c-.012.011-.115-.068-.279-.235a5.039,5.039,0,0,1-.612-.779,6.2,6.2,0,0,1-.248-6.28,5.148,5.148,0,0,1,.547-.827c.15-.179.246-.267.259-.256.036.028-.293.426-.64,1.166a6.547,6.547,0,0,0,.241,6.1c.406.71.766,1.08.732,1.111" fill="#ff4f5b"/></g><g clip-path="url(#af)"><rect width="20.096" height="21.166" transform="translate(212.296 205.122)" fill="url(#ag)"/></g><g clip-path="url(#ah)"><rect width="22.362" height="9.809" transform="translate(216.027 227.879)" fill="url(#ai)"/></g><g clip-path="url(#aj)"><rect width="10.757" height="20.808" transform="translate(210.258 189.439)" fill="url(#ak)"/></g><g clip-path="url(#al)"><rect width="10.803" height="31.11" transform="translate(197.716 194.988)" fill="url(#am)"/></g><g clip-path="url(#an)"><rect width="16.781" height="14.158" transform="translate(180.918 216.467)" fill="url(#ao)"/></g><g clip-path="url(#a)"><path d="M228.1,208.09a.452.452,0,0,1-.086.076l-.264.205-1.028.769-.745.55c-.268.207-.548.447-.855.7-.607.507-1.325,1.053-2.046,1.74l-1.156,1.05c-.4.368-.785.783-1.2,1.194-.844.811-1.662,1.758-2.541,2.736a54,54,0,0,0-8.963,14.5c-.482,1.223-.964,2.378-1.312,3.5-.182.556-.381,1.086-.53,1.608l-.423,1.5c-.292.952-.459,1.837-.642,2.608-.085.385-.174.743-.24,1.075s-.111.637-.159.914c-.1.534-.172.956-.228,1.262-.026.133-.048.24-.065.328a.439.439,0,0,1-.03.111.453.453,0,0,1,.007-.115l.042-.33.185-1.271q.063-.417.14-.92c.059-.334.142-.693.222-1.081.171-.775.328-1.665.61-2.623.13-.483.267-.989.41-1.513s.341-1.059.519-1.618c.342-1.125.819-2.286,1.3-3.517a52.844,52.844,0,0,1,9-14.558c.887-.978,1.713-1.924,2.566-2.733.42-.409.81-.822,1.214-1.187l1.17-1.044c.731-.68,1.458-1.219,2.074-1.718.312-.245.6-.48.869-.683l.759-.535,1.055-.734.277-.186a.432.432,0,0,1,.1-.057" fill="#263238"/><path d="M234.6,231.224a1.888,1.888,0,0,1-.337-.056c-.219-.039-.537-.124-.955-.194a27.027,27.027,0,0,0-3.55-.434,25.908,25.908,0,0,0-21.034,8.753,26.806,26.806,0,0,0-2.194,2.824c-.245.345-.409.63-.536.814a1.943,1.943,0,0,1-.2.278,1.818,1.818,0,0,1,.157-.3c.114-.192.266-.485.5-.839a23.8,23.8,0,0,1,2.146-2.883,25.485,25.485,0,0,1,21.168-8.808,23.938,23.938,0,0,1,3.558.509c.416.083.731.182.948.237a1.875,1.875,0,0,1,.325.1" fill="#263238"/><path d="M216.485,193.116a.574.574,0,0,1-.019.13c-.02.1-.046.22-.078.375l-.322,1.436c-.283,1.247-.714,3.047-1.255,5.267-1.08,4.443-2.65,10.561-4.286,17.34-.812,3.392-1.548,6.632-2.182,9.586s-1.153,5.626-1.548,7.876c-.212,1.123-.371,2.144-.521,3.039s-.274,1.667-.366,2.3-.172,1.105-.226,1.454c-.027.155-.048.28-.065.377a.572.572,0,0,1-.03.128.587.587,0,0,1,.007-.131c.011-.1.024-.224.042-.38.044-.351.1-.84.183-1.461s.184-1.41.327-2.307.287-1.921.488-3.047c.375-2.256.889-4.931,1.5-7.892s1.353-6.2,2.166-9.6c1.637-6.782,3.232-12.893,4.352-17.325.557-2.2,1.009-3.993,1.326-5.249.155-.607.277-1.084.365-1.426l.1-.37a.543.543,0,0,1,.042-.124" fill="#263238"/><path d="M205.225,241.753a.361.361,0,0,1-.031-.1c-.019-.081-.041-.18-.069-.3q-.089-.428-.241-1.162c-.208-1.009-.483-2.475-.8-4.291-.629-3.631-1.375-8.673-1.833-14.281-.222-2.805-.346-5.484-.4-7.921s-.019-4.634.057-6.476c.022-.921.083-1.753.123-2.484s.089-1.36.137-1.873.082-.892.108-1.182c.014-.123.025-.223.035-.306a.382.382,0,0,1,.019-.1.373.373,0,0,1,0,.106c0,.083-.007.184-.011.308-.016.29-.038.686-.066,1.184-.033.514-.072,1.143-.1,1.874s-.077,1.562-.089,2.482c-.055,1.84-.059,4.033-.007,6.466s.2,5.106.417,7.907c.458,5.6,1.177,10.638,1.764,14.273.293,1.818.544,3.287.724,4.3.084.492.15.883.2,1.169.019.123.034.223.046.305a.37.37,0,0,1,.008.106" fill="#263238"/><path d="M205.587,242.813a1.651,1.651,0,0,1-.128-.288l-.323-.84c-.07-.184-.146-.387-.23-.606s-.2-.454-.315-.706l-.36-.811c-.126-.288-.291-.577-.446-.888l-.5-.973q-.286-.5-.6-1.026c-.394-.719-.9-1.434-1.394-2.213a52.553,52.553,0,0,0-3.694-4.721,57.854,57.854,0,0,0-4.238-4.242c-.705-.6-1.35-1.189-2-1.687l-.929-.74-.881-.65c-.556-.422-1.079-.776-1.54-1.083s-.854-.579-1.189-.78l-.76-.483a1.591,1.591,0,0,1-.257-.18,1.635,1.635,0,0,1,.281.141l.783.445c.343.19.749.442,1.213.748s1,.644,1.565,1.059l.893.641.94.732c.66.492,1.313,1.085,2.024,1.677a54.974,54.974,0,0,1,4.27,4.249,49.883,49.883,0,0,1,3.7,4.754c.49.786.995,1.509,1.384,2.237l.587,1.037q.255.513.49.985c.152.315.312.609.434.9l.345.821.3.716c.076.222.147.429.212.616.117.354.211.638.282.856a1.513,1.513,0,0,1,.084.3" fill="#263238"/><path d="M226.283,217.769c0,.037-.594.037-1.549.09a27.779,27.779,0,0,0-7.31,1.388c-.908.3-1.46.518-1.474.484a1.528,1.528,0,0,1,.368-.2c.243-.117.6-.268,1.051-.439a22.071,22.071,0,0,1,7.359-1.4c.481-.006.871,0,1.139.022a1.469,1.469,0,0,1,.416.051" fill="#263238"/><path d="M229.982,235.837a11.247,11.247,0,0,0-4.906-5.283,3.467,3.467,0,0,1,1,.441,8.809,8.809,0,0,1,3.543,3.815,3.476,3.476,0,0,1,.366,1.027" fill="#263238"/><path d="M217.367,199.891c.047.05-.856.945-1.842,2.157s-1.685,2.274-1.743,2.238a13.78,13.78,0,0,1,3.585-4.395" fill="#263238"/><path d="M214.4,194.775a17.05,17.05,0,0,1,.666,3.91,17.072,17.072,0,0,1-.666-3.91" fill="#263238"/><path d="M205.231,210.83a48.183,48.183,0,0,1-3.076,5.935,48.183,48.183,0,0,1,3.076-5.935" fill="#263238"/><path d="M199.771,205.38a13.651,13.651,0,0,1,1.217,2.185A13.5,13.5,0,0,1,202,209.853a27.156,27.156,0,0,1-2.226-4.473" fill="#263238"/><path d="M191.747,224.022c-.016.066-.99-.123-2.2-.206s-2.205-.039-2.209-.107a8.837,8.837,0,0,1,4.412.313" fill="#263238"/><path d="M197.227,240.5l2.73,14.357a2.012,2.012,0,0,0,1.977,1.636H210a2.012,2.012,0,0,0,1.985-1.683l2.373-14.31Z" fill="#263238"/><path d="M198.114,245.169h15.423l.82-4.666h-17.13Z" fill="#455a64"/><path d="M198.114,245.169l.323,1.7H213.3l.236-1.7Z" fill="#fafafa"/></g></g></svg>