<svg xmlns="http://www.w3.org/2000/svg" xmlns:xlink="http://www.w3.org/1999/xlink" width="264.96" height="265.915" viewBox="0 0 264.96 265.915"><defs><clipPath id="a"><rect width="264.96" height="265.915" fill="none"/></clipPath><clipPath id="b"><path d="M24.693,64.4C-11.2,119.768-1.682,198.335,42.809,238.012c23.112,20.611,49.217,24.98,58.739,26.447,58.516,9.013,125.994-24.4,151.326-84.047,16.509-38.872,14.606-87.087-7.524-121.7A121.058,121.058,0,0,0,220.728,30.78C188.448,4.164,151.718,2.646,142.134,2.4q-1.6-.041-3.194-.041C95.415,2.361,50.19,25.065,24.693,64.4" fill="#baeae8"/></clipPath><clipPath id="c"><path d="M0,124.636v.321c.036,11.28,3.879,23.534,11.587,37.032l25.032-12.132C18,130.279,24.977,113.816,36.1,105.425L18.325,85.969C6.194,97.668.045,110.373,0,124.636" fill="none"/></clipPath><linearGradient id="d" x1="0.277" y1="3.252" x2="0.289" y2="3.252" gradientUnits="objectBoundingBox"><stop offset="0" stop-color="#4f52ff"/><stop offset="1" stop-color="#4042e2"/></linearGradient><clipPath id="f"><path d="M132.837,105.556l19.645,23.674c13.978-27.632,50.875-37.824,77.408-22.693l26.893-8.9C242.553,78.653,223.05,69.9,202.682,69.9c-24.593,0-50.45,12.752-69.845,35.657" fill="none"/></clipPath><linearGradient id="g" x1="-2.442" y1="1.809" x2="-2.427" y2="1.809" xlink:href="#d"/><clipPath id="i"><path d="M75.342,84.475l9.985,20.8c12.756,5.094,21.155,12.539,27.176,21.683l17.265,30.7a182.729,182.729,0,0,0,25.351,18.052l-3.539-20.057,22.992-.243c-17.518-8.187-31.528-27.373-41.735-49.852a119.563,119.563,0,0,0-35.3-27.349Z" fill="none"/></clipPath><linearGradient id="j" x1="-0.429" y1="1.538" x2="-0.422" y2="1.538" xlink:href="#d"/><clipPath id="l"><rect width="35.911" height="3.099" transform="translate(143.013 34.911)" fill="none"/></clipPath><clipPath id="m"><path d="M143.013,36.461h0c0,.855.286,1.549.638,1.549h34.635c.352,0,.638-.694.638-1.549s-.286-1.55-.638-1.55H143.651c-.352,0-.638.694-.638,1.55" fill="none"/></clipPath><linearGradient id="n" x1="-3.982" y1="74.541" x2="-3.955" y2="74.541" gradientUnits="objectBoundingBox"><stop offset="0" stop-color="#dae3fe"/><stop offset="1" stop-color="#e9effd"/></linearGradient><clipPath id="o"><rect width="35.911" height="3.099" transform="translate(143.013 40.194)" fill="none"/></clipPath><clipPath id="p"><path d="M143.013,41.743h0c0,.856.286,1.55.638,1.55h34.635c.352,0,.638-.694.638-1.55s-.286-1.549-.638-1.549H143.651c-.352,0-.638.694-.638,1.549" fill="none"/></clipPath><linearGradient id="q" x1="-3.982" y1="72.837" x2="-3.955" y2="72.837" xlink:href="#n"/><clipPath id="r"><rect width="35.911" height="3.099" transform="translate(143.013 45.477)" fill="none"/></clipPath><clipPath id="s"><path d="M143.013,47.026h0c0,.856.286,1.55.638,1.55h34.635c.352,0,.638-.694.638-1.55s-.286-1.549-.638-1.549H143.651c-.352,0-.638.694-.638,1.549" fill="none"/></clipPath><linearGradient id="t" x1="-3.982" y1="71.132" x2="-3.955" y2="71.132" xlink:href="#n"/><clipPath id="u"><rect width="35.911" height="3.099" transform="translate(143.013 50.76)" fill="none"/></clipPath><clipPath id="v"><path d="M143.013,52.309h0c0,.856.286,1.55.638,1.55h34.635c.352,0,.638-.694.638-1.55s-.286-1.549-.638-1.549H143.651c-.352,0-.638.693-.638,1.549" fill="none"/></clipPath><linearGradient id="w" x1="-3.982" y1="69.427" x2="-3.955" y2="69.427" xlink:href="#n"/><clipPath id="x"><rect width="41.997" height="12.274" transform="translate(181.674 46.129)" fill="none"/></clipPath><clipPath id="y"><path d="M192.608,46.129H182.79a1.116,1.116,0,0,0,0,2.232h9.818a1.116,1.116,0,0,0,0-2.232" fill="none"/></clipPath><linearGradient id="z" x1="-15.077" y1="98.47" x2="-14.994" y2="98.47" xlink:href="#n"/><clipPath id="aa"><path d="M207.582,46.129h-9.818a1.116,1.116,0,1,0,0,2.232h9.818a1.116,1.116,0,0,0,0-2.232" fill="none"/></clipPath><linearGradient id="ab" x1="-16.321" y1="98.47" x2="-16.238" y2="98.47" xlink:href="#n"/><clipPath id="ac"><path d="M212.737,48.361h9.818a1.116,1.116,0,1,0,0-2.232h-9.818a1.116,1.116,0,0,0,0,2.232" fill="none"/></clipPath><linearGradient id="ad" x1="-17.562" y1="98.47" x2="-17.479" y2="98.47" xlink:href="#n"/><clipPath id="ae"><path d="M192.608,49.6H182.79a1.116,1.116,0,0,0-1.116,1.116v6.571A1.116,1.116,0,0,0,182.79,58.4h9.818a1.116,1.116,0,0,0,1.116-1.115V50.717a1.116,1.116,0,0,0-1.116-1.116" fill="none"/></clipPath><linearGradient id="af" x1="-15.077" y1="24.576" x2="-14.994" y2="24.576" xlink:href="#n"/><clipPath id="ag"><path d="M207.582,49.6h-9.818a1.115,1.115,0,0,0-1.116,1.116v6.571a1.115,1.115,0,0,0,1.116,1.115h9.818a1.115,1.115,0,0,0,1.115-1.115V50.717a1.115,1.115,0,0,0-1.115-1.116" fill="none"/></clipPath><linearGradient id="ah" x1="-16.321" y1="24.576" x2="-16.238" y2="24.576" xlink:href="#n"/><clipPath id="ai"><path d="M222.555,49.6h-9.818a1.116,1.116,0,0,0-1.116,1.116v6.571a1.116,1.116,0,0,0,1.116,1.115h9.818a1.116,1.116,0,0,0,1.116-1.115V50.717a1.116,1.116,0,0,0-1.116-1.116" fill="none"/></clipPath><linearGradient id="aj" x1="-17.562" y1="24.576" x2="-17.479" y2="24.576" xlink:href="#n"/><clipPath id="ak"><path d="M99.711,249.8l.346,3.17s2.15,1.026,3.636-.092l-.862-3.537Z" fill="none"/></clipPath><linearGradient id="al" x1="-21.173" y1="4.018" x2="-20.96" y2="4.018" gradientUnits="objectBoundingBox"><stop offset="0" stop-color="#febbba"/><stop offset="1" stop-color="#ff928e"/></linearGradient><clipPath id="an"><path d="M85.271,248.532l.831,4.8a3.1,3.1,0,0,0,2.583.2l-.37-5.155Z" fill="none"/></clipPath><linearGradient id="ao" x1="-14.927" y1="4.738" x2="-14.749" y2="4.738" xlink:href="#al"/><clipPath id="aq"><path d="M135.438,135.174c-1.622,6.569-9.846,11.83-18.268,14.359a22.729,22.729,0,0,0,4.4,9.432c14.01-7.7,16.219-23.106,16.219-23.106a2.029,2.029,0,0,0-1.618-.819,1.98,1.98,0,0,0-.733.134" fill="none"/></clipPath><linearGradient id="ar" x1="-4.785" y1="6.204" x2="-4.744" y2="6.204" xlink:href="#al"/><clipPath id="as"><path d="M135.651,131.477c-.411.549-.026,3.459-.007,4.138.729,1.423,2,.908,1.889.56a2.81,2.81,0,0,0,2.124-1.225c.466-.649.96-1.479,1.323-2.118a2.853,2.853,0,0,0,.3-2.092,9.811,9.811,0,0,0-1.163-2.355l2.051-2.1a1,1,0,0,0-.111-1.385,54.107,54.107,0,0,0-6.409,6.573" fill="none"/></clipPath><linearGradient id="at" x1="-10.095" y1="15.095" x2="-10.019" y2="15.095" xlink:href="#al"/><clipPath id="au"><path d="M137.353,131.3l-.6,1.556,1.632,1.847a21.2,21.2,0,0,1,1-3.761c.418-.667.208-.993-.175-1.192Z" fill="none"/></clipPath><linearGradient id="av" x1="-23.278" y1="25.802" x2="-23.106" y2="25.802" xlink:href="#al"/><clipPath id="ax"><path d="M73.581,176.943c6.451,12.073,24.428-.43,24.428-.43l-1.444-2.754s-11.169,6.173-14.866.776a4.209,4.209,0,0,1-.74-3.281,23.437,23.437,0,0,0-8.58-2.388,11.763,11.763,0,0,0,1.2,8.077" fill="none"/></clipPath><linearGradient id="ay" x1="-3.664" y1="3.798" x2="-3.615" y2="3.798" xlink:href="#al"/><clipPath id="az"><path d="M92.242,152.175a.351.351,0,0,0,.156.425,7.924,7.924,0,0,0,8.222-.475,1.652,1.652,0,0,0,.773-1.174l1.172-8.425-6.86-.066Z" fill="none"/></clipPath><linearGradient id="ba" x1="-7.446" y1="11.678" x2="-7.365" y2="11.678" xlink:href="#al"/><clipPath id="bb"><path d="M94.461,136.007l2.727,7.549c3.984,2.324,8.568,2.57,9.07-.24s-3.133-9.812-3.133-9.812Z" fill="none"/></clipPath><linearGradient id="bc" x1="-5.344" y1="7.873" x2="-5.286" y2="7.873" xlink:href="#al"/><clipPath id="bd"><path d="M100.706,129.891a.289.289,0,0,1-.456,0,2.958,2.958,0,0,0-3.594-1.206,2.715,2.715,0,0,0-1.884,2.6.286.286,0,0,1-.341.29,3.311,3.311,0,0,0-3.884,1.765c-.806,1.727-.3,2.715.16,3.2a.286.286,0,0,1-.126.474,1.723,1.723,0,0,0-1.235,1.955c.083,1.821,2.121,1.68,2.7,1.6a.285.285,0,0,1,.253.092c.492.556,2.709,2.912,5.13,3.217a.289.289,0,0,0,.307-.38l-1.019-3.059a.287.287,0,0,1,.159-.356l.523-.225a.287.287,0,0,0,.128-.42,7.524,7.524,0,0,1-1.008-2.2s-.661-.432,1.7-.974,5.891-1.385,6.649-3.385c.541-1.427-.3-4.452-1.99-4.453-.62,0-1.354.409-2.176,1.455" fill="none"/></clipPath><linearGradient id="be" x1="-3.809" y1="6.249" x2="-3.765" y2="6.249" gradientUnits="objectBoundingBox"><stop offset="0" stop-color="#09005d"/><stop offset="1" stop-color="#1a0f91"/></linearGradient><clipPath id="bf"><path d="M94.993,139.988c-.207,1.521,2.352,2.228,3.628,1.672l-.8-1.36a5.24,5.24,0,0,0-2.147-.916.62.62,0,0,0-.677.6" fill="none"/></clipPath><linearGradient id="bg" x1="-21.321" y1="26.827" x2="-21.096" y2="26.827" xlink:href="#al"/><clipPath id="bh"><path d="M108.874,161.02c-3.687.311-6.881.673-7.984.8a.62.62,0,0,0-.524.445l-6.084,21.247a.622.622,0,0,0,.592.793l14.116.131a.622.622,0,0,0,.5-.247c3.611-4.726,10.822-19.152,12.574-22.7a.621.621,0,0,0-.507-.894c-.8-.067-1.739-.1-2.769-.1-2.942,0-6.625.239-9.915.518" fill="none"/></clipPath><linearGradient id="bi" x1="-2.789" y1="3.632" x2="-2.759" y2="3.632" xlink:href="#be"/><clipPath id="bj"><path d="M95.246,173.66c-.341,1.236.506,4.721.506,4.721a3.2,3.2,0,0,0,2.9-1.013c.665-.653,1.059-1.3,1.6-.954a1.127,1.127,0,0,0,1.651-.38l-.967-1.068c1.417.69,1.566-.6,1.566-.6l-1.041-.8a1.264,1.264,0,0,0,1.81-1.091,32.387,32.387,0,0,0-4.813-1.284,3.77,3.77,0,0,0-.6-.05c-1.736,0-2.307,1.406-2.616,2.524" fill="none"/></clipPath><linearGradient id="bk" x1="-11.344" y1="12.724" x2="-11.225" y2="12.724" xlink:href="#al"/><clipPath id="bm"><path d="M103.279,162.862a1.912,1.912,0,0,0-1.441,1.341l-1.239,4.2.456.134,1.238-4.2a1.44,1.44,0,0,1,1.083-1.01c3.882-.81,14.509-.982,14.615-.984l-.007-.474c-.439.007-10.779.173-14.705.993" fill="none"/></clipPath><linearGradient id="bn" x1="-5.784" y1="15.599" x2="-5.727" y2="15.599" xlink:href="#n"/><clipPath id="bp"><path d="M74.377,253.963c-4.179.059-5.636.512-8.883.025l-.767,2.539a1.461,1.461,0,0,0-.022.758c.766.3,2.48.635,6.354.635,4.543,0,7.861-.213,9.423-.338a.638.638,0,0,0-.112-.234c-1.034-1.319-3.1-3.385-5.912-3.386h-.081" fill="none"/></clipPath><linearGradient id="bq" x1="-11.232" y1="1.114" x2="-11.07" y2="1.114" xlink:href="#d"/><clipPath id="br"><path d="M65.494,254.45a5.524,5.524,0,0,0,3.915.187l.36-2.771-3.335-.614Z" fill="none"/></clipPath><linearGradient id="bs" x1="-15.32" y1="3.523" x2="-15.086" y2="3.523" xlink:href="#al"/><clipPath id="bu"><path d="M94.956,250.757c-3.22,2.663-4.073,3.928-6.908,5.584l.985,2.45a1.449,1.449,0,0,0,.455.6c.786-.245,2.329-1.061,5.349-3.487,3.542-2.846,6-5.089,7.135-6.165a.637.637,0,0,0-.233-.111,11.009,11.009,0,0,0-2.446-.291,6.676,6.676,0,0,0-4.337,1.418" fill="none"/></clipPath><linearGradient id="bv" x1="-7.454" y1="1.259" x2="-7.37" y2="1.259" xlink:href="#d"/><clipPath id="bx"><path d="M85.744,251.932c.215.2,2.3,4.409,2.3,4.409s2.326-.5,2.8-1.975l-2.093-3.8Z" fill="none"/></clipPath><linearGradient id="by" x1="-16.799" y1="2.657" x2="-16.603" y2="2.657" xlink:href="#al"/><clipPath id="ca"><path d="M53.438,179.747l6.189,3.453s1.394-5.5,4.581-7.107l-4.84-4.054s-2.936,5.192-5.93,7.708" fill="none"/></clipPath><linearGradient id="cb" x1="-3.601" y1="6.752" x2="-3.531" y2="6.752" xlink:href="#al"/><clipPath id="cd"><path d="M85.059,204.841l-4.64,1.075-1.529.406.772,1.286,11.018.019-3.989-2.511a2.146,2.146,0,0,0-1.632-.275" fill="none"/></clipPath><linearGradient id="ce" x1="-6.691" y1="21.51" x2="-6.606" y2="21.51" xlink:href="#al"/><clipPath id="cf"><path d="M55.741,168.627c-.271,1.724,2.447,5.492,2.447,5.492a6.549,6.549,0,0,0,7.5,2.7c2.985-.934,2.189-2.574,1.694-5.2s-3.35-7.367-3.35-7.367-8.019,2.649-8.29,4.375" fill="none"/></clipPath><linearGradient id="cg" x1="-2.788" y1="5.526" x2="-2.735" y2="5.526" xlink:href="#al"/><clipPath id="ch"><path d="M63.994,158.779l-.1.257a.209.209,0,0,1-.388.012.208.208,0,0,0-.379-.008c-.289.635-1.152,1.722-3.744,2.562-3.678,1.192-5.968,3.046-5.687,5.659a.209.209,0,0,1-.3.212c-.3-.133-.756-.154-1.286.425-.92,1.007-.2,3.208,2.314,4.766a.208.208,0,0,1,.034.334c-.376.322-.905,1.04.795,1.679a4.271,4.271,0,0,0,3.04.293.208.208,0,0,0,.129-.235l-.446-2.289a.208.208,0,0,1,.177-.248l.823-.109.386-.05s-2.021-3.055-.7-3.812,6.711-2.617,7.647-4.739a3.685,3.685,0,0,0-2.074-4.84.168.168,0,0,0-.054-.008.212.212,0,0,0-.2.139" fill="none"/></clipPath><linearGradient id="ci" x1="-2.059" y1="4.775" x2="-2.016" y2="4.775" xlink:href="#be"/><clipPath id="cj"><path d="M56.559,170.547c-1.323,1.09,1.222,3.5,2.4,3.471l.185-1.458s-.911-2.246-2-2.246a.905.905,0,0,0-.585.233" fill="none"/></clipPath><linearGradient id="ck" x1="-10.084" y1="17.843" x2="-9.899" y2="17.843" xlink:href="#al"/><clipPath id="cm"><path d="M141.442,216.743a2.07,2.07,0,0,0-.9,1.984,87.737,87.737,0,0,0,9.471,29.064,3.131,3.131,0,0,1,.315,2.148l-1.135,5.456-2.157,2.049,5.591-.036,3.658-10.1-1.6-.493a3.012,3.012,0,0,1-2.122-2.807l-.258-10.807a12.3,12.3,0,0,0-3.006-8.119l8.928-.493-8.969-11.243a21.62,21.62,0,0,0-7.82,3.4" fill="none"/></clipPath><linearGradient id="cn" x1="-7.759" y1="1.19" x2="-7.703" y2="1.19" xlink:href="#al"/><clipPath id="co"><path d="M154.689,246.814s-1.352,8.653-2.833,9.63-4.161.126-4.161.126a8.739,8.739,0,0,0-2.836,1.872c-.5.67,5.491,1.51,8.508.032,0,0,4.147-7.327,4.123-11.086,0,0-.268-.6-2.06-.6-.222,0-.469.009-.741.03" fill="none"/></clipPath><linearGradient id="cp" x1="-10.347" y1="1.402" x2="-10.275" y2="1.402" xlink:href="#d"/><clipPath id="cq"><path d="M142.685,218.093c-5.2,5.23-13.55,34.4-13.55,34.4l-9.093,5.538a23.691,23.691,0,0,0,13.437-.9l-1.5-4.66s13.934-17.443,14.886-21.455a22.123,22.123,0,0,0,.62-6.918s9.575,1.005,9.623,1.087l-4.85-10.476Z" fill="none"/></clipPath><linearGradient id="cr" x1="-3.21" y1="1.152" x2="-3.183" y2="1.152" xlink:href="#al"/><clipPath id="ct"><path d="M122.036,257.682a.459.459,0,0,1-.309-.821l.282-.22c-3.828,1.865-4.526,3.486-4.526,3.486,3.418.988,15.965-1.321,15.965-1.321a2.7,2.7,0,0,0-.536-3.242c-3.112,1.459-8.347,1.957-10.876,2.118" fill="none"/></clipPath><linearGradient id="cu" x1="-18.773" y1="0.938" x2="-18.62" y2="0.938" xlink:href="#d"/><clipPath id="cv"><path d="M154.742,156.288c-.132.023-6,2.9-3.2,3.309l7.718,10.893a.357.357,0,0,0-.094.307l2.39,13.805a.356.356,0,0,0,.175.248L173.57,191.6a.367.367,0,0,0,.154.046c.864.048,8.257.357,8.939-3.413a3.765,3.765,0,0,0-1.572-4.214.353.353,0,0,1,.118-.647c1.864-.359,5.006-1.633,4.218-6.148-.846-4.841-6.015-4.769-8.392-4.469a.355.355,0,0,1-.3-.6c.953-1.016,2.121-2.865.557-4.825-1.772-2.22-4.63-1.781-5.923-1.433a.354.354,0,0,1-.443-.4c.352-1.75-3.975-9.468-13.184-9.467a17.912,17.912,0,0,0-3,.261" fill="none"/></clipPath><linearGradient id="cw" x1="-3.454" y1="2.611" x2="-3.431" y2="2.611" xlink:href="#be"/><clipPath id="cy"><path d="M156.049,171.92c.076.249,1.954,6.477,2.1,6.607s4.12.343,5.99-.935l-4.638-9.074Z" fill="none"/></clipPath><linearGradient id="cz" x1="-16.196" y1="8.536" x2="-16.092" y2="8.536" xlink:href="#al"/><clipPath id="da"><path d="M148.518,163.917s-.908,3.568,1.6,8.366,5.356,4.794,6.91,3.258a10.128,10.128,0,0,0,3.016-8.782c-.292-2.971-4.4-5.164-7.664-5.164-1.831,0-3.4.69-3.866,2.322" fill="none"/></clipPath><linearGradient id="db" x1="-8.474" y1="5.637" x2="-8.416" y2="5.637" xlink:href="#al"/><clipPath id="dc"><path d="M144.651,162.738c-.8,4.2,3.775,4.74,3.775,4.74l.071-1.824c3.909-5.014,8.076,1.357,8.076,1.357l.4-.192s-.35-2.006,1-1.738,2.294,2.837,2.294,2.837,2.9.8,2.576-2.85-3.248-5.515-8.342-7.333a9.457,9.457,0,0,0-3.18-.586,6.61,6.61,0,0,0-6.671,5.589" fill="none"/></clipPath><linearGradient id="dd" x1="-6.447" y1="5.283" x2="-6.401" y2="5.283" xlink:href="#be"/><clipPath id="de"><path d="M157.693,163.176c-2.214.487-.053,3.75-.053,3.75l1.686.785c.224-1.272.541-4.579-1.252-4.579a1.843,1.843,0,0,0-.381.044" fill="none"/></clipPath><linearGradient id="df" x1="-27.548" y1="18.006" x2="-27.37" y2="18.006" xlink:href="#al"/><clipPath id="dg"><path d="M175.806,204.86l-3.718,1.006c-3.717,1.006-10.211,0-10.211,0l-6.525-2.756-4.716,4.546,4.678,1.883s26.163.819,27.269.335a14.76,14.76,0,0,0,2.121-1.321,2.246,2.246,0,0,0,.821-2.58l-1.319-3.728Z" fill="none"/></clipPath><linearGradient id="dh" x1="-4.277" y1="7.847" x2="-4.248" y2="7.847" xlink:href="#al"/><clipPath id="dj"><path d="M196.3,253.729a1.52,1.52,0,0,0,1.011,1.889,6.217,6.217,0,0,0,1.156.224,1.157,1.157,0,0,0,1.188-.717l1.416-3.47-3.7-1.5Z" fill="none"/></clipPath><linearGradient id="dk" x1="-30.868" y1="2.762" x2="-30.71" y2="2.762" xlink:href="#al"/><clipPath id="dm"><path d="M224.5,258.7a.413.413,0,0,0,.455.413,4.864,4.864,0,0,1,2.124.385.537.537,0,0,0,.7-.365c.44-1.676,1.012-4.21,1.012-4.21l-4.347-.433Z" fill="none"/></clipPath><linearGradient id="dn" x1="-39.793" y1="2.293" x2="-39.615" y2="2.293" xlink:href="#al"/><clipPath id="dp"><path d="M208.769,202.343a.587.587,0,0,1-.724.5l-1.619-.4a3.328,3.328,0,0,0-2.4.313l-4.814,3.058H212.7l3.856-17.58a13.707,13.707,0,0,1-6.113-.8Z" fill="none"/></clipPath><linearGradient id="dq" x1="-7.724" y1="3.244" x2="-7.685" y2="3.244" xlink:href="#al"/><clipPath id="dr"><path d="M175.964,162.786c1.67.642,1.559,1.588,1.559,1.588l-7.376,2.967a2.681,2.681,0,0,0-1.567,1.715l-.409,1.355a33.745,33.745,0,0,0,13.787-1.085l9.054,17.364a5.24,5.24,0,0,0,7.6,1.864l1.962-1.349-16.714-20.376a7.815,7.815,0,0,0-3.55-3.865c-3.34-1.651-5.621-2.691-5.621-2.691a2.22,2.22,0,0,0,1.279,2.513" fill="none"/></clipPath><linearGradient id="ds" x1="-5.191" y1="3.515" x2="-5.16" y2="3.515" xlink:href="#al"/><clipPath id="dt"><path d="M201.5,149.186l2.166,6.895c2.777,1.005,6.582-1.969,6.582-1.969l-4.3-12.028a1.37,1.37,0,0,0-.593-.141c-2.436,0-3.858,7.243-3.858,7.243" fill="none"/></clipPath><linearGradient id="du" x1="-11.73" y1="7.369" x2="-11.67" y2="7.369" xlink:href="#al"/><clipPath id="dv"><path d="M193.124,137.764c0,.185,4.139,11.719,4.139,11.719l6.536-2.5-2.3-11.514s-.976-.093-2.261-.093c-2.48,0-6.114.348-6.114,2.392" fill="none"/></clipPath><linearGradient id="dw" x1="-11.157" y1="7.481" x2="-11.098" y2="7.481" xlink:href="#al"/><clipPath id="dx"><path d="M198.542,132.966a.866.866,0,0,1-1.074.287.686.686,0,0,0-.768.137.853.853,0,0,1-1.248-.189,2.587,2.587,0,0,0-3.188-1.053c-2.952.955-2.81,4.359-1.729,6.21s4.225.633,5.713-.594c1.13-.932,2.853-.374,3.613-.053a.862.862,0,0,1,.492.56l1.684,5.966a.837.837,0,0,1,.034.233c0,.487-.12,2.161-1.826,1.933-1.548-.206-2.963-.372-3.863.052a.865.865,0,0,0-.447,1.076,37.467,37.467,0,0,0,2.354,5.312.864.864,0,0,0,1.111.356,27.885,27.885,0,0,0,5.6-3.3.865.865,0,0,0,.306-.831c-.286-1.527-1.14-6.169-1.177-7.5-.035-1.248,1.366-2.2,1.982-2.561a.847.847,0,0,0,.4-.538,2.245,2.245,0,0,0-1.963-3.023.867.867,0,0,1-.7-1.031,2.251,2.251,0,0,0-1.692-2.9,3.428,3.428,0,0,0-.933-.136,3.314,3.314,0,0,0-2.684,1.58" fill="none"/></clipPath><linearGradient id="dy" x1="-10.78" y1="6.115" x2="-10.723" y2="6.115" xlink:href="#be"/><clipPath id="dz"><path d="M204.133,139.408c-1.156,1.038.592,4.344.592,4.344s2.4.588,2.468-2.627c.034-1.645-.747-2.312-1.617-2.312a2.217,2.217,0,0,0-1.443.6" fill="none"/></clipPath><linearGradient id="ea" x1="-29.22" y1="18.452" x2="-29.075" y2="18.452" xlink:href="#al"/><clipPath id="ec"><path d="M185.654,205.519a.314.314,0,1,0,0,.628h27.108a.321.321,0,0,1,.32.319v2.14a.321.321,0,0,1-.32.32H185.654a.314.314,0,1,0,0,.628H214.69a1.1,1.1,0,0,0,1.1-1.1v-1.776a1.163,1.163,0,0,0-1.163-1.162Z" fill="none"/></clipPath><linearGradient id="ed" x1="-6.253" y1="4.313" x2="-6.219" y2="4.313" xlink:href="#d"/><clipPath id="ef"><rect width="56.488" height="46.204" transform="translate(74.348)" fill="none"/></clipPath><clipPath id="eg"><rect width="57.934" height="49.516" transform="translate(55.424 25.843)" fill="none"/></clipPath><clipPath id="eh"><path d="M91.907,42.243a4.967,4.967,0,0,1,1.705-9.758,4.892,4.892,0,0,1,.725.127,4.966,4.966,0,1,1-2.43,9.631M89.8,31.866a6.478,6.478,0,0,0,1.735,11.843,6.572,6.572,0,0,0,.937.164A6.48,6.48,0,1,0,89.8,31.866" fill="none"/></clipPath><linearGradient id="ei" x1="-6.007" y1="17.741" x2="-5.938" y2="17.741" xlink:href="#n"/><clipPath id="ej"><path d="M81.77,26.061a15.8,15.8,0,0,0-4.582,9.626q-.081.812-.082,1.637A15.929,15.929,0,0,0,91.4,53.169c.539.054,1.085.082,1.635.082.173,0,.345,0,.519-.009a15.942,15.942,0,0,0,2.535-.284.343.343,0,0,1,.034-.006l.1-.02.188-.039a.378.378,0,0,0,.3-.331.363.363,0,0,0-.007-.118.378.378,0,0,0-.448-.29,15.183,15.183,0,0,1-18.387-14.83,15.533,15.533,0,0,1,.079-1.56,15.173,15.173,0,1,1,28.116,9.349.359.359,0,0,0-.051.156.377.377,0,0,0,.7.232A15.929,15.929,0,0,0,81.77,26.061" fill="none"/></clipPath><linearGradient id="ek" x1="-2.421" y1="7.676" x2="-2.389" y2="7.676" xlink:href="#n"/><clipPath id="em"><rect width="27.611" height="35.052" transform="translate(133.404 39.159)" fill="none"/></clipPath><clipPath id="en"><rect width="37.081" height="17.007" transform="translate(112.257 72.539)" fill="none"/></clipPath><clipPath id="eo"><path d="M135.051,67.305a3.246,3.246,0,0,1,1.119-6.377,3.356,3.356,0,0,1,.47.083,3.246,3.246,0,1,1-1.589,6.294m-3.484-4.227a4.41,4.41,0,0,0,3.2,5.358,4.482,4.482,0,0,0,.644.114,4.413,4.413,0,1,0-3.843-5.472" fill="none"/></clipPath><linearGradient id="ep" x1="-13.905" y1="23.17" x2="-13.799" y2="23.17" xlink:href="#n"/><clipPath id="eq"><path d="M135.785,53.1a10.993,10.993,0,0,0-10.931,9.861,11.01,11.01,0,0,0,9.817,12.06c.368.037.739.056,1.116.057a11.031,11.031,0,0,0,2.228-.227l.1-.02a.585.585,0,0,0,.457-.511.568.568,0,0,0-.01-.183.584.584,0,0,0-.693-.447,9.87,9.87,0,0,1-2.08.221h-.115a9.716,9.716,0,0,1-4.651-1.227A9.855,9.855,0,0,1,128.9,71.1l-.015-.016c-.016-.016-.032-.031-.048-.048a9.753,9.753,0,0,1-2.877-6.944q0-.51.05-1.01a9.823,9.823,0,0,1,19.594,1.008c0,.334-.017.667-.05,1a9.784,9.784,0,0,1-1.341,4.047.565.565,0,0,0-.08.24.583.583,0,0,0,1.081.359,10.96,10.96,0,0,0,1.5-4.528c.037-.37.056-.741.056-1.115A10.99,10.99,0,0,0,135.792,53.1h-.007" fill="none"/></clipPath><linearGradient id="er" x1="-5.679" y1="9.683" x2="-5.633" y2="9.683" xlink:href="#n"/></defs><g clip-path="url(#a)"><g clip-path="url(#b)"><rect width="388.797" height="389.688" transform="matrix(0.659, -0.753, 0.753, 0.659, -145.555, 155.91)" fill="#baeae8"/></g><g clip-path="url(#c)"><rect width="81.957" height="51.574" transform="translate(-15.407 158.726) rotate(-78.043)" fill="url(#d)"/></g><g clip-path="url(#a)"><path d="M7.855,154.932l17.245.277,3.1-16.984c9.472,19.454,31.856,27.584,57.469,19.286L98.6,181.553c-36.966,16.852-74.385,8.2-90.745-26.621" fill="#7d97f4"/></g><g clip-path="url(#f)"><rect width="66.211" height="127.087" transform="translate(129.505 129.042) rotate(-86.775)" fill="url(#g)"/></g><g clip-path="url(#a)"><path d="M214.523,158.48l11.411,26.655c41.634-17.341,54.233-76.064,16.643-101.935l.273,17.271-17.692,3.681c26.056,12.36,14.446,47.389-10.635,54.328" fill="#91b3fa"/><path d="M140.2,166.021c39.444,28.368,73.959,32.067,101.48,9.525l-19.37-6.883,5.392-17.252c-24.153,16.763-46.6,11.309-68.146-5.855Z" fill="#7d97f4"/><path d="M18.324,85.969v18.687l17.776.77c11.526-7.477,28.216-6.873,49.226-.15L97.535,78.207C65.61,64.535,39.436,67.8,18.324,85.969" fill="#7d97f4"/></g><g clip-path="url(#i)"><rect width="134.486" height="133.84" transform="translate(33.402 102.105) rotate(-29.675)" fill="url(#j)"/></g><g clip-path="url(#a)"><path d="M132.837,105.556c-6.754,7.221-11.175,17.868-17.522,25.433-10.122,12.066-22.745,27.655-45.524,29.683l18.6,9.622L77.316,188.448c37.149-7.383,63.142-31.616,75.165-59.218V102.665Z" fill="#91b3fa"/><path d="M139.144,28.287l90.42-.4a1.549,1.549,0,0,1,1.563,1.558l-.193,31.65a1.548,1.548,0,0,1-1.594,1.54c-7.973-.238-89.693-1.287-91.256-1.221-1.544.064-.705-24.93-.475-31.637a1.549,1.549,0,0,1,1.535-1.495" fill="#7d97f4"/><path d="M229.388,61.416h-.011c-5.1-.152-53.928-.761-77.4-1.054-6.862-.086-11.733-.146-13.032-.165h-.121l-.021-.12c-.555-3.129-.545-13.589.027-30.251a.324.324,0,0,1,.322-.312l90.42-.395a.324.324,0,0,1,.233.1.312.312,0,0,1,.094.23l-.193,31.65a.324.324,0,0,1-.322.323M139.075,59.9c1.461.02,6.246.08,12.909.163,23.469.293,72.3.9,77.4,1.054h.009c.009,0,.022-.015.022-.032l.193-31.65-.033-.178v.147l-90.419.4a.031.031,0,0,0-.031.03c-.565,16.434-.582,26.82-.052,30.07" fill="#fff"/><g opacity="0.7"><g clip-path="url(#l)"><g clip-path="url(#m)"><rect width="35.911" height="3.099" transform="translate(143.013 34.911)" fill="url(#n)"/></g></g></g><g opacity="0.7"><g clip-path="url(#o)"><g clip-path="url(#p)"><rect width="35.911" height="3.099" transform="translate(143.013 40.194)" fill="url(#q)"/></g></g></g><g opacity="0.7"><g clip-path="url(#r)"><g clip-path="url(#s)"><rect width="35.911" height="3.099" transform="translate(143.013 45.477)" fill="url(#t)"/></g></g></g><g opacity="0.7"><g clip-path="url(#u)"><g clip-path="url(#v)"><rect width="35.911" height="3.099" transform="translate(143.013 50.76)" fill="url(#w)"/></g></g></g><path d="M193.724,37.552a6.025,6.025,0,1,1-6.025-6.025,6.025,6.025,0,0,1,6.025,6.025" fill="#fff"/><path d="M208.7,37.552a6.025,6.025,0,1,1-6.025-6.025,6.025,6.025,0,0,1,6.025,6.025" fill="#fff"/><path d="M223.671,37.75a6.025,6.025,0,1,1-6.025-6.025,6.025,6.025,0,0,1,6.025,6.025" fill="#fff"/><path d="M191.279,36.279a3.87,3.87,0,1,1-3.58-2.4c.066,0,.131,0,.195,0V32.9c-.064,0-.13-.005-.195-.005a4.846,4.846,0,1,0,4.48,2.989Z" fill="#7d97f4"/><path d="M204.669,41.024a3.87,3.87,0,1,1-2.062-7.144c.065,0,.131,0,.2,0V32.9c-.065,0-.13,0-.2,0a4.85,4.85,0,1,0,2.548,8.977Z" fill="#7d97f4"/><path d="M220.876,39.925a3.87,3.87,0,1,1-3.2-6.046c.065,0,.13,0,.2,0V32.9c-.065,0-.13,0-.2,0a4.85,4.85,0,1,0,3.994,7.6Z" fill="#7d97f4"/><g opacity="0.64"><g clip-path="url(#x)"><g clip-path="url(#y)"><rect width="12.05" height="2.232" transform="translate(181.674 46.129)" fill="url(#z)"/></g><g clip-path="url(#aa)"><rect width="12.049" height="2.232" transform="translate(196.648 46.129)" fill="url(#ab)"/></g><g clip-path="url(#ac)"><rect width="12.05" height="2.232" transform="translate(211.621 46.129)" fill="url(#ad)"/></g><g clip-path="url(#ae)"><rect width="12.05" height="8.802" transform="translate(181.674 49.601)" fill="url(#af)"/></g><g clip-path="url(#ag)"><rect width="12.049" height="8.802" transform="translate(196.648 49.601)" fill="url(#ah)"/></g><g clip-path="url(#ai)"><rect width="12.05" height="8.802" transform="translate(211.621 49.601)" fill="url(#aj)"/></g></g></g><path d="M100.079,251.364s-.493,2.642-.747,5.26a1.805,1.805,0,0,0,1.708,1.972c3.488.179,10.948.533,13.628.439a.587.587,0,0,0,.524-.8,1.314,1.314,0,0,0-.666-.715l-12.273-5.783Z" fill="#263238"/></g><g clip-path="url(#ak)"><rect width="4.693" height="4.026" transform="translate(99.667 254.001) rotate(-89.456)" fill="url(#al)"/></g><g clip-path="url(#a)"><path d="M100.561,190.288c-.17.825-1.264,41.249,2.884,59.408a.615.615,0,0,1-.367.712,10.741,10.741,0,0,1-3.527.682,1.059,1.059,0,0,1-1.043-.771c-1.195-4.215-6.914-25.333-7.494-45.46-.649-22.49.007-.766.007-.766L91.66,190.2Z" fill="#263238"/><path d="M85.885,252.61a19.037,19.037,0,0,0-1.511,4.873,1.1,1.1,0,0,0,.956,1.328c1.151.124,2.923.287,4.344.291a1.1,1.1,0,0,0,1.1-1.215,9.263,9.263,0,0,0-2.114-5.1Z" fill="#263238"/></g><g clip-path="url(#an)"><rect width="5.638" height="3.467" transform="matrix(0.009, -1, 1, 0.009, 85.218, 253.98)" fill="url(#ao)"/></g><g clip-path="url(#a)"><path d="M83.444,191.366c-3.738,21.3.264,52.729,1.656,58.887a.958.958,0,0,0,.766.735,6.432,6.432,0,0,0,2.766-.084.878.878,0,0,0,.639-.8c.242-4.966.183-35.463,3.591-47.483a2.742,2.742,0,0,1,1.07-1.5l6.436-4.483.56-7.341Z" fill="#263238"/><path d="M106.352,151.162c-10.591-.276-22.306,2.569-22.306,2.569-3.334,18.393-.931,39.667-.931,39.667,8.18,2.229,17.463-1.148,17.463-1.148,1.437-7.687,8-29.3,8-29.3a34.911,34.911,0,0,0,12.989-3.986,22.706,22.706,0,0,1-4.4-9.433,35.517,35.517,0,0,1-10.818,1.629" fill="#0043ff"/></g><g clip-path="url(#aq)"><rect width="24.12" height="20.845" transform="translate(116.943 158.963) rotate(-89.456)" fill="url(#ar)"/></g><g clip-path="url(#as)"><rect width="13.119" height="9.244" transform="translate(133.452 136.769) rotate(-81.431)" fill="url(#at)"/></g><g clip-path="url(#au)"><rect width="5.816" height="5.284" transform="matrix(0.553, -0.833, 0.833, 0.553, 134.475, 133.187)" fill="url(#av)"/></g><g clip-path="url(#a)"><path d="M88.011,164.026l-3.965-10.295s-9.958,6.628-11.666,15.136a23.407,23.407,0,0,1,8.579,2.387c.77-4.018,7.052-7.228,7.052-7.228" fill="#0043ff"/></g><g clip-path="url(#ax)"><rect width="20.397" height="26.335" transform="matrix(0.009, -1, 1, 0.009, 71.673, 189.014)" fill="url(#ay)"/></g><g clip-path="url(#az)"><rect width="12.254" height="10.496" transform="translate(92.069 154.615) rotate(-89.456)" fill="url(#ba)"/></g><g clip-path="url(#bb)"><rect width="17.216" height="17.112" transform="matrix(0.529, -0.849, 0.849, 0.529, 88.796, 142.597)" fill="url(#bc)"/></g><g clip-path="url(#bd)"><rect width="22.593" height="22.609" transform="translate(81.46 137.607) rotate(-51.153)" fill="url(#be)"/></g><g clip-path="url(#bf)"><rect width="4.432" height="4.753" transform="matrix(0.529, -0.849, 0.849, 0.529, 93.515, 141.424)" fill="url(#bg)"/></g><g clip-path="url(#bh)"><rect width="32.902" height="29.833" transform="matrix(0.972, -0.233, 0.233, 0.972, 88.737, 161.806)" fill="url(#bi)"/></g><g clip-path="url(#bj)"><rect width="8.366" height="7.448" transform="translate(94.905 171.136)" fill="url(#bk)"/></g><g clip-path="url(#a)"><path d="M108.468,167.362a1.786,1.786,0,1,0,1.786-1.786,1.786,1.786,0,0,0-1.786,1.786" fill="#91b3fa"/></g><g clip-path="url(#bm)"><rect width="17.392" height="6.67" transform="translate(100.599 161.869)" fill="url(#bn)"/></g><g clip-path="url(#a)"><path d="M29.054,228c-.648.96-3.226,22.687-3.629,30.712a.951.951,0,0,0,1.889.19l4.715-30.211Z" fill="#7d97f4"/><path d="M49.777,228c.649.96,3.226,22.687,3.629,30.712a.951.951,0,0,1-1.889.19L46.8,228.689Z" fill="#7d97f4"/><path d="M25.155,226.3l0,.237a3.23,3.23,0,0,0,3.291,3.134l21.791.371a3.258,3.258,0,0,0,3.411-2.957l.012-.217a3.219,3.219,0,0,0-3.285-3.259l-21.8-.39a3.245,3.245,0,0,0-3.418,3.081" fill="#7d97f4"/><path d="M71.058,257.92c-3.874,0-5.588-.332-6.354-.635a1.47,1.47,0,0,0,1.432,1.138h13.7a.667.667,0,0,0,.643-.842c-1.562.126-4.88.339-9.424.339" fill="#7d97f4"/></g><g clip-path="url(#bp)"><rect width="6.185" height="16.238" transform="translate(64.087 257.839) rotate(-81.764)" fill="url(#bq)"/></g><g clip-path="url(#br)"><rect width="4.275" height="4.147" transform="translate(65.494 251.252)" fill="url(#bs)"/></g><g clip-path="url(#a)"><path d="M94.837,255.906c-3.02,2.426-4.563,3.242-5.349,3.487a1.467,1.467,0,0,0,1.825-.014L102,250.8a.664.664,0,0,0-.024-1.055c-1.139,1.075-3.593,3.319-7.135,6.165" fill="#7d97f4"/></g><g clip-path="url(#bu)"><rect width="11.945" height="15.221" transform="matrix(0.143, -0.99, 0.99, 0.143, 86.623, 259.187)" fill="url(#bv)"/></g><g clip-path="url(#a)"><path d="M46.318,214.814s23.192,1.894,27.949,4.133-3.882,33.63-3.882,33.63-1.3.623-4.177-.273c0,0,2.955-23.164.756-28.187l-25.111-4.108Z" fill="#263238"/></g><g clip-path="url(#bx)"><rect width="5.104" height="5.777" transform="translate(85.744 250.564)" fill="url(#by)"/></g><g clip-path="url(#a)"><path d="M32.35,214.62a11.742,11.742,0,0,0-.725,4.235,6.36,6.36,0,0,0,6.068,6.221l27.416,1.25a1.316,1.316,0,0,1,1.214.988c.644,2.492,3.793,10.145,19.187,25.415a1.241,1.241,0,0,0,1.535.167l2.191-1.384a.5.5,0,0,0,.166-.682L73.439,223.571a6.176,6.176,0,0,0-3.754-2.784l-23.367-5.973Z" fill="#263238"/></g><g clip-path="url(#ca)"><rect width="14.345" height="14.126" transform="matrix(0.369, -0.93, 0.93, 0.369, 49.613, 181.683)" fill="url(#cb)"/></g><g clip-path="url(#a)"><path d="M31.852,214.814a33.921,33.921,0,0,0,14.466,0s9.886-13.289,13.71-16.906A27.206,27.206,0,0,0,79.707,208.9l.757-1.693s-10.81-4.983-14.137-12.639-4.665-10.923-7.692-12.92c-1.886-1.244-3.015-2.094-3.6-2.558a.969.969,0,0,0-1.109-.071c-3.213,1.958-18.332,12.313-22.076,35.8" fill="#0043ff"/><path d="M59.627,197.721a.472.472,0,0,1-.377-.186,29.48,29.48,0,0,1-3.724-6.6.475.475,0,1,1,.886-.341A29.1,29.1,0,0,0,60,196.957a.474.474,0,0,1-.376.764" fill="#3740a5"/></g><g clip-path="url(#cd)"><rect width="11.79" height="2.842" transform="translate(78.89 204.785)" fill="url(#ce)"/></g><g clip-path="url(#cf)"><rect width="18.879" height="18.879" transform="matrix(0.708, -0.706, 0.706, 0.708, 48.722, 170.983)" fill="url(#cg)"/></g><g clip-path="url(#ch)"><rect width="23.137" height="23.131" transform="translate(42.85 167.086) rotate(-45.341)" fill="url(#ci)"/></g><g clip-path="url(#cj)"><rect width="5.403" height="5.403" transform="matrix(0.708, -0.706, 0.706, 0.708, 53.368, 172.177)" fill="url(#ck)"/></g><g clip-path="url(#a)"><path d="M74.633,209.788h.054l23.54-.023a1.052,1.052,0,1,0,0-2.1l-23.539.024a1.052,1.052,0,0,0-.052,2.1" fill="#263238"/><path d="M107.343,186.735l-.024.049-9.9,21.354a1.052,1.052,0,1,0,1.908.885l9.9-21.355a1.051,1.051,0,0,0-1.884-.933" fill="#263238"/><rect width="2.484" height="26.868" transform="translate(166.5 231.249)" fill="#7d97f4"/><path d="M178.622,258.635h-21.76a1.617,1.617,0,0,1,1.617-1.617h18.526a1.617,1.617,0,0,1,1.617,1.617" fill="#7d97f4"/><path d="M2.672,0H24.688a2.671,2.671,0,0,1,2.671,2.671V5.088A2.672,2.672,0,0,1,24.687,7.76H2.672A2.672,2.672,0,0,1,0,5.088V2.672A2.672,2.672,0,0,1,2.672,0Z" transform="translate(154.492 225.228)" fill="#7d97f4"/></g><g clip-path="url(#cm)"><rect width="18.082" height="44.215" transform="matrix(1, -0.007, 0.007, 1, 140.149, 213.347)" fill="url(#cn)"/></g><g clip-path="url(#co)"><rect width="13.915" height="13.908" transform="matrix(0.059, -0.998, 0.998, 0.059, 143.585, 259.907)" fill="url(#cp)"/></g><g clip-path="url(#cq)"><rect width="37.353" height="44.564" transform="matrix(1, -0.007, 0.007, 1, 119.75, 214.714)" fill="url(#cr)"/></g><g clip-path="url(#a)"><path d="M178.451,208.106s5.566,8.163,6.043,11.9-1.476,5.27-7.258,5.559-21.224.386-21.224.386l-13.253-11.176s9.582-3.491,12.072-4.476,23.62-2.193,23.62-2.193" fill="#263238"/></g><g clip-path="url(#ct)"><rect width="6.538" height="17.321" transform="translate(117.159 261.096) rotate(-86.646)" fill="url(#cu)"/></g><g clip-path="url(#cv)"><rect width="42.353" height="43.543" transform="translate(142.13 190.748) rotate(-79.223)" fill="url(#cw)"/></g><g clip-path="url(#a)"><path d="M163.714,207.2a125.87,125.87,0,0,1-9.581-10.161,8.592,8.592,0,0,1-1.454-7.732,107.116,107.116,0,0,1,4.24-10.678c.359-1.2,7.557-1.151,7.557-1.151s14.164,9.193,19.729,24.765l-6.25,1.946a73.079,73.079,0,0,0-7.351-10.15s6.322,8.353,6.544,11.773Z" fill="#0043ff"/></g><g clip-path="url(#cy)"><rect width="9.589" height="11.474" transform="translate(154.474 168.763) rotate(-8.858)" fill="url(#cz)"/></g><g clip-path="url(#da)"><rect width="17.167" height="18.796" transform="matrix(0.948, -0.32, 0.32, 0.948, 142.919, 163.177)" fill="url(#db)"/></g><g clip-path="url(#dc)"><rect width="22.098" height="21.534" transform="translate(138.095 162.34) rotate(-42.05)" fill="url(#dd)"/></g><g clip-path="url(#de)"><rect width="5.621" height="5.741" transform="translate(154.092 163.6) rotate(-18.641)" fill="url(#df)"/></g><g clip-path="url(#dg)"><rect width="35.224" height="8.113" transform="translate(150.636 202.245)" fill="url(#dh)"/></g><g clip-path="url(#a)"><path d="M168.484,209.8c-.021,0-.042,0-.063,0l-27.36-.029a1.225,1.225,0,0,1,0-2.45l27.36.03a1.225,1.225,0,0,1,.06,2.448" fill="#263238"/><path d="M116.466,184.958h22.786a4.343,4.343,0,0,1,3.927,2.49l10.534,22.337H125.4a2.64,2.64,0,0,1-2.455-1.67l-8.168-20.669a1.819,1.819,0,0,1,1.692-2.488" fill="#263238"/><path d="M132.519,196.411c.494,1.534.129,3.024-.815,3.328s-2.109-.694-2.6-2.228-.129-3.024.815-3.328,2.109.694,2.6,2.228" fill="#91b3fa"/><path d="M199.677,255.248a33.365,33.365,0,0,1,.4,3.487,1.5,1.5,0,0,1-1.354,1.586c-2.8.271-9.175.773-13.245.185a.683.683,0,0,1-.376-1.175,21.146,21.146,0,0,1,12.4-5.27Z" fill="#263238"/></g><g clip-path="url(#dj)"><rect width="6.33" height="5.697" transform="translate(195.337 255.803) rotate(-82.711)" fill="url(#dk)"/></g><g clip-path="url(#a)"><path d="M225.276,258.012a14.859,14.859,0,0,0-3.94,5.415,1.294,1.294,0,0,0,1.229,1.719H228.4a1.376,1.376,0,0,0,1.36-1.609c-.371-2.1-1.443-5.516-4.483-5.525" fill="#263238"/></g><g clip-path="url(#dm)"><rect width="5.624" height="4.961" transform="matrix(0.127, -0.992, 0.992, 0.127, 223.797, 259.524)" fill="url(#dn)"/></g><g clip-path="url(#a)"><path d="M213.709,197.885,196.463,250.5s3.308,2.166,4.884,2.076l20.484-42.282s3.584,26.053,1.848,44.757l5.867.447s9.54-47.8,2.314-64.169Z" fill="#263238"/><path d="M221.72,209.837h.021a.168.168,0,0,0,.145-.187l-.669-5.312a.167.167,0,1,0-.332.042l.669,5.312a.168.168,0,0,0,.166.146" fill="#91b3fa"/><path d="M210.476,151.59s13.972,1.241,12,11.2a135.743,135.743,0,0,1,11.334,31.657,1.007,1.007,0,0,1-.817,1.2l-23.268,3.984a1.254,1.254,0,0,1-1.424-.921l-5.56-21.487-2.166,9.99-6.884-1.794,5.795-29.355s.808-4.283,10.994-4.467" fill="#0043ff"/><path d="M202.619,176.254a.161.161,0,0,0,.037,0,.173.173,0,0,0,.132-.206l-1.939-8.906a.173.173,0,1,0-.339.074l1.94,8.906a.173.173,0,0,0,.169.136" fill="#3740a5"/></g><g clip-path="url(#dp)"><rect width="25.277" height="25.229" transform="translate(190.037 197.225) rotate(-46.878)" fill="url(#dq)"/></g><g clip-path="url(#dr)"><rect width="32.399" height="30.054" transform="translate(168.171 160.273)" fill="url(#ds)"/></g><g clip-path="url(#dt)"><rect width="16.834" height="16.95" transform="translate(193.93 149.32) rotate(-44.266)" fill="url(#du)"/></g><g clip-path="url(#dv)"><rect width="17.025" height="17.694" transform="matrix(0.798, -0.603, 0.603, 0.798, 186.336, 140.503)" fill="url(#dw)"/></g><g clip-path="url(#dx)"><rect width="17.562" height="21.998" transform="translate(189.312 131.386)" fill="url(#dy)"/></g><g clip-path="url(#dz)"><rect width="6.901" height="6.924" transform="translate(200.214 141.506) rotate(-44.266)" fill="url(#ea)"/></g><g clip-path="url(#a)"><path d="M215.2,188.458a16.389,16.389,0,0,0,1.708-.081l.124-.013,5.088-23.721a.173.173,0,1,0-.339-.073l-5.035,23.475c-.757.066-4.8.335-6.935-1.177l4.407-20.609-.92-1.734a.173.173,0,1,0-.306.163l.861,1.622-4.427,20.7.088.067c1.542,1.159,4.027,1.378,5.686,1.378" fill="#3740a5"/><path d="M62.678,260.78a.814.814,0,0,1-.35-.079,1,1,0,0,1-.464-1.271l18.591-47.172a.861.861,0,0,1,1.165-.507,1,1,0,0,1,.464,1.271L63.493,260.2a.887.887,0,0,1-.815.585" fill="#91b3fa"/><path d="M83.622,260.78a.888.888,0,0,1-.815-.585L64.216,213.022a1,1,0,0,1,.464-1.271.861.861,0,0,1,1.165.507L84.436,259.43a1,1,0,0,1-.464,1.271.814.814,0,0,1-.35.079" fill="#91b3fa"/><path d="M188.853,260.78a.814.814,0,0,1-.35-.079,1,1,0,0,1-.464-1.271l18.591-47.172a.861.861,0,0,1,1.165-.507,1,1,0,0,1,.464,1.271L189.668,260.2a.888.888,0,0,1-.815.585" fill="#91b3fa"/><path d="M209.8,260.78a.888.888,0,0,1-.815-.585L190.39,213.022a1,1,0,0,1,.464-1.271.861.861,0,0,1,1.165.507L210.61,259.43a1,1,0,0,1-.464,1.271.814.814,0,0,1-.35.079" fill="#91b3fa"/><path d="M186.155,208.926h26.927v-2.779H186.155c.576,0,.576,2.779,0,2.779" fill="#bdd0fb"/></g><g clip-path="url(#ec)"><rect width="29.7" height="15.311" transform="translate(183.915 206.103) rotate(-22.348)" fill="url(#ed)"/></g><g clip-path="url(#a)"><path d="M216.985,210.8a.821.821,0,0,0-.336-.875,2,2,0,0,0-1.231-.385H54.075a2.182,2.182,0,0,0-1.547.562.877.877,0,0,0-.12,1.167l1.748,2.511a2.73,2.73,0,0,0,2.223.942H214.311a1.818,1.818,0,0,0,1.82-1Z" fill="#91b3fa"/><g opacity="0.3"><g clip-path="url(#ef)"><path d="M128.929,46.184a.945.945,0,0,1-.733-1.117c.207-.992.373-2.008.495-3.02a.945.945,0,0,1,1.033-.826l.018,0a.944.944,0,0,1,.825,1.05c-.129,1.065-.3,2.135-.521,3.179a.945.945,0,0,1-1.019.747.8.8,0,0,1-.1-.015m.018-9.1c-.017-1.018-.078-2.045-.181-3.053a.944.944,0,1,1,1.879-.192c.108,1.061.172,2.142.191,3.213a.946.946,0,0,1-.929.961,1.037,1.037,0,0,1-.112-.005.944.944,0,0,1-.848-.924m-1.029-7.948c-.243-.986-.531-1.973-.858-2.935a.945.945,0,0,1,1.789-.608c.344,1.013.648,2.053.9,3.092a.944.944,0,0,1-1.834.451m-2.78-7.519c-.458-.908-.96-1.806-1.493-2.671a.944.944,0,0,1,1.608-.991c.561.911,1.09,1.857,1.571,2.812a.944.944,0,1,1-1.686.85M120.751,14.9c-.646-.782-1.335-1.548-2.047-2.275a.944.944,0,1,1,1.349-1.321c.75.764,1.474,1.57,2.154,2.392a.945.945,0,1,1-1.456,1.2m-5.762-5.574c-.8-.621-1.645-1.214-2.5-1.765a.944.944,0,0,1,1.023-1.588c.9.579,1.784,1.2,2.631,1.857a.945.945,0,0,1-1.155,1.5M80.464,3.162a.944.944,0,0,1,.592-1.2c1.013-.342,2.054-.644,3.1-.9A.944.944,0,0,1,84.6,2.9c-.989.241-1.977.528-2.938.853a.944.944,0,0,1-1.2-.593m27.675,2.013c-.921-.426-1.872-.817-2.827-1.162a.944.944,0,1,1,.642-1.776c1.006.363,2.007.775,2.978,1.223a.945.945,0,1,1-.793,1.715M88.462,1.218A.945.945,0,0,1,89.308.184C90.371.078,91.453.016,92.523,0a.945.945,0,0,1,.029,1.889c-1.018.015-2.046.074-3.056.175a1,1,0,0,1-.19,0,.947.947,0,0,1-.844-.846m12.072,1.437c-.993-.209-2.008-.378-3.017-.5A.944.944,0,0,1,97.726.277l.02,0c1.063.13,2.131.307,3.176.527a.944.944,0,0,1-.288,1.864.862.862,0,0,1-.1-.015" fill="#bdd0fb"/><path d="M75.2,6.482a.94.94,0,0,0,.553-.114c.425-.236.863-.468,1.3-.688A.944.944,0,0,0,76.2,3.993c-.461.231-.921.475-1.369.723A.945.945,0,0,0,75.2,6.482" fill="#bdd0fb"/></g></g><g opacity="0.3"><g clip-path="url(#eg)"><path d="M57.479,29.179a.945.945,0,0,0,1.007-.7c.125-.471.262-.947.407-1.414a.945.945,0,1,0-1.8-.561c-.153.493-.3.994-.429,1.49a.944.944,0,0,0,.67,1.155,1,1,0,0,0,.149.027" fill="#bdd0fb"/><path d="M87.436,75.015a.944.944,0,1,1,.282-1.867c.982.148,1.985.257,2.994.325a.945.945,0,1,1-.127,1.885q-.655-.045-1.3-.11c-.617-.063-1.238-.141-1.845-.233m7.289-.538A.945.945,0,0,1,95.6,73.47c1-.069,2.006-.18,2.993-.332A.944.944,0,0,1,98.883,75c-1.039.16-2.1.277-3.151.349a.96.96,0,0,1-.161,0,.945.945,0,0,1-.846-.875M82.411,73.9c-1.007-.3-2.016-.642-3-1.024a.945.945,0,0,1,.686-1.761c.932.364,1.89.691,2.847.973a.945.945,0,0,1-.361,1.846.972.972,0,0,1-.174-.034m20.32-.659a.945.945,0,0,1,.635-1.175c.958-.285,1.916-.616,2.845-.981a.944.944,0,1,1,.691,1.758c-.979.385-1.987.733-3,1.033a.932.932,0,0,1-.365.036.947.947,0,0,1-.81-.671M74.76,70.683c-.917-.511-1.825-1.069-2.7-1.658a.945.945,0,0,1,1.056-1.567c.83.56,1.693,1.09,2.564,1.576a.944.944,0,0,1-.556,1.764.931.931,0,0,1-.365-.115M68,65.866c-.785-.7-1.549-1.444-2.272-2.207a.944.944,0,0,1,1.371-1.3c.687.725,1.414,1.431,2.16,2.1A.944.944,0,1,1,68,65.866M62.45,59.69c-.614-.856-1.2-1.747-1.737-2.649a.944.944,0,1,1,1.621-.969c.512.857,1.068,1.7,1.651,2.518a.944.944,0,1,1-1.535,1.1m-4.07-7.239c-.412-.969-.787-1.968-1.115-2.967a.944.944,0,1,1,1.794-.589c.312.949.668,1.9,1.06,2.818a.945.945,0,1,1-1.739.738M56,44.49c-.188-1.034-.334-2.09-.434-3.138a.944.944,0,0,1,1.88-.18c.1,1,.234,2,.412,2.981a.944.944,0,0,1-.76,1.1.989.989,0,0,1-.265.011A.946.946,0,0,1,56,44.49m-.575-8.281c.031-.774.086-1.556.164-2.325q.042-.418.093-.832a.934.934,0,0,1,1.053-.822.944.944,0,0,1,.822,1.053q-.048.393-.089.791c-.074.731-.126,1.475-.156,2.21a.944.944,0,0,1-.981.906l-.058,0a.944.944,0,0,1-.848-.977" fill="#bdd0fb"/><path d="M111.018,70.74a.938.938,0,0,0,.557-.116c.446-.25.9-.515,1.334-.786a.945.945,0,1,0-.992-1.608c-.417.258-.844.509-1.267.747a.944.944,0,0,0,.368,1.763" fill="#bdd0fb"/></g></g><path d="M115.41,55.155a.442.442,0,0,0,.085-.5l-2.354-4.83a23.406,23.406,0,0,0,2.9-7.005l5.075-1.75a.443.443,0,0,0,.3-.418V34.2a.441.441,0,0,0-.3-.417l-5.076-1.75a23.4,23.4,0,0,0-2.9-7l2.353-4.83a.443.443,0,0,0-.085-.506L110.85,15.14a.442.442,0,0,0-.506-.085l-4.829,2.354a23.406,23.406,0,0,0-7-2.9L96.759,9.429a.441.441,0,0,0-.417-.3H89.9a.443.443,0,0,0-.418.3l-1.749,5.076a23.391,23.391,0,0,0-7,2.9L75.9,15.058a.439.439,0,0,0-.505.085L70.834,19.7a.44.44,0,0,0-.084.5l2.353,4.83a23.419,23.419,0,0,0-2.9,7.005l-5.076,1.75a.442.442,0,0,0-.3.418v6.444a.441.441,0,0,0,.3.417l5.076,1.75a23.4,23.4,0,0,0,2.9,7l-2.352,4.83a.442.442,0,0,0,.084.506l4.558,4.556a.442.442,0,0,0,.505.085l4.83-2.354a23.4,23.4,0,0,0,7,2.9l1.751,5.076a.441.441,0,0,0,.417.3h6.445a.441.441,0,0,0,.417-.3l1.75-5.076a23.4,23.4,0,0,0,7-2.9l4.83,2.353a.442.442,0,0,0,.5-.085Z" fill="#bdd0fb"/></g><g clip-path="url(#eh)"><rect width="14.31" height="13.244" transform="translate(85.967 30.947)" fill="url(#ei)"/></g><g clip-path="url(#ej)"><rect width="31.855" height="31.856" transform="translate(77.106 21.395)" fill="url(#ek)"/></g><g clip-path="url(#a)"><g opacity="0.3"><g clip-path="url(#em)"><path d="M158.587,74.208a.584.584,0,0,0,.6-.361c.186-.458.362-.929.521-1.4a.583.583,0,0,0-1.1-.374c-.152.448-.319.9-.5,1.334a.584.584,0,0,0,.321.76.551.551,0,0,0,.161.04" fill="#bdd0fb"/><path d="M159.83,69.9a.584.584,0,0,1-.453-.689,24.412,24.412,0,0,0,.369-2.42c.017-.17.033-.342.047-.514a.583.583,0,0,1,.628-.535.605.605,0,0,1,.535.629c-.015.18-.031.359-.049.538a25.285,25.285,0,0,1-.388,2.536.582.582,0,0,1-.629.463l-.06-.008m.019-6.585a24.206,24.206,0,0,0-.306-2.946.583.583,0,1,1,1.151-.191,25.306,25.306,0,0,1,.32,3.088.584.584,0,0,1-.558.608.777.777,0,0,1-.084,0,.583.583,0,0,1-.523-.556m-.974-5.832a23.818,23.818,0,0,0-1.021-2.782.584.584,0,0,1,1.069-.469,25.338,25.338,0,0,1,1.07,2.917.583.583,0,0,1-1.118.334M156.5,52.073a23.92,23.92,0,0,0-1.67-2.446.584.584,0,0,1,.921-.717,25.119,25.119,0,0,1,1.751,2.566.583.583,0,1,1-1,.6M152.871,47.4a24.285,24.285,0,0,0-2.214-1.967.584.584,0,0,1,.721-.918,25.333,25.333,0,0,1,2.32,2.062.583.583,0,1,1-.827.823m-4.651-3.648a23.924,23.924,0,0,0-2.624-1.367.583.583,0,0,1,.474-1.066,25.045,25.045,0,0,1,2.753,1.433.584.584,0,0,1-.361,1.08.577.577,0,0,1-.242-.08m-5.4-2.4a24.045,24.045,0,0,0-2.882-.681.583.583,0,0,1,.2-1.15,25.187,25.187,0,0,1,3.022.715.583.583,0,0,1-.227,1.138.545.545,0,0,1-.111-.022m-9.415-1.5a.583.583,0,0,1,.538-.625,25.5,25.5,0,0,1,2.7-.058c.137,0,.273.01.409.016a.578.578,0,0,1,.554.612.584.584,0,0,1-.611.554c-.128-.007-.256-.012-.386-.015a24,24,0,0,0-2.576.054.589.589,0,0,1-.1,0,.583.583,0,0,1-.522-.537" fill="#bdd0fb"/></g></g><g opacity="0.3"><g clip-path="url(#en)"><path d="M132.956,89.382a25.439,25.439,0,0,1-3.008-.529.584.584,0,0,1,.272-1.135,24.133,24.133,0,0,0,2.868.5.583.583,0,0,1-.124,1.16h-.008m2.464-.416a.583.583,0,0,1,.58-.586,24.37,24.37,0,0,0,2.908-.193.584.584,0,0,1,.147,1.158,25.67,25.67,0,0,1-3.048.2.436.436,0,0,1-.063,0,.582.582,0,0,1-.524-.577m-8.395-1.005a25.315,25.315,0,0,1-2.791-1.241.584.584,0,0,1,.538-1.036,24.281,24.281,0,0,0,2.662,1.185A.583.583,0,0,1,127.171,88a.6.6,0,0,1-.146-.034m14.324.392a.582.582,0,0,1,.421-.709,23.954,23.954,0,0,0,2.775-.889.583.583,0,1,1,.423,1.087,25.068,25.068,0,0,1-2.91.932.583.583,0,0,1-.709-.421m-19.733-3.2a25.382,25.382,0,0,1-2.41-1.876.583.583,0,0,1,.771-.876,24.072,24.072,0,0,0,2.3,1.789.584.584,0,0,1-.389,1.062.592.592,0,0,1-.271-.1m-4.577-4.028a25.32,25.32,0,0,1-1.892-2.4.583.583,0,1,1,.957-.666,24.455,24.455,0,0,0,1.806,2.288.583.583,0,0,1-.871.776m-3.482-5.008a25.281,25.281,0,0,1-1.262-2.783.584.584,0,0,1,1.09-.417,23.7,23.7,0,0,0,1.2,2.654.583.583,0,0,1-.244.788.562.562,0,0,1-.33.065.583.583,0,0,1-.458-.307" fill="#bdd0fb"/><path d="M147.434,86.616a.587.587,0,0,0,.335-.067c.44-.237.874-.487,1.292-.745a.583.583,0,1,0-.613-.993c-.4.246-.813.485-1.232.711a.583.583,0,0,0,.218,1.094" fill="#bdd0fb"/></g></g><path d="M150.759,76.021a.3.3,0,0,0,.057-.338l-1.575-3.232a15.67,15.67,0,0,0,1.943-4.687l3.4-1.172a.3.3,0,0,0,.2-.279V62a.3.3,0,0,0-.2-.279l-3.4-1.171a15.625,15.625,0,0,0-1.944-4.687l1.575-3.232a.3.3,0,0,0-.057-.338l-3.049-3.049a.3.3,0,0,0-.339-.057l-3.232,1.575a15.648,15.648,0,0,0-4.687-1.943l-1.171-3.4a.3.3,0,0,0-.279-.2h-4.313a.3.3,0,0,0-.279.2l-1.171,3.4a15.7,15.7,0,0,0-4.687,1.944l-3.232-1.574a.294.294,0,0,0-.338.057L120.931,52.3a.3.3,0,0,0-.057.338l1.575,3.232a15.67,15.67,0,0,0-1.943,4.687l-3.4,1.172a.3.3,0,0,0-.2.279v4.312a.3.3,0,0,0,.2.279l3.4,1.171a15.625,15.625,0,0,0,1.944,4.687l-1.575,3.232a.3.3,0,0,0,.057.338l3.05,3.049a.294.294,0,0,0,.338.057l3.232-1.575A15.649,15.649,0,0,0,132.24,79.5l1.171,3.4a.3.3,0,0,0,.279.2H138a.3.3,0,0,0,.279-.2l1.171-3.4a15.7,15.7,0,0,0,4.687-1.944l3.232,1.574a.294.294,0,0,0,.338-.057Z" fill="#bdd0fb"/></g><g clip-path="url(#eo)"><rect width="9.441" height="8.898" transform="translate(131.278 59.746)" fill="url(#ep)"/></g><g clip-path="url(#eq)"><rect width="21.977" height="21.978" transform="translate(124.798 53.099)" fill="url(#er)"/></g></g></svg>