<svg xmlns="http://www.w3.org/2000/svg" xmlns:xlink="http://www.w3.org/1999/xlink" width="820" height="555.583" viewBox="0 0 820 555.583"><defs><clipPath id="a"><rect width="757.628" height="525.343" fill="none"/></clipPath><clipPath id="b"><rect width="60.48" height="60.48" transform="translate(861.436 332.416)" fill="none"/></clipPath><clipPath id="c"><rect width="43.68" height="43.68" transform="translate(869.836 340.816)" fill="none"/></clipPath></defs><g transform="translate(-390 -1364)"><g transform="translate(422 1364)"><g clip-path="url(#a)"><path d="M351.049,285.658a188.729,188.729,0,0,1-103.46-38.133l1.815-2.389a184.8,184.8,0,0,0,101.812,37.527Z" fill="#0043ff"/><path d="M361.592,287.453q-5.3,0-10.626-.3l.335-5.991a184.012,184.012,0,0,0,139.346-52.9l4.226,4.259a190.15,190.15,0,0,1-133.281,54.934Z" fill="#3740a5"/><path d="M494.521,232.164,491,228.616A184.114,184.114,0,0,0,541.205,137.2l4.884,1.072a189.74,189.74,0,0,1-51.568,93.889Z" fill="#00ece1"/><path d="M256.422,246.838a5.583,5.583,0,1,1-7.192-3.259,5.583,5.583,0,0,1,7.192,3.259" fill="#fff"/><path d="M251.2,242.47a6.34,6.34,0,1,1-2.23.407A6.319,6.319,0,0,1,251.2,242.47Zm0,11.169a4.835,4.835,0,1,0-4.526-3.133A4.817,4.817,0,0,0,251.2,253.639Z" fill="#0043ff"/><path d="M500.878,227.342a8.376,8.376,0,1,1-10.788-4.89,8.375,8.375,0,0,1,10.788,4.89" fill="#fff"/><path d="M493.037,221.284a9.01,9.01,0,1,1-3.169.579A8.988,8.988,0,0,1,493.037,221.284Zm0,16.755a7.747,7.747,0,1,0-7.251-5.02A7.719,7.719,0,0,0,493.04,238.039Z" fill="#00ece1"/><path d="M357.436,281.31a6.8,6.8,0,1,1-8.762-3.971,6.8,6.8,0,0,1,8.762,3.971" fill="#fff"/><path d="M351.068,276.089a7.625,7.625,0,1,1-2.68.49A7.6,7.6,0,0,1,351.068,276.089Zm0,13.608a5.992,5.992,0,1,0-5.608-3.883A5.971,5.971,0,0,0,351.07,289.7Z" fill="#3740a5"/><path d="M359.062,315.745a247.737,247.737,0,0,1-53.889-5.9,21.076,21.076,0,0,0-24.328,13.46L227.083,471.578a21.112,21.112,0,0,0,14.193,27.578,448.706,448.706,0,0,0,235.569,0,21.109,21.109,0,0,0,14.193-27.577L437.277,323.3a21.08,21.08,0,0,0-24.329-13.461,247.71,247.71,0,0,1-53.886,5.9" fill="#d8dbe8"/><path d="M142.377,223.584,9.722,308.813a21.159,21.159,0,0,0-5.37,30.651A447.956,447.956,0,0,0,173.363,474.532a21.163,21.163,0,0,0,28.713-12.018l53.762-148.276a21.2,21.2,0,0,0-10.286-26.045,248.183,248.183,0,0,1-75.484-60.329,21.209,21.209,0,0,0-27.691-4.28" fill="#d8dbe8"/><path d="M462.284,314.239l53.761,148.277a21.163,21.163,0,0,0,28.713,12.018A447.972,447.972,0,0,0,713.77,339.465a21.159,21.159,0,0,0-5.371-30.651L575.745,223.585a21.209,21.209,0,0,0-27.691,4.28,248.187,248.187,0,0,1-75.485,60.329,21.2,21.2,0,0,0-10.285,26.045" fill="#d8dbe8"/><path d="M486.867,133.414A127.806,127.806,0,1,1,359.061,5.608,127.806,127.806,0,0,1,486.867,133.414" fill="#1e847c"/><path d="M359.062,310.169a247.737,247.737,0,0,1-53.889-5.9,21.076,21.076,0,0,0-24.328,13.46L227.083,466a21.112,21.112,0,0,0,14.193,27.578,448.706,448.706,0,0,0,235.569,0A21.109,21.109,0,0,0,491.038,466L437.277,317.725a21.08,21.08,0,0,0-24.329-13.461,247.71,247.71,0,0,1-53.886,5.9" fill="#213b82"/><path d="M142.377,218.007,9.722,303.236a21.16,21.16,0,0,0-5.37,30.652A447.975,447.975,0,0,0,173.363,468.956a21.164,21.164,0,0,0,28.713-12.019l53.762-148.276a21.2,21.2,0,0,0-10.286-26.045,248.183,248.183,0,0,1-75.484-60.329,21.209,21.209,0,0,0-27.691-4.28" fill="#0043ff"/><path d="M462.284,308.662l53.761,148.277a21.163,21.163,0,0,0,28.713,12.018A447.972,447.972,0,0,0,713.77,333.888a21.159,21.159,0,0,0-5.371-30.651L575.745,218.008a21.209,21.209,0,0,0-27.691,4.28,248.187,248.187,0,0,1-75.485,60.329,21.2,21.2,0,0,0-10.285,26.045" fill="#0ccbc3"/><path d="M474.928,73.9a127.806,127.806,0,1,1-169.8-61.931A127.806,127.806,0,0,1,474.928,73.9" fill="#33aea8"/><path d="M259.32,154.2a6.431,6.431,0,0,1-.992,3.25,5.993,5.993,0,0,1-2.549,2.185,8.662,8.662,0,0,1-3.746.775,6.917,6.917,0,0,1-5.471-2.264,9.34,9.34,0,0,1-2-6.391v-.871a10.674,10.674,0,0,1,.9-4.534,6.832,6.832,0,0,1,2.6-3,7.245,7.245,0,0,1,3.922-1.059,7.6,7.6,0,0,1,5.156,1.688,6.674,6.674,0,0,1,2.216,4.655H255.12a3.157,3.157,0,0,0-.811-2.312,3.337,3.337,0,0,0-2.324-.7,2.539,2.539,0,0,0-2.325,1.186,7.627,7.627,0,0,0-.774,3.789v1.247a8.432,8.432,0,0,0,.708,4.03,2.59,2.59,0,0,0,2.439,1.211,3.266,3.266,0,0,0,2.24-.69,2.928,2.928,0,0,0,.822-2.191Z" fill="#fff"/><path d="M271.961,156.877h-5.823l-1.017,3.293h-4.539l6.464-17.625h3.995l6.512,17.625h-4.564Zm-4.806-3.28h3.789l-1.9-6.113Z" fill="#fff"/><path d="M286.005,153.936h-2.3v6.233h-4.249V142.545h6.937a7.736,7.736,0,0,1,4.9,1.391,4.709,4.709,0,0,1,1.767,3.929,5.728,5.728,0,0,1-.744,3.048,5.284,5.284,0,0,1-2.33,1.959l3.679,7.116v.181h-4.551Zm-2.3-3.269h2.688a2.41,2.41,0,0,0,1.821-.637,2.461,2.461,0,0,0,.612-1.778,2.492,2.492,0,0,0-.618-1.79,2.391,2.391,0,0,0-1.815-.649H283.7Z" fill="#fff"/><path d="M306.259,156.877h-5.823l-1.017,3.293H294.88l6.464-17.625h3.995l6.512,17.625h-4.564Zm-4.806-3.28h3.789l-1.9-6.113Z" fill="#fff"/><path d="M327.759,154.2a6.451,6.451,0,0,1-.992,3.25,6,6,0,0,1-2.55,2.185,8.659,8.659,0,0,1-3.746.775A6.918,6.918,0,0,1,315,158.148a9.34,9.34,0,0,1-2-6.391v-.871a10.659,10.659,0,0,1,.9-4.534,6.824,6.824,0,0,1,2.6-3,7.25,7.25,0,0,1,3.922-1.059,7.6,7.6,0,0,1,5.156,1.688,6.679,6.679,0,0,1,2.217,4.655h-4.237a3.162,3.162,0,0,0-.812-2.312,3.335,3.335,0,0,0-2.324-.7,2.537,2.537,0,0,0-2.324,1.186,7.637,7.637,0,0,0-.775,3.789v1.247a8.417,8.417,0,0,0,.709,4.03,2.588,2.588,0,0,0,2.438,1.211,3.264,3.264,0,0,0,2.24-.69,2.929,2.929,0,0,0,.823-2.191Z" fill="#fff"/><path d="M343.873,145.825h-5.29v14.344h-4.249V145.825h-5.193v-3.28h14.732Z" fill="#fff"/><path d="M357.216,152.688h-6.682V156.9h7.892v3.268H346.285V142.544h12.166v3.281h-7.917v3.716h6.682Z" fill="#fff"/><path d="M367.325,153.936h-2.3v6.233h-4.249V142.545h6.937a7.736,7.736,0,0,1,4.9,1.391,4.709,4.709,0,0,1,1.767,3.929,5.728,5.728,0,0,1-.744,3.048,5.285,5.285,0,0,1-2.33,1.959l3.679,7.116v.181h-4.551Zm-2.3-3.269h2.688a2.41,2.41,0,0,0,1.821-.637,2.461,2.461,0,0,0,.612-1.778,2.492,2.492,0,0,0-.618-1.79,2.391,2.391,0,0,0-1.815-.649h-2.688Z" fill="#fff"/><path d="M382.1,160.17h-4.237V142.545H382.1Zm-1.609-22.346h4.308l-3.365,3.8-3.329-.006Z" fill="#fff"/><path d="M394.759,155.485a1.748,1.748,0,0,0-.66-1.453,8.234,8.234,0,0,0-2.318-1.077,22.231,22.231,0,0,1-2.711-1.077q-3.426-1.683-3.426-4.624a4.143,4.143,0,0,1,.853-2.584,5.521,5.521,0,0,1,2.415-1.744,9.41,9.41,0,0,1,3.511-.623,8.217,8.217,0,0,1,3.407.678,5.4,5.4,0,0,1,2.343,1.93,5.051,5.051,0,0,1,.835,2.863h-4.237a2.129,2.129,0,0,0-.66-1.67,2.573,2.573,0,0,0-1.785-.593,2.9,2.9,0,0,0-1.8.5,1.479,1.479,0,0,0,.067,2.506,9.147,9.147,0,0,0,2.554,1.137,15.7,15.7,0,0,1,3,1.266,5.045,5.045,0,0,1,2.857,4.539,4.3,4.3,0,0,1-1.744,3.631,7.746,7.746,0,0,1-4.781,1.32,9.488,9.488,0,0,1-3.879-.769,5.852,5.852,0,0,1-2.615-2.106,5.49,5.49,0,0,1-.877-3.081h4.26a2.7,2.7,0,0,0,.733,2.088,3.458,3.458,0,0,0,2.378.672,2.735,2.735,0,0,0,1.665-.454,1.5,1.5,0,0,0,.611-1.277" fill="#fff"/><path d="M415.643,145.825h-5.29v14.344H406.1V145.825h-5.193v-3.28h14.732Z" fill="#fff"/><rect width="4.237" height="17.625" transform="translate(418.345 142.544)" fill="#fff"/><path d="M440.414,154.2a6.431,6.431,0,0,1-.992,3.25,5.992,5.992,0,0,1-2.549,2.185,8.662,8.662,0,0,1-3.746.775,6.917,6.917,0,0,1-5.471-2.264,9.34,9.34,0,0,1-2-6.391v-.871a10.674,10.674,0,0,1,.9-4.534,6.832,6.832,0,0,1,2.6-3,7.245,7.245,0,0,1,3.922-1.059,7.6,7.6,0,0,1,5.156,1.688,6.674,6.674,0,0,1,2.216,4.655h-4.237a3.157,3.157,0,0,0-.811-2.312,3.337,3.337,0,0,0-2.324-.7,2.539,2.539,0,0,0-2.325,1.186,7.627,7.627,0,0,0-.774,3.789v1.247a8.432,8.432,0,0,0,.708,4.03,2.59,2.59,0,0,0,2.439,1.211,3.266,3.266,0,0,0,2.24-.69,2.928,2.928,0,0,0,.822-2.191Z" fill="#fff"/><path d="M453.055,156.877h-5.823l-1.017,3.293h-4.539l6.464-17.625h3.995l6.512,17.625h-4.564Zm-4.806-3.28h3.789l-1.9-6.113Z" fill="#fff"/><path d="M469.64,155.485a1.748,1.748,0,0,0-.66-1.453,8.234,8.234,0,0,0-2.318-1.077,22.235,22.235,0,0,1-2.711-1.077q-3.426-1.683-3.426-4.624a4.143,4.143,0,0,1,.853-2.584,5.521,5.521,0,0,1,2.415-1.744,9.41,9.41,0,0,1,3.511-.623,8.218,8.218,0,0,1,3.407.678,5.4,5.4,0,0,1,2.343,1.93,5.051,5.051,0,0,1,.835,2.863h-4.237a2.129,2.129,0,0,0-.66-1.67,2.573,2.573,0,0,0-1.785-.593,2.9,2.9,0,0,0-1.8.5,1.479,1.479,0,0,0,.067,2.506,9.146,9.146,0,0,0,2.554,1.137,15.7,15.7,0,0,1,3,1.266,5.045,5.045,0,0,1,2.857,4.539,4.3,4.3,0,0,1-1.744,3.631,7.746,7.746,0,0,1-4.781,1.32,9.489,9.489,0,0,1-3.879-.769,5.852,5.852,0,0,1-2.615-2.106,5.49,5.49,0,0,1-.877-3.081h4.26a2.7,2.7,0,0,0,.733,2.088,3.458,3.458,0,0,0,2.378.672,2.735,2.735,0,0,0,1.665-.454,1.5,1.5,0,0,0,.611-1.277" fill="#fff"/><path d="M282.481,180.828a6.494,6.494,0,0,1,1.21-4.106,4.116,4.116,0,0,1,6.255-.221v-5.783h1.9v15.75H290.1l-.093-1.19a3.861,3.861,0,0,1-3.168,1.4,3.789,3.789,0,0,1-3.143-1.579,6.574,6.574,0,0,1-1.215-4.122Zm1.9.216a4.924,4.924,0,0,0,.779,2.953,2.521,2.521,0,0,0,2.154,1.067,2.768,2.768,0,0,0,2.635-1.622v-5.1a2.789,2.789,0,0,0-2.615-1.569,2.531,2.531,0,0,0-2.174,1.077,5.421,5.421,0,0,0-.779,3.189" fill="#fff"/><path d="M300.439,186.673a4.851,4.851,0,0,1-3.671-1.481,5.5,5.5,0,0,1-1.415-3.964v-.348a6.649,6.649,0,0,1,.631-2.948,4.91,4.91,0,0,1,1.763-2.03,4.435,4.435,0,0,1,2.456-.734,4.159,4.159,0,0,1,3.363,1.425,6.175,6.175,0,0,1,1.2,4.082v.789H297.25a3.941,3.941,0,0,0,.959,2.651,3.012,3.012,0,0,0,2.333,1.009,3.288,3.288,0,0,0,1.7-.41,4.242,4.242,0,0,0,1.22-1.086l1.159.9a4.66,4.66,0,0,1-4.184,2.142m-.236-9.946a2.528,2.528,0,0,0-1.928.836,4.064,4.064,0,0,0-.964,2.343h5.558v-.144a3.61,3.61,0,0,0-.779-2.24,2.383,2.383,0,0,0-1.887-.795" fill="#fff"/><rect width="1.897" height="15.75" transform="translate(314.423 170.718)" fill="#fff"/><path d="M327.255,186.467a3.98,3.98,0,0,1-.266-1.169,4.233,4.233,0,0,1-3.158,1.374,3.92,3.92,0,0,1-2.692-.927,3.007,3.007,0,0,1-1.051-2.354,3.133,3.133,0,0,1,1.318-2.691,6.206,6.206,0,0,1,3.707-.959h1.846v-.871a2.134,2.134,0,0,0-.6-1.585,2.393,2.393,0,0,0-1.754-.589,2.77,2.77,0,0,0-1.7.512,1.511,1.511,0,0,0-.687,1.241h-1.907a2.617,2.617,0,0,1,.589-1.605,4.02,4.02,0,0,1,1.6-1.225,5.379,5.379,0,0,1,2.22-.451,4.385,4.385,0,0,1,3,.958,3.457,3.457,0,0,1,1.128,2.64v5.108a6.231,6.231,0,0,0,.39,2.429v.164Zm-3.147-1.445a3.326,3.326,0,0,0,1.691-.462,2.8,2.8,0,0,0,1.16-1.2v-2.276h-1.488q-3.486,0-3.486,2.041a1.726,1.726,0,0,0,.6,1.394,2.286,2.286,0,0,0,1.528.5" fill="#fff"/><path d="M339.339,183.524a1.4,1.4,0,0,0-.581-1.194,5.554,5.554,0,0,0-2.019-.734,9.548,9.548,0,0,1-2.287-.738,3.247,3.247,0,0,1-1.251-1.025,2.45,2.45,0,0,1-.4-1.414,2.875,2.875,0,0,1,1.155-2.308,4.5,4.5,0,0,1,2.947-.943,4.647,4.647,0,0,1,3.061.973,3.1,3.1,0,0,1,1.173,2.492h-1.907a1.714,1.714,0,0,0-.661-1.343,2.484,2.484,0,0,0-1.666-.564,2.6,2.6,0,0,0-1.621.451,1.423,1.423,0,0,0-.584,1.179,1.15,1.15,0,0,0,.543,1.036,6.676,6.676,0,0,0,1.965.667,10.292,10.292,0,0,1,2.3.758,3.364,3.364,0,0,1,1.307,1.061,2.612,2.612,0,0,1,.426,1.513,2.839,2.839,0,0,1-1.189,2.384,4.985,4.985,0,0,1-3.087.9,5.589,5.589,0,0,1-2.358-.471A3.837,3.837,0,0,1,333,184.883a3.174,3.174,0,0,1-.579-1.83h1.9a1.96,1.96,0,0,0,.764,1.512,2.958,2.958,0,0,0,1.881.559,3.061,3.061,0,0,0,1.729-.436,1.34,1.34,0,0,0,.651-1.164" fill="#fff"/><path d="M353.569,178.08h1.425a3.131,3.131,0,0,0,2.113-.708,2.363,2.363,0,0,0,.769-1.855,2.316,2.316,0,0,0-2.615-2.625,2.723,2.723,0,0,0-1.964.7,2.457,2.457,0,0,0-.733,1.861h-1.9a3.807,3.807,0,0,1,1.3-2.948,4.73,4.73,0,0,1,3.3-1.174,4.675,4.675,0,0,1,3.312,1.117,4.04,4.04,0,0,1,1.2,3.108,3.279,3.279,0,0,1-.631,1.886,3.8,3.8,0,0,1-1.718,1.364,3.663,3.663,0,0,1,1.9,1.293,3.582,3.582,0,0,1,.672,2.2,4.07,4.07,0,0,1-1.312,3.188,4.913,4.913,0,0,1-3.415,1.18,5.042,5.042,0,0,1-3.42-1.139,3.775,3.775,0,0,1-1.317-3h1.907a2.44,2.44,0,0,0,.769,1.887,2.924,2.924,0,0,0,2.061.707,2.867,2.867,0,0,0,2.1-.717,2.763,2.763,0,0,0,.728-2.061,2.5,2.5,0,0,0-.8-2,3.485,3.485,0,0,0-2.307-.719h-1.425Z" fill="#fff"/><path d="M381.375,181.73a5.491,5.491,0,0,1-1.748,3.655,5.725,5.725,0,0,1-3.912,1.287,5.259,5.259,0,0,1-4.24-1.9,7.633,7.633,0,0,1-1.594-5.076v-1.436a8.5,8.5,0,0,1,.743-3.66,5.563,5.563,0,0,1,2.107-2.426,5.876,5.876,0,0,1,3.159-.845,5.392,5.392,0,0,1,3.814,1.328,5.553,5.553,0,0,1,1.671,3.675H379.4a4.287,4.287,0,0,0-1.112-2.591,3.361,3.361,0,0,0-2.394-.8,3.526,3.526,0,0,0-2.959,1.4,6.41,6.41,0,0,0-1.072,3.972v1.446a6.587,6.587,0,0,0,1.016,3.87,3.279,3.279,0,0,0,2.84,1.437,3.784,3.784,0,0,0,2.517-.744,4.12,4.12,0,0,0,1.164-2.589Z" fill="#fff"/><path d="M384.753,189.441l-1.077-.738a4.946,4.946,0,0,0,1.005-2.769v-1.713h1.856v1.488a4.665,4.665,0,0,1-.508,2.071,4.843,4.843,0,0,1-1.276,1.661" fill="#fff"/><path d="M405.608,181.044a6.635,6.635,0,0,1-1.159,4.08,3.713,3.713,0,0,1-3.137,1.549,4.065,4.065,0,0,1-3.179-1.282v5.342h-1.9v-15.36h1.733l.092,1.23a3.909,3.909,0,0,1,3.22-1.435,3.785,3.785,0,0,1,3.163,1.507,6.718,6.718,0,0,1,1.164,4.194Zm-1.9-.216a4.908,4.908,0,0,0-.8-2.964,2.577,2.577,0,0,0-2.194-1.086,2.787,2.787,0,0,0-2.584,1.528v5.3a2.791,2.791,0,0,0,2.6,1.518,2.565,2.565,0,0,0,2.169-1.081,5.358,5.358,0,0,0,.8-3.215" fill="#fff"/><path d="M415.917,186.467a4.006,4.006,0,0,1-.267-1.169,4.23,4.23,0,0,1-3.158,1.374,3.916,3.916,0,0,1-2.691-.927,3,3,0,0,1-1.052-2.354,3.136,3.136,0,0,1,1.318-2.691,6.208,6.208,0,0,1,3.707-.959h1.846v-.871a2.134,2.134,0,0,0-.6-1.585,2.392,2.392,0,0,0-1.754-.589,2.772,2.772,0,0,0-1.7.512,1.511,1.511,0,0,0-.687,1.241h-1.907a2.613,2.613,0,0,1,.59-1.605,4.014,4.014,0,0,1,1.6-1.225,5.371,5.371,0,0,1,2.219-.451,4.388,4.388,0,0,1,3.005.958,3.463,3.463,0,0,1,1.128,2.64v5.108a6.233,6.233,0,0,0,.389,2.429v.164Zm-3.148-1.445a3.33,3.33,0,0,0,1.692-.462,2.8,2.8,0,0,0,1.159-1.2v-2.276h-1.487q-3.486,0-3.487,2.041a1.729,1.729,0,0,0,.6,1.394,2.287,2.287,0,0,0,1.528.5" fill="#fff"/><path d="M426.9,177.075a5.665,5.665,0,0,0-.933-.072,2.5,2.5,0,0,0-2.533,1.59v7.875h-1.9v-11.1h1.845l.031,1.282a2.954,2.954,0,0,1,2.645-1.487,1.95,1.95,0,0,1,.841.143Z" fill="#fff"/><path d="M436.135,186.467a4.005,4.005,0,0,1-.267-1.169,4.23,4.23,0,0,1-3.158,1.374,3.92,3.92,0,0,1-2.692-.927,3.007,3.007,0,0,1-1.051-2.354,3.136,3.136,0,0,1,1.318-2.691,6.206,6.206,0,0,1,3.707-.959h1.846v-.871a2.134,2.134,0,0,0-.6-1.585,2.392,2.392,0,0,0-1.754-.589,2.772,2.772,0,0,0-1.7.512,1.511,1.511,0,0,0-.687,1.241h-1.907a2.613,2.613,0,0,1,.59-1.605,4.007,4.007,0,0,1,1.6-1.225,5.371,5.371,0,0,1,2.219-.451,4.388,4.388,0,0,1,3.005.958,3.463,3.463,0,0,1,1.128,2.64v5.108a6.234,6.234,0,0,0,.389,2.429v.164Zm-3.148-1.445a3.33,3.33,0,0,0,1.692-.462,2.8,2.8,0,0,0,1.159-1.2v-2.276h-1.487q-3.486,0-3.487,2.041a1.728,1.728,0,0,0,.6,1.394,2.287,2.287,0,0,0,1.528.5" fill="#fff"/><path d="M322.254,211.668l2.983-14.93h4.594a4.42,4.42,0,0,1,3.138,1.027,3.043,3.043,0,0,1,.7,3.015,3.608,3.608,0,0,1-.943,1.817,4.469,4.469,0,0,1-1.784,1.129,2.42,2.42,0,0,1,1.707,1.327,3.688,3.688,0,0,1,.231,2.4,4.939,4.939,0,0,1-1.856,3.2,6.005,6.005,0,0,1-3.589,1.015Zm3.373-6.993-1.077,5.4h3.2a3.16,3.16,0,0,0,2.025-.688,3.194,3.194,0,0,0,1.123-1.916,3.054,3.054,0,0,0-.149-2.094,1.728,1.728,0,0,0-1.625-.705Zm.318-1.589h3.025a2.711,2.711,0,0,0,1.717-.631,2.8,2.8,0,0,0,1.01-1.718,1.975,1.975,0,0,0-.3-1.845,2.587,2.587,0,0,0-1.882-.564H326.9Z" fill="#fff"/><path d="M341.9,211.668c0-.335.007-.611.021-.826s.037-.436.071-.661a6.348,6.348,0,0,1-1.573,1.215,3.677,3.677,0,0,1-1.78.486,2.688,2.688,0,0,1-2.24-.907A2.8,2.8,0,0,1,336,208.55a3.683,3.683,0,0,1,1.666-2.538,6.328,6.328,0,0,1,3.43-.845h1.9l.215-1.1a1.866,1.866,0,0,0-.225-1.574,1.732,1.732,0,0,0-1.436-.539,2.591,2.591,0,0,0-1.558.507,1.939,1.939,0,0,0-.831,1.185h-1.877l-.02-.062a3.477,3.477,0,0,1,1.538-2.25,5.26,5.26,0,0,1,3.179-.969,3.487,3.487,0,0,1,2.61.979,2.894,2.894,0,0,1,.61,2.742l-1.067,5.343a10.282,10.282,0,0,0-.184,1.159,5.536,5.536,0,0,0,0,1.077Zm-2.625-1.477a3.442,3.442,0,0,0,1.692-.482,4.031,4.031,0,0,0,1.333-1.138l.41-2.04h-1.958a2.911,2.911,0,0,0-1.826.625,2.376,2.376,0,0,0-.963,1.435,1.418,1.418,0,0,0,.153,1.195,1.4,1.4,0,0,0,1.159.4" fill="#fff"/><path d="M352.121,210.294a2.72,2.72,0,0,0,1.687-.622,2.357,2.357,0,0,0,.948-1.511h1.774l.021.062a3.9,3.9,0,0,1-1.6,2.579,4.9,4.9,0,0,1-3.076,1.081,3.453,3.453,0,0,1-3.169-1.6,5.579,5.579,0,0,1-.615-3.947l.072-.431a7.325,7.325,0,0,1,1.82-3.994,4.868,4.868,0,0,1,3.727-1.543,3.466,3.466,0,0,1,2.764,1.154,3.209,3.209,0,0,1,.692,2.825l-.021.051H355.35a2.194,2.194,0,0,0-.348-1.753,1.814,1.814,0,0,0-1.538-.688,2.606,2.606,0,0,0-2.225,1.158,6.41,6.41,0,0,0-1.087,2.785l-.072.43a5.645,5.645,0,0,0,.144,2.863,1.8,1.8,0,0,0,1.9,1.1" fill="#fff"/><path d="M363.281,206.531h-1.21l-1.025,5.137h-1.979l3.2-16h1.979l-1.856,9.269h1.2l3.558-4.368h2.3l.02.052-4.419,4.993,2.768,6.05h-2.327Z" fill="#fff"/><path d="M372.411,211.668h-1.979l3.2-16h1.979Z" fill="#fff"/><path d="M377.061,206.017a7.493,7.493,0,0,1,1.881-4.106,4.826,4.826,0,0,1,3.635-1.543,3.441,3.441,0,0,1,3.1,1.6,5.634,5.634,0,0,1,.641,4.045l-.031.227a7.5,7.5,0,0,1-1.892,4.106,4.839,4.839,0,0,1-3.635,1.533,3.445,3.445,0,0,1-3.1-1.6,5.578,5.578,0,0,1-.63-4.039Zm1.948.221a5.362,5.362,0,0,0,.179,2.944,1.8,1.8,0,0,0,1.821,1.112,2.611,2.611,0,0,0,2.132-1.162,6.377,6.377,0,0,0,1.159-2.894l.031-.226a5.352,5.352,0,0,0-.2-2.928,1.79,1.79,0,0,0-1.8-1.127,2.6,2.6,0,0,0-2.138,1.168,6.424,6.424,0,0,0-1.153,2.887Z" fill="#fff"/><path d="M389.41,206.121a9.189,9.189,0,0,1,1.831-4.3,4.091,4.091,0,0,1,3.224-1.451,3.3,3.3,0,0,1,1.631.4,3.09,3.09,0,0,1,1.158,1.138l.431-1.333h1.682l-2.185,10.951a5.831,5.831,0,0,1-1.85,3.461,5.426,5.426,0,0,1-3.605,1.164,6.214,6.214,0,0,1-1.553-.225,4.855,4.855,0,0,1-1.42-.6l.81-1.568a3.392,3.392,0,0,0,1.107.5,5.121,5.121,0,0,0,1.374.19,2.867,2.867,0,0,0,2.056-.774,3.942,3.942,0,0,0,1.092-2.149l.154-.758a3.965,3.965,0,0,1-2.81,1.117,2.956,2.956,0,0,1-2.711-1.6,5.5,5.5,0,0,1-.457-3.942Zm1.938.215a4.49,4.49,0,0,0,.154,2.83,1.881,1.881,0,0,0,1.866,1.076,2.229,2.229,0,0,0,1.318-.415,4.147,4.147,0,0,0,1.081-1.184l1.036-5.168a2.476,2.476,0,0,0-.82-1.067,2.216,2.216,0,0,0-1.343-.4,2.468,2.468,0,0,0-2.056,1.123,7.445,7.445,0,0,0-1.2,2.989Z" fill="#fff"/><path d="M134.224,420.468H19.56a7.68,7.68,0,0,1-7.68-7.68V380.46a7.681,7.681,0,0,1,7.68-7.68H134.224a7.68,7.68,0,0,1,7.68,7.68v32.328a7.679,7.679,0,0,1-7.68,7.68" fill="#d8dbe8"/><path d="M134.224,416.859H22.136a7.679,7.679,0,0,1-7.68-7.68V380.461a7.68,7.68,0,0,1,7.68-7.68H134.224a7.68,7.68,0,0,1,7.68,7.68v28.718a7.679,7.679,0,0,1-7.68,7.68" fill="#fff"/><path d="M38.947,402.872H35.11V388.059l-4.582,1.414v-3.094l8.007-2.868h.412Z" fill="#0043ff"/><path d="M46.946,400.987a1.932,1.932,0,0,1,.618-1.487,2.4,2.4,0,0,1,3.107,0,1.932,1.932,0,0,1,.618,1.487,1.908,1.908,0,0,1-.611,1.468,2.441,2.441,0,0,1-3.121,0,1.908,1.908,0,0,1-.611-1.468" fill="#0043ff"/><path d="M79.571,396.432a6.838,6.838,0,0,1-2.3,4.913,8.09,8.09,0,0,1-5.477,1.793,7.276,7.276,0,0,1-5.85-2.5,10.265,10.265,0,0,1-2.132-6.872V392.58a11.6,11.6,0,0,1,.983-4.913,7.361,7.361,0,0,1,2.809-3.259,8.774,8.774,0,0,1,9.634.657A7.357,7.357,0,0,1,79.6,390.1H75.614a4.038,4.038,0,0,0-1.043-2.716,3.86,3.86,0,0,0-2.729-.844,3.384,3.384,0,0,0-2.98,1.428,8,8,0,0,0-1.017,4.429v1.461a8.561,8.561,0,0,0,.95,4.581,3.322,3.322,0,0,0,3,1.447,3.929,3.929,0,0,0,2.755-.843,3.81,3.81,0,0,0,1.043-2.609Z" fill="#0043ff"/><path d="M91.621,402.873a4.274,4.274,0,0,1-.385-1.288,4.644,4.644,0,0,1-3.625,1.554,5.1,5.1,0,0,1-3.5-1.222,3.928,3.928,0,0,1-1.388-3.081,4.059,4.059,0,0,1,1.693-3.506A8.35,8.35,0,0,1,89.31,394.1h1.767v-.825a2.364,2.364,0,0,0-.512-1.592,2.008,2.008,0,0,0-1.613-.6,2.287,2.287,0,0,0-1.521.465,1.577,1.577,0,0,0-.551,1.274H83.043a3.849,3.849,0,0,1,.77-2.31,5.092,5.092,0,0,1,2.177-1.667,7.94,7.94,0,0,1,3.161-.6,6.267,6.267,0,0,1,4.216,1.334,4.671,4.671,0,0,1,1.56,3.752v6.228a6.863,6.863,0,0,0,.572,3.094v.226ZM88.447,400.2a3.3,3.3,0,0,0,1.567-.379,2.491,2.491,0,0,0,1.063-1.016V396.34H89.642q-2.881,0-3.067,1.991l-.013.227a1.536,1.536,0,0,0,.5,1.181,1.961,1.961,0,0,0,1.381.465" fill="#0043ff"/><path d="M107.31,392.1a10.382,10.382,0,0,0-1.381-.106,2.812,2.812,0,0,0-2.855,1.473v9.4H99.236V388.5h3.626l.106,1.713a3.555,3.555,0,0,1,3.2-1.978,3.987,3.987,0,0,1,1.195.173Z" fill="#0043ff"/><path d="M109.666,395.583a8.666,8.666,0,0,1,1.507-5.353,4.892,4.892,0,0,1,4.123-1.991,4.4,4.4,0,0,1,3.466,1.566v-7.33h3.852v20.4h-3.466l-.186-1.528a4.516,4.516,0,0,1-3.692,1.793,4.875,4.875,0,0,1-4.07-2,8.931,8.931,0,0,1-1.534-5.556m3.838.272a5.694,5.694,0,0,0,.7,3.108,2.289,2.289,0,0,0,2.045,1.081,2.566,2.566,0,0,0,2.509-1.507v-5.7a2.528,2.528,0,0,0-2.483-1.507q-2.775,0-2.775,4.522" fill="#0043ff"/><path d="M749.948,420.468H541.5a7.68,7.68,0,0,1-7.68-7.68V380.46a7.681,7.681,0,0,1,7.68-7.68H749.948a7.68,7.68,0,0,1,7.68,7.68v32.328a7.679,7.679,0,0,1-7.68,7.68" fill="#d8dbe8"/><path d="M749.948,416.859H545.932a7.68,7.68,0,0,1-7.68-7.68V380.461a7.681,7.681,0,0,1,7.68-7.68H749.948a7.68,7.68,0,0,1,7.68,7.68v28.718a7.679,7.679,0,0,1-7.68,7.68" fill="#fff"/><path d="M554.915,391.505h2.045a2.883,2.883,0,0,0,2.165-.73,2.677,2.677,0,0,0,.7-1.939,2.364,2.364,0,0,0-.7-1.819,2.7,2.7,0,0,0-1.919-.652,2.834,2.834,0,0,0-1.846.605,1.933,1.933,0,0,0-.744,1.574h-3.838a4.722,4.722,0,0,1,.817-2.716,5.438,5.438,0,0,1,2.284-1.879,7.615,7.615,0,0,1,3.234-.677,7.231,7.231,0,0,1,4.807,1.467,5.006,5.006,0,0,1,1.739,4.043,4.068,4.068,0,0,1-.81,2.444,5.265,5.265,0,0,1-2.125,1.714,4.5,4.5,0,0,1,3.241,4.514,5.088,5.088,0,0,1-1.879,4.13,7.554,7.554,0,0,1-4.973,1.554,7.157,7.157,0,0,1-4.734-1.528,4.983,4.983,0,0,1-1.84-4.037h3.838a2.221,2.221,0,0,0,.817,1.78,3.4,3.4,0,0,0,4.156-.034,2.5,2.5,0,0,0,.777-1.918q0-2.895-3.187-2.895h-2.032Z" fill="#01074e"/><path d="M566.974,400.987a1.935,1.935,0,0,1,.617-1.487,2.4,2.4,0,0,1,3.108,0,1.935,1.935,0,0,1,.617,1.487,1.908,1.908,0,0,1-.611,1.468,2.441,2.441,0,0,1-3.121,0,1.907,1.907,0,0,1-.61-1.468" fill="#01074e"/><path d="M596.879,396.432a6.845,6.845,0,0,1-2.3,4.913,8.1,8.1,0,0,1-5.478,1.793,7.276,7.276,0,0,1-5.85-2.5,10.264,10.264,0,0,1-2.131-6.872V392.58a11.58,11.58,0,0,1,.983-4.913,7.359,7.359,0,0,1,2.808-3.259,8.776,8.776,0,0,1,9.635.657,7.352,7.352,0,0,1,2.363,5.033h-3.984a4.034,4.034,0,0,0-1.042-2.716,3.862,3.862,0,0,0-2.729-.844,3.386,3.386,0,0,0-2.981,1.428,8,8,0,0,0-1.016,4.429v1.461a8.552,8.552,0,0,0,.95,4.581,3.319,3.319,0,0,0,2.994,1.447,3.932,3.932,0,0,0,2.756-.843,3.81,3.81,0,0,0,1.042-2.609Z" fill="#01074e"/><path d="M598.645,395.556a8.531,8.531,0,0,1,.823-3.811,6.031,6.031,0,0,1,2.371-2.59,6.923,6.923,0,0,1,3.592-.916,6.542,6.542,0,0,1,4.747,1.779,7.142,7.142,0,0,1,2.052,4.834l.027.983a7.514,7.514,0,0,1-1.846,5.305,7.152,7.152,0,0,1-9.913.006,7.641,7.641,0,0,1-1.853-5.418Zm3.838.272a5.369,5.369,0,0,0,.771,3.133,2.765,2.765,0,0,0,4.381.013,5.872,5.872,0,0,0,.784-3.425,5.313,5.313,0,0,0-.784-3.112,2.545,2.545,0,0,0-2.2-1.1,2.5,2.5,0,0,0-2.177,1.1,5.968,5.968,0,0,0-.771,3.4" fill="#01074e"/><path d="M618.153,388.5l.12,1.66a5.013,5.013,0,0,1,4.13-1.926,4.175,4.175,0,0,1,3.4,1.341,6.268,6.268,0,0,1,1.141,4.011v9.282H623.1v-9.211a2.5,2.5,0,0,0-.53-1.776,2.378,2.378,0,0,0-1.767-.553,2.641,2.641,0,0,0-2.43,1.385v10.155H614.54V388.5Z" fill="#01074e"/><path d="M630.9,402.872V391.319h-2.138V388.5H630.9v-1.222a4.963,4.963,0,0,1,1.388-3.752,5.375,5.375,0,0,1,3.884-1.334,9.011,9.011,0,0,1,1.952.263l-.039,2.95a4.937,4.937,0,0,0-1.169-.119q-2.164,0-2.164,2.049V388.5h2.854v2.815h-2.854v11.553Z" fill="#01074e"/><path d="M639.572,384.786a1.89,1.89,0,0,1,.578-1.421,2.489,2.489,0,0,1,3.141,0,2.028,2.028,0,0,1-.007,2.855,2.461,2.461,0,0,1-3.121,0,1.884,1.884,0,0,1-.591-1.434m4.077,18.086H639.8V388.5h3.851Z" fill="#01074e"/><path d="M654.883,392.1A10.394,10.394,0,0,0,653.5,392a2.811,2.811,0,0,0-2.855,1.473v9.4h-3.838V388.5h3.625l.107,1.713a3.555,3.555,0,0,1,3.2-1.978,3.991,3.991,0,0,1,1.195.173Z" fill="#01074e"/><path d="M660.328,388.5l.119,1.606a5.05,5.05,0,0,1,4.13-1.872,3.834,3.834,0,0,1,3.812,2.191,4.932,4.932,0,0,1,4.315-2.191,4.279,4.279,0,0,1,3.479,1.362,6.249,6.249,0,0,1,1.143,4.1v9.176h-3.852v-9.183A2.741,2.741,0,0,0,673,391.9a2.112,2.112,0,0,0-1.686-.567,2.4,2.4,0,0,0-2.39,1.651l.013,9.889h-3.838V393.7a2.707,2.707,0,0,0-.491-1.809,2.135,2.135,0,0,0-1.673-.56,2.487,2.487,0,0,0-2.364,1.358v10.182h-3.838V388.5Z" fill="#01074e"/><path d="M688.6,402.873a4.272,4.272,0,0,1-.385-1.288,4.644,4.644,0,0,1-3.625,1.554,5.1,5.1,0,0,1-3.5-1.222,3.928,3.928,0,0,1-1.388-3.081,4.059,4.059,0,0,1,1.693-3.506,8.348,8.348,0,0,1,4.893-1.234h1.766v-.825a2.369,2.369,0,0,0-.511-1.592,2.011,2.011,0,0,0-1.614-.6,2.284,2.284,0,0,0-1.52.465,1.577,1.577,0,0,0-.551,1.274h-3.838a3.857,3.857,0,0,1,.771-2.31,5.092,5.092,0,0,1,2.177-1.667,7.94,7.94,0,0,1,3.161-.6,6.269,6.269,0,0,1,4.216,1.334,4.671,4.671,0,0,1,1.56,3.752v6.228a6.892,6.892,0,0,0,.571,3.094v.226Zm-3.173-2.669a3.3,3.3,0,0,0,1.566-.379,2.477,2.477,0,0,0,1.062-1.016V396.34h-1.434q-2.88,0-3.068,1.991l-.013.227a1.537,1.537,0,0,0,.505,1.181,1.964,1.964,0,0,0,1.382.465" fill="#01074e"/><path d="M699.449,384.972V388.5h2.457v2.816h-2.457v7.171a1.707,1.707,0,0,0,.306,1.141,1.527,1.527,0,0,0,1.168.346,6.032,6.032,0,0,0,1.129-.094v2.908a7.87,7.87,0,0,1-2.324.346q-4.037,0-4.117-4.077V391.32h-2.1V388.5h2.1v-3.532Z" fill="#01074e"/><path d="M704.018,384.786a1.89,1.89,0,0,1,.577-1.421,2.489,2.489,0,0,1,3.141,0,2.029,2.029,0,0,1-.006,2.855,2.461,2.461,0,0,1-3.121,0,1.884,1.884,0,0,1-.591-1.434m4.076,18.086h-3.851V388.5h3.851Z" fill="#01074e"/><path d="M710.657,395.556a8.532,8.532,0,0,1,.823-3.811,6.028,6.028,0,0,1,2.37-2.59,6.927,6.927,0,0,1,3.593-.916,6.542,6.542,0,0,1,4.747,1.779,7.147,7.147,0,0,1,2.052,4.834l.026.983a7.513,7.513,0,0,1-1.845,5.305,7.152,7.152,0,0,1-9.913.006,7.636,7.636,0,0,1-1.853-5.418Zm3.838.272a5.377,5.377,0,0,0,.77,3.133,2.766,2.766,0,0,0,4.382.013,5.871,5.871,0,0,0,.784-3.425,5.313,5.313,0,0,0-.784-3.112,2.546,2.546,0,0,0-2.2-1.1,2.5,2.5,0,0,0-2.178,1.1,5.977,5.977,0,0,0-.77,3.4" fill="#01074e"/><path d="M730.165,388.5l.119,1.66a5.017,5.017,0,0,1,4.13-1.926,4.171,4.171,0,0,1,3.4,1.341,6.256,6.256,0,0,1,1.143,4.011v9.282h-3.838v-9.211a2.5,2.5,0,0,0-.531-1.776,2.377,2.377,0,0,0-1.766-.553,2.638,2.638,0,0,0-2.43,1.385v10.155h-3.838V388.5Z" fill="#01074e"/><path d="M463.822,525.343H255.373a7.68,7.68,0,0,1-7.68-7.68V485.335a7.681,7.681,0,0,1,7.68-7.68H463.822a7.68,7.68,0,0,1,7.68,7.68v32.328a7.679,7.679,0,0,1-7.68,7.68" fill="#d8dbe8"/><path d="M463.822,521.733H259.806a7.68,7.68,0,0,1-7.68-7.68V485.335a7.681,7.681,0,0,1,7.68-7.68H463.822a7.68,7.68,0,0,1,7.68,7.68v28.718a7.679,7.679,0,0,1-7.68,7.68" fill="#fff"/><path d="M277.262,507.747H264.009v-2.629l6.254-6.667a15.379,15.379,0,0,0,1.906-2.456,3.943,3.943,0,0,0,.618-1.992,2.956,2.956,0,0,0-.651-2.026,2.351,2.351,0,0,0-1.859-.737,2.532,2.532,0,0,0-2.052.9,3.55,3.55,0,0,0-.75,2.357h-3.851a6.333,6.333,0,0,1,.843-3.226,5.942,5.942,0,0,1,2.384-2.292,7.249,7.249,0,0,1,3.493-.83,6.859,6.859,0,0,1,4.64,1.435,5.071,5.071,0,0,1,1.653,4.05,6.5,6.5,0,0,1-.743,2.922,16.281,16.281,0,0,1-2.549,3.465l-4.4,4.635h8.313Z" fill="#213b82"/><path d="M279.971,505.861a1.932,1.932,0,0,1,.618-1.487,2.4,2.4,0,0,1,3.107,0,1.935,1.935,0,0,1,.617,1.487,1.9,1.9,0,0,1-.611,1.468,2.439,2.439,0,0,1-3.12,0,1.908,1.908,0,0,1-.611-1.468" fill="#213b82"/><path d="M309.877,501.306a6.841,6.841,0,0,1-2.3,4.913,8.093,8.093,0,0,1-5.478,1.793,7.274,7.274,0,0,1-5.849-2.5,10.265,10.265,0,0,1-2.132-6.872v-1.183a11.6,11.6,0,0,1,.983-4.913,7.354,7.354,0,0,1,2.809-3.259,8.774,8.774,0,0,1,9.634.657,7.357,7.357,0,0,1,2.364,5.033h-3.985a4.033,4.033,0,0,0-1.042-2.716,3.86,3.86,0,0,0-2.729-.844,3.387,3.387,0,0,0-2.981,1.428,8,8,0,0,0-1.016,4.429v1.461a8.561,8.561,0,0,0,.95,4.581,3.32,3.32,0,0,0,2.994,1.447,3.931,3.931,0,0,0,2.756-.843,3.806,3.806,0,0,0,1.042-2.609Z" fill="#213b82"/><path d="M311.643,500.43a8.532,8.532,0,0,1,.823-3.811,6.025,6.025,0,0,1,2.371-2.59,6.921,6.921,0,0,1,3.592-.916,6.542,6.542,0,0,1,4.747,1.779,7.147,7.147,0,0,1,2.052,4.834l.026.983a7.513,7.513,0,0,1-1.845,5.3,7.152,7.152,0,0,1-9.913.006,7.641,7.641,0,0,1-1.853-5.418Zm3.838.272a5.369,5.369,0,0,0,.771,3.133,2.765,2.765,0,0,0,4.381.013,5.871,5.871,0,0,0,.784-3.425,5.313,5.313,0,0,0-.784-3.112,2.545,2.545,0,0,0-2.2-1.1,2.5,2.5,0,0,0-2.177,1.1,5.968,5.968,0,0,0-.771,3.4" fill="#213b82"/><path d="M331.151,493.378l.119,1.66a5.016,5.016,0,0,1,4.131-1.926,4.171,4.171,0,0,1,3.4,1.341,6.262,6.262,0,0,1,1.142,4.011v9.282H336.1v-9.211a2.5,2.5,0,0,0-.53-1.776,2.378,2.378,0,0,0-1.767-.553,2.641,2.641,0,0,0-2.43,1.385v10.155h-3.838V493.378Z" fill="#213b82"/><path d="M348.228,503.059l2.669-9.681h4.011l-4.847,14.368h-3.666l-4.847-14.368h4.011Z" fill="#213b82"/><path d="M363.034,508.012a7.057,7.057,0,0,1-5.146-1.939,6.894,6.894,0,0,1-1.985-5.166v-.372a8.681,8.681,0,0,1,.837-3.871,6.145,6.145,0,0,1,2.37-2.629,6.657,6.657,0,0,1,3.5-.923,5.956,5.956,0,0,1,4.641,1.86,7.551,7.551,0,0,1,1.694,5.271v1.567h-9.15a3.562,3.562,0,0,0,1.122,2.257,3.385,3.385,0,0,0,2.37.851,4.144,4.144,0,0,0,3.467-1.608l1.885,2.112a5.774,5.774,0,0,1-2.337,1.906,7.685,7.685,0,0,1-3.267.684m-.438-11.806a2.4,2.4,0,0,0-1.853.773,4.016,4.016,0,0,0-.909,2.215h5.338v-.306a2.862,2.862,0,0,0-.69-1.982,2.475,2.475,0,0,0-1.886-.7" fill="#213b82"/><path d="M379.2,496.977a10.382,10.382,0,0,0-1.381-.106,2.811,2.811,0,0,0-2.855,1.473v9.4h-3.838V493.378h3.626l.106,1.713a3.555,3.555,0,0,1,3.2-1.978,3.987,3.987,0,0,1,1.195.173Z" fill="#213b82"/><path d="M388.823,503.776a1.234,1.234,0,0,0-.7-1.108,7.877,7.877,0,0,0-2.238-.724q-5.127-1.077-5.126-4.356a3.949,3.949,0,0,1,1.587-3.194,6.4,6.4,0,0,1,4.15-1.281,6.9,6.9,0,0,1,4.376,1.288,4.059,4.059,0,0,1,1.639,3.347h-3.837a1.86,1.86,0,0,0-.531-1.362,2.253,2.253,0,0,0-1.66-.538,2.3,2.3,0,0,0-1.5.439,1.383,1.383,0,0,0-.531,1.115,1.18,1.18,0,0,0,.6,1.029,6.189,6.189,0,0,0,2.038.677,16.477,16.477,0,0,1,2.417.645q3.042,1.115,3.041,3.864a3.748,3.748,0,0,1-1.686,3.18,7.277,7.277,0,0,1-4.356,1.215,7.6,7.6,0,0,1-3.207-.644,5.378,5.378,0,0,1-2.2-1.766,4.1,4.1,0,0,1-.8-2.424h3.638a2.009,2.009,0,0,0,.757,1.568,3,3,0,0,0,1.886.544,2.781,2.781,0,0,0,1.667-.418,1.3,1.3,0,0,0,.564-1.1" fill="#213b82"/><path d="M403.351,507.747a4.246,4.246,0,0,1-.385-1.288,4.644,4.644,0,0,1-3.625,1.554,5.1,5.1,0,0,1-3.5-1.222,3.931,3.931,0,0,1-1.388-3.081,4.06,4.06,0,0,1,1.694-3.506,8.348,8.348,0,0,1,4.893-1.234h1.766v-.825a2.369,2.369,0,0,0-.511-1.592,2.011,2.011,0,0,0-1.614-.6,2.284,2.284,0,0,0-1.52.465,1.577,1.577,0,0,0-.551,1.274h-3.838a3.856,3.856,0,0,1,.77-2.31,5.1,5.1,0,0,1,2.178-1.667,7.933,7.933,0,0,1,3.161-.6,6.271,6.271,0,0,1,4.216,1.334,4.671,4.671,0,0,1,1.56,3.752v6.228a6.865,6.865,0,0,0,.571,3.094v.226Zm-3.174-2.669a3.3,3.3,0,0,0,1.567-.379,2.483,2.483,0,0,0,1.062-1.016v-2.469h-1.434q-2.882,0-3.068,1.991l-.013.227a1.533,1.533,0,0,0,.505,1.181,1.959,1.959,0,0,0,1.381.465" fill="#213b82"/><path d="M414.2,489.846v3.532h2.457v2.816H414.2v7.171a1.707,1.707,0,0,0,.306,1.141,1.527,1.527,0,0,0,1.168.346,6.03,6.03,0,0,0,1.129-.094v2.908a7.876,7.876,0,0,1-2.324.346q-4.038,0-4.117-4.077v-7.741h-2.1v-2.816h2.1v-3.532Z" fill="#213b82"/><path d="M418.769,489.66a1.889,1.889,0,0,1,.577-1.421,2.489,2.489,0,0,1,3.141,0,2.028,2.028,0,0,1-.007,2.855,2.46,2.46,0,0,1-3.12,0,1.879,1.879,0,0,1-.591-1.434m4.076,18.086h-3.851V493.378h3.851Z" fill="#213b82"/><path d="M425.408,500.43a8.532,8.532,0,0,1,.823-3.811,6.025,6.025,0,0,1,2.371-2.59,6.921,6.921,0,0,1,3.592-.916,6.542,6.542,0,0,1,4.747,1.779,7.147,7.147,0,0,1,2.052,4.834l.026.983a7.513,7.513,0,0,1-1.845,5.3,7.152,7.152,0,0,1-9.913.006,7.636,7.636,0,0,1-1.853-5.418Zm3.838.272a5.377,5.377,0,0,0,.77,3.133,2.766,2.766,0,0,0,4.382.013,5.872,5.872,0,0,0,.784-3.425,5.314,5.314,0,0,0-.784-3.112,2.546,2.546,0,0,0-2.2-1.1,2.5,2.5,0,0,0-2.178,1.1,5.977,5.977,0,0,0-.77,3.4" fill="#213b82"/><path d="M444.916,493.378l.12,1.66a5.014,5.014,0,0,1,4.13-1.926,4.173,4.173,0,0,1,3.4,1.341,6.262,6.262,0,0,1,1.142,4.011v9.282H449.87v-9.211a2.5,2.5,0,0,0-.532-1.776,2.375,2.375,0,0,0-1.766-.553,2.639,2.639,0,0,0-2.43,1.385v10.155H441.3V493.378Z" fill="#213b82"/><rect width="13.705" height="13.705" transform="translate(330.821 40.912)" fill="#fff"/><rect width="13.705" height="13.705" transform="translate(330.821 64.895)" fill="#fff"/><path d="M364.278,104.3h-12.9v-3.426h10.561a27.442,27.442,0,0,1-1.69-3.426h-8.871V94.018h7.755a27.287,27.287,0,0,1-.664-3.426h-7.091V87.166h6.853a27.291,27.291,0,0,1,.9-6.853h-7.755V76.887h8.871a27.442,27.442,0,0,1,1.69-3.426H351.378V70.035h12.9a27.492,27.492,0,0,1,3.294-3.426H356.518V63.182H372.4a27.125,27.125,0,0,1,18.38-2.926V32.347a8.478,8.478,0,0,1,1.757-5.14H329.108a5.145,5.145,0,0,0-5.139,5.14v83.942h47.966A1.713,1.713,0,0,1,373.649,118v3.426a5.145,5.145,0,0,0,5.139,5.139h6.852a5.146,5.146,0,0,0,5.14-5.139v-7.353a27.216,27.216,0,0,1-26.5-9.778m-7.76-65.1h30.836v3.426H356.518Zm-5.14,6.852h35.975v3.426H351.378Zm0,6.853h35.975V56.33H351.378ZM347.952,104.3a1.712,1.712,0,0,1-1.713,1.713H329.108a1.712,1.712,0,0,1-1.713-1.713V87.166a1.712,1.712,0,0,1,1.713-1.713h17.131a1.712,1.712,0,0,1,1.713,1.713Zm0-23.984a1.713,1.713,0,0,1-1.713,1.714H329.108a1.713,1.713,0,0,1-1.713-1.714V63.182a1.712,1.712,0,0,1,1.713-1.713h17.131a1.712,1.712,0,0,1,1.713,1.713Zm0-23.983a1.712,1.712,0,0,1-1.713,1.713H329.108a1.712,1.712,0,0,1-1.713-1.713V39.2a1.712,1.712,0,0,1,1.713-1.713h17.131a1.712,1.712,0,0,1,1.713,1.713Z" fill="#fff"/><path d="M370.222,119.714H310.263v1.713a5.145,5.145,0,0,0,5.14,5.139h56.536a8.53,8.53,0,0,1-1.717-5.139Z" fill="#fff"/><path d="M404.484,27.207h-5.139a5.146,5.146,0,0,0-5.14,5.139v1.713h15.418V32.346a5.146,5.146,0,0,0-5.139-5.139" fill="#fff"/><rect width="13.705" height="13.705" transform="translate(330.821 88.879)" fill="#fff"/><path d="M381.712,93.516a1.71,1.71,0,0,1-2.422,0l-5.642-5.641-2.717,2.717,9.57,9.569,19.848-19.848L397.632,77.6Z" fill="#fff"/><path d="M385.641,63.182a23.984,23.984,0,1,0,23.983,23.983,24.01,24.01,0,0,0-23.983-23.983m18.342,18.342-22.271,22.27a1.713,1.713,0,0,1-2.423,0L367.3,91.8a1.713,1.713,0,0,1,0-2.423l5.14-5.139a1.709,1.709,0,0,1,2.421,0l5.641,5.641,15.921-15.92a1.713,1.713,0,0,1,2.423,0l5.139,5.14a1.712,1.712,0,0,1,0,2.422" fill="#fff"/><path d="M118.539,307.008a5.326,5.326,0,1,0-5.326,5.326,5.332,5.332,0,0,0,5.326-5.326" fill="#fff"/><path d="M113.213,318.726a11.732,11.732,0,0,0-11.669,10.652h23.338a11.732,11.732,0,0,0-11.669-10.652" fill="#fff"/><path d="M181.813,277.182H91.908a9.6,9.6,0,0,0-9.587,9.587v57.523a9.6,9.6,0,0,0,9.587,9.587h89.905a9.6,9.6,0,0,0,9.588-9.587V286.769a9.6,9.6,0,0,0-9.588-9.587m-40.479,22.37h12.783a3.2,3.2,0,1,1,0,6.391H141.334a3.2,3.2,0,0,1,0-6.391m-10.013,33.022a3.2,3.2,0,0,1-3.195,3.2H98.3a3.2,3.2,0,0,1-3.2-3.2v-2.13a18.118,18.118,0,0,1,9.246-15.783,11.718,11.718,0,1,1,17.726,0,18.116,18.116,0,0,1,9.246,15.783Zm44.1-1.065H141.334a3.2,3.2,0,0,1,0-6.392h34.088a3.2,3.2,0,1,1,0,6.392m0-12.783H141.334a3.2,3.2,0,0,1,0-6.391h34.088a3.2,3.2,0,1,1,0,6.391" fill="#fff"/><path d="M335.142,417.283A42.388,42.388,0,0,1,322.584,391.3a27.061,27.061,0,0,0-5.86,16.907,27.366,27.366,0,0,0,2.631,11.654l-3.543,10.31a4.871,4.871,0,0,0,4.588,6.452,4.909,4.909,0,0,0,1.6-.268l10.311-3.543a27.37,27.37,0,0,0,11.654,2.631,27.072,27.072,0,0,0,17.186-6.083,42.425,42.425,0,0,1-26-12.077" fill="#fff"/><path d="M403.785,418.263l-5.144-14.97a37.447,37.447,0,0,0-33-53.838,37.408,37.408,0,1,0-.606,74.811h.059a37.516,37.516,0,0,0,16.376-3.8l14.97,5.144a5.831,5.831,0,0,0,1.895.319,5.79,5.79,0,0,0,5.453-7.667m-35.139-18.424H349.33a2.635,2.635,0,1,1,0-5.271h19.315a2.635,2.635,0,1,1,0,5.271M380.734,389h-31.4a2.635,2.635,0,1,1,0-5.271h31.4a2.635,2.635,0,1,1,0,5.271m0-10.84h-31.4a2.635,2.635,0,1,1,0-5.271h31.4a2.635,2.635,0,1,1,0,5.271" fill="#fff"/><path d="M577.928,277.357V271.45A44.133,44.133,0,0,0,549.2,283.317l4.177,4.177a38.243,38.243,0,0,1,24.548-10.137" fill="#01074e"/><path d="M551.289,289.574l-4.176-4.176a44.121,44.121,0,0,0-11.968,28.727h5.906a38.252,38.252,0,0,1,10.238-24.551" fill="#01074e"/><path d="M554.562,344.987a38.3,38.3,0,0,1-13.511-27.908h-5.907a44.184,44.184,0,0,0,15.23,32.09l-4.932,4.932,22.15,5.906-8.86-19.2Z" fill="#01074e"/><path d="M607.608,341.723l4.185,4.185a44.118,44.118,0,0,0,11.862-28.83h-5.907a38.225,38.225,0,0,1-10.14,24.645" fill="#01074e"/><path d="M596.681,350.007l2.934,5.134a44.374,44.374,0,0,0,10.1-7.138l-4.173-4.183a38.445,38.445,0,0,1-8.86,6.187" fill="#01074e"/><path d="M618.784,295.419l4.92-4.92-8.86-8.86-3.439,3.439c.018.018.037.034.053.052l-.008.009-.045-.061a44.155,44.155,0,0,0-30.523-13.628v5.907a38.277,38.277,0,0,1,26.346,11.9l-27.823,27.82-14.766-14.766-8.86,8.86L579.405,334.8l34.956-34.956.043.063a38.194,38.194,0,0,1,3.351,14.22h5.906a44.073,44.073,0,0,0-4.83-18.644Z" fill="#01074e"/></g></g><g transform="translate(-471.436 1358)"><g opacity="0.39"><g clip-path="url(#b)"><path d="M921.916,362.656a30.24,30.24,0,1,1-30.24-30.24,30.24,30.24,0,0,1,30.24,30.24" fill="#bde038"/></g></g><g opacity="0.36"><g clip-path="url(#c)"><path d="M913.516,362.656a21.84,21.84,0,1,1-21.84-21.84,21.84,21.84,0,0,1,21.84,21.84" fill="#bde038"/></g></g><path d="M906.8,362.656a15.12,15.12,0,1,1-15.12-15.12,15.119,15.119,0,0,1,15.12,15.12" fill="#bde038"/><path d="M892.782,361.333h3.954v2.857h-3.954v4.469h-3.011V364.19h-3.965v-2.857h3.965v-4.282h3.011Z"/></g><g transform="translate(-236.916 1526.687)"><g opacity="0.39"><g clip-path="url(#b)"><path d="M921.916,362.656a30.24,30.24,0,1,1-30.24-30.24,30.24,30.24,0,0,1,30.24,30.24" fill="#bde038"/></g></g><g opacity="0.36"><g clip-path="url(#c)"><path d="M913.516,362.656a21.84,21.84,0,1,1-21.84-21.84,21.84,21.84,0,0,1,21.84,21.84" fill="#bde038"/></g></g><path d="M906.8,362.656a15.12,15.12,0,1,1-15.12-15.12,15.119,15.119,0,0,1,15.12,15.12" fill="#bde038"/><path d="M892.782,361.333h3.954v2.857h-3.954v4.469h-3.011V364.19h-3.965v-2.857h3.965v-4.282h3.011Z"/></g><g transform="translate(288.084 1428.687)"><g opacity="0.39"><g clip-path="url(#b)"><path d="M921.916,362.656a30.24,30.24,0,1,1-30.24-30.24,30.24,30.24,0,0,1,30.24,30.24" fill="#bde038"/></g></g><g opacity="0.36"><g clip-path="url(#c)"><path d="M913.516,362.656a21.84,21.84,0,1,1-21.84-21.84,21.84,21.84,0,0,1,21.84,21.84" fill="#bde038"/></g></g><path d="M906.8,362.656a15.12,15.12,0,1,1-15.12-15.12,15.119,15.119,0,0,1,15.12,15.12" fill="#bde038"/><path d="M892.782,361.333h3.954v2.857h-3.954v4.469h-3.011V364.19h-3.965v-2.857h3.965v-4.282h3.011Z"/></g></g></svg>