<svg xmlns="http://www.w3.org/2000/svg" xmlns:xlink="http://www.w3.org/1999/xlink" width="610" height="479.269" viewBox="0 0 610 479.269"><defs><clipPath id="a"><rect width="610" height="479.269" fill="none"/></clipPath></defs><g clip-path="url(#a)"><path d="M383.716,55.458l-.755,5.086h-3.452l2.227-14.84h5.677a5.415,5.415,0,0,1,3.941,1.361,3.85,3.85,0,0,1,1.083,3.522,5.276,5.276,0,0,1-2.079,3.572,7.135,7.135,0,0,1-4.4,1.3Zm.4-2.651h2.235a2.587,2.587,0,0,0,1.787-.627,2.551,2.551,0,0,0,.847-1.574,2.069,2.069,0,0,0-.347-1.636,1.955,1.955,0,0,0-1.624-.617h-2.226Z" transform="translate(-124.909 -15.098)" fill="#01074e"/><path d="M403.686,54.857l-.847,5.687h-3.451L401.614,45.7h5.177a5.7,5.7,0,0,1,3.87,1.2,3.369,3.369,0,0,1,1.072,3.251,3.891,3.891,0,0,1-.919,2.019,5.107,5.107,0,0,1-2,1.315,2.815,2.815,0,0,1,1.752,1.309,3.575,3.575,0,0,1,.3,2.217l-.142.938a5.526,5.526,0,0,0-.026,1.335,1.483,1.483,0,0,0,.445,1.051l-.031.2h-3.564a1.441,1.441,0,0,1-.368-1.1,9.035,9.035,0,0,1,.1-1.508l.143-.9a1.654,1.654,0,0,0-1.878-2.181Zm.4-2.651h1.756a2.652,2.652,0,0,0,1.639-.479,2.025,2.025,0,0,0,.781-1.356,1.75,1.75,0,0,0-.347-1.477,1.939,1.939,0,0,0-1.521-.54h-1.725Z" transform="translate(-131.452 -15.097)" fill="#01074e"/><path d="M432.812,54.353a7.316,7.316,0,0,1-2.42,4.576,7.1,7.1,0,0,1-4.82,1.722,5.188,5.188,0,0,1-5.392-6.3l.4-2.671a7.223,7.223,0,0,1,2.414-4.566,7.151,7.151,0,0,1,4.856-1.732,5.256,5.256,0,0,1,4.227,1.8,5.4,5.4,0,0,1,1.133,4.5Zm-3.043-2.691a3.939,3.939,0,0,0-.348-2.64,2.113,2.113,0,0,0-1.97-.989,2.942,2.942,0,0,0-2.272,1.024,4.848,4.848,0,0,0-1.159,2.6l-.4,2.691a3.928,3.928,0,0,0,.342,2.66,2.157,2.157,0,0,0,2.007.989,2.9,2.9,0,0,0,2.231-1.029,4.954,4.954,0,0,0,1.169-2.62Z" transform="translate(-138.266 -14.992)" fill="#01074e"/><path d="M448.708,45.7h3.452l-1.512,10.08a5.668,5.668,0,0,1-1.935,3.664,5.745,5.745,0,0,1-3.793,1.309,5.322,5.322,0,0,1-3.743-1.217,3.6,3.6,0,0,1-.934-3.481l.021-.061h3.379a1.862,1.862,0,0,0,.3,1.626,1.842,1.842,0,0,0,1.374.483,1.549,1.549,0,0,0,1.179-.621,3.313,3.313,0,0,0,.7-1.7Z" transform="translate(-144.869 -15.098)" fill="#01074e"/><path d="M467.87,54.194h-5.238l-.551,3.7h6.28l-.4,2.65h-9.731l2.226-14.84H470.2l-.4,2.65h-6.29l-.48,3.191h5.238Z" transform="translate(-150.818 -15.097)" fill="#01074e"/><path d="M488.04,55.434l.02.062a5.6,5.6,0,0,1-2,3.9,7.038,7.038,0,0,1-4.391,1.259,4.944,4.944,0,0,1-5.187-6.085l.47-3.1a7.119,7.119,0,0,1,2.262-4.449,6.564,6.564,0,0,1,4.518-1.636,5.764,5.764,0,0,1,4.12,1.325,4.035,4.035,0,0,1,.986,3.812l-.03.061h-3.37a2.54,2.54,0,0,0-.276-1.982,2.333,2.333,0,0,0-1.828-.566,2.422,2.422,0,0,0-1.909.943,4.828,4.828,0,0,0-1.021,2.472l-.47,3.119a3.774,3.774,0,0,0,.3,2.523,1.964,1.964,0,0,0,1.833.912,2.5,2.5,0,0,0,1.776-.6,3.294,3.294,0,0,0,.847-1.967Z" transform="translate(-156.796 -14.992)" fill="#01074e"/><path d="M507.707,48.353h-3.931l-1.827,12.191H498.5l1.828-12.191h-3.86l.4-2.65h11.242Z" transform="translate(-163.402 -15.098)" fill="#01074e"/><path d="M371.625,97.95l2.227-14.84h4.87a6.959,6.959,0,0,1,4.105,1.035,2.927,2.927,0,0,1,1.143,3.042,4.2,4.2,0,0,1-.765,1.906,3.609,3.609,0,0,1-1.7,1.223,2.517,2.517,0,0,1,1.762,1.177,3.235,3.235,0,0,1,.331,2.064,4.628,4.628,0,0,1-1.946,3.318,7.723,7.723,0,0,1-4.365,1.075Zm4.4-6.371-.551,3.721h2.215a2.931,2.931,0,0,0,1.7-.443,1.866,1.866,0,0,0,.771-1.321,1.815,1.815,0,0,0-.27-1.457,2.025,2.025,0,0,0-1.517-.5h-2.349Zm.348-2.283h1.358a3.573,3.573,0,0,0,1.9-.439,1.761,1.761,0,0,0,.838-1.284,1.411,1.411,0,0,0-.378-1.4,2.87,2.87,0,0,0-1.767-.418H376.9Z" transform="translate(-122.314 -27.454)" fill="#01074e"/><path d="M399.157,95.066h-4.412l-1.3,2.885h-3.635l7.076-14.84h1.848v.01l.01-.01H400.6l2.634,14.84H399.6Zm-3.227-2.65h2.828l-.684-4.6-.061-.011Z" transform="translate(-128.3 -27.454)" fill="#01074e"/><path d="M423.643,92.84l.02.062a5.6,5.6,0,0,1-2,3.9,7.038,7.038,0,0,1-4.391,1.259,4.944,4.944,0,0,1-5.187-6.085l.47-3.1a7.119,7.119,0,0,1,2.262-4.449,6.564,6.564,0,0,1,4.518-1.636,5.764,5.764,0,0,1,4.12,1.325,4.035,4.035,0,0,1,.986,3.812l-.03.061h-3.37a2.54,2.54,0,0,0-.276-1.982,2.333,2.333,0,0,0-1.828-.566,2.423,2.423,0,0,0-1.909.943A4.828,4.828,0,0,0,416,88.854l-.47,3.119a3.773,3.773,0,0,0,.3,2.523,1.964,1.964,0,0,0,1.833.912,2.5,2.5,0,0,0,1.776-.6,3.294,3.294,0,0,0,.847-1.967Z" transform="translate(-135.601 -27.348)" fill="#01074e"/><path d="M436.463,92.059h-.98l-.878,5.892h-3.452l2.226-14.84h3.452l-.888,5.87h.929l3.533-5.87h4.555l-5.382,7.348,3.349,7.492h-3.982Z" transform="translate(-141.906 -27.454)" fill="#01074e"/><path d="M454.287,95.3h6.382l-.4,2.65h-9.833l2.226-14.84h3.452Z" transform="translate(-148.254 -27.454)" fill="#01074e"/><path d="M481.015,91.759a7.316,7.316,0,0,1-2.42,4.576,7.1,7.1,0,0,1-4.819,1.722,5.188,5.188,0,0,1-5.392-6.3l.4-2.671a7.224,7.224,0,0,1,2.414-4.566,7.151,7.151,0,0,1,4.856-1.732,5.256,5.256,0,0,1,4.227,1.8,5.4,5.4,0,0,1,1.133,4.5Zm-3.043-2.691a3.938,3.938,0,0,0-.348-2.64,2.113,2.113,0,0,0-1.97-.989,2.942,2.942,0,0,0-2.272,1.024,4.848,4.848,0,0,0-1.159,2.6l-.4,2.691a3.928,3.928,0,0,0,.342,2.66,2.157,2.157,0,0,0,2.007.989,2.9,2.9,0,0,0,2.231-1.029,4.955,4.955,0,0,0,1.169-2.62Z" transform="translate(-154.131 -27.348)" fill="#01074e"/><path d="M501.435,92.84l.02.062a5.6,5.6,0,0,1-2,3.9,7.038,7.038,0,0,1-4.391,1.259,4.944,4.944,0,0,1-5.187-6.085l.47-3.1a7.119,7.119,0,0,1,2.262-4.449,6.563,6.563,0,0,1,4.518-1.636,5.764,5.764,0,0,1,4.12,1.325,4.035,4.035,0,0,1,.986,3.812l-.03.061h-3.37a2.54,2.54,0,0,0-.276-1.982,2.333,2.333,0,0,0-1.828-.566,2.422,2.422,0,0,0-1.909.943,4.827,4.827,0,0,0-1.021,2.472l-.47,3.119a3.773,3.773,0,0,0,.3,2.523,1.964,1.964,0,0,0,1.833.912,2.5,2.5,0,0,0,1.776-.6,3.294,3.294,0,0,0,.847-1.967Z" transform="translate(-161.205 -27.348)" fill="#01074e"/><path d="M514.255,92.059h-.98l-.878,5.892h-3.452l2.226-14.84h3.452l-.888,5.87h.929l3.533-5.87h4.555l-5.382,7.348,3.349,7.492h-3.982Z" transform="translate(-167.51 -27.454)" fill="#01074e"/><path d="M368.828,692.792h-5.453l-.888,5.973h-3.452l2.227-14.84H371.2l-.4,2.65h-6.485l-.541,3.567h5.453Z" transform="translate(-118.17 -225.924)" fill="#01074e"/><path d="M386.072,692.415h-5.238l-.551,3.7h6.28l-.4,2.65h-9.731l2.226-14.84H388.4l-.4,2.65h-6.29l-.48,3.191h5.238Z" transform="translate(-123.896 -225.924)" fill="#01074e"/><path d="M401.484,695.88h-4.412l-1.3,2.885h-3.635l7.076-14.84h1.848v.01l.01-.01h1.848l2.635,14.84h-3.635Zm-3.227-2.65h2.828l-.684-4.6-.061-.011Z" transform="translate(-129.066 -225.925)" fill="#01074e"/><path d="M425,686.574h-3.931l-1.827,12.191h-3.452l1.828-12.191h-3.86l.4-2.65H425.4Z" transform="translate(-136.18 -225.924)" fill="#01074e"/><path d="M444.583,683.924l-1.44,9.622a5.9,5.9,0,0,1-2.292,4.042,7.6,7.6,0,0,1-4.64,1.391,5.845,5.845,0,0,1-4.187-1.456,4.244,4.244,0,0,1-1.154-3.976l1.44-9.622h3.462l-1.44,9.622a2.481,2.481,0,0,0,.383,2.105,2.418,2.418,0,0,0,1.894.677,3.023,3.023,0,0,0,2.037-.7,3.291,3.291,0,0,0,1.037-2.08l1.44-9.622Z" transform="translate(-141.787 -225.924)" fill="#01074e"/><path d="M455.738,693.077l-.847,5.688H451.44l2.226-14.84h5.177a5.7,5.7,0,0,1,3.87,1.2,3.37,3.37,0,0,1,1.072,3.251,3.887,3.887,0,0,1-.919,2.018,5.106,5.106,0,0,1-2,1.315,2.818,2.818,0,0,1,1.752,1.309,3.576,3.576,0,0,1,.3,2.217l-.142.938a5.533,5.533,0,0,0-.026,1.335,1.483,1.483,0,0,0,.445,1.05l-.031.2H459.6a1.441,1.441,0,0,1-.368-1.1,9.044,9.044,0,0,1,.1-1.509l.143-.9a1.654,1.654,0,0,0-1.878-2.181Zm.4-2.65h1.756a2.653,2.653,0,0,0,1.639-.479,2.025,2.025,0,0,0,.781-1.356,1.752,1.752,0,0,0-.347-1.478,1.939,1.939,0,0,0-1.522-.54h-1.725Z" transform="translate(-148.583 -225.924)" fill="#01074e"/><path d="M480.958,692.415h-5.238l-.551,3.7h6.28l-.4,2.65h-9.731l2.226-14.84h9.741l-.4,2.65H476.6l-.48,3.191h5.238Z" transform="translate(-155.126 -225.924)" fill="#01074e"/><path d="M500.327,696.115h6.382l-.4,2.65h-9.833l2.226-14.84h3.452Z" transform="translate(-163.407 -225.924)" fill="#01074e"/><path d="M517.651,698.765H514.21l2.225-14.84h3.441Z" transform="translate(-169.243 -225.924)" fill="#01074e"/><path d="M531.917,694.959a1.391,1.391,0,0,0-.388-1.351,7.442,7.442,0,0,0-2.021-1,11.022,11.022,0,0,1-3.962-2.058,3.176,3.176,0,0,1-1.041-3.007,4.017,4.017,0,0,1,1.925-2.88,7.221,7.221,0,0,1,3.977-1.055,5.98,5.98,0,0,1,3.972,1.212,3.314,3.314,0,0,1,1.072,3.334l-.02.062h-3.36a1.534,1.534,0,0,0-.454-1.417,2.261,2.261,0,0,0-1.608-.54,2.562,2.562,0,0,0-1.358.367,1.3,1.3,0,0,0-.684.9,1.173,1.173,0,0,0,.46,1.233,11.985,11.985,0,0,0,2.471,1.07,8.726,8.726,0,0,1,3.584,1.988,3.5,3.5,0,0,1,.889,3.129,4.026,4.026,0,0,1-1.915,2.92,8.368,8.368,0,0,1-8.159-.1A3.1,3.1,0,0,1,524,694.328l.02-.062h3.35a1.33,1.33,0,0,0,.6,1.524,3.774,3.774,0,0,0,1.874.433,2.672,2.672,0,0,0,1.374-.362,1.286,1.286,0,0,0,.7-.9" transform="translate(-172.44 -225.819)" fill="#01074e"/><path d="M555.1,686.574H551.17l-1.827,12.191h-3.452l1.828-12.191h-3.86l.4-2.65H555.5Z" transform="translate(-179.002 -225.924)" fill="#01074e"/><path d="M752.209,73.8a1.391,1.391,0,0,0-.388-1.351,7.439,7.439,0,0,0-2.021-1,11.024,11.024,0,0,1-3.962-2.059,3.176,3.176,0,0,1-1.041-3.007,4.017,4.017,0,0,1,1.925-2.88,7.222,7.222,0,0,1,3.977-1.055,5.979,5.979,0,0,1,3.972,1.212,3.313,3.313,0,0,1,1.072,3.334l-.02.062h-3.36a1.534,1.534,0,0,0-.454-1.417,2.261,2.261,0,0,0-1.608-.54,2.562,2.562,0,0,0-1.358.367,1.3,1.3,0,0,0-.684.9,1.173,1.173,0,0,0,.46,1.233,12,12,0,0,0,2.471,1.07,8.727,8.727,0,0,1,3.584,1.988,3.5,3.5,0,0,1,.889,3.129,4.026,4.026,0,0,1-1.915,2.92,8.368,8.368,0,0,1-8.159-.1,3.1,3.1,0,0,1-1.291-3.435l.02-.062h3.35a1.33,1.33,0,0,0,.6,1.524,3.773,3.773,0,0,0,1.874.433,2.672,2.672,0,0,0,1.374-.362,1.286,1.286,0,0,0,.7-.9" transform="translate(-244.945 -20.629)" fill="#01074e"/><path d="M766.973,72.521l-.755,5.086h-3.452l2.227-14.84h5.677a5.416,5.416,0,0,1,3.941,1.361,3.852,3.852,0,0,1,1.083,3.522,5.276,5.276,0,0,1-2.078,3.572,7.135,7.135,0,0,1-4.406,1.3Zm.4-2.651h2.236a2.59,2.59,0,0,0,1.787-.627,2.553,2.553,0,0,0,.847-1.574,2.069,2.069,0,0,0-.347-1.636,1.955,1.955,0,0,0-1.624-.617h-2.226Z" transform="translate(-251.051 -20.734)" fill="#01074e"/><path d="M786.943,71.92l-.847,5.687h-3.451l2.226-14.84h5.177a5.7,5.7,0,0,1,3.87,1.2,3.37,3.37,0,0,1,1.072,3.251,3.887,3.887,0,0,1-.919,2.018,5.107,5.107,0,0,1-2,1.315,2.818,2.818,0,0,1,1.752,1.309,3.577,3.577,0,0,1,.3,2.217l-.142.938a5.54,5.54,0,0,0-.026,1.335,1.483,1.483,0,0,0,.445,1.05l-.031.2H790.8a1.44,1.44,0,0,1-.368-1.1,9.051,9.051,0,0,1,.1-1.509l.143-.9A1.654,1.654,0,0,0,788.8,71.92Zm.4-2.65H789.1a2.652,2.652,0,0,0,1.639-.479,2.024,2.024,0,0,0,.781-1.355,1.752,1.752,0,0,0-.347-1.478,1.939,1.939,0,0,0-1.521-.54h-1.726Z" transform="translate(-257.594 -20.734)" fill="#01074e"/><path d="M806.284,77.608h-3.441l2.225-14.84h3.442Z" transform="translate(-264.241 -20.734)" fill="#01074e"/><path d="M824.219,77.608h-3.441l-4.054-9.336-.061.01-1.389,9.326h-3.452l2.226-14.84H817.5l4.043,9.326.062-.011,1.4-9.316h3.442Z" transform="translate(-267.197 -20.734)" fill="#01074e"/><path d="M846.017,65.417h-3.931l-1.828,12.191h-3.452l1.828-12.191h-3.86l.4-2.65h11.242Z" transform="translate(-274.751 -20.734)" fill="#01074e"/><path d="M722.766,115.014l2.227-14.84h4.87a6.959,6.959,0,0,1,4.1,1.035,2.927,2.927,0,0,1,1.143,3.042,4.191,4.191,0,0,1-.766,1.905,3.61,3.61,0,0,1-1.7,1.223,2.517,2.517,0,0,1,1.762,1.177,3.232,3.232,0,0,1,.331,2.063,4.628,4.628,0,0,1-1.945,3.319,7.729,7.729,0,0,1-4.365,1.075Zm4.4-6.371-.551,3.721h2.215a2.936,2.936,0,0,0,1.7-.443,1.867,1.867,0,0,0,.771-1.321,1.814,1.814,0,0,0-.27-1.457,2.025,2.025,0,0,0-1.517-.5h-2.349Zm.348-2.284h1.358a3.579,3.579,0,0,0,1.9-.438,1.762,1.762,0,0,0,.838-1.284,1.411,1.411,0,0,0-.378-1.4,2.87,2.87,0,0,0-1.767-.419h-1.419Z" transform="translate(-237.886 -33.091)" fill="#01074e"/><path d="M750.3,112.13h-4.412l-1.3,2.885h-3.635l7.076-14.84h1.848v.01l.01-.01h1.848l2.635,14.84h-3.635Zm-3.227-2.65H749.9l-.684-4.6-.061-.011Z" transform="translate(-243.872 -33.091)" fill="#01074e"/><path d="M774.784,109.9l.02.062a5.6,5.6,0,0,1-2,3.9,7.038,7.038,0,0,1-4.391,1.259,4.944,4.944,0,0,1-5.187-6.085l.47-3.1a7.119,7.119,0,0,1,2.262-4.449,6.564,6.564,0,0,1,4.518-1.636,5.764,5.764,0,0,1,4.12,1.325,4.035,4.035,0,0,1,.985,3.812l-.03.061h-3.37a2.54,2.54,0,0,0-.276-1.982,2.333,2.333,0,0,0-1.828-.566,2.423,2.423,0,0,0-1.909.943,4.828,4.828,0,0,0-1.021,2.472l-.47,3.119a3.773,3.773,0,0,0,.3,2.523,1.964,1.964,0,0,0,1.833.912,2.5,2.5,0,0,0,1.776-.6,3.3,3.3,0,0,0,.847-1.967Z" transform="translate(-251.173 -32.985)" fill="#01074e"/><path d="M787.6,109.122h-.98l-.878,5.892h-3.452l2.226-14.84h3.452l-.888,5.87h.929l3.533-5.87H796.1l-5.382,7.348,3.349,7.492h-3.982Z" transform="translate(-257.478 -33.091)" fill="#01074e"/><path d="M805.428,112.364h6.382l-.4,2.65h-9.833l2.226-14.84h3.452Z" transform="translate(-263.825 -33.091)" fill="#01074e"/><path d="M832.156,108.823a7.315,7.315,0,0,1-2.42,4.576,7.094,7.094,0,0,1-4.819,1.722,5.188,5.188,0,0,1-5.392-6.3l.4-2.671a7.224,7.224,0,0,1,2.414-4.566,7.151,7.151,0,0,1,4.856-1.732,5.256,5.256,0,0,1,4.227,1.8,5.4,5.4,0,0,1,1.133,4.5Zm-3.043-2.691a3.939,3.939,0,0,0-.348-2.64,2.113,2.113,0,0,0-1.97-.989,2.942,2.942,0,0,0-2.272,1.024,4.847,4.847,0,0,0-1.159,2.6l-.4,2.691a3.928,3.928,0,0,0,.342,2.66,2.157,2.157,0,0,0,2.007.989,2.9,2.9,0,0,0,2.231-1.029,4.955,4.955,0,0,0,1.169-2.62Z" transform="translate(-269.703 -32.985)" fill="#01074e"/><path d="M852.576,109.9l.019.062a5.6,5.6,0,0,1-2,3.9,7.041,7.041,0,0,1-4.392,1.259,4.944,4.944,0,0,1-5.187-6.085l.47-3.1a7.12,7.12,0,0,1,2.263-4.449,6.562,6.562,0,0,1,4.518-1.636,5.764,5.764,0,0,1,4.12,1.325,4.035,4.035,0,0,1,.986,3.812l-.03.061h-3.37a2.534,2.534,0,0,0-.276-1.982,2.33,2.33,0,0,0-1.828-.566,2.424,2.424,0,0,0-1.909.943,4.822,4.822,0,0,0-1.02,2.472l-.47,3.119a3.774,3.774,0,0,0,.3,2.523,1.964,1.964,0,0,0,1.833.912,2.5,2.5,0,0,0,1.776-.6,3.29,3.29,0,0,0,.847-1.967Z" transform="translate(-276.776 -32.985)" fill="#01074e"/><path d="M865.4,109.122h-.98l-.878,5.892h-3.452l2.226-14.84h3.452l-.888,5.87h.929l3.533-5.87h4.554l-5.382,7.348,3.349,7.492h-3.982Z" transform="translate(-283.082 -33.091)" fill="#01074e"/><path d="M145.414,67.2A62.695,62.695,0,1,1,82.72,4.622,62.638,62.638,0,0,1,145.414,67.2" transform="translate(-6.591 -1.527)" fill="#0043ff"/><path d="M103.489,77.37a18.844,18.844,0,0,0,18.857-18.824,18.863,18.863,0,0,0-32.19-13.308,18.792,18.792,0,0,0,0,26.618,18.268,18.268,0,0,0,13.332,5.514" transform="translate(-27.855 -13.122)" fill="#fff"/><path d="M129.956,118.44a46.338,46.338,0,0,0-.635-4.938,38.78,38.78,0,0,0-1.216-4.965,24.5,24.5,0,0,0-2.045-4.631,17.5,17.5,0,0,0-3.083-4.011,13.594,13.594,0,0,0-4.429-2.778,15.323,15.323,0,0,0-5.654-1.021c-.8,0-1.573.327-3.065,1.3-.918.6-1.993,1.29-3.193,2.055a18.29,18.29,0,0,1-4.131,1.817,16.07,16.07,0,0,1-10.105,0,18.255,18.255,0,0,1-4.129-1.816c-1.188-.758-2.263-1.449-3.2-2.056-1.491-.97-2.265-1.3-3.064-1.3a15.3,15.3,0,0,0-5.653,1.023,13.586,13.586,0,0,0-4.43,2.778,17.471,17.471,0,0,0-3.082,4.01,24.555,24.555,0,0,0-2.045,4.631,38.992,38.992,0,0,0-1.216,4.964,46.168,46.168,0,0,0-.634,4.94c-.1,1.5-.157,3.047-.157,4.615a12.965,12.965,0,0,0,3.862,9.818,13.913,13.913,0,0,0,9.949,3.623h37.7a13.911,13.911,0,0,0,9.949-3.623,12.961,12.961,0,0,0,3.862-9.819c0-1.574-.054-3.128-.158-4.616" transform="translate(-21.326 -31.744)" fill="#fff"/><path d="M145.414,316.416A62.695,62.695,0,1,1,82.72,253.834a62.638,62.638,0,0,1,62.695,62.582" transform="translate(-6.591 -83.85)" fill="#0043ff"/><path d="M103.489,326.581a18.845,18.845,0,1,0-13.332-5.514,18.264,18.264,0,0,0,13.332,5.514" transform="translate(-27.855 -95.445)" fill="#fff"/><path d="M129.956,367.651a46.338,46.338,0,0,0-.635-4.938,38.78,38.78,0,0,0-1.216-4.965,24.5,24.5,0,0,0-2.045-4.631,17.5,17.5,0,0,0-3.083-4.011,13.6,13.6,0,0,0-4.429-2.778,15.323,15.323,0,0,0-5.654-1.021c-.8,0-1.573.327-3.065,1.3-.918.6-1.993,1.29-3.193,2.055a18.289,18.289,0,0,1-4.131,1.817,16.07,16.07,0,0,1-10.105,0,18.256,18.256,0,0,1-4.129-1.816c-1.188-.758-2.263-1.449-3.2-2.056-1.491-.97-2.265-1.3-3.064-1.3a15.3,15.3,0,0,0-5.653,1.023,13.585,13.585,0,0,0-4.43,2.778,17.47,17.47,0,0,0-3.082,4.01,24.555,24.555,0,0,0-2.045,4.631,38.992,38.992,0,0,0-1.216,4.964,46.167,46.167,0,0,0-.634,4.94c-.1,1.5-.157,3.047-.157,4.615a12.965,12.965,0,0,0,3.862,9.818,13.913,13.913,0,0,0,9.949,3.623h37.7a13.911,13.911,0,0,0,9.949-3.623,12.961,12.961,0,0,0,3.862-9.819c0-1.574-.054-3.128-.158-4.616" transform="translate(-21.326 -114.067)" fill="#fff"/><path d="M145.414,552.156A62.695,62.695,0,1,1,82.72,489.574a62.638,62.638,0,0,1,62.695,62.582" transform="translate(-6.591 -161.723)" fill="#0043ff"/><path d="M103.489,562.322a18.845,18.845,0,1,0-13.332-5.514,18.264,18.264,0,0,0,13.332,5.514" transform="translate(-27.855 -173.319)" fill="#fff"/><path d="M129.956,603.392a46.338,46.338,0,0,0-.635-4.938,38.779,38.779,0,0,0-1.216-4.965,24.5,24.5,0,0,0-2.045-4.631,17.5,17.5,0,0,0-3.083-4.011,13.6,13.6,0,0,0-4.429-2.778,15.323,15.323,0,0,0-5.654-1.021c-.8,0-1.573.327-3.065,1.3-.918.6-1.993,1.29-3.193,2.054a18.286,18.286,0,0,1-4.131,1.817,16.071,16.071,0,0,1-10.105,0,18.257,18.257,0,0,1-4.129-1.816c-1.188-.758-2.263-1.449-3.2-2.056-1.491-.97-2.265-1.3-3.064-1.3a15.3,15.3,0,0,0-5.653,1.023,13.584,13.584,0,0,0-4.43,2.778,17.467,17.467,0,0,0-3.082,4.01A24.556,24.556,0,0,0,66.8,593.49a38.994,38.994,0,0,0-1.216,4.964,46.167,46.167,0,0,0-.634,4.94c-.1,1.5-.157,3.047-.157,4.615a12.965,12.965,0,0,0,3.862,9.818,13.913,13.913,0,0,0,9.949,3.623h37.7a13.911,13.911,0,0,0,9.949-3.623,12.961,12.961,0,0,0,3.862-9.819c0-1.574-.054-3.128-.158-4.616" transform="translate(-21.326 -191.941)" fill="#fff"/><path d="M4.207,216.81,3.452,221.9H0l2.227-14.84H7.9a5.416,5.416,0,0,1,3.941,1.36,3.851,3.851,0,0,1,1.083,3.522,5.277,5.277,0,0,1-2.078,3.573,7.139,7.139,0,0,1-4.406,1.3Zm.4-2.651H6.842a2.589,2.589,0,0,0,1.787-.626,2.557,2.557,0,0,0,.847-1.575,2.068,2.068,0,0,0-.347-1.635,1.953,1.953,0,0,0-1.624-.617H5.279Z" transform="translate(0 -68.398)" fill="#01074e"/><path d="M24.176,216.208l-.847,5.687H19.878l2.226-14.84h5.177a5.7,5.7,0,0,1,3.87,1.2,3.37,3.37,0,0,1,1.072,3.251,3.887,3.887,0,0,1-.919,2.018,5.108,5.108,0,0,1-2,1.315,2.817,2.817,0,0,1,1.752,1.309,3.576,3.576,0,0,1,.3,2.217l-.142.938a5.529,5.529,0,0,0-.026,1.335,1.483,1.483,0,0,0,.445,1.05l-.031.2H28.036a1.441,1.441,0,0,1-.368-1.1,9.038,9.038,0,0,1,.1-1.509l.143-.9a1.654,1.654,0,0,0-1.878-2.181Zm.4-2.65h1.756a2.653,2.653,0,0,0,1.639-.479,2.025,2.025,0,0,0,.781-1.355,1.752,1.752,0,0,0-.347-1.478,1.939,1.939,0,0,0-1.522-.54H25.157Z" transform="translate(-6.542 -68.398)" fill="#01074e"/><path d="M53.3,215.705a7.316,7.316,0,0,1-2.42,4.576A7.1,7.1,0,0,1,46.063,222a5.188,5.188,0,0,1-5.392-6.3l.4-2.671a7.224,7.224,0,0,1,2.414-4.566,7.151,7.151,0,0,1,4.856-1.732,5.256,5.256,0,0,1,4.227,1.8,5.4,5.4,0,0,1,1.133,4.5Zm-3.043-2.691a3.938,3.938,0,0,0-.348-2.64,2.113,2.113,0,0,0-1.97-.989,2.942,2.942,0,0,0-2.272,1.024,4.848,4.848,0,0,0-1.159,2.6l-.4,2.691a3.928,3.928,0,0,0,.342,2.66,2.157,2.157,0,0,0,2.007.989,2.9,2.9,0,0,0,2.231-1.029,4.955,4.955,0,0,0,1.169-2.62Z" transform="translate(-13.357 -68.292)" fill="#01074e"/><path d="M69.2,207.055h3.452l-1.511,10.08A5.669,5.669,0,0,1,69.2,220.8a5.745,5.745,0,0,1-3.793,1.309,5.322,5.322,0,0,1-3.743-1.217,3.6,3.6,0,0,1-.934-3.481l.021-.061h3.379a1.862,1.862,0,0,0,.3,1.626,1.842,1.842,0,0,0,1.374.483,1.549,1.549,0,0,0,1.179-.621,3.313,3.313,0,0,0,.7-1.7Z" transform="translate(-19.96 -68.398)" fill="#01074e"/><path d="M88.36,215.545H83.122l-.551,3.7h6.28l-.4,2.65H78.721l2.226-14.84h9.741l-.4,2.65H84l-.48,3.191h5.238Z" transform="translate(-25.91 -68.397)" fill="#01074e"/><path d="M108.531,216.786l.02.062a5.6,5.6,0,0,1-2,3.9A7.038,7.038,0,0,1,102.16,222a4.944,4.944,0,0,1-5.187-6.085l.47-3.1a7.119,7.119,0,0,1,2.262-4.449,6.564,6.564,0,0,1,4.518-1.636,5.764,5.764,0,0,1,4.12,1.325,4.035,4.035,0,0,1,.986,3.812l-.03.061h-3.37a2.54,2.54,0,0,0-.276-1.982,2.333,2.333,0,0,0-1.828-.566,2.422,2.422,0,0,0-1.909.943,4.828,4.828,0,0,0-1.021,2.472l-.47,3.119a3.774,3.774,0,0,0,.3,2.523,1.964,1.964,0,0,0,1.833.912,2.5,2.5,0,0,0,1.776-.6,3.294,3.294,0,0,0,.847-1.967Z" transform="translate(-31.888 -68.292)" fill="#01074e"/><path d="M128.2,209.7h-3.931L122.439,221.9h-3.452l1.828-12.191h-3.86l.4-2.65H128.6Z" transform="translate(-38.494 -68.398)" fill="#01074e"/><path d="M153.463,209.7h-3.931L147.7,221.9h-3.452l1.828-12.191h-3.86l.4-2.65h11.242Z" transform="translate(-46.81 -68.398)" fill="#01074e"/><path d="M167.979,215.545H162.74l-.551,3.7h6.28l-.4,2.65h-9.731l2.226-14.84h9.741l-.4,2.65h-6.29l-.48,3.191h5.238Z" transform="translate(-52.115 -68.397)" fill="#01074e"/><path d="M183.39,219.012h-4.412l-1.3,2.885h-3.635l7.076-14.84h1.848v.01l.01-.01h1.848l2.635,14.84h-3.635Zm-3.227-2.65h2.828l-.684-4.6-.061-.011Z" transform="translate(-57.284 -68.398)" fill="#01074e"/><path d="M204.146,217.431l.061.011,4.922-10.387h4.564l-2.226,14.84h-3.451l1.429-9.551-.061-.01-4.707,9.561h-2.319l-1.807-9.417h-.062l-1.409,9.417H195.63l2.227-14.84h4.523Z" transform="translate(-64.388 -68.398)" fill="#01074e"/><path d="M73.265,459.079a7.316,7.316,0,0,1-2.42,4.577,7.1,7.1,0,0,1-4.82,1.722,5.188,5.188,0,0,1-5.392-6.3l.4-2.671a7.224,7.224,0,0,1,2.414-4.566A7.151,7.151,0,0,1,68.3,450.11a5.256,5.256,0,0,1,4.227,1.8,5.4,5.4,0,0,1,1.133,4.5Zm-3.043-2.691a3.938,3.938,0,0,0-.348-2.64,2.113,2.113,0,0,0-1.97-.989,2.942,2.942,0,0,0-2.272,1.024,4.848,4.848,0,0,0-1.159,2.6l-.4,2.691a3.928,3.928,0,0,0,.342,2.66,2.157,2.157,0,0,0,2.007.989,2.9,2.9,0,0,0,2.231-1.029,4.954,4.954,0,0,0,1.169-2.62Z" transform="translate(-19.927 -148.687)" fill="#01074e"/><path d="M94.576,460.04l.061.011,3.248-9.622h3.492L95.74,465.27H92.493l-1.123-9.164-.062-.01-3.859,9.174H84.2l-1.195-14.841h3.5l.347,9.632.062.01,3.972-9.642h2.6Z" transform="translate(-27.32 -148.792)" fill="#01074e"/><path d="M121.445,465.27H118l-4.054-9.336-.061.01L112.5,465.27h-3.452l2.226-14.84h3.452l4.043,9.326.062-.011,1.4-9.316h3.442Z" transform="translate(-35.892 -148.793)" fill="#01074e"/><path d="M140.7,458.92h-5.238l-.551,3.7h6.28l-.4,2.65h-9.731l2.226-14.84h9.741l-.4,2.65h-6.29l-.48,3.191H141.1Z" transform="translate(-43.136 -148.793)" fill="#01074e"/><path d="M152.753,459.582l-.847,5.688h-3.451l2.226-14.84h5.177a5.7,5.7,0,0,1,3.87,1.2,3.37,3.37,0,0,1,1.072,3.251,3.886,3.886,0,0,1-.919,2.018,5.107,5.107,0,0,1-2,1.315,2.817,2.817,0,0,1,1.752,1.309,3.576,3.576,0,0,1,.3,2.217l-.142.938a5.528,5.528,0,0,0-.026,1.335,1.483,1.483,0,0,0,.445,1.05l-.031.2h-3.564a1.441,1.441,0,0,1-.368-1.1,9.037,9.037,0,0,1,.1-1.509l.143-.9a1.654,1.654,0,0,0-1.878-2.181Zm.4-2.65h1.756a2.652,2.652,0,0,0,1.639-.479,2.025,2.025,0,0,0,.781-1.355,1.752,1.752,0,0,0-.347-1.478,1.94,1.94,0,0,0-1.522-.54h-1.725Z" transform="translate(-48.861 -148.793)" fill="#01074e"/><path d="M8.277,704.239a1.39,1.39,0,0,0-.388-1.351,7.441,7.441,0,0,0-2.021-1A11.024,11.024,0,0,1,1.9,699.826a3.176,3.176,0,0,1-1.041-3.007,4.017,4.017,0,0,1,1.925-2.88,7.221,7.221,0,0,1,3.977-1.055,5.979,5.979,0,0,1,3.972,1.212,3.313,3.313,0,0,1,1.072,3.334l-.02.062H8.43a1.535,1.535,0,0,0-.454-1.417,2.261,2.261,0,0,0-1.608-.54,2.563,2.563,0,0,0-1.359.367,1.3,1.3,0,0,0-.684.9,1.173,1.173,0,0,0,.46,1.233,11.984,11.984,0,0,0,2.471,1.07,8.727,8.727,0,0,1,3.584,1.988,3.5,3.5,0,0,1,.889,3.129,4.026,4.026,0,0,1-1.915,2.92,7.411,7.411,0,0,1-4.008,1.014,7.425,7.425,0,0,1-4.151-1.111,3.1,3.1,0,0,1-1.291-3.435l.02-.062h3.35a1.33,1.33,0,0,0,.6,1.524A3.773,3.773,0,0,0,6.2,705.5a2.672,2.672,0,0,0,1.374-.362,1.286,1.286,0,0,0,.7-.9" transform="translate(-0.093 -228.884)" fill="#01074e"/><path d="M31.462,695.854H27.53L25.7,708.045H22.251l1.828-12.191h-3.86l.4-2.65H31.86Z" transform="translate(-6.655 -228.99)" fill="#01074e"/><path d="M42.332,705.16H37.921l-1.3,2.885H32.989l7.076-14.84h1.848v.01l.01-.01h1.848l2.635,14.84H42.771Zm-3.227-2.65h2.828l-.684-4.6-.061-.011Z" transform="translate(-10.858 -228.99)" fill="#01074e"/><path d="M59.912,702.153h-.98l-.878,5.892H54.6l2.226-14.84H60.28l-.888,5.87h.929l3.533-5.87h4.555l-5.382,7.348,3.349,7.492H62.394Z" transform="translate(-17.971 -228.99)" fill="#01074e"/><path d="M83.526,701.695H78.288l-.551,3.7h6.28l-.4,2.65H73.887l2.226-14.84h9.741l-.4,2.65h-6.29l-.48,3.191h5.238Z" transform="translate(-24.319 -228.99)" fill="#01074e"/><path d="M103.68,708.045h-3.441l.888-5.973h-5.5l-.888,5.973H91.284L93.51,693.2h3.452l-.94,6.217h5.5l.939-6.217h3.442Z" transform="translate(-30.044 -228.99)" fill="#01074e"/><path d="M126.839,701.854a7.316,7.316,0,0,1-2.42,4.577,7.093,7.093,0,0,1-4.82,1.722,5.188,5.188,0,0,1-5.391-6.3l.4-2.671a7.227,7.227,0,0,1,2.414-4.566,7.152,7.152,0,0,1,4.856-1.732,5.255,5.255,0,0,1,4.226,1.8,5.4,5.4,0,0,1,1.134,4.5Zm-3.042-2.691a3.938,3.938,0,0,0-.348-2.64,2.112,2.112,0,0,0-1.97-.989,2.942,2.942,0,0,0-2.272,1.024,4.848,4.848,0,0,0-1.159,2.605l-.4,2.691a3.928,3.928,0,0,0,.342,2.66A2.155,2.155,0,0,0,120,705.5a2.9,2.9,0,0,0,2.231-1.029,4.96,4.96,0,0,0,1.17-2.62Z" transform="translate(-37.56 -228.884)" fill="#01074e"/><path d="M138.694,705.4h6.382l-.4,2.65h-9.833l2.226-14.84h3.452Z" transform="translate(-44.382 -228.99)" fill="#01074e"/><path d="M159.926,693.2A5.237,5.237,0,0,1,164,694.927a5.077,5.077,0,0,1,1.169,4.363l-.4,2.67a6.894,6.894,0,0,1-2.426,4.434,7.077,7.077,0,0,1-4.65,1.651h-5.443l2.226-14.84Zm-2.39,2.65-1.43,9.541H158.1a2.8,2.8,0,0,0,2.052-.968,4.453,4.453,0,0,0,1.164-2.467l.4-2.69a3.511,3.511,0,0,0-.388-2.487,2.017,2.017,0,0,0-1.8-.928Z" transform="translate(-50.113 -228.99)" fill="#01074e"/><path d="M182.261,701.695h-5.238l-.551,3.7h6.28l-.4,2.65h-9.731l2.226-14.84h9.741l-.4,2.65H177.9l-.48,3.191h5.238Z" transform="translate(-56.816 -228.99)" fill="#01074e"/><path d="M194.318,702.357l-.847,5.687H190.02l2.226-14.84h5.177a5.7,5.7,0,0,1,3.87,1.2,3.37,3.37,0,0,1,1.072,3.251,3.887,3.887,0,0,1-.919,2.018,5.107,5.107,0,0,1-2,1.315A2.817,2.817,0,0,1,201.2,702.3a3.576,3.576,0,0,1,.3,2.217l-.142.938a5.528,5.528,0,0,0-.026,1.335,1.483,1.483,0,0,0,.445,1.05l-.031.2h-3.564a1.44,1.44,0,0,1-.368-1.1,9.042,9.042,0,0,1,.1-1.509l.143-.9a1.654,1.654,0,0,0-1.878-2.181Zm.4-2.65h1.756a2.652,2.652,0,0,0,1.639-.479,2.025,2.025,0,0,0,.781-1.355,1.752,1.752,0,0,0-.347-1.478,1.94,1.94,0,0,0-1.522-.54H195.3Z" transform="translate(-62.542 -228.99)" fill="#01074e"/><path d="M218.625,704.239a1.391,1.391,0,0,0-.388-1.351,7.441,7.441,0,0,0-2.021-1,11.024,11.024,0,0,1-3.962-2.058,3.176,3.176,0,0,1-1.041-3.007,4.016,4.016,0,0,1,1.925-2.88,7.221,7.221,0,0,1,3.977-1.055,5.979,5.979,0,0,1,3.972,1.212,3.313,3.313,0,0,1,1.072,3.334l-.02.062h-3.36a1.535,1.535,0,0,0-.454-1.417,2.261,2.261,0,0,0-1.608-.54,2.563,2.563,0,0,0-1.358.367,1.3,1.3,0,0,0-.684.9,1.173,1.173,0,0,0,.46,1.233,11.984,11.984,0,0,0,2.471,1.07,8.727,8.727,0,0,1,3.584,1.988,3.5,3.5,0,0,1,.889,3.129,4.026,4.026,0,0,1-1.915,2.92,8.369,8.369,0,0,1-8.159-.1,3.1,3.1,0,0,1-1.291-3.435l.02-.062h3.35a1.33,1.33,0,0,0,.6,1.524,3.773,3.773,0,0,0,1.874.433,2.672,2.672,0,0,0,1.374-.362,1.286,1.286,0,0,0,.7-.9" transform="translate(-69.326 -228.884)" fill="#01074e"/><path d="M253.375,297h0a3.736,3.736,0,0,1,2.552,1.015l43.487,40.563a3.754,3.754,0,0,1,.092,5.4l-.017.016-43.48,42.063a3.722,3.722,0,0,1-2.633,1.095,3.849,3.849,0,0,1-2.6-1.024,3.7,3.7,0,0,1-1.18-2.738V371.035H237.141a4.415,4.415,0,0,1-4.412-4.407V316.311a4.414,4.414,0,0,1,4.412-4.406H249.6V300.761a3.7,3.7,0,0,1,1.177-2.734A3.845,3.845,0,0,1,253.375,297Zm44.018,44.853a.754.754,0,0,0-.025-1.081l-43.487-40.563a.727.727,0,0,0-.506-.209h0a.825.825,0,0,0-.55.218.714.714,0,0,0-.226.543V314.9H237.141a1.411,1.411,0,0,0-1.412,1.406v50.317a1.411,1.411,0,0,0,1.412,1.407H252.6v15.359a.758.758,0,0,0,.778.762.723.723,0,0,0,.523-.227l.017-.016Z" transform="translate(-77.092 -98.605)" fill="#213b82"/><path d="M600.055,171.72h0a3.736,3.736,0,0,1,2.552,1.015L646.094,213.3a3.754,3.754,0,0,1,.091,5.4l-.017.016-43.48,42.063a3.722,3.722,0,0,1-2.633,1.095,3.849,3.849,0,0,1-2.6-1.024,3.7,3.7,0,0,1-1.18-2.738V245.755H583.821a4.415,4.415,0,0,1-4.412-4.407V191.031a4.414,4.414,0,0,1,4.412-4.406h12.457V175.481a3.7,3.7,0,0,1,1.177-2.734A3.845,3.845,0,0,1,600.055,171.72Zm44.018,44.852a.754.754,0,0,0-.025-1.081l-43.487-40.563a.727.727,0,0,0-.506-.209h0a.826.826,0,0,0-.55.218.714.714,0,0,0-.226.543v14.143H583.821a1.411,1.411,0,0,0-1.412,1.406v50.317a1.411,1.411,0,0,0,1.412,1.407h15.457v15.359a.758.758,0,0,0,.778.762.723.723,0,0,0,.523-.227l.017-.016Z" transform="translate(-191.196 -57.221)" fill="#213b82"/><rect width="151.423" height="38.891" transform="translate(229.033 90.31)" fill="#0043ff"/><rect width="151.423" height="38.89" transform="translate(229.033 135.616)" fill="#0043ff"/><rect width="151.423" height="38.89" transform="translate(229.033 178.515)" fill="#0043ff"/><rect width="151.423" height="38.891" transform="translate(458.577 90.31)" fill="#0043ff"/><rect width="151.423" height="38.89" transform="translate(458.577 135.616)" fill="#0043ff"/><rect width="151.423" height="38.89" transform="translate(458.577 178.515)" fill="#0043ff"/><rect width="151.423" height="38.89" transform="translate(229.033 221.214)" fill="#0043ff"/><rect width="151.423" height="38.89" transform="translate(229.033 266.068)" fill="#0043ff"/><rect width="151.423" height="38.89" transform="translate(229.033 309.971)" fill="#0043ff"/><rect width="151.423" height="38.89" transform="translate(229.033 354.174)" fill="#0043ff"/><rect width="151.423" height="38.89" transform="translate(229.033 398.075)" fill="#0043ff"/></g></svg>