<svg xmlns="http://www.w3.org/2000/svg" xmlns:xlink="http://www.w3.org/1999/xlink" width="316.119" height="90.765" viewBox="0 0 316.119 90.765"><defs><clipPath id="a"><rect width="316.119" height="90.765" fill="none"/></clipPath></defs><g clip-path="url(#a)"><path d="M307.157,82.615H87.962A19.275,19.275,0,0,1,68.687,63.34V30.179A19.275,19.275,0,0,1,87.962,10.9H307.157a19.275,19.275,0,0,1,19.275,19.275V63.34a19.275,19.275,0,0,1-19.275,19.275" transform="translate(-10.313 -1.637)" fill="#0043ff"/><path d="M45.382,0A45.382,45.382,0,1,0,90.765,45.382,45.382,45.382,0,0,0,45.382,0" fill="#0ccbc3"/><path d="M135.671,58.739h8.117v2.788H132.036V43.4h3.635Z" transform="translate(-19.824 -6.516)" fill="#fff"/><path d="M156.2,62.305a7.769,7.769,0,0,1-.342-.971,6.719,6.719,0,0,1-.2-1.046,4.975,4.975,0,0,1-1.482,1.631,3.711,3.711,0,0,1-2.191.648,4.548,4.548,0,0,1-3.262-1.09,3.9,3.9,0,0,1-1.145-2.969A3.553,3.553,0,0,1,149.1,55.44a7.619,7.619,0,0,1,4.451-1.09h2.041V53.28a2.1,2.1,0,0,0-.51-1.506,2,2,0,0,0-1.519-.535,1.977,1.977,0,0,0-1.363.429,1.5,1.5,0,0,0-.479,1.177h-3.5l-.025-.075a3.419,3.419,0,0,1,1.488-2.945,6.464,6.464,0,0,1,4.114-1.238,6.032,6.032,0,0,1,3.928,1.22,4.253,4.253,0,0,1,1.5,3.5v5.564a10.547,10.547,0,0,0,.143,1.78,8.918,8.918,0,0,0,.455,1.656Zm-3.324-2.427a3.1,3.1,0,0,0,1.693-.473,2.538,2.538,0,0,0,1.021-1.1V56.4h-2.041a2.421,2.421,0,0,0-1.749.573,1.881,1.881,0,0,0-.591,1.407,1.4,1.4,0,0,0,.442,1.09,1.747,1.747,0,0,0,1.226.4" transform="translate(-22.158 -7.295)" fill="#fff"/><path d="M171.673,58.571a1.256,1.256,0,0,0-.579-1.027,5.9,5.9,0,0,0-2.148-.753,8.566,8.566,0,0,1-3.591-1.431,3.128,3.128,0,0,1-1.226-2.6,3.712,3.712,0,0,1,1.469-2.951,5.921,5.921,0,0,1,3.908-1.22,6.392,6.392,0,0,1,4.09,1.22,3.566,3.566,0,0,1,1.475,3.038l-.025.075h-3.511a1.763,1.763,0,0,0-.523-1.32,2.444,2.444,0,0,0-2.889-.075,1.356,1.356,0,0,0-.51,1.071,1.207,1.207,0,0,0,.529,1.014,5.86,5.86,0,0,0,2.148.7,8.753,8.753,0,0,1,3.691,1.463,3.212,3.212,0,0,1,1.214,2.658,3.555,3.555,0,0,1-1.557,2.975,6.717,6.717,0,0,1-4.108,1.158,6.241,6.241,0,0,1-4.251-1.363,3.808,3.808,0,0,1-1.487-3.106l.025-.075h3.324a1.89,1.89,0,0,0,.71,1.569,2.928,2.928,0,0,0,1.755.485,2.5,2.5,0,0,0,1.537-.4,1.315,1.315,0,0,0,.529-1.1" transform="translate(-24.592 -7.295)" fill="#fff"/><path d="M195.258,62.305a7.771,7.771,0,0,1-.342-.971,6.717,6.717,0,0,1-.2-1.046,4.976,4.976,0,0,1-1.482,1.631,3.711,3.711,0,0,1-2.191.648,4.548,4.548,0,0,1-3.262-1.09,3.9,3.9,0,0,1-1.145-2.969,3.553,3.553,0,0,1,1.525-3.069,7.619,7.619,0,0,1,4.451-1.09h2.041V53.28a2.1,2.1,0,0,0-.51-1.506,2,2,0,0,0-1.519-.535,1.977,1.977,0,0,0-1.363.429,1.5,1.5,0,0,0-.479,1.177h-3.5l-.025-.075a3.418,3.418,0,0,1,1.488-2.945,6.464,6.464,0,0,1,4.114-1.238,6.032,6.032,0,0,1,3.928,1.22,4.253,4.253,0,0,1,1.5,3.5v5.564a10.547,10.547,0,0,0,.143,1.78,8.917,8.917,0,0,0,.455,1.656Zm-3.324-2.427a3.1,3.1,0,0,0,1.693-.473,2.538,2.538,0,0,0,1.021-1.1V56.4h-2.041a2.421,2.421,0,0,0-1.749.573,1.881,1.881,0,0,0-.592,1.407,1.4,1.4,0,0,0,.442,1.09,1.747,1.747,0,0,0,1.226.4" transform="translate(-28.021 -7.295)" fill="#fff"/><path d="M209.066,59.779a2.02,2.02,0,0,0,1.506-.567,2.052,2.052,0,0,0,.561-1.512h3.311l.025.075a4.215,4.215,0,0,1-1.519,3.417,5.679,5.679,0,0,1-3.884,1.375,5.739,5.739,0,0,1-4.619-1.911,7.261,7.261,0,0,1-1.631-4.886V55.4a7.311,7.311,0,0,1,1.625-4.886,5.688,5.688,0,0,1,4.6-1.924,5.558,5.558,0,0,1,3.971,1.419,4.744,4.744,0,0,1,1.456,3.735l-.025.074h-3.311a2.689,2.689,0,0,0-.554-1.736,1.86,1.86,0,0,0-1.537-.691,2.074,2.074,0,0,0-2,1.126,6.184,6.184,0,0,0-.591,2.883v.373a6.155,6.155,0,0,0,.591,2.9,2.1,2.1,0,0,0,2.023,1.108" transform="translate(-30.451 -7.295)" fill="#fff"/><path d="M223.158,45v3.3h2.278v2.552h-2.278v6.859a1.563,1.563,0,0,0,.33,1.12,1.157,1.157,0,0,0,.865.337,3.527,3.527,0,0,0,.5-.031,4.387,4.387,0,0,0,.485-.106l.3,2.627a7.394,7.394,0,0,1-1.064.28,6.3,6.3,0,0,1-1.127.093,3.873,3.873,0,0,1-2.895-1.033,4.528,4.528,0,0,1-1.015-3.274V50.849h-1.967V48.3h1.967V45Z" transform="translate(-32.666 -6.756)" fill="#fff"/><path d="M233.317,44.6h-3.635V41.878h3.635Zm0,16.695h-3.635V47.829h3.635Z" transform="translate(-34.485 -6.288)" fill="#fff"/><path d="M242.132,57.333l.236,1.245h.075l.249-1.245,2.216-8.453h3.8L244.124,62.35H240.65l-4.582-13.469h3.8Z" transform="translate(-35.444 -7.339)" fill="#fff"/><path d="M256.652,44.6h-3.635V41.878h3.635Zm0,16.695h-3.635V47.829h3.635Z" transform="translate(-37.988 -6.288)" fill="#fff"/><path d="M260.151,54.676a8.751,8.751,0,0,1,1.376-5.141,4.465,4.465,0,0,1,3.878-1.955,3.781,3.781,0,0,1,1.818.435,4.394,4.394,0,0,1,1.419,1.245V41.879h3.648V61.3h-3.1l-.311-1.656a4.489,4.489,0,0,1-1.507,1.425,3.976,3.976,0,0,1-1.991.492,4.554,4.554,0,0,1-3.853-1.818,7.759,7.759,0,0,1-1.376-4.805Zm3.623.262a5.482,5.482,0,0,0,.6,2.782,2.081,2.081,0,0,0,1.942,1.015,2.839,2.839,0,0,0,1.37-.317,2.544,2.544,0,0,0,.959-.928V51.751a2.806,2.806,0,0,0-.953-.99,2.542,2.542,0,0,0-1.35-.354,2.052,2.052,0,0,0-1.949,1.183,6.683,6.683,0,0,0-.616,3.087Z" transform="translate(-39.059 -6.288)" fill="#fff"/><path d="M285.565,62.305a7.776,7.776,0,0,1-.342-.971,6.722,6.722,0,0,1-.2-1.046,4.975,4.975,0,0,1-1.482,1.631,3.711,3.711,0,0,1-2.191.648,4.548,4.548,0,0,1-3.262-1.09,3.9,3.9,0,0,1-1.145-2.969,3.553,3.553,0,0,1,1.525-3.069,7.619,7.619,0,0,1,4.451-1.09h2.041V53.28a2.1,2.1,0,0,0-.51-1.506,2,2,0,0,0-1.519-.535,1.977,1.977,0,0,0-1.363.429,1.5,1.5,0,0,0-.479,1.177h-3.5l-.025-.075a3.418,3.418,0,0,1,1.488-2.945,6.464,6.464,0,0,1,4.114-1.238,6.032,6.032,0,0,1,3.928,1.22,4.253,4.253,0,0,1,1.5,3.5v5.564a10.544,10.544,0,0,0,.143,1.78,8.917,8.917,0,0,0,.455,1.656Zm-3.324-2.427a3.1,3.1,0,0,0,1.693-.473,2.538,2.538,0,0,0,1.021-1.1V56.4h-2.041a2.421,2.421,0,0,0-1.749.573,1.881,1.881,0,0,0-.591,1.407,1.4,1.4,0,0,0,.442,1.09,1.747,1.747,0,0,0,1.226.4" transform="translate(-41.58 -7.295)" fill="#fff"/><path d="M293.2,54.676a8.751,8.751,0,0,1,1.375-5.141,4.467,4.467,0,0,1,3.878-1.955,3.778,3.778,0,0,1,1.818.435,4.4,4.4,0,0,1,1.42,1.245V41.879h3.647V61.3h-3.1l-.311-1.656a4.473,4.473,0,0,1-1.507,1.425,3.976,3.976,0,0,1-1.991.492,4.555,4.555,0,0,1-3.853-1.818,7.759,7.759,0,0,1-1.375-4.805Zm3.623.262a5.483,5.483,0,0,0,.6,2.782,2.083,2.083,0,0,0,1.942,1.015,2.836,2.836,0,0,0,1.37-.317,2.54,2.54,0,0,0,.959-.928V51.751a2.813,2.813,0,0,0-.953-.99,2.547,2.547,0,0,0-1.351-.354,2.053,2.053,0,0,0-1.949,1.183,6.684,6.684,0,0,0-.615,3.087Z" transform="translate(-44.021 -6.288)" fill="#fff"/><path d="M316.53,62.567a6.061,6.061,0,0,1-4.706-1.848,6.777,6.777,0,0,1-1.693-4.762v-.5a7.376,7.376,0,0,1,1.644-4.955,5.584,5.584,0,0,1,4.519-1.917,5.232,5.232,0,0,1,4.164,1.661,6.571,6.571,0,0,1,1.45,4.476V56.6h-8.029l-.037.075a3.641,3.641,0,0,0,.841,2.24,2.813,2.813,0,0,0,2.234.859,7.488,7.488,0,0,0,2.073-.249,8.461,8.461,0,0,0,1.762-.759l.983,2.24a6.74,6.74,0,0,1-2.191,1.108,9.7,9.7,0,0,1-3.013.448m-.236-11.179a2.021,2.021,0,0,0-1.687.753,3.784,3.784,0,0,0-.716,2l.025.063h4.432v-.275a3.148,3.148,0,0,0-.485-1.861,1.8,1.8,0,0,0-1.569-.678" transform="translate(-46.563 -7.295)" fill="#fff"/><path d="M333.655,58.571a1.256,1.256,0,0,0-.579-1.027,5.9,5.9,0,0,0-2.148-.753,8.566,8.566,0,0,1-3.591-1.431,3.128,3.128,0,0,1-1.226-2.6,3.712,3.712,0,0,1,1.469-2.951,5.921,5.921,0,0,1,3.909-1.22,6.392,6.392,0,0,1,4.09,1.22,3.566,3.566,0,0,1,1.475,3.038l-.025.075h-3.511A1.763,1.763,0,0,0,333,51.6a2.444,2.444,0,0,0-2.889-.075,1.356,1.356,0,0,0-.51,1.071,1.207,1.207,0,0,0,.529,1.014,5.86,5.86,0,0,0,2.148.7,8.752,8.752,0,0,1,3.691,1.463,3.212,3.212,0,0,1,1.214,2.658,3.555,3.555,0,0,1-1.557,2.975,6.716,6.716,0,0,1-4.108,1.158,6.241,6.241,0,0,1-4.251-1.363,3.808,3.808,0,0,1-1.487-3.106l.025-.075h3.324a1.89,1.89,0,0,0,.71,1.569,2.928,2.928,0,0,0,1.755.485,2.5,2.5,0,0,0,1.537-.4,1.314,1.314,0,0,0,.529-1.1" transform="translate(-48.912 -7.295)" fill="#fff"/><path d="M61.433,22.157H56.956a1.258,1.258,0,0,1-1.179-.942,4.555,4.555,0,0,0-4.633-3.692,4.634,4.634,0,0,0-4.634,3.771,1.179,1.179,0,0,1-1.179.863h-4.32v7.854H61.433Z" transform="translate(-6.157 -2.63)" fill="#01074e"/><path d="M71.781,76.746V31.74a3.222,3.222,0,0,0-3.212-3.229c-.082,0-.163,0-.245.008H61.569v4.006c0,.628-.393,1.492-1.022,1.492H37.377c-.629,0-.942-.864-.942-1.492V28.519H29.68A3.221,3.221,0,0,0,26.232,31.5c-.006.082-.008.163-.008.245V76.746a3.535,3.535,0,0,0,3.455,3.614H68.324a3.535,3.535,0,0,0,3.456-3.612v0M42.64,66.379l-6.127,5.733a1.1,1.1,0,0,1-.785.393,1.262,1.262,0,0,1-.864-.393l-3.22-3.3a1.2,1.2,0,0,1,1.728-1.65l2.357,2.513,5.341-5.027a1.178,1.178,0,0,1,1.571,1.729m0-12.568h0l-6.127,5.734a1.1,1.1,0,0,1-.785.393,1.258,1.258,0,0,1-.864-.393l-3.22-3.3a1.2,1.2,0,0,1,1.728-1.65l2.357,2.514,5.341-5.027a1.178,1.178,0,0,1,1.571,1.728m0-12.567-6.127,5.733a1.094,1.094,0,0,1-.785.393,1.258,1.258,0,0,1-.864-.393l-3.22-3.3a1.2,1.2,0,0,1,1.728-1.65l2.357,2.513,5.341-5.027a1.178,1.178,0,0,1,1.571,1.729M65.5,70.934H47.431a1.178,1.178,0,1,1,0-2.357H65.5a1.178,1.178,0,0,1,0,2.357m0-12.567H47.431a1.178,1.178,0,1,1,0-2.357H65.5a1.178,1.178,0,0,1,0,2.357m0-12.568H47.431a1.178,1.178,0,1,1,0-2.357H65.5a1.178,1.178,0,0,1,0,2.357" transform="translate(-3.937 -4.281)" fill="#01074e"/></g></svg>