<svg xmlns="http://www.w3.org/2000/svg" xmlns:xlink="http://www.w3.org/1999/xlink" width="261.094" height="266.617" viewBox="0 0 261.094 266.617"><defs><clipPath id="a"><path d="M21.969,62.041C7.078,85.014,0,111.979,0,138.505v.047c.008,37.388,14.065,73.9,40.085,97.1C63.2,256.264,89.3,260.633,98.824,262.1c58.517,9.013,125.994-24.4,151.326-84.047,16.508-38.872,14.607-87.087-7.524-121.695A121.054,121.054,0,0,0,218,28.421C185.725,1.8,148.995.287,139.411.041Q137.813,0,136.217,0c-43.526,0-88.751,22.7-114.248,62.04" fill="none"/></clipPath><clipPath id="b"><rect width="261.094" height="266.617" fill="none"/></clipPath><clipPath id="c"><path d="M164.036,26.809c-.957.2-4.255,3.413-4.255,3.413a2.937,2.937,0,0,1,.2.661,2.179,2.179,0,0,1,.034.547s-.022.166-.057.437c-.138,1.125-.469,4.059-.181,4.422.357.452,4.266-3.623,4.424-5.017a5.171,5.171,0,0,1,0-3.889c.15-.414.1-.583-.086-.583a.428.428,0,0,0-.083.009" fill="none"/></clipPath><linearGradient id="d" x1="-32.804" y1="24.12" x2="-32.598" y2="24.12" gradientUnits="objectBoundingBox"><stop offset="0" stop-color="#febbba"/><stop offset="1" stop-color="#ff928e"/></linearGradient><clipPath id="f"><path d="M159.067,21.171s-2.858,2.4-1.256,7.176,4.98,1.5,5.3,1.139a10.127,10.127,0,0,0,1.108-4.708c-.085-1-.075-4.423-2.6-4.423a5.519,5.519,0,0,0-2.562.816" fill="none"/></clipPath><linearGradient id="g" x1="-19.219" y1="19.275" x2="-19.096" y2="19.275" xlink:href="#d"/><clipPath id="i"><path d="M162.532,24.759c-.027.546.024,1.57.432,1.584s.991-1.074.9-1.947c-.03-.307-.2-.427-.41-.427a1.03,1.03,0,0,0-.926.79" fill="none"/></clipPath><linearGradient id="j" x1="-112.074" y1="101.566" x2="-111.384" y2="101.566" xlink:href="#d"/><clipPath id="l"><path d="M156.155,52.968s-.958.251-1.628.385a4.8,4.8,0,0,0-2,1.1c-.263.384-.908,2.581-1.076,2.766s.17.325.479.066a.745.745,0,0,0,1.164.073c.7-.594,1.04-1.477,1.413-1.747s2.611-1.716,2.611-1.716-.3-1.015-.745-1.015a.356.356,0,0,0-.218.083" fill="none"/></clipPath><linearGradient id="m" x1="-25.927" y1="42.134" x2="-25.755" y2="42.134" xlink:href="#d"/><clipPath id="o"><path d="M126.5,187.708c-.686.429-.484,1.313-.622,1.859a4.36,4.36,0,0,0-.024.993s-.208,1.811,1.336,1.092,2.28-1.574,2.125-2.075a4.571,4.571,0,0,0-2.56-1.935.475.475,0,0,0-.255.066" fill="none"/></clipPath><linearGradient id="p" x1="-32.858" y1="16.684" x2="-32.596" y2="16.684" xlink:href="#d"/><clipPath id="q"><path d="M127.837,185.859a23.455,23.455,0,0,0-1.546,2.027s1.9,3.577,2.533,2.712c.576-.792,2.383-2.83,2.277-3.329-.093-.437-.415-.145-.786.31.479-.594,1.689-2.091,1.257-2.525-.084-.084-.164-.118-.381.059.3-.373.283-.416.048-.606-.191-.154-1.258.739-2.219,1.607-.892.807-.813.794-.813.794s-.276.062.373-.807c.705-.942,1.688-1.667,1.34-1.957a.112.112,0,0,0-.074-.024c-.333,0-1.3.915-2.009,1.739" fill="none"/></clipPath><linearGradient id="r" x1="-22.106" y1="11.226" x2="-21.931" y2="11.226" xlink:href="#d"/><clipPath id="t"><path d="M106.254,182.148c-.137,2,1.768,6.156,2.948,6.877a11.7,11.7,0,0,0,5.634.737c.737-.275.653-2.944.794-3.2s1-.728.79-1.013-1.669-1.981-1.3-2.351c.449-.448-1.142-2.149-1.142-2.149a4.691,4.691,0,0,0-3.492-1.486c-2.155,0-4.147,1.307-4.234,2.585" fill="none"/></clipPath><linearGradient id="u" x1="-10.096" y1="8.311" x2="-10.001" y2="8.311" xlink:href="#d"/><clipPath id="v"><path d="M108.419,183.278a48.8,48.8,0,0,1-.187,6.876s4.261,4.173,4.066,3.184a8.214,8.214,0,0,1-.035-1.687c.014-.263.032-.529.05-.785,0-.057.01-.111.014-.166,0-.031.006-.063.009-.1.011-.118.02-.233.029-.342.016-.184.034-.352.048-.5.037-.351.064-.578.064-.578s-2.989-6.735-3.84-6.734c-.162,0-.247.245-.218.827" fill="none"/></clipPath><linearGradient id="w" x1="-25.401" y1="7.078" x2="-25.166" y2="7.078" xlink:href="#d"/><clipPath id="y"><path d="M108.057,184.27c-.771.89,1.3,2.553,1.467,2.536s1.441-.253.066-2.184c-.115-.161-.447-.712-.9-.712a.854.854,0,0,0-.631.36" fill="none"/></clipPath><linearGradient id="z" x1="-29.162" y1="28.391" x2="-28.89" y2="28.391" xlink:href="#d"/><clipPath id="ab"><path d="M93.011,131.413a1.4,1.4,0,0,1-.262.012,1.966,1.966,0,0,0-.605.066c-.039.012-.079.026-.119.042a20.759,20.759,0,0,0-2.3,2.626l.341.98.476,1.215s2.047-.466,2.5-.6a3.27,3.27,0,0,0,.937-.5c.039-.023.1-.054.175-.087.229-.1.561-.228.561-.228a1.825,1.825,0,0,0,.424-.391c.142-.3-.208-.73-.208-.73a1.055,1.055,0,0,0-.285-.887,1.69,1.69,0,0,0-.436-.824.707.707,0,0,0-.245-.645.792.792,0,0,0-.461-.09,3.712,3.712,0,0,0-.489.034" fill="none"/></clipPath><linearGradient id="ac" x1="-16.155" y1="27.183" x2="-15.975" y2="27.183" xlink:href="#d"/><clipPath id="ae"><path d="M63.079,130a3.529,3.529,0,0,0-2.2,2.986,13.421,13.421,0,0,0,1.688,5.72c.908,1.676,3.574,2.021,5.348,1.362s1.93-6.023.308-8.7a3.545,3.545,0,0,0-3.212-1.687,6.133,6.133,0,0,0-1.931.322" fill="none"/></clipPath><linearGradient id="af" x1="-6.755" y1="12.392" x2="-6.644" y2="12.392" xlink:href="#d"/><clipPath id="ag"><path d="M61.893,137.183a30.8,30.8,0,0,1,1.1,4.562s4.662-.012,4.427-.467a2.938,2.938,0,0,1-.093-1.376s-4.149-3.245-5.232-3.244c-.235,0-.326.153-.2.525" fill="none"/></clipPath><linearGradient id="ah" x1="-10.494" y1="25.542" x2="-10.324" y2="25.542" xlink:href="#d"/><clipPath id="aj"><path d="M170.709,198.173a13.356,13.356,0,0,0-1.451,5.751c-.071,1.894,2.035,3.54,3.888,3.873s4.7-4.178,4.671-7.293-3.712-3.772-3.712-3.772c-.127-.008-.262-.013-.4-.013a3.332,3.332,0,0,0-2.994,1.454" fill="none"/></clipPath><linearGradient id="ak" x1="-19.532" y1="6.123" x2="-19.417" y2="6.123" xlink:href="#d"/><clipPath id="am"><path d="M182.655,219.676c-.729.052-.763.832-1.125,1.2a1.112,1.112,0,0,1-.571.261s-1.152,1.823.372,1.9,2.493-.291,2.609-.746-.54-2.613-1.259-2.613h-.026" fill="none"/></clipPath><linearGradient id="an" x1="-42.328" y1="13.675" x2="-42.092" y2="13.675" xlink:href="#d"/><clipPath id="ao"><path d="M184.341,219.75h0l-.011,0,.01-.005m.209-.968a22.614,22.614,0,0,0-2.14.946s-.217,3.571.673,3.155c.814-.381,3.16-1.229,3.313-1.662.134-.379-.251-.283-.75-.081.649-.266,2.281-.937,2.152-1.453-.005-.021-.007-.036-.01-.046.2-.09.107-.337.048-.42-.153-.214-1.35-.038-2.5.245-.6.148-.839.219-.935.254.089-.042.282-.13.687-.313.985-.446,2.169-.72,1.866-1.107-.029-.037-.108-.054-.225-.054a8.012,8.012,0,0,0-2.183.536" fill="none"/></clipPath><linearGradient id="ap" x1="-31.423" y1="9.566" x2="-31.251" y2="9.566" xlink:href="#d"/><clipPath id="ar"><path d="M166.406,205.946c-.633-.155,2.182,4,2.182,4s2.681-2.639,3.285-2.719-2.608-3.015-2.608-3.015-2.226,1.89-2.859,1.736" fill="none"/></clipPath><linearGradient id="as" x1="-24.724" y1="10.884" x2="-24.575" y2="10.884" xlink:href="#d"/><clipPath id="au"><path d="M174.229,202.541c-.659.587-.656,1.9-.284,2.013s.85-.613,1.063-1.3c.065-.212-.045-.892-.414-.892a.567.567,0,0,0-.365.178" fill="none"/></clipPath><linearGradient id="av" x1="-115.482" y1="27.933" x2="-114.817" y2="27.933" xlink:href="#d"/></defs><g clip-path="url(#a)"><rect width="379.628" height="379.209" transform="matrix(0.659, -0.753, 0.753, 0.659, -134.356, 153.551)" fill="#baeae8"/></g><g clip-path="url(#b)"><rect width="154.886" height="154.886" transform="translate(51.992 76.816)" fill="#fff"/><path d="M243.567,61.1a32.091,32.091,0,0,0-3.429-8.266l3.49-5.25-4.842-4.842L233.944,37.9l-5.25,3.49a32.056,32.056,0,0,0-8.266-3.429l-1.243-6.174h-13.7l-1.243,6.174a32.057,32.057,0,0,0-8.266,3.429l-5.249-3.49-4.843,4.842-4.842,4.842,3.49,5.25a32.054,32.054,0,0,0-3.428,8.266l-6.175,1.243v13.7l6.175,1.243a32.069,32.069,0,0,0,3.428,8.266l-3.49,5.249,4.842,4.843,4.843,4.842L195.98,97a32.055,32.055,0,0,0,8.266,3.428l1.243,6.175h13.7l1.243-6.175A32.054,32.054,0,0,0,228.694,97l5.25,3.49,4.842-4.842,4.842-4.843-3.49-5.249a32.106,32.106,0,0,0,3.429-8.266l6.174-1.243v-13.7Zm-31.23,32.087a24,24,0,1,1,24-24,24,24,0,0,1-24,24" fill="#0043ff"/><path d="M257.563,116.072a14.681,14.681,0,0,0-1.572-3.79l1.6-2.406-2.22-2.22-2.22-2.22-2.406,1.6a14.682,14.682,0,0,0-3.79-1.572l-.57-2.831h-6.278l-.57,2.831a14.682,14.682,0,0,0-3.79,1.572l-2.406-1.6-2.22,2.22-2.22,2.22,1.6,2.406a14.681,14.681,0,0,0-1.572,3.79l-2.831.57v6.279l2.831.569a14.681,14.681,0,0,0,1.572,3.79l-1.6,2.406,2.22,2.22,2.22,2.22,2.406-1.6a14.682,14.682,0,0,0,3.79,1.572l.57,2.831h6.278l.57-2.831a14.682,14.682,0,0,0,3.79-1.572l2.406,1.6,2.22-2.22,2.22-2.22-1.6-2.406a14.681,14.681,0,0,0,1.572-3.79l2.831-.569v-6.279Zm-14.317,14.71a11,11,0,1,1,11-11,11,11,0,0,1-11,11" fill="#0043ff"/><path d="M51.992,76.842H206.877a15.8,15.8,0,0,0-15.8-15.8H67.795A15.8,15.8,0,0,0,51.992,76.842Z" fill="#0043ff"/><rect width="36.633" height="36.633" transform="translate(51.992 116.26)" fill="#00ece1"/><rect width="36.633" height="36.633" transform="translate(51.992 76.816)" fill="#f0f0f0"/><rect width="36.633" height="36.633" transform="translate(91.41 76.816)" fill="#f0f0f0"/><rect width="36.633" height="36.633" transform="translate(130.827 116.086)" fill="#f0f0f0"/><rect width="36.633" height="36.633" transform="translate(170.245 116.086)" fill="#00ece1"/><rect width="36.633" height="36.633" transform="translate(170.245 76.842)" fill="#f0f0f0"/><rect width="36.633" height="36.633" transform="translate(91.41 155.504)" fill="#f0f0f0"/><rect width="36.633" height="36.633" transform="translate(91.41 194.923)" fill="#00ece1"/><rect width="36.633" height="36.633" transform="translate(130.827 194.923)" fill="#f0f0f0"/><rect width="36.633" height="36.633" transform="translate(51.992 155.591)" fill="#f0f0f0"/><path d="M206.876,194.923s-.026,16.957-4,31.331l-8.472,5.3H164.533c5.675-15.1,5.71-36.633,5.71-36.633Z" fill="#00ece1"/><path d="M194.4,231.556v-5.425h8.472Z" fill="#33aea8"/><path d="M167.459,155.5s-.026,16.957-4,31.331l-8.472,5.3H125.116c5.675-15.1,5.71-36.633,5.71-36.633Z" fill="#4ba2f4"/><path d="M154.986,192.137v-5.425h8.472Z" fill="#375eab"/><path d="M167.459,76.842s-.026,16.957-4,31.331l-8.472,5.3H125.116c5.675-15.1,5.71-36.633,5.71-36.633Z" fill="#0043ff"/><path d="M154.986,113.475V108.05h8.472Z" fill="#3740a5"/><path d="M88.623,194.923s-.026,16.957-4,31.331l-8.472,5.3H46.28c5.675-15.1,5.71-36.633,5.71-36.633Z" fill="#f0f0f0"/><path d="M76.151,231.556v-5.425h8.472Z" fill="#c9c9c9"/><path d="M128.041,116.26s-.026,16.957-4,31.331l-8.472,5.3H85.7c5.675-15.1,5.71-36.633,5.71-36.633Z" fill="#4ba2f4"/><path d="M115.569,152.893v-5.425h8.472Z" fill="#375eab"/><path d="M108.476,141.316a.851.851,0,0,1-.851-.851V128.688a.851.851,0,1,1,1.7,0v11.777a.851.851,0,0,1-.851.851" fill="#fff"/><path d="M114.364,135.428H102.588a.851.851,0,0,1,0-1.7h11.776a.851.851,0,0,1,0,1.7" fill="#fff"/><path d="M206.876,155.5s-.026,16.957-4,31.331l-8.472,5.3H164.533c5.675-15.1,5.71-36.633,5.71-36.633Z" fill="#f0f0f0"/><path d="M194.4,192.137v-5.425h8.472Z" fill="#c9c9c9"/><path d="M146.917,99.269,141.6,94.63a1.048,1.048,0,0,1,1.377-1.58l3.763,3.28,5.366-5.985a1.048,1.048,0,1,1,1.561,1.4Z" fill="#fff"/><path d="M117.983,53.311a.765.765,0,0,1-.765-.765V41.961a.765.765,0,1,1,1.53,0V52.546a.765.765,0,0,1-.765.765" fill="#0043ff"/><path d="M123.275,48.018H112.69a.766.766,0,0,1,0-1.531h10.585a.766.766,0,0,1,0,1.531" fill="#0043ff"/><path d="M18.095,131.569l-4.284-3.734a.844.844,0,0,1,1.109-1.272l3.029,2.64,4.32-4.818a.844.844,0,1,1,1.257,1.127Z" fill="#0043ff"/><path d="M191.167.339H170.245V18.7l3.194-3.194h17.728Z" fill="#0043ff"/><path d="M229.9,165.337a2.587,2.587,0,0,1-1.546-.466,1.941,1.941,0,0,1-.842-1.414,11.8,11.8,0,0,0-.973-2.952,5.208,5.208,0,1,1,6.233-.375,11.187,11.187,0,0,0-.434,2.926,2.277,2.277,0,0,1-2.241,2.272c-.066,0-.132.008-.2.009m-.561-13.96a4.781,4.781,0,0,0-2.518,8.8l.051.033.026.055a12.285,12.285,0,0,1,1.036,3.128l0,.016a1.524,1.524,0,0,0,.666,1.112,2.2,2.2,0,0,0,1.46.378,1.853,1.853,0,0,0,1.851-1.82v-.016a11.72,11.72,0,0,1,.466-3.113l.018-.065.052-.043a4.781,4.781,0,0,0-3.109-8.469" fill="#0043ff"/><path d="M228.778,163.655l-1.187-5.591,1.266.869.658-.877.7.7,1.018-1.032-.162,5.721-.426-.011.131-4.64-.56.568-.656-.66-.607.809-.724-.5.966,4.548Z" fill="#0043ff"/><rect width="3.694" height="1.489" transform="translate(228.209 164.964) rotate(-4.752)" fill="#0043ff"/><rect width="4.882" height="2.396" transform="translate(227.491 163.497) rotate(-4.747)" fill="#0043ff"/><path d="M251.723,27.3h5.546l-1.7-3.52h-5.545Z" fill="#0043ff"/><path d="M249.128,27.3h1.321l-1.7-3.52h-1.321Z" fill="#0043ff"/><path d="M229.969,23.111h22.455l-.745-1.76H229.224Z" fill="#0043ff"/><path d="M6.294,86.5h7.228L11.31,81.909H4.082Z" fill="#0043ff"/><path d="M2.912,86.5H4.634L2.422,81.909H.7Z" fill="#0043ff"/><rect width="10.269" height="0.72" transform="translate(71.354 31.507)" fill="#0043ff"/><rect width="10.269" height="3.026" transform="translate(71.354 32.864)" fill="#0043ff"/><rect width="6.058" height="0.452" transform="translate(126.406 17.412)" fill="#0043ff"/><rect width="6.058" height="1.225" transform="translate(126.406 18.062)" fill="#0043ff"/><rect width="0.452" height="8.479" transform="translate(83.31 27.627)" fill="#0043ff"/><path d="M141.984,81.106a18.2,18.2,0,0,1-2.412,3.343c-.97.637-.362,1.281.1,1.282s2.817.169,3.337-.42.777-2.355,1.26-2.817.981-2.3-.235-2.744c-1.075-.395-2.049,1.356-2.049,1.356" fill="#484e7d"/><path d="M142.717,79.842s-1.942,3.365-2.276,3.863.63.5,1.228.26,2.1-2.65,2.317-3.09a1.618,1.618,0,0,0,.046-1.125Z" fill="#202338"/><path d="M144.684,81.653l-.448,3.45-.238.01.074-2.481Z" fill="#484e7d"/><path d="M158.794,81.106a18.186,18.186,0,0,1-2.411,3.343c-.971.637-.363,1.281.1,1.282s2.817.169,3.337-.42.776-2.355,1.259-2.817,1-2.345-.235-2.744c-1.081-.35-2.049,1.356-2.049,1.356" fill="#484e7d"/><path d="M159.426,79.849s-1.84,3.358-2.174,3.855.63.5,1.228.261,2.1-2.65,2.317-3.09a1.618,1.618,0,0,0,.046-1.125Z" fill="#202338"/><path d="M161.495,81.653l-.448,3.45-.238.01.074-2.481Z" fill="#484e7d"/><path d="M144.033,79.75s4.439-9.414,5.038-15.349a2.948,2.948,0,0,1,1.9-2.457l15.34-6.99s-3.346-2.551-9.85-2.386c0,0-8.661,3.534-10.766,5.241-.284.23-.449.427-.456.578-.012.221-.063.914-.145,1.925-.39,4.774-1.483,16.649-2.38,19.53,0,0-.11.6,1.315-.092" fill="#202338"/><path d="M169.206,57.955c-.475,4.147-6.394,3.672-6.394,3.672h-7.173a44.757,44.757,0,0,1,2.611,7.729c.772,3.753,2.593,10.394,2.593,10.394s-.119.226-1.417.1c0,0-5.631-11.223-7.787-14.044a19.067,19.067,0,0,1-2.021-5.869c-.077-.662-.03-1.172.217-1.38a18.059,18.059,0,0,1,1.584-1.082c2.247-1.417,6.149-3.6,8.323-4.087,2.912-.654,7.517-1.881,7.517-1.881a7.927,7.927,0,0,1,1.947,6.449" fill="#202338"/><path d="M156.387,61.627h6.425s5.919.475,6.394-3.672a7.931,7.931,0,0,0-1.947-6.449s-3.127.833-5.856,1.493a21.094,21.094,0,0,0-4.938-.431s-10.533,1.069-11.224,5.846c0,0,4.841-2.6,11.146,3.213" fill="#384c9e"/><path d="M161.081,19.43s2.8-.435,3.979,1.762-.068,3.542.39,4.3,2.123,1.788,1.894,2.983-2.08,2.53-1.616,3.587a10.462,10.462,0,0,1,.738,1.838c-.038.086-11.341,2.03-11.341,2.03a10.616,10.616,0,0,1,1.533-2.23c.705-.645,1.455-.849.583-3.129s-1.619-3.36-1.254-5.071.232-3.285,1.933-4.806a5.034,5.034,0,0,1,3.161-1.263" fill="#282b45"/><path d="M166.315,48.96c-.068-.434-.785-1.99-1.2-3.747,3.5-5.678,4.745-9.551,3.584-11.425-1.281-2.07-4.493-2.516-4.493-2.516l-4.186.158s-3.866,1.186-5.7,3.221c-1.7,1.888-4.726,11.319-4.9,11.736-.91,2.112-3.147,8.564-3.266,8.588s1.754.209,1.754.209,1.815-3.92,3.067-7.089c.222-.563.925-2.166,1.653-3.676h0c.148-.308.3-.612.445-.9a9.147,9.147,0,0,1,.892-1.457,10.355,10.355,0,0,0,1.357,2.658,17.475,17.475,0,0,0,.618,2.73,3.988,3.988,0,0,1,.156.99c.073,1.011.066,2.463.135,3.362l-.071.083c-1.662,1.979-1.537,1.531-1.419,1.619.253.19,1.825,1.393,2.012,1.175.261-.306.142-.055,1.822-1.728.481.041,1.017.075,1.58.094,2.74.092,6.13-.158,7.108-1.536,0,0-.61-.4-.945-2.545m-1.248-8.615a1.329,1.329,0,0,1,.25-.3v0l0,.005c-.03.04-.156.213-.35.479a1.739,1.739,0,0,1,.1-.191" fill="#4ba2f4"/></g><g clip-path="url(#c)"><rect width="4.862" height="9.941" transform="translate(159.493 26.8)" fill="url(#d)"/></g><g clip-path="url(#b)"><path d="M168.76,37.718s-3.248,6.473-2.458,11.176c.4,2.377-3.34-8.277-3.34-8.277Z" fill="#4ba2f4"/></g><g clip-path="url(#f)"><rect width="8.128" height="12.768" transform="translate(156.209 20.354)" fill="url(#g)"/></g><g clip-path="url(#b)"><path d="M159.4,22.128c.312-.135,1.66,1.844,2.311,2.294a6.45,6.45,0,0,1,2.428,3.284c.279,1.42.677-3.528.054-5.171s-1.482-4.058-5.025-1.631a4.887,4.887,0,0,0-2.139,5.831s.794-3.926,2.371-4.607" fill="#282b45"/></g><g clip-path="url(#i)"><rect width="1.45" height="2.389" transform="translate(162.505 23.969)" fill="url(#j)"/></g><g clip-path="url(#b)"><path d="M165.317,40.05l0,0,0,0-.38.544c-.98,1.4-3.556,5.059-4.505,6.2l0,0v0L156.645,51.3l-.168.2-.166.2-.084.1c-.069-.9-.061-2.351-.135-3.361,1.037-.556,4.274-2.569,8.974-8.092Z" fill="#3c82c4"/><path d="M163.814,47.253l-3.661,5.788h0c-.563-.019-1.1-.053-1.58-.094,0,0,4.3-4.285,4.59-4.716Z" fill="#3c82c4"/><path d="M163.512,28.713s-.147,2.463-3.55,3.155c.034-.272.056-.437.056-.437a2.175,2.175,0,0,0-.032-.547h.006a3.27,3.27,0,0,0,1.552-.255h0a3.48,3.48,0,0,0,.886-.539,4.321,4.321,0,0,0,1.078-1.377" fill="#a77860"/><path d="M153.962,42.058a9.207,9.207,0,0,0-.892,1.457c-.147.291-.3.6-.445.9a10.379,10.379,0,0,1,1.426-5.881c-.358.731-.089,3.52-.089,3.52" fill="#3c82c4"/><path d="M147.9,55.185s-1.411.236-1.754-.21l.889-2.289,1.837.35Z" fill="#e55353"/><path d="M160.915,56.228,148.56,54.891l5.581,4.2Z" fill="#026bba"/><path d="M154.141,59.09l6.774-2.135v-.727l-7,2.077Z" fill="#013963"/><path d="M152.732,54.25s-.553.47-.689.636-.693.8-.829.95.3.255,1.357-.589.161-1,.161-1" fill="#eea886"/></g><g clip-path="url(#l)"><rect width="5.835" height="5.072" transform="translate(151.283 52.885)" fill="url(#m)"/></g><g clip-path="url(#b)"><path d="M154.141,59.09l-3.6-12.386-13.7-1.337,3.755,11.4Z" fill="#013963"/><path d="M143.646,51.716c.267.708.807,1.16,1.205,1.009s.5-.846.237-1.553-.807-1.16-1.205-1.01-.5.846-.237,1.554" fill="#026bba"/><path d="M154.737,53.309a14.3,14.3,0,0,1,1.838,1.582s2.643-2.59,2.914-2.862l-2.921-.636Z" fill="#4ba2f4"/><path d="M149.373,63.353h0a2.894,2.894,0,0,1,.824-.977,9.671,9.671,0,0,1-.578-3.386,24.321,24.321,0,0,0-.246,4.362" fill="#202338"/></g><g clip-path="url(#o)"><rect width="3.824" height="4.729" transform="translate(125.647 187.642)" fill="url(#p)"/></g><g clip-path="url(#q)"><rect width="5.713" height="7.343" transform="translate(126.291 184.12)" fill="url(#r)"/></g><g clip-path="url(#b)"><path d="M103.205,259.891s1.878,1.111,2.729,1.523,4.154.531,4.481.841.207,1.3-.341,1.4a26.6,26.6,0,0,1-5.9.151c-1.34-.314-3.846.214-4.4.025s-.2-3.18.018-3.852,3.418-.087,3.418-.087" fill="#181929"/><path d="M103.362,258.668l-.156,1.223s-2.511.47-3.272.083l.188-1.271Z" fill="#22243b"/><path d="M113.435,216.882c-.027.847-.181,2.685-.361,4.615-.04.429-.082.863-.123,1.291-.251,2.6-.5,5-.5,5-.317,2.068-.971,5.658-1.7,8.372h0c-.212.783-.428,1.493-.646,2.073a5.14,5.14,0,0,1-.631,1.269c-1.556,1.988-5.124,19.61-5.124,19.61l-4.87-.038s1.071-11.932,2.148-14.956c1.2-3.378,3.287-7.931,2.769-11.189-.324-2.044-.742-8.552-.742-8.552s-.407-7.313,1.5-12.669c.478-1.338,8.281,5.173,8.281,5.173" fill="#292c47"/><path d="M116.892,260.349s1.865,1.133,2.71,1.556,4.147.58,4.471.895.19,1.3-.358,1.394a26.568,26.568,0,0,1-5.9.08c-1.337-.329-3.848.168-4.4-.027s-.16-3.183.063-3.852,3.42-.046,3.42-.046" fill="#181929"/><path d="M117.063,259.128l-.172,1.221s-2.516.44-3.273.044l.2-1.269Z" fill="#22243b"/><path d="M111.241,241.653c-.127-3.9-.471-6.487-1.474-8.738-.842-1.891-1.563-7.829-1.563-7.829s-2.282-6.958-1.82-12.627c.116-1.416,8.938,2.143,8.938,2.143a52.083,52.083,0,0,1,.993,5.35,118.221,118.221,0,0,1,.747,18.178c-.682,2.431,1.042,21.554,1.042,21.554h-4.966A92.346,92.346,0,0,1,111.7,248.65s-.507-6.323-.458-7" fill="#292c47"/><path d="M111.13,191.222a39,39,0,0,1,2.99,5.91c.677,2.116.132,8.27.251,9.507.37,3.837.91,8.062.91,8.062l-7.756,4.954a76.7,76.7,0,0,1-2.606-7.3,34.088,34.088,0,0,1-1.3-10.129,18.258,18.258,0,0,1,4.166-11.955Z" fill="#cfbeb6"/></g><g clip-path="url(#t)"><rect width="10.511" height="10.473" transform="translate(106.117 179.563)" fill="url(#u)"/></g><g clip-path="url(#v)"><rect width="4.261" height="11.877" transform="translate(108.232 182.45)" fill="url(#w)"/></g><g clip-path="url(#b)"><path d="M114.307,181.422s.752-1.775-1.568-3.007c-2.731-1.45-5.628,2.191-6.012,2.406a3.486,3.486,0,0,0-.421,4.785c2.156,3.287,2.042,3.177,2.042,3.177s.217-2.425.2-2.893c-.025-.855,2.218-.957,2.218-.957s-.921-1.226.1-1.776,2.222-1.855,3.436-1.735" fill="#3a3f47"/></g><g clip-path="url(#y)"><rect width="3.679" height="2.913" transform="translate(107.286 183.91)" fill="url(#z)"/></g><g clip-path="url(#b)"><path d="M115.705,216.335s-.386-1.814-.46-2.086L103.9,216.136l.116,1.467a110.786,110.786,0,0,0,11.687-1.268" fill="#23263d"/><path d="M102.892,208.341a34.3,34.3,0,0,1-.986,16.3c-.334,1.072,7.553-.167,7.553-.167Z" fill="#384c9e"/><path d="M112.911,223.927s-5.6,1.23-7.176.674a112.617,112.617,0,0,1-3.088-16.783q-.093-.981-.157-1.957v0c-.445-6.877,1.305-13.854,5.294-15.589.112.076,5.73,5.028,5.623,9.562q-.01.461-.014.923c0,.557,0,1.116.013,1.673h0c.036,1.724.143,3.445.295,5.115.016.174.033.348.049.521.028.281.057.559.086.836.04.37.081.735.125,1.1a37.41,37.41,0,0,1-1.05,13.928" fill="#384c9e"/><path d="M112.681,194.534a62.4,62.4,0,0,1,1.458,9.435c.336,4.4.786,7.509.786,7.509l.673,2.177.277-2.1s-.247-5.676-.576-7.985a26.306,26.306,0,0,0-2.339-9.118Z" fill="#d44040"/><path d="M112.563,194.537a.624.624,0,0,0,.307.149c.18.026.438-.261-.482-1.476Z" fill="#d44040"/><path d="M108.282,189.642s2.609,2.457,4.161,3l.3,2.353-4.954-4.724Z" fill="#eddad3"/><path d="M110.033,199.153c-1.028-.365-5.3-2.44-4.165-4.861s4.067-1.134,6.272-.149c2.308,1.031,7.755,4.2,8.186,3.9a26.18,26.18,0,0,0,2.656-3.592c.34-.6,2.4-4.442,2.591-4.731s3.177,2.226,3.177,2.226-5.365,9.527-6.808,11.044-11.909-3.84-11.909-3.84" fill="#384c9e"/><path d="M110.745,236.16h0c-.211.783-.428,1.493-.646,2.073h0L108.4,228.1c.43.96,2.345,8.059,2.345,8.059" fill="#181929"/><path d="M113.406,202.429l-4.915-4.015c1.3.7,4.5,2.159,4.9,2.342,0,.557,0,1.116.013,1.673" fill="#27356e"/><path d="M112.419,189.791c-.014.147-.037.288-.053.472-.009.109-.018.224-.03.342a5.08,5.08,0,0,1-2.964-1.486c.662.527,3.047.672,3.047.672" fill="#a77860"/><path d="M69.236,200.363s-.43,1.69-.489,1.944-2.708-.446-2.708-.446l0-2.066a15.934,15.934,0,0,1,3.194.568" fill="#666fb3"/><path d="M68.8,202.092a7.344,7.344,0,0,0,1.519,1.666c.776.54,3.774,1.239,4.212,1.758.316.375.755,1.794-4.055,1.146-3.417-.46-5.1-.344-5.411-.94s.975-4.046.975-4.046a6.562,6.562,0,0,0,2.76.416" fill="#2d314f"/><rect width="115.649" height="1.216" transform="translate(66.991 265.621) rotate(-84.444)" fill="#b8b8b8"/><rect width="115.649" height="1.216" transform="translate(47.418 263.722) rotate(-84.444)" fill="#b8b8b8"/><rect width="1.216" height="19.665" transform="translate(58.94 151.535) rotate(-84.477)" fill="#b8b8b8"/><rect width="1.216" height="19.665" transform="translate(58.057 160.637) rotate(-84.477)" fill="#b8b8b8"/><rect width="1.216" height="19.665" transform="translate(57.174 169.739) rotate(-84.477)" fill="#b8b8b8"/><rect width="1.216" height="19.665" transform="translate(56.29 178.84) rotate(-84.477)" fill="#b8b8b8"/><rect width="1.216" height="19.665" transform="translate(55.407 187.942) rotate(-84.477)" fill="#b8b8b8"/><rect width="1.216" height="19.665" transform="translate(54.524 197.044) rotate(-84.477)" fill="#b8b8b8"/><rect width="1.216" height="19.665" transform="translate(53.64 206.145) rotate(-84.477)" fill="#b8b8b8"/><rect width="1.216" height="19.665" transform="translate(52.757 215.247) rotate(-84.477)" fill="#b8b8b8"/><rect width="1.216" height="19.665" transform="translate(51.874 224.348) rotate(-84.477)" fill="#b8b8b8"/><rect width="1.216" height="19.665" transform="translate(50.991 233.45) rotate(-84.477)" fill="#b8b8b8"/><rect width="1.216" height="19.665" transform="translate(50.107 242.552) rotate(-84.477)" fill="#b8b8b8"/><rect width="1.216" height="19.665" transform="matrix(0.096, -0.995, 0.995, 0.096, 49.224, 251.653)" fill="#b8b8b8"/><rect width="1.216" height="19.665" transform="translate(48.341 260.755) rotate(-84.477)" fill="#b8b8b8"/></g><g clip-path="url(#ab)"><rect width="5.554" height="4.975" transform="translate(89.723 131.379)" fill="url(#ac)"/></g><g clip-path="url(#b)"><path d="M73.2,150.477a28.182,28.182,0,0,1,3.2-1.775c3.942-1.972,8.808-5.547,9.734-6.063,1.422-.794,5.916-6.285,5.916-6.285-.231-.827-2.362-2.487-2.362-2.487s-6.814,6.453-8.3,7.248c-1.28.683-7.605,1.373-9.347,1.552l-.445.045c-1.82,2.481.59,8.419,1.606,7.765" fill="#3e426b"/><path d="M72.5,164.784s1.928,7.16,2.436,9.719c.443,2.23,1.334,8.169,1.461,9.581s-5.692,15.079-6.3,17.548l-5.3-.851S70.4,186.556,68.938,183.4c-2.17-4.7-2.452-4.559-4.162-8.432S59.154,171,58.1,163.813c0,0,12.978-1.308,14.4.971" fill="#2d314f"/></g><g clip-path="url(#ae)"><rect width="9.006" height="11.049" transform="translate(60.838 129.676)" fill="url(#af)"/></g><g clip-path="url(#ag)"><rect width="5.886" height="5.088" transform="translate(61.765 136.657)" fill="url(#ah)"/></g><g clip-path="url(#b)"><path d="M61.893,137.184s.322.531,1.635.325,2.916-1.954,3.464-2.146.554-.513.554-.513l.343.5.583.037s-.531-1.563.27-2.2-.832-5.059-5.044-3.587c0,0-3.235.892-3.118,2.732a10.229,10.229,0,0,0,1.313,4.852" fill="#d88a51"/><path d="M67.459,134.18c-.074-.309-.858-1.191-1.159-.246s.454,2.214.875,2.106.471-1.077.284-1.86" fill="#eea886"/><path d="M54.035,153.358a2.068,2.068,0,0,0,.924,1.208,1.5,1.5,0,0,0,.8.264l.209.007,3.657.124s2.719-8.788-2.381-12.139c-.158.015-3.566,6.3-3.212,10.536" fill="#3e426b"/><path d="M65.065,205.722c.308.6,1.993.479,5.411.939a15.722,15.722,0,0,0,2.247.167l.2-2.056a15.551,15.551,0,0,1-2.6-1.014,7.344,7.344,0,0,1-1.519-1.666,6.562,6.562,0,0,1-2.76-.416s-1.282,3.45-.975,4.046" fill="#2d314f"/><path d="M67.326,141.01s-2.87-.668-4.488-.122l-.244.227s-.492.942,1.359,1.023,4.76.216,3.373-1.128" fill="#3e426b"/><path d="M56.11,208.266s-.43,1.69-.489,1.944-2.708-.446-2.708-.446l0-2.067a15.872,15.872,0,0,1,3.194.569" fill="#666fb3"/><path d="M58.1,163.812a55.822,55.822,0,0,0-1.252,7.975c-.264,3.686-.746,7.73-1.128,11.586-.427,4.3-1.643,11.249-1.706,13.548s-2,12.349-2,12.349l4.951.569s3.216-17.759,3.976-19.575,4.527-14.757,4.654-16.21-7.5-10.242-7.5-10.242" fill="#2d314f"/><path d="M55.673,209.995a7.344,7.344,0,0,0,1.519,1.666c.776.54,3.774,1.238,4.212,1.758.316.375.755,1.794-4.055,1.146-3.417-.46-5.1-.344-5.411-.94s.975-4.046.975-4.046a6.562,6.562,0,0,0,2.76.416" fill="#2d314f"/><path d="M73.506,173.726c.422-.06-1.047-12.63-.935-13.419.075-.526.064-4.61.033-7.157l.459-2.577a11.882,11.882,0,0,1,1.01-.638c.638-.368,1.439-.789,2.328-1.234-.1-.609-.175-1.088-.2-1.368a5.15,5.15,0,0,0-2.6-3.969,4.2,4.2,0,0,0-.593-.3c-.328-.139-.649-.274-.962-.4-2.076-.854-4.712-1.656-4.712-1.656H63.089a35.863,35.863,0,0,0-5.147,1.431,3.605,3.605,0,0,0-.695.381l.576,12.078v.008l0,.015c.26,1.7.533,3.7.624,5.11.037.573-.619,3.655-.962,6.483l-1.2,6.768s.693,2.8,17.216.442" fill="#3e426b"/><path d="M187.077,219.979a.851.851,0,0,1-.851-.851V207.351a.851.851,0,1,1,1.7,0v11.777a.851.851,0,0,1-.851.851" fill="#fff"/><path d="M192.965,214.091H181.189a.852.852,0,0,1,0-1.7h11.776a.852.852,0,0,1,0,1.7" fill="#fff"/><path d="M133.067,256.931a19.238,19.238,0,0,0-.824,3.2c.046.572,3.319.6,3.319.6l1.076-1.534Z" fill="#163342"/><path d="M132.072,259.547a3.869,3.869,0,0,0-.818,1.46c-.045.553-1,2.986-.642,3.583s3.141.686,4.535.464,4.423.244,4.733-.353.487-1.468-.42-1.807-2.986-1.224-3.362-2.153-4.026-1.194-4.026-1.194" fill="#21243b"/></g><g clip-path="url(#aj)"><rect width="8.662" height="11.412" transform="translate(169.187 196.719)" fill="url(#ak)"/></g><g clip-path="url(#b)"><path d="M169.387,202.481s.007.636,1.272,1.139,3.59-.2,4.173-.084.756-.165.756-.165l.041.622.495.336s.347-1.655,1.386-1.8,1.9-4.894-2.576-5.793c0,0-3.318-.9-4.174.783a10.477,10.477,0,0,0-1.373,4.962" fill="#3a3f47"/></g><g clip-path="url(#am)"><rect width="4.248" height="3.432" transform="translate(179.807 219.675)" fill="url(#an)"/></g><g clip-path="url(#ao)"><rect width="5.798" height="5.053" transform="translate(182.193 218.246)" fill="url(#ap)"/></g><g clip-path="url(#b)"><path d="M164.99,205.9a27.938,27.938,0,0,0-3.921,0c-1.622.166-3.863,1.493-5.22,1.877s-4.63,2.584-4.541,2.884a24.427,24.427,0,0,0,3.7,6.789c2.007,2.489,9.981-11.55,9.981-11.55" fill="#4ba2f4"/><path d="M160.031,207.348a9.64,9.64,0,0,0-4.5,7.2Z" fill="#3c82c4"/><path d="M161.908,261.979a6.018,6.018,0,0,0,1.117.951c.409.2,5.3,1.04,5.629,1.438s.332,1.968-.929,1.968-5.463-.022-6.171,0-3.7.62-4.005,0-.279-3.509.267-4.2,4.092-.155,4.092-.155" fill="#21243b"/><path d="M161.758,261.1l.15.878a7.745,7.745,0,0,1-4.091.155v-.907Z" fill="#2a617d"/></g><g clip-path="url(#ar)"><rect width="6.705" height="5.734" transform="translate(165.773 204.21)" fill="url(#as)"/></g><g clip-path="url(#b)"><path d="M169.415,211.674c-.757.457-.885.605-.8,2.772a20.087,20.087,0,0,0,1.054,4.513c.066.6,1.27,6.52,1.6,6.852s4.3-.441,5.1-.69c1.2-.372,6.282-2.093,6.282-2.093l-1.118-2.33s-6.414,1.43-6.62.929-.709-4.712-.886-5.626a10.765,10.765,0,0,0-.961-4.52c-.978-1.941-3.656.193-3.656.193" fill="#4ba2f4"/><path d="M161.9,227.982s1.358,1.447,1.739,1.917a75.739,75.739,0,0,1,6.591,10.16c.443,1.032-2.19,8.332-3.273,10.882-.568,1.337-4.32,10.551-4.2,10.758s-3.97.342-5.8-.6c0,0,2.628-7.789,3.182-9.316.837-2.307,3.736-8.694,3.825-9.314s-4.688-5.726-6.281-6.7a60.715,60.715,0,0,1-5.927-4.866c-.443-.443-2.95-1.623-2.714-3.864a7.838,7.838,0,0,1,1.9-4.011Z" fill="#2d314f"/><path d="M154.748,233.528l-.6,1.572c-.75,1.971-1.963,5.15-2.164,5.653-.295.738-1.77,3.923-2.478,4.542s-12.356,14.6-12.386,14.716-5.575-.759-5.84-1.615c0,0,7.521-9.592,8.494-10.8s3.008-3.008,3.687-5.869,5.543-13.86,5.558-14.274c0,0,.783-3.391,1.918-4.423s5.264.177,5.913,2.329-2.1,8.17-2.1,8.17" fill="#2d314f"/><path d="M166.2,205.926l.94-.371A7.069,7.069,0,0,1,170.89,208l-.118.568s-3.621-.785-4.568-2.645" fill="#d4d8e8"/><path d="M154.748,233.528l-.6,1.572a39.026,39.026,0,0,1-2.6-4.361c.117.084.5.44.584.519s2.616,2.27,2.616,2.27" fill="#1b2738"/></g><g clip-path="url(#au)"><rect width="1.503" height="2.299" transform="translate(173.57 202.362)" fill="url(#av)"/></g><g clip-path="url(#b)"><path d="M172.542,197.457s-3.192-2.27-3.209,5.469Z" fill="#3a3f47"/><path d="M169.829,219.774a3.764,3.764,0,0,1-.443.541c-.067.059-.149.127-.243.2h0a37.426,37.426,0,0,1-3.855,2.628c-1.033.561-2.99,5.282-2.99,5.282s-9.235-.622-11.358-5.4a42.294,42.294,0,0,1,2.875-5.353c1.372-1.99,4.38-9.157,5.972-10.174a9.177,9.177,0,0,1,6.105-1.593,6.587,6.587,0,0,1,4.881,2.581s2.389,2.566,2.625,3.922c.2,1.167-2.39,5.721-3.568,7.362" fill="#4ba2f4"/></g></svg>