<svg xmlns="http://www.w3.org/2000/svg" xmlns:xlink="http://www.w3.org/1999/xlink" width="94.2" height="94.2" viewBox="0 0 94.2 94.2"><defs><clipPath id="a"><rect width="94.2" height="94.2" fill="none"/></clipPath></defs><g clip-path="url(#a)"><path d="M91.98,47.1A44.88,44.88,0,1,1,47.1,2.22,44.879,44.879,0,0,1,91.98,47.1" fill="#33aea8"/><path d="M59.539,59.837c1.9-1.373,2.365-4.613,1.923-6.518s-1.526-2.04-1.977-2.04H54.872v-3.9a2.257,2.257,0,1,0-4.513,0v8.413a6.047,6.047,0,0,0,.144,1.236A14.122,14.122,0,0,0,45.277,55.8V52.678a.9.9,0,0,0-.433-.758,2.955,2.955,0,0,1,1-1.21c3.294-2.04,4.964-4.865,4.964-8.385a10.543,10.543,0,0,0-21.086,0c0,3.61,1.57,6.264,4.965,8.358a3.136,3.136,0,0,1,1.038,1.3.9.9,0,0,0-.389.731v3.124c-8.954.442-10.7,7.221-10.723,7.366L22.809,72.23a.9.9,0,0,0,.686,1.047h.181a.9.9,0,0,0,.9-.722l1.805-9.026a8.347,8.347,0,0,1,5.416-5.29,6.444,6.444,0,0,0,4.757,3.773l1.4,2.311-1.634,7.871A.9.9,0,0,0,37,73.274l.014,0h.19a.9.9,0,0,0,.9-.722l1.561-7.465h1.3l1.562,7.465a.9.9,0,0,0,.9.722h.19a.9.9,0,0,0,.695-1.065l-1.634-7.844,1.327-2.2a6.328,6.328,0,0,0,5.236-3.746,8.749,8.749,0,0,1,3.015,1.968v1.995l-1.39,9.866a.9.9,0,0,0,.757,1.028h.136a.9.9,0,0,0,.9-.776l1.282-9.153h3.719L58.962,72.5a.9.9,0,0,0,.9.776h.127a.9.9,0,0,0,.767-1.02L59.4,62.6a.418.418,0,0,1,0-.1ZM52.191,47.38a.452.452,0,1,1,.9,0v4.8a.9.9,0,0,0,.9.9h5.416a3.374,3.374,0,0,1,.388,2.292,3.908,3.908,0,0,1-1.535,3.16.964.964,0,0,0-.352.3H53.943a.9.9,0,0,0-.461-.37c-.054,0-1.272-.506-1.272-2.709Zm-15.038,6.2h6.319v2.708l-.9.9H38.056l-.9-.9Zm2.482-8.458.948-.9.9.858L40.4,48.8Zm-8.124-2.835a8.855,8.855,0,0,1,8.756-8.728A8.756,8.756,0,0,1,49.005,42.3c0,2.9-1.345,5.136-4.116,6.851a4.906,4.906,0,0,0-1.941,2.636H41.423l1.9-6.554L44.6,43.489a.906.906,0,0,0-1.453-1.083l-.759,1.083L41.2,42.361a.9.9,0,0,0-1.246,0l-1.2,1.128-.759-1.02a.9.9,0,0,0-1.444,1.083l1.246,1.67,1.4,6.581H37.6A4.934,4.934,0,0,0,35.636,49.1c-2.843-1.742-4.107-3.8-4.107-6.807Zm10.155,20.2-.469.795H39.428l-.533-.9a6.591,6.591,0,0,0,1.679.19,4.649,4.649,0,0,0,1.092-.082M43.472,60.4v-.5a.9.9,0,0,0-1.806,0c0,.83,0,.9-1.083.9-1.625,0-1.625-.216-1.625-.9a.9.9,0,1,0-1.805,0v.415A4.8,4.8,0,0,1,33.542,57.8a14.918,14.918,0,0,1,2.32-.217l1.146,1.146a.9.9,0,0,0,.641.271H42.93a.9.9,0,0,0,.641-.271l1.155-1.146a14.234,14.234,0,0,1,2.79.316C47.326,58.329,46.378,60.08,43.472,60.4Zm10.6.244H57.68v.9H54.069Z" fill="#fff"/><path d="M30.184,66.471a.9.9,0,0,0-1.1.647v0l-1.3,5.028a.9.9,0,0,0,.612,1.12l.029.008h.225a.9.9,0,0,0,.9-.677l1.282-5.028a.9.9,0,0,0-.647-1.1h0" fill="#fff"/><path d="M71.455,20.922H52.5a1.806,1.806,0,0,0-1.806,1.8v12.71a.9.9,0,0,0,.47.785.827.827,0,0,0,.433.118.909.909,0,0,0,.478-.145l4.189-2.636H71.455a1.8,1.8,0,0,0,1.805-1.8V22.727a1.8,1.8,0,0,0-1.805-1.8m0,10.832H56a.9.9,0,0,0-.478.135l-3.024,1.9V22.727H71.455Z" fill="#fff"/><path d="M57.012,25.435H68.747a.9.9,0,1,0,0-1.8H57.012a.9.9,0,1,0,0,1.8" fill="#fff"/><path d="M55.206,28.143h13.54a.9.9,0,1,0,0-1.8H55.206a.9.9,0,1,0,0,1.8" fill="#fff"/><path d="M55.206,30.852H66.941a.9.9,0,1,0,0-1.8H55.206a.9.9,0,1,0,0,1.8" fill="#fff"/><path d="M38.471,26.04a.9.9,0,0,0,.641-.271l.6-.6a.9.9,0,1,0-1.273-1.281l-.6.641a.872.872,0,0,0,.641,1.507Z" fill="#fff"/><path d="M38.435,28.784a.9.9,0,0,0,1.278-1.277l-.005,0-.6-.6a.9.9,0,0,0-1.277-.005l0,.005a.9.9,0,0,0,0,1.273Z" fill="#fff"/><path d="M35.465,29.046a.9.9,0,0,0,.632-.262l.6-.641a.9.9,0,0,0-1.175-1.371.833.833,0,0,0-.1.1l-.6.595a.9.9,0,0,0-.005,1.277l.005,0a.9.9,0,0,0,.641.3" fill="#fff"/><path d="M35.429,25.77A.888.888,0,0,0,36.7,24.533l-.6-.6A.9.9,0,0,0,34.819,25.2l.005,0Z" fill="#fff"/><path d="M24.885,43.6a.9.9,0,0,0,.632-.262l.6-.6a.9.9,0,0,0-1.277-1.278l0,.006-.6.6a.9.9,0,0,0,.641,1.544" fill="#fff"/><path d="M25.517,44.464a.9.9,0,0,0-1.278,1.277l0,0,.6.6a.9.9,0,1,0,1.282-1.273Z" fill="#fff"/><path d="M23.116,44.464a.9.9,0,0,0-1.277-.005l-.005.005-.6.6a.9.9,0,0,0,1.282,1.273l.6-.6a.9.9,0,0,0,.005-1.277l-.005-.005" fill="#fff"/><path d="M21.807,43.336a.907.907,0,0,0,1.287-1.277l0,0-.605-.6a.9.9,0,0,0-1.277-.005l-.005.005a.9.9,0,0,0,0,1.273Z" fill="#fff"/><path d="M68.1,50.07l-.605.6a.9.9,0,1,0,1.255,1.273l.6-.6a.9.9,0,0,0,0-1.277l0-.005a.9.9,0,0,0-1.246,0" fill="#fff"/><path d="M68.747,53.084a.9.9,0,0,0-1.277-.005l-.005.005a.9.9,0,0,0,0,1.273l.605.605a.9.9,0,0,0,1.273-1.282Z" fill="#fff"/><path d="M65.136,53.084l-.605.6A.9.9,0,0,0,65.8,54.962l.6-.605a.9.9,0,0,0-1.273-1.273" fill="#fff"/><path d="M65.759,50.07a.9.9,0,0,0-1.278,1.277l0,.005.605.6a.9.9,0,0,0,1.273-1.273Z" fill="#fff"/></g></svg>