<svg xmlns="http://www.w3.org/2000/svg" xmlns:xlink="http://www.w3.org/1999/xlink" width="94.2" height="94.2" viewBox="0 0 94.2 94.2"><defs><clipPath id="a"><rect width="94.2" height="94.2" fill="none"/></clipPath></defs><g clip-path="url(#a)"><path d="M91.98,47.1A44.88,44.88,0,1,1,47.1,2.22,44.879,44.879,0,0,1,91.98,47.1" fill="#33aea8"/><path d="M56.86,59.022A2.542,2.542,0,1,0,59.4,61.564a2.544,2.544,0,0,0-2.542-2.542m0,3.548a1.007,1.007,0,1,1,1.006-1.006A1.007,1.007,0,0,1,56.86,62.57" fill="#fff"/><path d="M70.086,69.012H69.6c.105-.442.035-.119.056-7.939a.768.768,0,0,0-1.535,0v7.478a.467.467,0,0,1-.461.461H46.063a.467.467,0,0,1-.461-.461V54.575a.467.467,0,0,1,.461-.46H67.657a.467.467,0,0,1,.461.46v2.916a.768.768,0,1,0,1.535,0V54.575a2,2,0,0,0-2-1.995H51.381L49.669,52a.32.32,0,0,1-.216-.3V49.813a10.113,10.113,0,0,0,4.9-7.617,2.915,2.915,0,0,0,2.985-4.079V31.86c0-4.525-2.461-6.1-3.213-6.475-4.337-5.177-13.275-5.93-18.767-.727a.769.769,0,0,0,.526,1.327c.565,0,.479-.4,2.226-1.532.13-.084.381-.232.37-.226,4.526-2.717,11.2-1.884,14.568,2.266a.738.738,0,0,0,.319.232c.1.04,2.435,1.023,2.435,5.135V36.7a3.3,3.3,0,0,0-1.39-.258V33.935A1.228,1.228,0,0,0,53.3,32.71a3.03,3.03,0,0,1-2.392-1.648,1.54,1.54,0,0,0-2.351-.424,12.419,12.419,0,0,1-10.067,2.684,3.775,3.775,0,0,0-4.271,3.125,3.319,3.319,0,0,0-1.44.257c.049-2.39-.357-4.978,1.536-8.279a.767.767,0,1,0-1.331-.764,13.136,13.136,0,0,0-1.729,5.993c-.019.495-.007.314-.011,4.463A2.915,2.915,0,0,0,34.228,42.2a10.126,10.126,0,0,0,5.19,7.782v1.716a.32.32,0,0,1-.216.3c-3.043,1.063.543-.23-7.434,2.6a5.288,5.288,0,0,0-.817.264,5.088,5.088,0,0,0-3.11,3.783c-2.394,12.026-2.3,11.344-2.287,12,.075,1.9,1.288,2.859,3.155,2.859H46.951a.768.768,0,0,0,0-1.535H44.435c-1.073,0-1.428-1.418-.8-1.418H70.087c.627,0,.268,1.418-.8,1.418H50.532a.768.768,0,0,0,0,1.535H69.285a2.649,2.649,0,0,0,2.645-2.645,1.846,1.846,0,0,0-1.844-1.843M54.415,37.981a1.374,1.374,0,1,1,0,2.681ZM34.169,40.662a1.374,1.374,0,1,1,0-2.681Zm1.547.881c-.019-.355-.01-.227-.012-4.183a2.369,2.369,0,0,1,.77-1.994,2.253,2.253,0,0,1,1.8-.525A13.905,13.905,0,0,0,49.553,31.8l.012,0a4.553,4.553,0,0,0,3.315,2.4c0,6.938.09,7.614-.255,8.988A8.784,8.784,0,0,1,51.6,45.617c-4.505,7.119-15.465,4.32-15.885-4.074M32.572,71.965H28.709c-1.314,0-1.549-.622-1.608-1.164-.061-.564.065-.818.593-3.56h4.878Zm11.062-2.953h0a1.909,1.909,0,0,0-1.694,2.72c.022.062.059.157.094.233H34.107V64.731a.768.768,0,1,0-1.535,0v.975H28c1.448-7.267,1.365-6.963,1.523-7.382a3.444,3.444,0,0,1,1.462-1.761,4,4,0,0,1,1.232-.5c.041-.011-.23.083,4.424-1.566h0l2.78-.954a3.132,3.132,0,0,0,2.138,2.93,8.748,8.748,0,0,0,2.507.443c.049,11.679-.07,11.574.054,12.1Zm.433-14.437v.807a7.187,7.187,0,0,1-2.02-.364A1.6,1.6,0,0,1,40.955,53.5c0-1.863,0-.725,0-2.838a10.073,10.073,0,0,0,5.969.22l0-.006.011,0,0,.006a9.544,9.544,0,0,0,.986-.323v2.023H46.063a2,2,0,0,0-2,2" fill="#fff"/></g></svg>