<svg xmlns="http://www.w3.org/2000/svg" xmlns:xlink="http://www.w3.org/1999/xlink" width="94.2" height="94.2" viewBox="0 0 94.2 94.2"><defs><clipPath id="a"><rect width="94.2" height="94.2" fill="none"/></clipPath></defs><g clip-path="url(#a)"><path d="M91.98,47.1A44.88,44.88,0,1,1,47.1,2.22,44.879,44.879,0,0,1,91.98,47.1" fill="#4b6bb2"/><path d="M70.789,44.766c-2.058-1.029-5.917-1.041-6.08-1.041a.886.886,0,0,0,0,1.772A15.307,15.307,0,0,1,70,46.351a.875.875,0,0,0,.395.094.886.886,0,0,0,.4-1.679" fill="#fff"/><path d="M75.206,57.38l-3.659-1.046a.371.371,0,0,1-.268-.356V54.757a6.574,6.574,0,0,0,2.842-5.409V47.662l.354-.707a5.656,5.656,0,0,0,.593-2.515V39.875a.886.886,0,0,0-.886-.886H65.657a5.629,5.629,0,0,0-5.623,5.622v.053a4.7,4.7,0,0,0,.494,2.091l.454.907v1.447A6.914,6.914,0,0,0,63.823,54.7v1.28c0,.2,0,.279-.732.488l-1.785.511L56.142,55.1a.884.884,0,0,0-.241-.679L54.25,52.686v-2.91c.175-.144.347-.292.514-.448a10.4,10.4,0,0,0,3.276-7.559V39.445a10.252,10.252,0,0,0,.947-4.307V25.666a.886.886,0,0,0-.886-.886H44.839a8.474,8.474,0,0,0-8.464,8.464v1.9a10.251,10.251,0,0,0,.947,4.306v2a10.826,10.826,0,0,0,3.789,8.262v2.98l-1.65,1.733a.884.884,0,0,0-.241.679l-5.451,1.982a4.63,4.63,0,0,0-1.1.574l-.855-.428a6.753,6.753,0,0,0,3.393-2.747.883.883,0,0,0,0-.792c-.638-1.278-.716-3.619-.778-5.5-.02-.627-.04-1.218-.078-1.745a7.706,7.706,0,0,0-7.514-7.454,7.706,7.706,0,0,0-7.515,7.454c-.037.527-.057,1.119-.077,1.745-.062,1.881-.14,4.222-.779,5.5a.89.89,0,0,0,0,.792,6.771,6.771,0,0,0,3.4,2.745L19.49,58.413a3.709,3.709,0,0,0-2.06,3.335v6.545a.886.886,0,1,0,1.772,0V61.748A1.946,1.946,0,0,1,20.283,60l2.96-1.48,1.03.979a3.727,3.727,0,0,0,5.136,0l1.03-.979L31.4,59a4.66,4.66,0,0,0-.713,2.473v6.819a.886.886,0,1,0,1.772,0V61.474a2.912,2.912,0,0,1,1.911-2.728l5.747-2.09,2.393,3.589a1.823,1.823,0,0,0,1.344.807q.091.009.183.009a1.822,1.822,0,0,0,1.294-.537l1.46-1.459v9.228a.886.886,0,0,0,1.772,0V59.065l1.459,1.459a1.825,1.825,0,0,0,1.295.538c.06,0,.121,0,.182-.009a1.829,1.829,0,0,0,1.345-.808l2.392-3.588,5.747,2.089A2.912,2.912,0,0,1,62.9,61.475v6.818a.886.886,0,1,0,1.772,0V61.475a4.685,4.685,0,0,0-1.31-3.242l.219-.062a4.856,4.856,0,0,0,.824-.3l2.262,2.262v8.158a.886.886,0,1,0,1.772,0V60.135l2.246-2.246a2.128,2.128,0,0,0,.377.149l3.659,1.046a1.964,1.964,0,0,1,1.419,1.88v7.329a.886.886,0,0,0,1.772,0V60.964a3.743,3.743,0,0,0-2.7-3.584M23.113,55.815a6.376,6.376,0,0,1-2.843-1.826,9.734,9.734,0,0,0,.5-2.121,6.618,6.618,0,0,0,2.338,2.885Zm5.076,2.4a1.955,1.955,0,0,1-2.695,0l-.824-.783a1.829,1.829,0,0,0,.215-.865V55.62a6.6,6.6,0,0,0,3.912,0v.943a1.836,1.836,0,0,0,.215.866Zm-1.348-4.067a4.8,4.8,0,0,1-4.8-4.8.881.881,0,0,0-1.032-.873c0-.076.006-.153.008-.228.02-.609.039-1.185.074-1.678a6.577,6.577,0,0,1,1.791-4.131,5.5,5.5,0,0,1,7.912,0,6.577,6.577,0,0,1,1.791,4.131c.035.493.055,1.068.075,1.677,0,.053,0,.106.005.159a7.959,7.959,0,0,0-4.376-3.2,11.1,11.1,0,0,0-3.37-.534.888.888,0,0,0-.613.271l-1.6,1.657a.886.886,0,1,0,1.275,1.23l1.33-1.379c1.146.056,4.831.485,6.264,3.641a4.787,4.787,0,0,1-4.739,4.052m3.728,1.673V54.761a6.557,6.557,0,0,0,2.339-2.888,9.77,9.77,0,0,0,.5,2.117,6.4,6.4,0,0,1-2.843,1.828m8.525-14.373v-2.2a.886.886,0,0,0-.088-.385,8.5,8.5,0,0,1-.859-3.723v-1.9a6.7,6.7,0,0,1,6.692-6.692H57.215v8.587a8.5,8.5,0,0,1-.859,3.723.886.886,0,0,0-.088.385V41.77a8.507,8.507,0,0,1-2.716,6.266q-.328.308-.68.576l-.016.011a8.519,8.519,0,0,1-5.748,1.715,8.775,8.775,0,0,1-8.014-8.893m4.988,17.826a.055.055,0,0,1-.049.018.057.057,0,0,1-.045-.027l-2.755-4.133.886-.932,4.18,2.857Zm3.6-3.419-4.8-3.279V50.919a9.987,9.987,0,0,0,4.11,1.187c.233.015.466.022.7.022a10.274,10.274,0,0,0,4.789-1.173v1.618Zm3.693,3.41a.057.057,0,0,1-.045.027.056.056,0,0,1-.05-.017l-2.216-2.217L53.242,54.2l.887.931Zm16.177-.747L65.541,56.5a2.382,2.382,0,0,0,.054-.526V55.6a6.21,6.21,0,0,0,1.755.31l.2,0a6.577,6.577,0,0,0,1.953-.295v.356a2.116,2.116,0,0,0,.064.517Zm3.341-5.724A4.763,4.763,0,0,1,67.4,54.143a4.96,4.96,0,0,1-4.65-5.034V47.453a.893.893,0,0,0-.093-.4l-.547-1.095a2.908,2.908,0,0,1-.307-1.3v-.053a3.855,3.855,0,0,1,3.851-3.85H73.3v3.68a3.871,3.871,0,0,1-.406,1.722l-.448.894a.893.893,0,0,0-.093.4v1.9a4.763,4.763,0,0,1-1.457,3.443" fill="#fff"/><path d="M73.235,61.723a.886.886,0,0,0-.886.886v5.684a.886.886,0,0,0,1.772,0V62.609a.886.886,0,0,0-.886-.886" fill="#fff"/><path d="M22.1,62.894a.886.886,0,0,0-.886.886v4.512a.886.886,0,1,0,1.772,0V63.78a.886.886,0,0,0-.886-.886" fill="#fff"/><path d="M54.938,35.46c-3.351-3.351-10.361-2.71-13.22-2.279a1.819,1.819,0,0,0-1.554,1.812v2.041a.886.886,0,0,0,1.772,0V34.993a.058.058,0,0,1,.046-.06,27.967,27.967,0,0,1,5.756-.281c2.762.183,4.763.877,5.947,2.061a.886.886,0,0,0,1.253-1.253" fill="#fff"/><path d="M37.261,63.618a.886.886,0,0,0-.886.886v3.789a.886.886,0,1,0,1.772,0V64.5a.886.886,0,0,0-.886-.886" fill="#fff"/><path d="M58.1,63.618a.886.886,0,0,0-.886.886v3.789a.886.886,0,1,0,1.772,0V64.5a.886.886,0,0,0-.886-.886" fill="#fff"/></g></svg>