<svg xmlns="http://www.w3.org/2000/svg" xmlns:xlink="http://www.w3.org/1999/xlink" width="94.2" height="94.2" viewBox="0 0 94.2 94.2"><defs><clipPath id="a"><rect width="94.2" height="94.2" fill="none"/></clipPath></defs><g clip-path="url(#a)"><path d="M91.98,47.1A44.88,44.88,0,1,1,47.1,2.22,44.879,44.879,0,0,1,91.98,47.1" fill="#4b6bb2"/><path d="M67.494,56.256A5.5,5.5,0,0,0,68.629,52.9v-1.93a5.529,5.529,0,1,0-11.059,0V52.9a5.5,5.5,0,0,0,1.135,3.35H52.519a7.824,7.824,0,0,0,2.428-5.667V45.568a7.847,7.847,0,0,0-15.694,0v5.019a7.82,7.82,0,0,0,2.428,5.667H35.495a5.5,5.5,0,0,0,1.134-3.35v-1.93a5.53,5.53,0,1,0-11.059,0V52.9A5.5,5.5,0,0,0,26.7,56.256a7.587,7.587,0,0,0-7.5,7.578v4.127a1.09,1.09,0,0,0,1.09,1.09h8.718V73.91A1.09,1.09,0,0,0,30.1,75H33.15a1.09,1.09,0,1,0,0-2.179H31.188V67.51a9.086,9.086,0,0,1,8.36-9.045L45.471,72.82H42.958a1.09,1.09,0,1,0,0,2.179H64.1a1.09,1.09,0,0,0,1.09-1.089V69.051H73.91A1.09,1.09,0,0,0,75,67.961V63.834a7.588,7.588,0,0,0-7.506-7.578M59.75,52.9v-1.93a3.35,3.35,0,0,1,6.7,0V52.9a3.35,3.35,0,1,1-6.7,0M47.1,39.9a5.673,5.673,0,0,1,5.667,5.667v.011h0A9.227,9.227,0,0,1,47.7,44.068a1.09,1.09,0,0,0-1.193,0,9.222,9.222,0,0,1-5.066,1.511h0v-.011A5.673,5.673,0,0,1,47.1,39.9M41.433,50.587V47.759h0a11.392,11.392,0,0,0,5.663-1.5,11.388,11.388,0,0,0,5.662,1.5h0v2.828a5.667,5.667,0,0,1-11.334,0m-13.683.387a3.35,3.35,0,1,1,6.7,0V52.9a3.35,3.35,0,1,1-6.7,0Zm1.277,15.9H21.379V63.834a5.406,5.406,0,0,1,5.4-5.4h6.836A11.25,11.25,0,0,0,29.027,66.871Zm12.882-8.437h4.1v2.615a1.09,1.09,0,1,0,2.18,0V58.434h4.116L47.1,71.052,41.893,58.434Zm21.1,14.386H48.728l5.924-14.355a9.086,9.086,0,0,1,8.359,9.045Zm9.809-5.949H65.173a11.251,11.251,0,0,0-4.589-8.437H67.42a5.406,5.406,0,0,1,5.4,5.4Z" fill="#fff"/><path d="M39.613,27.6l2.6,1.882-.995,3.039a2.14,2.14,0,0,0,3.3,2.395L47.1,33.028l2.584,1.885a2.108,2.108,0,0,0,2.52,0,2.111,2.111,0,0,0,.777-2.4l-.995-3.038,2.6-1.882a2.141,2.141,0,0,0-1.254-3.876H50.12l-.982-3.038a2.142,2.142,0,0,0-4.075,0l-.982,3.038H40.868A2.141,2.141,0,0,0,39.613,27.6m5.261-1.7a1.088,1.088,0,0,0,1.037-.754l1.19-3.679,1.189,3.679a1.088,1.088,0,0,0,1.037.754h3.886l-3.149,2.279a1.087,1.087,0,0,0-.4,1.221l1.2,3.682L47.743,30.8a1.088,1.088,0,0,0-1.285,0l-3.129,2.283L44.534,29.4a1.088,1.088,0,0,0-.4-1.221L40.988,25.9Z" fill="#fff"/><path d="M38.054,72.82a1.091,1.091,0,1,0,.77.319,1.1,1.1,0,0,0-.77-.319" fill="#fff"/></g></svg>