<svg xmlns="http://www.w3.org/2000/svg" xmlns:xlink="http://www.w3.org/1999/xlink" width="925" height="506.952" viewBox="0 0 925 506.952"><defs><clipPath id="a"><rect width="925" height="506.952" fill="none"/></clipPath><clipPath id="b"><rect width="924.999" height="506.952" fill="none"/></clipPath><clipPath id="c"><rect width="22.278" height="72.112" fill="none"/></clipPath><clipPath id="d"><path d="M195.694,61.205A52.956,52.956,0,1,0,248.651,8.249a52.956,52.956,0,0,0-52.957,52.956" transform="translate(-195.694 -8.249)" fill="none"/></clipPath><clipPath id="e"><rect width="41.769" height="63.356" fill="none"/></clipPath><clipPath id="f"><rect width="43.653" height="69.887" fill="none"/></clipPath><clipPath id="g"><rect width="7.093" height="23.013" fill="none"/></clipPath><clipPath id="h"><rect width="16.314" height="51.202" fill="none"/></clipPath><clipPath id="i"><rect width="6.948" height="33.757" fill="none"/></clipPath><clipPath id="j"><rect width="31.702" height="44.843" fill="none"/></clipPath><clipPath id="k"><rect width="42.75" height="30.693" fill="none"/></clipPath><clipPath id="l"><rect width="7.56" height="17.45" fill="none"/></clipPath><clipPath id="m"><rect width="6.916" height="21.492" fill="none"/></clipPath><clipPath id="n"><rect width="21.916" height="18.973" fill="none"/></clipPath><clipPath id="o"><rect width="15.347" height="7.09" fill="none"/></clipPath><clipPath id="p"><rect width="11.994" height="12.043" fill="none"/></clipPath><clipPath id="q"><rect width="14.397" height="13.219" fill="none"/></clipPath><clipPath id="r"><rect width="37.922" height="44.533" fill="none"/></clipPath><clipPath id="s"><path d="M8.115,326.441a52.956,52.956,0,1,0,52.956-52.955A52.956,52.956,0,0,0,8.115,326.441" transform="translate(-8.115 -273.486)" fill="none"/></clipPath><clipPath id="t"><rect width="42.273" height="59.821" fill="none"/></clipPath><clipPath id="u"><rect width="21.006" height="23.621" fill="none"/></clipPath><clipPath id="v"><rect width="7.701" height="7.263" fill="none"/></clipPath><clipPath id="w"><rect width="7.983" height="4.401" fill="none"/></clipPath><clipPath id="x"><rect width="26.582" height="18.384" fill="none"/></clipPath><clipPath id="y"><rect width="38.671" height="34.925" fill="none"/></clipPath><clipPath id="z"><rect width="10.009" height="5.328" fill="none"/></clipPath><clipPath id="aa"><rect width="38.547" height="29.014" fill="none"/></clipPath><clipPath id="ab"><rect width="8.359" height="26.449" fill="none"/></clipPath><clipPath id="ac"><rect width="11.147" height="8.203" fill="none"/></clipPath><clipPath id="ad"><rect width="39.919" height="34.224" fill="none"/></clipPath><clipPath id="ae"><rect width="43.757" height="30.127" fill="none"/></clipPath><clipPath id="af"><rect width="17.434" height="25.949" fill="none"/></clipPath><clipPath id="ah"><path d="M723.182,270.044a52.956,52.956,0,1,0,52.956-52.955,52.957,52.957,0,0,0-52.956,52.955" transform="translate(-723.182 -217.089)" fill="none"/></clipPath><clipPath id="ai"><rect width="22.7" height="38.624" fill="none"/></clipPath><clipPath id="aj"><rect width="36.447" height="12.26" fill="none"/></clipPath><clipPath id="ak"><rect width="21.044" height="48.536" fill="none"/></clipPath><clipPath id="al"><rect width="8.179" height="49.848" fill="none"/></clipPath><clipPath id="am"><rect width="0.022" height="0.23" fill="none"/></clipPath><clipPath id="an"><rect width="20.321" height="51.694" fill="none"/></clipPath><clipPath id="ao"><rect width="41.416" height="40.13" fill="none"/></clipPath><clipPath id="ap"><rect width="18.376" height="6.144" fill="none"/></clipPath><clipPath id="aq"><rect width="13.356" height="20.587" fill="none"/></clipPath><clipPath id="ar"><rect width="48.595" height="40.515" fill="none"/></clipPath><clipPath id="as"><rect width="35.007" height="28.929" fill="none"/></clipPath><clipPath id="at"><rect width="26.428" height="26.909" fill="none"/></clipPath><clipPath id="av"><rect width="50.33" height="50.33" fill="none"/></clipPath><clipPath id="aw"><rect width="36.349" height="36.349" fill="none"/></clipPath></defs><g clip-path="url(#a)"><path d="M172.339,364.622h-17V340.215H122.383v-17h49.955Z" transform="translate(-20.539 -55.671)" fill="#0081ff"/><g clip-path="url(#b)"><path d="M167.271,386.063l-8.725-16.827a3.714,3.714,0,0,1,3.3-5.424H178.67a3.714,3.714,0,0,1,3.347,5.326l-8.1,16.827a3.714,3.714,0,0,1-6.644.1" transform="translate(-26.538 -61.058)" fill="#0081ff"/><path d="M632.457,339.377h-.032l-27.4-20.416-27.437,20.416h-.032a105.294,105.294,0,0,0-105.258-105.29h-.128l-20.352-27.372,18.91-25.481-2.66-1.987c1.378-.032,2.756-.064,4.135-.064h.1A160.159,160.159,0,0,1,632.457,339.377" transform="translate(-75.827 -30.072)" fill="#3740a5"/><path d="M446.375,234.1A105.3,105.3,0,0,0,349,299.586l-33.04,8.419-17.836-29.1a160.218,160.218,0,0,1,144.146-99.653l2.663,1.993-18.907,25.482Z" transform="translate(-50.034 -30.084)" fill="#0ccbc3"/><path d="M429.4,463.725H322.518A159.34,159.34,0,0,1,283.93,359.654v-.163a159.72,159.72,0,0,1,11.811-60.485l17.837,29.1,33.039-8.42a105.063,105.063,0,0,0-7.78,39.808v.163A105.307,105.307,0,0,0,429.4,463.725" transform="translate(-47.652 -50.182)" fill="#3740a5"/><path d="M609.826,367.566a160.162,160.162,0,0,1-160.1,160.162v.256H316.97v-.161l20.417-27.468L316.97,472.92V471.8H434.952a105.973,105.973,0,0,0,14.712,1.026h.064A105.2,105.2,0,0,0,554.922,367.566h.032L582.39,347.15l27.4,20.416Z" transform="translate(-53.197 -58.262)" fill="#0043ff"/><path d="M302.643,525.5l-20.417,27.468v.161H109.949V496.937H282.227v1.123Z" transform="translate(-18.453 -83.4)" fill="#0ccbc3"/><path d="M762.5,564.169V553.547a4.29,4.29,0,0,0-4.29-4.29H476.5V549a159.815,159.815,0,0,0,121.539-55.93H758.21a4.29,4.29,0,0,0,4.29-4.291V478.19a4.29,4.29,0,0,1,6.629-3.6l66.081,42.989a4.289,4.289,0,0,1,0,7.192l-66.081,42.989a4.29,4.29,0,0,1-6.629-3.6" transform="translate(-79.971 -79.533)" fill="#213b82"/><path d="M119.64,324.655A59.82,59.82,0,1,1,59.82,264.834a59.821,59.821,0,0,1,59.821,59.821" transform="translate(0 -44.447)" fill="#004480"/><path d="M114.16,326.039A52.956,52.956,0,1,1,61.2,273.084a52.956,52.956,0,0,1,52.956,52.955" transform="translate(-1.384 -45.831)" fill="#c4fbf8"/><path d="M120.312,390.333c.018-.064.037-.092.064-.064s0,.037-.064.064" transform="translate(-20.192 -65.496)" fill="#ffae96"/><path d="M482.349,319.476H465.062a3.092,3.092,0,0,1-3.083-3.083v-24.3a3.093,3.093,0,0,1,3.083-3.084h17.287a3.093,3.093,0,0,1,3.083,3.084v24.3a3.092,3.092,0,0,1-3.083,3.083" transform="translate(-77.533 -48.504)" fill="#433fd3"/><path d="M447.055,325.715l-12.224,12.224a3.093,3.093,0,0,1-4.361,0l-17.184-17.185a3.093,3.093,0,0,1,0-4.361L425.51,304.17a3.094,3.094,0,0,1,4.361,0l17.184,17.185a3.092,3.092,0,0,1,0,4.361" transform="translate(-69.21 -50.897)" fill="#433fd3"/><path d="M428.253,355.8v17.287a3.092,3.092,0,0,1-3.083,3.083h-24.3a3.093,3.093,0,0,1-3.084-3.083V355.8a3.093,3.093,0,0,1,3.084-3.083h24.3a3.092,3.092,0,0,1,3.083,3.083" transform="translate(-66.759 -59.197)" fill="#433fd3"/><path d="M434.491,388.655l12.224,12.224a3.093,3.093,0,0,1,0,4.361L429.53,422.423a3.093,3.093,0,0,1-4.361,0L412.946,410.2a3.091,3.091,0,0,1,0-4.361l17.184-17.184a3.093,3.093,0,0,1,4.361,0" transform="translate(-69.153 -65.076)" fill="#433fd3"/><path d="M464.581,408.486h17.287a3.092,3.092,0,0,1,3.083,3.083v24.3a3.093,3.093,0,0,1-3.083,3.084H464.581a3.093,3.093,0,0,1-3.083-3.084v-24.3a3.092,3.092,0,0,1,3.083-3.083" transform="translate(-77.453 -68.556)" fill="#433fd3"/><path d="M497.431,401.219,509.654,389a3.092,3.092,0,0,1,4.361,0L531.2,406.181a3.092,3.092,0,0,1,0,4.361l-12.224,12.223a3.093,3.093,0,0,1-4.361,0L497.431,405.58a3.092,3.092,0,0,1,0-4.361" transform="translate(-83.332 -65.134)" fill="#433fd3"/><path d="M517.262,373.573V356.286a3.092,3.092,0,0,1,3.083-3.083h24.3a3.093,3.093,0,0,1,3.084,3.083v17.287a3.093,3.093,0,0,1-3.084,3.083h-24.3a3.092,3.092,0,0,1-3.083-3.083" transform="translate(-86.811 -59.278)" fill="#433fd3"/><path d="M509.994,338.279l-12.224-12.224a3.092,3.092,0,0,1,0-4.361l17.185-17.184a3.092,3.092,0,0,1,4.361,0l12.224,12.223a3.093,3.093,0,0,1,0,4.361l-17.185,17.184a3.092,3.092,0,0,1-4.361,0" transform="translate(-83.389 -50.955)" fill="#433fd3"/><path d="M514.478,345.535a49.67,49.67,0,0,0-5.993-14.284,50.04,50.04,0,0,0-54.215-22.319,49.482,49.482,0,0,0-13.987,5.749A50,50,0,0,0,417.329,368.6a49.382,49.382,0,0,0,5.735,14.338,50.226,50.226,0,0,0,16.367,16.8A49.912,49.912,0,0,0,466,407.379a49.854,49.854,0,0,0,48.575-38.389,50.314,50.314,0,0,0-.095-23.456m-35.251,11.931A13.229,13.229,0,1,1,466,344.237a13.222,13.222,0,0,1,13.229,13.229" transform="translate(-69.831 -51.616)" fill="#433fd3"/><path d="M508.644,346.951a42.168,42.168,0,0,0-3.869-9.157A42.847,42.847,0,0,0,488.1,321.3a42.024,42.024,0,0,0-8.954-3.693,42.9,42.9,0,0,0-49.022,20.074,42.842,42.842,0,0,0-.487,41.514,42.954,42.954,0,0,0,16.327,16.841,41.753,41.753,0,0,0,9.333,4,42.846,42.846,0,0,0,32.965-3.652,43.131,43.131,0,0,0,16.611-16.557,42.878,42.878,0,0,0,5.452-20.953,42.867,42.867,0,0,0-1.678-11.931m-28,11.931a13.229,13.229,0,1,1-13.229-13.229,13.222,13.222,0,0,1,13.229,13.229" transform="translate(-71.247 -53.032)" fill="#201bb4"/><path d="M504.58,349.152a36.888,36.888,0,0,0-3.246-7.657,37.8,37.8,0,0,0-14.744-14.609,36.823,36.823,0,0,0-7.941-3.233,37.831,37.831,0,0,0-28.419,3.287,37.937,37.937,0,0,0-14.474,14.284h-.013a36.869,36.869,0,0,0-3.382,7.9,37.748,37.748,0,0,0-.27,20.683,36.835,36.835,0,0,0,3.071,7.764,37.69,37.69,0,0,0,69.419-28.419m-36.116,24.01a13.229,13.229,0,1,1,13.229-13.229,13.231,13.231,0,0,1-13.229,13.229" transform="translate(-72.297 -54.082)" fill="#8e8af3"/><path d="M471.819,342.24a21.048,21.048,0,1,0,21.048,21.048,21.054,21.054,0,0,0-21.048-21.048m0,34.277a13.229,13.229,0,1,1,13.229-13.229,13.231,13.231,0,0,1-13.229,13.229" transform="translate(-75.652 -57.438)" fill="#201bb4"/><path d="M1003.819,528.405v62.967l-33.046-16.246L948.5,564.17V503.016l11.471,5.262Z" transform="translate(-159.185 -84.42)" fill="#ffb86c"/><path d="M1070.295,503.013v61.15l-55.32,27.207V528.406Z" transform="translate(-170.342 -84.42)" fill="#ff965e"/><path d="M1059.138,497.581l-55.32-25.393v0l0,0L948.5,497.581l55.319,25.652,0,0v0Z" transform="translate(-159.185 -79.247)" fill="#971b07"/><path d="M999.985,467.462l-19.007-23.448L925.657,469.4l19.007,23.448Z" transform="translate(-155.352 -74.518)" fill="#ff965e"/><path d="M1014.975,522.729l25.047-27.889,55.319-25.652-25.047,27.889Z" transform="translate(-170.342 -78.743)" fill="#ff6c4c"/><g transform="translate(789.31 418.595)" opacity="0.42"><g clip-path="url(#c)"><path d="M970.773,575.127,948.495,564.17V503.015l11.471,5.263Z" transform="translate(-948.495 -503.015)" fill="#ffe8d0"/></g></g><path d="M48.592,423.6H44.705v10.573H42.09V423.6H38.255v-2.118H48.592Z" transform="translate(-6.42 -70.737)" fill="#004480"/><path d="M58.16,431.559H53.575l-.871,2.615h-2.78l4.724-12.691h2.423l4.75,12.691H59.04Zm-3.879-2.118h3.173l-1.6-4.75Z" transform="translate(-8.379 -70.737)" fill="#004480"/><path d="M70.343,429.528H68.26v4.646H65.645V421.483H70.36a5.331,5.331,0,0,1,3.469,1,3.461,3.461,0,0,1,1.22,2.833,3.907,3.907,0,0,1-.562,2.166,3.835,3.835,0,0,1-1.7,1.381l2.745,5.186v.122H72.723ZM68.26,427.41h2.11a2.154,2.154,0,0,0,1.525-.5,1.789,1.789,0,0,0,.54-1.381,1.916,1.916,0,0,0-.51-1.411,2.118,2.118,0,0,0-1.564-.514h-2.1Z" transform="translate(-11.017 -70.737)" fill="#004480"/><path d="M86.97,428.657h-5.02v3.416h5.892v2.1H79.334V421.483h8.489V423.6H81.949v3.025h5.02Z" transform="translate(-13.315 -70.737)" fill="#004480"/><path d="M98.349,431.559H93.764l-.871,2.615h-2.78l4.724-12.691H97.26l4.75,12.691h-2.78Zm-3.879-2.118h3.173l-1.6-4.75Z" transform="translate(-15.123 -70.737)" fill="#004480"/><path d="M112.307,430.809a1.342,1.342,0,0,0-.523-1.138,6.838,6.838,0,0,0-1.883-.836,13.3,13.3,0,0,1-2.153-.868,3.517,3.517,0,0,1-2.162-3.146,3.063,3.063,0,0,1,.58-1.834,3.77,3.77,0,0,1,1.665-1.26,6.265,6.265,0,0,1,2.436-.454,5.7,5.7,0,0,1,2.423.493,3.85,3.85,0,0,1,1.652,1.391,3.637,3.637,0,0,1,.588,2.04h-2.615a1.712,1.712,0,0,0-.549-1.356,2.256,2.256,0,0,0-1.543-.484,2.414,2.414,0,0,0-1.49.4,1.279,1.279,0,0,0-.532,1.068,1.223,1.223,0,0,0,.622,1.038,7.079,7.079,0,0,0,1.836.785,7.921,7.921,0,0,1,3.25,1.664,3.316,3.316,0,0,1,1.02,2.476,3.056,3.056,0,0,1-1.247,2.585,5.461,5.461,0,0,1-3.355.937,6.475,6.475,0,0,1-2.668-.537,4.225,4.225,0,0,1-1.835-1.468,3.765,3.765,0,0,1-.632-2.162h2.624q0,2.1,2.511,2.1a2.44,2.44,0,0,0,1.455-.38,1.231,1.231,0,0,0,.523-1.059" transform="translate(-17.655 -70.702)" fill="#004480"/><path d="M218.634,165.77H216.02v-5.439h-5.1v5.439h-2.615V153.08h2.615v5.143h5.1V153.08h2.615Z" transform="translate(-34.96 -25.691)" fill="#004480"/><rect width="2.616" height="12.691" transform="translate(186.123 127.389)" fill="#004480"/><path d="M236.189,162.406a1.341,1.341,0,0,0-.523-1.138,6.835,6.835,0,0,0-1.883-.836,13.3,13.3,0,0,1-2.153-.868,3.517,3.517,0,0,1-2.162-3.146,3.063,3.063,0,0,1,.58-1.834,3.77,3.77,0,0,1,1.665-1.26,6.265,6.265,0,0,1,2.436-.454,5.7,5.7,0,0,1,2.423.493,3.85,3.85,0,0,1,1.652,1.391,3.637,3.637,0,0,1,.588,2.04H236.2a1.712,1.712,0,0,0-.549-1.356,2.256,2.256,0,0,0-1.543-.483,2.414,2.414,0,0,0-1.49.4,1.279,1.279,0,0,0-.532,1.068,1.223,1.223,0,0,0,.622,1.038,7.078,7.078,0,0,0,1.836.785,7.921,7.921,0,0,1,3.25,1.664,3.316,3.316,0,0,1,1.02,2.476,3.056,3.056,0,0,1-1.247,2.585,5.461,5.461,0,0,1-3.355.937,6.475,6.475,0,0,1-2.668-.537,4.224,4.224,0,0,1-1.835-1.468,3.764,3.764,0,0,1-.632-2.162H231.7q0,2.1,2.511,2.1a2.44,2.44,0,0,0,1.455-.38,1.231,1.231,0,0,0,.523-1.059" transform="translate(-38.446 -25.656)" fill="#004480"/><path d="M252.3,155.2H248.41V165.77h-2.616V155.2h-3.835V153.08H252.3Z" transform="translate(-40.608 -25.691)" fill="#004480"/><path d="M266.226,159.677a7.67,7.67,0,0,1-.662,3.286,4.99,4.99,0,0,1-1.9,2.179,5.6,5.6,0,0,1-5.644.008,5.04,5.04,0,0,1-1.918-2.166,7.451,7.451,0,0,1-.688-3.238v-.627a7.62,7.62,0,0,1,.676-3.3A5.018,5.018,0,0,1,258,153.633a5.591,5.591,0,0,1,5.64,0,5.034,5.034,0,0,1,1.909,2.188,7.6,7.6,0,0,1,.675,3.29Zm-2.65-.575a5.35,5.35,0,0,0-.715-3.034,2.525,2.525,0,0,0-4.07-.012,5.277,5.277,0,0,0-.724,3v.619a5.412,5.412,0,0,0,.715,3.016,2.5,2.5,0,0,0,4.079.039,5.372,5.372,0,0,0,.715-3.012Z" transform="translate(-42.866 -25.656)" fill="#004480"/><path d="M275.388,161.125H273.3v4.646H270.69V153.08h4.715a5.331,5.331,0,0,1,3.469,1,3.461,3.461,0,0,1,1.22,2.833,3.907,3.907,0,0,1-.562,2.166,3.836,3.836,0,0,1-1.7,1.381l2.745,5.186v.122h-2.806Zm-2.083-2.118h2.11a2.154,2.154,0,0,0,1.525-.5,1.789,1.789,0,0,0,.54-1.381,1.916,1.916,0,0,0-.51-1.411,2.118,2.118,0,0,0-1.564-.514h-2.1Z" transform="translate(-45.43 -25.691)" fill="#004480"/><rect width="2.616" height="12.691" transform="translate(236.818 127.389)" fill="#004480"/><path d="M297.77,163.155h-4.585l-.871,2.615h-2.78l4.724-12.691h2.423l4.75,12.691h-2.78Zm-3.879-2.118h3.173l-1.6-4.75Z" transform="translate(-48.592 -25.691)" fill="#004480"/><path d="M311.728,162.406a1.341,1.341,0,0,0-.523-1.138,6.836,6.836,0,0,0-1.883-.836,13.3,13.3,0,0,1-2.153-.868,3.517,3.517,0,0,1-2.162-3.146,3.064,3.064,0,0,1,.58-1.834,3.771,3.771,0,0,1,1.665-1.26,6.266,6.266,0,0,1,2.436-.454,5.7,5.7,0,0,1,2.423.493,3.85,3.85,0,0,1,1.652,1.391,3.637,3.637,0,0,1,.588,2.04h-2.615a1.713,1.713,0,0,0-.549-1.356,2.256,2.256,0,0,0-1.543-.483,2.414,2.414,0,0,0-1.49.4,1.279,1.279,0,0,0-.532,1.068,1.223,1.223,0,0,0,.622,1.038,7.078,7.078,0,0,0,1.836.785,7.921,7.921,0,0,1,3.25,1.664,3.316,3.316,0,0,1,1.02,2.476,3.056,3.056,0,0,1-1.247,2.585,5.461,5.461,0,0,1-3.355.937,6.475,6.475,0,0,1-2.668-.537,4.224,4.224,0,0,1-1.835-1.468,3.765,3.765,0,0,1-.632-2.162h2.624q0,2.1,2.511,2.1a2.44,2.44,0,0,0,1.455-.38,1.231,1.231,0,0,0,.523-1.059" transform="translate(-51.123 -25.656)" fill="#004480"/><path d="M205.179,191.512V178.821h3.9a5.938,5.938,0,0,1,2.994.753,5.26,5.26,0,0,1,2.062,2.145,6.619,6.619,0,0,1,.741,3.16v.584a6.62,6.62,0,0,1-.728,3.146,5.208,5.208,0,0,1-2.053,2.135,5.97,5.97,0,0,1-2.989.767Zm2.616-10.573v8.472h1.263a2.843,2.843,0,0,0,2.345-1,4.54,4.54,0,0,0,.828-2.868v-.671a4.606,4.606,0,0,0-.8-2.933,2.83,2.83,0,0,0-2.345-1Z" transform="translate(-34.435 -30.011)" fill="#004480"/><path d="M226.756,185.995h-5.02v3.416h5.892v2.1h-8.506V178.821h8.489v2.118h-5.874v3.025h5.02Z" transform="translate(-36.775 -30.011)" fill="#004480"/><path d="M246.109,178.821v8.358a4.281,4.281,0,0,1-1.3,3.3,5.022,5.022,0,0,1-3.561,1.212,5.083,5.083,0,0,1-3.53-1.177,4.209,4.209,0,0,1-1.333-3.235v-8.454H239V187.2a2.42,2.42,0,0,0,.6,1.817,2.291,2.291,0,0,0,1.652.572q2.206,0,2.24-2.319v-8.446Z" transform="translate(-39.672 -30.011)" fill="#004480"/><path d="M257.121,188.147a1.341,1.341,0,0,0-.523-1.138,6.834,6.834,0,0,0-1.883-.836,13.3,13.3,0,0,1-2.153-.868,3.517,3.517,0,0,1-2.162-3.146,3.063,3.063,0,0,1,.58-1.834,3.771,3.771,0,0,1,1.665-1.26,6.265,6.265,0,0,1,2.436-.454,5.7,5.7,0,0,1,2.423.493,3.85,3.85,0,0,1,1.652,1.391,3.638,3.638,0,0,1,.588,2.04H257.13a1.712,1.712,0,0,0-.549-1.356,2.256,2.256,0,0,0-1.543-.484,2.414,2.414,0,0,0-1.49.4,1.279,1.279,0,0,0-.532,1.068,1.223,1.223,0,0,0,.622,1.038,7.079,7.079,0,0,0,1.836.785,7.921,7.921,0,0,1,3.25,1.664,3.316,3.316,0,0,1,1.02,2.476,3.056,3.056,0,0,1-1.247,2.585,5.461,5.461,0,0,1-3.355.937,6.475,6.475,0,0,1-2.668-.537,4.225,4.225,0,0,1-1.835-1.468,3.764,3.764,0,0,1-.632-2.162h2.624q0,2.1,2.511,2.1a2.44,2.44,0,0,0,1.455-.38,1.231,1.231,0,0,0,.523-1.059" transform="translate(-41.959 -29.976)" fill="#004480"/><path d="M273.415,178.821v8.358a4.281,4.281,0,0,1-1.3,3.3,5.022,5.022,0,0,1-3.561,1.212,5.083,5.083,0,0,1-3.53-1.177,4.209,4.209,0,0,1-1.333-3.235v-8.454H266.3V187.2a2.42,2.42,0,0,0,.6,1.817,2.291,2.291,0,0,0,1.652.572q2.206,0,2.24-2.319v-8.446Z" transform="translate(-44.254 -30.011)" fill="#004480"/><path d="M284.672,188.9h-4.585l-.871,2.615h-2.78l4.724-12.691h2.423l4.75,12.691h-2.78Zm-3.879-2.118h3.173l-1.6-4.75Z" transform="translate(-46.394 -30.011)" fill="#004480"/><path d="M296.854,186.866h-2.083v4.646h-2.615V178.821h4.715a5.331,5.331,0,0,1,3.469,1,3.461,3.461,0,0,1,1.22,2.833,3.907,3.907,0,0,1-.562,2.166,3.835,3.835,0,0,1-1.7,1.381l2.745,5.186v.122h-2.806Zm-2.083-2.118h2.11a2.154,2.154,0,0,0,1.525-.5,1.789,1.789,0,0,0,.54-1.381,1.916,1.916,0,0,0-.51-1.411,2.118,2.118,0,0,0-1.564-.514h-2.1Z" transform="translate(-49.032 -30.011)" fill="#004480"/><rect width="2.616" height="12.691" transform="translate(254.682 148.81)" fill="#004480"/><path d="M322.446,185.418a7.671,7.671,0,0,1-.662,3.286,4.99,4.99,0,0,1-1.9,2.179,5.6,5.6,0,0,1-5.644.008,5.04,5.04,0,0,1-1.918-2.166,7.45,7.45,0,0,1-.688-3.238v-.627a7.62,7.62,0,0,1,.676-3.3,5.018,5.018,0,0,1,1.909-2.188,5.591,5.591,0,0,1,5.64,0,5.033,5.033,0,0,1,1.909,2.188,7.6,7.6,0,0,1,.675,3.29Zm-2.65-.575a5.349,5.349,0,0,0-.715-3.034,2.525,2.525,0,0,0-4.07-.013,5.277,5.277,0,0,0-.724,3v.619a5.412,5.412,0,0,0,.715,3.016,2.5,2.5,0,0,0,4.079.039,5.371,5.371,0,0,0,.715-3.012Z" transform="translate(-52.302 -29.976)" fill="#004480"/><path d="M760.123,371.871H755.1v3.417H761v2.1h-8.507V364.7h8.49v2.118H755.1v3.025h5.02Zm-2.728-10.6h2.745l-2.414,2.7h-2.048Z" transform="translate(-126.289 -60.632)" fill="#004480"/><path d="M767.169,373.608v4.471h-2.615V365.389H769.5a5.731,5.731,0,0,1,2.515.523,3.854,3.854,0,0,1,1.668,1.486,4.142,4.142,0,0,1,.585,2.192A3.643,3.643,0,0,1,773,372.532a5.32,5.32,0,0,1-3.534,1.077Zm0-2.118H769.5a2.3,2.3,0,0,0,1.582-.489,1.774,1.774,0,0,0,.545-1.395,2.093,2.093,0,0,0-.549-1.508,2.052,2.052,0,0,0-1.517-.593h-2.4Z" transform="translate(-128.314 -61.323)" fill="#004480"/><rect width="2.616" height="12.691" transform="translate(647.919 304.065)" fill="#004480"/><path d="M794.528,373.816a4.494,4.494,0,0,1-1.512,3.225,5.314,5.314,0,0,1-3.6,1.177,4.772,4.772,0,0,1-3.839-1.644,6.731,6.731,0,0,1-1.4-4.51v-.776a7.617,7.617,0,0,1,.645-3.226,4.838,4.838,0,0,1,1.844-2.139,5.76,5.76,0,0,1,6.324.431,4.825,4.825,0,0,1,1.551,3.3h-2.615a2.654,2.654,0,0,0-.684-1.782,2.536,2.536,0,0,0-1.792-.553,2.221,2.221,0,0,0-1.956.937,5.243,5.243,0,0,0-.667,2.907v.959a5.627,5.627,0,0,0,.623,3.008,2.182,2.182,0,0,0,1.966.95,2.585,2.585,0,0,0,1.809-.553,2.5,2.5,0,0,0,.684-1.713Z" transform="translate(-131.608 -61.287)" fill="#004480"/><path d="M805.628,375.464h-4.585l-.871,2.615h-2.78l4.724-12.691h2.423l4.75,12.691h-2.78Zm-3.879-2.118h3.173l-1.6-4.75Z" transform="translate(-133.825 -61.323)" fill="#004480"/><path d="M819.586,374.715a1.342,1.342,0,0,0-.523-1.138,6.836,6.836,0,0,0-1.883-.836,13.292,13.292,0,0,1-2.153-.868,3.517,3.517,0,0,1-2.162-3.146,3.063,3.063,0,0,1,.58-1.834,3.77,3.77,0,0,1,1.665-1.26,6.266,6.266,0,0,1,2.436-.454,5.7,5.7,0,0,1,2.423.493,3.849,3.849,0,0,1,1.652,1.391,3.637,3.637,0,0,1,.588,2.04h-2.615a1.712,1.712,0,0,0-.549-1.356,2.255,2.255,0,0,0-1.543-.483,2.414,2.414,0,0,0-1.49.4,1.279,1.279,0,0,0-.532,1.068,1.223,1.223,0,0,0,.623,1.038,7.076,7.076,0,0,0,1.836.785,7.921,7.921,0,0,1,3.25,1.664,3.317,3.317,0,0,1,1.02,2.476,3.056,3.056,0,0,1-1.247,2.585,5.461,5.461,0,0,1-3.355.937,6.476,6.476,0,0,1-2.668-.537,4.224,4.224,0,0,1-1.835-1.468,3.764,3.764,0,0,1-.632-2.162H815.1q0,2.1,2.511,2.1a2.44,2.44,0,0,0,1.455-.38,1.231,1.231,0,0,0,.523-1.059" transform="translate(-136.356 -61.288)" fill="#004480"/><path d="M-.286.479-.42.271.42-.271l.134.208Z" transform="translate(247.956 248.616)"/><path d="M368.221,99.737h-17V76.022H319.138v-17h49.082Z" transform="translate(-53.561 -11.332)" fill="#0081ff"/><path d="M363.081,120.727l-8.541-16.473a3.636,3.636,0,0,1,3.228-5.31h16.473a3.636,3.636,0,0,1,3.276,5.214l-7.931,16.473a3.636,3.636,0,0,1-6.5.1" transform="translate(-59.433 -16.606)" fill="#0081ff"/><path d="M307.086,59.821A59.82,59.82,0,1,1,247.266,0a59.821,59.821,0,0,1,59.821,59.821" transform="translate(-31.459)" fill="#213b82"/><path d="M301.606,61.205A52.956,52.956,0,1,1,248.65,8.249a52.956,52.956,0,0,1,52.956,52.956" transform="translate(-32.843 -1.384)" fill="#c4fbf8"/></g><g transform="translate(162.851 6.865)"><g clip-path="url(#d)"><path d="M272.173,51.681c-.106,4.4-.406,7.162-.918,7.877-.755,1.072-2.127-1.217-2.127-1.217a6.216,6.216,0,0,0-.885,2.452,30.572,30.572,0,0,0-.487,6.829c.154,7.463,1.981,8.372,1.372,14a13.472,13.472,0,0,1-3.176,7.178,31.879,31.879,0,0,1-6.106,5.449c-4.409,3.2-15.518,2.891-21.608,1.981a36.189,36.189,0,0,1-10.467-3.784l-.682-.365c-1.113-.609-1.778-1.024-1.778-1.024s-4.872-5.782-2.135-14.909,3.354-9.281,3.2-19.627-.454-14.308,1.372-18.263a9.471,9.471,0,0,1,5.173-5.019,14.909,14.909,0,0,0-4.872-.454c-1.981.3.154-3.045,1.673-3.2a4.745,4.745,0,0,1,3.045,1.218s-1.526-2.891.154-4.564,2.128,0,2.282,1.981.91,1.973.91,1.973,0-6.545,13.545-7.909c6.448-.658,11.839,2.249,15.713,6.431.211.227.422.463.625.7,3.881,4.49,6.106,10.232,6.18,14.625.049,2.915.049,5.481,0,7.641" transform="translate(-200.166 -10.589)" fill="#0093cb"/><g transform="translate(26.668 22.902)" opacity="0.36"><g clip-path="url(#e)"><path d="M269.473,53.83a60.665,60.665,0,0,1-1.56,8.973c-.284,1.307-.56,2.6-.771,3.808a108.8,108.8,0,0,0-.714,22.234s.219.893.43,2.233a31.9,31.9,0,0,1-6.106,5.449c-4.41,3.2-15.518,2.891-21.608,1.981a36.2,36.2,0,0,1-10.468-3.784,17.159,17.159,0,0,1-.917-7.1c.195-7.105,2.436-9.647,5.173-18.985a33.821,33.821,0,0,0,.511-17.15s5.879,1.624,9.745-3.151a13.148,13.148,0,0,0,2.436-10.557s2.437,2.647,4.361,1.932c1.851-.69.422-3.711.308-3.946a89.011,89.011,0,0,0,6.895,7.292c4.369,4.166,11.759,6.537,11.759,6.537s.731.365.528,4.231" transform="translate(-227.74 -35.77)" fill="#003d7b"/></g></g><g transform="translate(22.174 11.604)" opacity="0.36"><g clip-path="url(#f)"><path d="M265.993,29.415h-.162c-9.038-6.594-22.543-2.225-24.873-.195a35.571,35.571,0,0,1-3.76,2.939,22.994,22.994,0,0,0-5.685,5.482c-2.842,3.76-3.548,11.068-3.548,19.083s-2.331,15.323-3.248,23.143,2.436,12.18,2.436,12.18a.4.4,0,0,0-.065.032c-1.113-.609-1.778-1.023-1.778-1.023s-4.872-5.782-2.135-14.909,3.354-9.282,3.2-19.627-.454-14.308,1.372-18.263a9.467,9.467,0,0,1,5.173-5.019,14.912,14.912,0,0,0-4.872-.454c-1.981.3.155-3.046,1.673-3.2a4.747,4.747,0,0,1,3.045,1.218s-1.527-2.891.154-4.564,2.128,0,2.282,1.981.91,1.973.91,1.973,0-6.545,13.545-7.91c6.8-.69,12.424,2.582,16.338,7.13" transform="translate(-222.34 -22.193)" fill="#003d7b"/></g></g><g transform="translate(64.95 18.079)" opacity="0.34"><g clip-path="url(#g)"><path d="M280.8,52.987c-.2-1.795-.609-5.327-.869-7.26-.357-2.655-1.908-10-6.188-15.753,0,0,.09.016.252.048.211.227.422.463.625.7,3.881,4.49,6.107,10.232,6.18,14.625.049,2.915.049,5.481,0,7.641" transform="translate(-273.743 -29.974)" fill="#fff"/></g></g><path d="M285.383,140.305l-.089.024c-1.925.464-5.335,2.891-7.852-2.582s-2.956-17.5-5.92-27.081-2.809-15.672-1.778-18.409,5.18-2.135,5.18-2.135a16.368,16.368,0,0,1,5.336,3.954,11.941,11.941,0,0,1,1.649,2.347,28.96,28.96,0,0,1,2.639,9.371c.593,4.109,3.265,22.973,4.3,26.781,1.023,3.744-1.543,7.195-3.459,7.731" transform="translate(-208.009 -21.98)" fill="#5681ff"/><g transform="translate(61.061 68.083)" opacity="0.5"><g clip-path="url(#h)"><path d="M285.383,140.305l-.089.024c-1.925.464-5.335,2.891-7.852-2.582s-2.956-17.5-5.92-27.081-2.809-15.672-1.778-18.409,5.18-2.135,5.18-2.135a16.368,16.368,0,0,1,5.336,3.954,11.941,11.941,0,0,1,1.649,2.347,8.6,8.6,0,0,1-4.077,2.347s4.06,8.526,4.06,11.677-1.932,5.782-2.338,8.219.812,12.993,2.135,17.361a6.778,6.778,0,0,0,3.695,4.28" transform="translate(-269.069 -90.063)" fill="#0f2c7d"/></g></g><path d="M271.356,114c-1.063,2.128-.763,6.691-.918,11.255-.089,2.842-1.128,4.272-3.881,5.2a39.59,39.59,0,0,1-7.073,1.348c-4.678.609-11.182.032-15.916-.577-3.582-.463-6.147-.942-6.147-.942a29.436,29.436,0,0,0-.3-11.109c-1.372-5.327-5.482-15.063-5.936-18.864s.454-7.308,2.591-8.372,5.472-3.045,5.472-3.045.918.609,3.955-.756,13.236-1.981,15.826-1.68a21.116,21.116,0,0,1,3.744,1.007c2.639.885,5.383,2.038,5.383,2.038s.309,1.827.764,4.263a10.9,10.9,0,0,0,1.1,2.932,43.158,43.158,0,0,1,2.7,6.349c1.827,5.473-.3,8.827-1.364,10.955" transform="translate(-201.631 -21.362)" fill="#5681ff"/><g transform="translate(64.856 75.336)" opacity="0.41"><g clip-path="url(#i)"><path d="M278.5,116.083c-1.064,2.128-.763,6.691-.918,11.255-.089,2.842-1.128,4.272-3.881,5.2-.171-2.688.024-6.31.024-7.941a27.068,27.068,0,0,1,3.386-11.637c1.836-3.1,1.819-8.648.057-14.178a43.168,43.168,0,0,1,2.7,6.349c1.827,5.473-.3,8.827-1.364,10.955" transform="translate(-273.63 -98.778)" fill="#bfceff"/></g></g><g transform="translate(29.439 65.021)" opacity="0.5"><g clip-path="url(#j)"><path d="M262.772,87.465a4.556,4.556,0,0,1-.251.739c-1.316,5.384-1.933,8.729-3.558,10.662s-4.872-.106-4.872-.106a9.806,9.806,0,0,1-2.843,2.948c-1.413.707-9.939-6.2-9.939-6.2s3.549,6.7,3.549,18.271a125.683,125.683,0,0,1-1.292,17.442c-3.581-.463-6.147-.942-6.147-.942a29.436,29.436,0,0,0-.3-11.109c-1.372-5.327-5.482-15.063-5.936-18.864s.454-7.308,2.591-8.372,5.473-3.046,5.473-3.046.917.609,3.954-.755,13.236-1.981,15.827-1.681a21.182,21.182,0,0,1,3.743,1.007" transform="translate(-231.07 -86.383)" fill="#0f2c7d"/></g></g><path d="M252.6,96.8a32.772,32.772,0,0,1,7.76,10.346c2.586,5.933-.761,26.931-.761,26.931l2.435-.152a66.536,66.536,0,0,0,2.434-20.388,42.047,42.047,0,0,0-4.869-17.5,12.148,12.148,0,0,0-3.5-.609,18.315,18.315,0,0,0-3.5,1.37" transform="translate(-205.244 -22.878)" fill="#b5c6ff"/><path d="M262.774,87.073s-1.019-1.343-7.128-2.193a27.586,27.586,0,0,0-11.892.823c-1.673.457-5.02,3.348-4.868,3.8s5.325,3.8,7.911,6.239,4.564,1.217,5.174.456,1.673-1.826,1.673-1.826,2.434,1.674,4.108,1.521,5.021-8.824,5.021-8.824" transform="translate(-202.942 -21.061)" fill="#b5c6ff"/><path d="M265.706,99.11s-6.366,22.364-14.365,24.954-19.587-9.111-24.914-14.438-3.7-11.255-.593-14.3,7.535-1.194,9.614,1.242c0,0,4.645,9.387,9.826,12.578,4.173,2.574,10.361-8.673,12.611-13.139.544-1.088.861-1.77.861-1.77A9.158,9.158,0,0,1,262.6,95c2.371.91,3.11,4.109,3.11,4.109" transform="translate(-200.269 -22.596)" fill="#5681ff"/><g transform="translate(22.687 71.142)" opacity="0.5"><g clip-path="url(#k)"><path d="M265.706,99.11s-6.366,22.364-14.365,24.954-19.587-9.111-24.914-14.438-3.7-11.255-.593-14.3,7.535-1.194,9.614,1.242c-4.644-2.152-7.682,2.915-6.269,5.968,1.43,3.037,11.88,13.187,15.429,15.932s5.278,1.722,6.5.812,9.955-16.549,10.662-17.865-2.03-1.014-3.142-3.451a12.9,12.9,0,0,1-.739-1.957c.544-1.088.861-1.77.861-1.77A9.158,9.158,0,0,1,262.6,95c2.371.91,3.11,4.109,3.11,4.109" transform="translate(-222.956 -93.738)" fill="#0f2c7d"/></g></g><path d="M279.132,69.594a15.338,15.338,0,0,1-.553,4.086c-.4,1.384-.994,2.254-1.644,2.246a.784.784,0,0,1-.195-.027l-.072-.025c-1.043-.4-1.822-3.092-1.783-6.332.042-3.515,1.027-6.354,2.2-6.34a.837.837,0,0,1,.541.226c.9.726,1.537,3.218,1.5,6.166" transform="translate(-208.984 -17.472)" fill="#7ab2ff"/><path d="M285.7,77.761l-5.584,15.225-.971.369-2.869-1.1,2.333-16.351.178-1.273Z" transform="translate(-209.217 -19.39)" fill="#7ab2ff"/><g transform="translate(67.056 56.515)" opacity="0.51"><g clip-path="url(#l)"><path d="M283.833,77.7l-4.691,15.909-2.869-1.1,2.333-16.352Z" transform="translate(-276.273 -76.162)" fill="#5d57da"/></g></g><path d="M291.321,76.192a13.56,13.56,0,0,0,1.1,3.221l-1.99-.609-5.543-1.691a24.1,24.1,0,0,1-.629-3.012c-.06-.447-.119-.9-.162-1.374a36.106,36.106,0,0,1,.094-7.795,24.9,24.9,0,0,1,.889-4.351l5.582-1.573,2.021-.569A13.66,13.66,0,0,0,291.5,61.65a25.286,25.286,0,0,0-.617,3.363,34.75,34.75,0,0,0-.094,7.795,27.223,27.223,0,0,0,.42,2.864c.038.179.077.35.116.521" transform="translate(-210.502 -16.672)" fill="#00acb7"/><path d="M300.27,56.325l-.193,8.581-.189,8.265-.086,3.776-.088,3.921-2.273-.686-3.674-1.124a13.533,13.533,0,0,1-1.1-3.221c-.038-.171-.077-.341-.116-.521a26.969,26.969,0,0,1-.42-2.864,34.75,34.75,0,0,1,.094-7.795,25.277,25.277,0,0,1,.617-3.363,13.654,13.654,0,0,1,1.183-3.21l3.683-1.036Z" transform="translate(-211.85 -16.318)" fill="#7ab2ff"/><path d="M283.729,77.545,277.1,75.532l-.073-.025.421-12.671.6-.171,5.867-1.651a24.9,24.9,0,0,0-.889,4.35,35.963,35.963,0,0,0-.094,7.795c.042.472.1.927.161,1.375a24.084,24.084,0,0,0,.63,3.012" transform="translate(-209.344 -17.104)" fill="#7ab2ff"/><path d="M305.554,68.693c-.082,6.853-2,12.369-4.282,12.341a2.257,2.257,0,0,1-1.708-1.133c-1.014-1.433-1.785-4.114-2.111-7.407a36.114,36.114,0,0,1,.094-7.795,20.315,20.315,0,0,1,1.651-6.282c.683-1.372,1.5-2.174,2.373-2.164,2.282.027,4.066,5.6,3.984,12.441" transform="translate(-212.744 -16.305)" fill="#7365e3"/><g transform="translate(84.542 42.11)" opacity="0.51"><g clip-path="url(#m)"><path d="M302.687,77.487c-.479,1.169-2.11,2.977-3.123,2.851-1.014-1.434-1.786-4.115-2.111-7.408a36.116,36.116,0,0,1,.094-7.795,20.315,20.315,0,0,1,1.651-6.282c2.039-.057,4.315,2.728,4.782,6.871.612,5.424-.107,8.867-1.292,11.763" transform="translate(-297.286 -58.852)" fill="#4a2ba4"/></g></g><path d="M297.287,70.3a34.529,34.529,0,0,0,.166,3.9l3.015-.621.072-2.982h.006l0-.255.009-.255h-.006V67.1l-3-.694a34.575,34.575,0,0,0-.26,3.9" transform="translate(-212.744 -18.009)" fill="#2877cf"/><path d="M299.857,70.467c-.022,1.792.445,3.25,1.042,3.257s1.1-1.44,1.121-3.231-.445-3.25-1.042-3.257-1.1,1.44-1.121,3.231" transform="translate(-213.175 -18.149)" fill="#7ab2ff"/><g transform="translate(65.9 45.56)" opacity="0.51"><g clip-path="url(#n)"><path d="M296.8,81.97l-2.225-.668L290.9,80.178l-1.991-.609-5.542-1.691-6.627-2.013-.072-.025c-1.043-.4-1.822-3.092-1.783-6.331.042-3.516,1.027-6.355,2.2-6.34l.6-.171a3.157,3.157,0,0,0-.062.4,26.366,26.366,0,0,0,.949,10.252c.062.2.094.3.094.3l4.065.918,6.949,1.57,4.658,1.047c.589,2.313,1.455,3.956,2.455,4.488" transform="translate(-274.884 -62.997)" fill="#5d57da"/></g></g><g transform="translate(69.472 42.343)" opacity="0.35"><g clip-path="url(#o)"><path d="M279.389,62.671a4.953,4.953,0,0,0,.031,3.046l13.8.505a12.512,12.512,0,0,1-.156-3.927,7.045,7.045,0,0,1,1.459-3.163Z" transform="translate(-279.177 -59.132)" fill="#fff"/></g></g><path d="M284.11,86.426a2.986,2.986,0,0,1-1.437.853,1.742,1.742,0,0,1-.041,1.5,2.166,2.166,0,0,1-1.267.722,1.272,1.272,0,0,1,.13,1.2,2.683,2.683,0,0,1-1.178.9,1.605,1.605,0,0,1-.089,1.364c-.39.642-.959.812-2.006.9s-3.224-.341-3.792,0-1.4,3.314-1.4,3.314a6.865,6.865,0,0,1-3.086.032,4.893,4.893,0,0,1-1.088-.39,5.1,5.1,0,0,1-2.1-2.558,10.075,10.075,0,0,1-.568-1.656s4.109-6.277,4.548-7.349.608-1.665,1.746-2.266a13.023,13.023,0,0,1,3.792-.771v2.184s.885.065,1.908.13h.008c1.088.065,2.322.13,2.818.13a1.481,1.481,0,0,0,1.323-.82,11.465,11.465,0,0,1,1.153.309,3.368,3.368,0,0,1,.422.162c.52.26.561,1.543.211,2.1" transform="translate(-207.524 -20.665)" fill="#ffae96"/><g transform="translate(58.656 61.563)" opacity="0.33"><g clip-path="url(#p)"><path d="M270.127,89.252a50.087,50.087,0,0,1-3.378,5.019,10,10,0,0,1-.568-1.657s4.108-6.277,4.547-7.349.609-1.665,1.746-2.266a13.028,13.028,0,0,1,3.792-.771v2.184s.885.065,1.908.13a1.526,1.526,0,0,1-.365.227,3.887,3.887,0,0,1-2.712-.325c-.488-.389-.934-.422-1.778-.13s-2.1,2.907-3.191,4.937" transform="translate(-266.18 -82.228)" fill="#ff5c5c"/></g></g><g transform="translate(62.416 63.496)" opacity="0.33"><g clip-path="url(#q)"><path d="M284.868,86.816a2.986,2.986,0,0,1-1.437.853,1.742,1.742,0,0,1-.041,1.5,2.166,2.166,0,0,1-1.267.722,1.272,1.272,0,0,1,.13,1.2,2.683,2.683,0,0,1-1.178.9,1.606,1.606,0,0,1-.089,1.364c-.39.642-.959.812-2.006.9s-3.224-.341-3.792,0-1.4,3.314-1.4,3.314a6.864,6.864,0,0,1-3.086.032,14.79,14.79,0,0,0,1.218-1.413c1.323-1.649,1.941-3.614,2.615-3.517s1.746.8,2.809.836,3.126-.065,3.062-.8-1.193-1.031-1.193-1.031,2.452-.715,2.33-1.291-1.454-.942-1.454-.942a3.855,3.855,0,0,0,1.8-.155c.487-.325,1.064-.78.714-1.258a4.492,4.492,0,0,0-1.518-.942,9.435,9.435,0,0,0,2.809-.869c.585-.447.885-.991.341-1.673a3.369,3.369,0,0,1,.422.162c.52.26.561,1.543.211,2.1" transform="translate(-270.698 -84.551)" fill="#ff5c5c"/></g></g><path d="M269.146,65.613c-1.567,3.678-6.066,5.214-9.68,5.855a.076.076,0,0,0-.04.007,30.07,30.07,0,0,1-4.962.439.39.39,0,0,1-.008.065c-.073.585-.544,4.734.008,5.749a3.612,3.612,0,0,0,2.266,1.381s-1.486,2.972-2.834,5.14c-.787,1.283-1.526,2.282-1.892,2.249-.991-.106-9.168-6.31-9.956-6.9,0,0,2.372-1.079,2.566-1.965s-.5-7.39-.885-7.487A12.645,12.645,0,0,1,238.9,66.2a11.261,11.261,0,0,1-1.973-4.133,3.476,3.476,0,0,1-3.939-.983,5.2,5.2,0,0,1-1.145-3.159,3.378,3.378,0,0,1,2.136-3.248c2.753-1.186,13.293,1.381,13.983-12.709a6.606,6.606,0,0,0,2.859,2.071c1.973.787,1.973-1.876,1.973-1.876s1.673,2.265,7.584,5.124,9.257,3.354,9.257,3.354.049.186.131.528c.43,1.941,1.729,8.908-.617,14.447" transform="translate(-201.76 -13.908)" fill="#ffae96"/><g transform="translate(30.081 28.059)" opacity="0.33"><g clip-path="url(#r)"><path d="M254.433,45.426s.812,2.135-.918,2.639-3.248-1.526-3.248-1.526.707,2.436-2.33,6.6c-3.054,4.166-8.738,3.76-8.738,3.76s1.429,8.624,7.414,12.075c4.978,2.875,10.955,2.648,12.814,2.5a.072.072,0,0,1,.041-.008c.171-.016.3-.032.389-.032a32.67,32.67,0,0,1-5.4.544,18.274,18.274,0,0,1-4.7-.463c-4.361-1.121-2.842,5.782-1.924,6.9s3.451.812,3.654,1.722-1.925.609-1.73,1.316a4.806,4.806,0,0,0,1.933,2.338,3.791,3.791,0,0,0,2.209.454c-.788,1.283-1.527,2.282-1.892,2.249-.99-.1-9.168-6.31-9.955-6.9,0,0,2.371-1.08,2.566-1.965s-.5-7.39-.885-7.487A12.645,12.645,0,0,1,238.9,66.2a11.272,11.272,0,0,1-1.974-4.133,3.474,3.474,0,0,1-3.938-.982,5.2,5.2,0,0,1-1.145-3.159,3.378,3.378,0,0,1,2.135-3.249c2.753-1.185,13.293,1.381,13.984-12.708a6.594,6.594,0,0,0,2.859,2.07c1.973.788,1.973-1.876,1.973-1.876s1.673,2.266,7.584,5.125a36.329,36.329,0,0,0,9.257,3.354s.049.186.13.528c-6,.454-15.331-5.741-15.331-5.741" transform="translate(-231.842 -41.967)" fill="#ff5c5c"/></g></g><path d="M272.476,58.093c0,.864.379,1.564.846,1.564s.845-.7.845-1.564-.379-1.564-.845-1.564-.846.7-.846,1.564" transform="translate(-208.58 -16.352)" fill="#350024"/><path d="M254.367,58.046c0,.99.434,1.792.969,1.792s.97-.8.97-1.792-.434-1.792-.97-1.792-.969.8-.969,1.792" transform="translate(-205.541 -16.306)" fill="#350024"/><path d="M268.04,57.762A2.226,2.226,0,0,0,268,59.3l-.349-.254a1.606,1.606,0,0,1,1.435.508c1.273,1.339-.555,3.558-1.97,2.259a1.226,1.226,0,0,0,1.568-.923,1.107,1.107,0,0,0-1.292-1.207,1.844,1.844,0,0,1,.647-1.918" transform="translate(-207.681 -16.559)" fill="#620606"/><path d="M258.108,69.21a3.711,3.711,0,0,0,1.217,1.7,6.666,6.666,0,0,0,5.654,1.424,3.568,3.568,0,0,0,1.613-.876c1.321-1.236,1.479-3.3,1.515-4.351.048-1.388-.615-1.436-.615-1.436a.1.1,0,0,0-.024.006,14.775,14.775,0,0,1-3.773.146c-1.807-.189-3.712-1-4.814-.931a1.329,1.329,0,0,0-.158.012c-1.078.152-1.23,2.252-.615,4.3" transform="translate(-206.108 -17.755)" fill="#ff4040"/><path d="M257.195,53.854a.5.5,0,0,1-.458-.3,1.792,1.792,0,0,0-3.255-.062.5.5,0,0,1-.9-.435,2.792,2.792,0,0,1,5.072.1.5.5,0,0,1-.458.7Z" transform="translate(-205.317 -15.588)" fill="#620606"/><path d="M274.895,54.724a.5.5,0,0,1-.481-.365,1.476,1.476,0,0,0-2.789-.155.5.5,0,0,1-.927-.375,2.476,2.476,0,0,1,4.679.261.5.5,0,0,1-.482.635Z" transform="translate(-208.36 -15.723)" fill="#620606"/><path d="M259.109,64.9c.012.931.268,2.288,1.333,2.471a27.854,27.854,0,0,0,6.409.31c.834-.195.882-1.387.845-2a14.775,14.775,0,0,1-3.773.146c-1.807-.189-3.712-1-4.814-.931" transform="translate(-206.337 -17.755)" fill="#fff"/><path d="M259.643,71.8a6.667,6.667,0,0,0,5.654,1.424,3.548,3.548,0,0,0,1.613-.876A4.485,4.485,0,0,0,263.2,70.2a3.75,3.75,0,0,0-3.554,1.6" transform="translate(-206.426 -18.643)" fill="#ff9e9e"/></g></g><g transform="translate(6.753 227.587)"><g clip-path="url(#s)"><path d="M86.765,369c-.072.379-.163.922-.268,1.589-.444,2.818-1.118,7.885-1.674,12.625-.582,4.9-1.039,9.46-1.007,10.839.085,3.014,1.118,7.237.954,7.872-.124.529-2.2,1.609-7.9,2.838h-.007c-1.138.241-2.419.49-3.864.745a44.269,44.269,0,0,1-5.486.576c-.8.046-1.6.065-2.386.072A56.383,56.383,0,0,1,51.54,404.79c-2.151-.719-5.257-3.419-5.577-4.688s.4-1.674,1.275-4.622a31.617,31.617,0,0,0,1.222-8.663c.007-.719,0-1.465-.026-2.229-.164-4.373-.164-21.15-2.229-25.687-.954-2.1-2.216-4.393-3.3-6.263a1.237,1.237,0,0,1,.137-.131c.118-.1.242-.2.366-.3a35.376,35.376,0,0,1,9.369-5.06c.164-.059.32-.118.464-.171,5.472.3,11.264,1.171,11.264,1.171a21.8,21.8,0,0,0-1.569-1.811l8.689.889c-.765.563-1.236.922-1.236.922s3.367-.118,7.512.013c-.137.2-.21.314-.21.314a45.277,45.277,0,0,1,7.486,1.609c.183.052.359.111.543.17a31.328,31.328,0,0,0-.634,5.145c0,2.348,1.608,7.532,1.791,11.337A9.586,9.586,0,0,1,86.765,369" transform="translate(-13.955 -285.712)" fill="#004480"/><g transform="translate(28.956 60.625)" opacity="0.22"><g clip-path="url(#t)"><path d="M85.184,350.082c-1.824,4.857-4.106,8.323-4.439,8.323a9.424,9.424,0,0,0-1.183.17,12.93,12.93,0,0,1,1.183,1.942c0,.255-10.4,12-11.749,13.775s-13.18-9.637-14.873-11.749a6.381,6.381,0,0,1-1.609-3.884,3.262,3.262,0,0,1-2.53-1.948,23.728,23.728,0,0,0-2.367-4.223l-2.2,1.439s2.367,1.771,4.564,7.263,2.452,16.057,1.857,22.816a117.644,117.644,0,0,1-1.857,13.86c-.51,2.2.17,3.3,6.165,5.662a27.7,27.7,0,0,0,17.07,1.6,14.867,14.867,0,0,1,3.648-.366c-1.138.241-2.419.49-3.864.745a44.58,44.58,0,0,1-5.486.576c-.8.046-1.594.065-2.386.072a56.4,56.4,0,0,1-13.592-1.366c-2.151-.719-5.257-3.419-5.577-4.688s.4-1.674,1.275-4.622a31.646,31.646,0,0,0,1.223-8.663c.006-.719,0-1.465-.027-2.229-.163-4.374-.163-21.15-2.229-25.687-.954-2.1-2.216-4.393-3.295-6.263a1.306,1.306,0,0,1,.136-.131c.118-.1.242-.2.367-.3a35.373,35.373,0,0,1,9.368-5.06c.164-.059.32-.118.464-.171,5.472.3,11.265,1.171,11.265,1.171a21.8,21.8,0,0,0-1.569-1.812l8.689.89c-.765.562-1.236.922-1.236.922s3.367-.118,7.512.012c-.137.2-.209.314-.209.314a45.173,45.173,0,0,1,7.485,1.609" transform="translate(-42.911 -346.337)" fill="#080236"/></g></g><path d="M68.354,413.592a1.06,1.06,0,1,1-1.06-1.06,1.06,1.06,0,0,1,1.06,1.06" transform="translate(-17.869 -296.822)" fill="#5fadd3"/><path d="M68.354,407.858a1.06,1.06,0,1,1-1.06-1.06,1.06,1.06,0,0,1,1.06,1.06" transform="translate(-17.869 -295.86)" fill="#5fadd3"/><path d="M68.354,402.124a1.06,1.06,0,1,1-1.06-1.06,1.06,1.06,0,0,1,1.06,1.06" transform="translate(-17.869 -294.897)" fill="#5fadd3"/><path d="M68.354,396.39a1.06,1.06,0,1,1-1.06-1.06,1.06,1.06,0,0,1,1.06,1.06" transform="translate(-17.869 -293.935)" fill="#5fadd3"/><path d="M68.354,390.657a1.06,1.06,0,1,1-1.06-1.06,1.06,1.06,0,0,1,1.06,1.06" transform="translate(-17.869 -292.973)" fill="#fff"/><path d="M1.06-.5A1.56,1.56,0,1,1-.5,1.06,1.562,1.562,0,0,1,1.06-.5Zm0,2.12A.56.56,0,1,0,.5,1.06.561.561,0,0,0,1.06,1.62Z" transform="translate(48.365 96.624)"/><path d="M68.354,384.923a1.06,1.06,0,1,1-1.06-1.06,1.06,1.06,0,0,1,1.06,1.06" transform="translate(-17.869 -292.01)" fill="#fff"/><path d="M1.06-.5A1.56,1.56,0,1,1-.5,1.06,1.562,1.562,0,0,1,1.06-.5Zm0,2.12A.56.56,0,1,0,.5,1.06.561.561,0,0,0,1.06,1.62Z" transform="translate(48.365 91.853)"/><path d="M68.354,379.189a1.06,1.06,0,1,1-1.06-1.06,1.06,1.06,0,0,1,1.06,1.06" transform="translate(-17.869 -291.048)" fill="#fff"/><path d="M1.06-.5A1.56,1.56,0,1,1-.5,1.06,1.562,1.562,0,0,1,1.06-.5Zm0,2.12A.56.56,0,1,0,.5,1.06.561.561,0,0,0,1.06,1.62Z" transform="translate(48.365 87.081)"/><path d="M72.76,376.74v34.221c-.8.045-1.6.064-2.386.07V374.908Z" transform="translate(-18.564 -290.507)" fill="#5fadd3"/><path d="M80.007,346.517a17.185,17.185,0,0,0,2.908.634c1.431.159,5.894,1.611,6.291,2.168s-4,6.116-4.637,7.07-3.022,1.511-3.022,1.511l1.829,1.351L72.8,371.976a9.575,9.575,0,0,1-2.068-3.5c-.318-1.59,0-2.386.637-4.612s8.639-17.347,8.639-17.347" transform="translate(-18.603 -285.743)" fill="#5fadd3"/><path d="M67.167,367.8s1.832,3.578,1.515,3.817-7.714-7-10.816-10.179-2.624-3.658-2.624-3.658l1.431-1.431-2.943-.637a12.917,12.917,0,0,1-3.459-5.368c-.954-3.181-.161-3.364.714-3.682s5.786-2.036,6.82-1.8,2.685,3.374,2.923,4.009,5.726,14,6.124,15.587a13.308,13.308,0,0,1,.315,3.34" transform="translate(-15.117 -285.461)" fill="#5fadd3"/><path d="M79.4,346.744a10.082,10.082,0,0,1-1.275,3.988c-.216.439-.647,1.21-1.209,2.2v.007c-.942,1.648-2.249,3.884-3.563,6.113-2.5,4.249-5.015,8.486-5.015,8.616,0,.007,0,.007-.007.007a53.142,53.142,0,0,1-4.719-6.394c-.746-1.143-1.5-2.353-2.184-3.55-2.863-5.014-4.615-12.572-4.615-12.572L61.1,344.05l13.043.471,3.668,1.556Z" transform="translate(-16.287 -285.329)" fill="#ffe7bd"/><g transform="translate(40.521 58.721)" opacity="0.48"><g clip-path="url(#u)"><path d="M68.426,362.226s5.74-6.453,8.486-9.29c-.941,1.648-2.249,3.884-3.563,6.113-2.5,4.249-5.015,8.486-5.015,8.616,0,.007,0,.007-.007.007a53.228,53.228,0,0,1-4.72-6.394c-.746-1.144-1.5-2.353-2.184-3.55-2.863-5.015-4.616-12.572-4.616-12.572l4.3-1.1,13.043.47,3.668,1.556c-2.249,3.413-6.447,4.877-7.264,4.138-.9-.817-1.634-1.634-1.634-1.634s-1.556,1.471-2.694,1.392-5.151-3.19-5.151-3.19l-1.8,1.8a73.269,73.269,0,0,0,5.394,9.721c2.452,3.355,3.759,3.923,3.759,3.923" transform="translate(-56.808 -344.05)" fill="#ff8282"/></g></g><path d="M75.26,360.191c-2.783,4.252-5.58,8.483-5.58,8.617a50.539,50.539,0,0,1-5.262-6.389l4.425-12.066,2.493.077Z" transform="translate(-17.564 -286.386)" fill="#53357e"/><path d="M67.316,347.273s2.545,3.419,3.976,3.26,3.5-3.419,3.5-3.419-2.386-3.34-3.658-3.26-3.817,3.419-3.817,3.419" transform="translate(-18.051 -285.295)" fill="#53357e"/><path d="M77.759,344.265c0,.478-.373.634-1.484,1.432s-3.733,2.04-4.289,1.562a24.477,24.477,0,0,1-2.209-3.6.292.292,0,0,1-.02-.033s-.131.2-.334.5c-.019.033-.046.065-.065.1-.052.072-.1.143-.157.222a.97.97,0,0,0-.111.156c-.837,1.158-2.3,2.883-3.321,2.563A12.126,12.126,0,0,1,61.395,344c-.157-.478,2.9-4.021,2.9-4.021l.164-.026H75.588s.98,1.733,1.621,3.014a5.741,5.741,0,0,1,.549,1.3" transform="translate(-17.056 -284.641)" fill="#ffc88e"/><g transform="translate(44.333 55.309)" opacity="0.46"><g clip-path="url(#v)"><path d="M69.09,344.611c-.837,1.158-2.3,2.883-3.321,2.563A12.133,12.133,0,0,1,61.395,344c-.156-.478,2.9-4.021,2.9-4.021l.163-.026H64.7c.419.418,1.347,1.235,1.347,1.235s-2.314,1.674-2.367,2.556,2.752,2.582,3.6,2.53c.5-.032,1.255-.921,1.8-1.66" transform="translate(-61.389 -339.949)" fill="#ff966e"/></g></g><g transform="translate(52.72 58.323)" opacity="0.46"><g clip-path="url(#w)"><path d="M79.45,344.873c0,.478-.373.634-1.484,1.432s-3.733,2.04-4.289,1.562a24.475,24.475,0,0,1-2.209-3.6c.209.275,1.752,2.3,3.033,2.2,1.373-.112,3.877-1.733,4.262-2.641a1.5,1.5,0,0,1,.137-.255,5.74,5.74,0,0,1,.549,1.3" transform="translate(-71.468 -343.571)" fill="#ff966e"/></g></g><path d="M80.263,389.636A58.051,58.051,0,0,0,86.149,389c1.113-.318,1.51-.875.875-2.942s-1.431-2.545-1.431-2.545l-6.521,1.272Z" transform="translate(-20.023 -291.952)" fill="#ffae96"/><path d="M72.287,387.127c-.163,0-15.187.523-25.262.876-5.1.183-8.937.314-8.937.314a6.242,6.242,0,0,1-2.066-.791,26.321,26.321,0,0,1-1.667-6.6c0-.647.889-6.387,1.9-12.748h.007a.5.5,0,0,1,.013-.092v-.02l.83-5.171c.732-3.171,2.046-6.983,4.368-9.068a1.166,1.166,0,0,1,.136-.131c.118-.1.242-.2.366-.3a42.577,42.577,0,0,1,4.936,8.6,6.732,6.732,0,0,1,.242.8c.712,3.021.4,14.154.4,14.154l23.8,2.164.615.059s.124.5.288,1.209A33.25,33.25,0,0,1,73,384.5c.164,1.909-.477,2.628-.712,2.628" transform="translate(-12.519 -286.897)" fill="#00527f"/><g transform="translate(33.153 75.098)" opacity="0.14"><g clip-path="url(#x)"><path d="M74.537,382.114c-5.446-.568-23.34-2.412-23.621-2.2-.34.255-1.523,1.354-1.523,1.354s.51-2.536-.085-2.112-1.353-.255-1.353-.255,1.183-11.323,1.242-15.168a6.744,6.744,0,0,1,.242.8c.712,3.02.4,14.154.4,14.154l23.8,2.164.614.059s.125.5.288,1.209" transform="translate(-47.954 -363.73)" fill="#7ec5ec"/></g></g><g transform="translate(21.836 66.495)" opacity="0.22"><g clip-path="url(#y)"><path d="M72.287,387.127c-.163,0-15.187.523-25.262.876-5.1.183-8.937.314-8.937.314a6.242,6.242,0,0,1-2.066-.791,26.321,26.321,0,0,1-1.667-6.6c0-.647.889-6.387,1.9-12.748h.007a.5.5,0,0,1,.013-.092v-.02l.83-5.171c.732-3.171,2.046-6.983,4.368-9.068a1.166,1.166,0,0,1,.136-.131c.118-.1.242-.2.366-.3a42.577,42.577,0,0,1,4.936,8.6c-2.334-2.21-3.942-.968-3.942-.968s-.766,15.716-1.014,17.828.5,1.353,2.026.928a7.75,7.75,0,0,0,3.04-2.367s-.758,2.537-1.857,3.38a5.258,5.258,0,0,1-2.791.844,9.673,9.673,0,0,0,2.536,1.268,1.81,1.81,0,0,0,2.282-1.354,15.334,15.334,0,0,0,.424-2.615s1.262,1.941,1.014,2.87a7.927,7.927,0,0,1-.425,1.268s21.973.425,22.732.085c.523-.236.484-2.615.412-4.053l.615.059A43.929,43.929,0,0,1,73,384.5c.164,1.909-.477,2.628-.712,2.628" transform="translate(-34.355 -353.391)" fill="#080236"/></g></g><path d="M61,381.958l-10.009-1.026a6.518,6.518,0,0,1,1.033-2.224,3.484,3.484,0,0,1,2.138-1.438,46.311,46.311,0,0,1,5.257-.575c.712-.046,1.183-.066,1.183-.066Z" transform="translate(-15.311 -290.797)" fill="#ffae96"/><g transform="translate(35.683 85.833)" opacity="0.48"><g clip-path="url(#z)"><path d="M61,381.958l-10.009-1.026a6.518,6.518,0,0,1,1.033-2.224.959.959,0,0,0,.857,1c1.438.2,5.681.249,5.681.249a4.928,4.928,0,0,1,.856-3.262c.712-.046,1.183-.066,1.183-.066Z" transform="translate(-50.994 -376.63)" fill="#ff8282"/></g></g><path d="M103.239,378.584c.242,1.51-4.93,6.047-7.394,6.361a60.577,60.577,0,0,1-7.983-.974c-8.362-1.308-20.738-3.544-24.968-4.316l-1.484-.275a13.742,13.742,0,0,1-.4-3.9,6.079,6.079,0,0,1,1.432-4.138h28.23l-.751-3.857-.439-2.262a31.964,31.964,0,0,1-1.752-9.467,18.5,18.5,0,0,1,.3-4.067c.059-.307.125-.588.19-.856.183.052.359.112.543.17a21.091,21.091,0,0,1,5.486,2.583,16.675,16.675,0,0,1,5.759,8.374c1.033,4.668,1.987,9.663,2.589,12.952.359,1.981.588,3.34.641,3.667" transform="translate(-16.992 -286.468)" fill="#00527f"/><g transform="translate(44.019 65.226)" opacity="0.22"><g clip-path="url(#aa)"><path d="M96.452,376.319c.929,1.353-.5,4.564-.5,4.564s-.929-2.962-1.948-3.635-7.349-.425-7.6-.34-21.718-1.772-22.816-1.517c-.693.157-.746,2.629-.687,4.44l-1.484-.275a13.75,13.75,0,0,1-.4-3.9,6.077,6.077,0,0,1,1.432-4.138h28.23l-.751-3.858-.439-2.262a31.964,31.964,0,0,1-1.752-9.467,18.489,18.489,0,0,1,.3-4.066.759.759,0,0,1,.229.28l.419.844-.085.17c.34,4.394,4.308,15.043,5.328,17.07.974,1.941,5.282,4.589,5.635,4.8a32.364,32.364,0,0,0-3.524-1.085c-1.014-.17-.51,1.014.419,2.367" transform="translate(-61.011 -351.867)" fill="#080236"/></g></g><path d="M91.04,372.48s1.272-1.167,2.12-1.167a3.11,3.11,0,0,1,2.969,2.015,3.548,3.548,0,0,1-.212,3.181.44.44,0,0,1-.636,0s-1.061-2.757-2.227-3.287a13.112,13.112,0,0,0-2.015-.742" transform="translate(-22.032 -289.904)" fill="#ffae96"/><path d="M87.593,375.007s1.8-2.545,2.65-2.65a6.465,6.465,0,0,1,3.287.636c1.06.53,1.379,2.969,1.485,3.711s-1.485.742-2.12.211a7.1,7.1,0,0,1-1.272-2.12Z" transform="translate(-21.454 -290.075)" fill="#ffae96"/><path d="M36.649,371.136a.505.505,0,0,1,.013-.092c-.007.066-.007.1-.007.1Z" transform="translate(-12.904 -289.859)" fill="#00527f"/><g transform="translate(76.438 70.14)" opacity="0.14"><g clip-path="url(#ab)"><path d="M101.556,358.042c-2.535-1.436-1.436,3.211-.761,5.915s4.479,10.394,5.577,12.422-.338,2.113-1.521,1.352.423.592.085,2.62-2.7,3.379-1.352,3.8,3.38-1.183,4.141-3.042a7.925,7.925,0,0,0,0-6.084c-.845-2.62-3.38-14.2-4.395-15.717s-1.774-1.267-1.774-1.267" transform="translate(-99.968 -357.772)" fill="#7ec5ec"/></g></g><path d="M76.31,340.158a11.875,11.875,0,0,1-5.9,1.406,7.328,7.328,0,0,1-2.3-.307,5.5,5.5,0,0,1-3.04-2.223v-5.695s.131,0,.366-.007c.359-.007.968-.02,1.713-.039.726-.013,1.594-.032,2.5-.059h.072c1.536-.046,3.171-.1,4.433-.163h.032a15.166,15.166,0,0,0,2.085-.176,1.869,1.869,0,0,0-.052.464c-.026.484-.032,1.256-.019,2.112.019,2.1.117,4.688.117,4.688" transform="translate(-17.673 -283.456)" fill="#ff9e93"/><g transform="translate(47.392 49.597)" opacity="0.48"><g clip-path="url(#ac)"><path d="M76.192,335.5c-2.765,1.079-8.924.405-8.924.405v2.968a3.921,3.921,0,0,0,.837,2.412,5.5,5.5,0,0,1-3.04-2.223v-5.6a1.953,1.953,0,0,1,.366-.1,9.46,9.46,0,0,1,1.713-.039c.477.019,1.014.032,1.609,0,.28-.013.582-.032.889-.059h.072a41.347,41.347,0,0,1,4.432-.163h.032a7.815,7.815,0,0,1,1.039.111c.379.072.713.125.994.176-.027.484-.033,1.256-.02,2.112" transform="translate(-65.065 -333.086)" fill="#ff687e"/></g></g><path d="M86.915,312.046a3.527,3.527,0,0,1-.066.7,3.722,3.722,0,0,1-3.138,2.981c-.012.242-.019.471-.032.673-.19,3.419-1.4,8.59-6.6,10.67-.007-.007-.012-.007-.012,0a11.6,11.6,0,0,1-1.883.575c-6.819,1.478-16.593,2.112-21.3-4.145a17.7,17.7,0,0,1-2.9-7.747c-.085.006-.176.012-.268.012a3.722,3.722,0,0,1-.183-7.44c.059-2.3.255-3.87.255-3.87,2.112-4.289,9.984-10.755,19.823-9.983.1.006.2.019.3.032,9.6.876,12.559,7.42,12.559,7.42s0,.039.007.117c.019.588.124,3.3.2,6.309a3.728,3.728,0,0,1,3.243,3.694" transform="translate(-14.64 -276.998)" fill="#ff9e93"/><g transform="translate(32.355 17.412)" opacity="0.48"><g clip-path="url(#ad)"><path d="M86.915,312.046a3.527,3.527,0,0,1-.066.7c-5.412.948-9.191-3.577-10.061-7.826,0,0,.2,1.85-3.282,1.543s-3.687-3.184-3.687-3.184-4,6.459-8.924,6.256-5.943-2.36-5.943-2.36-.922,2.36-1.641,2.877c0,0-.719,9.532,3.177,13.429s12.507,4.406,15.894,4.2a35.265,35.265,0,0,0,4.681-.614,11.6,11.6,0,0,1-1.883.575c-6.819,1.478-16.593,2.112-21.3-4.145a17.7,17.7,0,0,1-2.9-7.747c-.085.006-.176.012-.268.012a3.722,3.722,0,0,1-.183-7.44c.059-2.3.255-3.87.255-3.87,2.112-4.289,9.984-10.755,19.823-9.983.1.006.2.019.3.032.438.17.9.36,1.366.575,4.923,2.256,7.485,3.282,9.329,5.328a10.185,10.185,0,0,0,1.87,1.634c.019.588.124,3.3.2,6.309a3.728,3.728,0,0,1,3.243,3.694" transform="translate(-46.996 -294.409)" fill="#ff687e"/></g></g><path d="M93.427,299.282c-1.478,2.818-2.628,1.229-2.733,1.072a7.568,7.568,0,0,1,.334,3.465,5.451,5.451,0,0,1-.131.667c-.033.117-.066.241-.1.366-.647,2.125-2.392,4.668-7.911,3.007-5.832-1.758-6.466-11.735-6.466-11.735s.144,4.426-2.74,4.708-3.02-4.5-3.02-4.5-6.466,8.153-11.526,8.362c-4.877.2-3.622-3.38-3.523-3.642-.157.216-2.694,3.733-3.786,4.413-1.124.706-3.518,1.9-4.152-2.811-.549-4.106-1.085-12.768,2.458-18.077a10.166,10.166,0,0,1,1.831-2.092c7.028-6.041,13.356-1.687,17.992-2.53s5.2-2.458,7.244-1.262a2,2,0,0,1,.3.209,1.156,1.156,0,0,1,.171.144c1.321,1.255.5,3.419.444,3.576.1-.1,2.321-2.209,2.667-.836.314,1.242-1.791,2.589-2.288,2.889a7.043,7.043,0,0,1,6.714.268c3.583,2.112,4.5,6.185,6.394,8.787s3.374,2.6,1.831,5.551" transform="translate(-14.687 -274.289)" fill="#53357e"/><g transform="translate(32.585 3.979)" opacity="0.38"><g clip-path="url(#ae)"><path d="M91.027,303.819a5.11,5.11,0,0,1-.131.667c-.563,2.178-2.177,5.133-8.015,3.374s-6.466-11.735-6.466-11.735.144,4.426-2.739,4.708-3.021-4.5-3.021-4.5-6.466,8.152-11.526,8.362c-4.877.2-3.622-3.38-3.523-3.642-.157.216-2.694,3.733-3.786,4.413-1.124.706-3.518,1.9-4.152-2.811-.549-4.106-1.085-12.769,2.458-18.077a10.19,10.19,0,0,1,1.831-2.092c7.028-6.041,13.356-1.687,17.992-2.53s5.2-2.458,7.243-1.262a2.227,2.227,0,0,1,.471.354,34.909,34.909,0,0,1-3.086,2.046c-5.538,3.282-6.257-.1-13.841,2.255S51.513,293.7,51.1,297.7s6.871-1.327,6.871-1.327a2.894,2.894,0,0,0,1.843,3.791c2.87,1.125,11.788-7.38,11.788-7.38s-.817,3.9,1.027,5.224,3.589-3.177,3.589-3.177.078.49.275,1.275c.516,2.072,1.876,6.158,4.851,8.466,4.1,3.177,9.637-.818,9.637-.818a.329.329,0,0,1,.046.066" transform="translate(-47.271 -278.268)" fill="#270b53"/></g></g><g transform="translate(61.952 4.615)" opacity="0.24"><g clip-path="url(#af)"><path d="M99.35,299.41c-1.478,2.818-2.628,1.229-2.733,1.072a7.568,7.568,0,0,1,.334,3.465,5.446,5.446,0,0,1-.131.667c-.033.117-.066.241-.1.366a9.961,9.961,0,0,0-.117-2.537c-.5-2.184-2.824-4.177-2.968-4.3.183.111,3.406,2.111,4.406.817,1.026-1.334.712-1.536-1.641-3.694s-3.177-6.558-6.668-9.12a5.338,5.338,0,0,0-6.342-.419,13.126,13.126,0,0,0,.915-1.014c.49-.614.9-1.327.405-1.543-.876-.392-2.026.51-2.145.608a8,8,0,0,0,.856-4.747,1.152,1.152,0,0,1,.171.144c1.321,1.255.5,3.419.444,3.576.1-.1,2.321-2.209,2.667-.836.314,1.242-1.791,2.589-2.288,2.889a7.043,7.043,0,0,1,6.714.268c3.582,2.112,4.5,6.185,6.394,8.787s3.374,2.6,1.831,5.551" transform="translate(-82.561 -279.032)" fill="#ab95c9"/></g></g><path d="M60.432,316.086c0,.979-.423,1.772-.945,1.772s-.945-.793-.945-1.772.423-1.772.945-1.772.945.793.945,1.772" transform="translate(-16.578 -280.338)" fill="#53357e"/><path d="M84.014,316.181c0,.979-.423,1.772-.945,1.772s-.945-.793-.945-1.772.423-1.772.945-1.772.945.793.945,1.772" transform="translate(-20.536 -280.354)" fill="#53357e"/><path d="M70.361,314.943c-.032.779.483,1.217.539,2.179a1.811,1.811,0,0,1-.112.73,1.411,1.411,0,0,1-.561.7,3.557,3.557,0,0,1-.6.263.831.831,0,0,0-.238.158,1.1,1.1,0,0,0-.286,1.191,1.492,1.492,0,0,0,1.525.774,1.635,1.635,0,0,1-2.358-.171,1.837,1.837,0,0,1-.43-1.425,2.114,2.114,0,0,1,.664-1.33,2.064,2.064,0,0,1,.68-.408l.415-.12c.077-.008.211-.142.277-.429a2.793,2.793,0,0,0,.066-.444l.021-.552a1.71,1.71,0,0,1,.4-1.112" transform="translate(-18.137 -280.444)" fill="#650b33"/><path d="M73.884,327.595a.392.392,0,0,1-.051.057,4.167,4.167,0,0,1-5.573.693,3.129,3.129,0,0,1-.63-.731A7.18,7.18,0,0,1,66.8,324a.5.5,0,0,1,.47-.567,1.425,1.425,0,0,0,.134.064,8.217,8.217,0,0,0,3.219.648,14.04,14.04,0,0,0,3.442-.61.935.935,0,0,1,.483-.007c.375.191.707,2.316-.662,4.065" transform="translate(-17.964 -281.869)" fill="#a63737"/><path d="M74,328.166a4.166,4.166,0,0,1-5.573.693,3.15,3.15,0,0,1-.63-.731,3.791,3.791,0,0,1,2.755-1.629A3.715,3.715,0,0,1,74,328.166" transform="translate(-18.132 -282.382)" fill="#ffaeae"/><path d="M74.19,324.395c-.045.28-.089.662-1.89.757s-4.014.044-4.44-.286c-.286-.23-.337-.929-.337-1.356a8.2,8.2,0,0,0,3.219.649,14,14,0,0,0,3.442-.611,5.447,5.447,0,0,1,.007.846" transform="translate(-18.085 -281.881)" fill="#fff"/><path d="M61.82,323.935c0,.7-.836,1.276-1.866,1.276s-1.867-.571-1.867-1.276.835-1.276,1.867-1.276,1.866.572,1.866,1.276" transform="translate(-16.502 -281.739)" fill="#ff7ed4"/><path d="M83.784,324.03c0,.7-.835,1.276-1.866,1.276s-1.867-.571-1.867-1.276.835-1.276,1.867-1.276,1.866.571,1.866,1.276" transform="translate(-20.188 -281.755)" fill="#ff7ed4"/><path d="M60.566,312.453a1.667,1.667,0,0,0-2.687-.116l-.781-.625a2.667,2.667,0,0,1,4.3.185Z" transform="translate(-16.401 -279.818)" fill="#53357e"/><path d="M84.715,312.736a2.008,2.008,0,0,0-1.759-1.109,4.737,4.737,0,0,0-2.388.63l-.448-.894a5.668,5.668,0,0,1,2.9-.734,3,3,0,0,1,2.628,1.74Z" transform="translate(-20.237 -279.802)" fill="#53357e"/></g></g><g clip-path="url(#b)"><path d="M891.959,306.673h-17V282.83H842.715v-17h49.243Z" transform="translate(-141.432 -46.041)" fill="#0081ff"/><path d="M886.833,327.746l-8.576-16.539a3.65,3.65,0,0,1,3.24-5.331h16.539a3.65,3.65,0,0,1,3.289,5.234l-7.962,16.539a3.651,3.651,0,0,1-6.53.1" transform="translate(-147.327 -51.335)" fill="#0081ff"/><path d="M834.574,268.661a59.82,59.82,0,1,1-59.821-59.821,59.821,59.821,0,0,1,59.821,59.821" transform="translate(-119.986 -35.049)" fill="#004480"/><path d="M829.094,270.045a52.956,52.956,0,1,1-52.956-52.956,52.956,52.956,0,0,1,52.956,52.956" transform="translate(-121.371 -36.434)" fill="#c4fbf8"/><path d="M830.689,284.816c.013-.046.026-.066.046-.046s0,.026-.046.046" transform="translate(-139.413 -47.791)" fill="#ffae96"/></g><g transform="translate(601.811 180.655)"><g clip-path="url(#ah)"><path d="M799.338,322.224c-.822,5.519-3,10.312-9.245,11.334a47.03,47.03,0,0,1-12.9-.215c-.756-.1-1.193-.186-1.193-.186l-.414-7.719s8.342,1.171,11.979-4.614.236-14.683,1.311-19c.852-3.437,2.467-5.037,3.838-5.778a4.846,4.846,0,0,1,2.415-.645s2.814-.629,3.192,1.207,1.845,20.091,1.023,25.61" transform="translate(-731.976 -230.215)" fill="#66b5ff"/><g transform="translate(44.908 65.087)" opacity="0.28"><g clip-path="url(#ai)"><path d="M799.6,322.224c-.822,5.519-3,10.312-9.245,11.334a47.03,47.03,0,0,1-12.9-.215l-.3-6.252s8.563-.334,11.615-2.652,4.186-2.259,3.252-11.223c-.807-7.8-2.066-13.187.956-17.164a4.846,4.846,0,0,1,2.415-.645s2.814-.629,3.192,1.207,1.845,20.091,1.023,25.61" transform="translate(-777.147 -295.302)" fill="#104462"/></g></g><path d="M776.053,330.448c2.106,3.16.578,9.2-.154,9.737s-4.387.154-4.734-.308-.5-7.7-.231-8.852,1.193-1.193,2.656-1.193,2.155.154,2.463.616" transform="translate(-731.173 -236.01)" fill="#fdffff"/><path d="M769.449,332.654s-1.1.082-3.373.162a22.275,22.275,0,0,0-7.315,2.235c-1.016.61.65,1.422,2.316,1.829s2.032,1.219,3.008,1.463,2.8-.61,3.9-.651,1.829.447,2.316-.894.61-1.3.528-2.154-1.381-1.991-1.381-1.991" transform="translate(-729.101 -236.484)" fill="#ffae96"/><path d="M834.053,296.551s-.215-2.075-3.074-2.578-24.655.645-27.8-.926a4.3,4.3,0,0,1-2.66-3.467c-.03-1.474,1.1-3.082,4.089-4.393,5.86-2.571,17.72-2.711,22.721-1.785a28.889,28.889,0,0,1,3.682.889c3.178,1.022,5.467,2.741,5.889,6.326.578,4.86-2.852,5.934-2.852,5.934" transform="translate(-736.162 -228.131)" fill="#707aff"/><g transform="translate(64.362 56.16)" opacity="0.38"><g clip-path="url(#aj)"><path d="M834.053,296.835s-.215-2.075-3.074-2.578-24.655.645-27.8-.926a4.3,4.3,0,0,1-2.66-3.467c4.986,3.445,22.6,5.075,28.054,2.9,4.564-1.83,7.986-4.415,2.437-8.186,3.178,1.022,5.467,2.741,5.889,6.326.578,4.86-2.852,5.934-2.852,5.934" transform="translate(-800.524 -284.575)" fill="#6789ff"/></g></g><path d="M830.13,290.416s2.072-.215,2.5-1.644-6.859-4.787-15.5-4-11.075,2.072-11.361,4.287,0,2.644,5.144,2.429,12.575-.929,14.362-.5,4.858-.572,4.858-.572" transform="translate(-737.029 -228.428)" fill="#3147b5"/><path d="M825.539,316.5c-.615,15.564-3.311,25-3.311,25l-.556-.067-16.994-1.964-.467-.052a112.5,112.5,0,0,1-2.452-17.527c-.489-9.194-1.222-24.632,1.23-27.084a9.9,9.9,0,0,1,1.163-1.008c1.741-1.252,2.755-.837,2.755-.837a32.373,32.373,0,0,0,4.29.37c1.963,0,8.578-.245,8.578-.245a4.692,4.692,0,0,1,3.186,1.475c.727.792,1.6,2.586,2.149,6.527.007.007.007.007,0,.014a89,89,0,0,1,.429,15.394" transform="translate(-736.286 -229.812)" fill="#707aff"/><g transform="translate(67.785 63.088)" opacity="0.38"><g clip-path="url(#ak)"><path d="M825.676,301.092c.007.007.007.007,0,.015-.075.644-.156,1.311-.238,1.992-.7,5.9-2.378,27.581-3.2,38.337l-16.993-1.963-.608-2.252s7.845.548,7.112-12.957,1.645-21.165,1.645-21.165-3.1,1.638-4.742-.37.548-6.022-3.652-7.845a4.309,4.309,0,0,1-.282-1.082c1.741-1.252,2.757-.837,2.757-.837a32.285,32.285,0,0,0,4.289.371c1.963,0,8.577-.245,8.577-.245a4.694,4.694,0,0,1,3.186,1.474c.726.793,1.6,2.586,2.15,6.527" transform="translate(-804.637 -292.9)" fill="#6789ff"/></g></g><path d="M806.536,341.869a20.462,20.462,0,0,1-3.875-.3c-.422-.059-.889-.126-1.392-.215-3.675-.63-5.519-30.537-5.238-38.137.141-3.994,1.126-6.49,2.326-8.1a8.511,8.511,0,0,1,3.349-2.66,3.18,3.18,0,0,1,3.311.015c-2,9.3-1.911,18.868-1.333,27.328s2.852,22.068,2.852,22.068" transform="translate(-735.404 -229.666)" fill="#4bb2ff"/><g transform="translate(62.954 62.363)" opacity="0.28"><g clip-path="url(#al)"><path d="M807.01,341.869a20.462,20.462,0,0,1-3.875-.3,125.19,125.19,0,0,1-2.392-21.654c-.37-14.957.363-21.528.363-21.528s0-4.074-2.274-3.274a8.511,8.511,0,0,1,3.349-2.66,3.18,3.18,0,0,1,3.311.015c-2,9.3-1.911,18.868-1.333,27.328s2.852,22.068,2.852,22.068" transform="translate(-798.832 -292.029)" fill="#104462"/></g></g><g transform="translate(69.547 56.945)" opacity="0.46"><g clip-path="url(#am)"><path d="M806.755,285.519c.007,0,.015.007.022.007-.015.141-.022.222-.022.222Z" transform="translate(-806.755 -285.519)" fill="#8cb9f0"/></g></g><path d="M841.955,340.553a50.845,50.845,0,0,1-8.1,2.749,29.393,29.393,0,0,1-4.03.682,50.6,50.6,0,0,1-12.253-.86s-.859-1.1-.978-9.067.63-25.136.63-30.81c0-4.252,1.956-8.268,4.63-10.238a6.167,6.167,0,0,1,3.222-1.259c9.194-.615,14.313.266,16.023,13.5s.86,35.3.86,35.3" transform="translate(-738.856 -229.595)" fill="#4bb2ff"/><g transform="translate(82.992 62.013)" opacity="0.28"><g clip-path="url(#an)"><path d="M843.018,340.553a50.843,50.843,0,0,1-8.1,2.749c.215-14.246.1-40.189-3.3-45.168-2.933-4.282-5.519-5.852-8.7-5.126a6.167,6.167,0,0,1,3.222-1.259c9.194-.615,14.313.266,16.023,13.5s.86,35.3.86,35.3" transform="translate(-822.912 -291.608)" fill="#104462"/></g></g><path d="M835.716,323.193c-2.453,10.9-13.846,14.461-21.448,13.846s-16.912-1.1-16.912-1.1a14.21,14.21,0,0,1-1.837-4.9,7.508,7.508,0,0,1,1.348-4.9s.741.111,1.941.207c3.534.282,11.038.445,15.334-2.659,5.765-4.171,4.66-13.609,6.252-19.121.03-.111.067-.222.1-.333,1.623-5.3,4.919-8.1,10.565-7.024,5.756,1.1,7.1,15.076,4.653,25.988" transform="translate(-735.313 -230.496)" fill="#66b5ff"/><g transform="translate(60.153 66.48)" opacity="0.28"><g clip-path="url(#ao)"><path d="M835.716,323.193c-2.453,10.9-13.846,14.461-21.448,13.846s-16.912-1.1-16.912-1.1a14.21,14.21,0,0,1-1.837-4.9,7.508,7.508,0,0,1,1.348-4.9s.741.111,1.941.207l.453,4.993a35.055,35.055,0,0,0,14.964.186c8.764-1.644,13.505-4.015,15.149-12.23,1.585-7.912-.393-17.194-8.875-15.061,1.623-5.3,4.919-8.1,10.565-7.024,5.756,1.1,7.1,15.076,4.653,25.988" transform="translate(-795.467 -296.976)" fill="#104462"/></g></g><path d="M779.873,339.969s-1.46.1-2.824.195-1.948,1.168-3.019,1.168-.584-1.655,1.071-2.434a12.073,12.073,0,0,1,3.993-1.168c1.363-.195,2.531,0,2.921.487s-.682,1.753-2.142,1.753" transform="translate(-731.62 -237.323)" fill="#ffae96"/><path d="M792.547,337.162v.007c-.207,1.074-.482,2.06-.482,2.06l-2.333.289a38.177,38.177,0,0,1-6.037,0,35.714,35.714,0,0,0-4.193-.289,1,1,0,0,1-.088-.727,2.585,2.585,0,0,1,.266-.777,5.8,5.8,0,0,1,.637-.949.9.9,0,0,0,.067-.082,6.017,6.017,0,0,1,.467-.5,8.877,8.877,0,0,1,1.014-.845h.008a10.146,10.146,0,0,1,.949-.6,10.946,10.946,0,0,1,1.459-.689s.178-.037.474-.089a11.29,11.29,0,0,1,3.712-.007c.319.059.615.119.889.163,1.3.23,2.134.319,2.815.393.1.008.192.022.289.029.467.052.326,1.386.089,2.608" transform="translate(-732.615 -236.679)" fill="#ffae96"/><path d="M780.671,337.3a.931.931,0,0,1-.022.3,2.816,2.816,0,0,1-.474.763,1.344,1.344,0,0,1-.541.414,7.541,7.541,0,0,1-1.274.171,12.853,12.853,0,0,0-1.734.237,12.683,12.683,0,0,0-2.726,1.341.7.7,0,0,1-.77-.689c-.082-.77.281-.978,1.014-1.666a7.241,7.241,0,0,1,.941-.734,4.757,4.757,0,0,1,2.274-.934c.1,0,.222,0,.348.008.615.022,1.467.082,2.09.134.473.037.807.067.807.067a4.323,4.323,0,0,1,.067.585" transform="translate(-731.563 -237.131)" fill="#ffae96"/><path d="M782.189,336.417c-.126.311-.622.526-1.156.585a2.446,2.446,0,0,1-.467.022c-.251-.015-.577-.059-.94-.1a7.178,7.178,0,0,0-2.067.015,7.6,7.6,0,0,0-2.282,1.015s.015-.112.045-.29a4.135,4.135,0,0,1,.126-.526,2.657,2.657,0,0,1,.237-.563,3.707,3.707,0,0,1,2.155-1.748,4.07,4.07,0,0,1,.778-.1c.319-.015.682-.015,1.052-.008h.03c1.067.037,2.163.148,2.43.178a.328.328,0,0,0,.059.007s.044.289.059.622a2.327,2.327,0,0,1-.059.881" transform="translate(-731.925 -236.831)" fill="#ffae96"/><path d="M784.814,333.978s-.534,1.141-1.178,1.341a2.989,2.989,0,0,1-.755.059c-.311,0-.682-.014-1.067-.029-1.3-.074-2.771-.23-2.771-.23a2.073,2.073,0,0,1,.178-.482.433.433,0,0,1,.03-.059,1.563,1.563,0,0,1,.607-.644,1.316,1.316,0,0,1,.689-.156c1.074.029,3.578.163,4.149.192.074.007.118.007.118.007" transform="translate(-732.557 -236.673)" fill="#ffae96"/><g transform="translate(41.555 97.26)" opacity="0.46"><g clip-path="url(#ap)"><path d="M791.494,337.187v.007c-.207,1.074-.482,2.06-.482,2.06l-2.333.289a38.178,38.178,0,0,1-6.037,0,35.715,35.715,0,0,0-4.193-.289,1,1,0,0,1-.088-.727,12.844,12.844,0,0,0-1.734.237,12.683,12.683,0,0,0-2.726,1.341.7.7,0,0,1-.77-.688c-.082-.771.281-.979,1.014-1.667a7.239,7.239,0,0,1,.941-.734,2.644,2.644,0,0,1,.237-.563,3.705,3.705,0,0,1,2.155-1.748,4,4,0,0,1,.778-.1,1.564,1.564,0,0,1,.607-.644c-.334.363-.237.6.156.474a3.284,3.284,0,0,1,1.466.134s-.526.007-1.148.029H779.3c-.355.015-.733.037-1.074.067-.244.022-.459.045-.622.074a2.4,2.4,0,0,0-1.5,1c-.333.385-.245.548.408.141a5.76,5.76,0,0,1,2.119-.488,1.505,1.505,0,0,1,.9.162s-.934.282-1.823.533c-.429.126-.845.237-1.141.311a2.757,2.757,0,0,0-1.608,1.141,2.285,2.285,0,0,0-.133.193.769.769,0,0,0,.6,1.222c.682.052,1.63-.734,2.69-1.008a2.005,2.005,0,0,0,.511-.2,2.32,2.32,0,0,0,.985-.89,1.83,1.83,0,0,0,.563,1.082.8.8,0,0,0,.31.171,59.764,59.764,0,0,0,6.942.325c.785-.052.978-.325.733-1.385a5.148,5.148,0,0,1,.141-2.9c1.3.23,2.134.319,2.815.393.015.118.03.259.037.407a16.961,16.961,0,0,0,.341,2.23" transform="translate(-773.118 -333.964)" fill="#f06666"/></g></g><path d="M798.119,331.078a35.4,35.4,0,0,0,.245,8.212c.367,2.574,1.225,3.309-.245,3.677s-4.9.123-5.392-1.593a24.612,24.612,0,0,1-.613-8.212c.368-2.574,1.716-2.329,3.064-2.329a22.913,22.913,0,0,1,2.942.246" transform="translate(-734.729 -236.177)" fill="#fdffff"/><path d="M821.4,290.786a24.741,24.741,0,0,0-6.245,4.534,37.313,37.313,0,0,0-3.067,3.674,34.6,34.6,0,0,1-1.718-4.659c-.978-3.186-2.326-3.8-2.326-3.8a4.2,4.2,0,0,0,.756.015c.563-.044,1.259-.222,1.326-.866a37.193,37.193,0,0,0-.563-4.816c-.318-2.074-.659-4.015-.659-4.015l9.682-2.444a38.611,38.611,0,0,0,.615,7.719c.733,3.556,2.2,4.659,2.2,4.659" transform="translate(-737.425 -227.38)" fill="#ffae96"/><g transform="translate(70.621 51.026)" opacity="0.46"><g clip-path="url(#aq)"><path d="M821.4,290.786a24.741,24.741,0,0,0-6.245,4.534,37.313,37.313,0,0,0-3.067,3.674,34.6,34.6,0,0,1-1.718-4.659c-.978-3.186-2.326-3.8-2.326-3.8a4.2,4.2,0,0,0,.756.015c.141.1.3.207.452.326,2.281,1.7,2.518,5.9,2.518,5.9s.756-1.222,1.815-2.749,2.223-2.1,2.393-4.326a33.177,33.177,0,0,0-.349-5.785,9.773,9.773,0,0,1-6.067.948c-.318-2.074-.659-4.015-.659-4.015l9.682-2.444a38.611,38.611,0,0,0,.615,7.719c.733,3.556,2.2,4.659,2.2,4.659" transform="translate(-808.046 -278.406)" fill="#f06666"/></g></g><path d="M831.2,260.454c-1.911,2.037-4.659-.148-4.771-.23.059.363,1.141,6.631-1.6,7.586-2.815.978-3.311.118-3.311.118a3.614,3.614,0,0,1-3.43,2.578c-.067,0-.133.008-.192.008a3.964,3.964,0,0,1-3.608-2.341,20.822,20.822,0,0,0-7.23-8.7c-4.9-3.067-11.4-3.556-14.461-3.682s-3.43.985-4.9,1.229a3.011,3.011,0,0,1-1.6-.236c-1.371-.578-2.83-2.1-2.926-4.971a.2.2,0,0,1-.007-.067c-.127-4.163,3.556-21.076,19.365-21.817a44.175,44.175,0,0,1,5.5.067c.541.044,1.059.1,1.556.17,9.489,1.2,11.089,5.9,11.089,5.9s.533-2.859,1.378-2.859a.623.623,0,0,1,.459.281c1.1,1.349.363,3.556.363,3.556s2.823-1.1,3.311.119-1.466,1.844-1.466,1.844.851-.126,2.326,1.956,2.081,3.192,2.208,9.563,3.919,7.846,1.956,9.927" transform="translate(-733.247 -219.235)" fill="#01074e"/><g transform="translate(49.916 10.763)" opacity="0.56"><g clip-path="url(#ar)"><path d="M831.2,260.478c-1.911,2.037-4.659-.148-4.771-.23.059.363,1.141,6.631-1.6,7.586-2.815.978-3.311.118-3.311.118a3.614,3.614,0,0,1-3.43,2.578c-.067,0-.133.007-.192.007a3.964,3.964,0,0,1-3.608-2.341,20.821,20.821,0,0,0-7.23-8.7c-4.9-3.067-11.4-3.556-14.461-3.682s-3.43.985-4.9,1.229-4.385-1.088-4.526-5.208a6.174,6.174,0,0,0,5.548,2.386c4.245-.548,8.9-8.9,8.9-8.9s.133,3.971,3.082,2.874,4.378-4.652,4.378-4.652.615,3.622,1.571,3.489,1.3-3.563,1.3-3.563,1.163,4.792,2.327,4.859,1.711-3.556,1.711-3.556,2.119,4.86,4.311,8.9,3.282,3.148,5.675,3.215,1.986,2.6,1.986,2.6.615-.207.548-1.437a8.3,8.3,0,0,0-1.148-2.986,13.3,13.3,0,0,0,2.585,2.371c1.371.889,2.667-.274,1.03-3.489s-.141-4.245-1.163-8.215a7.236,7.236,0,0,0-3.9-5.06s1.578-1.3.548-1.852-1.5.615-1.5.615.482-2.874-.614-2.667-1.1,2.941-1.1,2.941-.067-1.022-1.852-2.941c-1.267-1.363-4.356-5.111-9.364-6.748,10.876.866,12.646,6.067,12.646,6.067s.533-2.859,1.378-2.859a.623.623,0,0,1,.459.281c1.1,1.349.363,3.556.363,3.556s2.823-1.1,3.311.119-1.466,1.844-1.466,1.844.851-.126,2.326,1.956,2.081,3.192,2.208,9.563,3.919,7.846,1.956,9.927" transform="translate(-783.165 -230.023)" fill="#4f0268"/></g></g><path d="M824.063,266.009c-1.223,3.06-3.43,2.7-3.43,2.7a18.231,18.231,0,0,1-11.519,9.312,30.748,30.748,0,0,1-3.823.741c-4.934.637-11.305.1-14.438-5.89a16.041,16.041,0,0,1-1.475-11.838,10.559,10.559,0,0,1,.742-2.008s1.466-.985,3.429-2.333c1.837-1.267,3.786-4.57,4.023-4.978-.192.393-1.555,3.438,2.23,2.407a11.469,11.469,0,0,0,6.126-4.289s-.245,3.186,1.718,2.571a2.149,2.149,0,0,0,1.511-2.4c.171,1.044.852,4.452,2.407,4.237a1.5,1.5,0,0,0,1.482-1.771,27.294,27.294,0,0,0,3.422,6.919c2.452,3.556,3.06,3.067,4.653,2.577s4.171.979,2.941,4.045" transform="translate(-734.202 -222.584)" fill="#ffae96"/><g transform="translate(55.175 27.246)" opacity="0.46"><g clip-path="url(#as)"><path d="M824.17,266.009c-1.222,3.06-3.43,2.7-3.43,2.7a18.23,18.23,0,0,1-11.519,9.312,30.749,30.749,0,0,1-3.823.741,21.808,21.808,0,0,0,6.593-3.971c3.919-3.622,4.326-9.764,2.867-11.927a13.577,13.577,0,0,1-1.815-5.268,3.553,3.553,0,0,1-2.46-.467,3.7,3.7,0,0,1-1.807-2.867s-1.526,1.526-3.163,1.171a1.525,1.525,0,0,1-1.222-1.926,13.164,13.164,0,0,1-4.978,3.334c-2.689.815-3.156-1.585-3.156-1.585s-3.756,5.156-6.771,5.779a10.555,10.555,0,0,1,.741-2.008s1.466-.985,3.429-2.333c1.837-1.267,3.786-4.57,4.023-4.978-.192.393-1.555,3.438,2.23,2.407a11.469,11.469,0,0,0,6.126-4.289s-.245,3.186,1.719,2.571a2.148,2.148,0,0,0,1.511-2.4c.171,1.044.852,4.452,2.407,4.237a1.5,1.5,0,0,0,1.482-1.771,27.294,27.294,0,0,0,3.422,6.919c2.453,3.556,3.06,3.067,4.653,2.577s4.171.979,2.941,4.045" transform="translate(-789.485 -249.83)" fill="#f06666"/></g></g><g transform="translate(49.905 10.642)" opacity="0.49"><g clip-path="url(#at)"><path d="M809.579,230.177c-11.216.415-14.987,3.289-19.291,8.556s-5.549,11.979-5.475,13.956a6.884,6.884,0,0,0,1.274,4.1c-1.371-.578-2.829-2.1-2.926-4.971a.2.2,0,0,1-.007-.067c-.126-4.163,3.556-21.076,19.365-21.817a44.2,44.2,0,0,1,5.5.067c.541.045,1.059.1,1.555.171Z" transform="translate(-783.152 -229.877)" fill="#3740a5"/></g></g><path d="M771.88,344.249H747.933a1.879,1.879,0,1,1,0-3.757H771.88a1.879,1.879,0,1,1,0,3.757" transform="translate(-727.021 -237.8)" fill="#0070b7"/><path d="M791.081,344.249H774.44a1.879,1.879,0,0,1,0-3.757h16.641a1.879,1.879,0,1,1,0,3.757" transform="translate(-731.469 -237.8)" fill="#64d4ff"/><path d="M770.7,339.388l-10.914-21.845,1.828-1.951,10.683,20.72Z" transform="translate(-729.325 -233.621)" fill="#64d4ff"/><path d="M754.671,317.936H729.313L744.159,340.1h21.579Z" transform="translate(-724.211 -234.014)" fill="#0070b7"/><path d="M756.4,315.8l-25.358-.488-1.829,2.438h25.358Z" transform="translate(-724.193 -233.574)" fill="#00558e"/><path d="M794.927,265.068c0,.766-.373,1.387-.832,1.387s-.833-.621-.833-1.387.373-1.387.833-1.387.832.621.832,1.387" transform="translate(-734.943 -224.908)" fill="#110222"/><path d="M813.7,265.068c0,.766-.373,1.387-.832,1.387s-.833-.621-.833-1.387.373-1.387.833-1.387.832.621.832,1.387" transform="translate(-738.093 -224.908)" fill="#110222"/><path d="M800.328,264.74a15.1,15.1,0,0,1,.524,2.03,1.447,1.447,0,0,1,.037.315.668.668,0,0,1-.17.434,1.676,1.676,0,0,1-.563.322,1.249,1.249,0,0,0-.568.543,1.289,1.289,0,0,0,.19,1.5,1.558,1.558,0,0,0,1.728.332,1.585,1.585,0,0,1-2.119.094,1.843,1.843,0,0,1-.64-1.045,1.823,1.823,0,0,1,.2-1.246,1.911,1.911,0,0,1,.942-.826c.211-.072.355-.108.364-.122,0,.027.044-.051.03-.239a14.974,14.974,0,0,1,.048-2.1" transform="translate(-735.858 -225.086)" fill="#8b1b1b"/><path d="M806.123,276.024a3.281,3.281,0,0,1-2.17,1.371,5.536,5.536,0,0,1-3.472-.191,4.036,4.036,0,0,1-2.209-2.312,1.145,1.145,0,0,1,.244-1.375.813.813,0,0,1,.464-.181,9.439,9.439,0,0,0,3.248-.21c1.79-.37,2.365-.9,3.1-.912a2.023,2.023,0,0,1,.327.029c.653.127,1.448,2.259.473,3.78" transform="translate(-735.766 -226.341)" fill="#ff2b4c"/><path d="M806.59,276.53a3.281,3.281,0,0,1-2.17,1.371,5.537,5.537,0,0,1-3.472-.191c.092-.648.571-1.663,2.487-2.312a2.589,2.589,0,0,1,3.155,1.132" transform="translate(-736.233 -226.846)" fill="#ff9797"/><path d="M805.263,273.229a16.513,16.513,0,0,1-5.789,1.132c-.7-.117-.873-.513-.887-.844a.809.809,0,0,1,.463-.181,9.439,9.439,0,0,0,3.248-.21c1.79-.37,2.365-.9,3.1-.912.088.4.117.839-.131,1.014" transform="translate(-735.837 -226.341)" fill="#fff"/><path d="M815.536,260.293a.37.37,0,0,1-.361-.291,2.236,2.236,0,0,0-3.535-1.31c-.189.142-.38.362-.352.554a.37.37,0,1,1-.733.106,1.366,1.366,0,0,1,.638-1.252,2.978,2.978,0,0,1,4.705,1.743.37.37,0,0,1-.282.441.379.379,0,0,1-.08.008" transform="translate(-737.844 -223.872)" fill="#3e1268"/><path d="M790.923,261.128h-.016a.372.372,0,0,1-.354-.386,2.291,2.291,0,0,1,1.347-1.916,2.889,2.889,0,0,1,2.294.01,4.162,4.162,0,0,1,1.722,1.418.37.37,0,1,1-.6.437,3.429,3.429,0,0,0-1.409-1.171,2.168,2.168,0,0,0-1.7-.02,1.532,1.532,0,0,0-.913,1.273.371.371,0,0,1-.37.355" transform="translate(-734.489 -224.055)" fill="#3e1268"/></g></g><g clip-path="url(#b)"><g transform="translate(130.214 328.976)" opacity="0.39"><g clip-path="url(#av)"><path d="M206.8,420.488a25.165,25.165,0,1,1-25.165-25.165A25.165,25.165,0,0,1,206.8,420.488" transform="translate(-156.475 -395.323)" fill="#bde038"/></g></g><g transform="translate(137.204 335.967)" opacity="0.36"><g clip-path="url(#aw)"><path d="M201.224,421.9a18.175,18.175,0,1,1-18.175-18.175A18.175,18.175,0,0,1,201.224,421.9" transform="translate(-164.875 -403.723)" fill="#bde038"/></g></g><path d="M196.76,423.025a12.582,12.582,0,1,1-12.582-12.582,12.582,12.582,0,0,1,12.582,12.582" transform="translate(-28.799 -68.884)" fill="#bde038"/><path d="M186.652,423.52h3.29V425.9h-3.29v3.719h-2.506V425.9h-3.3V423.52h3.3v-3.563h2.506Z" transform="translate(-30.351 -70.481)"/><g transform="translate(293.284 108.589)" opacity="0.39"><g clip-path="url(#av)"><path d="M402.762,155.654A25.165,25.165,0,1,1,377.6,130.489a25.165,25.165,0,0,1,25.165,25.165" transform="translate(-352.432 -130.489)" fill="#bde038"/></g></g><g transform="translate(300.274 115.579)" opacity="0.36"><g clip-path="url(#aw)"><path d="M397.181,157.064a18.175,18.175,0,1,1-18.175-18.175,18.175,18.175,0,0,1,18.175,18.175" transform="translate(-360.832 -138.889)" fill="#bde038"/></g></g><path d="M392.717,158.191a12.582,12.582,0,1,1-12.582-12.582,12.582,12.582,0,0,1,12.582,12.582" transform="translate(-61.686 -24.437)" fill="#bde038"/><path d="M382.608,158.686h3.29v2.378h-3.29v3.719H380.1v-3.719h-3.3v-2.378h3.3v-3.563h2.506Z" transform="translate(-63.238 -26.034)"/><g transform="translate(716.862 276.627)"><g opacity="0.39"><g clip-path="url(#av)"><path d="M911.766,357.581A25.165,25.165,0,1,1,886.6,332.416a25.165,25.165,0,0,1,25.165,25.165" transform="translate(-861.436 -332.416)" fill="#bde038"/></g></g><g transform="translate(6.99 6.99)" opacity="0.36"><g clip-path="url(#aw)"><path d="M906.185,358.991a18.175,18.175,0,1,1-18.175-18.175,18.175,18.175,0,0,1,18.175,18.175" transform="translate(-869.836 -340.816)" fill="#bde038"/></g></g><path d="M901.721,360.118a12.582,12.582,0,1,1-12.582-12.582,12.582,12.582,0,0,1,12.582,12.582" transform="translate(-863.974 -334.954)" fill="#bde038"/><path d="M891.612,360.614h3.29v2.378h-3.29v3.719h-2.506v-3.719h-3.3v-2.378h3.3v-3.563h2.506Z" transform="translate(-865.526 -336.55)"/></g></g></g></svg>