<svg xmlns="http://www.w3.org/2000/svg" xmlns:xlink="http://www.w3.org/1999/xlink" width="820" height="555.583" viewBox="0 0 820 555.583">
  <defs>
    <clipPath id="clip-path">
      <rect id="Rectángulo_38497" data-name="Rectángulo 38497" width="757.628" height="525.343" fill="none"/>
    </clipPath>
    <clipPath id="clip-path-5">
      <rect id="Rectángulo_38351" data-name="Rectángulo 38351" width="60.48" height="60.48" transform="translate(861.436 332.416)" fill="none"/>
    </clipPath>
    <clipPath id="clip-path-6">
      <rect id="Rectángulo_38352" data-name="Rectángulo 38352" width="43.68" height="43.68" transform="translate(869.836 340.816)" fill="none"/>
    </clipPath>
  </defs>
  <g id="Grupo_147265" data-name="Grupo 147265" transform="translate(-390 -1364)">
    <g id="Grupo_147249" data-name="Grupo 147249" transform="translate(-3258.318 10812.672)">
      <path id="Trazado_207350" data-name="Trazado 207350" d="M351.133,284.16A187.229,187.229,0,0,1,248.5,246.33" transform="translate(3680.318 -9448.672)" fill="none" stroke="#0043ff" stroke-miterlimit="10" stroke-width="3"/>
      <path id="Trazado_207351" data-name="Trazado 207351" d="M492.76,230.39a187.012,187.012,0,0,1-141.627,53.77" transform="translate(3680.318 -9448.672)" fill="none" stroke="#3740a5" stroke-miterlimit="10" stroke-width="6"/>
      <path id="Trazado_207364" data-name="Trazado 207364" d="M543.647,137.739A187.241,187.241,0,0,1,492.76,230.39" transform="translate(3680.318 -9448.672)" fill="none" stroke="#00ece1" stroke-miterlimit="10" stroke-width="5"/>
      <path id="Trazado_207361" data-name="Trazado 207361" d="M256.422,246.838a5.583,5.583,0,1,1-7.192-3.259,5.583,5.583,0,0,1,7.192,3.259" transform="translate(3680.318 -9448.672)" fill="#fff"/>
      <path id="Trazado_207362" data-name="Trazado 207362" d="M256.422,246.838a5.583,5.583,0,1,1-7.192-3.259A5.583,5.583,0,0,1,256.422,246.838Z" transform="translate(3680.318 -9448.672)" fill="none" stroke="#0043ff" stroke-miterlimit="10" stroke-width="1.5"/>
      <path id="Trazado_207365" data-name="Trazado 207365" d="M500.878,227.342a8.376,8.376,0,1,1-10.788-4.89,8.375,8.375,0,0,1,10.788,4.89" transform="translate(3680.318 -9448.672)" fill="#fff"/>
      <path id="Trazado_207366" data-name="Trazado 207366" d="M500.878,227.342a8.376,8.376,0,1,1-10.788-4.89A8.375,8.375,0,0,1,500.878,227.342Z" transform="translate(3680.318 -9448.672)" fill="none" stroke="#00ece1" stroke-miterlimit="10" stroke-width="1.26"/>
      <path id="Trazado_207352" data-name="Trazado 207352" d="M357.436,281.31a6.8,6.8,0,1,1-8.762-3.971,6.8,6.8,0,0,1,8.762,3.971" transform="translate(3680.318 -9448.672)" fill="#fff"/>
      <path id="Trazado_207353" data-name="Trazado 207353" d="M357.436,281.31a6.8,6.8,0,1,1-8.762-3.971A6.8,6.8,0,0,1,357.436,281.31Z" transform="translate(3680.318 -9448.672)" fill="none" stroke="#3740a5" stroke-miterlimit="10" stroke-width="1.624"/>
      <path id="Trazado_207354" data-name="Trazado 207354" d="M359.062,315.745a247.737,247.737,0,0,1-53.889-5.9,21.076,21.076,0,0,0-24.328,13.46L227.083,471.578a21.112,21.112,0,0,0,14.193,27.578,448.706,448.706,0,0,0,235.569,0,21.109,21.109,0,0,0,14.193-27.577L437.277,323.3a21.08,21.08,0,0,0-24.329-13.461,247.71,247.71,0,0,1-53.886,5.9" transform="translate(3680.318 -9448.672)" fill="#d8dbe8"/>
      <path id="Trazado_207355" data-name="Trazado 207355" d="M142.377,223.584,9.722,308.813a21.159,21.159,0,0,0-5.37,30.651A447.956,447.956,0,0,0,173.363,474.532a21.163,21.163,0,0,0,28.713-12.018l53.762-148.276a21.2,21.2,0,0,0-10.286-26.045,248.183,248.183,0,0,1-75.484-60.329,21.209,21.209,0,0,0-27.691-4.28" transform="translate(3680.318 -9448.672)" fill="#d8dbe8"/>
      <path id="Trazado_207356" data-name="Trazado 207356" d="M462.284,314.239l53.761,148.277a21.163,21.163,0,0,0,28.713,12.018A447.972,447.972,0,0,0,713.77,339.465a21.159,21.159,0,0,0-5.371-30.651L575.745,223.585a21.209,21.209,0,0,0-27.691,4.28,248.187,248.187,0,0,1-75.485,60.329,21.2,21.2,0,0,0-10.285,26.045" transform="translate(3680.318 -9448.672)" fill="#d8dbe8"/>
      <path id="Trazado_207357" data-name="Trazado 207357" d="M486.867,133.414A127.806,127.806,0,1,1,359.061,5.608,127.806,127.806,0,0,1,486.867,133.414" transform="translate(3680.318 -9448.672)" fill="#1e847c"/>
      <path id="Trazado_207358" data-name="Trazado 207358" d="M359.062,310.169a247.737,247.737,0,0,1-53.889-5.9,21.076,21.076,0,0,0-24.328,13.46L227.083,466a21.112,21.112,0,0,0,14.193,27.578,448.706,448.706,0,0,0,235.569,0A21.109,21.109,0,0,0,491.038,466L437.277,317.725a21.08,21.08,0,0,0-24.329-13.461,247.71,247.71,0,0,1-53.886,5.9" transform="translate(3680.318 -9448.672)" fill="#213b82"/>
      <path id="Trazado_207359" data-name="Trazado 207359" d="M142.377,218.007,9.722,303.236a21.16,21.16,0,0,0-5.37,30.652A447.975,447.975,0,0,0,173.363,468.956a21.164,21.164,0,0,0,28.713-12.019l53.762-148.276a21.2,21.2,0,0,0-10.286-26.045,248.183,248.183,0,0,1-75.484-60.329,21.209,21.209,0,0,0-27.691-4.28" transform="translate(3680.318 -9448.672)" fill="#0043ff"/>
      <path id="Trazado_207360" data-name="Trazado 207360" d="M462.284,308.662l53.761,148.277a21.163,21.163,0,0,0,28.713,12.018A447.972,447.972,0,0,0,713.77,333.888a21.159,21.159,0,0,0-5.371-30.651L575.745,218.008a21.209,21.209,0,0,0-27.691,4.28,248.187,248.187,0,0,1-75.485,60.329,21.2,21.2,0,0,0-10.285,26.045" transform="translate(3680.318 -9448.672)" fill="#0ccbc3"/>
      <path id="Trazado_207363" data-name="Trazado 207363" d="M474.928,73.9a127.806,127.806,0,1,1-169.8-61.931A127.806,127.806,0,0,1,474.928,73.9" transform="translate(3680.318 -9448.672)" fill="#33aea8"/>
      <rect id="Rectángulo_38496" data-name="Rectángulo 38496" width="757.628" height="525.343" transform="translate(3680.318 -9448.672)" fill="none"/>
      <path id="Trazado_207372" data-name="Trazado 207372" d="M14.937-5.943l.024.073a5.665,5.665,0,0,1-1.7,4.57A7.214,7.214,0,0,1,8.3.254a7.057,7.057,0,0,1-5.247-2A7.107,7.107,0,0,1,1.077-6.972v-3.68a7.264,7.264,0,0,1,1.907-5.223,6.637,6.637,0,0,1,5.042-2,7.77,7.77,0,0,1,5.187,1.562A5.5,5.5,0,0,1,15-11.778l-.036.073H10.979a3.239,3.239,0,0,0-.69-2.324,3.079,3.079,0,0,0-2.264-.7,2.394,2.394,0,0,0-2.118,1.108,5.237,5.237,0,0,0-.738,2.948v3.7A4.929,4.929,0,0,0,5.98-4.007,2.7,2.7,0,0,0,8.3-2.893a2.588,2.588,0,0,0,2.028-.7,3.521,3.521,0,0,0,.623-2.348ZM27.044-3.426H21.8L20.786,0H16.477l5.75-17.625h2.191v.012l.012-.012H26.62L32.382,0H28.073Zm-4.3-3.147H26.1l-1.646-5.471h-.073Zm15.581-.182V0H34.236V-17.625h6.137a7.619,7.619,0,0,1,4.854,1.416,4.67,4.67,0,0,1,1.792,3.874,3.857,3.857,0,0,1-.72,2.348,5.107,5.107,0,0,1-2.124,1.6A3.944,3.944,0,0,1,46.5-6.857a4.74,4.74,0,0,1,.708,2.669v1.114A7.027,7.027,0,0,0,47.418-1.5a2.082,2.082,0,0,0,.714,1.259V0H43.908a1.98,1.98,0,0,1-.629-1.319A11.729,11.729,0,0,1,43.133-3.1V-4.164a2.606,2.606,0,0,0-.666-1.925,2.641,2.641,0,0,0-1.949-.666Zm0-3.147H40.4a2.814,2.814,0,0,0,1.888-.563,2.016,2.016,0,0,0,.654-1.616,2.325,2.325,0,0,0-.672-1.737,2.589,2.589,0,0,0-1.894-.66H38.328ZM59.864-3.426H54.623L53.606,0H49.3l5.75-17.625h2.191v.012l.012-.012H59.44L65.2,0H60.893Zm-4.3-3.147H58.92l-1.646-5.471H57.2Zm24.641.629.024.073a5.665,5.665,0,0,1-1.7,4.57A7.214,7.214,0,0,1,73.575.254a7.057,7.057,0,0,1-5.247-2,7.107,7.107,0,0,1-1.979-5.229v-3.68a7.264,7.264,0,0,1,1.907-5.223,6.637,6.637,0,0,1,5.042-2,7.77,7.77,0,0,1,5.187,1.562,5.5,5.5,0,0,1,1.785,4.539l-.036.073H76.25a3.239,3.239,0,0,0-.69-2.324,3.079,3.079,0,0,0-2.264-.7,2.394,2.394,0,0,0-2.118,1.108,5.237,5.237,0,0,0-.738,2.948v3.7a4.929,4.929,0,0,0,.811,2.966,2.7,2.7,0,0,0,2.324,1.114A2.588,2.588,0,0,0,75.6-3.6a3.521,3.521,0,0,0,.623-2.348Zm14.447-8.534h-4.66V0H85.9V-14.477H81.328v-3.147H94.655ZM107.21-7.541H101v4.394h7.444V0H96.908V-17.625h11.548v3.147H101v3.789h6.21Zm8.246.787V0h-4.091V-17.625H117.5a7.619,7.619,0,0,1,4.854,1.416,4.67,4.67,0,0,1,1.792,3.874,3.857,3.857,0,0,1-.72,2.348,5.107,5.107,0,0,1-2.124,1.6,3.944,3.944,0,0,1,2.33,1.531,4.739,4.739,0,0,1,.708,2.669v1.114a7.027,7.027,0,0,0,.206,1.574,2.082,2.082,0,0,0,.714,1.259V0h-4.225a1.98,1.98,0,0,1-.629-1.319,11.729,11.729,0,0,1-.145-1.779V-4.164a2.606,2.606,0,0,0-.666-1.925,2.641,2.641,0,0,0-1.949-.666Zm0-3.147h2.07a2.814,2.814,0,0,0,1.888-.563,2.016,2.016,0,0,0,.654-1.616,2.325,2.325,0,0,0-.672-1.737,2.589,2.589,0,0,0-1.894-.66h-2.046ZM132.1,0h-4.079V-17.625H132.1ZM130.54-22.6h4.491l.024.073-3.4,3.147h-3.607ZM144.874-4.672a1.757,1.757,0,0,0-.617-1.447,8.007,8.007,0,0,0-2.239-1.071,17,17,0,0,1-4.872-2.27,4.086,4.086,0,0,1-1.592-3.468,4.252,4.252,0,0,1,1.852-3.583,7.717,7.717,0,0,1,4.709-1.368,7.769,7.769,0,0,1,4.854,1.41,4.572,4.572,0,0,1,1.779,3.976l-.024.073h-3.97a2.223,2.223,0,0,0-.678-1.81,3.149,3.149,0,0,0-2.046-.563,2.626,2.626,0,0,0-1.755.545,1.7,1.7,0,0,0-.642,1.344,1.448,1.448,0,0,0,.66,1.241,12.88,12.88,0,0,0,2.463,1.168,13.127,13.127,0,0,1,4.636,2.215A4.409,4.409,0,0,1,148.966-4.7a4.24,4.24,0,0,1-1.816,3.638A8.045,8.045,0,0,1,142.332.254a8.8,8.8,0,0,1-5.066-1.41,4.855,4.855,0,0,1-2.015-4.436l.024-.073h3.982a2.743,2.743,0,0,0,.757,2.185,3.5,3.5,0,0,0,2.318.648,3.008,3.008,0,0,0,1.913-.508A1.629,1.629,0,0,0,144.874-4.672Zm19.2-9.8h-4.66V0h-4.091V-14.477h-4.576v-3.147h13.327ZM170.662,0h-4.079V-17.625h4.079Zm17.215-5.943.024.073a5.665,5.665,0,0,1-1.7,4.57A7.214,7.214,0,0,1,181.244.254a7.057,7.057,0,0,1-5.247-2,7.107,7.107,0,0,1-1.979-5.229v-3.68a7.264,7.264,0,0,1,1.907-5.223,6.637,6.637,0,0,1,5.042-2,7.77,7.77,0,0,1,5.187,1.562,5.5,5.5,0,0,1,1.785,4.539l-.036.073h-3.982a3.239,3.239,0,0,0-.69-2.324,3.079,3.079,0,0,0-2.264-.7,2.394,2.394,0,0,0-2.118,1.108,5.237,5.237,0,0,0-.738,2.948v3.7a4.929,4.929,0,0,0,.811,2.966,2.7,2.7,0,0,0,2.324,1.114,2.588,2.588,0,0,0,2.028-.7,3.521,3.521,0,0,0,.623-2.348Zm12.107,2.518h-5.241L193.726,0h-4.309l5.75-17.625h2.191v.012l.012-.012h2.191L205.322,0h-4.309Zm-4.3-3.147h3.353l-1.646-5.471h-.073Zm20.58,1.9a1.757,1.757,0,0,0-.617-1.447A8.007,8.007,0,0,0,213.41-7.19a17,17,0,0,1-4.872-2.27,4.086,4.086,0,0,1-1.592-3.468,4.252,4.252,0,0,1,1.852-3.583,7.717,7.717,0,0,1,4.709-1.368,7.768,7.768,0,0,1,4.854,1.41,4.572,4.572,0,0,1,1.779,3.976l-.024.073h-3.97a2.223,2.223,0,0,0-.678-1.81,3.149,3.149,0,0,0-2.046-.563,2.626,2.626,0,0,0-1.755.545,1.7,1.7,0,0,0-.642,1.344,1.448,1.448,0,0,0,.66,1.241,12.88,12.88,0,0,0,2.463,1.168,13.127,13.127,0,0,1,4.636,2.215A4.409,4.409,0,0,1,220.358-4.7a4.24,4.24,0,0,1-1.816,3.638A8.045,8.045,0,0,1,213.725.254a8.8,8.8,0,0,1-5.066-1.41,4.855,4.855,0,0,1-2.015-4.436l.024-.073h3.982a2.743,2.743,0,0,0,.757,2.185,3.5,3.5,0,0,0,2.318.648,3.008,3.008,0,0,0,1.913-.508A1.629,1.629,0,0,0,216.267-4.672Z" transform="translate(3924.048 -9288.503)" fill="#fff"/>
      <path id="Trazado_207371" data-name="Trazado 207371" d="M1-5.342A7.4,7.4,0,0,1,2.148-9.659a3.684,3.684,0,0,1,3.2-1.641,3.973,3.973,0,0,1,1.728.359A3.541,3.541,0,0,1,8.367-9.9V-16h2.02V0H8.839L8.531-1.4A3.6,3.6,0,0,1,7.188-.195a4.013,4.013,0,0,1-1.856.41A3.808,3.808,0,0,1,2.153-1.256,6.115,6.115,0,0,1,1-5.127Zm2.02.215a4.71,4.71,0,0,0,.687,2.692,2.4,2.4,0,0,0,2.133,1.01,2.676,2.676,0,0,0,1.518-.41,3.063,3.063,0,0,0,1-1.148V-8.162a3.11,3.11,0,0,0-1.01-1.092,2.669,2.669,0,0,0-1.492-.405,2.309,2.309,0,0,0-2.148,1.2,6.193,6.193,0,0,0-.692,3.117ZM19.046.215a4.694,4.694,0,0,1-3.727-1.528,5.88,5.88,0,0,1-1.338-4.02v-.451a5.756,5.756,0,0,1,1.379-3.953A4.325,4.325,0,0,1,18.728-11.3a4.026,4.026,0,0,1,3.338,1.384,5.7,5.7,0,0,1,1.113,3.681v1.066h-7.1l-.031.051A4.586,4.586,0,0,0,16.79-2.4a2.58,2.58,0,0,0,2.256,1.041,5.082,5.082,0,0,0,1.8-.292,4.017,4.017,0,0,0,1.328-.8l.79,1.313a4.855,4.855,0,0,1-1.569.969A6.25,6.25,0,0,1,19.046.215ZM18.728-9.71a2.2,2.2,0,0,0-1.748.815,3.857,3.857,0,0,0-.846,2.087l.021.051h5v-.164a3.231,3.231,0,0,0-.595-2A2.149,2.149,0,0,0,18.728-9.71ZM34.947,0h-2.02V-16h2.02ZM45.923,0q-.1-.5-.159-.887a6.51,6.51,0,0,1-.067-.774A4.71,4.71,0,0,1,44.226-.323a3.763,3.763,0,0,1-1.953.538,3.627,3.627,0,0,1-2.64-.887,3.262,3.262,0,0,1-.907-2.446A2.865,2.865,0,0,1,40.012-5.6,6.01,6.01,0,0,1,43.5-6.5H45.7V-7.6A2.035,2.035,0,0,0,45.1-9.141a2.335,2.335,0,0,0-1.682-.569,2.44,2.44,0,0,0-1.589.492,1.477,1.477,0,0,0-.6,1.179l-1.917.021-.021-.062a2.656,2.656,0,0,1,1.133-2.215,4.7,4.7,0,0,1,3.112-1,4.581,4.581,0,0,1,3.035.959,3.4,3.4,0,0,1,1.148,2.763v5.342a10.4,10.4,0,0,0,.062,1.148A5.905,5.905,0,0,0,48,0ZM42.57-1.477a3.6,3.6,0,0,0,1.979-.564A2.681,2.681,0,0,0,45.7-3.333v-1.8H43.431a2.94,2.94,0,0,0-1.953.615,1.84,1.84,0,0,0-.733,1.446,1.521,1.521,0,0,0,.461,1.169A1.932,1.932,0,0,0,42.57-1.477ZM58.15-2.984a1.346,1.346,0,0,0-.508-1.087,4.9,4.9,0,0,0-1.923-.738,8.067,8.067,0,0,1-3.01-1.179,2.381,2.381,0,0,1-1.051-2.03,2.926,2.926,0,0,1,1.154-2.317A4.505,4.505,0,0,1,55.8-11.3a4.465,4.465,0,0,1,3.056,1.025,2.938,2.938,0,0,1,1.118,2.389l-.021.062H58.027a1.747,1.747,0,0,0-.631-1.3A2.254,2.254,0,0,0,55.8-9.71a2.3,2.3,0,0,0-1.594.482,1.5,1.5,0,0,0-.528,1.148,1.217,1.217,0,0,0,.456,1.015,5.051,5.051,0,0,0,1.882.656,7.951,7.951,0,0,1,3.1,1.22A2.457,2.457,0,0,1,60.17-3.127a2.921,2.921,0,0,1-1.195,2.41,4.927,4.927,0,0,1-3.122.933A4.876,4.876,0,0,1,52.51-.861a3.072,3.072,0,0,1-1.159-2.512l.021-.062H53.3a1.868,1.868,0,0,0,.8,1.574,3.1,3.1,0,0,0,1.753.5A2.762,2.762,0,0,0,57.54-1.82,1.4,1.4,0,0,0,58.15-2.984ZM74.472-8.49a2.367,2.367,0,0,0,1.912-.672,2.86,2.86,0,0,0,.559-1.882,2.652,2.652,0,0,0-.61-1.82,2.285,2.285,0,0,0-1.81-.692,2.7,2.7,0,0,0-1.933.723,2.388,2.388,0,0,0-.764,1.81H69.9l-.031-.062a3.568,3.568,0,0,1,1.271-2.871,4.869,4.869,0,0,1,3.384-1.189,4.728,4.728,0,0,1,3.261,1.051A3.926,3.926,0,0,1,78.963-11,3.478,3.478,0,0,1,78.415-9.1a3.7,3.7,0,0,1-1.533,1.343A3.528,3.528,0,0,1,78.6-6.383a4.021,4.021,0,0,1,.59,2.22,4.1,4.1,0,0,1-1.3,3.215A4.853,4.853,0,0,1,74.523.215,5.333,5.333,0,0,1,71.165-.907a3.439,3.439,0,0,1-1.4-2.969l.021-.062h1.928a2.422,2.422,0,0,0,.784,1.83,2.824,2.824,0,0,0,2.025.743,2.512,2.512,0,0,0,1.938-.764,2.818,2.818,0,0,0,.708-1.994,2.984,2.984,0,0,0-.651-2.1,2.679,2.679,0,0,0-2.046-.7H72.811V-8.49Zm25.581,3.712.021.062A4.485,4.485,0,0,1,98.6-1.2,5.643,5.643,0,0,1,94.588.215,5.265,5.265,0,0,1,90.46-1.579a6.6,6.6,0,0,1-1.594-4.553V-8.788a6.618,6.618,0,0,1,1.594-4.558,5.259,5.259,0,0,1,4.127-1.8,5.8,5.8,0,0,1,4.03,1.348,4.458,4.458,0,0,1,1.456,3.573l-.021.062H98.115a3.332,3.332,0,0,0-.923-2.481,3.545,3.545,0,0,0-2.6-.913,3.181,3.181,0,0,0-2.7,1.364,5.548,5.548,0,0,0-1,3.384v2.676a5.583,5.583,0,0,0,1,3.4,3.181,3.181,0,0,0,2.7,1.364,3.557,3.557,0,0,0,2.6-.907,3.356,3.356,0,0,0,.923-2.507Zm5.182,4.286L103.7,2.646h-1.2l.718-3.24V-2.266h2.02Zm19.131-4.635a6.115,6.115,0,0,1-1.148,3.871A3.8,3.8,0,0,1,120.05.215a4.4,4.4,0,0,1-1.8-.344,3.441,3.441,0,0,1-1.318-1.031V4.266h-2.02v-15.36h1.548l.318,1.436a3.664,3.664,0,0,1,1.354-1.22,4.04,4.04,0,0,1,1.887-.42,3.687,3.687,0,0,1,3.2,1.635,7.4,7.4,0,0,1,1.143,4.322Zm-2.02-.215a5.863,5.863,0,0,0-.743-3.1,2.409,2.409,0,0,0-2.189-1.215,2.7,2.7,0,0,0-1.487.395,2.953,2.953,0,0,0-.995,1.082V-2.82a2.869,2.869,0,0,0,.995,1.072,2.79,2.79,0,0,0,1.507.385,2.486,2.486,0,0,0,2.174-1.051,4.615,4.615,0,0,0,.738-2.712ZM134.7,0q-.1-.5-.159-.887a6.51,6.51,0,0,1-.067-.774A4.71,4.71,0,0,1,133-.323a3.763,3.763,0,0,1-1.953.538,3.627,3.627,0,0,1-2.64-.887,3.262,3.262,0,0,1-.907-2.446A2.865,2.865,0,0,1,128.785-5.6a6.01,6.01,0,0,1,3.491-.9h2.194V-7.6a2.035,2.035,0,0,0-.595-1.543,2.335,2.335,0,0,0-1.682-.569,2.44,2.44,0,0,0-1.589.492,1.477,1.477,0,0,0-.6,1.179l-1.917.021-.021-.062a2.656,2.656,0,0,1,1.133-2.215,4.7,4.7,0,0,1,3.112-1,4.581,4.581,0,0,1,3.035.959,3.4,3.4,0,0,1,1.148,2.763v5.342a10.4,10.4,0,0,0,.062,1.148A5.905,5.905,0,0,0,136.777,0Zm-3.353-1.477a3.6,3.6,0,0,0,1.979-.564,2.681,2.681,0,0,0,1.148-1.292v-1.8H132.2a2.94,2.94,0,0,0-1.953.615,1.84,1.84,0,0,0-.733,1.446,1.521,1.521,0,0,0,.461,1.169A1.932,1.932,0,0,0,131.343-1.477Zm14.38-7.834-1.036-.062a2.313,2.313,0,0,0-1.348.379,2.434,2.434,0,0,0-.846,1.066V0h-2.02V-11.095h1.8l.195,1.62a3.851,3.851,0,0,1,1.164-1.343,2.721,2.721,0,0,1,1.594-.482,2.5,2.5,0,0,1,.431.036,2.854,2.854,0,0,1,.338.077ZM155.274,0q-.1-.5-.159-.887a6.51,6.51,0,0,1-.067-.774,4.71,4.71,0,0,1-1.471,1.338,3.763,3.763,0,0,1-1.953.538,3.627,3.627,0,0,1-2.64-.887,3.262,3.262,0,0,1-.907-2.446A2.865,2.865,0,0,1,149.362-5.6a6.01,6.01,0,0,1,3.491-.9h2.194V-7.6a2.035,2.035,0,0,0-.595-1.543,2.335,2.335,0,0,0-1.682-.569,2.44,2.44,0,0,0-1.589.492,1.477,1.477,0,0,0-.6,1.179l-1.917.021-.021-.062a2.656,2.656,0,0,1,1.133-2.215,4.7,4.7,0,0,1,3.112-1,4.581,4.581,0,0,1,3.035.959,3.4,3.4,0,0,1,1.148,2.763v5.342a10.4,10.4,0,0,0,.062,1.148A5.905,5.905,0,0,0,157.355,0Zm-3.353-1.477a3.6,3.6,0,0,0,1.979-.564,2.681,2.681,0,0,0,1.148-1.292v-1.8h-2.266a2.94,2.94,0,0,0-1.953.615,1.84,1.84,0,0,0-.733,1.446,1.521,1.521,0,0,0,.461,1.169A1.932,1.932,0,0,0,151.921-1.477Z" transform="translate(3961.825 -9262.204)" fill="#fff"/>
      <path id="Trazado_207370" data-name="Trazado 207370" d="M.923,0,3.158-14.93H8.029a5.238,5.238,0,0,1,3.461,1.02,3.077,3.077,0,0,1,.918,3.02,3.283,3.283,0,0,1-.851,1.753A4.418,4.418,0,0,1,9.813-7.988,2.905,2.905,0,0,1,11.93-6.711a3.512,3.512,0,0,1,.487,2.5,4.528,4.528,0,0,1-1.794,3.174A6.389,6.389,0,0,1,6.839,0ZM3.989-7l-.81,5.424h3.9A3.539,3.539,0,0,0,9.3-2.266a2.855,2.855,0,0,0,1.077-1.928A2.391,2.391,0,0,0,9.9-6.219,2.635,2.635,0,0,0,7.916-7H3.989Zm.236-1.579H7.506a3.058,3.058,0,0,0,1.907-.625,2.548,2.548,0,0,0,.984-1.723,1.906,1.906,0,0,0-.482-1.83,3.2,3.2,0,0,0-2.123-.579H4.942ZM21.844,0q-.021-.574-.021-.928a6.545,6.545,0,0,1,.041-.723A5.99,5.99,0,0,1,20.188-.323a4.191,4.191,0,0,1-2.025.538,3.163,3.163,0,0,1-2.476-.9,2.828,2.828,0,0,1-.569-2.435,3.392,3.392,0,0,1,1.641-2.512A6.817,6.817,0,0,1,20.4-6.5h2.194l.164-1.1A1.8,1.8,0,0,0,22.4-9.162a2.091,2.091,0,0,0-1.6-.549,2.8,2.8,0,0,0-1.641.492,1.712,1.712,0,0,0-.8,1.179l-1.928.021-.01-.062a3.179,3.179,0,0,1,1.466-2.24,5.384,5.384,0,0,1,3.261-.979A4.008,4.008,0,0,1,24-10.331a2.963,2.963,0,0,1,.779,2.753l-.8,5.342a8.775,8.775,0,0,0-.118,1.164A5.921,5.921,0,0,0,23.926,0ZM18.717-1.477a3.979,3.979,0,0,0,2.03-.574,3.43,3.43,0,0,0,1.364-1.292l.277-1.794H20.122a3.334,3.334,0,0,0-2.03.625,2.167,2.167,0,0,0-.964,1.436A1.327,1.327,0,0,0,17.4-1.892,1.76,1.76,0,0,0,18.717-1.477Zm13.519.113a2.724,2.724,0,0,0,1.7-.625,2.366,2.366,0,0,0,.948-1.518h1.825l.021.062a3.787,3.787,0,0,1-1.6,2.579A5.037,5.037,0,0,1,32,.215a3.724,3.724,0,0,1-3.317-1.6,5.4,5.4,0,0,1-.733-3.943l.062-.431a7.11,7.11,0,0,1,1.866-3.984A5.105,5.105,0,0,1,33.723-11.3a3.635,3.635,0,0,1,2.84,1.159,3.159,3.159,0,0,1,.749,2.82l-.021.051H35.445a2.2,2.2,0,0,0-.39-1.748,1.876,1.876,0,0,0-1.569-.692,2.78,2.78,0,0,0-2.317,1.174,5.928,5.928,0,0,0-1.128,2.774l-.062.431a5.056,5.056,0,0,0,.236,2.845A1.987,1.987,0,0,0,32.236-1.364ZM43.509-5.117H42.463L41.694,0h-2.02l2.4-16h2.02L42.7-6.727h1.015L47.7-11.095h2.338l.031.062L45.334-5.978,48.81,0H46.421ZM53.643,0h-2.02l2.4-16h2.02Zm4.515-5.65a7.07,7.07,0,0,1,1.933-4.1A5.25,5.25,0,0,1,63.952-11.3,3.861,3.861,0,0,1,67.31-9.7a5.38,5.38,0,0,1,.784,4.045l-.041.226a7.081,7.081,0,0,1-1.938,4.107A5.273,5.273,0,0,1,62.25.215a3.865,3.865,0,0,1-3.358-1.6,5.332,5.332,0,0,1-.774-4.04Zm1.979.226a4.831,4.831,0,0,0,.3,2.943,2.1,2.1,0,0,0,2.051,1.118,2.9,2.9,0,0,0,2.333-1.164,5.908,5.908,0,0,0,1.215-2.9l.041-.226a4.833,4.833,0,0,0-.313-2.933A2.1,2.1,0,0,0,63.716-9.71a2.9,2.9,0,0,0-2.343,1.174A5.807,5.807,0,0,0,60.179-5.65Zm11.047.082A8.414,8.414,0,0,1,72.969-9.71,4.365,4.365,0,0,1,76.414-11.3a3.4,3.4,0,0,1,1.774.441,3.1,3.1,0,0,1,1.169,1.271l.472-1.507h1.61L79.767.062a5,5,0,0,1-1.728,3.317,5.883,5.883,0,0,1-3.758,1.1A7.046,7.046,0,0,1,72.6,4.255a6.079,6.079,0,0,1-1.559-.595l.543-1.569a5.146,5.146,0,0,0,1.338.5,6.845,6.845,0,0,0,1.594.19,3.328,3.328,0,0,0,2.22-.682A3.177,3.177,0,0,0,77.747.062L77.932-1.2A4.4,4.4,0,0,1,76.471-.144a4.418,4.418,0,0,1-1.8.359,3.236,3.236,0,0,1-2.912-1.487,5.42,5.42,0,0,1-.6-3.855Zm1.989.215a4.309,4.309,0,0,0,.272,2.717,2.058,2.058,0,0,0,1.984.984A2.918,2.918,0,0,0,77-1.851a4.058,4.058,0,0,0,1.21-1.195l.769-5.076a2.635,2.635,0,0,0-.856-1.123,2.353,2.353,0,0,0-1.441-.415,2.751,2.751,0,0,0-2.292,1.22,6.755,6.755,0,0,0-1.184,3.1Z" transform="translate(4001.683 -9237.004)" fill="#fff"/>
      <g id="Grupo_147249-2" data-name="Grupo 147249" transform="translate(3680.318 -9448.672)" clip-path="url(#clip-path)">
        <path id="Trazado_207328" data-name="Trazado 207328" d="M134.224,420.468H19.56a7.68,7.68,0,0,1-7.68-7.68V380.46a7.681,7.681,0,0,1,7.68-7.68H134.224a7.68,7.68,0,0,1,7.68,7.68v32.328a7.679,7.679,0,0,1-7.68,7.68" fill="#d8dbe8"/>
        <path id="Trazado_207329" data-name="Trazado 207329" d="M134.224,416.859H22.136a7.679,7.679,0,0,1-7.68-7.68V380.461a7.68,7.68,0,0,1,7.68-7.68H134.224a7.68,7.68,0,0,1,7.68,7.68v28.718a7.679,7.679,0,0,1-7.68,7.68" fill="#fff"/>
      </g>
      <path id="Trazado_207369" data-name="Trazado 207369" d="M10.57,0H6.706V-15.962h-4v-2.961l7.861-.691ZM22.753,0H18.875V-3.4h3.878ZM50.5-6.4l.027.08a7.112,7.112,0,0,1-2.59,4.907A8.874,8.874,0,0,1,42.31.279,6.388,6.388,0,0,1,37.1-1.979,7.029,7.029,0,0,1,35.75-7.742l.584-3.838a9.516,9.516,0,0,1,2.941-5.85A8.335,8.335,0,0,1,45.1-19.614a7.144,7.144,0,0,1,5.192,1.746,5.16,5.16,0,0,1,1.275,4.84l-.04.08H47.755a3.423,3.423,0,0,0-.465-2.8,3.352,3.352,0,0,0-2.643-.876,3.707,3.707,0,0,0-2.895,1.421,7.006,7.006,0,0,0-1.554,3.6l-.584,3.864a5.506,5.506,0,0,0,.471,3.678A2.861,2.861,0,0,0,42.749-2.7a3.9,3.9,0,0,0,2.7-.923A4.49,4.49,0,0,0,46.759-6.4ZM61.876,0a6.3,6.3,0,0,1-.212-1.042,7.845,7.845,0,0,1-.053-1.122A6.6,6.6,0,0,1,59.771-.412a4.434,4.434,0,0,1-2.437.691A4.241,4.241,0,0,1,54.068-.9a3.593,3.593,0,0,1-.783-3.154,4.483,4.483,0,0,1,2.1-3.313,9.236,9.236,0,0,1,4.94-1.122H62.5l.173-1.142a2.009,2.009,0,0,0-.3-1.627,1.911,1.911,0,0,0-1.547-.551,2.423,2.423,0,0,0-1.507.458,1.807,1.807,0,0,0-.71,1.255H54.878l-.013-.08a4.373,4.373,0,0,1,2.052-3.174A7.843,7.843,0,0,1,61.5-14.634a5.646,5.646,0,0,1,3.944,1.315A3.92,3.92,0,0,1,66.537-9.6l-.89,5.936a10.638,10.638,0,0,0-.133,1.912A9.325,9.325,0,0,0,65.74,0ZM58.715-2.59A3.679,3.679,0,0,0,60.574-3.1a3.461,3.461,0,0,0,1.288-1.175l.305-2.018H59.99a2.92,2.92,0,0,0-1.932.624,2.37,2.37,0,0,0-.883,1.487,1.3,1.3,0,0,0,.292,1.175A1.681,1.681,0,0,0,58.715-2.59ZM78.56-11.035l-1.421-.04a2.762,2.762,0,0,0-1.461.378,3.04,3.04,0,0,0-1.036,1.069L73.208,0H69.344l2.151-14.368h3.6l-.133,2.058a5.315,5.315,0,0,1,1.554-1.72,3.4,3.4,0,0,1,1.952-.6,3.04,3.04,0,0,1,.538.046,4.6,4.6,0,0,1,.485.113Zm1.911,3.971a10.623,10.623,0,0,1,2.277-5.544A5.647,5.647,0,0,1,87.2-14.634a3.446,3.446,0,0,1,1.839.485,4.022,4.022,0,0,1,1.335,1.388l1.2-7.954h3.891L92.356,0H89.049l-.066-1.766A5.942,5.942,0,0,1,87.15-.246a4.708,4.708,0,0,1-2.2.525,4.132,4.132,0,0,1-3.765-1.965,7.328,7.328,0,0,1-.75-5.1Zm3.824.279a5.416,5.416,0,0,0,.173,3,1.9,1.9,0,0,0,1.926,1.049A3.245,3.245,0,0,0,87.9-3.087,3.377,3.377,0,0,0,89.076-4.1l.916-6.082a2.361,2.361,0,0,0-.857-1.056,2.436,2.436,0,0,0-1.388-.378,2.633,2.633,0,0,0-2.238,1.281,7.662,7.662,0,0,0-1.175,3.273Z" transform="translate(3708.628 -9045.8)" fill="#0043ff"/>
      <g id="Grupo_147250" data-name="Grupo 147250" transform="translate(3680.318 -9448.672)" clip-path="url(#clip-path)">
        <path id="Trazado_207330" data-name="Trazado 207330" d="M749.948,420.468H541.5a7.68,7.68,0,0,1-7.68-7.68V380.46a7.681,7.681,0,0,1,7.68-7.68H749.948a7.68,7.68,0,0,1,7.68,7.68v32.328a7.679,7.679,0,0,1-7.68,7.68" fill="#d8dbe8"/>
        <path id="Trazado_207331" data-name="Trazado 207331" d="M749.948,416.859H545.932a7.68,7.68,0,0,1-7.68-7.68V380.461a7.681,7.681,0,0,1,7.68-7.68H749.948a7.68,7.68,0,0,1,7.68,7.68v28.718a7.679,7.679,0,0,1-7.68,7.68" fill="#fff"/>
      </g>
      <path id="Trazado_207368" data-name="Trazado 207368" d="M7.689-11.367a2.682,2.682,0,0,0,2.052-.717,2.842,2.842,0,0,0,.671-2.018,2.473,2.473,0,0,0-.7-1.806,2.628,2.628,0,0,0-1.965-.717,2.574,2.574,0,0,0-1.786.651,2.133,2.133,0,0,0-.724,1.66H1.487l-.027-.08A4.388,4.388,0,0,1,3.214-18.14a6.994,6.994,0,0,1,4.528-1.474A7.414,7.414,0,0,1,12.509-18.2a4.894,4.894,0,0,1,1.766,4.057,4.2,4.2,0,0,1-.764,2.437A5.217,5.217,0,0,1,11.42-9.96a4.883,4.883,0,0,1,2.337,1.733,4.732,4.732,0,0,1,.823,2.809,5.037,5.037,0,0,1-1.919,4.176A7.68,7.68,0,0,1,7.742.279,7.665,7.665,0,0,1,3.121-1.155,4.527,4.527,0,0,1,1.208-5.179l.027-.08H5.006A2.436,2.436,0,0,0,5.77-3.433,2.721,2.721,0,0,0,7.742-2.7a2.992,2.992,0,0,0,2.151-.783,2.615,2.615,0,0,0,.823-1.979,3,3,0,0,0-.77-2.264,3.144,3.144,0,0,0-2.258-.737H5.551v-2.908ZM21.393,0H17.516V-3.4h3.878ZM46.452-6.4l.027.08a7.112,7.112,0,0,1-2.59,4.907A8.874,8.874,0,0,1,38.258.279a6.388,6.388,0,0,1-5.212-2.258A7.029,7.029,0,0,1,31.7-7.742l.584-3.838a9.516,9.516,0,0,1,2.941-5.85,8.335,8.335,0,0,1,5.823-2.184,7.144,7.144,0,0,1,5.192,1.746,5.16,5.16,0,0,1,1.275,4.84l-.04.08H43.7a3.423,3.423,0,0,0-.465-2.8,3.352,3.352,0,0,0-2.643-.876A3.707,3.707,0,0,0,37.7-15.205a7.006,7.006,0,0,0-1.554,3.6l-.584,3.864a5.506,5.506,0,0,0,.471,3.678A2.861,2.861,0,0,0,38.7-2.7a3.9,3.9,0,0,0,2.7-.923A4.49,4.49,0,0,0,42.707-6.4Zm2.072-.916a8.923,8.923,0,0,1,2.57-5.325,7.319,7.319,0,0,1,5.279-1.992,5.411,5.411,0,0,1,4.621,2.072,6.773,6.773,0,0,1,1.089,5.245l-.04.279A9.029,9.029,0,0,1,59.452-1.7,7.341,7.341,0,0,1,54.167.279a5.418,5.418,0,0,1-4.621-2.065,6.7,6.7,0,0,1-1.062-5.252Zm3.824.279a5.751,5.751,0,0,0,.2,3.187A2.029,2.029,0,0,0,54.605-2.7,2.826,2.826,0,0,0,56.956-3.9a6.789,6.789,0,0,0,1.208-3.134l.04-.279a5.931,5.931,0,0,0-.232-3.154,2,2,0,0,0-2.038-1.175,2.824,2.824,0,0,0-2.364,1.228,6.66,6.66,0,0,0-1.182,3.1Zm16.6-5.352a6.158,6.158,0,0,1,2.005-1.66,5.289,5.289,0,0,1,2.443-.584,3.66,3.66,0,0,1,3.147,1.421q1.049,1.421.6,4.409L75.826,0H71.935L73.25-8.791A3.235,3.235,0,0,0,73.057-11a1.743,1.743,0,0,0-1.534-.617,3.58,3.58,0,0,0-1.56.339,3.737,3.737,0,0,0-1.228.936L67.181,0H63.3l2.151-14.368h3.612ZM79.637,0l1.74-11.646H79.252l.4-2.722h2.138l.146-.983a6.239,6.239,0,0,1,2.271-4.23,7.825,7.825,0,0,1,4.887-1.414,10.048,10.048,0,0,1,2,.206q1.016.206,2.264.591l-1.009,3.054q-.943-.292-1.7-.452a8.729,8.729,0,0,0-1.779-.159,3.309,3.309,0,0,0-2.085.617,2.641,2.641,0,0,0-.969,1.786l-.146.983h2.829l-.4,2.722H85.254L83.515,0ZM92.12,0H88.242l2.151-14.368h3.878Zm12.4-11.035-1.421-.04a2.762,2.762,0,0,0-1.461.378,3.04,3.04,0,0,0-1.036,1.069L99.171,0H95.307l2.151-14.368h3.6l-.133,2.058a5.315,5.315,0,0,1,1.554-1.72,3.4,3.4,0,0,1,1.952-.6,3.04,3.04,0,0,1,.538.046,4.6,4.6,0,0,1,.485.113Zm6-1.514a5.763,5.763,0,0,1,1.959-1.547,5.686,5.686,0,0,1,2.49-.538,3.874,3.874,0,0,1,2.211.611,3.083,3.083,0,0,1,1.242,1.833,6,6,0,0,1,2-1.806,5.362,5.362,0,0,1,2.623-.637,3.5,3.5,0,0,1,3.094,1.521q1.036,1.521.571,4.588L125.438,0H121.56l1.275-8.539a3.853,3.853,0,0,0-.153-2.437,1.645,1.645,0,0,0-1.494-.644,2.9,2.9,0,0,0-1.461.378,3.6,3.6,0,0,0-1.142,1.042q-.013.186-.033.372t-.046.385L117.085,0h-3.864L114.5-8.539a3.782,3.782,0,0,0-.159-2.417,1.642,1.642,0,0,0-1.5-.664,3.158,3.158,0,0,0-1.408.312,3.389,3.389,0,0,0-1.115.883L108.746,0h-3.864l2.151-14.368h3.6ZM136.885,0a6.3,6.3,0,0,1-.212-1.042,7.845,7.845,0,0,1-.053-1.122A6.6,6.6,0,0,1,134.78-.412a4.434,4.434,0,0,1-2.437.691A4.241,4.241,0,0,1,129.077-.9a3.593,3.593,0,0,1-.783-3.154,4.483,4.483,0,0,1,2.1-3.313,9.235,9.235,0,0,1,4.94-1.122h2.178l.173-1.142a2.009,2.009,0,0,0-.3-1.627,1.911,1.911,0,0,0-1.547-.551,2.423,2.423,0,0,0-1.507.458,1.807,1.807,0,0,0-.71,1.255h-3.732l-.013-.08a4.373,4.373,0,0,1,2.052-3.174,7.843,7.843,0,0,1,4.588-1.288,5.646,5.646,0,0,1,3.944,1.315A3.92,3.92,0,0,1,141.546-9.6l-.89,5.936a10.636,10.636,0,0,0-.133,1.912A9.325,9.325,0,0,0,140.749,0Zm-3.161-2.59a3.679,3.679,0,0,0,1.859-.511,3.461,3.461,0,0,0,1.288-1.175l.305-2.018H135a2.92,2.92,0,0,0-1.932.624,2.37,2.37,0,0,0-.883,1.487,1.3,1.3,0,0,0,.292,1.175A1.681,1.681,0,0,0,133.724-2.59Zm16.626-15.3-.531,3.519h2.43l-.4,2.722h-2.443l-1.089,7.317a1.536,1.536,0,0,0,.159,1.215,1.1,1.1,0,0,0,.876.339,4.031,4.031,0,0,0,.538-.033,4.2,4.2,0,0,0,.538-.113l-.106,2.8a8.646,8.646,0,0,1-1.175.3,7,7,0,0,1-1.215.1,3.584,3.584,0,0,1-2.888-1.115,4.265,4.265,0,0,1-.591-3.479l1.089-7.33h-2.085l.4-2.722h2.1l.531-3.519ZM156.565,0h-3.878l2.151-14.368h3.878Zm2.669-17.808h-3.878l.438-2.908h3.878Zm1.023,10.491a8.923,8.923,0,0,1,2.57-5.325,7.319,7.319,0,0,1,5.279-1.992,5.411,5.411,0,0,1,4.621,2.072,6.773,6.773,0,0,1,1.089,5.245l-.04.279a9.029,9.029,0,0,1-2.59,5.338A7.341,7.341,0,0,1,165.9.279a5.418,5.418,0,0,1-4.621-2.065,6.7,6.7,0,0,1-1.062-5.252Zm3.824.279a5.751,5.751,0,0,0,.2,3.187A2.029,2.029,0,0,0,166.339-2.7a2.826,2.826,0,0,0,2.35-1.208A6.79,6.79,0,0,0,169.9-7.038l.04-.279a5.931,5.931,0,0,0-.232-3.154,2,2,0,0,0-2.038-1.175,2.824,2.824,0,0,0-2.364,1.228,6.66,6.66,0,0,0-1.182,3.1Zm16.6-5.352a6.158,6.158,0,0,1,2.005-1.66,5.289,5.289,0,0,1,2.443-.584,3.66,3.66,0,0,1,3.147,1.421q1.049,1.421.6,4.409L187.56,0h-3.891l1.315-8.791A3.235,3.235,0,0,0,184.791-11a1.743,1.743,0,0,0-1.534-.617,3.58,3.58,0,0,0-1.56.339,3.736,3.736,0,0,0-1.228.936L178.915,0h-3.878l2.151-14.368H180.8Z" transform="translate(4230.015 -9045.8)" fill="#01074e"/>
      <g id="Grupo_147251" data-name="Grupo 147251" transform="translate(3680.318 -9448.672)" clip-path="url(#clip-path)">
        <path id="Trazado_207332" data-name="Trazado 207332" d="M463.822,525.343H255.373a7.68,7.68,0,0,1-7.68-7.68V485.335a7.681,7.681,0,0,1,7.68-7.68H463.822a7.68,7.68,0,0,1,7.68,7.68v32.328a7.679,7.679,0,0,1-7.68,7.68" fill="#d8dbe8"/>
        <path id="Trazado_207333" data-name="Trazado 207333" d="M463.822,521.733H259.806a7.68,7.68,0,0,1-7.68-7.68V485.335a7.681,7.681,0,0,1,7.68-7.68H463.822a7.68,7.68,0,0,1,7.68,7.68v28.718a7.679,7.679,0,0,1-7.68,7.68" fill="#fff"/>
      </g>
      <path id="Trazado_207367" data-name="Trazado 207367" d="M14.528,0H1.554V-2.536L7.543-9.309a15.137,15.137,0,0,0,1.906-2.676A4.446,4.446,0,0,0,10.013-14a2.891,2.891,0,0,0-.6-1.912,2.2,2.2,0,0,0-1.793-.717,2.3,2.3,0,0,0-1.952.916,3.754,3.754,0,0,0-.691,2.324H1.208l-.027-.08a5.744,5.744,0,0,1,1.7-4.362,6.367,6.367,0,0,1,4.741-1.786,6.558,6.558,0,0,1,4.621,1.521A5.289,5.289,0,0,1,13.89-14.01a5.744,5.744,0,0,1-.923,3.174,35.732,35.732,0,0,1-3.18,3.971L6.6-3.041l.027.066h7.9Zm6.865,0H17.516V-3.4h3.878ZM46.452-6.4l.027.08a7.112,7.112,0,0,1-2.59,4.907A8.874,8.874,0,0,1,38.258.279a6.388,6.388,0,0,1-5.212-2.258A7.029,7.029,0,0,1,31.7-7.742l.584-3.838a9.516,9.516,0,0,1,2.941-5.85,8.335,8.335,0,0,1,5.823-2.184,7.144,7.144,0,0,1,5.192,1.746,5.16,5.16,0,0,1,1.275,4.84l-.04.08H43.7a3.423,3.423,0,0,0-.465-2.8,3.352,3.352,0,0,0-2.643-.876A3.707,3.707,0,0,0,37.7-15.205a7.006,7.006,0,0,0-1.554,3.6l-.584,3.864a5.506,5.506,0,0,0,.471,3.678A2.861,2.861,0,0,0,38.7-2.7a3.9,3.9,0,0,0,2.7-.923A4.49,4.49,0,0,0,42.707-6.4Zm2.072-.916a8.923,8.923,0,0,1,2.57-5.325,7.319,7.319,0,0,1,5.279-1.992,5.411,5.411,0,0,1,4.621,2.072,6.773,6.773,0,0,1,1.089,5.245l-.04.279A9.029,9.029,0,0,1,59.452-1.7,7.341,7.341,0,0,1,54.167.279a5.418,5.418,0,0,1-4.621-2.065,6.7,6.7,0,0,1-1.062-5.252Zm3.824.279a5.751,5.751,0,0,0,.2,3.187A2.029,2.029,0,0,0,54.605-2.7,2.826,2.826,0,0,0,56.956-3.9a6.789,6.789,0,0,0,1.208-3.134l.04-.279a5.931,5.931,0,0,0-.232-3.154,2,2,0,0,0-2.038-1.175,2.824,2.824,0,0,0-2.364,1.228,6.66,6.66,0,0,0-1.182,3.1Zm16.6-5.352a6.158,6.158,0,0,1,2.005-1.66,5.289,5.289,0,0,1,2.443-.584,3.66,3.66,0,0,1,3.147,1.421q1.049,1.421.6,4.409L75.826,0H71.935L73.25-8.791A3.235,3.235,0,0,0,73.057-11a1.743,1.743,0,0,0-1.534-.617,3.58,3.58,0,0,0-1.56.339,3.737,3.737,0,0,0-1.228.936L67.181,0H63.3l2.151-14.368h3.612ZM84.71-5.352l.053,1.315.08.013.465-1.328,3.718-9.017h4.05L86.038,0h-3.7L79.6-14.368h4.05ZM98.464.279a5.584,5.584,0,0,1-4.661-2,6.242,6.242,0,0,1-1.1-5.053l.08-.531a9.081,9.081,0,0,1,2.53-5.345,6.987,6.987,0,0,1,5.133-1.985,4.8,4.8,0,0,1,4.123,1.793,6.142,6.142,0,0,1,.883,4.754l-.292,2.005H96.578l-.027.066a3.37,3.37,0,0,0,.5,2.424,2.628,2.628,0,0,0,2.258.9,8.518,8.518,0,0,0,2.244-.272,10.247,10.247,0,0,0,2.018-.8l.691,2.39A8.809,8.809,0,0,1,101.744-.2,11.007,11.007,0,0,1,98.464.279ZM100-11.646a2.481,2.481,0,0,0-1.879.81,4.812,4.812,0,0,0-1.109,2.111l.027.08h4.7l.04-.292a3.1,3.1,0,0,0-.206-2.005A1.658,1.658,0,0,0,100-11.646Zm15.71.611-1.421-.04a2.762,2.762,0,0,0-1.461.378A3.04,3.04,0,0,0,111.8-9.628L110.362,0H106.5l2.151-14.368h3.6l-.133,2.058a5.315,5.315,0,0,1,1.554-1.72,3.4,3.4,0,0,1,1.952-.6,3.04,3.04,0,0,1,.538.046,4.6,4.6,0,0,1,.485.113Zm8.751,7.051a1.13,1.13,0,0,0-.458-1.1,5.852,5.852,0,0,0-2.184-.8A7.9,7.9,0,0,1,118.21-7.41a2.926,2.926,0,0,1-.93-2.775,4.645,4.645,0,0,1,2-3.18,7.192,7.192,0,0,1,4.362-1.268,6.059,6.059,0,0,1,4.123,1.315,3.293,3.293,0,0,1,1.175,3.227l-.027.08h-3.745a1.686,1.686,0,0,0-.359-1.421,1.98,1.98,0,0,0-1.54-.531,2.492,2.492,0,0,0-1.521.465,1.678,1.678,0,0,0-.724,1.142,1.11,1.11,0,0,0,.405,1.089,5.88,5.88,0,0,0,2.2.744,8.025,8.025,0,0,1,3.712,1.56,3.032,3.032,0,0,1,.91,2.835,4.5,4.5,0,0,1-2.1,3.214,8.122,8.122,0,0,1-4.562,1.2A5.875,5.875,0,0,1,117.307-1.2a3.528,3.528,0,0,1-1.182-3.293l.04-.08h3.546a1.77,1.77,0,0,0,.525,1.673,2.8,2.8,0,0,0,1.8.518,2.938,2.938,0,0,0,1.673-.438A1.651,1.651,0,0,0,124.465-3.984ZM138.568,0a6.3,6.3,0,0,1-.212-1.042,7.845,7.845,0,0,1-.053-1.122,6.6,6.6,0,0,1-1.839,1.753,4.434,4.434,0,0,1-2.437.691A4.241,4.241,0,0,1,130.759-.9a3.593,3.593,0,0,1-.783-3.154,4.483,4.483,0,0,1,2.1-3.313,9.236,9.236,0,0,1,4.94-1.122h2.178l.173-1.142a2.009,2.009,0,0,0-.3-1.627,1.911,1.911,0,0,0-1.547-.551,2.423,2.423,0,0,0-1.507.458,1.807,1.807,0,0,0-.71,1.255h-3.732l-.013-.08a4.373,4.373,0,0,1,2.052-3.174,7.843,7.843,0,0,1,4.588-1.288,5.646,5.646,0,0,1,3.944,1.315A3.92,3.92,0,0,1,143.229-9.6l-.89,5.936a10.636,10.636,0,0,0-.133,1.912A9.325,9.325,0,0,0,142.432,0Zm-3.161-2.59a3.679,3.679,0,0,0,1.859-.511,3.461,3.461,0,0,0,1.288-1.175l.305-2.018h-2.178a2.92,2.92,0,0,0-1.932.624,2.37,2.37,0,0,0-.883,1.487,1.3,1.3,0,0,0,.292,1.175A1.681,1.681,0,0,0,135.407-2.59Zm16.626-15.3-.531,3.519h2.43l-.4,2.722H151.09L150-4.329a1.536,1.536,0,0,0,.159,1.215,1.1,1.1,0,0,0,.876.339,4.03,4.03,0,0,0,.538-.033,4.2,4.2,0,0,0,.538-.113l-.106,2.8a8.646,8.646,0,0,1-1.175.3,7,7,0,0,1-1.215.1,3.584,3.584,0,0,1-2.888-1.115,4.265,4.265,0,0,1-.591-3.479l1.089-7.33h-2.085l.4-2.722h2.1l.531-3.519ZM158.248,0H154.37l2.151-14.368H160.4Zm2.669-17.808h-3.878l.438-2.908h3.878ZM161.94-7.317a8.923,8.923,0,0,1,2.57-5.325,7.319,7.319,0,0,1,5.279-1.992,5.411,5.411,0,0,1,4.621,2.072A6.773,6.773,0,0,1,175.5-7.317l-.04.279a9.029,9.029,0,0,1-2.59,5.338A7.341,7.341,0,0,1,167.583.279a5.418,5.418,0,0,1-4.621-2.065A6.7,6.7,0,0,1,161.9-7.038Zm3.824.279a5.751,5.751,0,0,0,.2,3.187A2.029,2.029,0,0,0,168.022-2.7a2.826,2.826,0,0,0,2.35-1.208,6.79,6.79,0,0,0,1.208-3.134l.04-.279a5.931,5.931,0,0,0-.232-3.154,2,2,0,0,0-2.038-1.175,2.824,2.824,0,0,0-2.364,1.228,6.66,6.66,0,0,0-1.182,3.1Zm16.6-5.352a6.158,6.158,0,0,1,2.005-1.66,5.289,5.289,0,0,1,2.443-.584,3.66,3.66,0,0,1,3.147,1.421q1.049,1.421.6,4.409L189.242,0h-3.891l1.315-8.791A3.235,3.235,0,0,0,186.473-11a1.743,1.743,0,0,0-1.534-.617,3.58,3.58,0,0,0-1.56.339,3.736,3.736,0,0,0-1.228.936L180.6,0H176.72l2.151-14.368h3.612Z" transform="translate(3943.013 -8940.926)" fill="#213b82"/>
      <g id="Grupo_147252" data-name="Grupo 147252" transform="translate(3680.318 -9448.672)" clip-path="url(#clip-path)">
        <rect id="Rectángulo_38500" data-name="Rectángulo 38500" width="13.705" height="13.705" transform="translate(330.821 40.912)" fill="#fff"/>
        <rect id="Rectángulo_38501" data-name="Rectángulo 38501" width="13.705" height="13.705" transform="translate(330.821 64.895)" fill="#fff"/>
        <path id="Trazado_207334" data-name="Trazado 207334" d="M364.278,104.3h-12.9v-3.426h10.561a27.442,27.442,0,0,1-1.69-3.426h-8.871V94.018h7.755a27.287,27.287,0,0,1-.664-3.426h-7.091V87.166h6.853a27.291,27.291,0,0,1,.9-6.853h-7.755V76.887h8.871a27.442,27.442,0,0,1,1.69-3.426H351.378V70.035h12.9a27.492,27.492,0,0,1,3.294-3.426H356.518V63.182H372.4a27.125,27.125,0,0,1,18.38-2.926V32.347a8.478,8.478,0,0,1,1.757-5.14H329.108a5.145,5.145,0,0,0-5.139,5.14v83.942h47.966A1.713,1.713,0,0,1,373.649,118v3.426a5.145,5.145,0,0,0,5.139,5.139h6.852a5.146,5.146,0,0,0,5.14-5.139v-7.353a27.216,27.216,0,0,1-26.5-9.778m-7.76-65.1h30.836v3.426H356.518Zm-5.14,6.852h35.975v3.426H351.378Zm0,6.853h35.975V56.33H351.378ZM347.952,104.3a1.712,1.712,0,0,1-1.713,1.713H329.108a1.712,1.712,0,0,1-1.713-1.713V87.166a1.712,1.712,0,0,1,1.713-1.713h17.131a1.712,1.712,0,0,1,1.713,1.713Zm0-23.984a1.713,1.713,0,0,1-1.713,1.714H329.108a1.713,1.713,0,0,1-1.713-1.714V63.182a1.712,1.712,0,0,1,1.713-1.713h17.131a1.712,1.712,0,0,1,1.713,1.713Zm0-23.983a1.712,1.712,0,0,1-1.713,1.713H329.108a1.712,1.712,0,0,1-1.713-1.713V39.2a1.712,1.712,0,0,1,1.713-1.713h17.131a1.712,1.712,0,0,1,1.713,1.713Z" fill="#fff"/>
        <path id="Trazado_207335" data-name="Trazado 207335" d="M370.222,119.714H310.263v1.713a5.145,5.145,0,0,0,5.14,5.139h56.536a8.53,8.53,0,0,1-1.717-5.139Z" fill="#fff"/>
        <path id="Trazado_207336" data-name="Trazado 207336" d="M404.484,27.207h-5.139a5.146,5.146,0,0,0-5.14,5.139v1.713h15.418V32.346a5.146,5.146,0,0,0-5.139-5.139" fill="#fff"/>
        <rect id="Rectángulo_38502" data-name="Rectángulo 38502" width="13.705" height="13.705" transform="translate(330.821 88.879)" fill="#fff"/>
        <path id="Trazado_207337" data-name="Trazado 207337" d="M381.712,93.516a1.71,1.71,0,0,1-2.422,0l-5.642-5.641-2.717,2.717,9.57,9.569,19.848-19.848L397.632,77.6Z" fill="#fff"/>
        <path id="Trazado_207338" data-name="Trazado 207338" d="M385.641,63.182a23.984,23.984,0,1,0,23.983,23.983,24.01,24.01,0,0,0-23.983-23.983m18.342,18.342-22.271,22.27a1.713,1.713,0,0,1-2.423,0L367.3,91.8a1.713,1.713,0,0,1,0-2.423l5.14-5.139a1.709,1.709,0,0,1,2.421,0l5.641,5.641,15.921-15.92a1.713,1.713,0,0,1,2.423,0l5.139,5.14a1.712,1.712,0,0,1,0,2.422" fill="#fff"/>
        <path id="Trazado_207339" data-name="Trazado 207339" d="M118.539,307.008a5.326,5.326,0,1,0-5.326,5.326,5.332,5.332,0,0,0,5.326-5.326" fill="#fff"/>
        <path id="Trazado_207340" data-name="Trazado 207340" d="M113.213,318.726a11.732,11.732,0,0,0-11.669,10.652h23.338a11.732,11.732,0,0,0-11.669-10.652" fill="#fff"/>
        <path id="Trazado_207341" data-name="Trazado 207341" d="M181.813,277.182H91.908a9.6,9.6,0,0,0-9.587,9.587v57.523a9.6,9.6,0,0,0,9.587,9.587h89.905a9.6,9.6,0,0,0,9.588-9.587V286.769a9.6,9.6,0,0,0-9.588-9.587m-40.479,22.37h12.783a3.2,3.2,0,1,1,0,6.391H141.334a3.2,3.2,0,0,1,0-6.391m-10.013,33.022a3.2,3.2,0,0,1-3.195,3.2H98.3a3.2,3.2,0,0,1-3.2-3.2v-2.13a18.118,18.118,0,0,1,9.246-15.783,11.718,11.718,0,1,1,17.726,0,18.116,18.116,0,0,1,9.246,15.783Zm44.1-1.065H141.334a3.2,3.2,0,0,1,0-6.392h34.088a3.2,3.2,0,1,1,0,6.392m0-12.783H141.334a3.2,3.2,0,0,1,0-6.391h34.088a3.2,3.2,0,1,1,0,6.391" fill="#fff"/>
        <path id="Trazado_207342" data-name="Trazado 207342" d="M335.142,417.283A42.388,42.388,0,0,1,322.584,391.3a27.061,27.061,0,0,0-5.86,16.907,27.366,27.366,0,0,0,2.631,11.654l-3.543,10.31a4.871,4.871,0,0,0,4.588,6.452,4.909,4.909,0,0,0,1.6-.268l10.311-3.543a27.37,27.37,0,0,0,11.654,2.631,27.072,27.072,0,0,0,17.186-6.083,42.425,42.425,0,0,1-26-12.077" fill="#fff"/>
        <path id="Trazado_207343" data-name="Trazado 207343" d="M403.785,418.263l-5.144-14.97a37.447,37.447,0,0,0-33-53.838,37.408,37.408,0,1,0-.606,74.811h.059a37.516,37.516,0,0,0,16.376-3.8l14.97,5.144a5.831,5.831,0,0,0,1.895.319,5.79,5.79,0,0,0,5.453-7.667m-35.139-18.424H349.33a2.635,2.635,0,1,1,0-5.271h19.315a2.635,2.635,0,1,1,0,5.271M380.734,389h-31.4a2.635,2.635,0,1,1,0-5.271h31.4a2.635,2.635,0,1,1,0,5.271m0-10.84h-31.4a2.635,2.635,0,1,1,0-5.271h31.4a2.635,2.635,0,1,1,0,5.271" fill="#fff"/>
        <path id="Trazado_207344" data-name="Trazado 207344" d="M577.928,277.357V271.45A44.133,44.133,0,0,0,549.2,283.317l4.177,4.177a38.243,38.243,0,0,1,24.548-10.137" fill="#01074e"/>
        <path id="Trazado_207345" data-name="Trazado 207345" d="M551.289,289.574l-4.176-4.176a44.121,44.121,0,0,0-11.968,28.727h5.906a38.252,38.252,0,0,1,10.238-24.551" fill="#01074e"/>
        <path id="Trazado_207346" data-name="Trazado 207346" d="M554.562,344.987a38.3,38.3,0,0,1-13.511-27.908h-5.907a44.184,44.184,0,0,0,15.23,32.09l-4.932,4.932,22.15,5.906-8.86-19.2Z" fill="#01074e"/>
        <path id="Trazado_207347" data-name="Trazado 207347" d="M607.608,341.723l4.185,4.185a44.118,44.118,0,0,0,11.862-28.83h-5.907a38.225,38.225,0,0,1-10.14,24.645" fill="#01074e"/>
        <path id="Trazado_207348" data-name="Trazado 207348" d="M596.681,350.007l2.934,5.134a44.374,44.374,0,0,0,10.1-7.138l-4.173-4.183a38.445,38.445,0,0,1-8.86,6.187" fill="#01074e"/>
        <path id="Trazado_207349" data-name="Trazado 207349" d="M618.784,295.419l4.92-4.92-8.86-8.86-3.439,3.439c.018.018.037.034.053.052l-.008.009-.045-.061a44.155,44.155,0,0,0-30.523-13.628v5.907a38.277,38.277,0,0,1,26.346,11.9l-27.823,27.82-14.766-14.766-8.86,8.86L579.405,334.8l34.956-34.956.043.063a38.194,38.194,0,0,1,3.351,14.22h5.906a44.073,44.073,0,0,0-4.83-18.644Z" fill="#01074e"/>
      </g>
    </g>
    <g id="Grupo_147253" data-name="Grupo 147253" transform="translate(288.084 1428.687)">
      <g id="Grupo_146952" data-name="Grupo 146952" opacity="0.39">
        <g id="Grupo_146951" data-name="Grupo 146951">
          <g id="Grupo_146950" data-name="Grupo 146950" clip-path="url(#clip-path-5)">
            <path id="Trazado_206120" data-name="Trazado 206120" d="M921.916,362.656a30.24,30.24,0,1,1-30.24-30.24,30.24,30.24,0,0,1,30.24,30.24" fill="#bde038"/>
          </g>
        </g>
      </g>
      <g id="Grupo_146955" data-name="Grupo 146955" opacity="0.36">
        <g id="Grupo_146954" data-name="Grupo 146954">
          <g id="Grupo_146953" data-name="Grupo 146953" clip-path="url(#clip-path-6)">
            <path id="Trazado_206121" data-name="Trazado 206121" d="M913.516,362.656a21.84,21.84,0,1,1-21.84-21.84,21.84,21.84,0,0,1,21.84,21.84" fill="#bde038"/>
          </g>
        </g>
      </g>
      <path id="Trazado_206122" data-name="Trazado 206122" d="M906.8,362.656a15.12,15.12,0,1,1-15.12-15.12,15.119,15.119,0,0,1,15.12,15.12" fill="#bde038"/>
      <path id="Trazado_206123" data-name="Trazado 206123" d="M892.782,361.333h3.954v2.857h-3.954v4.469h-3.011V364.19h-3.965v-2.857h3.965v-4.282h3.011Z"/>
    </g>
    <g id="Grupo_147254" data-name="Grupo 147254" transform="translate(-236.916 1526.687)">
      <g id="Grupo_146952-2" data-name="Grupo 146952" opacity="0.39">
        <g id="Grupo_146951-2" data-name="Grupo 146951">
          <g id="Grupo_146950-2" data-name="Grupo 146950" clip-path="url(#clip-path-5)">
            <path id="Trazado_206120-2" data-name="Trazado 206120" d="M921.916,362.656a30.24,30.24,0,1,1-30.24-30.24,30.24,30.24,0,0,1,30.24,30.24" fill="#bde038"/>
          </g>
        </g>
      </g>
      <g id="Grupo_146955-2" data-name="Grupo 146955" opacity="0.36">
        <g id="Grupo_146954-2" data-name="Grupo 146954">
          <g id="Grupo_146953-2" data-name="Grupo 146953" clip-path="url(#clip-path-6)">
            <path id="Trazado_206121-2" data-name="Trazado 206121" d="M913.516,362.656a21.84,21.84,0,1,1-21.84-21.84,21.84,21.84,0,0,1,21.84,21.84" fill="#bde038"/>
          </g>
        </g>
      </g>
      <path id="Trazado_206122-2" data-name="Trazado 206122" d="M906.8,362.656a15.12,15.12,0,1,1-15.12-15.12,15.119,15.119,0,0,1,15.12,15.12" fill="#bde038"/>
      <path id="Trazado_206123-2" data-name="Trazado 206123" d="M892.782,361.333h3.954v2.857h-3.954v4.469h-3.011V364.19h-3.965v-2.857h3.965v-4.282h3.011Z"/>
    </g>
    <g id="Grupo_147255" data-name="Grupo 147255" transform="translate(-471.436 1358)">
      <g id="Grupo_146952-3" data-name="Grupo 146952" opacity="0.39">
        <g id="Grupo_146951-3" data-name="Grupo 146951">
          <g id="Grupo_146950-3" data-name="Grupo 146950" clip-path="url(#clip-path-5)">
            <path id="Trazado_206120-3" data-name="Trazado 206120" d="M921.916,362.656a30.24,30.24,0,1,1-30.24-30.24,30.24,30.24,0,0,1,30.24,30.24" fill="#bde038"/>
          </g>
        </g>
      </g>
      <g id="Grupo_146955-3" data-name="Grupo 146955" opacity="0.36">
        <g id="Grupo_146954-3" data-name="Grupo 146954">
          <g id="Grupo_146953-3" data-name="Grupo 146953" clip-path="url(#clip-path-6)">
            <path id="Trazado_206121-3" data-name="Trazado 206121" d="M913.516,362.656a21.84,21.84,0,1,1-21.84-21.84,21.84,21.84,0,0,1,21.84,21.84" fill="#bde038"/>
          </g>
        </g>
      </g>
      <path id="Trazado_206122-3" data-name="Trazado 206122" d="M906.8,362.656a15.12,15.12,0,1,1-15.12-15.12,15.119,15.119,0,0,1,15.12,15.12" fill="#bde038"/>
      <path id="Trazado_206123-3" data-name="Trazado 206123" d="M892.782,361.333h3.954v2.857h-3.954v4.469h-3.011V364.19h-3.965v-2.857h3.965v-4.282h3.011Z"/>
    </g>
  </g>
</svg>
