<svg xmlns="http://www.w3.org/2000/svg" xmlns:xlink="http://www.w3.org/1999/xlink" width="858.256" height="561.507" viewBox="0 0 858.256 561.507"><defs><clipPath id="a"><rect width="858.256" height="561.507" fill="none"/></clipPath><clipPath id="c"><rect width="60.48" height="60.48" transform="translate(0 330.989)" fill="none"/></clipPath><clipPath id="d"><rect width="43.68" height="43.68" transform="translate(8.4 339.389)" fill="none"/></clipPath><clipPath id="e"><rect width="60.48" height="60.48" transform="translate(283.44 501.027)" fill="none"/></clipPath><clipPath id="f"><rect width="43.68" height="43.68" transform="translate(291.84 509.427)" fill="none"/></clipPath><clipPath id="g"><rect width="60.48" height="60.48" transform="translate(797.776 386.887)" fill="none"/></clipPath><clipPath id="h"><rect width="43.68" height="43.68" transform="translate(806.177 395.287)" fill="none"/></clipPath></defs><g clip-path="url(#a)"><g clip-path="url(#a)"><path d="M417.036,291.892a187.8,187.8,0,0,1-103.46-38.134l1.815-2.388A184.8,184.8,0,0,0,417.2,288.9Z" fill="#0043ff"/><path d="M427.573,293.687q-5.3,0-10.621-.3l.335-5.99a184.03,184.03,0,0,0,139.347-52.9l4.226,4.257a190.154,190.154,0,0,1-133.287,54.935" fill="#3740a5"/><path d="M560.508,238.4l-3.522-3.549a184.11,184.11,0,0,0,50.206-91.412l4.884,1.072A189.1,189.1,0,0,1,560.508,238.4" fill="#0ccbc3"/><path d="M322.409,253.072a5.583,5.583,0,1,1-7.192-3.259,5.583,5.583,0,0,1,7.192,3.259" fill="#fff"/><path d="M317.18,261.375a6.341,6.341,0,1,1,2.234-.409,6.336,6.336,0,0,1-2.234.409m.006-11.172a4.845,4.845,0,1,0,1.993.434,4.835,4.835,0,0,0-1.993-.434" fill="#0043ff"/><path d="M566.865,233.576a8.375,8.375,0,1,1-10.788-4.89,8.375,8.375,0,0,1,10.788,4.89" fill="#fff"/><path d="M559.036,245.531a9,9,0,1,1,3.162-.577,9.021,9.021,0,0,1-3.162.577m-.006-16.756a7.762,7.762,0,1,0,3.194.7,7.745,7.745,0,0,0-3.194-.7" fill="#0ccbc3"/><path d="M423.423,287.543a6.8,6.8,0,1,1-8.762-3.971,6.8,6.8,0,0,1,8.762,3.971" fill="#fff"/><path d="M417.052,297.558a7.625,7.625,0,1,1,2.685-.492,7.606,7.606,0,0,1-2.685.492m0-13.609a5.991,5.991,0,1,0,5.613,3.881,5.951,5.951,0,0,0-5.613-3.881" fill="#3740a5"/><path d="M425.049,317.078a247.737,247.737,0,0,1-53.889-5.9,21.076,21.076,0,0,0-24.328,13.46L293.07,472.911a21.112,21.112,0,0,0,14.193,27.578,448.706,448.706,0,0,0,235.569,0,21.11,21.11,0,0,0,14.193-27.577L503.264,324.634a21.08,21.08,0,0,0-24.329-13.461,247.71,247.71,0,0,1-53.886,5.9" fill="#d8dbe8"/><path d="M208.364,224.917,75.709,310.146a21.159,21.159,0,0,0-5.37,30.651A447.956,447.956,0,0,0,239.35,475.865a21.163,21.163,0,0,0,28.713-12.018l53.762-148.276a21.2,21.2,0,0,0-10.286-26.045A248.183,248.183,0,0,1,236.055,229.2a21.209,21.209,0,0,0-27.691-4.28" fill="#d8dbe8"/><path d="M528.271,315.572l53.761,148.277a21.163,21.163,0,0,0,28.713,12.018A447.972,447.972,0,0,0,779.757,340.8a21.159,21.159,0,0,0-5.371-30.651L641.732,224.918a21.209,21.209,0,0,0-27.691,4.28,248.175,248.175,0,0,1-75.485,60.329,21.2,21.2,0,0,0-10.285,26.045" fill="#d8dbe8"/><path d="M552.854,133.414A127.806,127.806,0,1,1,425.048,5.608,127.806,127.806,0,0,1,552.854,133.414" fill="#1e847c"/><path d="M425.049,311.5a247.737,247.737,0,0,1-53.889-5.9,21.076,21.076,0,0,0-24.328,13.46L293.07,467.334a21.112,21.112,0,0,0,14.193,27.578,448.705,448.705,0,0,0,235.569,0,21.109,21.109,0,0,0,14.193-27.577L503.264,319.057A21.08,21.08,0,0,0,478.935,305.6a247.71,247.71,0,0,1-53.886,5.9" fill="#213b82"/><path d="M208.364,219.34,75.709,304.569a21.159,21.159,0,0,0-5.37,30.651A447.956,447.956,0,0,0,239.35,470.288a21.163,21.163,0,0,0,28.713-12.018l53.762-148.276a21.2,21.2,0,0,0-10.286-26.045,248.183,248.183,0,0,1-75.484-60.329,21.209,21.209,0,0,0-27.691-4.28" fill="#0043ff"/><path d="M528.271,309.995l53.761,148.277a21.163,21.163,0,0,0,28.713,12.018A447.972,447.972,0,0,0,779.757,335.221a21.159,21.159,0,0,0-5.371-30.651L641.732,219.341a21.209,21.209,0,0,0-27.691,4.28,248.176,248.176,0,0,1-75.485,60.329,21.2,21.2,0,0,0-10.285,26.045" fill="#0ccbc3"/><path d="M540.915,73.9a127.806,127.806,0,1,1-169.8-61.931A127.806,127.806,0,0,1,540.915,73.9" fill="#33aea8"/><path d="M353.422,171.109v9.282h-6.6V153.034h10.917a12.709,12.709,0,0,1,5.552,1.156,8.7,8.7,0,0,1,3.739,3.288,8.98,8.98,0,0,1,1.324,4.838,7.914,7.914,0,0,1-2.865,6.4q-2.865,2.4-7.863,2.4Zm0-5.092h4.322a4.074,4.074,0,0,0,2.921-.958,3.562,3.562,0,0,0,1.005-2.706,4.4,4.4,0,0,0-1.033-3.063,3.664,3.664,0,0,0-2.818-1.165h-4.4Z" fill="#fff"/><rect width="6.576" height="27.357" transform="translate(373.286 153.034)" fill="#fff"/><path d="M392,175.318h11.48v5.073H385.409V153.034H392Z" fill="#fff"/><path d="M423.122,175.281h-9.037l-1.578,5.11H405.46l10.034-27.357h6.2L431.8,180.391h-7.084Zm-7.459-5.092h5.881l-2.95-9.489Z" fill="#fff"/><path d="M444.921,170.714h-3.57v9.677h-6.6V153.034h10.766q4.866,0,7.61,2.159a7.312,7.312,0,0,1,2.743,6.1,8.883,8.883,0,0,1-1.155,4.73,8.208,8.208,0,0,1-3.617,3.041l5.712,11.046v.282H449.75Zm-3.57-5.073h4.171a3.746,3.746,0,0,0,2.828-.988,3.825,3.825,0,0,0,.949-2.76,3.872,3.872,0,0,0-.958-2.778,3.71,3.71,0,0,0-2.819-1.008h-4.171Z" fill="#fff"/><path d="M477.787,168.78H467.415v6.538h12.251v5.073H460.82V153.034H479.7v5.092H467.415v5.768h10.372Z" fill="#fff"/><path d="M497.426,173.12a2.711,2.711,0,0,0-1.024-2.255,12.745,12.745,0,0,0-3.6-1.672,34.439,34.439,0,0,1-4.209-1.673q-5.318-2.61-5.317-7.176a6.438,6.438,0,0,1,1.324-4.012,8.573,8.573,0,0,1,3.749-2.706,14.589,14.589,0,0,1,5.449-.967,12.77,12.77,0,0,1,5.289,1.052,8.375,8.375,0,0,1,3.636,3,7.825,7.825,0,0,1,1.3,4.443h-6.576a3.312,3.312,0,0,0-1.024-2.593,4,4,0,0,0-2.772-.92,4.5,4.5,0,0,0-2.79.78,2.3,2.3,0,0,0,.1,3.889,14.2,14.2,0,0,0,3.965,1.766,24.3,24.3,0,0,1,4.66,1.964q4.434,2.555,4.434,7.046a6.682,6.682,0,0,1-2.706,5.637,12.033,12.033,0,0,1-7.421,2.047,14.711,14.711,0,0,1-6.022-1.193,9.075,9.075,0,0,1-4.059-3.269,8.519,8.519,0,0,1-1.362-4.782h6.614a4.2,4.2,0,0,0,1.137,3.242,5.377,5.377,0,0,0,3.692,1.042,4.243,4.243,0,0,0,2.583-.705,2.323,2.323,0,0,0,.949-1.982" fill="#fff"/><path d="M391.717,201.39a12,12,0,0,1-4.774-2.317,4.427,4.427,0,0,1-1.494-3.393,4.677,4.677,0,0,1,1.826-3.778,7.256,7.256,0,0,1,4.747-1.494,7.92,7.92,0,0,1,3.553.77,5.858,5.858,0,0,1,2.417,2.124,5.436,5.436,0,0,1,.856,2.962h-2.563a3.539,3.539,0,0,0-1.115-2.766,4.541,4.541,0,0,0-3.148-1.005,4.64,4.64,0,0,0-2.941.832,2.77,2.77,0,0,0-1.056,2.307,2.494,2.494,0,0,0,1,2,9.812,9.812,0,0,0,3.413,1.5,15.784,15.784,0,0,1,3.771,1.5,5.731,5.731,0,0,1,2.019,1.906,4.865,4.865,0,0,1,.657,2.563,4.52,4.52,0,0,1-1.833,3.765,7.817,7.817,0,0,1-4.9,1.414,9.088,9.088,0,0,1-3.718-.764,6.259,6.259,0,0,1-2.663-2.092,5.1,5.1,0,0,1-.936-3.013H387.4a3.331,3.331,0,0,0,1.3,2.768,5.452,5.452,0,0,0,3.459,1.016,5.016,5.016,0,0,0,3.094-.823,2.675,2.675,0,0,0,1.076-2.245,2.628,2.628,0,0,0-1-2.2,11.493,11.493,0,0,0-3.612-1.533" fill="#fff"/><path d="M408.892,208.269a3.539,3.539,0,0,0,2.3-.8,2.8,2.8,0,0,0,1.089-1.992H414.6a4.454,4.454,0,0,1-.85,2.351,5.6,5.6,0,0,1-2.091,1.779,6.044,6.044,0,0,1-2.769.664,5.916,5.916,0,0,1-4.668-1.959,7.8,7.8,0,0,1-1.733-5.358v-.412a8.643,8.643,0,0,1,.771-3.731,5.862,5.862,0,0,1,2.211-2.537,6.277,6.277,0,0,1,3.406-.9,5.763,5.763,0,0,1,4.017,1.448,5.177,5.177,0,0,1,1.706,3.758h-2.324a3.384,3.384,0,0,0-1.055-2.29,3.284,3.284,0,0,0-2.344-.9,3.437,3.437,0,0,0-2.9,1.348,6.327,6.327,0,0,0-1.029,3.9v.465a6.206,6.206,0,0,0,1.022,3.824,3.455,3.455,0,0,0,2.922,1.342" fill="#fff"/><path d="M425.67,197.844a7.362,7.362,0,0,0-1.208-.093,3.238,3.238,0,0,0-3.281,2.059v10.2h-2.456V195.64h2.39l.04,1.66a3.824,3.824,0,0,1,3.426-1.926,2.51,2.51,0,0,1,1.089.186Z" fill="#fff"/><path d="M438.158,208.587a5.219,5.219,0,0,1-4.21,1.687,4.469,4.469,0,0,1-3.5-1.335,5.778,5.778,0,0,1-1.215-3.951V195.64h2.457v9.282q0,3.267,2.656,3.267,2.816,0,3.745-2.1V195.64h2.456v14.368h-2.337Z" fill="#fff"/><path d="M447.95,195.64l.066,1.594a5.307,5.307,0,0,1,4.263-1.86,4.106,4.106,0,0,1,4.1,2.311,5.344,5.344,0,0,1,4.582-2.311q4.728,0,4.807,5.006v9.628h-2.457v-9.481a3.3,3.3,0,0,0-.7-2.3,3.1,3.1,0,0,0-2.364-.764,3.256,3.256,0,0,0-2.271.817,3.312,3.312,0,0,0-1.049,2.2v9.535h-2.47v-9.415q0-3.135-3.068-3.134a3.286,3.286,0,0,0-3.306,2.058v10.491h-2.457V195.64Z" fill="#fff"/><path d="M400.922,62.038v5.744a1.446,1.446,0,0,0,1.436,1.436h13.4a1.446,1.446,0,0,0,1.436-1.436V55.815h4.309a7.183,7.183,0,0,0,7.18-7.18v-.211a7.3,7.3,0,0,0-7.3-6.97H417.2V29.487a1.446,1.446,0,0,0-1.436-1.436H381.3a5.263,5.263,0,0,0-5.266,5.266V67.782a1.446,1.446,0,0,0,1.436,1.436h13.4a1.446,1.446,0,0,0,1.436-1.436V62.038a4.308,4.308,0,1,1,8.616,0" fill="#fff"/><path d="M468.8,46.625H435.771v13.4h4.308A7.186,7.186,0,0,1,447.2,66.27a7.742,7.742,0,0,1-.077,2.394,7.175,7.175,0,0,1-7.027,5.725h-4.327V84.92h11.967a1.446,1.446,0,0,1,1.436,1.436V92.1a4.308,4.308,0,1,0,8.616,0V86.356a1.446,1.446,0,0,1,1.436-1.436h14.84V51.891a5.263,5.263,0,0,0-5.266-5.266" fill="#fff"/><path d="M421.41,105.5a7.182,7.182,0,0,1,7.18-7.18H432.9V87.792H420.931a1.446,1.446,0,0,1-1.436-1.436V80.611a4.308,4.308,0,1,0-8.616,0v5.745a1.446,1.446,0,0,1-1.436,1.436H394.6v33.029a5.263,5.263,0,0,0,5.265,5.266H432.9v-13.4H428.59a7.182,7.182,0,0,1-7.18-7.18" fill="#fff"/><path d="M460.662,92.1a7.18,7.18,0,0,1-14.361,0V87.792H435.77V99.759a1.446,1.446,0,0,1-1.436,1.436H428.59a4.308,4.308,0,0,0,0,8.616h5.744a1.446,1.446,0,0,1,1.436,1.436v14.84H468.8a5.262,5.262,0,0,0,5.265-5.266V87.792h-13.4Z" fill="#fff"/><path d="M247.1,421.8H38.654a7.68,7.68,0,0,1-7.68-7.68V381.793a7.681,7.681,0,0,1,7.68-7.68H247.1a7.68,7.68,0,0,1,7.68,7.68v32.328a7.679,7.679,0,0,1-7.68,7.68" fill="#d8dbe8"/><path d="M247.1,418.191H43.087a7.68,7.68,0,0,1-7.68-7.68V381.793a7.681,7.681,0,0,1,7.68-7.68H247.1a7.68,7.68,0,0,1,7.68,7.68v28.718a7.679,7.679,0,0,1-7.68,7.68" fill="#fff"/><path d="M62.948,388.1H57.025v16.108H53.042V388.1H47.2V384.87h15.75Z" fill="#0043ff"/><path d="M73.537,393.436a10.39,10.39,0,0,0-1.381-.106A2.811,2.811,0,0,0,69.3,394.8v9.4H65.463V389.837h3.625l.107,1.713a3.555,3.555,0,0,1,3.2-1.978,3.992,3.992,0,0,1,1.195.173Z" fill="#0043ff"/><path d="M84.671,404.206a4.245,4.245,0,0,1-.385-1.288,4.644,4.644,0,0,1-3.626,1.554,5.1,5.1,0,0,1-3.5-1.222,3.932,3.932,0,0,1-1.388-3.081,4.06,4.06,0,0,1,1.694-3.506,8.348,8.348,0,0,1,4.893-1.234h1.766V394.6a2.364,2.364,0,0,0-.511-1.592,2.01,2.01,0,0,0-1.613-.6,2.285,2.285,0,0,0-1.521.465,1.577,1.577,0,0,0-.551,1.274H76.092a3.856,3.856,0,0,1,.77-2.31,5.1,5.1,0,0,1,2.178-1.667,7.937,7.937,0,0,1,3.161-.6,6.269,6.269,0,0,1,4.216,1.334,4.671,4.671,0,0,1,1.56,3.752v6.228a6.879,6.879,0,0,0,.571,3.094v.226ZM81.5,401.537a3.3,3.3,0,0,0,1.567-.379,2.482,2.482,0,0,0,1.062-1.016v-2.469H82.692q-2.881,0-3.067,1.991l-.014.227a1.533,1.533,0,0,0,.5,1.181,1.959,1.959,0,0,0,1.381.465" fill="#0043ff"/><path d="M95.817,389.837l.12,1.66a5.014,5.014,0,0,1,4.13-1.926,4.173,4.173,0,0,1,3.4,1.341,6.262,6.262,0,0,1,1.142,4.011V404.2H100.77v-9.211a2.5,2.5,0,0,0-.531-1.776,2.375,2.375,0,0,0-1.766-.553,2.639,2.639,0,0,0-2.43,1.385V404.2H92.205V389.837Z" fill="#0043ff"/><path d="M116.658,400.235a1.234,1.234,0,0,0-.7-1.108,7.875,7.875,0,0,0-2.238-.724q-5.125-1.077-5.126-4.356a3.949,3.949,0,0,1,1.587-3.194,6.4,6.4,0,0,1,4.15-1.281,6.9,6.9,0,0,1,4.376,1.288,4.059,4.059,0,0,1,1.64,3.347h-3.838a1.86,1.86,0,0,0-.531-1.362,2.251,2.251,0,0,0-1.66-.538,2.3,2.3,0,0,0-1.5.439,1.383,1.383,0,0,0-.531,1.115,1.18,1.18,0,0,0,.6,1.029,6.2,6.2,0,0,0,2.039.677,16.507,16.507,0,0,1,2.417.645q3.041,1.114,3.04,3.864a3.748,3.748,0,0,1-1.686,3.18,7.275,7.275,0,0,1-4.356,1.215,7.6,7.6,0,0,1-3.207-.644,5.374,5.374,0,0,1-2.2-1.766,4.1,4.1,0,0,1-.8-2.424h3.638a2.009,2.009,0,0,0,.757,1.568,3,3,0,0,0,1.886.544,2.781,2.781,0,0,0,1.667-.418,1.3,1.3,0,0,0,.564-1.1" fill="#0043ff"/><path d="M137.154,397.154a8.619,8.619,0,0,1-1.507,5.318,4.833,4.833,0,0,1-4.071,2,4.479,4.479,0,0,1-3.519-1.513v6.772H124.22V389.838h3.559l.132,1.407a4.513,4.513,0,0,1,3.639-1.673,4.867,4.867,0,0,1,4.13,1.965,8.854,8.854,0,0,1,1.474,5.418Zm-3.838-.292a5.693,5.693,0,0,0-.71-3.1,2.313,2.313,0,0,0-2.065-1.092,2.514,2.514,0,0,0-2.484,1.385v5.9a2.555,2.555,0,0,0,2.51,1.426q2.749,0,2.749-4.516" fill="#0043ff"/><path d="M149.217,404.206a4.245,4.245,0,0,1-.385-1.288,4.644,4.644,0,0,1-3.626,1.554,5.1,5.1,0,0,1-3.5-1.222,3.932,3.932,0,0,1-1.388-3.081,4.06,4.06,0,0,1,1.694-3.506,8.348,8.348,0,0,1,4.893-1.234h1.766V394.6a2.364,2.364,0,0,0-.511-1.592,2.01,2.01,0,0,0-1.613-.6,2.285,2.285,0,0,0-1.521.465,1.577,1.577,0,0,0-.551,1.274h-3.838a3.856,3.856,0,0,1,.77-2.31,5.1,5.1,0,0,1,2.178-1.667,7.937,7.937,0,0,1,3.161-.6,6.269,6.269,0,0,1,4.216,1.334,4.671,4.671,0,0,1,1.56,3.752v6.228a6.879,6.879,0,0,0,.571,3.094v.226Zm-3.174-2.669a3.3,3.3,0,0,0,1.567-.379,2.482,2.482,0,0,0,1.062-1.016v-2.469h-1.434q-2.882,0-3.067,1.991l-.014.227a1.533,1.533,0,0,0,.505,1.181,1.959,1.959,0,0,0,1.381.465" fill="#0043ff"/><path d="M164.9,393.436a10.39,10.39,0,0,0-1.381-.106,2.811,2.811,0,0,0-2.855,1.473v9.4h-3.838V389.837h3.625l.107,1.713a3.555,3.555,0,0,1,3.2-1.978,3.992,3.992,0,0,1,1.195.173Z" fill="#0043ff"/><path d="M174.472,404.472a7.057,7.057,0,0,1-5.146-1.939,6.894,6.894,0,0,1-1.985-5.166v-.372a8.681,8.681,0,0,1,.837-3.871,6.139,6.139,0,0,1,2.37-2.629,6.657,6.657,0,0,1,3.5-.923,5.956,5.956,0,0,1,4.641,1.86,7.551,7.551,0,0,1,1.694,5.271v1.567h-9.15a3.562,3.562,0,0,0,1.122,2.257,3.385,3.385,0,0,0,2.37.851,4.14,4.14,0,0,0,3.466-1.608l1.886,2.112a5.761,5.761,0,0,1-2.337,1.906,7.684,7.684,0,0,1-3.267.684m-.438-11.806a2.4,2.4,0,0,0-1.853.773,4.016,4.016,0,0,0-.909,2.215h5.338v-.306a2.863,2.863,0,0,0-.69-1.982,2.475,2.475,0,0,0-1.886-.7" fill="#0043ff"/><path d="M187.451,389.837l.12,1.66a5.014,5.014,0,0,1,4.13-1.926,4.173,4.173,0,0,1,3.4,1.341,6.262,6.262,0,0,1,1.142,4.011V404.2H192.4v-9.211a2.5,2.5,0,0,0-.531-1.776,2.375,2.375,0,0,0-1.766-.553,2.639,2.639,0,0,0-2.43,1.385V404.2h-3.838V389.837Z" fill="#0043ff"/><path d="M206.486,401.377a2.514,2.514,0,0,0,1.726-.585,2.048,2.048,0,0,0,.691-1.554h3.6a4.922,4.922,0,0,1-.8,2.676,5.245,5.245,0,0,1-2.145,1.886,6.712,6.712,0,0,1-3.008.671,6.236,6.236,0,0,1-4.86-1.959,7.753,7.753,0,0,1-1.779-5.411v-.252a7.66,7.66,0,0,1,1.766-5.3,6.165,6.165,0,0,1,4.847-1.979,6.04,6.04,0,0,1,4.322,1.534,5.429,5.429,0,0,1,1.654,4.084h-3.6a2.636,2.636,0,0,0-.691-1.823,2.566,2.566,0,0,0-3.778.277,5.663,5.663,0,0,0-.684,3.172v.4a5.727,5.727,0,0,0,.678,3.191,2.338,2.338,0,0,0,2.058.972" fill="#0043ff"/><path d="M216.026,386.119a1.886,1.886,0,0,1,.578-1.421,2.488,2.488,0,0,1,3.14,0,2.029,2.029,0,0,1-.006,2.855,2.461,2.461,0,0,1-3.121,0,1.883,1.883,0,0,1-.591-1.434m4.077,18.087h-3.851V389.838H220.1Z" fill="#0043ff"/><path d="M232.95,404.206a4.245,4.245,0,0,1-.385-1.288,4.644,4.644,0,0,1-3.626,1.554,5.1,5.1,0,0,1-3.5-1.222,3.932,3.932,0,0,1-1.388-3.081,4.06,4.06,0,0,1,1.694-3.506,8.348,8.348,0,0,1,4.893-1.234H232.4V394.6a2.364,2.364,0,0,0-.511-1.592,2.01,2.01,0,0,0-1.613-.6,2.285,2.285,0,0,0-1.521.465,1.577,1.577,0,0,0-.551,1.274h-3.838a3.856,3.856,0,0,1,.77-2.31,5.1,5.1,0,0,1,2.178-1.667,7.937,7.937,0,0,1,3.161-.6,6.269,6.269,0,0,1,4.216,1.334,4.671,4.671,0,0,1,1.56,3.752v6.228a6.879,6.879,0,0,0,.571,3.094v.226Zm-3.174-2.669a3.3,3.3,0,0,0,1.567-.379,2.482,2.482,0,0,0,1.062-1.016v-2.469h-1.434q-2.881,0-3.067,1.991l-.014.227a1.533,1.533,0,0,0,.505,1.181,1.959,1.959,0,0,0,1.381.465" fill="#0043ff"/><path d="M815.934,421.8H607.485a7.68,7.68,0,0,1-7.68-7.68V381.793a7.681,7.681,0,0,1,7.68-7.68H815.934a7.68,7.68,0,0,1,7.68,7.68v32.328a7.679,7.679,0,0,1-7.68,7.68" fill="#d8dbe8"/><path d="M815.934,418.191H611.918a7.68,7.68,0,0,1-7.68-7.68V381.793a7.681,7.681,0,0,1,7.68-7.68H815.934a7.68,7.68,0,0,1,7.68,7.68v28.718a7.679,7.679,0,0,1-7.68,7.68" fill="#fff"/><path d="M647.908,400.223h-6.985l-1.328,3.983h-4.236l7.2-19.335h3.692l7.237,19.335H649.25ZM642,396.995h4.834l-2.43-7.237Z" fill="#1e847c"/><path d="M655.8,396.916a8.66,8.66,0,0,1,1.508-5.353,4.887,4.887,0,0,1,4.122-1.991,4.4,4.4,0,0,1,3.466,1.566v-7.33h3.852v20.4h-3.466l-.187-1.528a4.513,4.513,0,0,1-3.691,1.793,4.875,4.875,0,0,1-4.07-2,8.931,8.931,0,0,1-1.534-5.556m3.838.272a5.7,5.7,0,0,0,.7,3.108,2.289,2.289,0,0,0,2.044,1.081,2.566,2.566,0,0,0,2.51-1.507v-5.7a2.53,2.53,0,0,0-2.483-1.507q-2.775,0-2.775,4.522" fill="#1e847c"/><path d="M681.41,404.206a4.245,4.245,0,0,1-.385-1.288,4.644,4.644,0,0,1-3.626,1.554,5.1,5.1,0,0,1-3.5-1.222,3.931,3.931,0,0,1-1.387-3.081,4.059,4.059,0,0,1,1.693-3.506,8.348,8.348,0,0,1,4.893-1.234h1.766V394.6a2.364,2.364,0,0,0-.511-1.592,2.01,2.01,0,0,0-1.613-.6,2.285,2.285,0,0,0-1.521.465,1.577,1.577,0,0,0-.551,1.274h-3.838a3.856,3.856,0,0,1,.77-2.31,5.1,5.1,0,0,1,2.178-1.667,7.937,7.937,0,0,1,3.161-.6,6.269,6.269,0,0,1,4.216,1.334,4.671,4.671,0,0,1,1.56,3.752v6.228a6.863,6.863,0,0,0,.572,3.094v.226Zm-3.174-2.669a3.3,3.3,0,0,0,1.567-.379,2.482,2.482,0,0,0,1.062-1.016v-2.469h-1.434q-2.882,0-3.067,1.991l-.014.227a1.533,1.533,0,0,0,.505,1.181,1.959,1.959,0,0,0,1.381.465" fill="#1e847c"/><path d="M701.959,397.154a8.619,8.619,0,0,1-1.507,5.318,4.833,4.833,0,0,1-4.071,2,4.479,4.479,0,0,1-3.519-1.513v6.772h-3.837V389.838h3.558l.133,1.407a4.513,4.513,0,0,1,3.639-1.673,4.867,4.867,0,0,1,4.13,1.965,8.854,8.854,0,0,1,1.474,5.418Zm-3.838-.292a5.693,5.693,0,0,0-.71-3.1,2.314,2.314,0,0,0-2.065-1.092,2.514,2.514,0,0,0-2.484,1.385v5.9a2.555,2.555,0,0,0,2.51,1.426q2.75,0,2.749-4.516" fill="#1e847c"/><path d="M710.29,386.3v3.532h2.457v2.816H710.29v7.171a1.713,1.713,0,0,0,.3,1.141,1.531,1.531,0,0,0,1.169.346,6.032,6.032,0,0,0,1.129-.094v2.908a7.881,7.881,0,0,1-2.324.346q-4.038,0-4.117-4.077v-7.741h-2.1v-2.816h2.1V386.3Z" fill="#1e847c"/><path d="M724.571,404.206a4.247,4.247,0,0,1-.385-1.288,4.644,4.644,0,0,1-3.626,1.554,5.1,5.1,0,0,1-3.5-1.222,3.931,3.931,0,0,1-1.387-3.081,4.059,4.059,0,0,1,1.693-3.506,8.348,8.348,0,0,1,4.893-1.234h1.766V394.6a2.364,2.364,0,0,0-.511-1.592,2.01,2.01,0,0,0-1.613-.6,2.285,2.285,0,0,0-1.521.465,1.577,1.577,0,0,0-.551,1.274h-3.838a3.856,3.856,0,0,1,.77-2.31,5.1,5.1,0,0,1,2.178-1.667,7.937,7.937,0,0,1,3.161-.6,6.269,6.269,0,0,1,4.216,1.334,4.671,4.671,0,0,1,1.56,3.752v6.228a6.864,6.864,0,0,0,.572,3.094v.226Zm-3.174-2.669a3.3,3.3,0,0,0,1.567-.379,2.482,2.482,0,0,0,1.062-1.016v-2.469h-1.434q-2.881,0-3.067,1.991l-.014.227a1.533,1.533,0,0,0,.505,1.181,1.959,1.959,0,0,0,1.381.465" fill="#1e847c"/><path d="M738.161,401.377a2.514,2.514,0,0,0,1.726-.585,2.048,2.048,0,0,0,.691-1.554h3.6a4.922,4.922,0,0,1-.8,2.676,5.239,5.239,0,0,1-2.145,1.886,6.712,6.712,0,0,1-3.008.671,6.236,6.236,0,0,1-4.86-1.959,7.753,7.753,0,0,1-1.779-5.411v-.252a7.66,7.66,0,0,1,1.766-5.3,6.165,6.165,0,0,1,4.847-1.979,6.04,6.04,0,0,1,4.322,1.534,5.429,5.429,0,0,1,1.654,4.084h-3.6a2.636,2.636,0,0,0-.691-1.823,2.566,2.566,0,0,0-3.778.277,5.663,5.663,0,0,0-.684,3.172v.4a5.727,5.727,0,0,0,.678,3.191,2.338,2.338,0,0,0,2.058.972" fill="#1e847c"/><path d="M747.7,386.119a1.89,1.89,0,0,1,.578-1.421,2.488,2.488,0,0,1,3.14,0,2.027,2.027,0,0,1-.006,2.855,2.461,2.461,0,0,1-3.121,0,1.883,1.883,0,0,1-.591-1.434m4.077,18.087h-3.851V389.838h3.851Z" fill="#1e847c"/><path d="M755.7,396.888a8.5,8.5,0,0,1,.824-3.81,6.017,6.017,0,0,1,2.37-2.59,6.914,6.914,0,0,1,3.592-.916,6.538,6.538,0,0,1,4.747,1.779,7.14,7.14,0,0,1,2.052,4.834l.027.982a7.512,7.512,0,0,1-1.846,5.3,7.153,7.153,0,0,1-9.913.007,7.642,7.642,0,0,1-1.853-5.418Zm3.838.273a5.372,5.372,0,0,0,.77,3.132,2.767,2.767,0,0,0,4.383.013,5.878,5.878,0,0,0,.783-3.425,5.316,5.316,0,0,0-.783-3.111,2.55,2.55,0,0,0-2.205-1.1,2.508,2.508,0,0,0-2.178,1.1,5.981,5.981,0,0,0-.77,3.4m3.705-13.353h4.183l-3.678,4.117h-3.121Z" fill="#1e847c"/><path d="M776.568,389.837l.12,1.66a5.014,5.014,0,0,1,4.13-1.926,4.173,4.173,0,0,1,3.4,1.341,6.262,6.262,0,0,1,1.142,4.011V404.2h-3.838v-9.211a2.5,2.5,0,0,0-.531-1.776,2.375,2.375,0,0,0-1.766-.553,2.639,2.639,0,0,0-2.43,1.385V404.2h-3.838V389.837Z" fill="#1e847c"/><path d="M529.809,526.676H321.36a7.68,7.68,0,0,1-7.68-7.68V486.668a7.681,7.681,0,0,1,7.68-7.68H529.809a7.68,7.68,0,0,1,7.68,7.68V519a7.679,7.679,0,0,1-7.68,7.68" fill="#d8dbe8"/><path d="M529.809,523.066H325.793a7.68,7.68,0,0,1-7.68-7.68V486.668a7.681,7.681,0,0,1,7.68-7.68H529.809a7.68,7.68,0,0,1,7.68,7.68v28.718a7.679,7.679,0,0,1-7.68,7.68" fill="#fff"/><rect width="3.984" height="19.335" transform="translate(354.094 489.745)" fill="#213b82"/><path d="M366.409,494.711l.12,1.66a5.014,5.014,0,0,1,4.13-1.926,4.173,4.173,0,0,1,3.4,1.341A6.262,6.262,0,0,1,375.2,499.8v9.282h-3.838v-9.211a2.5,2.5,0,0,0-.531-1.776,2.375,2.375,0,0,0-1.766-.553,2.639,2.639,0,0,0-2.43,1.385v10.155H362.8V494.711Z" fill="#213b82"/><path d="M387.25,505.109a1.234,1.234,0,0,0-.7-1.108,7.877,7.877,0,0,0-2.238-.724q-5.125-1.077-5.126-4.356a3.949,3.949,0,0,1,1.587-3.194,6.4,6.4,0,0,1,4.15-1.281,6.9,6.9,0,0,1,4.376,1.288,4.059,4.059,0,0,1,1.64,3.347H387.1a1.86,1.86,0,0,0-.531-1.362,2.251,2.251,0,0,0-1.66-.538,2.3,2.3,0,0,0-1.5.439,1.383,1.383,0,0,0-.531,1.115,1.18,1.18,0,0,0,.6,1.029,6.2,6.2,0,0,0,2.039.677,16.511,16.511,0,0,1,2.417.645q3.04,1.115,3.04,3.864a3.748,3.748,0,0,1-1.686,3.18,7.275,7.275,0,0,1-4.356,1.215,7.6,7.6,0,0,1-3.207-.644,5.374,5.374,0,0,1-2.2-1.766,4.1,4.1,0,0,1-.8-2.424h3.638a2.009,2.009,0,0,0,.757,1.568,3,3,0,0,0,1.886.544,2.78,2.78,0,0,0,1.667-.418,1.3,1.3,0,0,0,.564-1.1" fill="#213b82"/><path d="M407.746,502.028a8.619,8.619,0,0,1-1.507,5.318,4.833,4.833,0,0,1-4.071,2,4.479,4.479,0,0,1-3.519-1.513V514.6h-3.837V494.712h3.559l.132,1.407a4.513,4.513,0,0,1,3.639-1.673,4.867,4.867,0,0,1,4.13,1.965,8.854,8.854,0,0,1,1.474,5.418Zm-3.838-.292a5.693,5.693,0,0,0-.71-3.1,2.313,2.313,0,0,0-2.065-1.092,2.514,2.514,0,0,0-2.484,1.385v5.9a2.555,2.555,0,0,0,2.51,1.426q2.75,0,2.749-4.516" fill="#213b82"/><path d="M418.1,509.346a7.057,7.057,0,0,1-5.146-1.939,6.894,6.894,0,0,1-1.985-5.166v-.372A8.681,8.681,0,0,1,411.8,498a6.139,6.139,0,0,1,2.37-2.629,6.657,6.657,0,0,1,3.5-.923,5.956,5.956,0,0,1,4.641,1.86,7.551,7.551,0,0,1,1.694,5.271v1.567h-9.15a3.562,3.562,0,0,0,1.122,2.257,3.385,3.385,0,0,0,2.37.851,4.14,4.14,0,0,0,3.466-1.608l1.886,2.112a5.761,5.761,0,0,1-2.337,1.906,7.684,7.684,0,0,1-3.267.684m-.438-11.806a2.4,2.4,0,0,0-1.853.773,4.016,4.016,0,0,0-.909,2.215h5.338v-.306a2.863,2.863,0,0,0-.69-1.982,2.476,2.476,0,0,0-1.886-.7" fill="#213b82"/><path d="M433.519,506.251a2.514,2.514,0,0,0,1.726-.585,2.048,2.048,0,0,0,.691-1.554h3.6a4.922,4.922,0,0,1-.8,2.676,5.245,5.245,0,0,1-2.145,1.886,6.712,6.712,0,0,1-3.008.671,6.236,6.236,0,0,1-4.86-1.959,7.753,7.753,0,0,1-1.779-5.411v-.252a7.659,7.659,0,0,1,1.766-5.3,6.165,6.165,0,0,1,4.847-1.979,6.04,6.04,0,0,1,4.322,1.534,5.429,5.429,0,0,1,1.654,4.084h-3.6a2.636,2.636,0,0,0-.691-1.823,2.566,2.566,0,0,0-3.778.277,5.663,5.663,0,0,0-.684,3.172v.4a5.727,5.727,0,0,0,.678,3.191,2.338,2.338,0,0,0,2.058.972" fill="#213b82"/><path d="M449.061,506.251a2.513,2.513,0,0,0,1.726-.585,2.048,2.048,0,0,0,.691-1.554h3.6a4.922,4.922,0,0,1-.8,2.676,5.246,5.246,0,0,1-2.145,1.886,6.712,6.712,0,0,1-3.008.671,6.236,6.236,0,0,1-4.86-1.959,7.753,7.753,0,0,1-1.779-5.411v-.252a7.659,7.659,0,0,1,1.766-5.3,6.165,6.165,0,0,1,4.847-1.979,6.04,6.04,0,0,1,4.322,1.534,5.429,5.429,0,0,1,1.654,4.084h-3.6a2.636,2.636,0,0,0-.691-1.823,2.566,2.566,0,0,0-3.778.277,5.663,5.663,0,0,0-.684,3.172v.4a5.727,5.727,0,0,0,.678,3.191,2.338,2.338,0,0,0,2.058.972" fill="#213b82"/><path d="M458.6,490.993a1.89,1.89,0,0,1,.578-1.421,2.488,2.488,0,0,1,3.14,0,2.027,2.027,0,0,1-.006,2.855,2.461,2.461,0,0,1-3.121,0,1.883,1.883,0,0,1-.591-1.434m4.077,18.087h-3.851V494.712h3.851Z" fill="#213b82"/><path d="M466.6,501.762a8.514,8.514,0,0,1,.824-3.81,6.017,6.017,0,0,1,2.37-2.59,6.914,6.914,0,0,1,3.592-.916,6.538,6.538,0,0,1,4.747,1.779,7.135,7.135,0,0,1,2.052,4.834l.027.982a7.512,7.512,0,0,1-1.846,5.305,7.153,7.153,0,0,1-9.913.007,7.642,7.642,0,0,1-1.853-5.418Zm3.838.273a5.372,5.372,0,0,0,.77,3.132,2.767,2.767,0,0,0,4.383.013,5.878,5.878,0,0,0,.783-3.425,5.315,5.315,0,0,0-.783-3.111,2.55,2.55,0,0,0-2.205-1.105,2.508,2.508,0,0,0-2.178,1.1,5.981,5.981,0,0,0-.77,3.4m3.705-13.353h4.183l-3.678,4.117h-3.121Z" fill="#213b82"/><path d="M487.468,494.711l.12,1.66a5.014,5.014,0,0,1,4.13-1.926,4.173,4.173,0,0,1,3.4,1.341,6.262,6.262,0,0,1,1.142,4.011v9.282h-3.838v-9.211a2.5,2.5,0,0,0-.531-1.776,2.375,2.375,0,0,0-1.766-.553,2.639,2.639,0,0,0-2.43,1.385v10.155h-3.838V494.711Z" fill="#213b82"/><path d="M220.688,286.83c.414-23.011-36.018-23.223-35.681,0-.372,23.035,36.013,23.176,35.681,0m-22.841,9.4-8.1-8.114,2.583-2.583,5.678,5.66,15.423-13.61,2.418,2.748Z" fill="#fff"/><path d="M223.857,291.354a20.71,20.71,0,0,1-1.246,3.957,21.818,21.818,0,0,1-11.21,11.246,22.163,22.163,0,0,1-3.919,1.246l14.287,14.3,2.344-14.031,14.068-2.4Z" fill="#fff"/><path d="M183.083,295.311a20.7,20.7,0,0,1-1.246-3.956l-14.324,14.323,14.068,2.4,2.345,14.031L198.213,307.8a22.254,22.254,0,0,1-3.92-1.245,21.817,21.817,0,0,1-11.21-11.247" fill="#fff"/><path d="M203.287,342.935a.018.018,0,0,1-.018.018v-.018Z" fill="#fff"/><path d="M236.423,334.033V352a1.838,1.838,0,0,1-1.832,1.832H230.25V332.2h4.341a1.826,1.826,0,0,1,1.832,1.819v.013" fill="#fff"/><path d="M175.445,332.2v21.632H171.1A1.837,1.837,0,0,1,169.272,352V334.033a1.826,1.826,0,0,1,1.819-1.832h4.354Z" fill="#fff"/><path d="M218.344,348.833a2.181,2.181,0,0,1-1.758.9,2.456,2.456,0,0,1-.66-.092l-12.547-6.777a5.692,5.692,0,0,0,1.319-1.411l.476-.732a2.086,2.086,0,0,1,1.74-.935h.312l9.891,5.642.256.128a2.1,2.1,0,0,1,1.3,1.392,2.164,2.164,0,0,1-.33,1.887" fill="#fff"/><path d="M203.269,342.935h.018a.017.017,0,0,1-.017.018h0Z" fill="#fff"/><path d="M203.287,342.935a.018.018,0,0,1-.018.018v-.018Z" fill="#fff"/><path d="M213.893,355.373a1.729,1.729,0,0,1-1.978.6l-15.057-8.114-1.74,3.224,14.6,7.858a1.748,1.748,0,0,1,.238,2.326,1.8,1.8,0,0,1-1.978.605l-15.057-8.115-1.74,3.224,7.8,4.2a1.6,1.6,0,0,1,.806,1.08,1.543,1.543,0,0,1-.275,1.319,1.59,1.59,0,0,1-1.062.641,1.71,1.71,0,0,1-1.319-.385L185.5,356.271a14.645,14.645,0,0,0-6.393-2.308V330.92l2.143-3.224a1.579,1.579,0,0,1,1.374-.733l12.272,2.693v.018l-1.52,5.422a6.521,6.521,0,0,0,3,8.554,6.05,6.05,0,0,0,1.795.586h.018l3.316,1.8-.055.092,11.43,6.5.238.11a1.758,1.758,0,0,1,1.044,1.118A1.732,1.732,0,0,1,213.893,355.373Z" fill="#fff"/><path d="M226.586,330.846v23.995a11.388,11.388,0,0,1-7.675,2.913h-2.235a1.932,1.932,0,0,0,.184-.22,5.3,5.3,0,0,0,.915-4.268,5.933,5.933,0,0,0,3.517-2.271,5.8,5.8,0,0,0-2.472-8.811l-6.137-3.5v-2.565h-5.77a5.787,5.787,0,0,0-4.8,2.583l-.476.714a2.826,2.826,0,0,1-2.033,1.246,2.883,2.883,0,0,1-1.594-.293,2.831,2.831,0,0,1-1.269-3.8l.006-.012,2.344-8.353a3.694,3.694,0,0,1,3.242-1.923h19.709A9.25,9.25,0,0,1,226.586,330.846Z" fill="#fff"/><path d="M417.693,393.128a4.215,4.215,0,0,1,1.973-2.581l13.4-7.742a4.237,4.237,0,0,1,3.22-.417,4.185,4.185,0,0,1,2.568,1.989l4.156,7.215a32.966,32.966,0,0,1,9.606,0l4.163-7.224a4.177,4.177,0,0,1,2.56-1.98,4.236,4.236,0,0,1,3.211.411l.128.073a24.833,24.833,0,0,0-6.577-11.75c-.364-.364-.752-.687-1.131-1.023l-10.34,10.483a4.266,4.266,0,0,1-6,.026l-5.928-5.856a33.26,33.26,0,0,1-9.252,2.557l-2.1,8.06a4.223,4.223,0,0,1-5.148,3.048l-2.751-.8a24.927,24.927,0,0,0,6.973,18.572,31.336,31.336,0,0,1,1.859-2.63l-4.159-7.22a4.21,4.21,0,0,1-.433-3.215" fill="#fff"/><path d="M438.355,357.224a31.677,31.677,0,0,0-5.159,62.935c.02,0,.036-.015.056-.018a1.654,1.654,0,0,1,.8.149,30.8,30.8,0,0,0,21.011-4.487c.034-.03.081-.045.118-.072a31.665,31.665,0,0,0-16.829-58.507m20.1,51.646A28.326,28.326,0,0,1,419.5,409.9c-.011-.012-.027-.02-.037-.033-.37-.333-.752-.644-1.107-1a28.3,28.3,0,0,1-8.019-23.767,1.111,1.111,0,0,1,.01-.116l.009-.019a28.281,28.281,0,0,1,45.378-18.573,1.648,1.648,0,0,1,.239.175,28.226,28.226,0,0,1,2.49,42.3" fill="#fff"/><path d="M435.684,413.668a25,25,0,0,0,17.938-5.015,14.153,14.153,0,0,0-17.938,5.015" fill="#fff"/><path d="M417.713,385.088a.883.883,0,0,0,.406-.547l2.388-9.186a1.669,1.669,0,0,1,1.465-1.243,30.034,30.034,0,0,0,5.311-.964,30.39,30.39,0,0,0,5.045-1.9,1.672,1.672,0,0,1,1.895.317l6.756,6.673a.9.9,0,0,0,1.293-.019l10.055-10.192a24.989,24.989,0,0,0-38.506,16.226l3.26.943a.875.875,0,0,0,.632-.111" fill="#fff"/><path d="M445.027,430.627a10.021,10.021,0,0,0,10.01-10.01c0-.288-.042-.576-.067-.864a34.815,34.815,0,0,1-16.616,4.2c-.941,0-1.866-.068-2.789-.142a9.939,9.939,0,0,0,9.462,6.815" fill="#fff"/><path d="M463.337,387.1l-2.442-1.4a.9.9,0,0,0-.686-.087.863.863,0,0,0-.533.414l-4.744,8.233a1.671,1.671,0,0,1-1.744.809,29.869,29.869,0,0,0-10.749,0,1.681,1.681,0,0,1-1.743-.809l-4.738-8.224a.881.881,0,0,0-.541-.423.9.9,0,0,0-.692.091l-13.387,7.733a.9.9,0,0,0-.326,1.238l4.742,8.23a1.663,1.663,0,0,1-.183,1.921,28.169,28.169,0,0,0-2.617,3.655,24.8,24.8,0,0,0,9.221,4.54,17.51,17.51,0,0,1,24.124-6.726,24.947,24.947,0,0,0,7.038-19.192" fill="#fff"/><path d="M394.76,423.026,381.784,436l9.437,9.436L404.2,432.463a1.672,1.672,0,0,0,0-2.36l-7.08-7.078a1.708,1.708,0,0,0-2.358,0" fill="#fff"/><path d="M413.648,420.688a1.66,1.66,0,0,0,2.34-.016l2.739-2.75a35.323,35.323,0,0,1-9.421-9.439l-2.753,2.752a1.662,1.662,0,0,0,0,2.347l1.286,1.289,5.8,5.794Z" fill="#fff"/><path d="M462.319,426.744a1.669,1.669,0,0,1,1.576-1.122h6.156V415.613h-6.156a1.663,1.663,0,0,1-1.565-1.094c-.011-.029-.025-.062-.035-.091a35.234,35.234,0,0,1-4.244,3.443,13.324,13.324,0,1,1-26.081,5.472,34.794,34.794,0,0,1-10.315-3.632L420,421.368v4.254h6.156a1.667,1.667,0,0,1,1.575,1.122,17.916,17.916,0,0,0,3.344,5.8,1.668,1.668,0,0,1,.178,1.919l-3.07,5.321,8.666,5.013,3.058-5.328a1.662,1.662,0,0,1,1.747-.808,18.791,18.791,0,0,0,6.738,0,1.666,1.666,0,0,1,1.747.808l3.069,5.321,8.664-5-3.079-5.33a1.668,1.668,0,0,1,.178-1.918,17.934,17.934,0,0,0,3.344-5.8" fill="#fff"/><path d="M410.09,421.851l-4.609-4.621-.1-.1-4.72,4.718,2.361,2.36,2.359,2.359Z" fill="#fff"/><path d="M384.362,388.374a17.935,17.935,0,0,0,3.344,5.8,1.665,1.665,0,0,1,.178,1.918l-3.07,5.322,8.665,5.013,3.059-5.328a1.659,1.659,0,0,1,1.746-.808,18.789,18.789,0,0,0,6.738,0,1.586,1.586,0,0,1,.228-.007,34.846,34.846,0,0,1-1.3-4.9,13.341,13.341,0,1,1-2.291-26.483,13.138,13.138,0,0,1,6.79,1.874,35.247,35.247,0,0,1,7.806-9l-6.423-3.7L406.77,363.4a1.666,1.666,0,0,1-1.748.807,18.835,18.835,0,0,0-6.738,0,1.654,1.654,0,0,1-1.746-.807l-3.069-5.322-8.664,5,3.078,5.329a1.666,1.666,0,0,1-.177,1.919,17.934,17.934,0,0,0-3.344,5.8,1.668,1.668,0,0,1-1.577,1.121h-6.156v10.01h6.156a1.67,1.67,0,0,1,1.577,1.122" fill="#fff"/><path d="M384.143,450.157a1.671,1.671,0,0,0,2.361,0l2.358-2.359-9.437-9.437-2.359,2.358a1.667,1.667,0,0,0,0,2.359Z" fill="#fff"/><path d="M401.654,372.238a10.009,10.009,0,1,0,1.826,19.836c-.092-1.041-.158-2.089-.158-3.154a34.747,34.747,0,0,1,3.515-15.2,9.8,9.8,0,0,0-5.183-1.486" fill="#fff"/><path d="M621.856,355.239a37.361,37.361,0,0,0,37.456,1.815l-2.652-5.135a32.281,32.281,0,0,1-34.8-3.826V326.561h-28.89v28.891h28.89Z" fill="#01074e"/><path d="M634.159,293.031l8.113,12.979,19.659-31.452H622.613l8.365,13.384a37.661,37.661,0,0,0-25.745,29.475l5.7.953a31.837,31.837,0,0,1,23.226-25.339" fill="#01074e"/><path d="M662.688,341.006a14.445,14.445,0,1,0,17.073-14.179c.088-1.054.261-2.1.261-3.155a37.778,37.778,0,0,0-18.288-32.245l-2.968,4.96a31.963,31.963,0,0,1,15.478,27.285,32.315,32.315,0,0,1-.27,3.261A14.452,14.452,0,0,0,662.688,341.006Z" fill="#01074e"/><g opacity="0.39"><g clip-path="url(#c)"><path d="M60.48,361.229a30.24,30.24,0,1,1-30.24-30.24,30.24,30.24,0,0,1,30.24,30.24" fill="#bde038"/></g></g><g opacity="0.36"><g clip-path="url(#d)"><path d="M52.08,361.229a21.84,21.84,0,1,1-21.84-21.84,21.84,21.84,0,0,1,21.84,21.84" fill="#bde038"/></g></g><path d="M45.36,361.229a15.12,15.12,0,1,1-15.12-15.12,15.119,15.119,0,0,1,15.12,15.12" fill="#bde038"/><path d="M32.519,368.831H29.354V356.614l-3.778,1.167v-2.552l6.6-2.365h.339Z"/><g opacity="0.39"><g clip-path="url(#e)"><path d="M343.92,531.267a30.24,30.24,0,1,1-30.24-30.24,30.24,30.24,0,0,1,30.24,30.24" fill="#bde038"/></g></g><g opacity="0.36"><g clip-path="url(#f)"><path d="M335.52,531.267a21.84,21.84,0,1,1-21.84-21.84,21.84,21.84,0,0,1,21.84,21.84" fill="#bde038"/></g></g><path d="M328.8,531.267a15.12,15.12,0,1,1-15.12-15.12,15.119,15.119,0,0,1,15.12,15.12" fill="#bde038"/><path d="M319.2,538.869H308.271V536.7l5.158-5.5A12.69,12.69,0,0,0,315,529.178a3.255,3.255,0,0,0,.509-1.643,2.44,2.44,0,0,0-.536-1.671,1.938,1.938,0,0,0-1.533-.607,2.087,2.087,0,0,0-1.692.739,2.926,2.926,0,0,0-.619,1.943h-3.176a5.228,5.228,0,0,1,.7-2.661,4.891,4.891,0,0,1,1.965-1.888,5.967,5.967,0,0,1,2.88-.685,5.656,5.656,0,0,1,3.828,1.183,4.185,4.185,0,0,1,1.363,3.34,5.368,5.368,0,0,1-.613,2.41,13.387,13.387,0,0,1-2.1,2.857l-3.624,3.822H319.2Z"/><g opacity="0.39"><g clip-path="url(#g)"><path d="M858.256,417.127a30.24,30.24,0,1,1-30.24-30.24,30.24,30.24,0,0,1,30.24,30.24" fill="#bde038"/></g></g><g opacity="0.36"><g clip-path="url(#h)"><path d="M849.857,417.127a21.84,21.84,0,1,1-21.841-21.84,21.841,21.841,0,0,1,21.841,21.84" fill="#bde038"/></g></g><path d="M843.136,417.127a15.12,15.12,0,1,1-15.12-15.12,15.119,15.119,0,0,1,15.12,15.12" fill="#bde038"/><path d="M825.827,415.354h1.687a2.376,2.376,0,0,0,1.784-.6,2.209,2.209,0,0,0,.581-1.6,1.95,1.95,0,0,0-.575-1.5,2.227,2.227,0,0,0-1.582-.537,2.339,2.339,0,0,0-1.523.5,1.6,1.6,0,0,0-.613,1.3h-3.165a3.9,3.9,0,0,1,.674-2.241,4.477,4.477,0,0,1,1.883-1.548,6.264,6.264,0,0,1,2.667-.559,5.96,5.96,0,0,1,3.964,1.209,4.131,4.131,0,0,1,1.435,3.336,3.356,3.356,0,0,1-.668,2.014,4.344,4.344,0,0,1-1.752,1.414,3.718,3.718,0,0,1,2.672,3.722,4.2,4.2,0,0,1-1.55,3.407,6.236,6.236,0,0,1-4.1,1.281,5.9,5.9,0,0,1-3.9-1.26,4.113,4.113,0,0,1-1.517-3.328h3.165a1.83,1.83,0,0,0,.674,1.467,2.813,2.813,0,0,0,3.427-.028,2.06,2.06,0,0,0,.641-1.582q0-2.388-2.628-2.388h-1.676Z"/></g></g></svg>